<?xml version="1.0" encoding="UTF-8" standalone="no"?>
<svg
   width="212pt"
   height="210pt"
   viewBox="0 0 212 210"
   version="1.1"
   id="svg11"
   xmlns="http://www.w3.org/2000/svg"
   xmlns:svg="http://www.w3.org/2000/svg">
  <defs
     id="defs11" />
  <rect
     x="-21.2"
     y="-21"
     width="254.4"
     height="252"
     fill="rgb(100%, 100%, 100%)"
     fill-opacity="1"
     id="rect1" />
  <path
     fill="none"
     stroke-width="1"
     stroke-linecap="round"
     stroke-linejoin="round"
     stroke="rgb(0%, 0%, 0%)"
     stroke-opacity="1"
     stroke-miterlimit="10"
     d="M 158.800781 2.917969 C 158.800781 12.359375 163.246094 21.253906 170.800781 26.917969 L 188.800781 2.917969 Z M 158.800781 2.917969 "
     id="path1" />
  <path
     fill="none"
     stroke-width="1"
     stroke-linecap="round"
     stroke-linejoin="round"
     stroke="rgb(0%, 0%, 0%)"
     stroke-opacity="1"
     stroke-miterlimit="10"
     d="M 163.800781 2.917969 C 163.800781 10.789062 167.503906 18.195312 173.800781 22.917969 "
     id="path2" />
  <path
     fill="none"
     stroke-width="1"
     stroke-linecap="round"
     stroke-linejoin="round"
     stroke="rgb(0%, 0%, 0%)"
     stroke-opacity="1"
     stroke-miterlimit="10"
     d="M 36.363281 22.917969 C 47.40625 22.917969 56.363281 13.964844 56.363281 2.917969 L 36.363281 2.917969 Z M 36.363281 22.917969 "
     id="path3" />
  <path
     fill-rule="nonzero"
     fill="rgb(0%, 0%, 0%)"
     fill-opacity="1"
     d="M 46.679688 11.238281 C 46.679688 12.34375 45.785156 13.238281 44.679688 13.238281 C 43.574219 13.238281 42.679688 12.34375 42.679688 11.238281 C 42.679688 10.132812 43.574219 9.238281 44.679688 9.238281 C 45.785156 9.238281 46.679688 10.132812 46.679688 11.238281 Z M 46.679688 11.238281 "
     id="path4" />
  <path
     fill="none"
     stroke-width="3"
     stroke-linecap="round"
     stroke-linejoin="round"
     stroke="rgb(100%, 0%, 100%)"
     stroke-opacity="1"
     stroke-miterlimit="10"
     d="M 188.800781 2.917969 L 36.363281 206.167969 "
     id="path5" />
  <path
     fill-rule="nonzero"
     fill="rgb(0%, 0%, 0%)"
     fill-opacity="1"
     d="M 131.105469 30.796875 L 131 30.933594 C 131 30.933594 130.484375 30.933594 130.484375 30.664062 C 130.484375 30.664062 130.484375 29.90625 131.402344 28.503906 C 131.402344 28.503906 133.292969 25.777344 135.75 25.722656 C 135.75 25.722656 138.179688 25.722656 139.34375 28.691406 C 139.34375 28.691406 140.339844 31.203125 140.449219 34.199219 C 140.449219 34.199219 142.582031 28.855469 144.011719 26.207031 C 144.011719 26.207031 144.09375 26.019531 144.335938 26.019531 C 144.335938 26.019531 144.660156 26.019531 144.660156 26.289062 C 144.660156 26.289062 144.660156 26.425781 144.148438 27.316406 C 144.148438 27.316406 142.148438 31.285156 140.664062 35.550781 C 140.664062 35.550781 140.558594 35.875 140.476562 36.144531 C 140.476562 36.144531 140.367188 36.496094 140.261719 37.199219 C 140.261719 37.199219 140.015625 39.085938 139.261719 41.839844 C 139.261719 41.839844 138.800781 43.378906 138.398438 43.460938 C 138.398438 43.460938 138.046875 43.460938 138.046875 42.976562 C 138.046875 42.976562 138.046875 41.867188 139.394531 37.304688 C 139.394531 37.304688 139.421875 37.25 139.449219 37.171875 C 139.449219 37.171875 139.773438 36.253906 139.773438 34.523438 C 139.773438 34.523438 139.773438 28.179688 135.992188 27.695312 C 135.992188 27.695312 135.695312 27.667969 135.398438 27.667969 C 135.398438 27.667969 133.484375 27.667969 132.1875 28.988281 L 132.160156 29.015625 C 132.160156 29.015625 131.457031 29.746094 131.105469 30.796875 Z M 131.105469 30.796875 "
     id="path6" />
  <path
     fill-rule="nonzero"
     fill="rgb(0%, 0%, 0%)"
     fill-opacity="1"
     d="M 150.316406 17.457031 L 146.933594 25.394531 C 146.933594 25.394531 146.820312 25.65625 146.6875 25.65625 C 146.6875 25.65625 146.347656 25.65625 146.121094 25.449219 C 146.121094 25.449219 146.046875 25.394531 146.046875 25.316406 C 146.046875 25.316406 146.046875 25.28125 146.101562 25.054688 L 148.390625 16.8125 C 148.390625 16.8125 148.636719 16.039062 149.222656 15.960938 C 149.222656 15.960938 149.316406 15.941406 149.390625 15.941406 C 149.390625 15.941406 150.035156 15.941406 150.335938 16.492188 C 150.335938 16.492188 150.449219 16.699219 150.449219 16.925781 C 150.449219 16.925781 150.449219 17.171875 150.316406 17.457031 Z M 150.316406 17.457031 "
     id="path7" />
  <path
     fill-rule="nonzero"
     fill="rgb(0%, 0%, 0%)"
     fill-opacity="1"
     d="M 24.933594 94.296875 L 21.042969 109.902344 C 21.042969 109.902344 20.882812 110.578125 20.882812 111.199219 C 20.882812 111.199219 20.882812 112.441406 21.691406 112.441406 C 21.691406 112.441406 22.71875 112.441406 23.421875 110.28125 C 23.421875 110.28125 23.554688 109.820312 23.742188 109.09375 C 23.742188 109.09375 23.960938 108.632812 24.121094 108.605469 C 24.121094 108.605469 24.445312 108.605469 24.445312 108.878906 C 24.445312 108.878906 24.445312 109.28125 23.960938 110.765625 C 23.960938 110.765625 23.796875 111.226562 23.636719 111.550781 C 23.636719 111.550781 22.878906 113.035156 21.636719 113.035156 C 21.636719 113.035156 20.125 113.035156 19.449219 111.738281 C 19.449219 111.738281 19.261719 111.414062 19.179688 111.011719 C 19.179688 111.011719 17.480469 113.035156 15.671875 113.035156 C 15.671875 113.035156 13.644531 113.035156 12.675781 111.199219 C 12.675781 111.199219 12.078125 110.117188 12.078125 108.714844 C 12.078125 108.714844 12.078125 105.800781 14.105469 103.316406 C 14.105469 103.316406 15.996094 101.046875 18.210938 100.832031 C 18.210938 100.832031 18.398438 100.804688 18.585938 100.804688 C 18.585938 100.804688 20.234375 100.804688 21.070312 102.53125 L 22.691406 96.132812 L 22.773438 95.59375 C 22.773438 95.59375 22.773438 95.296875 22.394531 95.214844 C 22.394531 95.214844 22.070312 95.132812 21.421875 95.132812 C 21.421875 95.132812 20.828125 95.132812 20.773438 94.808594 C 20.773438 94.808594 20.773438 94.351562 21.152344 94.296875 C 21.152344 94.296875 23.691406 94 24.582031 94 C 24.582031 94 24.933594 94 24.933594 94.296875 M 19.316406 109.523438 L 20.667969 104.234375 C 20.667969 104.234375 20.746094 103.828125 20.746094 103.773438 C 20.746094 103.773438 20.746094 103.207031 20.261719 102.398438 C 20.261719 102.398438 19.667969 101.398438 18.613281 101.398438 C 18.613281 101.398438 17.210938 101.398438 15.941406 103.234375 C 15.941406 103.234375 15.699219 103.585938 15.480469 103.988281 C 15.480469 103.988281 14.699219 105.554688 14.160156 108.445312 C 14.160156 108.445312 13.996094 109.363281 13.996094 109.902344 C 13.996094 109.902344 13.996094 111.738281 15.023438 112.277344 C 15.023438 112.277344 15.320312 112.441406 15.726562 112.441406 C 15.726562 112.441406 17.238281 112.441406 18.777344 110.523438 C 18.777344 110.523438 19.152344 110.09375 19.289062 109.632812 L 19.289062 109.605469 C 19.289062 109.605469 19.316406 109.550781 19.316406 109.523438 Z M 19.316406 109.523438 "
     id="path8" />
  <path
     fill="none"
     stroke-width="1"
     stroke-linecap="round"
     stroke-linejoin="round"
     stroke="rgb(0%, 0%, 0%)"
     stroke-opacity="1"
     stroke-miterlimit="10"
     d="M -5 206.167969 L 217 206.167969 "
     id="path9" />
  <path
     fill="none"
     stroke-width="1"
     stroke-linecap="round"
     stroke-linejoin="round"
     stroke="rgb(0%, 0%, 0%)"
     stroke-opacity="1"
     stroke-miterlimit="10"
     d="M -5 2.917969 L 217 2.917969 "
     id="path10" />
  <path
     fill="none"
     stroke-width="1"
     stroke-linecap="round"
     stroke-linejoin="round"
     stroke="rgb(0%, 0%, 0%)"
     stroke-opacity="1"
     stroke-miterlimit="10"
     d="M 36.363281 2.917969 L 36.363281 206.167969 "
     id="path11" />
</svg>
