<?xml version="1.0" encoding="UTF-8" standalone="no"?>
<svg
   width="438pt"
   height="426pt"
   viewBox="0 0 438 426"
   version="1.1"
   id="svg40"
   xmlns="http://www.w3.org/2000/svg"
   xmlns:svg="http://www.w3.org/2000/svg">
  <defs
     id="defs40" />
  <rect
     x="-43.8"
     y="-42.6"
     width="525.6"
     height="511.2"
     fill="rgb(100%, 100%, 100%)"
     fill-opacity="1"
     id="rect1" />
  <path
     fill="none"
     stroke-width="1"
     stroke-linecap="round"
     stroke-linejoin="round"
     stroke="rgb(0%, 0%, 0%)"
     stroke-opacity="1"
     stroke-miterlimit="10"
     d="M 158.601562 408.667969 C 194.097656 428.738281 237.519531 428.738281 273.015625 408.667969 "
     id="path1" />
  <path
     fill="none"
     stroke-width="1"
     stroke-linecap="round"
     stroke-linejoin="round"
     stroke="rgb(0%, 0%, 0%)"
     stroke-opacity="1"
     stroke-miterlimit="10"
     d="M 215.808594 81.800781 C 231.171875 81.800781 245.179688 73 251.847656 59.15625 L 215.808594 41.800781 Z M 215.808594 81.800781 "
     id="path2" />
  <path
     fill="none"
     stroke-width="1"
     stroke-linecap="round"
     stroke-linejoin="round"
     stroke="rgb(0%, 0%, 0%)"
     stroke-opacity="1"
     stroke-miterlimit="10"
     d="M 215.808594 76.800781 C 229.253906 76.800781 241.507812 69.097656 247.34375 56.984375 "
     id="path3" />
  <path
     fill="none"
     stroke-width="1"
     stroke-linecap="round"
     stroke-linejoin="round"
     stroke="rgb(0%, 0%, 0%)"
     stroke-opacity="1"
     stroke-miterlimit="10"
     d="M 188.78125 54.816406 C 193.78125 65.199219 204.285156 71.800781 215.808594 71.800781 L 215.808594 41.800781 Z M 188.78125 54.816406 "
     id="path4" />
  <path
     fill="none"
     stroke-width="1"
     stroke-linecap="round"
     stroke-linejoin="round"
     stroke="rgb(0%, 0%, 0%)"
     stroke-opacity="1"
     stroke-miterlimit="10"
     d="M 193.285156 52.648438 C 197.449219 61.300781 206.207031 66.800781 215.808594 66.800781 "
     id="path5" />
  <path
     fill="none"
     stroke-width="1"
     stroke-linecap="round"
     stroke-linejoin="round"
     stroke="rgb(0%, 0%, 0%)"
     stroke-opacity="1"
     stroke-miterlimit="10"
     d="M 215.808594 150.480469 C 204.285156 150.480469 193.78125 157.082031 188.78125 167.464844 L 215.808594 180.480469 Z M 215.808594 150.480469 "
     id="path6" />
  <path
     fill="none"
     stroke-width="1"
     stroke-linecap="round"
     stroke-linejoin="round"
     stroke="rgb(0%, 0%, 0%)"
     stroke-opacity="1"
     stroke-miterlimit="10"
     d="M 215.808594 155.480469 C 206.207031 155.480469 197.449219 160.980469 193.285156 169.632812 "
     id="path7" />
  <path
     fill="none"
     stroke-width="1"
     stroke-linecap="round"
     stroke-linejoin="round"
     stroke="rgb(0%, 0%, 0%)"
     stroke-opacity="1"
     stroke-miterlimit="10"
     d="M 295.714844 371.894531 C 290.410156 371.894531 285.324219 374 281.574219 377.75 C 277.820312 381.5 275.714844 386.589844 275.714844 391.894531 L 295.714844 391.894531 Z M 295.714844 371.894531 "
     id="path8" />
  <path
     fill-rule="nonzero"
     fill="rgb(0%, 0%, 0%)"
     fill-opacity="1"
     d="M 289.394531 383.574219 C 289.394531 384.679688 288.5 385.574219 287.394531 385.574219 C 286.292969 385.574219 285.394531 384.679688 285.394531 383.574219 C 285.394531 382.46875 286.292969 381.574219 287.394531 381.574219 C 288.5 381.574219 289.394531 382.46875 289.394531 383.574219 Z M 289.394531 383.574219 "
     id="path9" />
  <path
     fill="none"
     stroke-width="1"
     stroke-linecap="round"
     stroke-linejoin="round"
     stroke="rgb(0%, 0%, 0%)"
     stroke-opacity="1"
     stroke-miterlimit="10"
     d="M 215.808594 41.800781 L 359.792969 111.140625 "
     id="path10" />
  <path
     fill="none"
     stroke-width="1"
     stroke-linecap="round"
     stroke-linejoin="round"
     stroke="rgb(0%, 0%, 0%)"
     stroke-opacity="1"
     stroke-miterlimit="10"
     d="M 359.792969 111.140625 L 395.355469 266.945312 "
     id="path11" />
  <path
     fill="none"
     stroke-width="1"
     stroke-linecap="round"
     stroke-linejoin="round"
     stroke="rgb(0%, 0%, 0%)"
     stroke-opacity="1"
     stroke-miterlimit="10"
     d="M 395.355469 266.945312 L 295.714844 391.894531 "
     id="path12" />
  <path
     fill="none"
     stroke-width="1"
     stroke-linecap="round"
     stroke-linejoin="round"
     stroke="rgb(0%, 0%, 0%)"
     stroke-opacity="1"
     stroke-miterlimit="10"
     d="M 295.714844 391.894531 L 135.902344 391.894531 "
     id="path13" />
  <path
     fill="none"
     stroke-width="1"
     stroke-linecap="round"
     stroke-linejoin="round"
     stroke="rgb(0%, 0%, 0%)"
     stroke-opacity="1"
     stroke-miterlimit="10"
     d="M 135.902344 391.894531 L 36.261719 266.945312 "
     id="path14" />
  <path
     fill="none"
     stroke-width="1"
     stroke-linecap="round"
     stroke-linejoin="round"
     stroke="rgb(0%, 0%, 0%)"
     stroke-opacity="1"
     stroke-miterlimit="10"
     d="M 36.261719 266.945312 L 71.820312 111.140625 "
     id="path15" />
  <path
     fill="none"
     stroke-width="1"
     stroke-linecap="round"
     stroke-linejoin="round"
     stroke="rgb(0%, 0%, 0%)"
     stroke-opacity="1"
     stroke-miterlimit="10"
     d="M 71.820312 111.140625 L 215.808594 41.800781 "
     id="path16" />
  <path
     fill="none"
     stroke-width="1"
     stroke-linecap="round"
     stroke-linejoin="round"
     stroke="rgb(0%, 0%, 0%)"
     stroke-opacity="1"
     stroke-miterlimit="10"
     d="M 395.355469 266.945312 L 71.820312 111.140625 "
     id="path17" />
  <path
     fill="none"
     stroke-width="1"
     stroke-linecap="butt"
     stroke-linejoin="round"
     stroke="rgb(0%, 0%, 0%)"
     stroke-opacity="1"
     stroke-dasharray="5 4"
     stroke-miterlimit="10"
     d="M 215.808594 41.800781 L 215.808594 426 "
     id="path18" />
  <path
     fill="none"
     stroke-width="1"
     stroke-linecap="round"
     stroke-linejoin="round"
     stroke="rgb(0%, 0%, 0%)"
     stroke-opacity="1"
     stroke-miterlimit="10"
     d="M 295.714844 391.894531 L 295.714844 46.730469 "
     id="path19" />
  <path
     fill="none"
     stroke-width="3"
     stroke-linecap="round"
     stroke-linejoin="round"
     stroke="rgb(100%, 0%, 100%)"
     stroke-opacity="1"
     stroke-miterlimit="10"
     d="M 295.714844 80.28125 L 215.808594 41.800781 "
     id="path20" />
  <path
     fill="none"
     stroke-width="3"
     stroke-linecap="round"
     stroke-linejoin="round"
     stroke="rgb(100%, 0%, 100%)"
     stroke-opacity="1"
     stroke-miterlimit="10"
     d="M 295.714844 218.960938 L 215.808594 180.480469 "
     id="path21" />
  <path
     fill="none"
     stroke-width="1"
     stroke-linecap="round"
     stroke-linejoin="round"
     stroke="rgb(0%, 0%, 0%)"
     stroke-opacity="1"
     stroke-miterlimit="10"
     d="M 158.601562 408.667969 L 156.941406 407.570312 "
     id="path22" />
  <path
     fill-rule="evenodd"
     fill="rgb(0%, 0%, 0%)"
     fill-opacity="1"
     d="M 145.257812 399.855469 L 158.867188 404.648438 L 155.011719 410.488281 Z M 145.257812 399.855469 "
     id="path23" />
  <path
     fill="none"
     stroke-width="1"
     stroke-linecap="round"
     stroke-linejoin="round"
     stroke="rgb(0%, 0%, 0%)"
     stroke-opacity="1"
     stroke-miterlimit="10"
     d="M 273.015625 408.667969 L 274.675781 407.570312 "
     id="path24" />
  <path
     fill-rule="evenodd"
     fill="rgb(0%, 0%, 0%)"
     fill-opacity="1"
     d="M 286.359375 399.855469 L 276.605469 410.488281 L 272.75 404.648438 Z M 286.359375 399.855469 "
     id="path25" />
  <path
     fill-rule="nonzero"
     fill="rgb(0%, 0%, 0%)"
     fill-opacity="1"
     stroke-width="1"
     stroke-linecap="round"
     stroke-linejoin="round"
     stroke="rgb(0%, 0%, 0%)"
     stroke-opacity="1"
     stroke-miterlimit="10"
     d="M 218.808594 41.800781 C 218.808594 43.457031 217.464844 44.800781 215.808594 44.800781 C 214.152344 44.800781 212.808594 43.457031 212.808594 41.800781 C 212.808594 40.144531 214.152344 38.800781 215.808594 38.800781 C 217.464844 38.800781 218.808594 40.144531 218.808594 41.800781 Z M 218.808594 41.800781 "
     id="path26" />
  <path
     fill-rule="nonzero"
     fill="rgb(0%, 0%, 0%)"
     fill-opacity="1"
     stroke-width="1"
     stroke-linecap="round"
     stroke-linejoin="round"
     stroke="rgb(0%, 0%, 0%)"
     stroke-opacity="1"
     stroke-miterlimit="10"
     d="M 298.714844 218.960938 C 298.714844 220.617188 297.371094 221.960938 295.714844 221.960938 C 294.058594 221.960938 292.714844 220.617188 292.714844 218.960938 C 292.714844 217.304688 294.058594 215.960938 295.714844 215.960938 C 297.371094 215.960938 298.714844 217.304688 298.714844 218.960938 Z M 298.714844 218.960938 "
     id="path27" />
  <path
     fill-rule="nonzero"
     fill="rgb(0%, 0%, 0%)"
     fill-opacity="1"
     stroke-width="1"
     stroke-linecap="round"
     stroke-linejoin="round"
     stroke="rgb(0%, 0%, 0%)"
     stroke-opacity="1"
     stroke-miterlimit="10"
     d="M 298.714844 80.28125 C 298.714844 81.9375 297.371094 83.28125 295.714844 83.28125 C 294.058594 83.28125 292.714844 81.9375 292.714844 80.28125 C 292.714844 78.625 294.058594 77.28125 295.714844 77.28125 C 297.371094 77.28125 298.714844 78.625 298.714844 80.28125 Z M 298.714844 80.28125 "
     id="path28" />
  <path
     fill-rule="nonzero"
     fill="rgb(0%, 0%, 0%)"
     fill-opacity="1"
     stroke-width="1"
     stroke-linecap="round"
     stroke-linejoin="round"
     stroke="rgb(0%, 0%, 0%)"
     stroke-opacity="1"
     stroke-miterlimit="10"
     d="M 218.808594 180.480469 C 218.808594 182.136719 217.464844 183.480469 215.808594 183.480469 C 214.152344 183.480469 212.808594 182.136719 212.808594 180.480469 C 212.808594 178.824219 214.152344 177.480469 215.808594 177.480469 C 217.464844 177.480469 218.808594 178.824219 218.808594 180.480469 Z M 218.808594 180.480469 "
     id="path29" />
  <path
     fill-rule="nonzero"
     fill="rgb(0%, 0%, 0%)"
     fill-opacity="1"
     d="M 209.832031 18.335938 L 219.230469 2.566406 C 219.230469 2.566406 219.5 2.136719 219.929688 2.109375 C 219.929688 2.109375 220.335938 2.109375 220.390625 2.378906 C 220.390625 2.378906 220.417969 2.460938 220.445312 2.757812 L 222.089844 19.632812 C 222.089844 19.632812 222.171875 20.308594 222.414062 20.441406 L 222.441406 20.441406 L 222.441406 20.46875 C 222.441406 20.46875 222.765625 20.605469 223.847656 20.605469 C 223.847656 20.605469 224.441406 20.605469 224.46875 20.902344 C 224.46875 20.902344 224.46875 21.441406 223.980469 21.441406 L 220.957031 21.359375 L 220.929688 21.359375 L 217.582031 21.441406 L 217.554688 21.441406 C 217.554688 21.441406 217.175781 21.441406 217.175781 21.144531 C 217.175781 21.144531 217.394531 20.632812 217.824219 20.605469 C 217.824219 20.605469 219.769531 20.605469 219.769531 19.714844 C 219.769531 19.714844 219.769531 19.738281 219.335938 15.203125 L 212.558594 15.203125 L 210.507812 18.660156 C 210.507812 18.660156 210.128906 19.335938 210.128906 19.660156 C 210.128906 19.660156 210.128906 20.496094 211.398438 20.605469 C 211.398438 20.605469 211.832031 20.605469 211.832031 20.929688 C 211.832031 20.929688 211.832031 21.441406 211.316406 21.441406 L 208.726562 21.359375 L 208.617188 21.359375 L 206.351562 21.441406 L 206.296875 21.441406 C 206.296875 21.441406 205.945312 21.441406 205.945312 21.144531 C 205.945312 21.144531 205.945312 20.65625 206.351562 20.632812 L 206.351562 20.605469 L 206.511719 20.605469 C 206.511719 20.605469 208.214844 20.496094 209.292969 19.144531 C 209.292969 19.144531 209.5625 18.796875 209.832031 18.335938 M 213.074219 14.367188 L 219.257812 14.367188 L 218.390625 5.457031 Z M 213.074219 14.367188 "
     id="path30" />
  <path
     fill-rule="nonzero"
     fill="rgb(0%, 0%, 0%)"
     fill-opacity="1"
     d="M 374.320312 104.335938 L 377.9375 89.835938 C 377.9375 89.835938 378.046875 89.402344 378.046875 89.324219 C 378.046875 89.324219 378.046875 89 377.613281 88.917969 L 377.558594 88.917969 C 377.558594 88.917969 377.480469 88.917969 377.316406 88.890625 C 377.316406 88.890625 376.859375 88.835938 376.289062 88.835938 C 376.289062 88.835938 375.589844 88.835938 375.535156 88.539062 C 375.535156 88.539062 375.535156 88.054688 375.941406 88 L 385.390625 88 C 385.390625 88 388.496094 88 389.816406 89.835938 C 389.816406 89.835938 390.410156 90.699219 390.410156 91.726562 C 390.410156 91.726562 390.410156 93.914062 387.980469 95.53125 C 387.980469 95.53125 387.953125 95.53125 387.929688 95.558594 C 387.929688 95.558594 386.496094 96.476562 384.769531 96.800781 C 384.769531 96.800781 387.523438 97.125 388.550781 98.960938 C 388.550781 98.960938 388.953125 99.71875 388.953125 100.609375 C 388.953125 100.609375 388.953125 102.578125 387.0625 104.308594 L 387.035156 104.335938 C 387.035156 104.335938 384.714844 106.441406 381.5 106.441406 L 371.863281 106.441406 C 371.863281 106.441406 371.1875 106.441406 371.132812 106.144531 C 371.132812 106.144531 371.132812 105.65625 371.539062 105.605469 L 371.863281 105.605469 C 371.863281 105.605469 373.617188 105.605469 373.96875 105.226562 C 373.96875 105.226562 374.132812 105.035156 374.292969 104.46875 C 374.292969 104.46875 374.292969 104.441406 374.320312 104.335938 M 378.398438 96.558594 L 382.339844 96.558594 C 382.339844 96.558594 385.011719 96.558594 386.738281 94.613281 C 386.738281 94.613281 387.953125 93.238281 387.953125 91.617188 C 387.953125 91.617188 387.953125 89.648438 386.335938 89.054688 C 386.335938 89.054688 385.769531 88.835938 385.011719 88.835938 L 381.527344 88.835938 C 381.527344 88.835938 380.558594 88.835938 380.339844 89.105469 L 380.339844 89.132812 L 380.3125 89.132812 L 380.3125 89.160156 C 380.3125 89.160156 380.207031 89.324219 380.070312 89.863281 L 378.398438 96.558594 M 377.183594 105.605469 L 380.855469 105.605469 C 380.855469 105.605469 383.445312 105.605469 385.148438 103.660156 C 385.148438 103.660156 386.441406 102.148438 386.441406 100.3125 C 386.441406 100.3125 386.441406 98.339844 385.039062 97.53125 C 385.039062 97.53125 384.335938 97.152344 383.339844 97.152344 L 378.234375 97.152344 L 376.371094 104.6875 C 376.371094 104.6875 376.238281 105.171875 376.238281 105.308594 C 376.238281 105.308594 376.238281 105.523438 376.480469 105.578125 L 376.589844 105.578125 C 376.589844 105.578125 376.75 105.605469 377.183594 105.605469 Z M 377.183594 105.605469 "
     id="path31" />
  <path
     fill-rule="nonzero"
     fill="rgb(0%, 0%, 0%)"
     fill-opacity="1"
     d="M 429.519531 257.675781 L 427.820312 264.5625 C 427.820312 264.5625 427.683594 265.046875 427.550781 265.074219 L 427.523438 265.101562 L 427.332031 265.101562 C 427.332031 265.101562 426.929688 265.101562 426.929688 264.832031 L 427.007812 263.507812 L 427.007812 263.453125 C 427.007812 263.453125 427.007812 260.105469 424.902344 258.835938 L 424.875 258.808594 C 424.875 258.808594 423.929688 258.242188 422.660156 258.242188 C 422.660156 258.242188 419.800781 258.242188 417.234375 260.375 C 417.234375 260.375 416.585938 260.890625 416.074219 261.511719 C 416.074219 261.511719 413.507812 264.507812 412.914062 269.125 C 412.914062 269.125 412.808594 269.960938 412.808594 270.582031 C 412.808594 270.582031 412.808594 274.363281 415.667969 275.683594 C 415.667969 275.683594 416.777344 276.199219 418.097656 276.199219 C 418.097656 276.199219 420.636719 276.199219 423.066406 274.226562 C 423.066406 274.226562 424.957031 272.632812 425.792969 269.960938 C 425.792969 269.960938 425.847656 269.691406 426.144531 269.691406 C 426.144531 269.691406 426.46875 269.691406 426.46875 269.960938 C 426.46875 269.960938 426.46875 270.445312 425.847656 271.6875 C 425.847656 271.6875 425.011719 273.390625 423.5 274.714844 C 423.5 274.714844 420.824219 277.035156 417.667969 277.035156 C 417.667969 277.035156 414.210938 277.035156 412.132812 274.660156 C 412.132812 274.660156 410.351562 272.632812 410.351562 269.636719 C 410.351562 269.636719 410.351562 265.613281 413.292969 262.105469 C 413.292969 262.105469 416.019531 258.835938 419.746094 257.785156 C 419.746094 257.785156 421.125 257.40625 422.445312 257.40625 C 422.445312 257.40625 425.390625 257.40625 426.929688 259.808594 L 428.816406 257.730469 C 428.816406 257.730469 429.140625 257.40625 429.222656 257.40625 C 429.222656 257.40625 429.519531 257.40625 429.519531 257.675781 Z M 429.519531 257.675781 "
     id="path32" />
  <path
     fill-rule="nonzero"
     fill="rgb(0%, 0%, 0%)"
     fill-opacity="1"
     d="M 300.292969 422.335938 L 303.910156 407.835938 C 303.910156 407.835938 304.019531 407.402344 304.019531 407.324219 C 304.019531 407.324219 304.019531 407 303.585938 406.917969 L 303.558594 406.917969 C 303.558594 406.917969 303.507812 406.890625 303.425781 406.890625 C 303.425781 406.890625 302.777344 406.835938 302.265625 406.835938 C 302.265625 406.835938 301.5625 406.835938 301.507812 406.621094 C 301.507812 406.621094 301.480469 406.566406 301.480469 406.511719 C 301.480469 406.511719 301.480469 406.054688 301.941406 406 L 311.363281 406 C 311.363281 406 314.871094 406 316.601562 408.726562 C 316.601562 408.726562 317.707031 410.457031 317.707031 412.832031 C 317.707031 412.832031 317.707031 416.746094 314.980469 420.148438 C 314.980469 420.148438 312.390625 423.308594 308.878906 424.171875 C 308.878906 424.171875 307.824219 424.441406 306.773438 424.441406 L 297.835938 424.441406 C 297.835938 424.441406 297.160156 424.441406 297.105469 424.226562 C 297.105469 424.226562 297.078125 424.199219 297.078125 424.117188 C 297.078125 424.117188 297.078125 423.65625 297.511719 423.605469 L 297.835938 423.605469 C 297.835938 423.605469 299.589844 423.605469 299.941406 423.226562 C 299.941406 423.226562 300.105469 423.035156 300.265625 422.46875 C 300.265625 422.46875 300.265625 422.441406 300.292969 422.335938 M 306.125 407.863281 L 302.425781 422.6875 C 302.425781 422.6875 302.289062 423.171875 302.289062 423.308594 C 302.289062 423.308594 302.289062 423.523438 302.535156 423.578125 L 302.640625 423.578125 C 302.640625 423.578125 302.804688 423.605469 303.234375 423.605469 L 306.285156 423.605469 C 306.285156 423.605469 309.636719 423.605469 312.066406 421.09375 C 312.066406 421.09375 312.308594 420.824219 312.523438 420.554688 C 312.523438 420.554688 314.683594 417.746094 315.25 413.210938 C 315.25 413.210938 315.359375 412.371094 315.359375 411.832031 C 315.359375 411.832031 315.359375 408.214844 312.523438 407.1875 C 312.523438 407.1875 311.605469 406.835938 310.472656 406.835938 L 307.582031 406.835938 C 307.582031 406.835938 306.609375 406.835938 306.394531 407.105469 L 306.394531 407.132812 L 306.367188 407.132812 L 306.367188 407.160156 C 306.367188 407.160156 306.261719 407.324219 306.125 407.863281 Z M 306.125 407.863281 "
     id="path33" />
  <path
     fill-rule="nonzero"
     fill="rgb(0%, 0%, 0%)"
     fill-opacity="1"
     d="M 130.117188 420.148438 L 127.632812 425.980469 C 127.632812 425.980469 127.46875 426.359375 127.253906 426.414062 L 127.226562 426.414062 C 127.226562 426.414062 127.117188 426.441406 126.796875 426.441406 L 112.78125 426.441406 C 112.78125 426.441406 112.105469 426.441406 112.054688 426.226562 C 112.054688 426.226562 112.027344 426.199219 112.027344 426.117188 C 112.027344 426.117188 112.027344 425.65625 112.457031 425.605469 L 112.78125 425.605469 C 112.78125 425.605469 114.535156 425.605469 114.886719 425.226562 C 114.886719 425.226562 115.050781 425.035156 115.210938 424.46875 C 115.210938 424.46875 115.210938 424.441406 115.238281 424.335938 L 118.804688 410.050781 C 118.804688 410.050781 118.9375 409.566406 118.9375 409.402344 C 118.9375 409.402344 118.9375 408.945312 117.695312 408.917969 L 117.183594 408.917969 C 117.183594 408.917969 116.480469 408.917969 116.425781 408.621094 C 116.425781 408.621094 116.425781 408.136719 116.859375 408.082031 L 130.871094 408.082031 C 130.871094 408.082031 131.519531 408.082031 131.574219 408.269531 L 131.601562 408.269531 C 131.601562 408.269531 131.65625 408.433594 131.601562 408.808594 L 131.0625 413.480469 C 131.0625 413.480469 130.871094 414.101562 130.683594 414.15625 C 130.683594 414.15625 130.359375 414.15625 130.359375 413.832031 L 130.386719 413.371094 L 130.386719 413.347656 C 130.386719 413.347656 130.492188 412.617188 130.492188 411.914062 C 130.492188 411.914062 130.492188 410.023438 129.441406 409.429688 C 129.441406 409.429688 128.550781 408.917969 126.390625 408.917969 L 122.582031 408.917969 C 122.582031 408.917969 121.582031 408.917969 121.394531 409.214844 L 121.367188 409.214844 L 121.367188 409.242188 C 121.367188 409.242188 121.285156 409.351562 121.234375 409.566406 L 121.234375 409.59375 L 121.207031 409.621094 C 121.207031 409.621094 121.179688 409.726562 121.125 409.972656 L 119.503906 416.476562 L 122.042969 416.476562 C 122.042969 416.476562 124.09375 416.476562 124.769531 415.667969 C 124.769531 415.667969 125.203125 415.15625 125.578125 413.804688 C 125.578125 413.804688 125.6875 413.347656 125.957031 413.320312 C 125.957031 413.320312 126.28125 413.320312 126.28125 413.617188 L 124.742188 419.933594 C 124.742188 419.933594 124.609375 420.445312 124.339844 420.472656 C 124.339844 420.472656 123.988281 420.472656 123.988281 420.175781 C 123.988281 420.175781 123.988281 420.070312 124.066406 419.878906 C 124.066406 419.878906 124.257812 419.070312 124.257812 418.558594 C 124.257812 418.558594 124.257812 417.828125 123.851562 417.613281 C 123.851562 417.613281 123.339844 417.316406 121.960938 417.316406 L 119.289062 417.316406 L 117.453125 424.6875 C 117.453125 424.6875 117.316406 425.171875 117.316406 425.308594 C 117.316406 425.308594 117.316406 425.523438 117.5625 425.578125 L 117.667969 425.578125 C 117.667969 425.578125 117.832031 425.605469 118.261719 425.605469 L 122.203125 425.605469 C 122.203125 425.605469 125.5 425.605469 127.066406 424.09375 C 127.066406 424.09375 128.089844 423.121094 129.304688 420.445312 C 129.304688 420.445312 129.414062 420.148438 129.574219 419.800781 C 129.574219 419.800781 129.683594 419.476562 129.925781 419.476562 C 129.925781 419.476562 130.25 419.476562 130.25 419.773438 C 130.25 419.773438 130.25 419.800781 130.117188 420.148438 Z M 130.117188 420.148438 "
     id="path34" />
  <path
     fill-rule="nonzero"
     fill="rgb(0%, 0%, 0%)"
     fill-opacity="1"
     d="M 7.179688 260.667969 L 5.507812 267.390625 C 5.507812 267.390625 5.398438 267.792969 5.398438 268.011719 C 5.398438 268.011719 5.398438 268.386719 5.75 268.46875 C 5.75 268.46875 5.9375 268.523438 6.261719 268.550781 C 6.261719 268.550781 6.9375 268.605469 7.667969 268.605469 C 7.667969 268.605469 8.34375 268.605469 8.421875 268.632812 L 8.558594 268.820312 C 8.558594 268.820312 8.585938 268.875 8.585938 268.929688 C 8.585938 268.929688 8.585938 269.441406 8.019531 269.441406 L 4.023438 269.359375 L 3.996094 269.359375 L 0.457031 269.441406 L 0.429688 269.441406 C 0.429688 269.441406 0.0273438 269.441406 0.0273438 269.117188 C 0.0273438 269.117188 0.0273438 268.65625 0.457031 268.605469 L 0.78125 268.605469 C 0.78125 268.605469 2.535156 268.605469 2.886719 268.226562 C 2.886719 268.226562 3.050781 268.035156 3.210938 267.46875 C 3.210938 267.46875 3.210938 267.441406 3.238281 267.335938 L 6.804688 253.050781 C 6.804688 253.050781 6.9375 252.566406 6.9375 252.402344 C 6.9375 252.402344 6.9375 251.945312 5.695312 251.917969 L 5.183594 251.917969 C 5.183594 251.917969 4.480469 251.917969 4.425781 251.621094 C 4.425781 251.621094 4.425781 251.136719 4.859375 251.082031 L 18.46875 251.082031 C 18.46875 251.082031 19.113281 251.082031 19.167969 251.269531 L 19.195312 251.269531 C 19.195312 251.269531 19.25 251.433594 19.195312 251.808594 L 18.65625 256.480469 C 18.65625 256.480469 18.46875 257.101562 18.277344 257.15625 C 18.277344 257.15625 17.953125 257.15625 17.953125 256.832031 C 17.953125 256.832031 17.953125 256.695312 18.007812 256.347656 C 18.007812 256.347656 18.089844 255.617188 18.089844 254.886719 C 18.089844 254.886719 18.089844 253.078125 17.171875 252.484375 L 17.144531 252.457031 C 17.144531 252.457031 16.28125 251.917969 14.148438 251.917969 L 10.582031 251.917969 C 10.582031 251.917969 9.582031 251.917969 9.394531 252.214844 L 9.367188 252.214844 L 9.367188 252.242188 C 9.367188 252.242188 9.285156 252.351562 9.234375 252.566406 L 9.234375 252.59375 L 9.207031 252.621094 C 9.207031 252.621094 9.179688 252.726562 9.125 252.972656 L 7.398438 259.828125 L 9.855469 259.828125 C 9.855469 259.828125 11.824219 259.828125 12.5 259.101562 L 12.527344 259.074219 C 12.527344 259.074219 12.984375 258.558594 13.335938 257.238281 C 13.335938 257.238281 13.472656 256.722656 13.742188 256.671875 C 13.742188 256.671875 14.039062 256.671875 14.066406 256.96875 C 14.066406 256.96875 14.066406 257.101562 13.984375 257.398438 L 12.5 263.257812 C 12.5 263.257812 12.230469 263.796875 12.09375 263.824219 C 12.09375 263.824219 11.769531 263.824219 11.769531 263.5 C 11.769531 263.5 11.769531 263.394531 11.851562 263.203125 C 11.851562 263.203125 12.039062 262.394531 12.039062 261.882812 C 12.039062 261.882812 12.039062 261.097656 11.445312 260.855469 C 11.445312 260.855469 10.933594 260.667969 9.800781 260.667969 Z M 7.179688 260.667969 "
     id="path35" />
  <path
     fill-rule="nonzero"
     fill="rgb(0%, 0%, 0%)"
     fill-opacity="1"
     d="M 59.519531 87.675781 L 57.820312 94.5625 C 57.820312 94.5625 57.683594 95.046875 57.550781 95.074219 L 57.523438 95.101562 L 57.332031 95.101562 C 57.332031 95.101562 56.929688 95.101562 56.929688 94.832031 L 57.007812 93.507812 L 57.007812 93.453125 C 57.007812 93.453125 57.007812 90.105469 54.902344 88.835938 L 54.875 88.808594 C 54.875 88.808594 53.929688 88.242188 52.660156 88.242188 C 52.660156 88.242188 49.773438 88.242188 47.179688 90.429688 C 47.179688 90.429688 46.453125 91.023438 45.910156 91.726562 C 45.910156 91.726562 43.320312 94.910156 42.859375 99.554688 C 42.859375 99.554688 42.808594 100.121094 42.808594 100.527344 C 42.808594 100.527344 42.808594 104.226562 45.613281 105.605469 C 45.613281 105.605469 46.804688 106.199219 48.234375 106.199219 C 48.234375 106.199219 50.527344 106.199219 52.039062 105.035156 C 52.039062 105.035156 53.121094 104.226562 53.445312 102.929688 C 53.445312 102.929688 54.011719 100.824219 54.011719 100.472656 C 54.011719 100.472656 54.011719 100.121094 53.605469 100.015625 C 53.605469 100.015625 53.472656 99.988281 53.175781 99.960938 C 53.175781 99.960938 52.554688 99.90625 51.742188 99.90625 C 51.742188 99.90625 51.015625 99.90625 50.960938 99.746094 C 50.960938 99.746094 50.933594 99.71875 50.933594 99.609375 C 50.933594 99.609375 50.933594 99.070312 51.5 99.070312 L 55.253906 99.152344 L 55.28125 99.152344 L 58.089844 99.070312 L 58.117188 99.070312 C 58.117188 99.070312 58.46875 99.070312 58.46875 99.367188 C 58.46875 99.367188 58.46875 99.90625 58.035156 99.90625 C 58.035156 99.90625 56.792969 99.933594 56.550781 100.175781 C 56.550781 100.175781 56.386719 100.367188 56.171875 101.203125 C 56.171875 101.203125 56.171875 101.148438 55.902344 102.257812 C 55.902344 102.257812 55.847656 102.445312 55.820312 102.578125 L 55.308594 104.660156 C 55.308594 104.660156 54.929688 106.226562 54.847656 106.304688 C 54.847656 106.304688 54.847656 106.414062 54.660156 106.414062 C 54.660156 106.414062 54.363281 106.414062 53.742188 105.386719 C 53.742188 105.386719 53.554688 105.035156 53.445312 104.738281 C 53.445312 104.738281 52.527344 105.765625 51.367188 106.277344 L 51.097656 106.386719 C 51.097656 106.386719 49.53125 107.035156 47.722656 107.035156 C 47.722656 107.035156 44.074219 107.035156 41.996094 104.496094 C 41.996094 104.496094 40.351562 102.5 40.351562 99.636719 C 40.351562 99.636719 40.351562 95.613281 43.292969 92.105469 C 43.292969 92.105469 46.019531 88.835938 49.746094 87.785156 C 49.746094 87.785156 51.121094 87.40625 52.445312 87.40625 C 52.445312 87.40625 55.390625 87.40625 56.929688 89.808594 L 58.816406 87.730469 C 58.816406 87.730469 59.140625 87.40625 59.222656 87.40625 C 59.222656 87.40625 59.519531 87.40625 59.519531 87.675781 Z M 59.519531 87.675781 "
     id="path36" />
  <path
     fill-rule="nonzero"
     fill="rgb(0%, 0%, 0%)"
     fill-opacity="1"
     d="M 312.179688 202.910156 L 310.507812 209.660156 L 310.425781 210.117188 C 310.425781 210.117188 310.425781 210.578125 311.667969 210.605469 L 312.179688 210.605469 C 312.179688 210.605469 312.882812 210.605469 312.9375 210.902344 C 312.9375 210.902344 312.9375 211.441406 312.398438 211.441406 L 310.667969 211.386719 L 310.640625 211.386719 L 308.96875 211.359375 L 308.914062 211.359375 L 305.511719 211.441406 L 305.484375 211.441406 C 305.484375 211.441406 305.078125 211.441406 305.078125 211.117188 C 305.078125 211.117188 305.078125 210.65625 305.511719 210.605469 L 305.835938 210.605469 C 305.835938 210.605469 307.589844 210.605469 307.941406 210.226562 C 307.941406 210.226562 308.105469 210.035156 308.265625 209.46875 C 308.265625 209.46875 308.265625 209.441406 308.292969 209.335938 L 311.910156 194.835938 C 311.910156 194.835938 312.019531 194.402344 312.019531 194.324219 C 312.019531 194.324219 312.019531 194 311.585938 193.917969 L 311.558594 193.917969 C 311.558594 193.917969 311.507812 193.890625 311.425781 193.890625 C 311.425781 193.890625 310.777344 193.835938 310.265625 193.835938 C 310.265625 193.835938 309.5625 193.835938 309.507812 193.621094 C 309.507812 193.621094 309.480469 193.566406 309.480469 193.511719 C 309.480469 193.511719 309.480469 193.054688 309.941406 193 L 319.039062 193 C 319.039062 193 322.304688 193 323.710938 195 C 323.710938 195 324.359375 195.941406 324.359375 197.078125 C 324.359375 197.078125 324.359375 199.265625 322.117188 201.046875 C 322.117188 201.046875 319.742188 202.910156 316.769531 202.910156 L 312.179688 202.910156 M 314.125 194.863281 L 312.289062 202.207031 L 316.097656 202.207031 C 316.097656 202.207031 318.660156 202.207031 320.253906 200.777344 C 320.253906 200.777344 321.359375 199.75 321.765625 197.347656 L 321.765625 197.320312 C 321.765625 197.320312 321.847656 196.808594 321.847656 196.429688 C 321.847656 196.429688 321.847656 193.835938 318.175781 193.835938 L 315.582031 193.835938 C 315.582031 193.835938 314.609375 193.835938 314.394531 194.105469 L 314.394531 194.132812 L 314.367188 194.132812 L 314.367188 194.160156 C 314.367188 194.160156 314.261719 194.324219 314.125 194.863281 Z M 314.125 194.863281 "
     id="path37" />
  <path
     fill-rule="nonzero"
     fill="rgb(0%, 0%, 0%)"
     fill-opacity="1"
     d="M 316.824219 74.277344 C 316.824219 74.277344 317.097656 76.410156 317.824219 76.84375 C 317.824219 76.84375 318.175781 77.058594 318.742188 77.058594 C 318.742188 77.058594 320.066406 77.058594 321.09375 75.898438 C 321.09375 75.898438 321.632812 75.304688 321.902344 74.46875 C 321.902344 74.46875 322.011719 74.171875 322.226562 74.171875 C 322.226562 74.171875 322.523438 74.171875 322.523438 74.441406 C 322.523438 74.441406 322.523438 74.953125 321.875 76.386719 C 321.875 76.386719 320.363281 79.679688 318.015625 79.679688 C 318.015625 79.679688 315.773438 79.679688 315.773438 76.707031 C 315.773438 76.707031 315.773438 76.304688 315.882812 74.628906 C 315.882812 74.628906 314.449219 75.035156 313.234375 75.035156 C 313.234375 75.035156 309.859375 75.035156 307.917969 72.660156 C 307.917969 72.660156 306.324219 70.714844 306.324219 67.824219 C 306.324219 67.824219 306.324219 63.777344 309.210938 60.15625 C 309.210938 60.15625 311.886719 56.890625 315.476562 55.8125 C 315.476562 55.8125 316.800781 55.40625 318.09375 55.40625 C 318.09375 55.40625 321.523438 55.40625 323.46875 57.890625 C 323.46875 57.890625 324.980469 59.832031 324.980469 62.667969 C 324.980469 62.667969 324.980469 66.828125 322.011719 70.417969 C 322.011719 70.417969 319.742188 73.171875 316.824219 74.277344 M 311.722656 74.0625 L 311.5625 73.441406 L 311.5625 73.199219 C 311.5625 73.199219 311.5625 71.875 312.75 70.984375 C 312.75 70.984375 313.476562 70.445312 314.316406 70.445312 C 314.316406 70.445312 316.230469 70.445312 316.664062 73.117188 C 316.664062 73.117188 316.664062 73.199219 316.691406 73.359375 C 316.691406 73.359375 320.28125 71.363281 321.847656 66.207031 C 321.847656 66.207031 322.605469 63.804688 322.605469 61.804688 C 322.605469 61.804688 322.605469 58.292969 320.445312 56.835938 L 320.417969 56.808594 C 320.417969 56.808594 319.335938 56.082031 317.933594 56.082031 C 317.933594 56.082031 315.367188 56.082031 312.964844 58.347656 C 312.964844 58.347656 312.15625 59.105469 311.453125 60.078125 C 311.453125 60.078125 309.347656 63.101562 308.808594 67.257812 C 308.808594 67.257812 308.699219 68.070312 308.699219 68.691406 C 308.699219 68.691406 308.699219 72.28125 311.019531 73.710938 C 311.019531 73.710938 311.34375 73.902344 311.722656 74.0625 M 313.398438 74.359375 C 313.398438 74.359375 314.503906 74.359375 315.664062 73.875 C 315.664062 73.875 315.933594 73.523438 315.960938 73.332031 C 315.960938 73.332031 315.960938 71.28125 314.71875 71.066406 L 314.691406 71.066406 C 314.691406 71.066406 314.53125 71.039062 314.316406 71.039062 C 314.316406 71.039062 313.207031 71.039062 312.507812 72.066406 C 312.507812 72.066406 312.15625 72.632812 312.15625 73.199219 C 312.15625 73.199219 312.15625 74.359375 313.398438 74.359375 Z M 313.398438 74.359375 "
     id="path38" />
  <path
     fill-rule="nonzero"
     fill="rgb(0%, 0%, 0%)"
     fill-opacity="1"
     d="M 184.832031 205.550781 L 194.230469 189.785156 C 194.230469 189.785156 194.5 189.351562 194.929688 189.324219 C 194.929688 189.324219 195.335938 189.324219 195.390625 189.59375 C 195.390625 189.59375 195.417969 189.675781 195.445312 189.972656 L 197.089844 206.847656 C 197.089844 206.847656 197.171875 207.523438 197.414062 207.65625 L 197.441406 207.65625 L 197.441406 207.683594 C 197.441406 207.683594 197.765625 207.820312 198.847656 207.820312 C 198.847656 207.820312 199.441406 207.820312 199.46875 208.117188 C 199.46875 208.117188 199.46875 208.65625 198.980469 208.65625 L 195.957031 208.574219 L 195.929688 208.574219 L 192.582031 208.65625 L 192.554688 208.65625 C 192.554688 208.65625 192.175781 208.65625 192.175781 208.359375 C 192.175781 208.359375 192.394531 207.847656 192.824219 207.820312 C 192.824219 207.820312 194.769531 207.820312 194.769531 206.929688 C 194.769531 206.929688 194.769531 206.957031 194.335938 202.417969 L 187.558594 202.417969 L 185.507812 205.875 C 185.507812 205.875 185.128906 206.550781 185.128906 206.875 C 185.128906 206.875 185.128906 207.710938 186.398438 207.820312 C 186.398438 207.820312 186.832031 207.820312 186.832031 208.144531 C 186.832031 208.144531 186.832031 208.65625 186.316406 208.65625 L 183.726562 208.574219 L 183.617188 208.574219 L 181.351562 208.65625 L 181.296875 208.65625 C 181.296875 208.65625 180.945312 208.65625 180.945312 208.359375 C 180.945312 208.359375 180.945312 207.875 181.351562 207.847656 L 181.351562 207.820312 L 181.511719 207.820312 C 181.511719 207.820312 183.214844 207.710938 184.292969 206.363281 C 184.292969 206.363281 184.5625 206.011719 184.832031 205.550781 M 188.074219 201.582031 L 194.257812 201.582031 L 193.390625 192.671875 Z M 188.074219 201.582031 "
     id="path39" />
  <path
     fill-rule="nonzero"
     fill="rgb(0%, 0%, 0%)"
     fill-opacity="1"
     d="M 205.070312 188.457031 L 201.6875 196.394531 C 201.6875 196.394531 201.574219 196.65625 201.441406 196.65625 C 201.441406 196.65625 201.101562 196.65625 200.875 196.449219 C 200.875 196.449219 200.796875 196.394531 200.796875 196.316406 C 200.796875 196.316406 200.796875 196.28125 200.855469 196.054688 L 203.140625 187.8125 C 203.140625 187.8125 203.386719 187.039062 203.972656 186.960938 C 203.972656 186.960938 204.066406 186.945312 204.144531 186.945312 C 204.144531 186.945312 204.785156 186.945312 205.089844 187.492188 C 205.089844 187.492188 205.203125 187.699219 205.203125 187.925781 C 205.203125 187.925781 205.203125 188.171875 205.070312 188.457031 Z M 205.070312 188.457031 "
     id="path40" />
</svg>
