<?xml version="1.0" encoding="UTF-8" standalone="no"?>
<svg
   width="440pt"
   height="314pt"
   viewBox="0 0 440 314"
   version="1.1"
   id="svg29"
   xmlns="http://www.w3.org/2000/svg"
   xmlns:svg="http://www.w3.org/2000/svg">
  <defs
     id="defs29" />
  <rect
     x="-44"
     y="-31.4"
     width="528"
     height="376.8"
     fill="rgb(100%, 100%, 100%)"
     fill-opacity="1"
     id="rect1" />
  <path
     fill="none"
     stroke-width="1"
     stroke-linecap="round"
     stroke-linejoin="round"
     stroke="rgb(0%, 0%, 0%)"
     stroke-opacity="1"
     stroke-miterlimit="10"
     d="M 441.257812 403.835938 C 441.257812 528.085938 340.53125 628.816406 216.277344 628.816406 C 92.023438 628.816406 -8.703125 528.085938 -8.703125 403.835938 C -8.703125 279.582031 92.023438 178.855469 216.277344 178.855469 C 340.53125 178.855469 441.257812 279.582031 441.257812 403.835938 Z M 441.257812 403.835938 "
     id="path1" />
  <path
     fill="none"
     stroke-width="1"
     stroke-linecap="round"
     stroke-linejoin="round"
     stroke="rgb(0%, 0%, 0%)"
     stroke-opacity="1"
     stroke-miterlimit="10"
     d="M 182.90625 107.667969 C 186.859375 111.207031 192.050781 113.03125 197.347656 112.742188 C 202.644531 112.453125 207.609375 110.070312 211.148438 106.121094 L 196.253906 92.773438 Z M 182.90625 107.667969 "
     id="path2" />
  <path
     fill-rule="nonzero"
     fill="rgb(0%, 0%, 0%)"
     fill-opacity="1"
     d="M 198.898438 104.519531 C 198.898438 105.625 198.003906 106.519531 196.898438 106.519531 C 195.792969 106.519531 194.898438 105.625 194.898438 104.519531 C 194.898438 103.414062 195.792969 102.519531 196.898438 102.519531 C 198.003906 102.519531 198.898438 103.414062 198.898438 104.519531 Z M 198.898438 104.519531 "
     id="path3" />
  <path
     fill="none"
     stroke-width="1"
     stroke-linecap="round"
     stroke-linejoin="round"
     stroke="rgb(0%, 0%, 0%)"
     stroke-opacity="1"
     stroke-miterlimit="10"
     d="M 147.269531 279.304688 C 147.234375 274 145.09375 268.925781 141.320312 265.199219 C 137.542969 261.472656 132.441406 259.402344 127.140625 259.433594 L 127.269531 279.433594 Z M 147.269531 279.304688 "
     id="path4" />
  <path
     fill-rule="nonzero"
     fill="rgb(0%, 0%, 0%)"
     fill-opacity="1"
     d="M 137.535156 271.0625 C 137.535156 272.167969 136.636719 273.0625 135.535156 273.0625 C 134.429688 273.0625 133.535156 272.167969 133.535156 271.0625 C 133.535156 269.957031 134.429688 269.0625 135.535156 269.0625 C 136.636719 269.0625 137.535156 269.957031 137.535156 271.0625 Z M 137.535156 271.0625 "
     id="path5" />
  <path
     fill="none"
     stroke-width="1"
     stroke-linecap="round"
     stroke-linejoin="round"
     stroke="rgb(0%, 0%, 0%)"
     stroke-opacity="1"
     stroke-miterlimit="10"
     d="M 59.40625 245.472656 C 63.355469 249.015625 68.550781 250.839844 73.847656 250.550781 C 79.144531 250.261719 84.109375 247.878906 87.648438 243.925781 L 72.753906 230.578125 Z M 59.40625 245.472656 "
     id="path6" />
  <path
     fill-rule="nonzero"
     fill="rgb(0%, 0%, 0%)"
     fill-opacity="1"
     d="M 75.398438 242.328125 C 75.398438 243.429688 74.503906 244.328125 73.398438 244.328125 C 72.292969 244.328125 71.398438 243.429688 71.398438 242.328125 C 71.398438 241.222656 72.292969 240.328125 73.398438 240.328125 C 74.503906 240.328125 75.398438 241.222656 75.398438 242.328125 Z M 75.398438 242.328125 "
     id="path7" />
  <path
     fill="none"
     stroke-width="1"
     stroke-linecap="round"
     stroke-linejoin="round"
     stroke="rgb(0%, 0%, 0%)"
     stroke-opacity="1"
     stroke-miterlimit="10"
     d="M 58.390625 279.886719 C 58.335938 271.429688 54.710938 263.386719 48.414062 257.742188 L 28.390625 280.082031 Z M 58.390625 279.886719 "
     id="path8" />
  <path
     fill="none"
     stroke-width="1"
     stroke-linecap="round"
     stroke-linejoin="round"
     stroke="rgb(0%, 0%, 0%)"
     stroke-opacity="1"
     stroke-miterlimit="10"
     d="M 53.390625 279.917969 C 53.34375 272.871094 50.324219 266.167969 45.074219 261.464844 "
     id="path9" />
  <path
     fill="none"
     stroke-width="1"
     stroke-linecap="round"
     stroke-linejoin="round"
     stroke="rgb(0%, 0%, 0%)"
     stroke-opacity="1"
     stroke-miterlimit="10"
     d="M 125.828125 59.480469 C 134.285156 59.425781 142.328125 55.800781 147.972656 49.5 L 125.632812 29.480469 Z M 125.828125 59.480469 "
     id="path10" />
  <path
     fill="none"
     stroke-width="1"
     stroke-linecap="round"
     stroke-linejoin="round"
     stroke="rgb(0%, 0%, 0%)"
     stroke-opacity="1"
     stroke-miterlimit="10"
     d="M 125.796875 54.480469 C 132.84375 54.433594 139.542969 51.414062 144.25 46.164062 "
     id="path11" />
  <path
     fill="none"
     stroke-width="1"
     stroke-linecap="round"
     stroke-linejoin="round"
     stroke="rgb(0%, 0%, 0%)"
     stroke-opacity="1"
     stroke-miterlimit="10"
     d="M 299.054688 184.898438 C 293.410156 191.199219 290.683594 199.585938 291.554688 208 L 321.394531 204.921875 Z M 299.054688 184.898438 "
     id="path12" />
  <path
     fill="none"
     stroke-width="1"
     stroke-linecap="round"
     stroke-linejoin="round"
     stroke="rgb(0%, 0%, 0%)"
     stroke-opacity="1"
     stroke-miterlimit="10"
     d="M 302.777344 188.234375 C 298.074219 193.484375 295.804688 200.476562 296.527344 207.488281 "
     id="path13" />
  <path
     fill="none"
     stroke-width="3"
     stroke-linecap="round"
     stroke-linejoin="round"
     stroke="rgb(100%, 0%, 100%)"
     stroke-opacity="1"
     stroke-miterlimit="10"
     d="M 321.394531 204.921875 L 72.753906 230.578125 "
     id="path14" />
  <path
     fill="none"
     stroke-width="3"
     stroke-linecap="round"
     stroke-linejoin="round"
     stroke="rgb(100%, 0%, 100%)"
     stroke-opacity="1"
     stroke-miterlimit="10"
     d="M 125.632812 29.480469 L 127.269531 279.433594 "
     id="path15" />
  <path
     fill="none"
     stroke-width="3"
     stroke-linecap="round"
     stroke-linejoin="round"
     stroke="rgb(0%, 0%, 0%)"
     stroke-opacity="1"
     stroke-miterlimit="10"
     d="M 125.632812 29.480469 L 28.390625 280.082031 "
     id="path16" />
  <path
     fill="none"
     stroke-width="3"
     stroke-linecap="round"
     stroke-linejoin="round"
     stroke="rgb(0%, 0%, 0%)"
     stroke-opacity="1"
     stroke-miterlimit="10"
     d="M 28.390625 280.082031 L 402.527344 277.628906 "
     id="path17" />
  <path
     fill="none"
     stroke-width="3"
     stroke-linecap="round"
     stroke-linejoin="round"
     stroke="rgb(0%, 0%, 0%)"
     stroke-opacity="1"
     stroke-miterlimit="10"
     d="M 402.527344 277.628906 L 125.632812 29.480469 "
     id="path18" />
  <path
     fill="none"
     stroke-width="1"
     stroke-linecap="round"
     stroke-linejoin="round"
     stroke="rgb(0%, 0%, 0%)"
     stroke-opacity="1"
     stroke-miterlimit="10"
     d="M 28.390625 280.082031 L 196.253906 92.773438 "
     id="path19" />
  <path
     fill="none"
     stroke-width="1"
     stroke-linecap="round"
     stroke-linejoin="round"
     stroke="rgb(0%, 0%, 0%)"
     stroke-opacity="1"
     stroke-miterlimit="10"
     d="M 127.269531 279.433594 L 72.753906 230.578125 "
     id="path20" />
  <path
     fill-rule="nonzero"
     fill="rgb(0%, 0%, 0%)"
     fill-opacity="1"
     d="M 120.832031 20.335938 L 130.230469 4.566406 C 130.230469 4.566406 130.5 4.136719 130.929688 4.109375 C 130.929688 4.109375 131.335938 4.109375 131.390625 4.378906 C 131.390625 4.378906 131.417969 4.460938 131.445312 4.757812 L 133.089844 21.632812 C 133.089844 21.632812 133.171875 22.308594 133.414062 22.441406 L 133.441406 22.441406 L 133.441406 22.46875 C 133.441406 22.46875 133.765625 22.605469 134.847656 22.605469 C 134.847656 22.605469 135.441406 22.605469 135.46875 22.902344 C 135.46875 22.902344 135.46875 23.441406 134.980469 23.441406 L 131.957031 23.359375 L 131.929688 23.359375 L 128.582031 23.441406 L 128.554688 23.441406 C 128.554688 23.441406 128.175781 23.441406 128.175781 23.144531 C 128.175781 23.144531 128.394531 22.632812 128.824219 22.605469 C 128.824219 22.605469 130.769531 22.605469 130.769531 21.714844 C 130.769531 21.714844 130.769531 21.738281 130.335938 17.203125 L 123.558594 17.203125 L 121.507812 20.660156 C 121.507812 20.660156 121.128906 21.335938 121.128906 21.660156 C 121.128906 21.660156 121.128906 22.496094 122.398438 22.605469 C 122.398438 22.605469 122.832031 22.605469 122.832031 22.929688 C 122.832031 22.929688 122.832031 23.441406 122.316406 23.441406 L 119.726562 23.359375 L 119.617188 23.359375 L 117.351562 23.441406 L 117.296875 23.441406 C 117.296875 23.441406 116.945312 23.441406 116.945312 23.144531 C 116.945312 23.144531 116.945312 22.65625 117.351562 22.632812 L 117.351562 22.605469 L 117.511719 22.605469 C 117.511719 22.605469 119.214844 22.496094 120.292969 21.144531 C 120.292969 21.144531 120.5625 20.796875 120.832031 20.335938 M 124.074219 16.367188 L 130.257812 16.367188 L 129.390625 7.457031 Z M 124.074219 16.367188 "
     id="path21" />
  <path
     fill-rule="nonzero"
     fill="rgb(0%, 0%, 0%)"
     fill-opacity="1"
     d="M 3.320312 284.335938 L 6.9375 269.835938 C 6.9375 269.835938 7.046875 269.402344 7.046875 269.324219 C 7.046875 269.324219 7.046875 269 6.613281 268.917969 L 6.558594 268.917969 C 6.558594 268.917969 6.480469 268.917969 6.316406 268.890625 C 6.316406 268.890625 5.859375 268.835938 5.289062 268.835938 C 5.289062 268.835938 4.589844 268.835938 4.535156 268.539062 C 4.535156 268.539062 4.535156 268.054688 4.941406 268 L 14.390625 268 C 14.390625 268 17.496094 268 18.816406 269.835938 C 18.816406 269.835938 19.410156 270.699219 19.410156 271.726562 C 19.410156 271.726562 19.410156 273.914062 16.980469 275.53125 C 16.980469 275.53125 16.953125 275.53125 16.929688 275.558594 C 16.929688 275.558594 15.496094 276.476562 13.769531 276.800781 C 13.769531 276.800781 16.523438 277.125 17.550781 278.960938 C 17.550781 278.960938 17.953125 279.71875 17.953125 280.609375 C 17.953125 280.609375 17.953125 282.582031 16.0625 284.308594 L 16.035156 284.335938 C 16.035156 284.335938 13.714844 286.441406 10.5 286.441406 L 0.863281 286.441406 C 0.863281 286.441406 0.1875 286.441406 0.132812 286.144531 C 0.132812 286.144531 0.132812 285.65625 0.539062 285.605469 L 0.863281 285.605469 C 0.863281 285.605469 2.617188 285.605469 2.96875 285.226562 C 2.96875 285.226562 3.132812 285.039062 3.292969 284.46875 C 3.292969 284.46875 3.292969 284.441406 3.320312 284.335938 M 7.398438 276.558594 L 11.339844 276.558594 C 11.339844 276.558594 14.011719 276.558594 15.738281 274.613281 C 15.738281 274.613281 16.953125 273.238281 16.953125 271.617188 C 16.953125 271.617188 16.953125 269.648438 15.335938 269.054688 C 15.335938 269.054688 14.769531 268.835938 14.011719 268.835938 L 10.527344 268.835938 C 10.527344 268.835938 9.558594 268.835938 9.339844 269.105469 L 9.339844 269.132812 L 9.3125 269.132812 L 9.3125 269.160156 C 9.3125 269.160156 9.207031 269.324219 9.070312 269.863281 L 7.398438 276.558594 M 6.183594 285.605469 L 9.855469 285.605469 C 9.855469 285.605469 12.445312 285.605469 14.148438 283.660156 C 14.148438 283.660156 15.441406 282.148438 15.441406 280.3125 C 15.441406 280.3125 15.441406 278.339844 14.039062 277.53125 C 14.039062 277.53125 13.335938 277.152344 12.339844 277.152344 L 7.234375 277.152344 L 5.371094 284.6875 C 5.371094 284.6875 5.238281 285.171875 5.238281 285.308594 C 5.238281 285.308594 5.238281 285.523438 5.480469 285.578125 L 5.589844 285.578125 C 5.589844 285.578125 5.75 285.605469 6.183594 285.605469 Z M 6.183594 285.605469 "
     id="path22" />
  <path
     fill-rule="nonzero"
     fill="rgb(0%, 0%, 0%)"
     fill-opacity="1"
     d="M 434.519531 267.675781 L 432.820312 274.5625 C 432.820312 274.5625 432.683594 275.046875 432.550781 275.074219 L 432.523438 275.101562 L 432.332031 275.101562 C 432.332031 275.101562 431.929688 275.101562 431.929688 274.832031 L 432.007812 273.507812 L 432.007812 273.453125 C 432.007812 273.453125 432.007812 270.105469 429.902344 268.835938 L 429.875 268.808594 C 429.875 268.808594 428.929688 268.242188 427.660156 268.242188 C 427.660156 268.242188 424.800781 268.242188 422.234375 270.375 C 422.234375 270.375 421.585938 270.890625 421.074219 271.511719 C 421.074219 271.511719 418.507812 274.507812 417.914062 279.125 C 417.914062 279.125 417.808594 279.960938 417.808594 280.582031 C 417.808594 280.582031 417.808594 284.363281 420.667969 285.683594 C 420.667969 285.683594 421.777344 286.199219 423.097656 286.199219 C 423.097656 286.199219 425.636719 286.199219 428.066406 284.226562 C 428.066406 284.226562 429.957031 282.632812 430.792969 279.960938 C 430.792969 279.960938 430.847656 279.691406 431.144531 279.691406 C 431.144531 279.691406 431.46875 279.691406 431.46875 279.960938 C 431.46875 279.960938 431.46875 280.445312 430.847656 281.6875 C 430.847656 281.6875 430.011719 283.390625 428.5 284.714844 C 428.5 284.714844 425.824219 287.035156 422.667969 287.035156 C 422.667969 287.035156 419.210938 287.035156 417.132812 284.660156 C 417.132812 284.660156 415.351562 282.632812 415.351562 279.636719 C 415.351562 279.636719 415.351562 275.613281 418.292969 272.105469 C 418.292969 272.105469 421.019531 268.835938 424.746094 267.785156 C 424.746094 267.785156 426.121094 267.40625 427.445312 267.40625 C 427.445312 267.40625 430.390625 267.40625 431.929688 269.808594 L 433.816406 267.730469 C 433.816406 267.730469 434.140625 267.40625 434.222656 267.40625 C 434.222656 267.40625 434.519531 267.40625 434.519531 267.675781 Z M 434.519531 267.675781 "
     id="path23" />
  <path
     fill-rule="nonzero"
     fill="rgb(0%, 0%, 0%)"
     fill-opacity="1"
     d="M 127.832031 308.550781 L 137.230469 292.785156 C 137.230469 292.785156 137.5 292.351562 137.929688 292.324219 C 137.929688 292.324219 138.335938 292.324219 138.390625 292.59375 C 138.390625 292.59375 138.417969 292.675781 138.445312 292.972656 L 140.089844 309.847656 C 140.089844 309.847656 140.171875 310.523438 140.414062 310.65625 L 140.441406 310.65625 L 140.441406 310.683594 C 140.441406 310.683594 140.765625 310.820312 141.847656 310.820312 C 141.847656 310.820312 142.441406 310.820312 142.46875 311.117188 C 142.46875 311.117188 142.46875 311.65625 141.980469 311.65625 L 138.957031 311.574219 L 138.929688 311.574219 L 135.582031 311.65625 L 135.554688 311.65625 C 135.554688 311.65625 135.175781 311.65625 135.175781 311.359375 C 135.175781 311.359375 135.394531 310.847656 135.824219 310.820312 C 135.824219 310.820312 137.769531 310.820312 137.769531 309.929688 C 137.769531 309.929688 137.769531 309.957031 137.335938 305.417969 L 130.558594 305.417969 L 128.507812 308.875 C 128.507812 308.875 128.128906 309.550781 128.128906 309.875 C 128.128906 309.875 128.128906 310.710938 129.398438 310.820312 C 129.398438 310.820312 129.832031 310.820312 129.832031 311.144531 C 129.832031 311.144531 129.832031 311.65625 129.316406 311.65625 L 126.726562 311.574219 L 126.617188 311.574219 L 124.351562 311.65625 L 124.296875 311.65625 C 124.296875 311.65625 123.945312 311.65625 123.945312 311.359375 C 123.945312 311.359375 123.945312 310.875 124.351562 310.847656 L 124.351562 310.820312 L 124.511719 310.820312 C 124.511719 310.820312 126.214844 310.710938 127.292969 309.363281 C 127.292969 309.363281 127.5625 309.011719 127.832031 308.550781 M 131.074219 304.582031 L 137.257812 304.582031 L 136.390625 295.671875 Z M 131.074219 304.582031 "
     id="path24" />
  <path
     fill-rule="nonzero"
     fill="rgb(0%, 0%, 0%)"
     fill-opacity="1"
     d="M 148.070312 291.457031 L 144.6875 299.394531 C 144.6875 299.394531 144.574219 299.65625 144.441406 299.65625 C 144.441406 299.65625 144.101562 299.65625 143.875 299.449219 C 143.875 299.449219 143.796875 299.394531 143.796875 299.316406 C 143.796875 299.316406 143.796875 299.28125 143.855469 299.054688 L 146.140625 290.8125 C 146.140625 290.8125 146.386719 290.039062 146.972656 289.960938 C 146.972656 289.960938 147.066406 289.941406 147.144531 289.941406 C 147.144531 289.941406 147.785156 289.941406 148.089844 290.492188 C 148.089844 290.492188 148.203125 290.699219 148.203125 290.925781 C 148.203125 290.925781 148.203125 291.171875 148.070312 291.457031 Z M 148.070312 291.457031 "
     id="path25" />
  <path
     fill-rule="nonzero"
     fill="rgb(0%, 0%, 0%)"
     fill-opacity="1"
     d="M 206.320312 90.550781 L 209.9375 76.050781 C 209.9375 76.050781 210.046875 75.621094 210.046875 75.539062 C 210.046875 75.539062 210.046875 75.214844 209.613281 75.132812 L 209.558594 75.132812 C 209.558594 75.132812 209.480469 75.132812 209.316406 75.105469 C 209.316406 75.105469 208.859375 75.050781 208.289062 75.050781 C 208.289062 75.050781 207.589844 75.050781 207.535156 74.753906 C 207.535156 74.753906 207.535156 74.269531 207.941406 74.214844 L 217.390625 74.214844 C 217.390625 74.214844 220.496094 74.214844 221.816406 76.050781 C 221.816406 76.050781 222.410156 76.914062 222.410156 77.941406 C 222.410156 77.941406 222.410156 80.128906 219.980469 81.75 C 219.980469 81.75 219.953125 81.75 219.929688 81.777344 C 219.929688 81.777344 218.496094 82.695312 216.769531 83.015625 C 216.769531 83.015625 219.523438 83.339844 220.550781 85.175781 C 220.550781 85.175781 220.953125 85.933594 220.953125 86.824219 C 220.953125 86.824219 220.953125 88.796875 219.0625 90.523438 L 219.035156 90.550781 C 219.035156 90.550781 216.714844 92.65625 213.503906 92.65625 L 203.863281 92.65625 C 203.863281 92.65625 203.1875 92.65625 203.132812 92.359375 C 203.132812 92.359375 203.132812 91.875 203.539062 91.820312 L 203.863281 91.820312 C 203.863281 91.820312 205.617188 91.820312 205.96875 91.441406 C 205.96875 91.441406 206.132812 91.253906 206.292969 90.683594 C 206.292969 90.683594 206.292969 90.660156 206.320312 90.550781 M 210.398438 82.773438 L 214.339844 82.773438 C 214.339844 82.773438 217.011719 82.773438 218.738281 80.832031 C 218.738281 80.832031 219.953125 79.453125 219.953125 77.832031 C 219.953125 77.832031 219.953125 75.863281 218.335938 75.269531 C 218.335938 75.269531 217.769531 75.050781 217.011719 75.050781 L 213.527344 75.050781 C 213.527344 75.050781 212.558594 75.050781 212.339844 75.324219 L 212.339844 75.347656 L 212.3125 75.347656 L 212.3125 75.375 C 212.3125 75.375 212.207031 75.539062 212.070312 76.078125 L 210.398438 82.773438 M 209.183594 91.820312 L 212.855469 91.820312 C 212.855469 91.820312 215.445312 91.820312 217.148438 89.875 C 217.148438 89.875 218.441406 88.363281 218.441406 86.527344 C 218.441406 86.527344 218.441406 84.554688 217.039062 83.746094 C 217.039062 83.746094 216.335938 83.367188 215.339844 83.367188 L 210.234375 83.367188 L 208.371094 90.902344 C 208.371094 90.902344 208.238281 91.386719 208.238281 91.523438 C 208.238281 91.523438 208.238281 91.738281 208.480469 91.792969 L 208.589844 91.792969 C 208.589844 91.792969 208.75 91.820312 209.183594 91.820312 Z M 209.183594 91.820312 "
     id="path26" />
  <path
     fill-rule="nonzero"
     fill="rgb(0%, 0%, 0%)"
     fill-opacity="1"
     d="M 228.664062 72.457031 L 225.28125 80.394531 C 225.28125 80.394531 225.164062 80.65625 225.035156 80.65625 C 225.035156 80.65625 224.695312 80.65625 224.464844 80.449219 C 224.464844 80.449219 224.390625 80.394531 224.390625 80.316406 C 224.390625 80.316406 224.390625 80.28125 224.449219 80.054688 L 226.734375 71.8125 C 226.734375 71.8125 226.980469 71.039062 227.566406 70.960938 C 227.566406 70.960938 227.660156 70.941406 227.738281 70.941406 C 227.738281 70.941406 228.378906 70.941406 228.679688 71.492188 C 228.679688 71.492188 228.792969 71.699219 228.792969 71.925781 C 228.792969 71.925781 228.792969 72.171875 228.664062 72.457031 Z M 228.664062 72.457031 "
     id="path27" />
  <path
     fill-rule="nonzero"
     fill="rgb(0%, 0%, 0%)"
     fill-opacity="1"
     d="M 60.292969 223.335938 L 63.910156 208.835938 C 63.910156 208.835938 64.019531 208.402344 64.019531 208.324219 C 64.019531 208.324219 64.019531 208 63.585938 207.917969 L 63.558594 207.917969 C 63.558594 207.917969 63.507812 207.890625 63.425781 207.890625 C 63.425781 207.890625 62.777344 207.835938 62.265625 207.835938 C 62.265625 207.835938 61.5625 207.835938 61.507812 207.621094 C 61.507812 207.621094 61.480469 207.566406 61.480469 207.511719 C 61.480469 207.511719 61.480469 207.054688 61.941406 207 L 71.363281 207 C 71.363281 207 74.871094 207 76.601562 209.726562 C 76.601562 209.726562 77.707031 211.457031 77.707031 213.832031 C 77.707031 213.832031 77.707031 217.746094 74.980469 221.148438 C 74.980469 221.148438 72.390625 224.308594 68.878906 225.171875 C 68.878906 225.171875 67.824219 225.441406 66.773438 225.441406 L 57.835938 225.441406 C 57.835938 225.441406 57.160156 225.441406 57.105469 225.226562 C 57.105469 225.226562 57.078125 225.199219 57.078125 225.117188 C 57.078125 225.117188 57.078125 224.65625 57.511719 224.605469 L 57.835938 224.605469 C 57.835938 224.605469 59.589844 224.605469 59.941406 224.226562 C 59.941406 224.226562 60.105469 224.035156 60.265625 223.46875 C 60.265625 223.46875 60.265625 223.441406 60.292969 223.335938 M 66.125 208.863281 L 62.425781 223.6875 C 62.425781 223.6875 62.289062 224.171875 62.289062 224.308594 C 62.289062 224.308594 62.289062 224.523438 62.535156 224.578125 L 62.640625 224.578125 C 62.640625 224.578125 62.804688 224.605469 63.234375 224.605469 L 66.285156 224.605469 C 66.285156 224.605469 69.636719 224.605469 72.066406 222.09375 C 72.066406 222.09375 72.308594 221.824219 72.523438 221.554688 C 72.523438 221.554688 74.683594 218.746094 75.25 214.210938 C 75.25 214.210938 75.359375 213.371094 75.359375 212.832031 C 75.359375 212.832031 75.359375 209.214844 72.523438 208.1875 C 72.523438 208.1875 71.605469 207.835938 70.472656 207.835938 L 67.582031 207.835938 C 67.582031 207.835938 66.609375 207.835938 66.394531 208.105469 L 66.394531 208.132812 L 66.367188 208.132812 L 66.367188 208.160156 C 66.367188 208.160156 66.261719 208.324219 66.125 208.863281 Z M 66.125 208.863281 "
     id="path28" />
  <path
     fill-rule="nonzero"
     fill="rgb(0%, 0%, 0%)"
     fill-opacity="1"
     d="M 342.117188 195.148438 L 339.632812 200.980469 C 339.632812 200.980469 339.46875 201.359375 339.253906 201.414062 L 339.226562 201.414062 C 339.226562 201.414062 339.117188 201.441406 338.792969 201.441406 L 324.78125 201.441406 C 324.78125 201.441406 324.105469 201.441406 324.054688 201.226562 C 324.054688 201.226562 324.027344 201.199219 324.027344 201.117188 C 324.027344 201.117188 324.027344 200.65625 324.457031 200.605469 L 324.78125 200.605469 C 324.78125 200.605469 326.535156 200.605469 326.886719 200.226562 C 326.886719 200.226562 327.050781 200.035156 327.210938 199.46875 C 327.210938 199.46875 327.210938 199.441406 327.238281 199.335938 L 330.804688 185.050781 C 330.804688 185.050781 330.9375 184.566406 330.9375 184.402344 C 330.9375 184.402344 330.9375 183.945312 329.695312 183.917969 L 329.183594 183.917969 C 329.183594 183.917969 328.480469 183.917969 328.425781 183.621094 C 328.425781 183.621094 328.425781 183.136719 328.859375 183.082031 L 342.871094 183.082031 C 342.871094 183.082031 343.519531 183.082031 343.574219 183.269531 L 343.601562 183.269531 C 343.601562 183.269531 343.65625 183.433594 343.601562 183.808594 L 343.0625 188.480469 C 343.0625 188.480469 342.871094 189.101562 342.683594 189.15625 C 342.683594 189.15625 342.359375 189.15625 342.359375 188.832031 L 342.386719 188.375 L 342.386719 188.347656 C 342.386719 188.347656 342.492188 187.617188 342.492188 186.914062 C 342.492188 186.914062 342.492188 185.023438 341.441406 184.429688 C 341.441406 184.429688 340.550781 183.917969 338.390625 183.917969 L 334.582031 183.917969 C 334.582031 183.917969 333.582031 183.917969 333.394531 184.214844 L 333.367188 184.214844 L 333.367188 184.242188 C 333.367188 184.242188 333.285156 184.351562 333.234375 184.566406 L 333.234375 184.59375 L 333.207031 184.621094 C 333.207031 184.621094 333.179688 184.726562 333.125 184.972656 L 331.503906 191.476562 L 334.042969 191.476562 C 334.042969 191.476562 336.09375 191.476562 336.769531 190.667969 C 336.769531 190.667969 337.203125 190.15625 337.578125 188.804688 C 337.578125 188.804688 337.6875 188.347656 337.957031 188.320312 C 337.957031 188.320312 338.28125 188.320312 338.28125 188.617188 L 336.742188 194.933594 C 336.742188 194.933594 336.609375 195.445312 336.339844 195.472656 C 336.339844 195.472656 335.988281 195.472656 335.988281 195.175781 C 335.988281 195.175781 335.988281 195.070312 336.066406 194.878906 C 336.066406 194.878906 336.257812 194.070312 336.257812 193.558594 C 336.257812 193.558594 336.257812 192.828125 335.851562 192.613281 C 335.851562 192.613281 335.339844 192.316406 333.960938 192.316406 L 331.289062 192.316406 L 329.453125 199.6875 C 329.453125 199.6875 329.316406 200.171875 329.316406 200.308594 C 329.316406 200.308594 329.316406 200.523438 329.5625 200.578125 L 329.667969 200.578125 C 329.667969 200.578125 329.832031 200.605469 330.261719 200.605469 L 334.203125 200.605469 C 334.203125 200.605469 337.5 200.605469 339.066406 199.09375 C 339.066406 199.09375 340.089844 198.121094 341.304688 195.445312 C 341.304688 195.445312 341.414062 195.148438 341.574219 194.800781 C 341.574219 194.800781 341.683594 194.476562 341.925781 194.476562 C 341.925781 194.476562 342.25 194.476562 342.25 194.773438 C 342.25 194.773438 342.25 194.800781 342.117188 195.148438 Z M 342.117188 195.148438 "
     id="path29" />
</svg>
