<?xml version="1.0" encoding="UTF-8" standalone="no"?>
<svg
   width="544pt"
   height="342pt"
   viewBox="0 0 544 342"
   version="1.1"
   id="svg29"
   xmlns="http://www.w3.org/2000/svg"
   xmlns:svg="http://www.w3.org/2000/svg">
  <defs
     id="defs29" />
  <rect
     x="-54.4"
     y="-34.2"
     width="652.8"
     height="410.4"
     fill="rgb(100%, 100%, 100%)"
     fill-opacity="1"
     id="rect1" />
  <path
     fill="none"
     stroke-width="1"
     stroke-linecap="round"
     stroke-linejoin="round"
     stroke="rgb(0%, 0%, 0%)"
     stroke-opacity="1"
     stroke-miterlimit="10"
     d="M 546.945312 450.183594 C 546.945312 602.148438 423.75 725.34375 271.78125 725.34375 C 119.816406 725.34375 -3.378906 602.148438 -3.378906 450.183594 C -3.378906 298.214844 119.816406 175.019531 271.78125 175.019531 C 423.75 175.019531 546.945312 298.214844 546.945312 450.183594 Z M 546.945312 450.183594 "
     id="path1" />
  <path
     fill="none"
     stroke-width="1"
     stroke-linecap="round"
     stroke-linejoin="round"
     stroke="rgb(0%, 0%, 0%)"
     stroke-opacity="1"
     stroke-miterlimit="10"
     d="M 226.441406 90.644531 C 234.773438 97.890625 247.40625 97.011719 254.65625 88.679688 L 239.566406 75.554688 Z M 226.441406 90.644531 "
     id="path2" />
  <path
     fill-rule="nonzero"
     fill="rgb(0%, 0%, 0%)"
     fill-opacity="1"
     d="M 242.382812 87.289062 C 242.382812 88.394531 241.488281 89.289062 240.382812 89.289062 C 239.277344 89.289062 238.382812 88.394531 238.382812 87.289062 C 238.382812 86.183594 239.277344 85.289062 240.382812 85.289062 C 241.488281 85.289062 242.382812 86.183594 242.382812 87.289062 Z M 242.382812 87.289062 "
     id="path3" />
  <path
     fill="none"
     stroke-width="1"
     stroke-linecap="round"
     stroke-linejoin="round"
     stroke="rgb(0%, 0%, 0%)"
     stroke-opacity="1"
     stroke-miterlimit="10"
     d="M 211.328125 311.003906 C 211.292969 305.699219 209.15625 300.628906 205.378906 296.902344 C 201.605469 293.175781 196.503906 291.101562 191.199219 291.136719 L 191.332031 311.136719 Z M 211.328125 311.003906 "
     id="path4" />
  <path
     fill-rule="nonzero"
     fill="rgb(0%, 0%, 0%)"
     fill-opacity="1"
     d="M 201.59375 302.761719 C 201.59375 303.867188 200.699219 304.761719 199.59375 304.761719 C 198.488281 304.761719 197.59375 303.867188 197.59375 302.761719 C 197.59375 301.660156 198.488281 300.761719 199.59375 300.761719 C 200.699219 300.761719 201.59375 301.660156 201.59375 302.761719 Z M 201.59375 302.761719 "
     id="path5" />
  <path
     fill="none"
     stroke-width="1"
     stroke-linecap="round"
     stroke-linejoin="round"
     stroke="rgb(0%, 0%, 0%)"
     stroke-opacity="1"
     stroke-miterlimit="10"
     d="M 89.003906 248.632812 C 93.007812 252.113281 98.230469 253.863281 103.519531 253.496094 C 108.8125 253.128906 113.742188 250.671875 117.222656 246.671875 L 102.132812 233.542969 Z M 89.003906 248.632812 "
     id="path6" />
  <path
     fill-rule="nonzero"
     fill="rgb(0%, 0%, 0%)"
     fill-opacity="1"
     d="M 104.949219 245.28125 C 104.949219 246.382812 104.054688 247.28125 102.949219 247.28125 C 101.84375 247.28125 100.949219 246.382812 100.949219 245.28125 C 100.949219 244.175781 101.84375 243.28125 102.949219 243.28125 C 104.054688 243.28125 104.949219 244.175781 104.949219 245.28125 Z M 104.949219 245.28125 "
     id="path7" />
  <path
     fill="none"
     stroke-width="1"
     stroke-linecap="round"
     stroke-linejoin="round"
     stroke="rgb(0%, 0%, 0%)"
     stroke-opacity="1"
     stroke-miterlimit="10"
     d="M 63.734375 311.972656 C 63.679688 303.359375 59.925781 295.1875 53.425781 289.535156 L 33.734375 312.167969 Z M 63.734375 311.972656 "
     id="path8" />
  <path
     fill="none"
     stroke-width="1"
     stroke-linecap="round"
     stroke-linejoin="round"
     stroke="rgb(0%, 0%, 0%)"
     stroke-opacity="1"
     stroke-miterlimit="10"
     d="M 58.734375 312.003906 C 58.6875 304.828125 55.558594 298.019531 50.144531 293.308594 "
     id="path9" />
  <path
     fill="none"
     stroke-width="1"
     stroke-linecap="round"
     stroke-linejoin="round"
     stroke="rgb(0%, 0%, 0%)"
     stroke-opacity="1"
     stroke-miterlimit="10"
     d="M 189.695312 62 C 198.308594 61.941406 206.480469 58.1875 212.132812 51.691406 L 189.5 32 Z M 189.695312 62 "
     id="path10" />
  <path
     fill="none"
     stroke-width="1"
     stroke-linecap="round"
     stroke-linejoin="round"
     stroke="rgb(0%, 0%, 0%)"
     stroke-opacity="1"
     stroke-miterlimit="10"
     d="M 189.664062 57 C 196.839844 56.953125 203.652344 53.824219 208.363281 48.40625 "
     id="path11" />
  <path
     fill="none"
     stroke-width="1"
     stroke-linecap="round"
     stroke-linejoin="round"
     stroke="rgb(0%, 0%, 0%)"
     stroke-opacity="1"
     stroke-miterlimit="10"
     d="M 356.199219 177.007812 C 350.542969 183.507812 347.957031 192.121094 349.09375 200.660156 L 378.832031 196.699219 Z M 356.199219 177.007812 "
     id="path12" />
  <path
     fill="none"
     stroke-width="1"
     stroke-linecap="round"
     stroke-linejoin="round"
     stroke="rgb(0%, 0%, 0%)"
     stroke-opacity="1"
     stroke-miterlimit="10"
     d="M 359.96875 180.289062 C 355.257812 185.707031 353.101562 192.882812 354.050781 200 "
     id="path13" />
  <path
     fill="none"
     stroke-width="3"
     stroke-linecap="round"
     stroke-linejoin="round"
     stroke="rgb(100%, 0%, 100%)"
     stroke-opacity="1"
     stroke-miterlimit="10"
     d="M 378.832031 196.699219 L 102.132812 233.542969 "
     id="path14" />
  <path
     fill="none"
     stroke-width="3"
     stroke-linecap="round"
     stroke-linejoin="round"
     stroke="rgb(100%, 0%, 100%)"
     stroke-opacity="1"
     stroke-miterlimit="10"
     d="M 189.5 32 L 191.332031 311.136719 "
     id="path15" />
  <path
     fill="none"
     stroke-width="3"
     stroke-linecap="round"
     stroke-linejoin="round"
     stroke="rgb(0%, 0%, 0%)"
     stroke-opacity="1"
     stroke-miterlimit="10"
     d="M 189.5 32 L 33.734375 312.167969 "
     id="path16" />
  <path
     fill="none"
     stroke-width="3"
     stroke-linecap="round"
     stroke-linejoin="round"
     stroke="rgb(0%, 0%, 0%)"
     stroke-opacity="1"
     stroke-miterlimit="10"
     d="M 33.734375 312.167969 L 508 309.058594 "
     id="path17" />
  <path
     fill="none"
     stroke-width="3"
     stroke-linecap="round"
     stroke-linejoin="round"
     stroke="rgb(0%, 0%, 0%)"
     stroke-opacity="1"
     stroke-miterlimit="10"
     d="M 508 309.058594 L 189.5 32 "
     id="path18" />
  <path
     fill="none"
     stroke-width="1"
     stroke-linecap="round"
     stroke-linejoin="round"
     stroke="rgb(0%, 0%, 0%)"
     stroke-opacity="1"
     stroke-miterlimit="10"
     d="M 33.734375 312.167969 L 239.566406 75.554688 "
     id="path19" />
  <path
     fill="none"
     stroke-width="1"
     stroke-linecap="round"
     stroke-linejoin="round"
     stroke="rgb(0%, 0%, 0%)"
     stroke-opacity="1"
     stroke-miterlimit="10"
     d="M 191.332031 311.136719 L 102.132812 233.542969 "
     id="path20" />
  <path
     fill-rule="nonzero"
     fill="rgb(0%, 0%, 0%)"
     fill-opacity="1"
     d="M 182.832031 20.335938 L 192.230469 4.566406 C 192.230469 4.566406 192.5 4.136719 192.929688 4.109375 C 192.929688 4.109375 193.335938 4.109375 193.390625 4.378906 C 193.390625 4.378906 193.417969 4.460938 193.445312 4.757812 L 195.089844 21.632812 C 195.089844 21.632812 195.171875 22.308594 195.414062 22.441406 L 195.441406 22.441406 L 195.441406 22.46875 C 195.441406 22.46875 195.765625 22.605469 196.847656 22.605469 C 196.847656 22.605469 197.441406 22.605469 197.46875 22.902344 C 197.46875 22.902344 197.46875 23.441406 196.980469 23.441406 L 193.957031 23.359375 L 193.929688 23.359375 L 190.582031 23.441406 L 190.554688 23.441406 C 190.554688 23.441406 190.175781 23.441406 190.175781 23.144531 C 190.175781 23.144531 190.394531 22.632812 190.824219 22.605469 C 190.824219 22.605469 192.769531 22.605469 192.769531 21.714844 C 192.769531 21.714844 192.769531 21.738281 192.335938 17.203125 L 185.558594 17.203125 L 183.507812 20.660156 C 183.507812 20.660156 183.128906 21.335938 183.128906 21.660156 C 183.128906 21.660156 183.128906 22.496094 184.398438 22.605469 C 184.398438 22.605469 184.832031 22.605469 184.832031 22.929688 C 184.832031 22.929688 184.832031 23.441406 184.316406 23.441406 L 181.726562 23.359375 L 181.617188 23.359375 L 179.351562 23.441406 L 179.296875 23.441406 C 179.296875 23.441406 178.945312 23.441406 178.945312 23.144531 C 178.945312 23.144531 178.945312 22.65625 179.351562 22.632812 L 179.351562 22.605469 L 179.511719 22.605469 C 179.511719 22.605469 181.214844 22.496094 182.292969 21.144531 C 182.292969 21.144531 182.5625 20.796875 182.832031 20.335938 M 186.074219 16.367188 L 192.257812 16.367188 L 191.390625 7.457031 Z M 186.074219 16.367188 "
     id="path21" />
  <path
     fill-rule="nonzero"
     fill="rgb(0%, 0%, 0%)"
     fill-opacity="1"
     d="M 5.320312 323.335938 L 8.9375 308.835938 C 8.9375 308.835938 9.046875 308.402344 9.046875 308.324219 C 9.046875 308.324219 9.046875 308 8.613281 307.917969 L 8.558594 307.917969 C 8.558594 307.917969 8.480469 307.917969 8.316406 307.890625 C 8.316406 307.890625 7.859375 307.835938 7.292969 307.835938 C 7.292969 307.835938 6.589844 307.835938 6.535156 307.539062 C 6.535156 307.539062 6.535156 307.054688 6.941406 307 L 16.390625 307 C 16.390625 307 19.496094 307 20.816406 308.835938 C 20.816406 308.835938 21.410156 309.699219 21.410156 310.726562 C 21.410156 310.726562 21.410156 312.914062 18.980469 314.53125 C 18.980469 314.53125 18.957031 314.53125 18.929688 314.558594 C 18.929688 314.558594 17.496094 315.476562 15.769531 315.800781 C 15.769531 315.800781 18.523438 316.125 19.550781 317.960938 C 19.550781 317.960938 19.953125 318.71875 19.953125 319.609375 C 19.953125 319.609375 19.953125 321.578125 18.0625 323.308594 L 18.035156 323.335938 C 18.035156 323.335938 15.714844 325.441406 12.503906 325.441406 L 2.863281 325.441406 C 2.863281 325.441406 2.1875 325.441406 2.132812 325.144531 C 2.132812 325.144531 2.132812 324.65625 2.539062 324.605469 L 2.863281 324.605469 C 2.863281 324.605469 4.617188 324.605469 4.96875 324.226562 C 4.96875 324.226562 5.132812 324.035156 5.292969 323.46875 C 5.292969 323.46875 5.292969 323.441406 5.320312 323.335938 M 9.398438 315.558594 L 13.339844 315.558594 C 13.339844 315.558594 16.011719 315.558594 17.738281 313.613281 C 17.738281 313.613281 18.957031 312.238281 18.957031 310.617188 C 18.957031 310.617188 18.957031 308.648438 17.335938 308.054688 C 17.335938 308.054688 16.769531 307.835938 16.011719 307.835938 L 12.527344 307.835938 C 12.527344 307.835938 11.558594 307.835938 11.339844 308.105469 L 11.339844 308.132812 L 11.3125 308.132812 L 11.3125 308.160156 C 11.3125 308.160156 11.207031 308.324219 11.070312 308.863281 L 9.398438 315.558594 M 8.183594 324.605469 L 11.855469 324.605469 C 11.855469 324.605469 14.445312 324.605469 16.148438 322.660156 C 16.148438 322.660156 17.441406 321.148438 17.441406 319.3125 C 17.441406 319.3125 17.441406 317.339844 16.039062 316.53125 C 16.039062 316.53125 15.335938 316.152344 14.339844 316.152344 L 9.234375 316.152344 L 7.371094 323.6875 C 7.371094 323.6875 7.238281 324.171875 7.238281 324.308594 C 7.238281 324.308594 7.238281 324.523438 7.480469 324.578125 L 7.589844 324.578125 C 7.589844 324.578125 7.75 324.605469 8.183594 324.605469 Z M 8.183594 324.605469 "
     id="path22" />
  <path
     fill-rule="nonzero"
     fill="rgb(0%, 0%, 0%)"
     fill-opacity="1"
     d="M 540.519531 299.675781 L 538.820312 306.5625 C 538.820312 306.5625 538.683594 307.046875 538.550781 307.074219 L 538.523438 307.101562 L 538.332031 307.101562 C 538.332031 307.101562 537.929688 307.101562 537.929688 306.832031 L 538.007812 305.507812 L 538.007812 305.453125 C 538.007812 305.453125 538.007812 302.105469 535.902344 300.835938 L 535.875 300.808594 C 535.875 300.808594 534.929688 300.242188 533.660156 300.242188 C 533.660156 300.242188 530.800781 300.242188 528.234375 302.375 C 528.234375 302.375 527.585938 302.890625 527.074219 303.511719 C 527.074219 303.511719 524.507812 306.507812 523.914062 311.125 C 523.914062 311.125 523.808594 311.960938 523.808594 312.582031 C 523.808594 312.582031 523.808594 316.363281 526.667969 317.683594 C 526.667969 317.683594 527.777344 318.199219 529.097656 318.199219 C 529.097656 318.199219 531.636719 318.199219 534.066406 316.226562 C 534.066406 316.226562 535.957031 314.632812 536.792969 311.960938 C 536.792969 311.960938 536.847656 311.691406 537.144531 311.691406 C 537.144531 311.691406 537.46875 311.691406 537.46875 311.960938 C 537.46875 311.960938 537.46875 312.445312 536.847656 313.6875 C 536.847656 313.6875 536.011719 315.390625 534.5 316.714844 C 534.5 316.714844 531.824219 319.035156 528.667969 319.035156 C 528.667969 319.035156 525.210938 319.035156 523.132812 316.660156 C 523.132812 316.660156 521.351562 314.632812 521.351562 311.636719 C 521.351562 311.636719 521.351562 307.613281 524.292969 304.105469 C 524.292969 304.105469 527.019531 300.835938 530.746094 299.785156 C 530.746094 299.785156 532.121094 299.40625 533.445312 299.40625 C 533.445312 299.40625 536.390625 299.40625 537.929688 301.808594 L 539.816406 299.730469 C 539.816406 299.730469 540.140625 299.40625 540.222656 299.40625 C 540.222656 299.40625 540.519531 299.40625 540.519531 299.675781 Z M 540.519531 299.675781 "
     id="path23" />
  <path
     fill-rule="nonzero"
     fill="rgb(0%, 0%, 0%)"
     fill-opacity="1"
     d="M 182.832031 334.550781 L 192.230469 318.785156 C 192.230469 318.785156 192.5 318.351562 192.929688 318.324219 C 192.929688 318.324219 193.335938 318.324219 193.390625 318.59375 C 193.390625 318.59375 193.417969 318.675781 193.445312 318.972656 L 195.089844 335.847656 C 195.089844 335.847656 195.171875 336.523438 195.414062 336.65625 L 195.441406 336.65625 L 195.441406 336.683594 C 195.441406 336.683594 195.765625 336.820312 196.847656 336.820312 C 196.847656 336.820312 197.441406 336.820312 197.46875 337.117188 C 197.46875 337.117188 197.46875 337.65625 196.980469 337.65625 L 193.957031 337.574219 L 193.929688 337.574219 L 190.582031 337.65625 L 190.554688 337.65625 C 190.554688 337.65625 190.175781 337.65625 190.175781 337.359375 C 190.175781 337.359375 190.394531 336.847656 190.824219 336.820312 C 190.824219 336.820312 192.769531 336.820312 192.769531 335.929688 C 192.769531 335.929688 192.769531 335.957031 192.335938 331.417969 L 185.558594 331.417969 L 183.507812 334.875 C 183.507812 334.875 183.128906 335.550781 183.128906 335.875 C 183.128906 335.875 183.128906 336.710938 184.398438 336.820312 C 184.398438 336.820312 184.832031 336.820312 184.832031 337.144531 C 184.832031 337.144531 184.832031 337.65625 184.316406 337.65625 L 181.726562 337.574219 L 181.617188 337.574219 L 179.351562 337.65625 L 179.296875 337.65625 C 179.296875 337.65625 178.945312 337.65625 178.945312 337.359375 C 178.945312 337.359375 178.945312 336.875 179.351562 336.847656 L 179.351562 336.820312 L 179.511719 336.820312 C 179.511719 336.820312 181.214844 336.710938 182.292969 335.363281 C 182.292969 335.363281 182.5625 335.011719 182.832031 334.550781 M 186.074219 330.582031 L 192.257812 330.582031 L 191.390625 321.671875 Z M 186.074219 330.582031 "
     id="path24" />
  <path
     fill-rule="nonzero"
     fill="rgb(0%, 0%, 0%)"
     fill-opacity="1"
     d="M 203.070312 317.457031 L 199.6875 325.394531 C 199.6875 325.394531 199.574219 325.65625 199.441406 325.65625 C 199.441406 325.65625 199.101562 325.65625 198.875 325.449219 C 198.875 325.449219 198.796875 325.394531 198.796875 325.316406 C 198.796875 325.316406 198.796875 325.28125 198.855469 325.054688 L 201.140625 316.8125 C 201.140625 316.8125 201.386719 316.039062 201.972656 315.960938 C 201.972656 315.960938 202.066406 315.941406 202.144531 315.941406 C 202.144531 315.941406 202.785156 315.941406 203.089844 316.492188 C 203.089844 316.492188 203.203125 316.699219 203.203125 316.925781 C 203.203125 316.925781 203.203125 317.171875 203.070312 317.457031 Z M 203.070312 317.457031 "
     id="path25" />
  <path
     fill-rule="nonzero"
     fill="rgb(0%, 0%, 0%)"
     fill-opacity="1"
     d="M 245.320312 69.550781 L 248.9375 55.050781 C 248.9375 55.050781 249.046875 54.621094 249.046875 54.539062 C 249.046875 54.539062 249.046875 54.214844 248.613281 54.132812 L 248.558594 54.132812 C 248.558594 54.132812 248.480469 54.132812 248.316406 54.105469 C 248.316406 54.105469 247.859375 54.050781 247.292969 54.050781 C 247.292969 54.050781 246.589844 54.050781 246.535156 53.753906 C 246.535156 53.753906 246.535156 53.269531 246.941406 53.214844 L 256.390625 53.214844 C 256.390625 53.214844 259.496094 53.214844 260.816406 55.050781 C 260.816406 55.050781 261.414062 55.914062 261.414062 56.941406 C 261.414062 56.941406 261.414062 59.128906 258.980469 60.75 C 258.980469 60.75 258.957031 60.75 258.929688 60.773438 C 258.929688 60.773438 257.496094 61.695312 255.769531 62.015625 C 255.769531 62.015625 258.523438 62.339844 259.550781 64.175781 C 259.550781 64.175781 259.953125 64.933594 259.953125 65.824219 C 259.953125 65.824219 259.953125 67.796875 258.0625 69.523438 L 258.039062 69.550781 C 258.039062 69.550781 255.714844 71.65625 252.503906 71.65625 L 242.863281 71.65625 C 242.863281 71.65625 242.1875 71.65625 242.132812 71.359375 C 242.132812 71.359375 242.132812 70.875 242.539062 70.820312 L 242.863281 70.820312 C 242.863281 70.820312 244.617188 70.820312 244.96875 70.441406 C 244.96875 70.441406 245.132812 70.253906 245.292969 69.683594 C 245.292969 69.683594 245.292969 69.660156 245.320312 69.550781 M 249.398438 61.773438 L 253.339844 61.773438 C 253.339844 61.773438 256.011719 61.773438 257.738281 59.832031 C 257.738281 59.832031 258.957031 58.453125 258.957031 56.832031 C 258.957031 56.832031 258.957031 54.863281 257.335938 54.269531 C 257.335938 54.269531 256.769531 54.050781 256.011719 54.050781 L 252.527344 54.050781 C 252.527344 54.050781 251.558594 54.050781 251.339844 54.324219 L 251.339844 54.347656 L 251.3125 54.347656 L 251.3125 54.375 C 251.3125 54.375 251.207031 54.539062 251.070312 55.078125 L 249.398438 61.773438 M 248.183594 70.820312 L 251.855469 70.820312 C 251.855469 70.820312 254.445312 70.820312 256.148438 68.875 C 256.148438 68.875 257.441406 67.363281 257.441406 65.527344 C 257.441406 65.527344 257.441406 63.554688 256.039062 62.746094 C 256.039062 62.746094 255.335938 62.367188 254.339844 62.367188 L 249.234375 62.367188 L 247.371094 69.902344 C 247.371094 69.902344 247.238281 70.386719 247.238281 70.523438 C 247.238281 70.523438 247.238281 70.738281 247.480469 70.792969 L 247.589844 70.792969 C 247.589844 70.792969 247.75 70.820312 248.183594 70.820312 Z M 248.183594 70.820312 "
     id="path26" />
  <path
     fill-rule="nonzero"
     fill="rgb(0%, 0%, 0%)"
     fill-opacity="1"
     d="M 267.664062 51.457031 L 264.28125 59.394531 C 264.28125 59.394531 264.167969 59.65625 264.035156 59.65625 C 264.035156 59.65625 263.695312 59.65625 263.46875 59.449219 C 263.46875 59.449219 263.390625 59.394531 263.390625 59.316406 C 263.390625 59.316406 263.390625 59.28125 263.449219 59.054688 L 265.734375 50.8125 C 265.734375 50.8125 265.980469 50.039062 266.566406 49.960938 C 266.566406 49.960938 266.660156 49.941406 266.738281 49.941406 C 266.738281 49.941406 267.378906 49.941406 267.679688 50.492188 C 267.679688 50.492188 267.792969 50.699219 267.792969 50.925781 C 267.792969 50.925781 267.792969 51.171875 267.664062 51.457031 Z M 267.664062 51.457031 "
     id="path27" />
  <path
     fill-rule="nonzero"
     fill="rgb(0%, 0%, 0%)"
     fill-opacity="1"
     d="M 130.292969 249.335938 L 133.910156 234.835938 C 133.910156 234.835938 134.019531 234.402344 134.019531 234.324219 C 134.019531 234.324219 134.019531 234 133.585938 233.917969 L 133.558594 233.917969 C 133.558594 233.917969 133.507812 233.890625 133.425781 233.890625 C 133.425781 233.890625 132.777344 233.835938 132.265625 233.835938 C 132.265625 233.835938 131.5625 233.835938 131.507812 233.621094 C 131.507812 233.621094 131.480469 233.566406 131.480469 233.511719 C 131.480469 233.511719 131.480469 233.054688 131.941406 233 L 141.363281 233 C 141.363281 233 144.875 233 146.601562 235.726562 C 146.601562 235.726562 147.707031 237.453125 147.707031 239.832031 C 147.707031 239.832031 147.707031 243.746094 144.980469 247.148438 C 144.980469 247.148438 142.390625 250.308594 138.878906 251.171875 C 138.878906 251.171875 137.824219 251.441406 136.773438 251.441406 L 127.835938 251.441406 C 127.835938 251.441406 127.160156 251.441406 127.105469 251.226562 C 127.105469 251.226562 127.082031 251.199219 127.082031 251.117188 C 127.082031 251.117188 127.082031 250.65625 127.511719 250.605469 L 127.835938 250.605469 C 127.835938 250.605469 129.589844 250.605469 129.941406 250.226562 C 129.941406 250.226562 130.105469 250.035156 130.265625 249.46875 C 130.265625 249.46875 130.265625 249.441406 130.292969 249.335938 M 136.125 234.863281 L 132.425781 249.6875 C 132.425781 249.6875 132.292969 250.171875 132.292969 250.308594 C 132.292969 250.308594 132.292969 250.523438 132.535156 250.578125 L 132.640625 250.578125 C 132.640625 250.578125 132.804688 250.605469 133.234375 250.605469 L 136.285156 250.605469 C 136.285156 250.605469 139.636719 250.605469 142.066406 248.09375 C 142.066406 248.09375 142.308594 247.824219 142.523438 247.554688 C 142.523438 247.554688 144.683594 244.746094 145.25 240.210938 C 145.25 240.210938 145.359375 239.371094 145.359375 238.832031 C 145.359375 238.832031 145.359375 235.214844 142.523438 234.1875 C 142.523438 234.1875 141.605469 233.835938 140.472656 233.835938 L 137.582031 233.835938 C 137.582031 233.835938 136.609375 233.835938 136.394531 234.105469 L 136.394531 234.132812 L 136.367188 234.132812 L 136.367188 234.160156 C 136.367188 234.160156 136.261719 234.324219 136.125 234.863281 Z M 136.125 234.863281 "
     id="path28" />
  <path
     fill-rule="nonzero"
     fill="rgb(0%, 0%, 0%)"
     fill-opacity="1"
     d="M 399.117188 186.148438 L 396.632812 191.980469 C 396.632812 191.980469 396.46875 192.359375 396.253906 192.414062 L 396.226562 192.414062 C 396.226562 192.414062 396.117188 192.441406 395.792969 192.441406 L 381.78125 192.441406 C 381.78125 192.441406 381.105469 192.441406 381.054688 192.226562 C 381.054688 192.226562 381.027344 192.199219 381.027344 192.117188 C 381.027344 192.117188 381.027344 191.65625 381.457031 191.605469 L 381.78125 191.605469 C 381.78125 191.605469 383.535156 191.605469 383.886719 191.226562 C 383.886719 191.226562 384.050781 191.035156 384.210938 190.46875 C 384.210938 190.46875 384.210938 190.441406 384.238281 190.335938 L 387.804688 176.050781 C 387.804688 176.050781 387.9375 175.566406 387.9375 175.402344 C 387.9375 175.402344 387.9375 174.945312 386.695312 174.917969 L 386.183594 174.917969 C 386.183594 174.917969 385.480469 174.917969 385.425781 174.621094 C 385.425781 174.621094 385.425781 174.136719 385.859375 174.082031 L 399.871094 174.082031 C 399.871094 174.082031 400.519531 174.082031 400.574219 174.269531 L 400.601562 174.269531 C 400.601562 174.269531 400.65625 174.433594 400.601562 174.808594 L 400.0625 179.480469 C 400.0625 179.480469 399.871094 180.101562 399.683594 180.15625 C 399.683594 180.15625 399.359375 180.15625 399.359375 179.832031 L 399.386719 179.371094 L 399.386719 179.347656 C 399.386719 179.347656 399.492188 178.617188 399.492188 177.914062 C 399.492188 177.914062 399.492188 176.023438 398.441406 175.429688 C 398.441406 175.429688 397.550781 174.917969 395.390625 174.917969 L 391.582031 174.917969 C 391.582031 174.917969 390.582031 174.917969 390.394531 175.214844 L 390.367188 175.214844 L 390.367188 175.242188 C 390.367188 175.242188 390.285156 175.351562 390.234375 175.566406 L 390.234375 175.59375 L 390.207031 175.621094 C 390.207031 175.621094 390.179688 175.726562 390.125 175.972656 L 388.503906 182.476562 L 391.042969 182.476562 C 391.042969 182.476562 393.09375 182.476562 393.769531 181.667969 C 393.769531 181.667969 394.203125 181.15625 394.578125 179.804688 C 394.578125 179.804688 394.6875 179.347656 394.957031 179.320312 C 394.957031 179.320312 395.28125 179.320312 395.28125 179.617188 L 393.742188 185.933594 C 393.742188 185.933594 393.609375 186.445312 393.335938 186.472656 C 393.335938 186.472656 392.988281 186.472656 392.988281 186.175781 C 392.988281 186.175781 392.988281 186.070312 393.066406 185.878906 C 393.066406 185.878906 393.257812 185.070312 393.257812 184.558594 C 393.257812 184.558594 393.257812 183.828125 392.851562 183.613281 C 392.851562 183.613281 392.339844 183.316406 390.960938 183.316406 L 388.289062 183.316406 L 386.453125 190.6875 C 386.453125 190.6875 386.316406 191.171875 386.316406 191.308594 C 386.316406 191.308594 386.316406 191.523438 386.5625 191.578125 L 386.667969 191.578125 C 386.667969 191.578125 386.832031 191.605469 387.261719 191.605469 L 391.203125 191.605469 C 391.203125 191.605469 394.5 191.605469 396.066406 190.09375 C 396.066406 190.09375 397.089844 189.121094 398.304688 186.445312 C 398.304688 186.445312 398.414062 186.148438 398.574219 185.800781 C 398.574219 185.800781 398.683594 185.476562 398.925781 185.476562 C 398.925781 185.476562 399.25 185.476562 399.25 185.773438 C 399.25 185.773438 399.25 185.800781 399.117188 186.148438 Z M 399.117188 186.148438 "
     id="path29" />
</svg>
