<?xml version="1.0" encoding="UTF-8" standalone="no"?>
<svg
   width="413pt"
   height="404pt"
   viewBox="0 0 413 404"
   version="1.1"
   id="svg34"
   xmlns="http://www.w3.org/2000/svg"
   xmlns:svg="http://www.w3.org/2000/svg">
  <defs
     id="defs34" />
  <rect
     x="-41.3"
     y="-40.4"
     width="495.6"
     height="484.8"
     fill="rgb(100%, 100%, 100%)"
     fill-opacity="1"
     id="rect1" />
  <path
     fill="none"
     stroke-width="1"
     stroke-linecap="round"
     stroke-linejoin="round"
     stroke="rgb(0%, 0%, 0%)"
     stroke-opacity="1"
     stroke-miterlimit="10"
     d="M 219.027344 69.457031 C 239.808594 99.9375 275.480469 116.757812 312.214844 113.394531 "
     id="path1" />
  <path
     fill="none"
     stroke-width="1"
     stroke-linecap="round"
     stroke-linejoin="round"
     stroke="rgb(0%, 0%, 0%)"
     stroke-opacity="1"
     stroke-miterlimit="10"
     d="M 86.976562 134.125 C 144.34375 218.046875 242.191406 264.910156 343.539062 257.003906 "
     id="path2" />
  <path
     fill="none"
     stroke-width="1"
     stroke-linecap="round"
     stroke-linejoin="round"
     stroke="rgb(0%, 0%, 0%)"
     stroke-opacity="1"
     stroke-miterlimit="10"
     d="M 231.003906 161.648438 C 221.054688 156.855469 209.101562 161.039062 204.308594 170.988281 L 222.328125 179.667969 Z M 231.003906 161.648438 "
     id="path3" />
  <path
     fill-rule="nonzero"
     fill="rgb(0%, 0%, 0%)"
     fill-opacity="1"
     d="M 220.441406 168.5625 C 220.441406 169.667969 219.546875 170.5625 218.441406 170.5625 C 217.335938 170.5625 216.441406 169.667969 216.441406 168.5625 C 216.441406 167.457031 217.335938 166.5625 218.441406 166.5625 C 219.546875 166.5625 220.441406 167.457031 220.441406 168.5625 Z M 220.441406 168.5625 "
     id="path4" />
  <path
     fill="none"
     stroke-width="1"
     stroke-linecap="round"
     stroke-linejoin="round"
     stroke="rgb(0%, 0%, 0%)"
     stroke-opacity="1"
     stroke-miterlimit="10"
     d="M 281.960938 55.839844 C 272.007812 51.046875 260.054688 55.230469 255.261719 65.183594 L 273.28125 73.859375 Z M 281.960938 55.839844 "
     id="path5" />
  <path
     fill-rule="nonzero"
     fill="rgb(0%, 0%, 0%)"
     fill-opacity="1"
     d="M 271.394531 62.753906 C 271.394531 63.859375 270.5 64.753906 269.394531 64.753906 C 268.292969 64.753906 267.394531 63.859375 267.394531 62.753906 C 267.394531 61.648438 268.292969 60.753906 269.394531 60.753906 C 270.5 60.753906 271.394531 61.648438 271.394531 62.753906 Z M 271.394531 62.753906 "
     id="path6" />
  <path
     fill="none"
     stroke-width="1"
     stroke-linecap="butt"
     stroke-linejoin="round"
     stroke="rgb(0%, 0%, 0%)"
     stroke-opacity="1"
     stroke-dasharray="5 4"
     stroke-miterlimit="10"
     d="M 111.886719 409 L 311.257812 -5 "
     id="path7" />
  <path
     fill="none"
     stroke-width="1"
     stroke-linecap="round"
     stroke-linejoin="round"
     stroke="rgb(0%, 0%, 0%)"
     stroke-opacity="1"
     stroke-miterlimit="10"
     d="M 205.613281 41.273438 L 340.949219 106.445312 "
     id="path8" />
  <path
     fill="none"
     stroke-width="1"
     stroke-linecap="round"
     stroke-linejoin="round"
     stroke="rgb(0%, 0%, 0%)"
     stroke-opacity="1"
     stroke-miterlimit="10"
     d="M 340.949219 106.445312 L 374.371094 252.886719 "
     id="path9" />
  <path
     fill="none"
     stroke-width="1"
     stroke-linecap="round"
     stroke-linejoin="round"
     stroke="rgb(0%, 0%, 0%)"
     stroke-opacity="1"
     stroke-miterlimit="10"
     d="M 374.371094 252.886719 L 280.71875 370.324219 "
     id="path10" />
  <path
     fill="none"
     stroke-width="1"
     stroke-linecap="round"
     stroke-linejoin="round"
     stroke="rgb(0%, 0%, 0%)"
     stroke-opacity="1"
     stroke-miterlimit="10"
     d="M 280.71875 370.324219 L 130.511719 370.324219 "
     id="path11" />
  <path
     fill="none"
     stroke-width="1"
     stroke-linecap="round"
     stroke-linejoin="round"
     stroke="rgb(0%, 0%, 0%)"
     stroke-opacity="1"
     stroke-miterlimit="10"
     d="M 130.511719 370.324219 L 36.859375 252.886719 "
     id="path12" />
  <path
     fill="none"
     stroke-width="1"
     stroke-linecap="round"
     stroke-linejoin="round"
     stroke="rgb(0%, 0%, 0%)"
     stroke-opacity="1"
     stroke-miterlimit="10"
     d="M 36.859375 252.886719 L 70.28125 106.445312 "
     id="path13" />
  <path
     fill="none"
     stroke-width="1"
     stroke-linecap="round"
     stroke-linejoin="round"
     stroke="rgb(0%, 0%, 0%)"
     stroke-opacity="1"
     stroke-miterlimit="10"
     d="M 70.28125 106.445312 L 205.613281 41.273438 "
     id="path14" />
  <path
     fill="none"
     stroke-width="1"
     stroke-linecap="round"
     stroke-linejoin="round"
     stroke="rgb(0%, 0%, 0%)"
     stroke-opacity="1"
     stroke-miterlimit="10"
     d="M 374.371094 252.886719 L 70.28125 106.445312 "
     id="path15" />
  <path
     fill="none"
     stroke-width="1"
     stroke-linecap="round"
     stroke-linejoin="round"
     stroke="rgb(0%, 0%, 0%)"
     stroke-opacity="1"
     stroke-miterlimit="10"
     d="M 219.027344 69.457031 L 216.726562 65.308594 "
     id="path16" />
  <path
     fill-rule="evenodd"
     fill="rgb(0%, 0%, 0%)"
     fill-opacity="1"
     d="M 209.941406 53.0625 L 219.789062 63.609375 L 213.664062 67.003906 Z M 209.941406 53.0625 "
     id="path17" />
  <path
     fill="none"
     stroke-width="1"
     stroke-linecap="round"
     stroke-linejoin="round"
     stroke="rgb(0%, 0%, 0%)"
     stroke-opacity="1"
     stroke-miterlimit="10"
     d="M 312.214844 113.394531 L 315.414062 112.824219 "
     id="path18" />
  <path
     fill-rule="evenodd"
     fill="rgb(0%, 0%, 0%)"
     fill-opacity="1"
     d="M 329.199219 110.371094 L 316.027344 116.269531 L 314.800781 109.378906 Z M 329.199219 110.371094 "
     id="path19" />
  <path
     fill="none"
     stroke-width="1"
     stroke-linecap="round"
     stroke-linejoin="round"
     stroke="rgb(0%, 0%, 0%)"
     stroke-opacity="1"
     stroke-miterlimit="10"
     d="M 86.976562 134.125 L 84.675781 130.515625 "
     id="path20" />
  <path
     fill-rule="evenodd"
     fill="rgb(0%, 0%, 0%)"
     fill-opacity="1"
     d="M 77.148438 118.707031 L 87.625 128.632812 L 81.722656 132.394531 Z M 77.148438 118.707031 "
     id="path21" />
  <path
     fill="none"
     stroke-width="1"
     stroke-linecap="round"
     stroke-linejoin="round"
     stroke="rgb(0%, 0%, 0%)"
     stroke-opacity="1"
     stroke-miterlimit="10"
     d="M 343.539062 257.003906 L 346.089844 256.726562 "
     id="path22" />
  <path
     fill-rule="evenodd"
     fill="rgb(0%, 0%, 0%)"
     fill-opacity="1"
     d="M 360.011719 255.230469 L 346.464844 260.207031 L 345.71875 253.246094 Z M 360.011719 255.230469 "
     id="path23" />
  <path
     fill-rule="nonzero"
     fill="rgb(0%, 0%, 0%)"
     fill-opacity="1"
     stroke-width="1"
     stroke-linecap="round"
     stroke-linejoin="round"
     stroke="rgb(0%, 0%, 0%)"
     stroke-opacity="1"
     stroke-miterlimit="10"
     d="M 208.613281 41.273438 C 208.613281 42.929688 207.273438 44.273438 205.613281 44.273438 C 203.957031 44.273438 202.613281 42.929688 202.613281 41.273438 C 202.613281 39.617188 203.957031 38.273438 205.613281 38.273438 C 207.273438 38.273438 208.613281 39.617188 208.613281 41.273438 Z M 208.613281 41.273438 "
     id="path24" />
  <path
     fill-rule="nonzero"
     fill="rgb(0%, 0%, 0%)"
     fill-opacity="1"
     stroke-width="1"
     stroke-linecap="round"
     stroke-linejoin="round"
     stroke="rgb(0%, 0%, 0%)"
     stroke-opacity="1"
     stroke-miterlimit="10"
     d="M 73.28125 106.445312 C 73.28125 108.101562 71.9375 109.445312 70.28125 109.445312 C 68.625 109.445312 67.28125 108.101562 67.28125 106.445312 C 67.28125 104.789062 68.625 103.445312 70.28125 103.445312 C 71.9375 103.445312 73.28125 104.789062 73.28125 106.445312 Z M 73.28125 106.445312 "
     id="path25" />
  <path
     fill-rule="nonzero"
     fill="rgb(0%, 0%, 0%)"
     fill-opacity="1"
     stroke-width="1"
     stroke-linecap="round"
     stroke-linejoin="round"
     stroke="rgb(0%, 0%, 0%)"
     stroke-opacity="1"
     stroke-miterlimit="10"
     d="M 377.371094 252.886719 C 377.371094 254.542969 376.027344 255.886719 374.371094 255.886719 C 372.714844 255.886719 371.371094 254.542969 371.371094 252.886719 C 371.371094 251.230469 372.714844 249.886719 374.371094 249.886719 C 376.027344 249.886719 377.371094 251.230469 377.371094 252.886719 Z M 377.371094 252.886719 "
     id="path26" />
  <path
     fill-rule="nonzero"
     fill="rgb(0%, 0%, 0%)"
     fill-opacity="1"
     stroke-width="1"
     stroke-linecap="round"
     stroke-linejoin="round"
     stroke="rgb(0%, 0%, 0%)"
     stroke-opacity="1"
     stroke-miterlimit="10"
     d="M 343.949219 106.445312 C 343.949219 108.101562 342.605469 109.445312 340.949219 109.445312 C 339.289062 109.445312 337.949219 108.101562 337.949219 106.445312 C 337.949219 104.789062 339.289062 103.445312 340.949219 103.445312 C 342.605469 103.445312 343.949219 104.789062 343.949219 106.445312 Z M 343.949219 106.445312 "
     id="path27" />
  <path
     fill-rule="nonzero"
     fill="rgb(0%, 0%, 0%)"
     fill-opacity="1"
     d="M 200.832031 21.335938 L 210.230469 5.566406 C 210.230469 5.566406 210.5 5.136719 210.929688 5.109375 C 210.929688 5.109375 211.335938 5.109375 211.390625 5.378906 C 211.390625 5.378906 211.417969 5.460938 211.445312 5.757812 L 213.089844 22.632812 C 213.089844 22.632812 213.171875 23.308594 213.414062 23.441406 L 213.441406 23.441406 L 213.441406 23.46875 C 213.441406 23.46875 213.765625 23.605469 214.847656 23.605469 C 214.847656 23.605469 215.441406 23.605469 215.46875 23.902344 C 215.46875 23.902344 215.46875 24.441406 214.980469 24.441406 L 211.957031 24.359375 L 211.929688 24.359375 L 208.582031 24.441406 L 208.554688 24.441406 C 208.554688 24.441406 208.175781 24.441406 208.175781 24.144531 C 208.175781 24.144531 208.394531 23.632812 208.824219 23.605469 C 208.824219 23.605469 210.769531 23.605469 210.769531 22.714844 C 210.769531 22.714844 210.769531 22.738281 210.335938 18.203125 L 203.558594 18.203125 L 201.507812 21.660156 C 201.507812 21.660156 201.128906 22.335938 201.128906 22.660156 C 201.128906 22.660156 201.128906 23.496094 202.398438 23.605469 C 202.398438 23.605469 202.832031 23.605469 202.832031 23.929688 C 202.832031 23.929688 202.832031 24.441406 202.316406 24.441406 L 199.726562 24.359375 L 199.617188 24.359375 L 197.351562 24.441406 L 197.296875 24.441406 C 197.296875 24.441406 196.945312 24.441406 196.945312 24.144531 C 196.945312 24.144531 196.945312 23.65625 197.351562 23.632812 L 197.351562 23.605469 L 197.511719 23.605469 C 197.511719 23.605469 199.214844 23.496094 200.292969 22.144531 C 200.292969 22.144531 200.5625 21.796875 200.832031 21.335938 M 204.074219 17.367188 L 210.257812 17.367188 L 209.390625 8.457031 Z M 204.074219 17.367188 "
     id="path28" />
  <path
     fill-rule="nonzero"
     fill="rgb(0%, 0%, 0%)"
     fill-opacity="1"
     d="M 355.320312 101.335938 L 358.9375 86.835938 C 358.9375 86.835938 359.046875 86.402344 359.046875 86.324219 C 359.046875 86.324219 359.046875 86 358.613281 85.917969 L 358.558594 85.917969 C 358.558594 85.917969 358.480469 85.917969 358.316406 85.890625 C 358.316406 85.890625 357.859375 85.835938 357.289062 85.835938 C 357.289062 85.835938 356.589844 85.835938 356.535156 85.539062 C 356.535156 85.539062 356.535156 85.054688 356.941406 85 L 366.390625 85 C 366.390625 85 369.496094 85 370.816406 86.835938 C 370.816406 86.835938 371.410156 87.699219 371.410156 88.726562 C 371.410156 88.726562 371.410156 90.914062 368.980469 92.53125 C 368.980469 92.53125 368.953125 92.53125 368.929688 92.558594 C 368.929688 92.558594 367.496094 93.476562 365.769531 93.800781 C 365.769531 93.800781 368.523438 94.125 369.550781 95.960938 C 369.550781 95.960938 369.953125 96.71875 369.953125 97.609375 C 369.953125 97.609375 369.953125 99.578125 368.0625 101.308594 L 368.035156 101.335938 C 368.035156 101.335938 365.714844 103.441406 362.503906 103.441406 L 352.863281 103.441406 C 352.863281 103.441406 352.1875 103.441406 352.132812 103.144531 C 352.132812 103.144531 352.132812 102.65625 352.539062 102.605469 L 352.863281 102.605469 C 352.863281 102.605469 354.617188 102.605469 354.96875 102.226562 C 354.96875 102.226562 355.132812 102.035156 355.292969 101.46875 C 355.292969 101.46875 355.292969 101.441406 355.320312 101.335938 M 359.398438 93.558594 L 363.339844 93.558594 C 363.339844 93.558594 366.011719 93.558594 367.738281 91.613281 C 367.738281 91.613281 368.953125 90.238281 368.953125 88.617188 C 368.953125 88.617188 368.953125 86.648438 367.335938 86.054688 C 367.335938 86.054688 366.769531 85.835938 366.011719 85.835938 L 362.527344 85.835938 C 362.527344 85.835938 361.558594 85.835938 361.339844 86.105469 L 361.339844 86.132812 L 361.3125 86.132812 L 361.3125 86.160156 C 361.3125 86.160156 361.207031 86.324219 361.070312 86.863281 L 359.398438 93.558594 M 358.183594 102.605469 L 361.855469 102.605469 C 361.855469 102.605469 364.445312 102.605469 366.148438 100.660156 C 366.148438 100.660156 367.441406 99.148438 367.441406 97.3125 C 367.441406 97.3125 367.441406 95.339844 366.039062 94.53125 C 366.039062 94.53125 365.335938 94.152344 364.339844 94.152344 L 359.234375 94.152344 L 357.371094 101.6875 C 357.371094 101.6875 357.238281 102.171875 357.238281 102.308594 C 357.238281 102.308594 357.238281 102.523438 357.480469 102.578125 L 357.589844 102.578125 C 357.589844 102.578125 357.75 102.605469 358.183594 102.605469 Z M 358.183594 102.605469 "
     id="path29" />
  <path
     fill-rule="nonzero"
     fill="rgb(0%, 0%, 0%)"
     fill-opacity="1"
     d="M 408.519531 244.675781 L 406.820312 251.5625 C 406.820312 251.5625 406.683594 252.046875 406.550781 252.074219 L 406.523438 252.101562 L 406.332031 252.101562 C 406.332031 252.101562 405.929688 252.101562 405.929688 251.832031 L 406.007812 250.507812 L 406.007812 250.453125 C 406.007812 250.453125 406.007812 247.105469 403.902344 245.835938 L 403.875 245.808594 C 403.875 245.808594 402.929688 245.242188 401.660156 245.242188 C 401.660156 245.242188 398.800781 245.242188 396.234375 247.375 C 396.234375 247.375 395.585938 247.890625 395.074219 248.511719 C 395.074219 248.511719 392.507812 251.507812 391.914062 256.125 C 391.914062 256.125 391.808594 256.960938 391.808594 257.582031 C 391.808594 257.582031 391.808594 261.363281 394.667969 262.683594 C 394.667969 262.683594 395.777344 263.199219 397.097656 263.199219 C 397.097656 263.199219 399.636719 263.199219 402.066406 261.226562 C 402.066406 261.226562 403.957031 259.632812 404.792969 256.960938 C 404.792969 256.960938 404.847656 256.691406 405.144531 256.691406 C 405.144531 256.691406 405.46875 256.691406 405.46875 256.960938 C 405.46875 256.960938 405.46875 257.445312 404.847656 258.6875 C 404.847656 258.6875 404.011719 260.390625 402.5 261.710938 C 402.5 261.710938 399.824219 264.035156 396.667969 264.035156 C 396.667969 264.035156 393.210938 264.035156 391.132812 261.660156 C 391.132812 261.660156 389.351562 259.632812 389.351562 256.636719 C 389.351562 256.636719 389.351562 252.613281 392.292969 249.105469 C 392.292969 249.105469 395.019531 245.835938 398.746094 244.785156 C 398.746094 244.785156 400.121094 244.40625 401.445312 244.40625 C 401.445312 244.40625 404.390625 244.40625 405.929688 246.808594 L 407.816406 244.730469 C 407.816406 244.730469 408.140625 244.40625 408.222656 244.40625 C 408.222656 244.40625 408.519531 244.40625 408.519531 244.675781 Z M 408.519531 244.675781 "
     id="path30" />
  <path
     fill-rule="nonzero"
     fill="rgb(0%, 0%, 0%)"
     fill-opacity="1"
     d="M 285.292969 400.335938 L 288.910156 385.835938 C 288.910156 385.835938 289.019531 385.402344 289.019531 385.324219 C 289.019531 385.324219 289.019531 385 288.585938 384.917969 L 288.558594 384.917969 C 288.558594 384.917969 288.507812 384.890625 288.425781 384.890625 C 288.425781 384.890625 287.777344 384.835938 287.265625 384.835938 C 287.265625 384.835938 286.5625 384.835938 286.507812 384.621094 C 286.507812 384.621094 286.480469 384.566406 286.480469 384.511719 C 286.480469 384.511719 286.480469 384.054688 286.941406 384 L 296.363281 384 C 296.363281 384 299.875 384 301.601562 386.726562 C 301.601562 386.726562 302.707031 388.453125 302.707031 390.832031 C 302.707031 390.832031 302.707031 394.746094 299.980469 398.148438 C 299.980469 398.148438 297.390625 401.308594 293.878906 402.171875 C 293.878906 402.171875 292.824219 402.441406 291.773438 402.441406 L 282.835938 402.441406 C 282.835938 402.441406 282.160156 402.441406 282.105469 402.226562 C 282.105469 402.226562 282.078125 402.199219 282.078125 402.117188 C 282.078125 402.117188 282.078125 401.65625 282.511719 401.605469 L 282.835938 401.605469 C 282.835938 401.605469 284.589844 401.605469 284.941406 401.226562 C 284.941406 401.226562 285.105469 401.035156 285.265625 400.46875 C 285.265625 400.46875 285.265625 400.441406 285.292969 400.335938 M 291.125 385.863281 L 287.425781 400.6875 C 287.425781 400.6875 287.292969 401.171875 287.292969 401.308594 C 287.292969 401.308594 287.292969 401.523438 287.535156 401.578125 L 287.640625 401.578125 C 287.640625 401.578125 287.804688 401.605469 288.234375 401.605469 L 291.285156 401.605469 C 291.285156 401.605469 294.636719 401.605469 297.066406 399.09375 C 297.066406 399.09375 297.308594 398.824219 297.523438 398.554688 C 297.523438 398.554688 299.683594 395.746094 300.25 391.207031 C 300.25 391.207031 300.359375 390.371094 300.359375 389.832031 C 300.359375 389.832031 300.359375 386.214844 297.523438 385.1875 C 297.523438 385.1875 296.605469 384.835938 295.472656 384.835938 L 292.582031 384.835938 C 292.582031 384.835938 291.609375 384.835938 291.394531 385.105469 L 291.394531 385.132812 L 291.367188 385.132812 L 291.367188 385.160156 C 291.367188 385.160156 291.261719 385.324219 291.125 385.863281 Z M 291.125 385.863281 "
     id="path31" />
  <path
     fill-rule="nonzero"
     fill="rgb(0%, 0%, 0%)"
     fill-opacity="1"
     d="M 145.117188 394.148438 L 142.632812 399.980469 C 142.632812 399.980469 142.46875 400.359375 142.253906 400.414062 L 142.226562 400.414062 C 142.226562 400.414062 142.117188 400.441406 141.796875 400.441406 L 127.78125 400.441406 C 127.78125 400.441406 127.105469 400.441406 127.054688 400.226562 C 127.054688 400.226562 127.027344 400.199219 127.027344 400.117188 C 127.027344 400.117188 127.027344 399.65625 127.457031 399.605469 L 127.78125 399.605469 C 127.78125 399.605469 129.535156 399.605469 129.886719 399.226562 C 129.886719 399.226562 130.050781 399.035156 130.210938 398.46875 C 130.210938 398.46875 130.210938 398.441406 130.238281 398.335938 L 133.804688 384.050781 C 133.804688 384.050781 133.9375 383.566406 133.9375 383.402344 C 133.9375 383.402344 133.9375 382.945312 132.695312 382.917969 L 132.183594 382.917969 C 132.183594 382.917969 131.480469 382.917969 131.425781 382.621094 C 131.425781 382.621094 131.425781 382.136719 131.859375 382.082031 L 145.871094 382.082031 C 145.871094 382.082031 146.519531 382.082031 146.574219 382.269531 L 146.601562 382.269531 C 146.601562 382.269531 146.65625 382.433594 146.601562 382.808594 L 146.0625 387.480469 C 146.0625 387.480469 145.871094 388.101562 145.683594 388.15625 C 145.683594 388.15625 145.359375 388.15625 145.359375 387.832031 L 145.386719 387.375 L 145.386719 387.347656 C 145.386719 387.347656 145.492188 386.617188 145.492188 385.914062 C 145.492188 385.914062 145.492188 384.023438 144.441406 383.429688 C 144.441406 383.429688 143.550781 382.917969 141.390625 382.917969 L 137.582031 382.917969 C 137.582031 382.917969 136.585938 382.917969 136.394531 383.214844 L 136.367188 383.214844 L 136.367188 383.242188 C 136.367188 383.242188 136.285156 383.351562 136.234375 383.566406 L 136.234375 383.59375 L 136.207031 383.621094 C 136.207031 383.621094 136.179688 383.726562 136.125 383.972656 L 134.503906 390.476562 L 137.042969 390.476562 C 137.042969 390.476562 139.09375 390.476562 139.769531 389.667969 C 139.769531 389.667969 140.203125 389.15625 140.582031 387.804688 C 140.582031 387.804688 140.6875 387.347656 140.957031 387.320312 C 140.957031 387.320312 141.28125 387.320312 141.28125 387.617188 L 139.742188 393.933594 C 139.742188 393.933594 139.609375 394.445312 139.339844 394.472656 C 139.339844 394.472656 138.988281 394.472656 138.988281 394.175781 C 138.988281 394.175781 138.988281 394.070312 139.066406 393.878906 C 139.066406 393.878906 139.257812 393.070312 139.257812 392.558594 C 139.257812 392.558594 139.257812 391.828125 138.851562 391.613281 C 138.851562 391.613281 138.339844 391.316406 136.960938 391.316406 L 134.289062 391.316406 L 132.453125 398.6875 C 132.453125 398.6875 132.316406 399.171875 132.316406 399.308594 C 132.316406 399.308594 132.316406 399.523438 132.5625 399.578125 L 132.667969 399.578125 C 132.667969 399.578125 132.832031 399.605469 133.261719 399.605469 L 137.207031 399.605469 C 137.207031 399.605469 140.5 399.605469 142.066406 398.09375 C 142.066406 398.09375 143.089844 397.121094 144.304688 394.445312 C 144.304688 394.445312 144.414062 394.148438 144.574219 393.800781 C 144.574219 393.800781 144.683594 393.476562 144.925781 393.476562 C 144.925781 393.476562 145.25 393.476562 145.25 393.773438 C 145.25 393.773438 145.25 393.800781 145.117188 394.148438 Z M 145.117188 394.148438 "
     id="path32" />
  <path
     fill-rule="nonzero"
     fill="rgb(0%, 0%, 0%)"
     fill-opacity="1"
     d="M 11.179688 248.664062 L 9.507812 255.390625 C 9.507812 255.390625 9.398438 255.792969 9.398438 256.011719 C 9.398438 256.011719 9.398438 256.386719 9.75 256.46875 C 9.75 256.46875 9.9375 256.523438 10.261719 256.550781 C 10.261719 256.550781 10.9375 256.605469 11.667969 256.605469 C 11.667969 256.605469 12.34375 256.605469 12.421875 256.632812 L 12.558594 256.820312 C 12.558594 256.820312 12.585938 256.875 12.585938 256.929688 C 12.585938 256.929688 12.585938 257.441406 12.019531 257.441406 L 8.023438 257.359375 L 7.996094 257.359375 L 4.457031 257.441406 L 4.429688 257.441406 C 4.429688 257.441406 4.027344 257.441406 4.027344 257.117188 C 4.027344 257.117188 4.027344 256.65625 4.457031 256.605469 L 4.78125 256.605469 C 4.78125 256.605469 6.535156 256.605469 6.886719 256.226562 C 6.886719 256.226562 7.050781 256.035156 7.210938 255.46875 C 7.210938 255.46875 7.210938 255.441406 7.238281 255.335938 L 10.804688 241.050781 C 10.804688 241.050781 10.9375 240.566406 10.9375 240.402344 C 10.9375 240.402344 10.9375 239.945312 9.695312 239.917969 L 9.183594 239.917969 C 9.183594 239.917969 8.480469 239.917969 8.425781 239.621094 C 8.425781 239.621094 8.425781 239.136719 8.859375 239.082031 L 22.46875 239.082031 C 22.46875 239.082031 23.113281 239.082031 23.167969 239.269531 L 23.195312 239.269531 C 23.195312 239.269531 23.25 239.433594 23.195312 239.808594 L 22.65625 244.480469 C 22.65625 244.480469 22.46875 245.101562 22.277344 245.15625 C 22.277344 245.15625 21.953125 245.15625 21.953125 244.832031 C 21.953125 244.832031 21.953125 244.695312 22.007812 244.347656 C 22.007812 244.347656 22.089844 243.617188 22.089844 242.886719 C 22.089844 242.886719 22.089844 241.078125 21.171875 240.484375 L 21.144531 240.457031 C 21.144531 240.457031 20.28125 239.917969 18.148438 239.917969 L 14.582031 239.917969 C 14.582031 239.917969 13.582031 239.917969 13.394531 240.214844 L 13.367188 240.214844 L 13.367188 240.242188 C 13.367188 240.242188 13.285156 240.351562 13.234375 240.566406 L 13.234375 240.59375 L 13.207031 240.621094 C 13.207031 240.621094 13.179688 240.726562 13.125 240.972656 L 11.398438 247.828125 L 13.855469 247.828125 C 13.855469 247.828125 15.824219 247.828125 16.5 247.101562 L 16.527344 247.074219 C 16.527344 247.074219 16.984375 246.558594 17.335938 245.238281 C 17.335938 245.238281 17.472656 244.722656 17.742188 244.671875 C 17.742188 244.671875 18.039062 244.671875 18.066406 244.96875 C 18.066406 244.96875 18.066406 245.101562 17.984375 245.398438 L 16.5 251.257812 C 16.5 251.257812 16.230469 251.796875 16.09375 251.824219 C 16.09375 251.824219 15.769531 251.824219 15.769531 251.5 C 15.769531 251.5 15.769531 251.394531 15.851562 251.203125 C 15.851562 251.203125 16.039062 250.394531 16.039062 249.882812 C 16.039062 249.882812 16.039062 249.097656 15.445312 248.855469 C 15.445312 248.855469 14.933594 248.664062 13.800781 248.664062 Z M 11.179688 248.664062 "
     id="path33" />
  <path
     fill-rule="nonzero"
     fill="rgb(0%, 0%, 0%)"
     fill-opacity="1"
     d="M 60.519531 84.675781 L 58.820312 91.5625 C 58.820312 91.5625 58.683594 92.046875 58.550781 92.074219 L 58.523438 92.101562 L 58.332031 92.101562 C 58.332031 92.101562 57.929688 92.101562 57.929688 91.832031 L 58.007812 90.507812 L 58.007812 90.453125 C 58.007812 90.453125 58.007812 87.105469 55.902344 85.835938 L 55.875 85.808594 C 55.875 85.808594 54.929688 85.242188 53.660156 85.242188 C 53.660156 85.242188 50.773438 85.242188 48.179688 87.429688 C 48.179688 87.429688 47.453125 88.023438 46.910156 88.726562 C 46.910156 88.726562 44.320312 91.910156 43.859375 96.554688 C 43.859375 96.554688 43.808594 97.125 43.808594 97.527344 C 43.808594 97.527344 43.808594 101.226562 46.613281 102.605469 C 46.613281 102.605469 47.804688 103.199219 49.234375 103.199219 C 49.234375 103.199219 51.527344 103.199219 53.039062 102.035156 C 53.039062 102.035156 54.121094 101.226562 54.445312 99.929688 C 54.445312 99.929688 55.011719 97.824219 55.011719 97.472656 C 55.011719 97.472656 55.011719 97.125 54.605469 97.015625 C 54.605469 97.015625 54.472656 96.988281 54.175781 96.960938 C 54.175781 96.960938 53.554688 96.90625 52.742188 96.90625 C 52.742188 96.90625 52.015625 96.90625 51.960938 96.746094 C 51.960938 96.746094 51.933594 96.71875 51.933594 96.609375 C 51.933594 96.609375 51.933594 96.070312 52.5 96.070312 L 56.253906 96.152344 L 56.28125 96.152344 L 59.089844 96.070312 L 59.117188 96.070312 C 59.117188 96.070312 59.46875 96.070312 59.46875 96.367188 C 59.46875 96.367188 59.46875 96.90625 59.035156 96.90625 C 59.035156 96.90625 57.792969 96.933594 57.550781 97.175781 C 57.550781 97.175781 57.386719 97.367188 57.171875 98.203125 C 57.171875 98.203125 57.171875 98.148438 56.902344 99.257812 C 56.902344 99.257812 56.847656 99.445312 56.820312 99.578125 L 56.308594 101.660156 C 56.308594 101.660156 55.929688 103.226562 55.847656 103.304688 C 55.847656 103.304688 55.847656 103.414062 55.660156 103.414062 C 55.660156 103.414062 55.363281 103.414062 54.742188 102.386719 C 54.742188 102.386719 54.554688 102.035156 54.445312 101.738281 C 54.445312 101.738281 53.527344 102.765625 52.367188 103.277344 L 52.097656 103.386719 C 52.097656 103.386719 50.53125 104.035156 48.722656 104.035156 C 48.722656 104.035156 45.074219 104.035156 42.996094 101.496094 C 42.996094 101.496094 41.351562 99.5 41.351562 96.636719 C 41.351562 96.636719 41.351562 92.613281 44.292969 89.105469 C 44.292969 89.105469 47.019531 85.835938 50.746094 84.785156 C 50.746094 84.785156 52.121094 84.40625 53.445312 84.40625 C 53.445312 84.40625 56.390625 84.40625 57.929688 86.808594 L 59.816406 84.730469 C 59.816406 84.730469 60.140625 84.40625 60.222656 84.40625 C 60.222656 84.40625 60.519531 84.40625 60.519531 84.675781 Z M 60.519531 84.675781 "
     id="path34" />
</svg>
