<?xml version="1.0" encoding="UTF-8" standalone="no"?>
<svg
   width="159.070007pt"
   height="174.5pt"
   viewBox="0 0 159.070007 174.5"
   version="1.1"
   id="svg48"
   xmlns="http://www.w3.org/2000/svg"
   xmlns:svg="http://www.w3.org/2000/svg">
  <defs
     id="defs2">
    <clipPath
       id="clip-0">
      <path
         clip-rule="nonzero"
         d="M 95.28125 167 L 104 167 L 104 174.5 L 95.28125 174.5 Z M 95.28125 167 "
         id="path1" />
    </clipPath>
    <clipPath
       id="clip-1">
      <path
         clip-rule="nonzero"
         d="M 151 115 L 159.070312 115 L 159.070312 124 L 151 124 Z M 151 115 "
         id="path2" />
    </clipPath>
  </defs>
  <path
     fill="none"
     stroke-width="1.1"
     stroke-linecap="butt"
     stroke-linejoin="round"
     stroke="rgb(0%, 0%, 0%)"
     stroke-opacity="1"
     stroke-miterlimit="10"
     d="M 10.929688 -145.832031 L 148.234375 -119.378906 L 59.511719 -9.808594 Z M 10.929688 -145.832031 "
     transform="matrix(1, 0, 0, -1, 0, 0)"
     id="path3" />
  <path
     fill="none"
     stroke-width="3.4"
     stroke-linecap="round"
     stroke-linejoin="round"
     stroke="rgb(100%, 100%, 100%)"
     stroke-opacity="1"
     stroke-miterlimit="10"
     d="M 99.65625 -73.984375 L 99.65625 -164.691406 "
     transform="matrix(1, 0, 0, -1, 0, 0)"
     id="path4" />
  <path
     fill="none"
     stroke-width="3.4"
     stroke-linecap="round"
     stroke-linejoin="round"
     stroke="rgb(100%, 100%, 100%)"
     stroke-opacity="1"
     stroke-miterlimit="10"
     d="M 99.65625 -73.984375 L 10.929688 -55.125 "
     transform="matrix(1, 0, 0, -1, 0, 0)"
     id="path5" />
  <path
     fill="none"
     stroke-width="3.4"
     stroke-linecap="round"
     stroke-linejoin="round"
     stroke="rgb(100%, 100%, 100%)"
     stroke-opacity="1"
     stroke-miterlimit="10"
     d="M 99.65625 -73.984375 L 148.234375 -28.667969 "
     transform="matrix(1, 0, 0, -1, 0, 0)"
     id="path6" />
  <path
     fill="none"
     stroke-width="0.5"
     stroke-linecap="round"
     stroke-linejoin="round"
     stroke="rgb(0%, 0%, 0%)"
     stroke-opacity="1"
     stroke-miterlimit="10"
     d="M 99.65625 -73.984375 L 99.65625 -164.691406 "
     transform="matrix(1, 0, 0, -1, 0, 0)"
     id="path7" />
  <path
     fill="none"
     stroke-width="0.5"
     stroke-linecap="round"
     stroke-linejoin="round"
     stroke="rgb(0%, 0%, 0%)"
     stroke-opacity="1"
     stroke-miterlimit="10"
     d="M 99.65625 -73.984375 L 10.929688 -55.125 "
     transform="matrix(1, 0, 0, -1, 0, 0)"
     id="path8" />
  <path
     fill="none"
     stroke-width="0.5"
     stroke-linecap="round"
     stroke-linejoin="round"
     stroke="rgb(0%, 0%, 0%)"
     stroke-opacity="1"
     stroke-miterlimit="10"
     d="M 99.65625 -73.984375 L 148.234375 -28.667969 "
     transform="matrix(1, 0, 0, -1, 0, 0)"
     id="path9" />
  <path
     fill="none"
     stroke-width="0.5"
     stroke-linecap="round"
     stroke-linejoin="round"
     stroke="rgb(0%, 0%, 0%)"
     stroke-opacity="1"
     stroke-miterlimit="10"
     d="M 59.511719 -100.515625 L 55.285156 -104.457031 "
     transform="matrix(1, 0, 0, -1, 0, 0)"
     id="path10" />
  <path
     fill="none"
     stroke-width="0.5"
     stroke-linecap="round"
     stroke-linejoin="round"
     stroke="rgb(0%, 0%, 0%)"
     stroke-opacity="1"
     stroke-miterlimit="10"
     d="M 53.171875 -106.425781 L 48.949219 -110.367188 "
     transform="matrix(1, 0, 0, -1, 0, 0)"
     id="path11" />
  <path
     fill="none"
     stroke-width="0.5"
     stroke-linecap="round"
     stroke-linejoin="round"
     stroke="rgb(0%, 0%, 0%)"
     stroke-opacity="1"
     stroke-miterlimit="10"
     d="M 46.835938 -112.339844 L 42.613281 -116.277344 "
     transform="matrix(1, 0, 0, -1, 0, 0)"
     id="path12" />
  <path
     fill="none"
     stroke-width="0.5"
     stroke-linecap="round"
     stroke-linejoin="round"
     stroke="rgb(0%, 0%, 0%)"
     stroke-opacity="1"
     stroke-miterlimit="10"
     d="M 40.5 -118.25 L 36.277344 -122.191406 "
     transform="matrix(1, 0, 0, -1, 0, 0)"
     id="path13" />
  <path
     fill="none"
     stroke-width="0.5"
     stroke-linecap="round"
     stroke-linejoin="round"
     stroke="rgb(0%, 0%, 0%)"
     stroke-opacity="1"
     stroke-miterlimit="10"
     d="M 34.164062 -124.160156 L 29.9375 -128.101562 "
     transform="matrix(1, 0, 0, -1, 0, 0)"
     id="path14" />
  <path
     fill="none"
     stroke-width="0.5"
     stroke-linecap="round"
     stroke-linejoin="round"
     stroke="rgb(0%, 0%, 0%)"
     stroke-opacity="1"
     stroke-miterlimit="10"
     d="M 27.828125 -130.070312 L 23.601562 -134.011719 "
     transform="matrix(1, 0, 0, -1, 0, 0)"
     id="path15" />
  <path
     fill="none"
     stroke-width="0.5"
     stroke-linecap="round"
     stroke-linejoin="round"
     stroke="rgb(0%, 0%, 0%)"
     stroke-opacity="1"
     stroke-miterlimit="10"
     d="M 21.488281 -135.980469 L 17.265625 -139.921875 "
     transform="matrix(1, 0, 0, -1, 0, 0)"
     id="path16" />
  <path
     fill="none"
     stroke-width="0.5"
     stroke-linecap="round"
     stroke-linejoin="round"
     stroke="rgb(0%, 0%, 0%)"
     stroke-opacity="1"
     stroke-miterlimit="10"
     d="M 15.152344 -141.890625 L 10.929688 -145.832031 "
     transform="matrix(1, 0, 0, -1, 0, 0)"
     id="path17" />
  <path
     fill="none"
     stroke-width="0.5"
     stroke-linecap="round"
     stroke-linejoin="round"
     stroke="rgb(0%, 0%, 0%)"
     stroke-opacity="1"
     stroke-miterlimit="10"
     d="M 59.511719 -100.515625 L 65.054688 -101.695312 "
     transform="matrix(1, 0, 0, -1, 0, 0)"
     id="path18" />
  <path
     fill="none"
     stroke-width="0.5"
     stroke-linecap="round"
     stroke-linejoin="round"
     stroke="rgb(0%, 0%, 0%)"
     stroke-opacity="1"
     stroke-miterlimit="10"
     d="M 67.828125 -102.285156 L 73.375 -103.464844 "
     transform="matrix(1, 0, 0, -1, 0, 0)"
     id="path19" />
  <path
     fill="none"
     stroke-width="0.5"
     stroke-linecap="round"
     stroke-linejoin="round"
     stroke="rgb(0%, 0%, 0%)"
     stroke-opacity="1"
     stroke-miterlimit="10"
     d="M 76.144531 -104.054688 L 81.691406 -105.230469 "
     transform="matrix(1, 0, 0, -1, 0, 0)"
     id="path20" />
  <path
     fill="none"
     stroke-width="0.5"
     stroke-linecap="round"
     stroke-linejoin="round"
     stroke="rgb(0%, 0%, 0%)"
     stroke-opacity="1"
     stroke-miterlimit="10"
     d="M 84.464844 -105.820312 L 90.011719 -107 "
     transform="matrix(1, 0, 0, -1, 0, 0)"
     id="path21" />
  <path
     fill="none"
     stroke-width="0.5"
     stroke-linecap="round"
     stroke-linejoin="round"
     stroke="rgb(0%, 0%, 0%)"
     stroke-opacity="1"
     stroke-miterlimit="10"
     d="M 92.78125 -107.589844 L 98.328125 -108.769531 "
     transform="matrix(1, 0, 0, -1, 0, 0)"
     id="path22" />
  <path
     fill="none"
     stroke-width="0.5"
     stroke-linecap="round"
     stroke-linejoin="round"
     stroke="rgb(0%, 0%, 0%)"
     stroke-opacity="1"
     stroke-miterlimit="10"
     d="M 101.101562 -109.359375 L 106.644531 -110.535156 "
     transform="matrix(1, 0, 0, -1, 0, 0)"
     id="path23" />
  <path
     fill="none"
     stroke-width="0.5"
     stroke-linecap="round"
     stroke-linejoin="round"
     stroke="rgb(0%, 0%, 0%)"
     stroke-opacity="1"
     stroke-miterlimit="10"
     d="M 109.417969 -111.125 L 114.964844 -112.304688 "
     transform="matrix(1, 0, 0, -1, 0, 0)"
     id="path24" />
  <path
     fill="none"
     stroke-width="0.5"
     stroke-linecap="round"
     stroke-linejoin="round"
     stroke="rgb(0%, 0%, 0%)"
     stroke-opacity="1"
     stroke-miterlimit="10"
     d="M 117.738281 -112.894531 L 123.28125 -114.074219 "
     transform="matrix(1, 0, 0, -1, 0, 0)"
     id="path25" />
  <path
     fill="none"
     stroke-width="0.5"
     stroke-linecap="round"
     stroke-linejoin="round"
     stroke="rgb(0%, 0%, 0%)"
     stroke-opacity="1"
     stroke-miterlimit="10"
     d="M 126.054688 -114.660156 L 131.601562 -115.839844 "
     transform="matrix(1, 0, 0, -1, 0, 0)"
     id="path26" />
  <path
     fill="none"
     stroke-width="0.5"
     stroke-linecap="round"
     stroke-linejoin="round"
     stroke="rgb(0%, 0%, 0%)"
     stroke-opacity="1"
     stroke-miterlimit="10"
     d="M 134.371094 -116.429688 L 139.917969 -117.609375 "
     transform="matrix(1, 0, 0, -1, 0, 0)"
     id="path27" />
  <path
     fill="none"
     stroke-width="0.5"
     stroke-linecap="round"
     stroke-linejoin="round"
     stroke="rgb(0%, 0%, 0%)"
     stroke-opacity="1"
     stroke-miterlimit="10"
     d="M 142.691406 -118.199219 L 148.234375 -119.378906 "
     transform="matrix(1, 0, 0, -1, 0, 0)"
     id="path28" />
  <path
     fill="none"
     stroke-width="0.5"
     stroke-linecap="round"
     stroke-linejoin="round"
     stroke="rgb(0%, 0%, 0%)"
     stroke-opacity="1"
     stroke-miterlimit="10"
     d="M 59.511719 -100.515625 L 59.511719 -94.847656 "
     transform="matrix(1, 0, 0, -1, 0, 0)"
     id="path29" />
  <path
     fill="none"
     stroke-width="0.5"
     stroke-linecap="round"
     stroke-linejoin="round"
     stroke="rgb(0%, 0%, 0%)"
     stroke-opacity="1"
     stroke-miterlimit="10"
     d="M 59.511719 -92.011719 L 59.511719 -86.34375 "
     transform="matrix(1, 0, 0, -1, 0, 0)"
     id="path30" />
  <path
     fill="none"
     stroke-width="0.5"
     stroke-linecap="round"
     stroke-linejoin="round"
     stroke="rgb(0%, 0%, 0%)"
     stroke-opacity="1"
     stroke-miterlimit="10"
     d="M 59.511719 -83.507812 L 59.511719 -77.839844 "
     transform="matrix(1, 0, 0, -1, 0, 0)"
     id="path31" />
  <path
     fill="none"
     stroke-width="0.5"
     stroke-linecap="round"
     stroke-linejoin="round"
     stroke="rgb(0%, 0%, 0%)"
     stroke-opacity="1"
     stroke-miterlimit="10"
     d="M 59.511719 -75.003906 L 59.511719 -69.335938 "
     transform="matrix(1, 0, 0, -1, 0, 0)"
     id="path32" />
  <path
     fill="none"
     stroke-width="0.5"
     stroke-linecap="round"
     stroke-linejoin="round"
     stroke="rgb(0%, 0%, 0%)"
     stroke-opacity="1"
     stroke-miterlimit="10"
     d="M 59.511719 -66.503906 L 59.511719 -60.832031 "
     transform="matrix(1, 0, 0, -1, 0, 0)"
     id="path33" />
  <path
     fill="none"
     stroke-width="0.5"
     stroke-linecap="round"
     stroke-linejoin="round"
     stroke="rgb(0%, 0%, 0%)"
     stroke-opacity="1"
     stroke-miterlimit="10"
     d="M 59.511719 -57.996094 L 59.511719 -52.328125 "
     transform="matrix(1, 0, 0, -1, 0, 0)"
     id="path34" />
  <path
     fill="none"
     stroke-width="0.5"
     stroke-linecap="round"
     stroke-linejoin="round"
     stroke="rgb(0%, 0%, 0%)"
     stroke-opacity="1"
     stroke-miterlimit="10"
     d="M 59.511719 -49.492188 L 59.511719 -43.824219 "
     transform="matrix(1, 0, 0, -1, 0, 0)"
     id="path35" />
  <path
     fill="none"
     stroke-width="0.5"
     stroke-linecap="round"
     stroke-linejoin="round"
     stroke="rgb(0%, 0%, 0%)"
     stroke-opacity="1"
     stroke-miterlimit="10"
     d="M 59.511719 -40.988281 L 59.511719 -35.320312 "
     transform="matrix(1, 0, 0, -1, 0, 0)"
     id="path36" />
  <path
     fill="none"
     stroke-width="0.5"
     stroke-linecap="round"
     stroke-linejoin="round"
     stroke="rgb(0%, 0%, 0%)"
     stroke-opacity="1"
     stroke-miterlimit="10"
     d="M 59.511719 -32.484375 L 59.511719 -26.816406 "
     transform="matrix(1, 0, 0, -1, 0, 0)"
     id="path37" />
  <path
     fill="none"
     stroke-width="0.5"
     stroke-linecap="round"
     stroke-linejoin="round"
     stroke="rgb(0%, 0%, 0%)"
     stroke-opacity="1"
     stroke-miterlimit="10"
     d="M 59.511719 -23.980469 L 59.511719 -18.3125 "
     transform="matrix(1, 0, 0, -1, 0, 0)"
     id="path38" />
  <path
     fill="none"
     stroke-width="0.5"
     stroke-linecap="round"
     stroke-linejoin="round"
     stroke="rgb(0%, 0%, 0%)"
     stroke-opacity="1"
     stroke-miterlimit="10"
     d="M 59.511719 -15.476562 L 59.511719 -9.808594 "
     transform="matrix(1, 0, 0, -1, 0, 0)"
     id="path39" />
  <path
     fill="none"
     stroke-width="0.5"
     stroke-linecap="round"
     stroke-linejoin="round"
     stroke="rgb(0%, 0%, 0%)"
     stroke-opacity="1"
     stroke-miterlimit="10"
     d="M 10.929688 -145.832031 L 99.65625 -164.691406 L 148.234375 -119.378906 L 148.234375 -28.667969 L 59.511719 -9.808594 L 10.929688 -55.125 Z M 10.929688 -145.832031 "
     transform="matrix(1, 0, 0, -1, 0, 0)"
     id="path40" />
  <path
     fill-rule="nonzero"
     fill="rgb(0%, 0%, 0%)"
     fill-opacity="1"
     d="M 2.742188 154.085938 C 2.273438 154.871094 1.804688 155.042969 1.277344 155.078125 C 1.128906 155.097656 1.015625 155.097656 1.015625 155.324219 C 1.015625 155.398438 1.089844 155.453125 1.183594 155.453125 C 1.503906 155.453125 1.878906 155.417969 2.195312 155.417969 C 2.609375 155.417969 3.023438 155.453125 3.398438 155.453125 C 3.472656 155.453125 3.621094 155.453125 3.621094 155.230469 C 3.621094 155.097656 3.527344 155.078125 3.433594 155.078125 C 3.171875 155.058594 2.871094 154.964844 2.871094 154.667969 C 2.871094 154.515625 2.945312 154.386719 3.039062 154.214844 L 3.960938 152.699219 L 6.960938 152.699219 C 6.976562 152.941406 7.148438 154.574219 7.148438 154.683594 C 7.148438 155.042969 6.527344 155.078125 6.285156 155.078125 C 6.117188 155.078125 6.003906 155.078125 6.003906 155.324219 C 6.003906 155.453125 6.132812 155.453125 6.171875 155.453125 C 6.660156 155.453125 7.164062 155.417969 7.652344 155.417969 C 7.953125 155.417969 8.722656 155.453125 9.023438 155.453125 C 9.078125 155.453125 9.226562 155.453125 9.226562 155.210938 C 9.226562 155.078125 9.117188 155.078125 8.945312 155.078125 C 8.214844 155.078125 8.214844 155.003906 8.179688 154.648438 L 7.445312 147.183594 C 7.429688 146.941406 7.429688 146.886719 7.222656 146.886719 C 7.035156 146.886719 6.976562 146.980469 6.902344 147.089844 Z M 4.183594 152.324219 L 6.527344 148.367188 L 6.921875 152.324219 Z M 4.183594 152.324219 "
     id="path41" />
  <g
     clip-path="url(#clip-0)"
     id="g42">
    <path
       fill-rule="nonzero"
       fill="rgb(0%, 0%, 0%)"
       fill-opacity="1"
       d="M 96.742188 174.242188 C 96.632812 174.710938 96.59375 174.804688 95.65625 174.804688 C 95.449219 174.804688 95.335938 174.804688 95.335938 175.050781 C 95.335938 175.179688 95.449219 175.179688 95.65625 175.179688 L 99.929688 175.179688 C 101.824219 175.179688 103.230469 173.773438 103.230469 172.59375 C 103.230469 171.730469 102.539062 171.039062 101.375 170.90625 C 102.613281 170.679688 103.867188 169.800781 103.867188 168.65625 C 103.867188 167.773438 103.082031 167.007812 101.65625 167.007812 L 97.625 167.007812 C 97.398438 167.007812 97.289062 167.007812 97.289062 167.25 C 97.289062 167.382812 97.398438 167.382812 97.625 167.382812 C 97.644531 167.382812 97.867188 167.382812 98.074219 167.398438 C 98.28125 167.4375 98.394531 167.4375 98.394531 167.605469 C 98.394531 167.644531 98.375 167.679688 98.355469 167.832031 Z M 98.542969 170.792969 L 99.292969 167.832031 C 99.40625 167.417969 99.425781 167.382812 99.929688 167.382812 L 101.488281 167.382812 C 102.539062 167.382812 102.78125 168.09375 102.78125 168.617188 C 102.78125 169.667969 101.75 170.792969 100.304688 170.792969 Z M 98.019531 174.804688 C 97.851562 174.804688 97.832031 174.804688 97.757812 174.804688 C 97.625 174.789062 97.585938 174.769531 97.585938 174.675781 C 97.585938 174.636719 97.585938 174.617188 97.664062 174.414062 L 98.488281 171.074219 L 100.738281 171.074219 C 101.882812 171.074219 102.125 171.957031 102.125 172.460938 C 102.125 173.644531 101.054688 174.804688 99.632812 174.804688 Z M 98.019531 174.804688 "
       id="path42" />
  </g>
  <g
     clip-path="url(#clip-1)"
     id="g43">
    <path
       fill-rule="nonzero"
       fill="rgb(0%, 0%, 0%)"
       fill-opacity="1"
       d="M 159.523438 115.15625 C 159.523438 115.117188 159.503906 115.023438 159.390625 115.023438 C 159.355469 115.023438 159.335938 115.042969 159.203125 115.175781 L 158.378906 116.09375 C 158.265625 115.925781 157.722656 115.023438 156.390625 115.023438 C 153.710938 115.023438 151.027344 117.667969 151.027344 120.445312 C 151.027344 122.414062 152.433594 123.726562 154.273438 123.726562 C 155.304688 123.726562 156.222656 123.257812 156.859375 122.695312 C 157.964844 121.71875 158.171875 120.632812 158.171875 120.59375 C 158.171875 120.460938 158.042969 120.460938 158.023438 120.460938 C 157.949219 120.460938 157.890625 120.5 157.871094 120.59375 C 157.761719 120.929688 157.480469 121.792969 156.652344 122.488281 C 155.828125 123.144531 155.078125 123.351562 154.460938 123.351562 C 153.390625 123.351562 152.117188 122.730469 152.117188 120.875 C 152.117188 120.179688 152.359375 118.25 153.558594 116.84375 C 154.292969 116 155.417969 115.398438 156.484375 115.398438 C 157.703125 115.398438 158.417969 116.320312 158.417969 117.707031 C 158.417969 118.195312 158.378906 118.195312 158.378906 118.324219 C 158.378906 118.4375 158.511719 118.4375 158.546875 118.4375 C 158.699219 118.4375 158.699219 118.417969 158.773438 118.195312 Z M 159.523438 115.15625 "
       id="path43" />
  </g>
  <path
     fill-rule="nonzero"
     fill="rgb(0%, 0%, 0%)"
     fill-opacity="1"
     d="M 49.035156 100.261719 C 48.921875 100.730469 48.90625 100.824219 47.949219 100.824219 C 47.761719 100.824219 47.628906 100.824219 47.628906 101.046875 C 47.628906 101.199219 47.722656 101.199219 47.949219 101.199219 L 51.921875 101.199219 C 54.398438 101.199219 56.761719 98.667969 56.761719 96.0625 C 56.761719 94.375 55.75 93.023438 53.949219 93.023438 L 49.9375 93.023438 C 49.710938 93.023438 49.578125 93.023438 49.578125 93.25 C 49.578125 93.398438 49.671875 93.398438 49.917969 93.398438 C 50.066406 93.398438 50.292969 93.417969 50.421875 93.417969 C 50.628906 93.453125 50.6875 93.472656 50.6875 93.625 C 50.6875 93.660156 50.6875 93.699219 50.648438 93.847656 Z M 51.625 93.847656 C 51.734375 93.4375 51.753906 93.398438 52.28125 93.398438 L 53.554688 93.398438 C 54.71875 93.398438 55.710938 94.035156 55.710938 95.609375 C 55.710938 96.191406 55.484375 98.160156 54.453125 99.472656 C 54.117188 99.921875 53.179688 100.824219 51.699219 100.824219 L 50.347656 100.824219 C 50.179688 100.824219 50.160156 100.824219 50.085938 100.824219 C 49.972656 100.804688 49.9375 100.785156 49.9375 100.691406 C 49.9375 100.65625 49.9375 100.636719 49.992188 100.429688 Z M 51.625 93.847656 "
     id="path44" />
  <path
     fill-rule="nonzero"
     fill="rgb(0%, 0%, 0%)"
     fill-opacity="1"
     d="M 7.675781 56.410156 C 7.695312 56.355469 7.730469 56.28125 7.730469 56.242188 C 7.730469 56.242188 7.730469 56.113281 7.582031 56.113281 C 7.46875 56.113281 7.449219 56.1875 7.429688 56.261719 C 6.644531 58.023438 6.210938 58.832031 4.167969 58.832031 L 2.425781 58.832031 C 2.257812 58.832031 2.21875 58.832031 2.164062 58.832031 C 2.03125 58.8125 1.992188 58.792969 1.992188 58.699219 C 1.992188 58.660156 1.992188 58.644531 2.050781 58.4375 L 2.875 55.15625 L 4.054688 55.15625 C 5.070312 55.15625 5.070312 55.417969 5.070312 55.71875 C 5.070312 55.792969 5.070312 55.941406 4.992188 56.300781 C 4.976562 56.355469 4.957031 56.394531 4.957031 56.429688 C 4.957031 56.488281 4.992188 56.5625 5.105469 56.5625 C 5.199219 56.5625 5.238281 56.503906 5.292969 56.316406 L 5.96875 53.523438 C 5.96875 53.449219 5.914062 53.394531 5.820312 53.394531 C 5.726562 53.394531 5.6875 53.46875 5.667969 53.597656 C 5.40625 54.519531 5.199219 54.800781 4.09375 54.800781 L 2.96875 54.800781 L 3.679688 51.910156 C 3.792969 51.480469 3.8125 51.441406 4.335938 51.441406 L 6.023438 51.441406 C 7.46875 51.441406 7.84375 51.78125 7.84375 52.773438 C 7.84375 53.054688 7.84375 53.074219 7.789062 53.410156 C 7.789062 53.46875 7.769531 53.5625 7.769531 53.617188 C 7.769531 53.675781 7.804688 53.769531 7.917969 53.769531 C 8.050781 53.769531 8.070312 53.691406 8.085938 53.46875 L 8.332031 51.386719 C 8.367188 51.066406 8.3125 51.066406 8.011719 51.066406 L 1.957031 51.066406 C 1.730469 51.066406 1.601562 51.066406 1.601562 51.3125 C 1.601562 51.441406 1.710938 51.441406 1.9375 51.441406 C 2.386719 51.441406 2.726562 51.441406 2.726562 51.648438 C 2.726562 51.707031 2.726562 51.722656 2.648438 51.949219 L 1.074219 58.269531 C 0.960938 58.738281 0.945312 58.832031 -0.0117188 58.832031 C -0.21875 58.832031 -0.351562 58.832031 -0.351562 59.054688 C -0.351562 59.207031 -0.238281 59.207031 -0.0117188 59.207031 L 6.195312 59.207031 C 6.476562 59.207031 6.492188 59.1875 6.570312 59 Z M 7.675781 56.410156 "
     id="path45" />
  <path
     fill-rule="nonzero"
     fill="rgb(0%, 0%, 0%)"
     fill-opacity="1"
     d="M 92.597656 79.6875 L 93.761719 79.6875 C 94.660156 79.6875 94.753906 79.875 94.753906 80.214844 C 94.753906 80.308594 94.753906 80.4375 94.679688 80.8125 C 94.644531 80.871094 94.644531 80.90625 94.644531 80.945312 C 94.644531 81.039062 94.71875 81.074219 94.773438 81.074219 C 94.90625 81.074219 94.90625 81.039062 94.960938 80.832031 L 95.617188 78.226562 C 95.65625 78.09375 95.65625 78.074219 95.65625 78.039062 C 95.65625 78.019531 95.636719 77.90625 95.503906 77.90625 C 95.394531 77.90625 95.375 77.964844 95.335938 78.167969 C 95.074219 79.089844 94.8125 79.3125 93.78125 79.3125 L 92.691406 79.3125 L 93.460938 76.277344 C 93.574219 75.84375 93.59375 75.808594 94.117188 75.808594 L 95.691406 75.808594 C 97.15625 75.808594 97.4375 76.199219 97.4375 77.121094 C 97.4375 77.402344 97.4375 77.4375 97.398438 77.777344 C 97.378906 77.925781 97.378906 77.945312 97.378906 77.980469 C 97.378906 78.039062 97.417969 78.132812 97.53125 78.132812 C 97.660156 78.132812 97.660156 78.058594 97.679688 77.832031 L 97.925781 75.75 C 97.960938 75.433594 97.90625 75.433594 97.605469 75.433594 L 91.738281 75.433594 C 91.511719 75.433594 91.378906 75.433594 91.378906 75.675781 C 91.378906 75.808594 91.492188 75.808594 91.71875 75.808594 C 92.167969 75.808594 92.503906 75.808594 92.503906 76.011719 C 92.503906 76.070312 92.503906 76.089844 92.429688 76.3125 L 90.855469 82.632812 C 90.742188 83.101562 90.722656 83.195312 89.769531 83.195312 C 89.5625 83.195312 89.429688 83.195312 89.429688 83.417969 C 89.429688 83.570312 89.582031 83.570312 89.617188 83.570312 C 89.957031 83.570312 90.855469 83.53125 91.191406 83.53125 C 91.585938 83.53125 92.582031 83.570312 92.972656 83.570312 C 93.085938 83.570312 93.21875 83.570312 93.21875 83.34375 C 93.21875 83.25 93.160156 83.214844 93.160156 83.214844 C 93.125 83.195312 93.085938 83.195312 92.824219 83.195312 C 92.5625 83.195312 92.503906 83.195312 92.207031 83.175781 C 91.847656 83.136719 91.8125 83.082031 91.8125 82.933594 C 91.8125 82.914062 91.8125 82.839844 91.867188 82.667969 Z M 92.597656 79.6875 "
     id="path46" />
  <path
     fill-rule="nonzero"
     fill="rgb(0%, 0%, 0%)"
     fill-opacity="1"
     d="M 158.621094 18.945312 C 158.621094 18.90625 158.601562 18.8125 158.492188 18.8125 C 158.453125 18.8125 158.433594 18.832031 158.304688 18.960938 L 157.476562 19.882812 C 157.367188 19.710938 156.820312 18.8125 155.492188 18.8125 C 152.808594 18.8125 150.128906 21.457031 150.128906 24.230469 C 150.128906 26.144531 151.460938 27.511719 153.390625 27.511719 C 153.914062 27.511719 154.460938 27.398438 154.890625 27.230469 C 155.492188 26.988281 155.714844 26.742188 155.921875 26.5 C 156.035156 26.800781 156.351562 27.230469 156.464844 27.230469 C 156.523438 27.230469 156.558594 27.195312 156.558594 27.195312 C 156.578125 27.175781 156.691406 26.707031 156.746094 26.460938 L 156.972656 25.542969 C 157.027344 25.335938 157.085938 25.132812 157.140625 24.925781 C 157.273438 24.398438 157.273438 24.363281 157.964844 24.363281 C 158.023438 24.363281 158.152344 24.34375 158.152344 24.117188 C 158.152344 24.023438 158.097656 23.988281 158.003906 23.988281 C 157.722656 23.988281 157.007812 24.023438 156.746094 24.023438 C 156.371094 24.023438 155.433594 23.988281 155.058594 23.988281 C 154.964844 23.988281 154.816406 23.988281 154.816406 24.230469 C 154.816406 24.363281 154.910156 24.363281 155.171875 24.363281 C 155.191406 24.363281 155.527344 24.363281 155.808594 24.382812 C 156.128906 24.417969 156.183594 24.457031 156.183594 24.605469 C 156.183594 24.71875 156.054688 25.242188 155.921875 25.695312 C 155.585938 27.007812 154.046875 27.136719 153.617188 27.136719 C 152.472656 27.136719 151.214844 26.460938 151.214844 24.625 C 151.214844 24.25 151.328125 22.28125 152.585938 20.726562 C 153.242188 19.917969 154.402344 19.1875 155.585938 19.1875 C 156.804688 19.1875 157.515625 20.105469 157.515625 21.492188 C 157.515625 21.980469 157.476562 21.980469 157.476562 22.113281 C 157.476562 22.226562 157.609375 22.226562 157.648438 22.226562 C 157.796875 22.226562 157.796875 22.207031 157.871094 21.980469 Z M 158.621094 18.945312 "
     id="path47" />
  <path
     fill-rule="nonzero"
     fill="rgb(0%, 0%, 0%)"
     fill-opacity="1"
     d="M 63.179688 0.234375 C 63.289062 -0.199219 63.308594 -0.308594 64.171875 -0.308594 C 64.492188 -0.308594 64.585938 -0.308594 64.585938 -0.554688 C 64.585938 -0.683594 64.453125 -0.683594 64.414062 -0.683594 C 64.078125 -0.683594 63.214844 -0.648438 62.878906 -0.648438 C 62.539062 -0.648438 61.695312 -0.683594 61.339844 -0.683594 C 61.246094 -0.683594 61.117188 -0.683594 61.117188 -0.441406 C 61.117188 -0.308594 61.226562 -0.308594 61.453125 -0.308594 C 61.472656 -0.308594 61.695312 -0.308594 61.902344 -0.292969 C 62.128906 -0.253906 62.222656 -0.253906 62.222656 -0.0859375 C 62.222656 -0.046875 62.222656 -0.0273438 62.183594 0.140625 L 61.472656 3.046875 L 57.816406 3.046875 L 58.527344 0.234375 C 58.621094 -0.199219 58.660156 -0.308594 59.523438 -0.308594 C 59.839844 -0.308594 59.933594 -0.308594 59.933594 -0.554688 C 59.933594 -0.683594 59.804688 -0.683594 59.765625 -0.683594 C 59.429688 -0.683594 58.566406 -0.648438 58.226562 -0.648438 C 57.890625 -0.648438 57.046875 -0.683594 56.691406 -0.683594 C 56.597656 -0.683594 56.464844 -0.683594 56.464844 -0.441406 C 56.464844 -0.308594 56.578125 -0.308594 56.804688 -0.308594 C 56.820312 -0.308594 57.046875 -0.308594 57.253906 -0.292969 C 57.460938 -0.253906 57.570312 -0.253906 57.570312 -0.0859375 C 57.570312 -0.046875 57.570312 -0.0117188 57.535156 0.140625 L 55.921875 6.550781 C 55.808594 7.019531 55.789062 7.113281 54.835938 7.113281 C 54.628906 7.113281 54.515625 7.113281 54.515625 7.359375 C 54.515625 7.488281 54.664062 7.488281 54.683594 7.488281 C 55.023438 7.488281 55.867188 7.453125 56.203125 7.453125 C 56.445312 7.453125 56.710938 7.472656 56.972656 7.472656 C 57.234375 7.472656 57.496094 7.488281 57.742188 7.488281 C 57.835938 7.488281 57.984375 7.488281 57.984375 7.246094 C 57.984375 7.113281 57.871094 7.113281 57.648438 7.113281 C 57.195312 7.113281 56.878906 7.113281 56.878906 6.910156 C 56.878906 6.832031 56.898438 6.777344 56.898438 6.703125 L 57.722656 3.421875 L 61.359375 3.421875 C 60.871094 5.410156 60.589844 6.550781 60.535156 6.722656 C 60.421875 7.113281 60.195312 7.113281 59.445312 7.113281 C 59.277344 7.113281 59.164062 7.113281 59.164062 7.359375 C 59.164062 7.488281 59.316406 7.488281 59.335938 7.488281 C 59.671875 7.488281 60.515625 7.453125 60.851562 7.453125 C 61.097656 7.453125 61.359375 7.472656 61.621094 7.472656 C 61.882812 7.472656 62.148438 7.488281 62.390625 7.488281 C 62.484375 7.488281 62.632812 7.488281 62.632812 7.246094 C 62.632812 7.113281 62.523438 7.113281 62.296875 7.113281 C 61.867188 7.113281 61.527344 7.113281 61.527344 6.910156 C 61.527344 6.832031 61.546875 6.777344 61.566406 6.703125 Z M 63.179688 0.234375 "
     id="path48" />
</svg>
