<?xml version="1.0" encoding="UTF-8" standalone="no"?>
<svg
   width="102.835403pt"
   height="113.697006pt"
   viewBox="0 0 102.835403 113.697006"
   version="1.1"
   id="svg49"
   xmlns="http://www.w3.org/2000/svg"
   xmlns:svg="http://www.w3.org/2000/svg">
  <defs
     id="defs3">
    <clipPath
       id="clip-0">
      <path
         clip-rule="nonzero"
         d="M 60.378906 106.195312 L 68 106.195312 L 68 113.695312 L 60.378906 113.695312 Z M 60.378906 106.195312 "
         id="path1" />
    </clipPath>
    <clipPath
       id="clip-1">
      <path
         clip-rule="nonzero"
         d="M 95 74 L 102.835938 74 L 102.835938 83 L 95 83 Z M 95 74 "
         id="path2" />
    </clipPath>
    <clipPath
       id="clip-2">
      <path
         clip-rule="nonzero"
         d="M 95 13 L 102.835938 13 L 102.835938 21 L 95 21 Z M 95 13 "
         id="path3" />
    </clipPath>
  </defs>
  <path
     fill="none"
     stroke-width="0.6875"
     stroke-linecap="butt"
     stroke-linejoin="round"
     stroke="rgb(0%, 0%, 0%)"
     stroke-opacity="1"
     stroke-miterlimit="10"
     d="M 8.820312 -93.464844 L 94.636719 -76.929688 L 39.183594 -8.449219 Z M 8.820312 -93.464844 "
     transform="matrix(1, 0, 0, -1, 0, 0)"
     id="path4" />
  <path
     fill="none"
     stroke-width="2.125"
     stroke-linecap="round"
     stroke-linejoin="round"
     stroke="rgb(100%, 100%, 100%)"
     stroke-opacity="1"
     stroke-miterlimit="10"
     d="M 64.273438 -48.558594 L 64.273438 -105.25 "
     transform="matrix(1, 0, 0, -1, 0, 0)"
     id="path5" />
  <path
     fill="none"
     stroke-width="2.125"
     stroke-linecap="round"
     stroke-linejoin="round"
     stroke="rgb(100%, 100%, 100%)"
     stroke-opacity="1"
     stroke-miterlimit="10"
     d="M 64.273438 -48.558594 L 8.820312 -36.773438 "
     transform="matrix(1, 0, 0, -1, 0, 0)"
     id="path6" />
  <path
     fill="none"
     stroke-width="2.125"
     stroke-linecap="round"
     stroke-linejoin="round"
     stroke="rgb(100%, 100%, 100%)"
     stroke-opacity="1"
     stroke-miterlimit="10"
     d="M 64.273438 -48.558594 L 94.636719 -20.234375 "
     transform="matrix(1, 0, 0, -1, 0, 0)"
     id="path7" />
  <path
     fill="none"
     stroke-width="0.3125"
     stroke-linecap="round"
     stroke-linejoin="round"
     stroke="rgb(0%, 0%, 0%)"
     stroke-opacity="1"
     stroke-miterlimit="10"
     d="M 64.273438 -48.558594 L 64.273438 -105.25 "
     transform="matrix(1, 0, 0, -1, 0, 0)"
     id="path8" />
  <path
     fill="none"
     stroke-width="0.3125"
     stroke-linecap="round"
     stroke-linejoin="round"
     stroke="rgb(0%, 0%, 0%)"
     stroke-opacity="1"
     stroke-miterlimit="10"
     d="M 64.273438 -48.558594 L 8.820312 -36.773438 "
     transform="matrix(1, 0, 0, -1, 0, 0)"
     id="path9" />
  <path
     fill="none"
     stroke-width="0.3125"
     stroke-linecap="round"
     stroke-linejoin="round"
     stroke="rgb(0%, 0%, 0%)"
     stroke-opacity="1"
     stroke-miterlimit="10"
     d="M 64.273438 -48.558594 L 94.636719 -20.234375 "
     transform="matrix(1, 0, 0, -1, 0, 0)"
     id="path10" />
  <path
     fill="none"
     stroke-width="0.3125"
     stroke-linecap="round"
     stroke-linejoin="round"
     stroke="rgb(0%, 0%, 0%)"
     stroke-opacity="1"
     stroke-miterlimit="10"
     d="M 39.183594 -65.140625 L 36.542969 -67.605469 "
     transform="matrix(1, 0, 0, -1, 0, 0)"
     id="path11" />
  <path
     fill="none"
     stroke-width="0.3125"
     stroke-linecap="round"
     stroke-linejoin="round"
     stroke="rgb(0%, 0%, 0%)"
     stroke-opacity="1"
     stroke-miterlimit="10"
     d="M 35.222656 -68.835938 L 32.582031 -71.296875 "
     transform="matrix(1, 0, 0, -1, 0, 0)"
     id="path12" />
  <path
     fill="none"
     stroke-width="0.3125"
     stroke-linecap="round"
     stroke-linejoin="round"
     stroke="rgb(0%, 0%, 0%)"
     stroke-opacity="1"
     stroke-miterlimit="10"
     d="M 31.261719 -72.53125 L 28.621094 -74.992188 "
     transform="matrix(1, 0, 0, -1, 0, 0)"
     id="path13" />
  <path
     fill="none"
     stroke-width="0.3125"
     stroke-linecap="round"
     stroke-linejoin="round"
     stroke="rgb(0%, 0%, 0%)"
     stroke-opacity="1"
     stroke-miterlimit="10"
     d="M 27.300781 -76.226562 L 24.664062 -78.6875 "
     transform="matrix(1, 0, 0, -1, 0, 0)"
     id="path14" />
  <path
     fill="none"
     stroke-width="0.3125"
     stroke-linecap="round"
     stroke-linejoin="round"
     stroke="rgb(0%, 0%, 0%)"
     stroke-opacity="1"
     stroke-miterlimit="10"
     d="M 23.34375 -79.917969 L 20.699219 -82.382812 "
     transform="matrix(1, 0, 0, -1, 0, 0)"
     id="path15" />
  <path
     fill="none"
     stroke-width="0.3125"
     stroke-linecap="round"
     stroke-linejoin="round"
     stroke="rgb(0%, 0%, 0%)"
     stroke-opacity="1"
     stroke-miterlimit="10"
     d="M 19.382812 -83.613281 L 16.742188 -86.074219 "
     transform="matrix(1, 0, 0, -1, 0, 0)"
     id="path16" />
  <path
     fill="none"
     stroke-width="0.3125"
     stroke-linecap="round"
     stroke-linejoin="round"
     stroke="rgb(0%, 0%, 0%)"
     stroke-opacity="1"
     stroke-miterlimit="10"
     d="M 15.417969 -87.304688 L 12.78125 -89.769531 "
     transform="matrix(1, 0, 0, -1, 0, 0)"
     id="path17" />
  <path
     fill="none"
     stroke-width="0.3125"
     stroke-linecap="round"
     stroke-linejoin="round"
     stroke="rgb(0%, 0%, 0%)"
     stroke-opacity="1"
     stroke-miterlimit="10"
     d="M 11.460938 -91 L 8.820312 -93.464844 "
     transform="matrix(1, 0, 0, -1, 0, 0)"
     id="path18" />
  <path
     fill="none"
     stroke-width="0.3125"
     stroke-linecap="round"
     stroke-linejoin="round"
     stroke="rgb(0%, 0%, 0%)"
     stroke-opacity="1"
     stroke-miterlimit="10"
     d="M 39.183594 -65.140625 L 42.648438 -65.878906 "
     transform="matrix(1, 0, 0, -1, 0, 0)"
     id="path19" />
  <path
     fill="none"
     stroke-width="0.3125"
     stroke-linecap="round"
     stroke-linejoin="round"
     stroke="rgb(0%, 0%, 0%)"
     stroke-opacity="1"
     stroke-miterlimit="10"
     d="M 44.382812 -66.246094 L 47.847656 -66.984375 "
     transform="matrix(1, 0, 0, -1, 0, 0)"
     id="path20" />
  <path
     fill="none"
     stroke-width="0.3125"
     stroke-linecap="round"
     stroke-linejoin="round"
     stroke="rgb(0%, 0%, 0%)"
     stroke-opacity="1"
     stroke-miterlimit="10"
     d="M 49.578125 -67.351562 L 53.046875 -68.085938 "
     transform="matrix(1, 0, 0, -1, 0, 0)"
     id="path21" />
  <path
     fill="none"
     stroke-width="0.3125"
     stroke-linecap="round"
     stroke-linejoin="round"
     stroke="rgb(0%, 0%, 0%)"
     stroke-opacity="1"
     stroke-miterlimit="10"
     d="M 54.78125 -68.457031 L 58.246094 -69.195312 "
     transform="matrix(1, 0, 0, -1, 0, 0)"
     id="path22" />
  <path
     fill="none"
     stroke-width="0.3125"
     stroke-linecap="round"
     stroke-linejoin="round"
     stroke="rgb(0%, 0%, 0%)"
     stroke-opacity="1"
     stroke-miterlimit="10"
     d="M 59.976562 -69.5625 L 63.445312 -70.300781 "
     transform="matrix(1, 0, 0, -1, 0, 0)"
     id="path23" />
  <path
     fill="none"
     stroke-width="0.3125"
     stroke-linecap="round"
     stroke-linejoin="round"
     stroke="rgb(0%, 0%, 0%)"
     stroke-opacity="1"
     stroke-miterlimit="10"
     d="M 65.179688 -70.667969 L 68.640625 -71.402344 "
     transform="matrix(1, 0, 0, -1, 0, 0)"
     id="path24" />
  <path
     fill="none"
     stroke-width="0.3125"
     stroke-linecap="round"
     stroke-linejoin="round"
     stroke="rgb(0%, 0%, 0%)"
     stroke-opacity="1"
     stroke-miterlimit="10"
     d="M 70.375 -71.773438 L 73.84375 -72.507812 "
     transform="matrix(1, 0, 0, -1, 0, 0)"
     id="path25" />
  <path
     fill="none"
     stroke-width="0.3125"
     stroke-linecap="round"
     stroke-linejoin="round"
     stroke="rgb(0%, 0%, 0%)"
     stroke-opacity="1"
     stroke-miterlimit="10"
     d="M 75.574219 -72.878906 L 79.039062 -73.613281 "
     transform="matrix(1, 0, 0, -1, 0, 0)"
     id="path26" />
  <path
     fill="none"
     stroke-width="0.3125"
     stroke-linecap="round"
     stroke-linejoin="round"
     stroke="rgb(0%, 0%, 0%)"
     stroke-opacity="1"
     stroke-miterlimit="10"
     d="M 80.773438 -73.980469 L 84.242188 -74.71875 "
     transform="matrix(1, 0, 0, -1, 0, 0)"
     id="path27" />
  <path
     fill="none"
     stroke-width="0.3125"
     stroke-linecap="round"
     stroke-linejoin="round"
     stroke="rgb(0%, 0%, 0%)"
     stroke-opacity="1"
     stroke-miterlimit="10"
     d="M 85.972656 -75.085938 L 89.4375 -75.824219 "
     transform="matrix(1, 0, 0, -1, 0, 0)"
     id="path28" />
  <path
     fill="none"
     stroke-width="0.3125"
     stroke-linecap="round"
     stroke-linejoin="round"
     stroke="rgb(0%, 0%, 0%)"
     stroke-opacity="1"
     stroke-miterlimit="10"
     d="M 91.171875 -76.191406 L 94.636719 -76.929688 "
     transform="matrix(1, 0, 0, -1, 0, 0)"
     id="path29" />
  <path
     fill="none"
     stroke-width="0.3125"
     stroke-linecap="round"
     stroke-linejoin="round"
     stroke="rgb(0%, 0%, 0%)"
     stroke-opacity="1"
     stroke-miterlimit="10"
     d="M 39.183594 -65.140625 L 39.183594 -61.597656 "
     transform="matrix(1, 0, 0, -1, 0, 0)"
     id="path30" />
  <path
     fill="none"
     stroke-width="0.3125"
     stroke-linecap="round"
     stroke-linejoin="round"
     stroke="rgb(0%, 0%, 0%)"
     stroke-opacity="1"
     stroke-miterlimit="10"
     d="M 39.183594 -59.824219 L 39.183594 -56.285156 "
     transform="matrix(1, 0, 0, -1, 0, 0)"
     id="path31" />
  <path
     fill="none"
     stroke-width="0.3125"
     stroke-linecap="round"
     stroke-linejoin="round"
     stroke="rgb(0%, 0%, 0%)"
     stroke-opacity="1"
     stroke-miterlimit="10"
     d="M 39.183594 -54.511719 L 39.183594 -50.96875 "
     transform="matrix(1, 0, 0, -1, 0, 0)"
     id="path32" />
  <path
     fill="none"
     stroke-width="0.3125"
     stroke-linecap="round"
     stroke-linejoin="round"
     stroke="rgb(0%, 0%, 0%)"
     stroke-opacity="1"
     stroke-miterlimit="10"
     d="M 39.183594 -49.195312 L 39.183594 -45.652344 "
     transform="matrix(1, 0, 0, -1, 0, 0)"
     id="path33" />
  <path
     fill="none"
     stroke-width="0.3125"
     stroke-linecap="round"
     stroke-linejoin="round"
     stroke="rgb(0%, 0%, 0%)"
     stroke-opacity="1"
     stroke-miterlimit="10"
     d="M 39.183594 -43.882812 L 39.183594 -40.339844 "
     transform="matrix(1, 0, 0, -1, 0, 0)"
     id="path34" />
  <path
     fill="none"
     stroke-width="0.3125"
     stroke-linecap="round"
     stroke-linejoin="round"
     stroke="rgb(0%, 0%, 0%)"
     stroke-opacity="1"
     stroke-miterlimit="10"
     d="M 39.183594 -38.566406 L 39.183594 -35.023438 "
     transform="matrix(1, 0, 0, -1, 0, 0)"
     id="path35" />
  <path
     fill="none"
     stroke-width="0.3125"
     stroke-linecap="round"
     stroke-linejoin="round"
     stroke="rgb(0%, 0%, 0%)"
     stroke-opacity="1"
     stroke-miterlimit="10"
     d="M 39.183594 -33.25 L 39.183594 -29.707031 "
     transform="matrix(1, 0, 0, -1, 0, 0)"
     id="path36" />
  <path
     fill="none"
     stroke-width="0.3125"
     stroke-linecap="round"
     stroke-linejoin="round"
     stroke="rgb(0%, 0%, 0%)"
     stroke-opacity="1"
     stroke-miterlimit="10"
     d="M 39.183594 -27.9375 L 39.183594 -24.394531 "
     transform="matrix(1, 0, 0, -1, 0, 0)"
     id="path37" />
  <path
     fill="none"
     stroke-width="0.3125"
     stroke-linecap="round"
     stroke-linejoin="round"
     stroke="rgb(0%, 0%, 0%)"
     stroke-opacity="1"
     stroke-miterlimit="10"
     d="M 39.183594 -22.621094 L 39.183594 -19.078125 "
     transform="matrix(1, 0, 0, -1, 0, 0)"
     id="path38" />
  <path
     fill="none"
     stroke-width="0.3125"
     stroke-linecap="round"
     stroke-linejoin="round"
     stroke="rgb(0%, 0%, 0%)"
     stroke-opacity="1"
     stroke-miterlimit="10"
     d="M 39.183594 -17.304688 L 39.183594 -13.765625 "
     transform="matrix(1, 0, 0, -1, 0, 0)"
     id="path39" />
  <path
     fill="none"
     stroke-width="0.3125"
     stroke-linecap="round"
     stroke-linejoin="round"
     stroke="rgb(0%, 0%, 0%)"
     stroke-opacity="1"
     stroke-miterlimit="10"
     d="M 39.183594 -11.992188 L 39.183594 -8.449219 "
     transform="matrix(1, 0, 0, -1, 0, 0)"
     id="path40" />
  <path
     fill="none"
     stroke-width="0.3125"
     stroke-linecap="round"
     stroke-linejoin="round"
     stroke="rgb(0%, 0%, 0%)"
     stroke-opacity="1"
     stroke-miterlimit="10"
     d="M 8.820312 -93.464844 L 64.273438 -105.25 L 94.636719 -76.929688 L 94.636719 -20.234375 L 39.183594 -8.449219 L 8.820312 -36.773438 Z M 8.820312 -93.464844 "
     transform="matrix(1, 0, 0, -1, 0, 0)"
     id="path41" />
  <path
     fill-rule="nonzero"
     fill="rgb(0%, 0%, 0%)"
     fill-opacity="1"
     d="M 2.339844 99.75 C 1.949219 100.40625 1.558594 100.546875 1.121094 100.578125 C 0.996094 100.59375 0.902344 100.59375 0.902344 100.78125 C 0.902344 100.84375 0.964844 100.890625 1.042969 100.890625 C 1.308594 100.890625 1.621094 100.859375 1.886719 100.859375 C 2.230469 100.859375 2.574219 100.890625 2.886719 100.890625 C 2.949219 100.890625 3.074219 100.890625 3.074219 100.703125 C 3.074219 100.59375 2.996094 100.578125 2.917969 100.578125 C 2.699219 100.5625 2.449219 100.484375 2.449219 100.234375 C 2.449219 100.109375 2.511719 100 2.589844 99.859375 L 3.355469 98.59375 L 5.855469 98.59375 C 5.871094 98.796875 6.011719 100.15625 6.011719 100.25 C 6.011719 100.546875 5.496094 100.578125 5.292969 100.578125 C 5.152344 100.578125 5.058594 100.578125 5.058594 100.78125 C 5.058594 100.890625 5.167969 100.890625 5.199219 100.890625 C 5.605469 100.890625 6.027344 100.859375 6.433594 100.859375 C 6.683594 100.859375 7.324219 100.890625 7.574219 100.890625 C 7.621094 100.890625 7.746094 100.890625 7.746094 100.6875 C 7.746094 100.578125 7.652344 100.578125 7.511719 100.578125 C 6.902344 100.578125 6.902344 100.515625 6.871094 100.21875 L 6.261719 94 C 6.246094 93.796875 6.246094 93.75 6.074219 93.75 C 5.917969 93.75 5.871094 93.828125 5.808594 93.921875 Z M 3.542969 98.28125 L 5.496094 94.984375 L 5.824219 98.28125 Z M 3.542969 98.28125 "
     id="path42" />
  <g
     clip-path="url(#clip-0)"
     id="g43">
    <path
       fill-rule="nonzero"
       fill="rgb(0%, 0%, 0%)"
       fill-opacity="1"
       d="M 61.597656 112.914062 C 61.503906 113.304688 61.472656 113.382812 60.691406 113.382812 C 60.519531 113.382812 60.425781 113.382812 60.425781 113.585938 C 60.425781 113.695312 60.519531 113.695312 60.691406 113.695312 L 64.253906 113.695312 C 65.832031 113.695312 67.003906 112.523438 67.003906 111.539062 C 67.003906 110.820312 66.425781 110.242188 65.457031 110.132812 C 66.488281 109.945312 67.535156 109.210938 67.535156 108.257812 C 67.535156 107.523438 66.878906 106.882812 65.691406 106.882812 L 62.332031 106.882812 C 62.144531 106.882812 62.050781 106.882812 62.050781 107.085938 C 62.050781 107.195312 62.144531 107.195312 62.332031 107.195312 C 62.347656 107.195312 62.535156 107.195312 62.707031 107.210938 C 62.878906 107.242188 62.972656 107.242188 62.972656 107.382812 C 62.972656 107.414062 62.957031 107.445312 62.941406 107.570312 Z M 63.097656 110.039062 L 63.722656 107.570312 C 63.816406 107.226562 63.832031 107.195312 64.253906 107.195312 L 65.550781 107.195312 C 66.425781 107.195312 66.628906 107.789062 66.628906 108.226562 C 66.628906 109.101562 65.769531 110.039062 64.566406 110.039062 Z M 62.660156 113.382812 C 62.519531 113.382812 62.503906 113.382812 62.441406 113.382812 C 62.332031 113.367188 62.300781 113.351562 62.300781 113.273438 C 62.300781 113.242188 62.300781 113.226562 62.363281 113.054688 L 63.050781 110.273438 L 64.925781 110.273438 C 65.878906 110.273438 66.082031 111.007812 66.082031 111.429688 C 66.082031 112.414062 65.191406 113.382812 64.003906 113.382812 Z M 62.660156 113.382812 "
       id="path43" />
  </g>
  <g
     clip-path="url(#clip-1)"
     id="g44">
    <path
       fill-rule="nonzero"
       fill="rgb(0%, 0%, 0%)"
       fill-opacity="1"
       d="M 102.835938 74.96875 C 102.835938 74.9375 102.820312 74.859375 102.726562 74.859375 C 102.695312 74.859375 102.679688 74.875 102.570312 74.984375 L 101.882812 75.75 C 101.789062 75.609375 101.335938 74.859375 100.226562 74.859375 C 97.992188 74.859375 95.757812 77.0625 95.757812 79.375 C 95.757812 81.015625 96.929688 82.109375 98.460938 82.109375 C 99.320312 82.109375 100.085938 81.71875 100.617188 81.25 C 101.539062 80.4375 101.710938 79.53125 101.710938 79.5 C 101.710938 79.390625 101.601562 79.390625 101.585938 79.390625 C 101.523438 79.390625 101.476562 79.421875 101.460938 79.5 C 101.367188 79.78125 101.132812 80.5 100.445312 81.078125 C 99.757812 81.625 99.132812 81.796875 98.617188 81.796875 C 97.726562 81.796875 96.664062 81.28125 96.664062 79.734375 C 96.664062 79.15625 96.867188 77.546875 97.867188 76.375 C 98.476562 75.671875 99.414062 75.171875 100.304688 75.171875 C 101.320312 75.171875 101.914062 75.9375 101.914062 77.09375 C 101.914062 77.5 101.882812 77.5 101.882812 77.609375 C 101.882812 77.703125 101.992188 77.703125 102.023438 77.703125 C 102.148438 77.703125 102.148438 77.6875 102.210938 77.5 Z M 102.835938 74.96875 "
       id="path44" />
  </g>
  <path
     fill-rule="nonzero"
     fill="rgb(0%, 0%, 0%)"
     fill-opacity="1"
     d="M 30.679688 65.03125 C 30.585938 65.421875 30.570312 65.5 29.773438 65.5 C 29.617188 65.5 29.507812 65.5 29.507812 65.6875 C 29.507812 65.8125 29.585938 65.8125 29.773438 65.8125 L 33.085938 65.8125 C 35.148438 65.8125 37.117188 63.703125 37.117188 61.53125 C 37.117188 60.125 36.273438 59 34.773438 59 L 31.429688 59 C 31.242188 59 31.132812 59 31.132812 59.1875 C 31.132812 59.3125 31.210938 59.3125 31.414062 59.3125 C 31.539062 59.3125 31.726562 59.328125 31.835938 59.328125 C 32.007812 59.359375 32.054688 59.375 32.054688 59.5 C 32.054688 59.53125 32.054688 59.5625 32.023438 59.6875 Z M 32.835938 59.6875 C 32.929688 59.34375 32.945312 59.3125 33.382812 59.3125 L 34.445312 59.3125 C 35.414062 59.3125 36.242188 59.84375 36.242188 61.15625 C 36.242188 61.640625 36.054688 63.28125 35.195312 64.375 C 34.914062 64.75 34.132812 65.5 32.898438 65.5 L 31.773438 65.5 C 31.632812 65.5 31.617188 65.5 31.554688 65.5 C 31.460938 65.484375 31.429688 65.46875 31.429688 65.390625 C 31.429688 65.359375 31.429688 65.34375 31.476562 65.171875 Z M 32.835938 59.6875 "
     id="path45" />
  <path
     fill-rule="nonzero"
     fill="rgb(0%, 0%, 0%)"
     fill-opacity="1"
     d="M 6.6875 38.1875 C 6.703125 38.140625 6.734375 38.078125 6.734375 38.046875 C 6.734375 38.046875 6.734375 37.9375 6.609375 37.9375 C 6.515625 37.9375 6.5 38 6.484375 38.0625 C 5.828125 39.53125 5.46875 40.203125 3.765625 40.203125 L 2.3125 40.203125 C 2.171875 40.203125 2.140625 40.203125 2.09375 40.203125 C 1.984375 40.1875 1.953125 40.171875 1.953125 40.09375 C 1.953125 40.0625 1.953125 40.046875 2 39.875 L 2.6875 37.140625 L 3.671875 37.140625 C 4.515625 37.140625 4.515625 37.359375 4.515625 37.609375 C 4.515625 37.671875 4.515625 37.796875 4.453125 38.09375 C 4.4375 38.140625 4.421875 38.171875 4.421875 38.203125 C 4.421875 38.25 4.453125 38.3125 4.546875 38.3125 C 4.625 38.3125 4.65625 38.265625 4.703125 38.109375 L 5.265625 35.78125 C 5.265625 35.71875 5.21875 35.671875 5.140625 35.671875 C 5.0625 35.671875 5.03125 35.734375 5.015625 35.84375 C 4.796875 36.609375 4.625 36.84375 3.703125 36.84375 L 2.765625 36.84375 L 3.359375 34.4375 C 3.453125 34.078125 3.46875 34.046875 3.90625 34.046875 L 5.3125 34.046875 C 6.515625 34.046875 6.828125 34.328125 6.828125 35.15625 C 6.828125 35.390625 6.828125 35.40625 6.78125 35.6875 C 6.78125 35.734375 6.765625 35.8125 6.765625 35.859375 C 6.765625 35.90625 6.796875 35.984375 6.890625 35.984375 C 7 35.984375 7.015625 35.921875 7.03125 35.734375 L 7.234375 34 C 7.265625 33.734375 7.21875 33.734375 6.96875 33.734375 L 1.921875 33.734375 C 1.734375 33.734375 1.625 33.734375 1.625 33.9375 C 1.625 34.046875 1.71875 34.046875 1.90625 34.046875 C 2.28125 34.046875 2.5625 34.046875 2.5625 34.21875 C 2.5625 34.265625 2.5625 34.28125 2.5 34.46875 L 1.1875 39.734375 C 1.09375 40.125 1.078125 40.203125 0.28125 40.203125 C 0.109375 40.203125 0 40.203125 0 40.390625 C 0 40.515625 0.09375 40.515625 0.28125 40.515625 L 5.453125 40.515625 C 5.6875 40.515625 5.703125 40.5 5.765625 40.34375 Z M 6.6875 38.1875 "
     id="path46" />
  <path
     fill-rule="nonzero"
     fill="rgb(0%, 0%, 0%)"
     fill-opacity="1"
     d="M 58.167969 53.375 L 59.136719 53.375 C 59.886719 53.375 59.964844 53.53125 59.964844 53.8125 C 59.964844 53.890625 59.964844 54 59.902344 54.3125 C 59.871094 54.359375 59.871094 54.390625 59.871094 54.421875 C 59.871094 54.5 59.933594 54.53125 59.980469 54.53125 C 60.089844 54.53125 60.089844 54.5 60.136719 54.328125 L 60.683594 52.15625 C 60.714844 52.046875 60.714844 52.03125 60.714844 52 C 60.714844 51.984375 60.699219 51.890625 60.589844 51.890625 C 60.496094 51.890625 60.480469 51.9375 60.449219 52.109375 C 60.230469 52.875 60.011719 53.0625 59.152344 53.0625 L 58.246094 53.0625 L 58.886719 50.53125 C 58.980469 50.171875 58.996094 50.140625 59.433594 50.140625 L 60.746094 50.140625 C 61.964844 50.140625 62.199219 50.46875 62.199219 51.234375 C 62.199219 51.46875 62.199219 51.5 62.167969 51.78125 C 62.152344 51.90625 62.152344 51.921875 62.152344 51.953125 C 62.152344 52 62.183594 52.078125 62.277344 52.078125 C 62.386719 52.078125 62.386719 52.015625 62.402344 51.828125 L 62.605469 50.09375 C 62.636719 49.828125 62.589844 49.828125 62.339844 49.828125 L 57.449219 49.828125 C 57.261719 49.828125 57.152344 49.828125 57.152344 50.03125 C 57.152344 50.140625 57.246094 50.140625 57.433594 50.140625 C 57.808594 50.140625 58.089844 50.140625 58.089844 50.3125 C 58.089844 50.359375 58.089844 50.375 58.027344 50.5625 L 56.714844 55.828125 C 56.621094 56.21875 56.605469 56.296875 55.808594 56.296875 C 55.636719 56.296875 55.527344 56.296875 55.527344 56.484375 C 55.527344 56.609375 55.652344 56.609375 55.683594 56.609375 C 55.964844 56.609375 56.714844 56.578125 56.996094 56.578125 C 57.324219 56.578125 58.152344 56.609375 58.480469 56.609375 C 58.574219 56.609375 58.683594 56.609375 58.683594 56.421875 C 58.683594 56.34375 58.636719 56.3125 58.636719 56.3125 C 58.605469 56.296875 58.574219 56.296875 58.355469 56.296875 C 58.136719 56.296875 58.089844 56.296875 57.839844 56.28125 C 57.542969 56.25 57.511719 56.203125 57.511719 56.078125 C 57.511719 56.0625 57.511719 56 57.558594 55.859375 Z M 58.167969 53.375 "
     id="path47" />
  <g
     clip-path="url(#clip-2)"
     id="g48">
    <path
       fill-rule="nonzero"
       fill="rgb(0%, 0%, 0%)"
       fill-opacity="1"
       d="M 102.707031 13.191406 C 102.707031 13.160156 102.691406 13.082031 102.597656 13.082031 C 102.566406 13.082031 102.550781 13.097656 102.441406 13.207031 L 101.753906 13.972656 C 101.660156 13.832031 101.207031 13.082031 100.097656 13.082031 C 97.863281 13.082031 95.628906 15.285156 95.628906 17.597656 C 95.628906 19.191406 96.738281 20.332031 98.347656 20.332031 C 98.785156 20.332031 99.238281 20.238281 99.597656 20.097656 C 100.097656 19.894531 100.285156 19.691406 100.457031 19.488281 C 100.550781 19.738281 100.816406 20.097656 100.910156 20.097656 C 100.957031 20.097656 100.988281 20.066406 100.988281 20.066406 C 101.003906 20.050781 101.097656 19.660156 101.144531 19.457031 L 101.332031 18.691406 C 101.378906 18.519531 101.425781 18.347656 101.472656 18.175781 C 101.582031 17.738281 101.582031 17.707031 102.160156 17.707031 C 102.207031 17.707031 102.316406 17.691406 102.316406 17.503906 C 102.316406 17.425781 102.269531 17.394531 102.191406 17.394531 C 101.957031 17.394531 101.363281 17.425781 101.144531 17.425781 C 100.832031 17.425781 100.050781 17.394531 99.738281 17.394531 C 99.660156 17.394531 99.535156 17.394531 99.535156 17.597656 C 99.535156 17.707031 99.613281 17.707031 99.832031 17.707031 C 99.847656 17.707031 100.128906 17.707031 100.363281 17.722656 C 100.628906 17.753906 100.675781 17.785156 100.675781 17.910156 C 100.675781 18.003906 100.566406 18.441406 100.457031 18.816406 C 100.175781 19.910156 98.894531 20.019531 98.535156 20.019531 C 97.582031 20.019531 96.535156 19.457031 96.535156 17.925781 C 96.535156 17.613281 96.628906 15.972656 97.675781 14.675781 C 98.222656 14.003906 99.191406 13.394531 100.175781 13.394531 C 101.191406 13.394531 101.785156 14.160156 101.785156 15.316406 C 101.785156 15.722656 101.753906 15.722656 101.753906 15.832031 C 101.753906 15.925781 101.863281 15.925781 101.894531 15.925781 C 102.019531 15.925781 102.019531 15.910156 102.082031 15.722656 Z M 102.707031 13.191406 "
       id="path48" />
  </g>
  <path
     fill-rule="nonzero"
     fill="rgb(0%, 0%, 0%)"
     fill-opacity="1"
     d="M 42.925781 0.765625 C 43.019531 0.40625 43.035156 0.3125 43.753906 0.3125 C 44.019531 0.3125 44.097656 0.3125 44.097656 0.109375 C 44.097656 0 43.988281 0 43.957031 0 C 43.675781 0 42.957031 0.03125 42.675781 0.03125 C 42.394531 0.03125 41.691406 0 41.394531 0 C 41.316406 0 41.207031 0 41.207031 0.203125 C 41.207031 0.3125 41.300781 0.3125 41.488281 0.3125 C 41.503906 0.3125 41.691406 0.3125 41.863281 0.328125 C 42.050781 0.359375 42.128906 0.359375 42.128906 0.5 C 42.128906 0.53125 42.128906 0.546875 42.097656 0.6875 L 41.503906 3.109375 L 38.457031 3.109375 L 39.050781 0.765625 C 39.128906 0.40625 39.160156 0.3125 39.878906 0.3125 C 40.144531 0.3125 40.222656 0.3125 40.222656 0.109375 C 40.222656 0 40.113281 0 40.082031 0 C 39.800781 0 39.082031 0.03125 38.800781 0.03125 C 38.519531 0.03125 37.816406 0 37.519531 0 C 37.441406 0 37.332031 0 37.332031 0.203125 C 37.332031 0.3125 37.425781 0.3125 37.613281 0.3125 C 37.628906 0.3125 37.816406 0.3125 37.988281 0.328125 C 38.160156 0.359375 38.253906 0.359375 38.253906 0.5 C 38.253906 0.53125 38.253906 0.5625 38.222656 0.6875 L 36.878906 6.03125 C 36.785156 6.421875 36.769531 6.5 35.972656 6.5 C 35.800781 6.5 35.707031 6.5 35.707031 6.703125 C 35.707031 6.8125 35.832031 6.8125 35.847656 6.8125 C 36.128906 6.8125 36.832031 6.78125 37.113281 6.78125 C 37.316406 6.78125 37.535156 6.796875 37.753906 6.796875 C 37.972656 6.796875 38.191406 6.8125 38.394531 6.8125 C 38.472656 6.8125 38.597656 6.8125 38.597656 6.609375 C 38.597656 6.5 38.503906 6.5 38.316406 6.5 C 37.941406 6.5 37.675781 6.5 37.675781 6.328125 C 37.675781 6.265625 37.691406 6.21875 37.691406 6.15625 L 38.378906 3.421875 L 41.410156 3.421875 C 41.003906 5.078125 40.769531 6.03125 40.722656 6.171875 C 40.628906 6.5 40.441406 6.5 39.816406 6.5 C 39.675781 6.5 39.582031 6.5 39.582031 6.703125 C 39.582031 6.8125 39.707031 6.8125 39.722656 6.8125 C 40.003906 6.8125 40.707031 6.78125 40.988281 6.78125 C 41.191406 6.78125 41.410156 6.796875 41.628906 6.796875 C 41.847656 6.796875 42.066406 6.8125 42.269531 6.8125 C 42.347656 6.8125 42.472656 6.8125 42.472656 6.609375 C 42.472656 6.5 42.378906 6.5 42.191406 6.5 C 41.832031 6.5 41.550781 6.5 41.550781 6.328125 C 41.550781 6.265625 41.566406 6.21875 41.582031 6.15625 Z M 42.925781 0.765625 "
     id="path49" />
</svg>
