<?xml version="1.0" encoding="UTF-8" standalone="no"?>
<svg
   width="241.91pt"
   height="104.34pt"
   viewBox="0 0 241.91 104.34"
   version="1.1"
   id="svg31"
   xmlns:xlink="http://www.w3.org/1999/xlink"
   xmlns="http://www.w3.org/2000/svg"
   xmlns:svg="http://www.w3.org/2000/svg">
  <defs
     id="defs5">
    <g
       id="g5">
      <g
         id="glyph-0-0">
        <path
           d="M 9.140625 -0.25 C 9.140625 -0.375 9.03125 -0.375 8.828125 -0.375 C 8.125 -0.375 8.109375 -0.5 8.0625 -0.875 L 7.28125 -8.96875 C 7.25 -9.21875 7.203125 -9.25 7.0625 -9.25 C 6.9375 -9.25 6.859375 -9.21875 6.734375 -9.03125 L 2.203125 -1.4375 C 1.75 -0.671875 1.3125 -0.421875 0.6875 -0.375 C 0.546875 -0.359375 0.4375 -0.359375 0.4375 -0.125 C 0.4375 -0.046875 0.5 0 0.59375 0 L 1.640625 -0.03125 C 2.015625 -0.03125 2.4375 0 2.796875 0 C 2.875 0 3.03125 0 3.03125 -0.25 C 3.03125 -0.359375 2.921875 -0.375 2.84375 -0.375 C 2.546875 -0.40625 2.3125 -0.5 2.3125 -0.8125 C 2.3125 -1 2.390625 -1.140625 2.546875 -1.421875 L 3.53125 -3.0625 L 6.84375 -3.0625 C 6.859375 -2.9375 6.859375 -2.84375 6.859375 -2.71875 C 6.90625 -2.390625 7.0625 -1.03125 7.0625 -0.796875 C 7.0625 -0.40625 6.40625 -0.375 6.1875 -0.375 C 6.046875 -0.375 5.90625 -0.375 5.90625 -0.140625 C 5.90625 0 6.015625 0 6.09375 0 C 6.328125 0 6.578125 -0.03125 6.796875 -0.03125 L 7.53125 -0.03125 L 8.90625 0 C 9 0 9.140625 0 9.140625 -0.25 Z M 6.796875 -3.4375 L 3.75 -3.4375 L 6.359375 -7.78125 Z M 6.796875 -3.4375 "
           id="path1" />
      </g>
      <g
         id="glyph-0-1">
        <path
           d="M 8.5625 -7.109375 C 8.5625 -6.0625 7.515625 -4.734375 5.796875 -4.734375 L 3.9375 -4.734375 L 4.734375 -7.96875 C 4.859375 -8.453125 4.90625 -8.46875 5.421875 -8.46875 L 7.09375 -8.46875 C 8.5625 -8.46875 8.5625 -7.234375 8.5625 -7.109375 Z M 8.90625 -2.8125 C 8.90625 -3.875 7.984375 -4.515625 6.9375 -4.625 C 8.34375 -4.890625 9.625 -5.875 9.625 -7.0625 C 9.625 -8.0625 8.734375 -8.84375 7.265625 -8.84375 L 3.109375 -8.84375 C 2.859375 -8.84375 2.75 -8.84375 2.75 -8.59375 C 2.75 -8.46875 2.859375 -8.46875 3.0625 -8.46875 C 3.84375 -8.46875 3.84375 -8.375 3.84375 -8.21875 C 3.84375 -8.21875 3.84375 -8.125 3.796875 -7.921875 L 2.046875 -0.953125 C 1.9375 -0.5 1.90625 -0.375 1 -0.375 C 0.75 -0.375 0.625 -0.375 0.625 -0.140625 C 0.625 0 0.703125 0 0.953125 0 L 5.40625 0 C 7.390625 0 8.90625 -1.5 8.90625 -2.8125 Z M 7.828125 -2.9375 C 7.828125 -1.703125 6.703125 -0.375 5.09375 -0.375 L 3.34375 -0.375 C 3.15625 -0.375 3.140625 -0.375 3.0625 -0.390625 C 2.921875 -0.40625 2.90625 -0.421875 2.90625 -0.53125 C 2.90625 -0.625 2.921875 -0.703125 2.953125 -0.8125 L 3.859375 -4.46875 L 6.296875 -4.46875 C 7.828125 -4.46875 7.828125 -3.046875 7.828125 -2.9375 Z M 7.828125 -2.9375 "
           id="path2" />
      </g>
      <g
         id="glyph-0-2">
        <path
           d="M 8.21875 -3.109375 C 8.21875 -3.21875 8.109375 -3.21875 8.0625 -3.21875 C 7.953125 -3.21875 7.9375 -3.140625 7.921875 -3.09375 C 7.3125 -1.078125 5.5625 -0.109375 4.28125 -0.109375 C 2.90625 -0.109375 1.703125 -0.984375 1.703125 -2.828125 C 1.703125 -3.234375 1.84375 -5.484375 3.296875 -7.1875 C 4.015625 -8.015625 5.234375 -8.75 6.46875 -8.75 C 7.890625 -8.75 8.515625 -7.5625 8.515625 -6.25 C 8.515625 -5.90625 8.484375 -5.625 8.484375 -5.5625 C 8.484375 -5.453125 8.609375 -5.453125 8.65625 -5.453125 C 8.796875 -5.453125 8.8125 -5.46875 8.859375 -5.703125 L 9.671875 -9 C 9.671875 -9.125 9.5625 -9.125 9.5625 -9.125 C 9.5625 -9.125 9.484375 -9.125 9.375 -8.984375 L 8.484375 -7.90625 C 8.03125 -8.671875 7.3125 -9.125 6.34375 -9.125 C 3.546875 -9.125 0.640625 -6.28125 0.640625 -3.234375 C 0.640625 -1.078125 2.15625 0.265625 4.046875 0.265625 C 5.09375 0.265625 6 -0.171875 6.75 -0.796875 C 7.875 -1.75 8.21875 -3 8.21875 -3.109375 Z M 8.21875 -3.109375 "
           id="path3" />
      </g>
      <g
         id="glyph-0-3">
        <path
           d="M 10.21875 -5.59375 C 10.21875 -7.46875 9.109375 -8.84375 7.25 -8.84375 L 3.09375 -8.84375 C 2.84375 -8.84375 2.734375 -8.84375 2.734375 -8.59375 C 2.734375 -8.46875 2.84375 -8.46875 3.046875 -8.46875 C 3.828125 -8.46875 3.828125 -8.375 3.828125 -8.21875 C 3.828125 -8.21875 3.828125 -8.125 3.78125 -7.921875 L 2.03125 -0.953125 C 1.921875 -0.5 1.890625 -0.375 0.984375 -0.375 C 0.734375 -0.375 0.609375 -0.375 0.609375 -0.140625 C 0.609375 0 0.6875 0 0.953125 0 L 5.046875 0 C 7.671875 0 10.21875 -2.703125 10.21875 -5.59375 Z M 9.203125 -6.015625 C 9.203125 -5.375 8.9375 -3.125 7.6875 -1.703125 C 7.3125 -1.265625 6.328125 -0.375 4.84375 -0.375 L 3.375 -0.375 C 3.1875 -0.375 3.15625 -0.375 3.078125 -0.390625 C 2.9375 -0.40625 2.921875 -0.421875 2.921875 -0.53125 C 2.921875 -0.625 2.953125 -0.703125 2.984375 -0.8125 L 4.765625 -7.96875 C 4.890625 -8.453125 4.9375 -8.46875 5.4375 -8.46875 L 6.859375 -8.46875 C 8.078125 -8.46875 9.203125 -7.8125 9.203125 -6.015625 Z M 9.203125 -6.015625 "
           id="path4" />
      </g>
      <g
         id="glyph-0-4">
        <path
           d="M 9.578125 -6.921875 C 9.578125 -7.921875 8.734375 -8.84375 7.09375 -8.84375 L 3.09375 -8.84375 C 2.84375 -8.84375 2.734375 -8.84375 2.734375 -8.59375 C 2.734375 -8.46875 2.84375 -8.46875 3.046875 -8.46875 C 3.828125 -8.46875 3.828125 -8.375 3.828125 -8.21875 C 3.828125 -8.21875 3.828125 -8.125 3.78125 -7.921875 L 2.03125 -0.953125 C 1.921875 -0.5 1.890625 -0.375 0.984375 -0.375 C 0.734375 -0.375 0.609375 -0.375 0.609375 -0.140625 C 0.609375 0 0.71875 0 0.796875 0 C 1.046875 0 1.3125 -0.03125 1.546875 -0.03125 L 3.0625 -0.03125 C 3.3125 -0.03125 3.59375 0 3.828125 0 C 3.9375 0 4.078125 0 4.078125 -0.25 C 4.078125 -0.375 3.96875 -0.375 3.765625 -0.375 C 2.984375 -0.375 2.984375 -0.46875 2.984375 -0.59375 C 2.984375 -0.65625 2.984375 -0.75 3 -0.8125 L 3.828125 -4.125 L 6.015625 -4.125 C 7.796875 -4.125 9.578125 -5.4375 9.578125 -6.921875 Z M 8.5 -7.1875 C 8.5 -6.859375 8.328125 -5.75 7.734375 -5.15625 C 7.515625 -4.921875 6.890625 -4.4375 5.71875 -4.4375 L 3.890625 -4.4375 L 4.765625 -7.96875 C 4.890625 -8.453125 4.9375 -8.46875 5.4375 -8.46875 L 6.71875 -8.46875 C 7.6875 -8.46875 8.5 -8.15625 8.5 -7.1875 Z M 8.5 -7.1875 "
           id="path5" />
      </g>
    </g>
  </defs>
  <path
     fill-rule="nonzero"
     fill="rgb(49.804688%, 49.804688%, 100%)"
     fill-opacity="1"
     d="M 69.753906 15.300781 L 57.796875 31.242188 C 61.125 33.742188 65.265625 35.226562 69.753906 35.226562 C 72.957031 35.226562 75.984375 34.46875 78.664062 33.125 L 69.753906 15.300781 "
     id="path6" />
  <path
     fill-rule="nonzero"
     fill="rgb(49.804688%, 49.804688%, 100%)"
     fill-opacity="1"
     d="M 69.753906 15.300781 L 76.4375 28.671875 C 81.332031 26.21875 84.695312 21.152344 84.695312 15.300781 L 69.753906 15.300781 "
     id="path7" />
  <path
     fill-rule="nonzero"
     fill="rgb(49.804688%, 100%, 49.804688%)"
     fill-opacity="1"
     d="M 129.523438 15.300781 L 114.582031 15.300781 C 114.582031 21.902344 118.863281 27.503906 124.800781 29.480469 L 129.523438 15.300781 "
     id="path8" />
  <path
     fill-rule="nonzero"
     fill="rgb(49.804688%, 100%, 49.804688%)"
     fill-opacity="1"
     d="M 129.523438 15.300781 L 123.222656 34.207031 C 125.203125 34.867188 127.324219 35.226562 129.523438 35.226562 C 136.042969 35.226562 141.832031 32.097656 145.464844 27.257812 L 129.523438 15.300781 "
     id="path9" />
  <path
     fill-rule="nonzero"
     fill="rgb(49.804688%, 49.804688%, 100%)"
     fill-opacity="1"
     d="M 105.617188 87.03125 L 96.703125 69.207031 C 90.171875 72.476562 85.691406 79.230469 85.691406 87.03125 L 105.617188 87.03125 "
     id="path10" />
  <path
     fill-rule="nonzero"
     fill="rgb(49.804688%, 100%, 49.804688%)"
     fill-opacity="1"
     d="M 105.617188 87.03125 L 125.539062 87.03125 C 125.539062 78.230469 119.835938 70.761719 111.917969 68.121094 L 105.617188 87.03125 "
     id="path11" />
  <path
     fill="none"
     stroke-width="9.99963"
     stroke-linecap="round"
     stroke-linejoin="round"
     stroke="rgb(0%, 0%, 0%)"
     stroke-opacity="1"
     stroke-miterlimit="10"
     d="M 159.570312 173.0875 L 2251.640625 173.0875 "
     transform="matrix(0.1, 0, 0, -0.1, 0, 104.34)"
     id="path12" />
  <path
     fill="none"
     stroke-width="9.99963"
     stroke-linecap="round"
     stroke-linejoin="round"
     stroke="rgb(0%, 0%, 0%)"
     stroke-opacity="1"
     stroke-miterlimit="10"
     d="M 2251.640625 173.0875 L 1295.234375 890.392188 "
     transform="matrix(0.1, 0, 0, -0.1, 0, 104.34)"
     id="path13" />
  <path
     fill="none"
     stroke-width="9.99963"
     stroke-linecap="round"
     stroke-linejoin="round"
     stroke="rgb(0%, 0%, 0%)"
     stroke-opacity="1"
     stroke-miterlimit="10"
     d="M 1295.234375 890.392188 L 697.539062 890.392188 "
     transform="matrix(0.1, 0, 0, -0.1, 0, 104.34)"
     id="path14" />
  <path
     fill="none"
     stroke-width="9.99963"
     stroke-linecap="round"
     stroke-linejoin="round"
     stroke="rgb(0%, 0%, 0%)"
     stroke-opacity="1"
     stroke-miterlimit="10"
     d="M 697.539062 890.392188 L 159.570312 173.0875 "
     transform="matrix(0.1, 0, 0, -0.1, 0, 104.34)"
     id="path15" />
  <path
     fill="none"
     stroke-width="9.99963"
     stroke-linecap="round"
     stroke-linejoin="round"
     stroke="rgb(0%, 0%, 0%)"
     stroke-opacity="1"
     stroke-dasharray="29.7018 29.7018"
     stroke-miterlimit="10"
     d="M 697.539062 890.392188 L 1056.171875 173.0875 "
     transform="matrix(0.1, 0, 0, -0.1, 0, 104.34)"
     id="path16" />
  <path
     fill="none"
     stroke-width="9.99963"
     stroke-linecap="round"
     stroke-linejoin="round"
     stroke="rgb(0%, 0%, 0%)"
     stroke-opacity="1"
     stroke-dasharray="30.2433 30.2433"
     stroke-miterlimit="10"
     d="M 1295.234375 890.392188 L 1056.171875 173.0875 "
     transform="matrix(0.1, 0, 0, -0.1, 0, 104.34)"
     id="path17" />
  <path
     fill-rule="nonzero"
     fill="rgb(0%, 0%, 100%)"
     fill-opacity="1"
     d="M 18.894531 87.03125 C 18.894531 85.40625 17.578125 84.089844 15.957031 84.089844 C 14.332031 84.089844 13.015625 85.40625 13.015625 87.03125 C 13.015625 88.652344 14.332031 89.96875 15.957031 89.96875 C 17.578125 89.96875 18.894531 88.652344 18.894531 87.03125 "
     id="path18" />
  <path
     fill="none"
     stroke-width="4.99982"
     stroke-linecap="round"
     stroke-linejoin="round"
     stroke="rgb(0%, 0%, 0%)"
     stroke-opacity="1"
     stroke-miterlimit="10"
     d="M 188.945312 173.0875 C 188.945312 189.3375 175.78125 202.501563 159.570312 202.501563 C 143.320312 202.501563 130.15625 189.3375 130.15625 173.0875 C 130.15625 156.876563 143.320312 143.7125 159.570312 143.7125 C 175.78125 143.7125 188.945312 156.876563 188.945312 173.0875 Z M 188.945312 173.0875 "
     transform="matrix(0.1, 0, 0, -0.1, 0, 104.34)"
     id="path19" />
  <path
     fill-rule="nonzero"
     fill="rgb(0%, 0%, 100%)"
     fill-opacity="1"
     d="M 228.101562 87.03125 C 228.101562 85.40625 226.785156 84.089844 225.164062 84.089844 C 223.539062 84.089844 222.226562 85.40625 222.226562 87.03125 C 222.226562 88.652344 223.539062 89.96875 225.164062 89.96875 C 226.785156 89.96875 228.101562 88.652344 228.101562 87.03125 "
     id="path20" />
  <path
     fill="none"
     stroke-width="4.99982"
     stroke-linecap="round"
     stroke-linejoin="round"
     stroke="rgb(0%, 0%, 0%)"
     stroke-opacity="1"
     stroke-miterlimit="10"
     d="M 2281.015625 173.0875 C 2281.015625 189.3375 2267.851562 202.501563 2251.640625 202.501563 C 2235.390625 202.501563 2222.265625 189.3375 2222.265625 173.0875 C 2222.265625 156.876563 2235.390625 143.7125 2251.640625 143.7125 C 2267.851562 143.7125 2281.015625 156.876563 2281.015625 173.0875 Z M 2281.015625 173.0875 "
     transform="matrix(0.1, 0, 0, -0.1, 0, 104.34)"
     id="path21" />
  <path
     fill-rule="nonzero"
     fill="rgb(0%, 0%, 100%)"
     fill-opacity="1"
     d="M 132.464844 15.300781 C 132.464844 13.679688 131.148438 12.363281 129.523438 12.363281 C 127.902344 12.363281 126.585938 13.679688 126.585938 15.300781 C 126.585938 16.925781 127.902344 18.242188 129.523438 18.242188 C 131.148438 18.242188 132.464844 16.925781 132.464844 15.300781 "
     id="path22" />
  <path
     fill="none"
     stroke-width="4.99982"
     stroke-linecap="round"
     stroke-linejoin="round"
     stroke="rgb(0%, 0%, 0%)"
     stroke-opacity="1"
     stroke-miterlimit="10"
     d="M 1324.648438 890.392188 C 1324.648438 906.603125 1311.484375 919.767188 1295.234375 919.767188 C 1279.023438 919.767188 1265.859375 906.603125 1265.859375 890.392188 C 1265.859375 874.142188 1279.023438 860.978125 1295.234375 860.978125 C 1311.484375 860.978125 1324.648438 874.142188 1324.648438 890.392188 Z M 1324.648438 890.392188 "
     transform="matrix(0.1, 0, 0, -0.1, 0, 104.34)"
     id="path23" />
  <path
     fill-rule="nonzero"
     fill="rgb(0%, 0%, 100%)"
     fill-opacity="1"
     d="M 72.691406 15.300781 C 72.691406 13.679688 71.375 12.363281 69.753906 12.363281 C 68.128906 12.363281 66.8125 13.679688 66.8125 15.300781 C 66.8125 16.925781 68.128906 18.242188 69.753906 18.242188 C 71.375 18.242188 72.691406 16.925781 72.691406 15.300781 "
     id="path24" />
  <path
     fill="none"
     stroke-width="4.99982"
     stroke-linecap="round"
     stroke-linejoin="round"
     stroke="rgb(0%, 0%, 0%)"
     stroke-opacity="1"
     stroke-miterlimit="10"
     d="M 726.914062 890.392188 C 726.914062 906.603125 713.75 919.767188 697.539062 919.767188 C 681.289062 919.767188 668.125 906.603125 668.125 890.392188 C 668.125 874.142188 681.289062 860.978125 697.539062 860.978125 C 713.75 860.978125 726.914062 874.142188 726.914062 890.392188 Z M 726.914062 890.392188 "
     transform="matrix(0.1, 0, 0, -0.1, 0, 104.34)"
     id="path25" />
  <path
     fill-rule="nonzero"
     fill="rgb(0%, 0%, 100%)"
     fill-opacity="1"
     d="M 108.554688 87.03125 C 108.554688 85.40625 107.238281 84.089844 105.617188 84.089844 C 103.992188 84.089844 102.675781 85.40625 102.675781 87.03125 C 102.675781 88.652344 103.992188 89.96875 105.617188 89.96875 C 107.238281 89.96875 108.554688 88.652344 108.554688 87.03125 "
     id="path26" />
  <path
     fill="none"
     stroke-width="4.99982"
     stroke-linecap="round"
     stroke-linejoin="round"
     stroke="rgb(0%, 0%, 0%)"
     stroke-opacity="1"
     stroke-miterlimit="10"
     d="M 1085.546875 173.0875 C 1085.546875 189.3375 1072.382812 202.501563 1056.171875 202.501563 C 1039.921875 202.501563 1026.757812 189.3375 1026.757812 173.0875 C 1026.757812 156.876563 1039.921875 143.7125 1056.171875 143.7125 C 1072.382812 143.7125 1085.546875 156.876563 1085.546875 173.0875 Z M 1085.546875 173.0875 "
     transform="matrix(0.1, 0, 0, -0.1, 0, 104.34)"
     id="path27" />
  <g
     fill="rgb(0%, 0%, 100%)"
     fill-opacity="1"
     id="g27">
    <use
       xlink:href="#glyph-0-0"
       x="1.56016"
       y="100.74"
       id="use27" />
  </g>
  <g
     fill="rgb(0%, 0%, 100%)"
     fill-opacity="1"
     id="g28">
    <use
       xlink:href="#glyph-0-1"
       x="230.040162"
       y="100.74"
       id="use28" />
  </g>
  <g
     fill="rgb(0%, 0%, 100%)"
     fill-opacity="1"
     id="g29">
    <use
       xlink:href="#glyph-0-2"
       x="134.40016"
       y="10.4998"
       id="use29" />
  </g>
  <g
     fill="rgb(0%, 0%, 100%)"
     fill-opacity="1"
     id="g30">
    <use
       xlink:href="#glyph-0-3"
       x="54.006055"
       y="10.4998"
       id="use30" />
  </g>
  <g
     fill="rgb(0%, 0%, 100%)"
     fill-opacity="1"
     id="g31">
    <use
       xlink:href="#glyph-0-4"
       x="100.68026"
       y="102.7799"
       id="use31" />
  </g>
</svg>
