<?xml version="1.0" encoding="UTF-8" standalone="no"?>
<svg
   width="112.8pt"
   height="112.8pt"
   viewBox="0 0 112.8 112.8"
   version="1.1"
   id="svg125"
   xmlns="http://www.w3.org/2000/svg"
   xmlns:svg="http://www.w3.org/2000/svg">
  <defs
     id="defs12">
    <clipPath
       id="clip-0">
      <path
         clip-rule="nonzero"
         d="M 96 0 L 97 0 L 97 112.800781 L 96 112.800781 Z M 96 0 "
         id="path1" />
    </clipPath>
    <clipPath
       id="clip-1">
      <path
         clip-rule="nonzero"
         d="M 80 0 L 81 0 L 81 112.800781 L 80 112.800781 Z M 80 0 "
         id="path2" />
    </clipPath>
    <clipPath
       id="clip-2">
      <path
         clip-rule="nonzero"
         d="M 64 0 L 65 0 L 65 112.800781 L 64 112.800781 Z M 64 0 "
         id="path3" />
    </clipPath>
    <clipPath
       id="clip-3">
      <path
         clip-rule="nonzero"
         d="M 48 0 L 49 0 L 49 112.800781 L 48 112.800781 Z M 48 0 "
         id="path4" />
    </clipPath>
    <clipPath
       id="clip-4">
      <path
         clip-rule="nonzero"
         d="M 32 0 L 33 0 L 33 112.800781 L 32 112.800781 Z M 32 0 "
         id="path5" />
    </clipPath>
    <clipPath
       id="clip-5">
      <path
         clip-rule="nonzero"
         d="M 16 0 L 17 0 L 17 112.800781 L 16 112.800781 Z M 16 0 "
         id="path6" />
    </clipPath>
    <clipPath
       id="clip-6">
      <path
         clip-rule="nonzero"
         d="M 0 16 L 112.800781 16 L 112.800781 17 L 0 17 Z M 0 16 "
         id="path7" />
    </clipPath>
    <clipPath
       id="clip-7">
      <path
         clip-rule="nonzero"
         d="M 0 32 L 112.800781 32 L 112.800781 33 L 0 33 Z M 0 32 "
         id="path8" />
    </clipPath>
    <clipPath
       id="clip-8">
      <path
         clip-rule="nonzero"
         d="M 0 48 L 112.800781 48 L 112.800781 49 L 0 49 Z M 0 48 "
         id="path9" />
    </clipPath>
    <clipPath
       id="clip-9">
      <path
         clip-rule="nonzero"
         d="M 0 64 L 112.800781 64 L 112.800781 65 L 0 65 Z M 0 64 "
         id="path10" />
    </clipPath>
    <clipPath
       id="clip-10">
      <path
         clip-rule="nonzero"
         d="M 0 80 L 112.800781 80 L 112.800781 81 L 0 81 Z M 0 80 "
         id="path11" />
    </clipPath>
    <clipPath
       id="clip-11">
      <path
         clip-rule="nonzero"
         d="M 0 96 L 112.800781 96 L 112.800781 97 L 0 97 Z M 0 96 "
         id="path12" />
    </clipPath>
  </defs>
  <path
     fill="none"
     stroke-width="0.4"
     stroke-linecap="butt"
     stroke-linejoin="round"
     stroke="rgb(0%, 0%, 0%)"
     stroke-opacity="1"
     stroke-miterlimit="10"
     d="M 191.998437 767.998438 L 191.998437 655.998438 L 303.998438 655.998438 L 303.998438 767.998438 Z M 191.998437 767.998438 "
     transform="matrix(0, 1, 1, 0, -655.6, -191.6)"
     id="path13" />
  <g
     clip-path="url(#clip-0)"
     id="g14">
    <path
       fill="none"
       stroke-width="0.4"
       stroke-linecap="butt"
       stroke-linejoin="round"
       stroke="rgb(0%, 0%, 0%)"
       stroke-opacity="1"
       stroke-miterlimit="10"
       d="M 191.998437 751.998438 L 303.998438 751.998438 "
       transform="matrix(0, 1, 1, 0, -655.6, -191.6)"
       id="path14" />
  </g>
  <g
     clip-path="url(#clip-1)"
     id="g15">
    <path
       fill="none"
       stroke-width="0.4"
       stroke-linecap="butt"
       stroke-linejoin="round"
       stroke="rgb(0%, 0%, 0%)"
       stroke-opacity="1"
       stroke-miterlimit="10"
       d="M 191.998437 735.998438 L 303.998438 735.998438 "
       transform="matrix(0, 1, 1, 0, -655.6, -191.6)"
       id="path15" />
  </g>
  <g
     clip-path="url(#clip-2)"
     id="g16">
    <path
       fill="none"
       stroke-width="0.4"
       stroke-linecap="butt"
       stroke-linejoin="round"
       stroke="rgb(0%, 0%, 0%)"
       stroke-opacity="1"
       stroke-miterlimit="10"
       d="M 191.998437 719.998438 L 303.998438 719.998438 "
       transform="matrix(0, 1, 1, 0, -655.6, -191.6)"
       id="path16" />
  </g>
  <g
     clip-path="url(#clip-3)"
     id="g17">
    <path
       fill="none"
       stroke-width="0.4"
       stroke-linecap="butt"
       stroke-linejoin="round"
       stroke="rgb(0%, 0%, 0%)"
       stroke-opacity="1"
       stroke-miterlimit="10"
       d="M 191.998437 703.998438 L 303.998438 703.998438 "
       transform="matrix(0, 1, 1, 0, -655.6, -191.6)"
       id="path17" />
  </g>
  <g
     clip-path="url(#clip-4)"
     id="g18">
    <path
       fill="none"
       stroke-width="0.4"
       stroke-linecap="butt"
       stroke-linejoin="round"
       stroke="rgb(0%, 0%, 0%)"
       stroke-opacity="1"
       stroke-miterlimit="10"
       d="M 191.998437 687.998438 L 303.998438 687.998438 "
       transform="matrix(0, 1, 1, 0, -655.6, -191.6)"
       id="path18" />
  </g>
  <g
     clip-path="url(#clip-5)"
     id="g19">
    <path
       fill="none"
       stroke-width="0.4"
       stroke-linecap="butt"
       stroke-linejoin="round"
       stroke="rgb(0%, 0%, 0%)"
       stroke-opacity="1"
       stroke-miterlimit="10"
       d="M 191.998437 671.998438 L 303.998438 671.998438 "
       transform="matrix(0, 1, 1, 0, -655.6, -191.6)"
       id="path19" />
  </g>
  <g
     clip-path="url(#clip-6)"
     id="g20">
    <path
       fill="none"
       stroke-width="0.4"
       stroke-linecap="butt"
       stroke-linejoin="round"
       stroke="rgb(0%, 0%, 0%)"
       stroke-opacity="1"
       stroke-miterlimit="10"
       d="M 207.998437 655.998438 L 207.998437 767.998438 "
       transform="matrix(0, 1, 1, 0, -655.6, -191.6)"
       id="path20" />
  </g>
  <g
     clip-path="url(#clip-7)"
     id="g21">
    <path
       fill="none"
       stroke-width="0.4"
       stroke-linecap="butt"
       stroke-linejoin="round"
       stroke="rgb(0%, 0%, 0%)"
       stroke-opacity="1"
       stroke-miterlimit="10"
       d="M 223.998437 655.998438 L 223.998437 767.998438 "
       transform="matrix(0, 1, 1, 0, -655.6, -191.6)"
       id="path21" />
  </g>
  <g
     clip-path="url(#clip-8)"
     id="g22">
    <path
       fill="none"
       stroke-width="0.4"
       stroke-linecap="butt"
       stroke-linejoin="round"
       stroke="rgb(0%, 0%, 0%)"
       stroke-opacity="1"
       stroke-miterlimit="10"
       d="M 239.998437 655.998438 L 239.998437 767.998438 "
       transform="matrix(0, 1, 1, 0, -655.6, -191.6)"
       id="path22" />
  </g>
  <g
     clip-path="url(#clip-9)"
     id="g23">
    <path
       fill="none"
       stroke-width="0.4"
       stroke-linecap="butt"
       stroke-linejoin="round"
       stroke="rgb(0%, 0%, 0%)"
       stroke-opacity="1"
       stroke-miterlimit="10"
       d="M 255.998437 655.998438 L 255.998437 767.998438 "
       transform="matrix(0, 1, 1, 0, -655.6, -191.6)"
       id="path23" />
  </g>
  <g
     clip-path="url(#clip-10)"
     id="g24">
    <path
       fill="none"
       stroke-width="0.4"
       stroke-linecap="butt"
       stroke-linejoin="round"
       stroke="rgb(0%, 0%, 0%)"
       stroke-opacity="1"
       stroke-miterlimit="10"
       d="M 271.998438 655.998438 L 271.998438 767.998438 "
       transform="matrix(0, 1, 1, 0, -655.6, -191.6)"
       id="path24" />
  </g>
  <g
     clip-path="url(#clip-11)"
     id="g25">
    <path
       fill="none"
       stroke-width="0.4"
       stroke-linecap="butt"
       stroke-linejoin="round"
       stroke="rgb(0%, 0%, 0%)"
       stroke-opacity="1"
       stroke-miterlimit="10"
       d="M 287.998438 655.998438 L 287.998438 767.998438 "
       transform="matrix(0, 1, 1, 0, -655.6, -191.6)"
       id="path25" />
  </g>
  <path
     fill="none"
     stroke-width="0.8"
     stroke-linecap="butt"
     stroke-linejoin="round"
     stroke="rgb(0%, 0%, 0%)"
     stroke-opacity="1"
     stroke-miterlimit="10"
     d="M 191.998437 751.998438 L 191.998437 655.998438 L 287.998438 655.998438 L 287.998438 751.998438 Z M 191.998437 751.998438 "
     transform="matrix(0, 1, 1, 0, -655.6, -191.6)"
     id="path26" />
  <path
     fill-rule="evenodd"
     fill="rgb(100%, 100%, 100%)"
     fill-opacity="1"
     d="M 8.398438 10.898438 C 9.78125 10.898438 10.898438 9.78125 10.898438 8.398438 C 10.898438 7.019531 9.78125 5.898438 8.398438 5.898438 C 7.019531 5.898438 5.898438 7.019531 5.898438 8.398438 C 5.898438 9.78125 7.019531 10.898438 8.398438 10.898438 "
     id="path27" />
  <path
     fill-rule="evenodd"
     fill="rgb(0%, 0%, 0%)"
     fill-opacity="1"
     d="M 8.398438 11.398438 C 10.058594 11.398438 11.398438 10.058594 11.398438 8.398438 C 11.398438 6.742188 10.058594 5.398438 8.398438 5.398438 C 6.742188 5.398438 5.398438 6.742188 5.398438 8.398438 C 5.398438 10.058594 6.742188 11.398438 8.398438 11.398438 M 8.398438 10.398438 C 9.503906 10.398438 10.398438 9.503906 10.398438 8.398438 C 10.398438 7.296875 9.503906 6.398438 8.398438 6.398438 C 7.296875 6.398438 6.398438 7.296875 6.398438 8.398438 C 6.398438 9.503906 7.296875 10.398438 8.398438 10.398438 "
     id="path28" />
  <path
     fill-rule="evenodd"
     fill="rgb(100%, 100%, 100%)"
     fill-opacity="1"
     d="M 24.398438 26.898438 C 25.78125 26.898438 26.898438 25.78125 26.898438 24.398438 C 26.898438 23.019531 25.78125 21.898438 24.398438 21.898438 C 23.019531 21.898438 21.898438 23.019531 21.898438 24.398438 C 21.898438 25.78125 23.019531 26.898438 24.398438 26.898438 "
     id="path29" />
  <path
     fill-rule="evenodd"
     fill="rgb(0%, 0%, 0%)"
     fill-opacity="1"
     d="M 24.398438 27.398438 C 26.058594 27.398438 27.398438 26.058594 27.398438 24.398438 C 27.398438 22.742188 26.058594 21.398438 24.398438 21.398438 C 22.742188 21.398438 21.398438 22.742188 21.398438 24.398438 C 21.398438 26.058594 22.742188 27.398438 24.398438 27.398438 M 24.398438 26.398438 C 25.503906 26.398438 26.398438 25.503906 26.398438 24.398438 C 26.398438 23.296875 25.503906 22.398438 24.398438 22.398438 C 23.296875 22.398438 22.398438 23.296875 22.398438 24.398438 C 22.398438 25.503906 23.296875 26.398438 24.398438 26.398438 "
     id="path30" />
  <path
     fill-rule="evenodd"
     fill="rgb(100%, 100%, 100%)"
     fill-opacity="1"
     d="M 40.398438 42.898438 C 41.78125 42.898438 42.898438 41.78125 42.898438 40.398438 C 42.898438 39.019531 41.78125 37.898438 40.398438 37.898438 C 39.019531 37.898438 37.898438 39.019531 37.898438 40.398438 C 37.898438 41.78125 39.019531 42.898438 40.398438 42.898438 "
     id="path31" />
  <path
     fill-rule="evenodd"
     fill="rgb(0%, 0%, 0%)"
     fill-opacity="1"
     d="M 40.398438 43.398438 C 42.058594 43.398438 43.398438 42.058594 43.398438 40.398438 C 43.398438 38.742188 42.058594 37.398438 40.398438 37.398438 C 38.742188 37.398438 37.398438 38.742188 37.398438 40.398438 C 37.398438 42.058594 38.742188 43.398438 40.398438 43.398438 M 40.398438 42.398438 C 41.503906 42.398438 42.398438 41.503906 42.398438 40.398438 C 42.398438 39.296875 41.503906 38.398438 40.398438 38.398438 C 39.296875 38.398438 38.398438 39.296875 38.398438 40.398438 C 38.398438 41.503906 39.296875 42.398438 40.398438 42.398438 "
     id="path32" />
  <path
     fill-rule="evenodd"
     fill="rgb(100%, 100%, 100%)"
     fill-opacity="1"
     d="M 56.398438 58.898438 C 57.78125 58.898438 58.898438 57.78125 58.898438 56.398438 C 58.898438 55.019531 57.78125 53.898438 56.398438 53.898438 C 55.019531 53.898438 53.898438 55.019531 53.898438 56.398438 C 53.898438 57.78125 55.019531 58.898438 56.398438 58.898438 "
     id="path33" />
  <path
     fill-rule="evenodd"
     fill="rgb(0%, 0%, 0%)"
     fill-opacity="1"
     d="M 56.398438 59.398438 C 58.058594 59.398438 59.398438 58.058594 59.398438 56.398438 C 59.398438 54.742188 58.058594 53.398438 56.398438 53.398438 C 54.742188 53.398438 53.398438 54.742188 53.398438 56.398438 C 53.398438 58.058594 54.742188 59.398438 56.398438 59.398438 M 56.398438 58.398438 C 57.503906 58.398438 58.398438 57.503906 58.398438 56.398438 C 58.398438 55.296875 57.503906 54.398438 56.398438 54.398438 C 55.296875 54.398438 54.398438 55.296875 54.398438 56.398438 C 54.398438 57.503906 55.296875 58.398438 56.398438 58.398438 "
     id="path34" />
  <path
     fill-rule="evenodd"
     fill="rgb(100%, 100%, 100%)"
     fill-opacity="1"
     d="M 72.398438 74.898438 C 73.78125 74.898438 74.898438 73.78125 74.898438 72.398438 C 74.898438 71.019531 73.78125 69.898438 72.398438 69.898438 C 71.019531 69.898438 69.898438 71.019531 69.898438 72.398438 C 69.898438 73.78125 71.019531 74.898438 72.398438 74.898438 "
     id="path35" />
  <path
     fill-rule="evenodd"
     fill="rgb(0%, 0%, 0%)"
     fill-opacity="1"
     d="M 72.398438 75.398438 C 74.058594 75.398438 75.398438 74.058594 75.398438 72.398438 C 75.398438 70.742188 74.058594 69.398438 72.398438 69.398438 C 70.742188 69.398438 69.398438 70.742188 69.398438 72.398438 C 69.398438 74.058594 70.742188 75.398438 72.398438 75.398438 M 72.398438 74.398438 C 73.503906 74.398438 74.398438 73.503906 74.398438 72.398438 C 74.398438 71.296875 73.503906 70.398438 72.398438 70.398438 C 71.296875 70.398438 70.398438 71.296875 70.398438 72.398438 C 70.398438 73.503906 71.296875 74.398438 72.398438 74.398438 "
     id="path36" />
  <path
     fill-rule="evenodd"
     fill="rgb(100%, 100%, 100%)"
     fill-opacity="1"
     d="M 88.398438 90.898438 C 89.78125 90.898438 90.898438 89.78125 90.898438 88.398438 C 90.898438 87.019531 89.78125 85.898438 88.398438 85.898438 C 87.019531 85.898438 85.898438 87.019531 85.898438 88.398438 C 85.898438 89.78125 87.019531 90.898438 88.398438 90.898438 "
     id="path37" />
  <path
     fill-rule="evenodd"
     fill="rgb(0%, 0%, 0%)"
     fill-opacity="1"
     d="M 88.398438 91.398438 C 90.058594 91.398438 91.398438 90.058594 91.398438 88.398438 C 91.398438 86.742188 90.058594 85.398438 88.398438 85.398438 C 86.742188 85.398438 85.398438 86.742188 85.398438 88.398438 C 85.398438 90.058594 86.742188 91.398438 88.398438 91.398438 M 88.398438 90.398438 C 89.503906 90.398438 90.398438 89.503906 90.398438 88.398438 C 90.398438 87.296875 89.503906 86.398438 88.398438 86.398438 C 87.296875 86.398438 86.398438 87.296875 86.398438 88.398438 C 86.398438 89.503906 87.296875 90.398438 88.398438 90.398438 "
     id="path38" />
  <path
     fill-rule="evenodd"
     fill="rgb(100%, 100%, 100%)"
     fill-opacity="1"
     d="M 24.398438 10.898438 C 25.78125 10.898438 26.898438 9.78125 26.898438 8.398438 C 26.898438 7.019531 25.78125 5.898438 24.398438 5.898438 C 23.019531 5.898438 21.898438 7.019531 21.898438 8.398438 C 21.898438 9.78125 23.019531 10.898438 24.398438 10.898438 "
     id="path39" />
  <path
     fill-rule="evenodd"
     fill="rgb(0%, 0%, 0%)"
     fill-opacity="1"
     d="M 24.398438 11.398438 C 26.058594 11.398438 27.398438 10.058594 27.398438 8.398438 C 27.398438 6.742188 26.058594 5.398438 24.398438 5.398438 C 22.742188 5.398438 21.398438 6.742188 21.398438 8.398438 C 21.398438 10.058594 22.742188 11.398438 24.398438 11.398438 M 24.398438 10.398438 C 25.503906 10.398438 26.398438 9.503906 26.398438 8.398438 C 26.398438 7.296875 25.503906 6.398438 24.398438 6.398438 C 23.296875 6.398438 22.398438 7.296875 22.398438 8.398438 C 22.398438 9.503906 23.296875 10.398438 24.398438 10.398438 "
     id="path40" />
  <path
     fill-rule="evenodd"
     fill="rgb(100%, 100%, 100%)"
     fill-opacity="1"
     d="M 40.398438 26.898438 C 41.78125 26.898438 42.898438 25.78125 42.898438 24.398438 C 42.898438 23.019531 41.78125 21.898438 40.398438 21.898438 C 39.019531 21.898438 37.898438 23.019531 37.898438 24.398438 C 37.898438 25.78125 39.019531 26.898438 40.398438 26.898438 "
     id="path41" />
  <path
     fill-rule="evenodd"
     fill="rgb(0%, 0%, 0%)"
     fill-opacity="1"
     d="M 40.398438 27.398438 C 42.058594 27.398438 43.398438 26.058594 43.398438 24.398438 C 43.398438 22.742188 42.058594 21.398438 40.398438 21.398438 C 38.742188 21.398438 37.398438 22.742188 37.398438 24.398438 C 37.398438 26.058594 38.742188 27.398438 40.398438 27.398438 M 40.398438 26.398438 C 41.503906 26.398438 42.398438 25.503906 42.398438 24.398438 C 42.398438 23.296875 41.503906 22.398438 40.398438 22.398438 C 39.296875 22.398438 38.398438 23.296875 38.398438 24.398438 C 38.398438 25.503906 39.296875 26.398438 40.398438 26.398438 "
     id="path42" />
  <path
     fill-rule="evenodd"
     fill="rgb(100%, 100%, 100%)"
     fill-opacity="1"
     d="M 56.398438 42.898438 C 57.78125 42.898438 58.898438 41.78125 58.898438 40.398438 C 58.898438 39.019531 57.78125 37.898438 56.398438 37.898438 C 55.019531 37.898438 53.898438 39.019531 53.898438 40.398438 C 53.898438 41.78125 55.019531 42.898438 56.398438 42.898438 "
     id="path43" />
  <path
     fill-rule="evenodd"
     fill="rgb(0%, 0%, 0%)"
     fill-opacity="1"
     d="M 56.398438 43.398438 C 58.058594 43.398438 59.398438 42.058594 59.398438 40.398438 C 59.398438 38.742188 58.058594 37.398438 56.398438 37.398438 C 54.742188 37.398438 53.398438 38.742188 53.398438 40.398438 C 53.398438 42.058594 54.742188 43.398438 56.398438 43.398438 M 56.398438 42.398438 C 57.503906 42.398438 58.398438 41.503906 58.398438 40.398438 C 58.398438 39.296875 57.503906 38.398438 56.398438 38.398438 C 55.296875 38.398438 54.398438 39.296875 54.398438 40.398438 C 54.398438 41.503906 55.296875 42.398438 56.398438 42.398438 "
     id="path44" />
  <path
     fill-rule="evenodd"
     fill="rgb(100%, 100%, 100%)"
     fill-opacity="1"
     d="M 72.398438 58.898438 C 73.78125 58.898438 74.898438 57.78125 74.898438 56.398438 C 74.898438 55.019531 73.78125 53.898438 72.398438 53.898438 C 71.019531 53.898438 69.898438 55.019531 69.898438 56.398438 C 69.898438 57.78125 71.019531 58.898438 72.398438 58.898438 "
     id="path45" />
  <path
     fill-rule="evenodd"
     fill="rgb(0%, 0%, 0%)"
     fill-opacity="1"
     d="M 72.398438 59.398438 C 74.058594 59.398438 75.398438 58.058594 75.398438 56.398438 C 75.398438 54.742188 74.058594 53.398438 72.398438 53.398438 C 70.742188 53.398438 69.398438 54.742188 69.398438 56.398438 C 69.398438 58.058594 70.742188 59.398438 72.398438 59.398438 M 72.398438 58.398438 C 73.503906 58.398438 74.398438 57.503906 74.398438 56.398438 C 74.398438 55.296875 73.503906 54.398438 72.398438 54.398438 C 71.296875 54.398438 70.398438 55.296875 70.398438 56.398438 C 70.398438 57.503906 71.296875 58.398438 72.398438 58.398438 "
     id="path46" />
  <path
     fill-rule="evenodd"
     fill="rgb(100%, 100%, 100%)"
     fill-opacity="1"
     d="M 88.398438 74.898438 C 89.78125 74.898438 90.898438 73.78125 90.898438 72.398438 C 90.898438 71.019531 89.78125 69.898438 88.398438 69.898438 C 87.019531 69.898438 85.898438 71.019531 85.898438 72.398438 C 85.898438 73.78125 87.019531 74.898438 88.398438 74.898438 "
     id="path47" />
  <path
     fill-rule="evenodd"
     fill="rgb(0%, 0%, 0%)"
     fill-opacity="1"
     d="M 88.398438 75.398438 C 90.058594 75.398438 91.398438 74.058594 91.398438 72.398438 C 91.398438 70.742188 90.058594 69.398438 88.398438 69.398438 C 86.742188 69.398438 85.398438 70.742188 85.398438 72.398438 C 85.398438 74.058594 86.742188 75.398438 88.398438 75.398438 M 88.398438 74.398438 C 89.503906 74.398438 90.398438 73.503906 90.398438 72.398438 C 90.398438 71.296875 89.503906 70.398438 88.398438 70.398438 C 87.296875 70.398438 86.398438 71.296875 86.398438 72.398438 C 86.398438 73.503906 87.296875 74.398438 88.398438 74.398438 "
     id="path48" />
  <path
     fill-rule="evenodd"
     fill="rgb(100%, 100%, 100%)"
     fill-opacity="1"
     d="M 8.398438 90.898438 C 9.78125 90.898438 10.898438 89.78125 10.898438 88.398438 C 10.898438 87.019531 9.78125 85.898438 8.398438 85.898438 C 7.019531 85.898438 5.898438 87.019531 5.898438 88.398438 C 5.898438 89.78125 7.019531 90.898438 8.398438 90.898438 "
     id="path49" />
  <path
     fill-rule="evenodd"
     fill="rgb(0%, 0%, 0%)"
     fill-opacity="1"
     d="M 8.398438 91.398438 C 10.058594 91.398438 11.398438 90.058594 11.398438 88.398438 C 11.398438 86.742188 10.058594 85.398438 8.398438 85.398438 C 6.742188 85.398438 5.398438 86.742188 5.398438 88.398438 C 5.398438 90.058594 6.742188 91.398438 8.398438 91.398438 M 8.398438 90.398438 C 9.503906 90.398438 10.398438 89.503906 10.398438 88.398438 C 10.398438 87.296875 9.503906 86.398438 8.398438 86.398438 C 7.296875 86.398438 6.398438 87.296875 6.398438 88.398438 C 6.398438 89.503906 7.296875 90.398438 8.398438 90.398438 "
     id="path50" />
  <path
     fill-rule="evenodd"
     fill="rgb(100%, 100%, 100%)"
     fill-opacity="1"
     d="M 40.398438 10.898438 C 41.78125 10.898438 42.898438 9.78125 42.898438 8.398438 C 42.898438 7.019531 41.78125 5.898438 40.398438 5.898438 C 39.019531 5.898438 37.898438 7.019531 37.898438 8.398438 C 37.898438 9.78125 39.019531 10.898438 40.398438 10.898438 "
     id="path51" />
  <path
     fill-rule="evenodd"
     fill="rgb(0%, 0%, 0%)"
     fill-opacity="1"
     d="M 40.398438 11.398438 C 42.058594 11.398438 43.398438 10.058594 43.398438 8.398438 C 43.398438 6.742188 42.058594 5.398438 40.398438 5.398438 C 38.742188 5.398438 37.398438 6.742188 37.398438 8.398438 C 37.398438 10.058594 38.742188 11.398438 40.398438 11.398438 M 40.398438 10.398438 C 41.503906 10.398438 42.398438 9.503906 42.398438 8.398438 C 42.398438 7.296875 41.503906 6.398438 40.398438 6.398438 C 39.296875 6.398438 38.398438 7.296875 38.398438 8.398438 C 38.398438 9.503906 39.296875 10.398438 40.398438 10.398438 "
     id="path52" />
  <path
     fill-rule="evenodd"
     fill="rgb(100%, 100%, 100%)"
     fill-opacity="1"
     d="M 56.398438 26.898438 C 57.78125 26.898438 58.898438 25.78125 58.898438 24.398438 C 58.898438 23.019531 57.78125 21.898438 56.398438 21.898438 C 55.019531 21.898438 53.898438 23.019531 53.898438 24.398438 C 53.898438 25.78125 55.019531 26.898438 56.398438 26.898438 "
     id="path53" />
  <path
     fill-rule="evenodd"
     fill="rgb(0%, 0%, 0%)"
     fill-opacity="1"
     d="M 56.398438 27.398438 C 58.058594 27.398438 59.398438 26.058594 59.398438 24.398438 C 59.398438 22.742188 58.058594 21.398438 56.398438 21.398438 C 54.742188 21.398438 53.398438 22.742188 53.398438 24.398438 C 53.398438 26.058594 54.742188 27.398438 56.398438 27.398438 M 56.398438 26.398438 C 57.503906 26.398438 58.398438 25.503906 58.398438 24.398438 C 58.398438 23.296875 57.503906 22.398438 56.398438 22.398438 C 55.296875 22.398438 54.398438 23.296875 54.398438 24.398438 C 54.398438 25.503906 55.296875 26.398438 56.398438 26.398438 "
     id="path54" />
  <path
     fill-rule="evenodd"
     fill="rgb(100%, 100%, 100%)"
     fill-opacity="1"
     d="M 72.398438 42.898438 C 73.78125 42.898438 74.898438 41.78125 74.898438 40.398438 C 74.898438 39.019531 73.78125 37.898438 72.398438 37.898438 C 71.019531 37.898438 69.898438 39.019531 69.898438 40.398438 C 69.898438 41.78125 71.019531 42.898438 72.398438 42.898438 "
     id="path55" />
  <path
     fill-rule="evenodd"
     fill="rgb(0%, 0%, 0%)"
     fill-opacity="1"
     d="M 72.398438 43.398438 C 74.058594 43.398438 75.398438 42.058594 75.398438 40.398438 C 75.398438 38.742188 74.058594 37.398438 72.398438 37.398438 C 70.742188 37.398438 69.398438 38.742188 69.398438 40.398438 C 69.398438 42.058594 70.742188 43.398438 72.398438 43.398438 M 72.398438 42.398438 C 73.503906 42.398438 74.398438 41.503906 74.398438 40.398438 C 74.398438 39.296875 73.503906 38.398438 72.398438 38.398438 C 71.296875 38.398438 70.398438 39.296875 70.398438 40.398438 C 70.398438 41.503906 71.296875 42.398438 72.398438 42.398438 "
     id="path56" />
  <path
     fill-rule="evenodd"
     fill="rgb(100%, 100%, 100%)"
     fill-opacity="1"
     d="M 88.398438 58.898438 C 89.78125 58.898438 90.898438 57.78125 90.898438 56.398438 C 90.898438 55.019531 89.78125 53.898438 88.398438 53.898438 C 87.019531 53.898438 85.898438 55.019531 85.898438 56.398438 C 85.898438 57.78125 87.019531 58.898438 88.398438 58.898438 "
     id="path57" />
  <path
     fill-rule="evenodd"
     fill="rgb(0%, 0%, 0%)"
     fill-opacity="1"
     d="M 88.398438 59.398438 C 90.058594 59.398438 91.398438 58.058594 91.398438 56.398438 C 91.398438 54.742188 90.058594 53.398438 88.398438 53.398438 C 86.742188 53.398438 85.398438 54.742188 85.398438 56.398438 C 85.398438 58.058594 86.742188 59.398438 88.398438 59.398438 M 88.398438 58.398438 C 89.503906 58.398438 90.398438 57.503906 90.398438 56.398438 C 90.398438 55.296875 89.503906 54.398438 88.398438 54.398438 C 87.296875 54.398438 86.398438 55.296875 86.398438 56.398438 C 86.398438 57.503906 87.296875 58.398438 88.398438 58.398438 "
     id="path58" />
  <path
     fill-rule="evenodd"
     fill="rgb(100%, 100%, 100%)"
     fill-opacity="1"
     d="M 8.398438 74.898438 C 9.78125 74.898438 10.898438 73.78125 10.898438 72.398438 C 10.898438 71.019531 9.78125 69.898438 8.398438 69.898438 C 7.019531 69.898438 5.898438 71.019531 5.898438 72.398438 C 5.898438 73.78125 7.019531 74.898438 8.398438 74.898438 "
     id="path59" />
  <path
     fill-rule="evenodd"
     fill="rgb(0%, 0%, 0%)"
     fill-opacity="1"
     d="M 8.398438 75.398438 C 10.058594 75.398438 11.398438 74.058594 11.398438 72.398438 C 11.398438 70.742188 10.058594 69.398438 8.398438 69.398438 C 6.742188 69.398438 5.398438 70.742188 5.398438 72.398438 C 5.398438 74.058594 6.742188 75.398438 8.398438 75.398438 M 8.398438 74.398438 C 9.503906 74.398438 10.398438 73.503906 10.398438 72.398438 C 10.398438 71.296875 9.503906 70.398438 8.398438 70.398438 C 7.296875 70.398438 6.398438 71.296875 6.398438 72.398438 C 6.398438 73.503906 7.296875 74.398438 8.398438 74.398438 "
     id="path60" />
  <path
     fill-rule="evenodd"
     fill="rgb(100%, 100%, 100%)"
     fill-opacity="1"
     d="M 24.398438 90.898438 C 25.78125 90.898438 26.898438 89.78125 26.898438 88.398438 C 26.898438 87.019531 25.78125 85.898438 24.398438 85.898438 C 23.019531 85.898438 21.898438 87.019531 21.898438 88.398438 C 21.898438 89.78125 23.019531 90.898438 24.398438 90.898438 "
     id="path61" />
  <path
     fill-rule="evenodd"
     fill="rgb(0%, 0%, 0%)"
     fill-opacity="1"
     d="M 24.398438 91.398438 C 26.058594 91.398438 27.398438 90.058594 27.398438 88.398438 C 27.398438 86.742188 26.058594 85.398438 24.398438 85.398438 C 22.742188 85.398438 21.398438 86.742188 21.398438 88.398438 C 21.398438 90.058594 22.742188 91.398438 24.398438 91.398438 M 24.398438 90.398438 C 25.503906 90.398438 26.398438 89.503906 26.398438 88.398438 C 26.398438 87.296875 25.503906 86.398438 24.398438 86.398438 C 23.296875 86.398438 22.398438 87.296875 22.398438 88.398438 C 22.398438 89.503906 23.296875 90.398438 24.398438 90.398438 "
     id="path62" />
  <path
     fill-rule="evenodd"
     fill="rgb(100%, 100%, 100%)"
     fill-opacity="1"
     d="M 56.398438 10.898438 C 57.78125 10.898438 58.898438 9.78125 58.898438 8.398438 C 58.898438 7.019531 57.78125 5.898438 56.398438 5.898438 C 55.019531 5.898438 53.898438 7.019531 53.898438 8.398438 C 53.898438 9.78125 55.019531 10.898438 56.398438 10.898438 "
     id="path63" />
  <path
     fill-rule="evenodd"
     fill="rgb(0%, 0%, 0%)"
     fill-opacity="1"
     d="M 56.398438 11.398438 C 58.058594 11.398438 59.398438 10.058594 59.398438 8.398438 C 59.398438 6.742188 58.058594 5.398438 56.398438 5.398438 C 54.742188 5.398438 53.398438 6.742188 53.398438 8.398438 C 53.398438 10.058594 54.742188 11.398438 56.398438 11.398438 M 56.398438 10.398438 C 57.503906 10.398438 58.398438 9.503906 58.398438 8.398438 C 58.398438 7.296875 57.503906 6.398438 56.398438 6.398438 C 55.296875 6.398438 54.398438 7.296875 54.398438 8.398438 C 54.398438 9.503906 55.296875 10.398438 56.398438 10.398438 "
     id="path64" />
  <path
     fill-rule="evenodd"
     fill="rgb(100%, 100%, 100%)"
     fill-opacity="1"
     d="M 72.398438 26.898438 C 73.78125 26.898438 74.898438 25.78125 74.898438 24.398438 C 74.898438 23.019531 73.78125 21.898438 72.398438 21.898438 C 71.019531 21.898438 69.898438 23.019531 69.898438 24.398438 C 69.898438 25.78125 71.019531 26.898438 72.398438 26.898438 "
     id="path65" />
  <path
     fill-rule="evenodd"
     fill="rgb(0%, 0%, 0%)"
     fill-opacity="1"
     d="M 72.398438 27.398438 C 74.058594 27.398438 75.398438 26.058594 75.398438 24.398438 C 75.398438 22.742188 74.058594 21.398438 72.398438 21.398438 C 70.742188 21.398438 69.398438 22.742188 69.398438 24.398438 C 69.398438 26.058594 70.742188 27.398438 72.398438 27.398438 M 72.398438 26.398438 C 73.503906 26.398438 74.398438 25.503906 74.398438 24.398438 C 74.398438 23.296875 73.503906 22.398438 72.398438 22.398438 C 71.296875 22.398438 70.398438 23.296875 70.398438 24.398438 C 70.398438 25.503906 71.296875 26.398438 72.398438 26.398438 "
     id="path66" />
  <path
     fill-rule="evenodd"
     fill="rgb(100%, 100%, 100%)"
     fill-opacity="1"
     d="M 88.398438 42.898438 C 89.78125 42.898438 90.898438 41.78125 90.898438 40.398438 C 90.898438 39.019531 89.78125 37.898438 88.398438 37.898438 C 87.019531 37.898438 85.898438 39.019531 85.898438 40.398438 C 85.898438 41.78125 87.019531 42.898438 88.398438 42.898438 "
     id="path67" />
  <path
     fill-rule="evenodd"
     fill="rgb(0%, 0%, 0%)"
     fill-opacity="1"
     d="M 88.398438 43.398438 C 90.058594 43.398438 91.398438 42.058594 91.398438 40.398438 C 91.398438 38.742188 90.058594 37.398438 88.398438 37.398438 C 86.742188 37.398438 85.398438 38.742188 85.398438 40.398438 C 85.398438 42.058594 86.742188 43.398438 88.398438 43.398438 M 88.398438 42.398438 C 89.503906 42.398438 90.398438 41.503906 90.398438 40.398438 C 90.398438 39.296875 89.503906 38.398438 88.398438 38.398438 C 87.296875 38.398438 86.398438 39.296875 86.398438 40.398438 C 86.398438 41.503906 87.296875 42.398438 88.398438 42.398438 "
     id="path68" />
  <path
     fill-rule="evenodd"
     fill="rgb(100%, 100%, 100%)"
     fill-opacity="1"
     d="M 8.398438 58.898438 C 9.78125 58.898438 10.898438 57.78125 10.898438 56.398438 C 10.898438 55.019531 9.78125 53.898438 8.398438 53.898438 C 7.019531 53.898438 5.898438 55.019531 5.898438 56.398438 C 5.898438 57.78125 7.019531 58.898438 8.398438 58.898438 "
     id="path69" />
  <path
     fill-rule="evenodd"
     fill="rgb(0%, 0%, 0%)"
     fill-opacity="1"
     d="M 8.398438 59.398438 C 10.058594 59.398438 11.398438 58.058594 11.398438 56.398438 C 11.398438 54.742188 10.058594 53.398438 8.398438 53.398438 C 6.742188 53.398438 5.398438 54.742188 5.398438 56.398438 C 5.398438 58.058594 6.742188 59.398438 8.398438 59.398438 M 8.398438 58.398438 C 9.503906 58.398438 10.398438 57.503906 10.398438 56.398438 C 10.398438 55.296875 9.503906 54.398438 8.398438 54.398438 C 7.296875 54.398438 6.398438 55.296875 6.398438 56.398438 C 6.398438 57.503906 7.296875 58.398438 8.398438 58.398438 "
     id="path70" />
  <path
     fill-rule="evenodd"
     fill="rgb(100%, 100%, 100%)"
     fill-opacity="1"
     d="M 24.398438 74.898438 C 25.78125 74.898438 26.898438 73.78125 26.898438 72.398438 C 26.898438 71.019531 25.78125 69.898438 24.398438 69.898438 C 23.019531 69.898438 21.898438 71.019531 21.898438 72.398438 C 21.898438 73.78125 23.019531 74.898438 24.398438 74.898438 "
     id="path71" />
  <path
     fill-rule="evenodd"
     fill="rgb(0%, 0%, 0%)"
     fill-opacity="1"
     d="M 24.398438 75.398438 C 26.058594 75.398438 27.398438 74.058594 27.398438 72.398438 C 27.398438 70.742188 26.058594 69.398438 24.398438 69.398438 C 22.742188 69.398438 21.398438 70.742188 21.398438 72.398438 C 21.398438 74.058594 22.742188 75.398438 24.398438 75.398438 M 24.398438 74.398438 C 25.503906 74.398438 26.398438 73.503906 26.398438 72.398438 C 26.398438 71.296875 25.503906 70.398438 24.398438 70.398438 C 23.296875 70.398438 22.398438 71.296875 22.398438 72.398438 C 22.398438 73.503906 23.296875 74.398438 24.398438 74.398438 "
     id="path72" />
  <path
     fill-rule="evenodd"
     fill="rgb(100%, 100%, 100%)"
     fill-opacity="1"
     d="M 40.398438 90.898438 C 41.78125 90.898438 42.898438 89.78125 42.898438 88.398438 C 42.898438 87.019531 41.78125 85.898438 40.398438 85.898438 C 39.019531 85.898438 37.898438 87.019531 37.898438 88.398438 C 37.898438 89.78125 39.019531 90.898438 40.398438 90.898438 "
     id="path73" />
  <path
     fill-rule="evenodd"
     fill="rgb(0%, 0%, 0%)"
     fill-opacity="1"
     d="M 40.398438 91.398438 C 42.058594 91.398438 43.398438 90.058594 43.398438 88.398438 C 43.398438 86.742188 42.058594 85.398438 40.398438 85.398438 C 38.742188 85.398438 37.398438 86.742188 37.398438 88.398438 C 37.398438 90.058594 38.742188 91.398438 40.398438 91.398438 M 40.398438 90.398438 C 41.503906 90.398438 42.398438 89.503906 42.398438 88.398438 C 42.398438 87.296875 41.503906 86.398438 40.398438 86.398438 C 39.296875 86.398438 38.398438 87.296875 38.398438 88.398438 C 38.398438 89.503906 39.296875 90.398438 40.398438 90.398438 "
     id="path74" />
  <path
     fill="none"
     stroke-width="0.8"
     stroke-linecap="butt"
     stroke-linejoin="round"
     stroke="rgb(0%, 0%, 0%)"
     stroke-opacity="1"
     stroke-miterlimit="10"
     d="M 191.998437 767.998438 L 191.998437 655.998438 L 303.998438 655.998438 L 303.998438 767.998438 Z M 191.998437 767.998438 "
     transform="matrix(0, 1, 1, 0, -655.6, -191.6)"
     id="path75" />
  <path
     fill-rule="evenodd"
     fill="rgb(74.499512%, 74.499512%, 74.499512%)"
     fill-opacity="1"
     d="M 69.550781 6.25 L 74.550781 11.25 L 75.25 10.550781 L 70.25 5.550781 Z M 69.550781 6.25 "
     id="path76" />
  <path
     fill-rule="evenodd"
     fill="rgb(74.499512%, 74.499512%, 74.499512%)"
     fill-opacity="1"
     d="M 75.25 6.25 L 70.25 11.25 L 69.550781 10.550781 L 74.550781 5.550781 Z M 75.25 6.25 "
     id="path77" />
  <path
     fill-rule="evenodd"
     fill="rgb(74.499512%, 74.499512%, 74.499512%)"
     fill-opacity="1"
     d="M 85.550781 22.25 L 90.550781 27.25 L 91.25 26.550781 L 86.25 21.550781 Z M 85.550781 22.25 "
     id="path78" />
  <path
     fill-rule="evenodd"
     fill="rgb(74.499512%, 74.499512%, 74.499512%)"
     fill-opacity="1"
     d="M 91.25 22.25 L 86.25 27.25 L 85.550781 26.550781 L 90.550781 21.550781 Z M 91.25 22.25 "
     id="path79" />
  <path
     fill-rule="evenodd"
     fill="rgb(74.499512%, 74.499512%, 74.499512%)"
     fill-opacity="1"
     d="M 85.550781 6.25 L 90.550781 11.25 L 91.25 10.550781 L 86.25 5.550781 Z M 85.550781 6.25 "
     id="path80" />
  <path
     fill-rule="evenodd"
     fill="rgb(74.499512%, 74.499512%, 74.499512%)"
     fill-opacity="1"
     d="M 91.25 6.25 L 86.25 11.25 L 85.550781 10.550781 L 90.550781 5.550781 Z M 91.25 6.25 "
     id="path81" />
  <path
     fill-rule="evenodd"
     fill="rgb(74.499512%, 74.499512%, 74.499512%)"
     fill-opacity="1"
     d="M 101.550781 6.25 L 106.550781 11.25 L 107.25 10.550781 L 102.25 5.550781 Z M 101.550781 6.25 "
     id="path82" />
  <path
     fill-rule="evenodd"
     fill="rgb(74.499512%, 74.499512%, 74.499512%)"
     fill-opacity="1"
     d="M 107.25 6.25 L 102.25 11.25 L 101.550781 10.550781 L 106.550781 5.550781 Z M 107.25 6.25 "
     id="path83" />
  <path
     fill-rule="evenodd"
     fill="rgb(74.499512%, 74.499512%, 74.499512%)"
     fill-opacity="1"
     d="M 101.550781 22.25 L 106.550781 27.25 L 107.25 26.550781 L 102.25 21.550781 Z M 101.550781 22.25 "
     id="path84" />
  <path
     fill-rule="evenodd"
     fill="rgb(74.499512%, 74.499512%, 74.499512%)"
     fill-opacity="1"
     d="M 107.25 22.25 L 102.25 27.25 L 101.550781 26.550781 L 106.550781 21.550781 Z M 107.25 22.25 "
     id="path85" />
  <path
     fill-rule="evenodd"
     fill="rgb(74.499512%, 74.499512%, 74.499512%)"
     fill-opacity="1"
     d="M 101.550781 38.25 L 106.550781 43.25 L 107.25 42.550781 L 102.25 37.550781 Z M 101.550781 38.25 "
     id="path86" />
  <path
     fill-rule="evenodd"
     fill="rgb(74.499512%, 74.499512%, 74.499512%)"
     fill-opacity="1"
     d="M 107.25 38.25 L 102.25 43.25 L 101.550781 42.550781 L 106.550781 37.550781 Z M 107.25 38.25 "
     id="path87" />
  <path
     fill-rule="evenodd"
     fill="rgb(74.499512%, 74.499512%, 74.499512%)"
     fill-opacity="1"
     d="M 101.550781 54.25 L 106.550781 59.25 L 107.25 58.550781 L 102.25 53.550781 Z M 101.550781 54.25 "
     id="path88" />
  <path
     fill-rule="evenodd"
     fill="rgb(74.499512%, 74.499512%, 74.499512%)"
     fill-opacity="1"
     d="M 107.25 54.25 L 102.25 59.25 L 101.550781 58.550781 L 106.550781 53.550781 Z M 107.25 54.25 "
     id="path89" />
  <path
     fill-rule="evenodd"
     fill="rgb(74.499512%, 74.499512%, 74.499512%)"
     fill-opacity="1"
     d="M 101.550781 70.25 L 106.550781 75.25 L 107.25 74.550781 L 102.25 69.550781 Z M 101.550781 70.25 "
     id="path90" />
  <path
     fill-rule="evenodd"
     fill="rgb(74.499512%, 74.499512%, 74.499512%)"
     fill-opacity="1"
     d="M 107.25 70.25 L 102.25 75.25 L 101.550781 74.550781 L 106.550781 69.550781 Z M 107.25 70.25 "
     id="path91" />
  <path
     fill-rule="evenodd"
     fill="rgb(74.499512%, 74.499512%, 74.499512%)"
     fill-opacity="1"
     d="M 101.550781 86.25 L 106.550781 91.25 L 107.25 90.550781 L 102.25 85.550781 Z M 101.550781 86.25 "
     id="path92" />
  <path
     fill-rule="evenodd"
     fill="rgb(74.499512%, 74.499512%, 74.499512%)"
     fill-opacity="1"
     d="M 107.25 86.25 L 102.25 91.25 L 101.550781 90.550781 L 106.550781 85.550781 Z M 107.25 86.25 "
     id="path93" />
  <path
     fill-rule="evenodd"
     fill="rgb(74.499512%, 74.499512%, 74.499512%)"
     fill-opacity="1"
     d="M 101.550781 102.25 L 106.550781 107.25 L 107.25 106.550781 L 102.25 101.550781 Z M 101.550781 102.25 "
     id="path94" />
  <path
     fill-rule="evenodd"
     fill="rgb(74.499512%, 74.499512%, 74.499512%)"
     fill-opacity="1"
     d="M 107.25 102.25 L 102.25 107.25 L 101.550781 106.550781 L 106.550781 101.550781 Z M 107.25 102.25 "
     id="path95" />
  <path
     fill-rule="evenodd"
     fill="rgb(74.499512%, 74.499512%, 74.499512%)"
     fill-opacity="1"
     d="M 85.550781 102.25 L 90.550781 107.25 L 91.25 106.550781 L 86.25 101.550781 Z M 85.550781 102.25 "
     id="path96" />
  <path
     fill-rule="evenodd"
     fill="rgb(74.499512%, 74.499512%, 74.499512%)"
     fill-opacity="1"
     d="M 91.25 102.25 L 86.25 107.25 L 85.550781 106.550781 L 90.550781 101.550781 Z M 91.25 102.25 "
     id="path97" />
  <path
     fill-rule="evenodd"
     fill="rgb(74.499512%, 74.499512%, 74.499512%)"
     fill-opacity="1"
     d="M 69.550781 102.25 L 74.550781 107.25 L 75.25 106.550781 L 70.25 101.550781 Z M 69.550781 102.25 "
     id="path98" />
  <path
     fill-rule="evenodd"
     fill="rgb(74.499512%, 74.499512%, 74.499512%)"
     fill-opacity="1"
     d="M 75.25 102.25 L 70.25 107.25 L 69.550781 106.550781 L 74.550781 101.550781 Z M 75.25 102.25 "
     id="path99" />
  <path
     fill-rule="evenodd"
     fill="rgb(74.499512%, 74.499512%, 74.499512%)"
     fill-opacity="1"
     d="M 53.550781 102.25 L 58.550781 107.25 L 59.25 106.550781 L 54.25 101.550781 Z M 53.550781 102.25 "
     id="path100" />
  <path
     fill-rule="evenodd"
     fill="rgb(74.499512%, 74.499512%, 74.499512%)"
     fill-opacity="1"
     d="M 59.25 102.25 L 54.25 107.25 L 53.550781 106.550781 L 58.550781 101.550781 Z M 59.25 102.25 "
     id="path101" />
  <path
     fill-rule="evenodd"
     fill="rgb(74.499512%, 74.499512%, 74.499512%)"
     fill-opacity="1"
     d="M 37.550781 102.25 L 42.550781 107.25 L 43.25 106.550781 L 38.25 101.550781 Z M 37.550781 102.25 "
     id="path102" />
  <path
     fill-rule="evenodd"
     fill="rgb(74.499512%, 74.499512%, 74.499512%)"
     fill-opacity="1"
     d="M 43.25 102.25 L 38.25 107.25 L 37.550781 106.550781 L 42.550781 101.550781 Z M 43.25 102.25 "
     id="path103" />
  <path
     fill-rule="evenodd"
     fill="rgb(74.499512%, 74.499512%, 74.499512%)"
     fill-opacity="1"
     d="M 21.550781 102.25 L 26.550781 107.25 L 27.25 106.550781 L 22.25 101.550781 Z M 21.550781 102.25 "
     id="path104" />
  <path
     fill-rule="evenodd"
     fill="rgb(74.499512%, 74.499512%, 74.499512%)"
     fill-opacity="1"
     d="M 27.25 102.25 L 22.25 107.25 L 21.550781 106.550781 L 26.550781 101.550781 Z M 27.25 102.25 "
     id="path105" />
  <path
     fill-rule="evenodd"
     fill="rgb(74.499512%, 74.499512%, 74.499512%)"
     fill-opacity="1"
     d="M 5.550781 102.25 L 10.550781 107.25 L 11.25 106.550781 L 6.25 101.550781 Z M 5.550781 102.25 "
     id="path106" />
  <path
     fill-rule="evenodd"
     fill="rgb(74.499512%, 74.499512%, 74.499512%)"
     fill-opacity="1"
     d="M 11.25 102.25 L 6.25 107.25 L 5.550781 106.550781 L 10.550781 101.550781 Z M 11.25 102.25 "
     id="path107" />
  <path
     fill-rule="evenodd"
     fill="rgb(74.499512%, 74.499512%, 74.499512%)"
     fill-opacity="1"
     d="M 53.550781 86.25 L 58.550781 91.25 L 59.25 90.550781 L 54.25 85.550781 Z M 53.550781 86.25 "
     id="path108" />
  <path
     fill-rule="evenodd"
     fill="rgb(74.499512%, 74.499512%, 74.499512%)"
     fill-opacity="1"
     d="M 59.25 86.25 L 54.25 91.25 L 53.550781 90.550781 L 58.550781 85.550781 Z M 59.25 86.25 "
     id="path109" />
  <path
     fill-rule="evenodd"
     fill="rgb(74.499512%, 74.499512%, 74.499512%)"
     fill-opacity="1"
     d="M 69.550781 86.25 L 74.550781 91.25 L 75.25 90.550781 L 70.25 85.550781 Z M 69.550781 86.25 "
     id="path110" />
  <path
     fill-rule="evenodd"
     fill="rgb(74.499512%, 74.499512%, 74.499512%)"
     fill-opacity="1"
     d="M 75.25 86.25 L 70.25 91.25 L 69.550781 90.550781 L 74.550781 85.550781 Z M 75.25 86.25 "
     id="path111" />
  <path
     fill-rule="evenodd"
     fill="rgb(74.499512%, 74.499512%, 74.499512%)"
     fill-opacity="1"
     d="M 53.550781 70.25 L 58.550781 75.25 L 59.25 74.550781 L 54.25 69.550781 Z M 53.550781 70.25 "
     id="path112" />
  <path
     fill-rule="evenodd"
     fill="rgb(74.499512%, 74.499512%, 74.499512%)"
     fill-opacity="1"
     d="M 59.25 70.25 L 54.25 75.25 L 53.550781 74.550781 L 58.550781 69.550781 Z M 59.25 70.25 "
     id="path113" />
  <path
     fill-rule="evenodd"
     fill="rgb(74.499512%, 74.499512%, 74.499512%)"
     fill-opacity="1"
     d="M 37.550781 70.25 L 42.550781 75.25 L 43.25 74.550781 L 38.25 69.550781 Z M 37.550781 70.25 "
     id="path114" />
  <path
     fill-rule="evenodd"
     fill="rgb(74.499512%, 74.499512%, 74.499512%)"
     fill-opacity="1"
     d="M 43.25 70.25 L 38.25 75.25 L 37.550781 74.550781 L 42.550781 69.550781 Z M 43.25 70.25 "
     id="path115" />
  <path
     fill-rule="evenodd"
     fill="rgb(74.499512%, 74.499512%, 74.499512%)"
     fill-opacity="1"
     d="M 37.550781 54.25 L 42.550781 59.25 L 43.25 58.550781 L 38.25 53.550781 Z M 37.550781 54.25 "
     id="path116" />
  <path
     fill-rule="evenodd"
     fill="rgb(74.499512%, 74.499512%, 74.499512%)"
     fill-opacity="1"
     d="M 43.25 54.25 L 38.25 59.25 L 37.550781 58.550781 L 42.550781 53.550781 Z M 43.25 54.25 "
     id="path117" />
  <path
     fill-rule="evenodd"
     fill="rgb(74.499512%, 74.499512%, 74.499512%)"
     fill-opacity="1"
     d="M 21.550781 54.25 L 26.550781 59.25 L 27.25 58.550781 L 22.25 53.550781 Z M 21.550781 54.25 "
     id="path118" />
  <path
     fill-rule="evenodd"
     fill="rgb(74.499512%, 74.499512%, 74.499512%)"
     fill-opacity="1"
     d="M 27.25 54.25 L 22.25 59.25 L 21.550781 58.550781 L 26.550781 53.550781 Z M 27.25 54.25 "
     id="path119" />
  <path
     fill-rule="evenodd"
     fill="rgb(74.499512%, 74.499512%, 74.499512%)"
     fill-opacity="1"
     d="M 21.550781 38.25 L 26.550781 43.25 L 27.25 42.550781 L 22.25 37.550781 Z M 21.550781 38.25 "
     id="path120" />
  <path
     fill-rule="evenodd"
     fill="rgb(74.499512%, 74.499512%, 74.499512%)"
     fill-opacity="1"
     d="M 27.25 38.25 L 22.25 43.25 L 21.550781 42.550781 L 26.550781 37.550781 Z M 27.25 38.25 "
     id="path121" />
  <path
     fill-rule="evenodd"
     fill="rgb(74.499512%, 74.499512%, 74.499512%)"
     fill-opacity="1"
     d="M 5.550781 38.25 L 10.550781 43.25 L 11.25 42.550781 L 6.25 37.550781 Z M 5.550781 38.25 "
     id="path122" />
  <path
     fill-rule="evenodd"
     fill="rgb(74.499512%, 74.499512%, 74.499512%)"
     fill-opacity="1"
     d="M 11.25 38.25 L 6.25 43.25 L 5.550781 42.550781 L 10.550781 37.550781 Z M 11.25 38.25 "
     id="path123" />
  <path
     fill-rule="evenodd"
     fill="rgb(74.499512%, 74.499512%, 74.499512%)"
     fill-opacity="1"
     d="M 5.550781 22.25 L 10.550781 27.25 L 11.25 26.550781 L 6.25 21.550781 Z M 5.550781 22.25 "
     id="path124" />
  <path
     fill-rule="evenodd"
     fill="rgb(74.499512%, 74.499512%, 74.499512%)"
     fill-opacity="1"
     d="M 11.25 22.25 L 6.25 27.25 L 5.550781 26.550781 L 10.550781 21.550781 Z M 11.25 22.25 "
     id="path125" />
</svg>
