<?xml version="1.0" encoding="UTF-8" standalone="no"?>
<svg
   width="113.2pt"
   height="113.2pt"
   viewBox="0 0 113.2 113.2"
   version="1.1"
   id="svg125"
   xmlns="http://www.w3.org/2000/svg"
   xmlns:svg="http://www.w3.org/2000/svg">
  <defs
     id="defs5">
    <clipPath
       id="clip-0">
      <path
         clip-rule="nonzero"
         d="M 0 0 L 113.199219 0 L 113.199219 113.199219 L 0 113.199219 Z M 0 0 "
         id="path1" />
    </clipPath>
    <clipPath
       id="clip-1">
      <path
         clip-rule="nonzero"
         d="M 0 48 L 113.199219 48 L 113.199219 50 L 0 50 Z M 0 48 "
         id="path2" />
    </clipPath>
    <clipPath
       id="clip-2">
      <path
         clip-rule="nonzero"
         d="M 0 96 L 113.199219 96 L 113.199219 98 L 0 98 Z M 0 96 "
         id="path3" />
    </clipPath>
    <clipPath
       id="clip-3">
      <path
         clip-rule="nonzero"
         d="M 48 48 L 50 48 L 50 113.199219 L 48 113.199219 Z M 48 48 "
         id="path4" />
    </clipPath>
    <clipPath
       id="clip-4">
      <path
         clip-rule="nonzero"
         d="M 64 96 L 66 96 L 66 113.199219 L 64 113.199219 Z M 64 96 "
         id="path5" />
    </clipPath>
  </defs>
  <path
     fill-rule="evenodd"
     fill="rgb(82.699585%, 82.699585%, 82.699585%)"
     fill-opacity="1"
     d="M 48.601562 96.601562 L 48.601562 112.601562 L 64.601562 112.601562 L 64.601562 96.601562 Z M 48.601562 96.601562 "
     id="path6" />
  <path
     fill-rule="evenodd"
     fill="rgb(82.699585%, 82.699585%, 82.699585%)"
     fill-opacity="1"
     d="M 48.601562 48.601562 L 48.601562 96.601562 L 112.601562 96.601562 L 112.601562 48.601562 Z M 48.601562 48.601562 "
     id="path7" />
  <path
     fill-rule="evenodd"
     fill="rgb(82.699585%, 82.699585%, 82.699585%)"
     fill-opacity="1"
     d="M 0.601562 0.601562 L 0.601562 48.601562 L 64.601562 48.601562 L 64.601562 0.601562 Z M 0.601562 0.601562 "
     id="path8" />
  <path
     fill="none"
     stroke-width="0.4"
     stroke-linecap="butt"
     stroke-linejoin="round"
     stroke="rgb(0%, 0%, 0%)"
     stroke-opacity="1"
     stroke-miterlimit="10"
     d="M 192.001563 767.998438 L 192.001563 655.998438 L 304.001562 655.998438 L 304.001562 767.998438 Z M 192.001563 767.998438 "
     transform="matrix(1, 0, 0, -1, -191.4, 768.6)"
     id="path9" />
  <path
     fill="none"
     stroke-width="0.4"
     stroke-linecap="butt"
     stroke-linejoin="round"
     stroke="rgb(0%, 0%, 0%)"
     stroke-opacity="1"
     stroke-miterlimit="10"
     d="M 192.001563 751.998438 L 304.001562 751.998438 "
     transform="matrix(1, 0, 0, -1, -191.4, 768.6)"
     id="path10" />
  <path
     fill="none"
     stroke-width="0.4"
     stroke-linecap="butt"
     stroke-linejoin="round"
     stroke="rgb(0%, 0%, 0%)"
     stroke-opacity="1"
     stroke-miterlimit="10"
     d="M 192.001563 735.998438 L 304.001562 735.998438 "
     transform="matrix(1, 0, 0, -1, -191.4, 768.6)"
     id="path11" />
  <path
     fill="none"
     stroke-width="0.4"
     stroke-linecap="butt"
     stroke-linejoin="round"
     stroke="rgb(0%, 0%, 0%)"
     stroke-opacity="1"
     stroke-miterlimit="10"
     d="M 192.001563 719.998438 L 304.001562 719.998438 "
     transform="matrix(1, 0, 0, -1, -191.4, 768.6)"
     id="path12" />
  <path
     fill="none"
     stroke-width="0.4"
     stroke-linecap="butt"
     stroke-linejoin="round"
     stroke="rgb(0%, 0%, 0%)"
     stroke-opacity="1"
     stroke-miterlimit="10"
     d="M 192.001563 703.998438 L 304.001562 703.998438 "
     transform="matrix(1, 0, 0, -1, -191.4, 768.6)"
     id="path13" />
  <path
     fill="none"
     stroke-width="0.4"
     stroke-linecap="butt"
     stroke-linejoin="round"
     stroke="rgb(0%, 0%, 0%)"
     stroke-opacity="1"
     stroke-miterlimit="10"
     d="M 192.001563 687.998438 L 304.001562 687.998438 "
     transform="matrix(1, 0, 0, -1, -191.4, 768.6)"
     id="path14" />
  <path
     fill="none"
     stroke-width="0.4"
     stroke-linecap="butt"
     stroke-linejoin="round"
     stroke="rgb(0%, 0%, 0%)"
     stroke-opacity="1"
     stroke-miterlimit="10"
     d="M 192.001563 671.998438 L 304.001562 671.998438 "
     transform="matrix(1, 0, 0, -1, -191.4, 768.6)"
     id="path15" />
  <path
     fill="none"
     stroke-width="0.4"
     stroke-linecap="butt"
     stroke-linejoin="round"
     stroke="rgb(0%, 0%, 0%)"
     stroke-opacity="1"
     stroke-miterlimit="10"
     d="M 208.001563 655.998438 L 208.001563 767.998438 "
     transform="matrix(1, 0, 0, -1, -191.4, 768.6)"
     id="path16" />
  <path
     fill="none"
     stroke-width="0.4"
     stroke-linecap="butt"
     stroke-linejoin="round"
     stroke="rgb(0%, 0%, 0%)"
     stroke-opacity="1"
     stroke-miterlimit="10"
     d="M 224.001563 655.998438 L 224.001563 767.998438 "
     transform="matrix(1, 0, 0, -1, -191.4, 768.6)"
     id="path17" />
  <path
     fill="none"
     stroke-width="0.4"
     stroke-linecap="butt"
     stroke-linejoin="round"
     stroke="rgb(0%, 0%, 0%)"
     stroke-opacity="1"
     stroke-miterlimit="10"
     d="M 240.001563 655.998438 L 240.001563 767.998438 "
     transform="matrix(1, 0, 0, -1, -191.4, 768.6)"
     id="path18" />
  <path
     fill="none"
     stroke-width="0.4"
     stroke-linecap="butt"
     stroke-linejoin="round"
     stroke="rgb(0%, 0%, 0%)"
     stroke-opacity="1"
     stroke-miterlimit="10"
     d="M 256.001562 655.998438 L 256.001562 767.998438 "
     transform="matrix(1, 0, 0, -1, -191.4, 768.6)"
     id="path19" />
  <path
     fill="none"
     stroke-width="0.4"
     stroke-linecap="butt"
     stroke-linejoin="round"
     stroke="rgb(0%, 0%, 0%)"
     stroke-opacity="1"
     stroke-miterlimit="10"
     d="M 272.001562 655.998438 L 272.001562 767.998438 "
     transform="matrix(1, 0, 0, -1, -191.4, 768.6)"
     id="path20" />
  <path
     fill="none"
     stroke-width="0.4"
     stroke-linecap="butt"
     stroke-linejoin="round"
     stroke="rgb(0%, 0%, 0%)"
     stroke-opacity="1"
     stroke-miterlimit="10"
     d="M 288.001562 655.998438 L 288.001562 767.998438 "
     transform="matrix(1, 0, 0, -1, -191.4, 768.6)"
     id="path21" />
  <g
     clip-path="url(#clip-0)"
     id="g22">
    <path
       fill="none"
       stroke-width="1.2"
       stroke-linecap="butt"
       stroke-linejoin="round"
       stroke="rgb(0%, 0%, 0%)"
       stroke-opacity="1"
       stroke-miterlimit="10"
       d="M 192.001563 767.998438 L 192.001563 655.998438 L 304.001562 655.998438 L 304.001562 767.998438 Z M 192.001563 767.998438 "
       transform="matrix(1, 0, 0, -1, -191.4, 768.6)"
       id="path22" />
  </g>
  <path
     fill-rule="evenodd"
     fill="rgb(0%, 0%, 0%)"
     fill-opacity="1"
     d="M 6.449219 11.449219 L 11.449219 6.449219 L 10.75 5.75 L 5.75 10.75 Z M 6.449219 11.449219 "
     id="path23" />
  <path
     fill-rule="evenodd"
     fill="rgb(0%, 0%, 0%)"
     fill-opacity="1"
     d="M 6.449219 5.75 L 11.449219 10.75 L 10.75 11.449219 L 5.75 6.449219 Z M 6.449219 5.75 "
     id="path24" />
  <path
     fill-rule="evenodd"
     fill="rgb(0%, 0%, 0%)"
     fill-opacity="1"
     d="M 22.449219 11.449219 L 27.449219 6.449219 L 26.75 5.75 L 21.75 10.75 Z M 22.449219 11.449219 "
     id="path25" />
  <path
     fill-rule="evenodd"
     fill="rgb(0%, 0%, 0%)"
     fill-opacity="1"
     d="M 22.449219 5.75 L 27.449219 10.75 L 26.75 11.449219 L 21.75 6.449219 Z M 22.449219 5.75 "
     id="path26" />
  <path
     fill-rule="evenodd"
     fill="rgb(0%, 0%, 0%)"
     fill-opacity="1"
     d="M 38.449219 11.449219 L 43.449219 6.449219 L 42.75 5.75 L 37.75 10.75 Z M 38.449219 11.449219 "
     id="path27" />
  <path
     fill-rule="evenodd"
     fill="rgb(0%, 0%, 0%)"
     fill-opacity="1"
     d="M 38.449219 5.75 L 43.449219 10.75 L 42.75 11.449219 L 37.75 6.449219 Z M 38.449219 5.75 "
     id="path28" />
  <path
     fill-rule="evenodd"
     fill="rgb(0%, 0%, 0%)"
     fill-opacity="1"
     d="M 54.449219 11.449219 L 59.449219 6.449219 L 58.75 5.75 L 53.75 10.75 Z M 54.449219 11.449219 "
     id="path29" />
  <path
     fill-rule="evenodd"
     fill="rgb(0%, 0%, 0%)"
     fill-opacity="1"
     d="M 54.449219 5.75 L 59.449219 10.75 L 58.75 11.449219 L 53.75 6.449219 Z M 54.449219 5.75 "
     id="path30" />
  <path
     fill-rule="evenodd"
     fill="rgb(0%, 0%, 0%)"
     fill-opacity="1"
     d="M 6.449219 27.449219 L 11.449219 22.449219 L 10.75 21.75 L 5.75 26.75 Z M 6.449219 27.449219 "
     id="path31" />
  <path
     fill-rule="evenodd"
     fill="rgb(0%, 0%, 0%)"
     fill-opacity="1"
     d="M 6.449219 21.75 L 11.449219 26.75 L 10.75 27.449219 L 5.75 22.449219 Z M 6.449219 21.75 "
     id="path32" />
  <path
     fill-rule="evenodd"
     fill="rgb(0%, 0%, 0%)"
     fill-opacity="1"
     d="M 22.449219 27.449219 L 27.449219 22.449219 L 26.75 21.75 L 21.75 26.75 Z M 22.449219 27.449219 "
     id="path33" />
  <path
     fill-rule="evenodd"
     fill="rgb(0%, 0%, 0%)"
     fill-opacity="1"
     d="M 22.449219 21.75 L 27.449219 26.75 L 26.75 27.449219 L 21.75 22.449219 Z M 22.449219 21.75 "
     id="path34" />
  <path
     fill-rule="evenodd"
     fill="rgb(0%, 0%, 0%)"
     fill-opacity="1"
     d="M 38.449219 27.449219 L 43.449219 22.449219 L 42.75 21.75 L 37.75 26.75 Z M 38.449219 27.449219 "
     id="path35" />
  <path
     fill-rule="evenodd"
     fill="rgb(0%, 0%, 0%)"
     fill-opacity="1"
     d="M 38.449219 21.75 L 43.449219 26.75 L 42.75 27.449219 L 37.75 22.449219 Z M 38.449219 21.75 "
     id="path36" />
  <path
     fill-rule="evenodd"
     fill="rgb(0%, 0%, 0%)"
     fill-opacity="1"
     d="M 54.449219 27.449219 L 59.449219 22.449219 L 58.75 21.75 L 53.75 26.75 Z M 54.449219 27.449219 "
     id="path37" />
  <path
     fill-rule="evenodd"
     fill="rgb(0%, 0%, 0%)"
     fill-opacity="1"
     d="M 54.449219 21.75 L 59.449219 26.75 L 58.75 27.449219 L 53.75 22.449219 Z M 54.449219 21.75 "
     id="path38" />
  <path
     fill-rule="evenodd"
     fill="rgb(0%, 0%, 0%)"
     fill-opacity="1"
     d="M 6.449219 43.449219 L 11.449219 38.449219 L 10.75 37.75 L 5.75 42.75 Z M 6.449219 43.449219 "
     id="path39" />
  <path
     fill-rule="evenodd"
     fill="rgb(0%, 0%, 0%)"
     fill-opacity="1"
     d="M 6.449219 37.75 L 11.449219 42.75 L 10.75 43.449219 L 5.75 38.449219 Z M 6.449219 37.75 "
     id="path40" />
  <path
     fill-rule="evenodd"
     fill="rgb(0%, 0%, 0%)"
     fill-opacity="1"
     d="M 22.449219 43.449219 L 27.449219 38.449219 L 26.75 37.75 L 21.75 42.75 Z M 22.449219 43.449219 "
     id="path41" />
  <path
     fill-rule="evenodd"
     fill="rgb(0%, 0%, 0%)"
     fill-opacity="1"
     d="M 22.449219 37.75 L 27.449219 42.75 L 26.75 43.449219 L 21.75 38.449219 Z M 22.449219 37.75 "
     id="path42" />
  <path
     fill-rule="evenodd"
     fill="rgb(0%, 0%, 0%)"
     fill-opacity="1"
     d="M 38.449219 43.449219 L 43.449219 38.449219 L 42.75 37.75 L 37.75 42.75 Z M 38.449219 43.449219 "
     id="path43" />
  <path
     fill-rule="evenodd"
     fill="rgb(0%, 0%, 0%)"
     fill-opacity="1"
     d="M 38.449219 37.75 L 43.449219 42.75 L 42.75 43.449219 L 37.75 38.449219 Z M 38.449219 37.75 "
     id="path44" />
  <path
     fill-rule="evenodd"
     fill="rgb(0%, 0%, 0%)"
     fill-opacity="1"
     d="M 54.449219 43.449219 L 59.449219 38.449219 L 58.75 37.75 L 53.75 42.75 Z M 54.449219 43.449219 "
     id="path45" />
  <path
     fill-rule="evenodd"
     fill="rgb(0%, 0%, 0%)"
     fill-opacity="1"
     d="M 54.449219 37.75 L 59.449219 42.75 L 58.75 43.449219 L 53.75 38.449219 Z M 54.449219 37.75 "
     id="path46" />
  <path
     fill-rule="evenodd"
     fill="rgb(0%, 0%, 0%)"
     fill-opacity="1"
     d="M 54.449219 59.449219 L 59.449219 54.449219 L 58.75 53.75 L 53.75 58.75 Z M 54.449219 59.449219 "
     id="path47" />
  <path
     fill-rule="evenodd"
     fill="rgb(0%, 0%, 0%)"
     fill-opacity="1"
     d="M 54.449219 53.75 L 59.449219 58.75 L 58.75 59.449219 L 53.75 54.449219 Z M 54.449219 53.75 "
     id="path48" />
  <path
     fill-rule="evenodd"
     fill="rgb(0%, 0%, 0%)"
     fill-opacity="1"
     d="M 70.449219 59.449219 L 75.449219 54.449219 L 74.75 53.75 L 69.75 58.75 Z M 70.449219 59.449219 "
     id="path49" />
  <path
     fill-rule="evenodd"
     fill="rgb(0%, 0%, 0%)"
     fill-opacity="1"
     d="M 70.449219 53.75 L 75.449219 58.75 L 74.75 59.449219 L 69.75 54.449219 Z M 70.449219 53.75 "
     id="path50" />
  <path
     fill-rule="evenodd"
     fill="rgb(0%, 0%, 0%)"
     fill-opacity="1"
     d="M 86.449219 59.449219 L 91.449219 54.449219 L 90.75 53.75 L 85.75 58.75 Z M 86.449219 59.449219 "
     id="path51" />
  <path
     fill-rule="evenodd"
     fill="rgb(0%, 0%, 0%)"
     fill-opacity="1"
     d="M 86.449219 53.75 L 91.449219 58.75 L 90.75 59.449219 L 85.75 54.449219 Z M 86.449219 53.75 "
     id="path52" />
  <path
     fill-rule="evenodd"
     fill="rgb(0%, 0%, 0%)"
     fill-opacity="1"
     d="M 102.449219 59.449219 L 107.449219 54.449219 L 106.75 53.75 L 101.75 58.75 Z M 102.449219 59.449219 "
     id="path53" />
  <path
     fill-rule="evenodd"
     fill="rgb(0%, 0%, 0%)"
     fill-opacity="1"
     d="M 102.449219 53.75 L 107.449219 58.75 L 106.75 59.449219 L 101.75 54.449219 Z M 102.449219 53.75 "
     id="path54" />
  <path
     fill-rule="evenodd"
     fill="rgb(0%, 0%, 0%)"
     fill-opacity="1"
     d="M 54.449219 75.449219 L 59.449219 70.449219 L 58.75 69.75 L 53.75 74.75 Z M 54.449219 75.449219 "
     id="path55" />
  <path
     fill-rule="evenodd"
     fill="rgb(0%, 0%, 0%)"
     fill-opacity="1"
     d="M 54.449219 69.75 L 59.449219 74.75 L 58.75 75.449219 L 53.75 70.449219 Z M 54.449219 69.75 "
     id="path56" />
  <path
     fill-rule="evenodd"
     fill="rgb(0%, 0%, 0%)"
     fill-opacity="1"
     d="M 70.449219 75.449219 L 75.449219 70.449219 L 74.75 69.75 L 69.75 74.75 Z M 70.449219 75.449219 "
     id="path57" />
  <path
     fill-rule="evenodd"
     fill="rgb(0%, 0%, 0%)"
     fill-opacity="1"
     d="M 70.449219 69.75 L 75.449219 74.75 L 74.75 75.449219 L 69.75 70.449219 Z M 70.449219 69.75 "
     id="path58" />
  <path
     fill-rule="evenodd"
     fill="rgb(0%, 0%, 0%)"
     fill-opacity="1"
     d="M 86.449219 75.449219 L 91.449219 70.449219 L 90.75 69.75 L 85.75 74.75 Z M 86.449219 75.449219 "
     id="path59" />
  <path
     fill-rule="evenodd"
     fill="rgb(0%, 0%, 0%)"
     fill-opacity="1"
     d="M 86.449219 69.75 L 91.449219 74.75 L 90.75 75.449219 L 85.75 70.449219 Z M 86.449219 69.75 "
     id="path60" />
  <path
     fill-rule="evenodd"
     fill="rgb(0%, 0%, 0%)"
     fill-opacity="1"
     d="M 102.449219 75.449219 L 107.449219 70.449219 L 106.75 69.75 L 101.75 74.75 Z M 102.449219 75.449219 "
     id="path61" />
  <path
     fill-rule="evenodd"
     fill="rgb(0%, 0%, 0%)"
     fill-opacity="1"
     d="M 102.449219 69.75 L 107.449219 74.75 L 106.75 75.449219 L 101.75 70.449219 Z M 102.449219 69.75 "
     id="path62" />
  <path
     fill-rule="evenodd"
     fill="rgb(0%, 0%, 0%)"
     fill-opacity="1"
     d="M 54.449219 91.449219 L 59.449219 86.449219 L 58.75 85.75 L 53.75 90.75 Z M 54.449219 91.449219 "
     id="path63" />
  <path
     fill-rule="evenodd"
     fill="rgb(0%, 0%, 0%)"
     fill-opacity="1"
     d="M 54.449219 85.75 L 59.449219 90.75 L 58.75 91.449219 L 53.75 86.449219 Z M 54.449219 85.75 "
     id="path64" />
  <path
     fill-rule="evenodd"
     fill="rgb(0%, 0%, 0%)"
     fill-opacity="1"
     d="M 70.449219 91.449219 L 75.449219 86.449219 L 74.75 85.75 L 69.75 90.75 Z M 70.449219 91.449219 "
     id="path65" />
  <path
     fill-rule="evenodd"
     fill="rgb(0%, 0%, 0%)"
     fill-opacity="1"
     d="M 70.449219 85.75 L 75.449219 90.75 L 74.75 91.449219 L 69.75 86.449219 Z M 70.449219 85.75 "
     id="path66" />
  <path
     fill-rule="evenodd"
     fill="rgb(0%, 0%, 0%)"
     fill-opacity="1"
     d="M 86.449219 91.449219 L 91.449219 86.449219 L 90.75 85.75 L 85.75 90.75 Z M 86.449219 91.449219 "
     id="path67" />
  <path
     fill-rule="evenodd"
     fill="rgb(0%, 0%, 0%)"
     fill-opacity="1"
     d="M 86.449219 85.75 L 91.449219 90.75 L 90.75 91.449219 L 85.75 86.449219 Z M 86.449219 85.75 "
     id="path68" />
  <path
     fill-rule="evenodd"
     fill="rgb(0%, 0%, 0%)"
     fill-opacity="1"
     d="M 102.449219 91.449219 L 107.449219 86.449219 L 106.75 85.75 L 101.75 90.75 Z M 102.449219 91.449219 "
     id="path69" />
  <path
     fill-rule="evenodd"
     fill="rgb(0%, 0%, 0%)"
     fill-opacity="1"
     d="M 102.449219 85.75 L 107.449219 90.75 L 106.75 91.449219 L 101.75 86.449219 Z M 102.449219 85.75 "
     id="path70" />
  <path
     fill-rule="evenodd"
     fill="rgb(0%, 0%, 0%)"
     fill-opacity="1"
     d="M 54.449219 107.449219 L 59.449219 102.449219 L 58.75 101.75 L 53.75 106.75 Z M 54.449219 107.449219 "
     id="path71" />
  <path
     fill-rule="evenodd"
     fill="rgb(0%, 0%, 0%)"
     fill-opacity="1"
     d="M 54.449219 101.75 L 59.449219 106.75 L 58.75 107.449219 L 53.75 102.449219 Z M 54.449219 101.75 "
     id="path72" />
  <path
     fill-rule="evenodd"
     fill="rgb(100%, 100%, 100%)"
     fill-opacity="1"
     d="M 107.101562 24.601562 C 107.101562 23.21875 105.980469 22.101562 104.601562 22.101562 C 103.21875 22.101562 102.101562 23.21875 102.101562 24.601562 C 102.101562 25.980469 103.21875 27.101562 104.601562 27.101562 C 105.980469 27.101562 107.101562 25.980469 107.101562 24.601562 "
     id="path73" />
  <path
     fill-rule="evenodd"
     fill="rgb(0%, 0%, 0%)"
     fill-opacity="1"
     d="M 107.601562 24.601562 C 107.601562 22.941406 106.257812 21.601562 104.601562 21.601562 C 102.941406 21.601562 101.601562 22.941406 101.601562 24.601562 C 101.601562 26.257812 102.941406 27.601562 104.601562 27.601562 C 106.257812 27.601562 107.601562 26.257812 107.601562 24.601562 M 106.601562 24.601562 C 106.601562 23.496094 105.703125 22.601562 104.601562 22.601562 C 103.496094 22.601562 102.601562 23.496094 102.601562 24.601562 C 102.601562 25.703125 103.496094 26.601562 104.601562 26.601562 C 105.703125 26.601562 106.601562 25.703125 106.601562 24.601562 "
     id="path74" />
  <path
     fill-rule="evenodd"
     fill="rgb(100%, 100%, 100%)"
     fill-opacity="1"
     d="M 91.101562 24.601562 C 91.101562 23.21875 89.980469 22.101562 88.601562 22.101562 C 87.21875 22.101562 86.101562 23.21875 86.101562 24.601562 C 86.101562 25.980469 87.21875 27.101562 88.601562 27.101562 C 89.980469 27.101562 91.101562 25.980469 91.101562 24.601562 "
     id="path75" />
  <path
     fill-rule="evenodd"
     fill="rgb(0%, 0%, 0%)"
     fill-opacity="1"
     d="M 91.601562 24.601562 C 91.601562 22.941406 90.257812 21.601562 88.601562 21.601562 C 86.941406 21.601562 85.601562 22.941406 85.601562 24.601562 C 85.601562 26.257812 86.941406 27.601562 88.601562 27.601562 C 90.257812 27.601562 91.601562 26.257812 91.601562 24.601562 M 90.601562 24.601562 C 90.601562 23.496094 89.703125 22.601562 88.601562 22.601562 C 87.496094 22.601562 86.601562 23.496094 86.601562 24.601562 C 86.601562 25.703125 87.496094 26.601562 88.601562 26.601562 C 89.703125 26.601562 90.601562 25.703125 90.601562 24.601562 "
     id="path76" />
  <path
     fill-rule="evenodd"
     fill="rgb(100%, 100%, 100%)"
     fill-opacity="1"
     d="M 107.101562 8.601562 C 107.101562 7.21875 105.980469 6.101562 104.601562 6.101562 C 103.21875 6.101562 102.101562 7.21875 102.101562 8.601562 C 102.101562 9.980469 103.21875 11.101562 104.601562 11.101562 C 105.980469 11.101562 107.101562 9.980469 107.101562 8.601562 "
     id="path77" />
  <path
     fill-rule="evenodd"
     fill="rgb(0%, 0%, 0%)"
     fill-opacity="1"
     d="M 107.601562 8.601562 C 107.601562 6.941406 106.257812 5.601562 104.601562 5.601562 C 102.941406 5.601562 101.601562 6.941406 101.601562 8.601562 C 101.601562 10.257812 102.941406 11.601562 104.601562 11.601562 C 106.257812 11.601562 107.601562 10.257812 107.601562 8.601562 M 106.601562 8.601562 C 106.601562 7.496094 105.703125 6.601562 104.601562 6.601562 C 103.496094 6.601562 102.601562 7.496094 102.601562 8.601562 C 102.601562 9.703125 103.496094 10.601562 104.601562 10.601562 C 105.703125 10.601562 106.601562 9.703125 106.601562 8.601562 "
     id="path78" />
  <path
     fill-rule="evenodd"
     fill="rgb(100%, 100%, 100%)"
     fill-opacity="1"
     d="M 75.101562 24.601562 C 75.101562 23.21875 73.980469 22.101562 72.601562 22.101562 C 71.21875 22.101562 70.101562 23.21875 70.101562 24.601562 C 70.101562 25.980469 71.21875 27.101562 72.601562 27.101562 C 73.980469 27.101562 75.101562 25.980469 75.101562 24.601562 "
     id="path79" />
  <path
     fill-rule="evenodd"
     fill="rgb(0%, 0%, 0%)"
     fill-opacity="1"
     d="M 75.601562 24.601562 C 75.601562 22.941406 74.257812 21.601562 72.601562 21.601562 C 70.941406 21.601562 69.601562 22.941406 69.601562 24.601562 C 69.601562 26.257812 70.941406 27.601562 72.601562 27.601562 C 74.257812 27.601562 75.601562 26.257812 75.601562 24.601562 M 74.601562 24.601562 C 74.601562 23.496094 73.703125 22.601562 72.601562 22.601562 C 71.496094 22.601562 70.601562 23.496094 70.601562 24.601562 C 70.601562 25.703125 71.496094 26.601562 72.601562 26.601562 C 73.703125 26.601562 74.601562 25.703125 74.601562 24.601562 "
     id="path80" />
  <path
     fill-rule="evenodd"
     fill="rgb(100%, 100%, 100%)"
     fill-opacity="1"
     d="M 91.101562 8.601562 C 91.101562 7.21875 89.980469 6.101562 88.601562 6.101562 C 87.21875 6.101562 86.101562 7.21875 86.101562 8.601562 C 86.101562 9.980469 87.21875 11.101562 88.601562 11.101562 C 89.980469 11.101562 91.101562 9.980469 91.101562 8.601562 "
     id="path81" />
  <path
     fill-rule="evenodd"
     fill="rgb(0%, 0%, 0%)"
     fill-opacity="1"
     d="M 91.601562 8.601562 C 91.601562 6.941406 90.257812 5.601562 88.601562 5.601562 C 86.941406 5.601562 85.601562 6.941406 85.601562 8.601562 C 85.601562 10.257812 86.941406 11.601562 88.601562 11.601562 C 90.257812 11.601562 91.601562 10.257812 91.601562 8.601562 M 90.601562 8.601562 C 90.601562 7.496094 89.703125 6.601562 88.601562 6.601562 C 87.496094 6.601562 86.601562 7.496094 86.601562 8.601562 C 86.601562 9.703125 87.496094 10.601562 88.601562 10.601562 C 89.703125 10.601562 90.601562 9.703125 90.601562 8.601562 "
     id="path82" />
  <path
     fill-rule="evenodd"
     fill="rgb(100%, 100%, 100%)"
     fill-opacity="1"
     d="M 75.101562 8.601562 C 75.101562 7.21875 73.980469 6.101562 72.601562 6.101562 C 71.21875 6.101562 70.101562 7.21875 70.101562 8.601562 C 70.101562 9.980469 71.21875 11.101562 72.601562 11.101562 C 73.980469 11.101562 75.101562 9.980469 75.101562 8.601562 "
     id="path83" />
  <path
     fill-rule="evenodd"
     fill="rgb(0%, 0%, 0%)"
     fill-opacity="1"
     d="M 75.601562 8.601562 C 75.601562 6.941406 74.257812 5.601562 72.601562 5.601562 C 70.941406 5.601562 69.601562 6.941406 69.601562 8.601562 C 69.601562 10.257812 70.941406 11.601562 72.601562 11.601562 C 74.257812 11.601562 75.601562 10.257812 75.601562 8.601562 M 74.601562 8.601562 C 74.601562 7.496094 73.703125 6.601562 72.601562 6.601562 C 71.496094 6.601562 70.601562 7.496094 70.601562 8.601562 C 70.601562 9.703125 71.496094 10.601562 72.601562 10.601562 C 73.703125 10.601562 74.601562 9.703125 74.601562 8.601562 "
     id="path84" />
  <path
     fill-rule="evenodd"
     fill="rgb(100%, 100%, 100%)"
     fill-opacity="1"
     d="M 43.101562 72.601562 C 43.101562 71.21875 41.980469 70.101562 40.601562 70.101562 C 39.21875 70.101562 38.101562 71.21875 38.101562 72.601562 C 38.101562 73.980469 39.21875 75.101562 40.601562 75.101562 C 41.980469 75.101562 43.101562 73.980469 43.101562 72.601562 "
     id="path85" />
  <path
     fill-rule="evenodd"
     fill="rgb(0%, 0%, 0%)"
     fill-opacity="1"
     d="M 43.601562 72.601562 C 43.601562 70.941406 42.257812 69.601562 40.601562 69.601562 C 38.941406 69.601562 37.601562 70.941406 37.601562 72.601562 C 37.601562 74.257812 38.941406 75.601562 40.601562 75.601562 C 42.257812 75.601562 43.601562 74.257812 43.601562 72.601562 M 42.601562 72.601562 C 42.601562 71.496094 41.703125 70.601562 40.601562 70.601562 C 39.496094 70.601562 38.601562 71.496094 38.601562 72.601562 C 38.601562 73.703125 39.496094 74.601562 40.601562 74.601562 C 41.703125 74.601562 42.601562 73.703125 42.601562 72.601562 "
     id="path86" />
  <path
     fill-rule="evenodd"
     fill="rgb(100%, 100%, 100%)"
     fill-opacity="1"
     d="M 27.101562 72.601562 C 27.101562 71.21875 25.980469 70.101562 24.601562 70.101562 C 23.21875 70.101562 22.101562 71.21875 22.101562 72.601562 C 22.101562 73.980469 23.21875 75.101562 24.601562 75.101562 C 25.980469 75.101562 27.101562 73.980469 27.101562 72.601562 "
     id="path87" />
  <path
     fill-rule="evenodd"
     fill="rgb(0%, 0%, 0%)"
     fill-opacity="1"
     d="M 27.601562 72.601562 C 27.601562 70.941406 26.257812 69.601562 24.601562 69.601562 C 22.941406 69.601562 21.601562 70.941406 21.601562 72.601562 C 21.601562 74.257812 22.941406 75.601562 24.601562 75.601562 C 26.257812 75.601562 27.601562 74.257812 27.601562 72.601562 M 26.601562 72.601562 C 26.601562 71.496094 25.703125 70.601562 24.601562 70.601562 C 23.496094 70.601562 22.601562 71.496094 22.601562 72.601562 C 22.601562 73.703125 23.496094 74.601562 24.601562 74.601562 C 25.703125 74.601562 26.601562 73.703125 26.601562 72.601562 "
     id="path88" />
  <path
     fill-rule="evenodd"
     fill="rgb(100%, 100%, 100%)"
     fill-opacity="1"
     d="M 43.101562 56.601562 C 43.101562 55.21875 41.980469 54.101562 40.601562 54.101562 C 39.21875 54.101562 38.101562 55.21875 38.101562 56.601562 C 38.101562 57.980469 39.21875 59.101562 40.601562 59.101562 C 41.980469 59.101562 43.101562 57.980469 43.101562 56.601562 "
     id="path89" />
  <path
     fill-rule="evenodd"
     fill="rgb(0%, 0%, 0%)"
     fill-opacity="1"
     d="M 43.601562 56.601562 C 43.601562 54.941406 42.257812 53.601562 40.601562 53.601562 C 38.941406 53.601562 37.601562 54.941406 37.601562 56.601562 C 37.601562 58.257812 38.941406 59.601562 40.601562 59.601562 C 42.257812 59.601562 43.601562 58.257812 43.601562 56.601562 M 42.601562 56.601562 C 42.601562 55.496094 41.703125 54.601562 40.601562 54.601562 C 39.496094 54.601562 38.601562 55.496094 38.601562 56.601562 C 38.601562 57.703125 39.496094 58.601562 40.601562 58.601562 C 41.703125 58.601562 42.601562 57.703125 42.601562 56.601562 "
     id="path90" />
  <path
     fill-rule="evenodd"
     fill="rgb(100%, 100%, 100%)"
     fill-opacity="1"
     d="M 11.101562 72.601562 C 11.101562 71.21875 9.980469 70.101562 8.601562 70.101562 C 7.21875 70.101562 6.101562 71.21875 6.101562 72.601562 C 6.101562 73.980469 7.21875 75.101562 8.601562 75.101562 C 9.980469 75.101562 11.101562 73.980469 11.101562 72.601562 "
     id="path91" />
  <path
     fill-rule="evenodd"
     fill="rgb(0%, 0%, 0%)"
     fill-opacity="1"
     d="M 11.601562 72.601562 C 11.601562 70.941406 10.257812 69.601562 8.601562 69.601562 C 6.941406 69.601562 5.601562 70.941406 5.601562 72.601562 C 5.601562 74.257812 6.941406 75.601562 8.601562 75.601562 C 10.257812 75.601562 11.601562 74.257812 11.601562 72.601562 M 10.601562 72.601562 C 10.601562 71.496094 9.703125 70.601562 8.601562 70.601562 C 7.496094 70.601562 6.601562 71.496094 6.601562 72.601562 C 6.601562 73.703125 7.496094 74.601562 8.601562 74.601562 C 9.703125 74.601562 10.601562 73.703125 10.601562 72.601562 "
     id="path92" />
  <path
     fill-rule="evenodd"
     fill="rgb(100%, 100%, 100%)"
     fill-opacity="1"
     d="M 27.101562 56.601562 C 27.101562 55.21875 25.980469 54.101562 24.601562 54.101562 C 23.21875 54.101562 22.101562 55.21875 22.101562 56.601562 C 22.101562 57.980469 23.21875 59.101562 24.601562 59.101562 C 25.980469 59.101562 27.101562 57.980469 27.101562 56.601562 "
     id="path93" />
  <path
     fill-rule="evenodd"
     fill="rgb(0%, 0%, 0%)"
     fill-opacity="1"
     d="M 27.601562 56.601562 C 27.601562 54.941406 26.257812 53.601562 24.601562 53.601562 C 22.941406 53.601562 21.601562 54.941406 21.601562 56.601562 C 21.601562 58.257812 22.941406 59.601562 24.601562 59.601562 C 26.257812 59.601562 27.601562 58.257812 27.601562 56.601562 M 26.601562 56.601562 C 26.601562 55.496094 25.703125 54.601562 24.601562 54.601562 C 23.496094 54.601562 22.601562 55.496094 22.601562 56.601562 C 22.601562 57.703125 23.496094 58.601562 24.601562 58.601562 C 25.703125 58.601562 26.601562 57.703125 26.601562 56.601562 "
     id="path94" />
  <path
     fill-rule="evenodd"
     fill="rgb(100%, 100%, 100%)"
     fill-opacity="1"
     d="M 11.101562 56.601562 C 11.101562 55.21875 9.980469 54.101562 8.601562 54.101562 C 7.21875 54.101562 6.101562 55.21875 6.101562 56.601562 C 6.101562 57.980469 7.21875 59.101562 8.601562 59.101562 C 9.980469 59.101562 11.101562 57.980469 11.101562 56.601562 "
     id="path95" />
  <path
     fill-rule="evenodd"
     fill="rgb(0%, 0%, 0%)"
     fill-opacity="1"
     d="M 11.601562 56.601562 C 11.601562 54.941406 10.257812 53.601562 8.601562 53.601562 C 6.941406 53.601562 5.601562 54.941406 5.601562 56.601562 C 5.601562 58.257812 6.941406 59.601562 8.601562 59.601562 C 10.257812 59.601562 11.601562 58.257812 11.601562 56.601562 M 10.601562 56.601562 C 10.601562 55.496094 9.703125 54.601562 8.601562 54.601562 C 7.496094 54.601562 6.601562 55.496094 6.601562 56.601562 C 6.601562 57.703125 7.496094 58.601562 8.601562 58.601562 C 9.703125 58.601562 10.601562 57.703125 10.601562 56.601562 "
     id="path96" />
  <path
     fill-rule="evenodd"
     fill="rgb(100%, 100%, 100%)"
     fill-opacity="1"
     d="M 43.101562 104.601562 C 43.101562 103.21875 41.980469 102.101562 40.601562 102.101562 C 39.21875 102.101562 38.101562 103.21875 38.101562 104.601562 C 38.101562 105.980469 39.21875 107.101562 40.601562 107.101562 C 41.980469 107.101562 43.101562 105.980469 43.101562 104.601562 "
     id="path97" />
  <path
     fill-rule="evenodd"
     fill="rgb(0%, 0%, 0%)"
     fill-opacity="1"
     d="M 43.601562 104.601562 C 43.601562 102.941406 42.257812 101.601562 40.601562 101.601562 C 38.941406 101.601562 37.601562 102.941406 37.601562 104.601562 C 37.601562 106.257812 38.941406 107.601562 40.601562 107.601562 C 42.257812 107.601562 43.601562 106.257812 43.601562 104.601562 M 42.601562 104.601562 C 42.601562 103.496094 41.703125 102.601562 40.601562 102.601562 C 39.496094 102.601562 38.601562 103.496094 38.601562 104.601562 C 38.601562 105.703125 39.496094 106.601562 40.601562 106.601562 C 41.703125 106.601562 42.601562 105.703125 42.601562 104.601562 "
     id="path98" />
  <path
     fill-rule="evenodd"
     fill="rgb(100%, 100%, 100%)"
     fill-opacity="1"
     d="M 27.101562 104.601562 C 27.101562 103.21875 25.980469 102.101562 24.601562 102.101562 C 23.21875 102.101562 22.101562 103.21875 22.101562 104.601562 C 22.101562 105.980469 23.21875 107.101562 24.601562 107.101562 C 25.980469 107.101562 27.101562 105.980469 27.101562 104.601562 "
     id="path99" />
  <path
     fill-rule="evenodd"
     fill="rgb(0%, 0%, 0%)"
     fill-opacity="1"
     d="M 27.601562 104.601562 C 27.601562 102.941406 26.257812 101.601562 24.601562 101.601562 C 22.941406 101.601562 21.601562 102.941406 21.601562 104.601562 C 21.601562 106.257812 22.941406 107.601562 24.601562 107.601562 C 26.257812 107.601562 27.601562 106.257812 27.601562 104.601562 M 26.601562 104.601562 C 26.601562 103.496094 25.703125 102.601562 24.601562 102.601562 C 23.496094 102.601562 22.601562 103.496094 22.601562 104.601562 C 22.601562 105.703125 23.496094 106.601562 24.601562 106.601562 C 25.703125 106.601562 26.601562 105.703125 26.601562 104.601562 "
     id="path100" />
  <path
     fill-rule="evenodd"
     fill="rgb(100%, 100%, 100%)"
     fill-opacity="1"
     d="M 43.101562 88.601562 C 43.101562 87.21875 41.980469 86.101562 40.601562 86.101562 C 39.21875 86.101562 38.101562 87.21875 38.101562 88.601562 C 38.101562 89.980469 39.21875 91.101562 40.601562 91.101562 C 41.980469 91.101562 43.101562 89.980469 43.101562 88.601562 "
     id="path101" />
  <path
     fill-rule="evenodd"
     fill="rgb(0%, 0%, 0%)"
     fill-opacity="1"
     d="M 43.601562 88.601562 C 43.601562 86.941406 42.257812 85.601562 40.601562 85.601562 C 38.941406 85.601562 37.601562 86.941406 37.601562 88.601562 C 37.601562 90.257812 38.941406 91.601562 40.601562 91.601562 C 42.257812 91.601562 43.601562 90.257812 43.601562 88.601562 M 42.601562 88.601562 C 42.601562 87.496094 41.703125 86.601562 40.601562 86.601562 C 39.496094 86.601562 38.601562 87.496094 38.601562 88.601562 C 38.601562 89.703125 39.496094 90.601562 40.601562 90.601562 C 41.703125 90.601562 42.601562 89.703125 42.601562 88.601562 "
     id="path102" />
  <path
     fill-rule="evenodd"
     fill="rgb(100%, 100%, 100%)"
     fill-opacity="1"
     d="M 11.101562 104.601562 C 11.101562 103.21875 9.980469 102.101562 8.601562 102.101562 C 7.21875 102.101562 6.101562 103.21875 6.101562 104.601562 C 6.101562 105.980469 7.21875 107.101562 8.601562 107.101562 C 9.980469 107.101562 11.101562 105.980469 11.101562 104.601562 "
     id="path103" />
  <path
     fill-rule="evenodd"
     fill="rgb(0%, 0%, 0%)"
     fill-opacity="1"
     d="M 11.601562 104.601562 C 11.601562 102.941406 10.257812 101.601562 8.601562 101.601562 C 6.941406 101.601562 5.601562 102.941406 5.601562 104.601562 C 5.601562 106.257812 6.941406 107.601562 8.601562 107.601562 C 10.257812 107.601562 11.601562 106.257812 11.601562 104.601562 M 10.601562 104.601562 C 10.601562 103.496094 9.703125 102.601562 8.601562 102.601562 C 7.496094 102.601562 6.601562 103.496094 6.601562 104.601562 C 6.601562 105.703125 7.496094 106.601562 8.601562 106.601562 C 9.703125 106.601562 10.601562 105.703125 10.601562 104.601562 "
     id="path104" />
  <path
     fill-rule="evenodd"
     fill="rgb(100%, 100%, 100%)"
     fill-opacity="1"
     d="M 27.101562 88.601562 C 27.101562 87.21875 25.980469 86.101562 24.601562 86.101562 C 23.21875 86.101562 22.101562 87.21875 22.101562 88.601562 C 22.101562 89.980469 23.21875 91.101562 24.601562 91.101562 C 25.980469 91.101562 27.101562 89.980469 27.101562 88.601562 "
     id="path105" />
  <path
     fill-rule="evenodd"
     fill="rgb(0%, 0%, 0%)"
     fill-opacity="1"
     d="M 27.601562 88.601562 C 27.601562 86.941406 26.257812 85.601562 24.601562 85.601562 C 22.941406 85.601562 21.601562 86.941406 21.601562 88.601562 C 21.601562 90.257812 22.941406 91.601562 24.601562 91.601562 C 26.257812 91.601562 27.601562 90.257812 27.601562 88.601562 M 26.601562 88.601562 C 26.601562 87.496094 25.703125 86.601562 24.601562 86.601562 C 23.496094 86.601562 22.601562 87.496094 22.601562 88.601562 C 22.601562 89.703125 23.496094 90.601562 24.601562 90.601562 C 25.703125 90.601562 26.601562 89.703125 26.601562 88.601562 "
     id="path106" />
  <path
     fill-rule="evenodd"
     fill="rgb(100%, 100%, 100%)"
     fill-opacity="1"
     d="M 11.101562 88.601562 C 11.101562 87.21875 9.980469 86.101562 8.601562 86.101562 C 7.21875 86.101562 6.101562 87.21875 6.101562 88.601562 C 6.101562 89.980469 7.21875 91.101562 8.601562 91.101562 C 9.980469 91.101562 11.101562 89.980469 11.101562 88.601562 "
     id="path107" />
  <path
     fill-rule="evenodd"
     fill="rgb(0%, 0%, 0%)"
     fill-opacity="1"
     d="M 11.601562 88.601562 C 11.601562 86.941406 10.257812 85.601562 8.601562 85.601562 C 6.941406 85.601562 5.601562 86.941406 5.601562 88.601562 C 5.601562 90.257812 6.941406 91.601562 8.601562 91.601562 C 10.257812 91.601562 11.601562 90.257812 11.601562 88.601562 M 10.601562 88.601562 C 10.601562 87.496094 9.703125 86.601562 8.601562 86.601562 C 7.496094 86.601562 6.601562 87.496094 6.601562 88.601562 C 6.601562 89.703125 7.496094 90.601562 8.601562 90.601562 C 9.703125 90.601562 10.601562 89.703125 10.601562 88.601562 "
     id="path108" />
  <path
     fill-rule="evenodd"
     fill="rgb(100%, 100%, 100%)"
     fill-opacity="1"
     d="M 107.101562 104.601562 C 107.101562 103.21875 105.980469 102.101562 104.601562 102.101562 C 103.21875 102.101562 102.101562 103.21875 102.101562 104.601562 C 102.101562 105.980469 103.21875 107.101562 104.601562 107.101562 C 105.980469 107.101562 107.101562 105.980469 107.101562 104.601562 "
     id="path109" />
  <path
     fill-rule="evenodd"
     fill="rgb(0%, 0%, 0%)"
     fill-opacity="1"
     d="M 107.601562 104.601562 C 107.601562 102.941406 106.257812 101.601562 104.601562 101.601562 C 102.941406 101.601562 101.601562 102.941406 101.601562 104.601562 C 101.601562 106.257812 102.941406 107.601562 104.601562 107.601562 C 106.257812 107.601562 107.601562 106.257812 107.601562 104.601562 M 106.601562 104.601562 C 106.601562 103.496094 105.703125 102.601562 104.601562 102.601562 C 103.496094 102.601562 102.601562 103.496094 102.601562 104.601562 C 102.601562 105.703125 103.496094 106.601562 104.601562 106.601562 C 105.703125 106.601562 106.601562 105.703125 106.601562 104.601562 "
     id="path110" />
  <path
     fill-rule="evenodd"
     fill="rgb(100%, 100%, 100%)"
     fill-opacity="1"
     d="M 91.101562 104.601562 C 91.101562 103.21875 89.980469 102.101562 88.601562 102.101562 C 87.21875 102.101562 86.101562 103.21875 86.101562 104.601562 C 86.101562 105.980469 87.21875 107.101562 88.601562 107.101562 C 89.980469 107.101562 91.101562 105.980469 91.101562 104.601562 "
     id="path111" />
  <path
     fill-rule="evenodd"
     fill="rgb(0%, 0%, 0%)"
     fill-opacity="1"
     d="M 91.601562 104.601562 C 91.601562 102.941406 90.257812 101.601562 88.601562 101.601562 C 86.941406 101.601562 85.601562 102.941406 85.601562 104.601562 C 85.601562 106.257812 86.941406 107.601562 88.601562 107.601562 C 90.257812 107.601562 91.601562 106.257812 91.601562 104.601562 M 90.601562 104.601562 C 90.601562 103.496094 89.703125 102.601562 88.601562 102.601562 C 87.496094 102.601562 86.601562 103.496094 86.601562 104.601562 C 86.601562 105.703125 87.496094 106.601562 88.601562 106.601562 C 89.703125 106.601562 90.601562 105.703125 90.601562 104.601562 "
     id="path112" />
  <path
     fill-rule="evenodd"
     fill="rgb(100%, 100%, 100%)"
     fill-opacity="1"
     d="M 75.101562 104.601562 C 75.101562 103.21875 73.980469 102.101562 72.601562 102.101562 C 71.21875 102.101562 70.101562 103.21875 70.101562 104.601562 C 70.101562 105.980469 71.21875 107.101562 72.601562 107.101562 C 73.980469 107.101562 75.101562 105.980469 75.101562 104.601562 "
     id="path113" />
  <path
     fill-rule="evenodd"
     fill="rgb(0%, 0%, 0%)"
     fill-opacity="1"
     d="M 75.601562 104.601562 C 75.601562 102.941406 74.257812 101.601562 72.601562 101.601562 C 70.941406 101.601562 69.601562 102.941406 69.601562 104.601562 C 69.601562 106.257812 70.941406 107.601562 72.601562 107.601562 C 74.257812 107.601562 75.601562 106.257812 75.601562 104.601562 M 74.601562 104.601562 C 74.601562 103.496094 73.703125 102.601562 72.601562 102.601562 C 71.496094 102.601562 70.601562 103.496094 70.601562 104.601562 C 70.601562 105.703125 71.496094 106.601562 72.601562 106.601562 C 73.703125 106.601562 74.601562 105.703125 74.601562 104.601562 "
     id="path114" />
  <path
     fill-rule="evenodd"
     fill="rgb(100%, 100%, 100%)"
     fill-opacity="1"
     d="M 107.101562 40.601562 C 107.101562 39.21875 105.980469 38.101562 104.601562 38.101562 C 103.21875 38.101562 102.101562 39.21875 102.101562 40.601562 C 102.101562 41.980469 103.21875 43.101562 104.601562 43.101562 C 105.980469 43.101562 107.101562 41.980469 107.101562 40.601562 "
     id="path115" />
  <path
     fill-rule="evenodd"
     fill="rgb(0%, 0%, 0%)"
     fill-opacity="1"
     d="M 107.601562 40.601562 C 107.601562 38.941406 106.257812 37.601562 104.601562 37.601562 C 102.941406 37.601562 101.601562 38.941406 101.601562 40.601562 C 101.601562 42.257812 102.941406 43.601562 104.601562 43.601562 C 106.257812 43.601562 107.601562 42.257812 107.601562 40.601562 M 106.601562 40.601562 C 106.601562 39.496094 105.703125 38.601562 104.601562 38.601562 C 103.496094 38.601562 102.601562 39.496094 102.601562 40.601562 C 102.601562 41.703125 103.496094 42.601562 104.601562 42.601562 C 105.703125 42.601562 106.601562 41.703125 106.601562 40.601562 "
     id="path116" />
  <path
     fill-rule="evenodd"
     fill="rgb(100%, 100%, 100%)"
     fill-opacity="1"
     d="M 91.101562 40.601562 C 91.101562 39.21875 89.980469 38.101562 88.601562 38.101562 C 87.21875 38.101562 86.101562 39.21875 86.101562 40.601562 C 86.101562 41.980469 87.21875 43.101562 88.601562 43.101562 C 89.980469 43.101562 91.101562 41.980469 91.101562 40.601562 "
     id="path117" />
  <path
     fill-rule="evenodd"
     fill="rgb(0%, 0%, 0%)"
     fill-opacity="1"
     d="M 91.601562 40.601562 C 91.601562 38.941406 90.257812 37.601562 88.601562 37.601562 C 86.941406 37.601562 85.601562 38.941406 85.601562 40.601562 C 85.601562 42.257812 86.941406 43.601562 88.601562 43.601562 C 90.257812 43.601562 91.601562 42.257812 91.601562 40.601562 M 90.601562 40.601562 C 90.601562 39.496094 89.703125 38.601562 88.601562 38.601562 C 87.496094 38.601562 86.601562 39.496094 86.601562 40.601562 C 86.601562 41.703125 87.496094 42.601562 88.601562 42.601562 C 89.703125 42.601562 90.601562 41.703125 90.601562 40.601562 "
     id="path118" />
  <path
     fill-rule="evenodd"
     fill="rgb(100%, 100%, 100%)"
     fill-opacity="1"
     d="M 75.101562 40.601562 C 75.101562 39.21875 73.980469 38.101562 72.601562 38.101562 C 71.21875 38.101562 70.101562 39.21875 70.101562 40.601562 C 70.101562 41.980469 71.21875 43.101562 72.601562 43.101562 C 73.980469 43.101562 75.101562 41.980469 75.101562 40.601562 "
     id="path119" />
  <path
     fill-rule="evenodd"
     fill="rgb(0%, 0%, 0%)"
     fill-opacity="1"
     d="M 75.601562 40.601562 C 75.601562 38.941406 74.257812 37.601562 72.601562 37.601562 C 70.941406 37.601562 69.601562 38.941406 69.601562 40.601562 C 69.601562 42.257812 70.941406 43.601562 72.601562 43.601562 C 74.257812 43.601562 75.601562 42.257812 75.601562 40.601562 M 74.601562 40.601562 C 74.601562 39.496094 73.703125 38.601562 72.601562 38.601562 C 71.496094 38.601562 70.601562 39.496094 70.601562 40.601562 C 70.601562 41.703125 71.496094 42.601562 72.601562 42.601562 C 73.703125 42.601562 74.601562 41.703125 74.601562 40.601562 "
     id="path120" />
  <g
     clip-path="url(#clip-1)"
     id="g121">
    <path
       fill="none"
       stroke-width="1.2"
       stroke-linecap="butt"
       stroke-linejoin="round"
       stroke="rgb(0%, 0%, 0%)"
       stroke-opacity="1"
       stroke-miterlimit="10"
       d="M 192.001563 719.998438 L 304.001562 719.998438 "
       transform="matrix(1, 0, 0, -1, -191.4, 768.6)"
       id="path121" />
  </g>
  <g
     clip-path="url(#clip-2)"
     id="g122">
    <path
       fill="none"
       stroke-width="1.2"
       stroke-linecap="butt"
       stroke-linejoin="round"
       stroke="rgb(0%, 0%, 0%)"
       stroke-opacity="1"
       stroke-miterlimit="10"
       d="M 192.001563 671.998438 L 304.001562 671.998438 "
       transform="matrix(1, 0, 0, -1, -191.4, 768.6)"
       id="path122" />
  </g>
  <g
     clip-path="url(#clip-3)"
     id="g123">
    <path
       fill="none"
       stroke-width="1.2"
       stroke-linecap="butt"
       stroke-linejoin="round"
       stroke="rgb(0%, 0%, 0%)"
       stroke-opacity="1"
       stroke-miterlimit="10"
       d="M 240.001563 719.998438 L 240.001563 655.998438 "
       transform="matrix(1, 0, 0, -1, -191.4, 768.6)"
       id="path123" />
  </g>
  <g
     clip-path="url(#clip-4)"
     id="g124">
    <path
       fill="none"
       stroke-width="1.2"
       stroke-linecap="butt"
       stroke-linejoin="round"
       stroke="rgb(0%, 0%, 0%)"
       stroke-opacity="1"
       stroke-miterlimit="10"
       d="M 256.001562 671.998438 L 256.001562 655.998438 "
       transform="matrix(1, 0, 0, -1, -191.4, 768.6)"
       id="path124" />
  </g>
  <path
     fill="none"
     stroke-width="1.2"
     stroke-linecap="butt"
     stroke-linejoin="round"
     stroke="rgb(0%, 0%, 0%)"
     stroke-opacity="1"
     stroke-miterlimit="10"
     d="M 256.001562 719.998438 L 256.001562 767.998438 "
     transform="matrix(1, 0, 0, -1, -191.4, 768.6)"
     id="path125" />
</svg>
