<?xml version="1.0" encoding="UTF-8" standalone="no"?>
<svg
   width="194pt"
   height="83pt"
   viewBox="0 0 194 83"
   version="1.1"
   id="svg17"
   xmlns="http://www.w3.org/2000/svg"
   xmlns:svg="http://www.w3.org/2000/svg">
  <defs
     id="defs17" />
  <path
     fill-rule="evenodd"
     fill="rgb(100%, 100%, 100%)"
     fill-opacity="1"
     d="M 2.800781 1 C 2.800781 0.0078125 1.992188 -0.800781 1 -0.800781 C 0.0078125 -0.800781 -0.800781 0.0078125 -0.800781 1 C -0.800781 1.992188 0.0078125 2.800781 1 2.800781 C 1.992188 2.800781 2.800781 1.992188 2.800781 1 "
     id="path1" />
  <path
     fill="none"
     stroke-width="2"
     stroke-linecap="butt"
     stroke-linejoin="round"
     stroke="rgb(0%, 0%, 0%)"
     stroke-opacity="1"
     stroke-miterlimit="10"
     d="M 96 784 L 96 800 L 16 800 L 16 720 L 96 720 L 96 736 L 128 736 L 128 720 L 208 720 L 208 800 L 128 800 L 128 784 Z M 96 784 "
     transform="matrix(1, 0, 0, -1, -15, 801)"
     id="path2" />
  <path
     fill="none"
     stroke-width="0.4"
     stroke-linecap="butt"
     stroke-linejoin="round"
     stroke="rgb(0%, 0%, 0%)"
     stroke-opacity="1"
     stroke-miterlimit="10"
     d="M 32 800 L 32 720 "
     transform="matrix(1, 0, 0, -1, -15, 801)"
     id="path3" />
  <path
     fill="none"
     stroke-width="0.4"
     stroke-linecap="butt"
     stroke-linejoin="round"
     stroke="rgb(0%, 0%, 0%)"
     stroke-opacity="1"
     stroke-miterlimit="10"
     d="M 48 800 L 48 720 "
     transform="matrix(1, 0, 0, -1, -15, 801)"
     id="path4" />
  <path
     fill="none"
     stroke-width="0.4"
     stroke-linecap="butt"
     stroke-linejoin="round"
     stroke="rgb(0%, 0%, 0%)"
     stroke-opacity="1"
     stroke-miterlimit="10"
     d="M 64 800 L 64 720 "
     transform="matrix(1, 0, 0, -1, -15, 801)"
     id="path5" />
  <path
     fill="none"
     stroke-width="0.4"
     stroke-linecap="butt"
     stroke-linejoin="round"
     stroke="rgb(0%, 0%, 0%)"
     stroke-opacity="1"
     stroke-miterlimit="10"
     d="M 80 800 L 80 720 "
     transform="matrix(1, 0, 0, -1, -15, 801)"
     id="path6" />
  <path
     fill="none"
     stroke-width="0.4"
     stroke-linecap="butt"
     stroke-linejoin="round"
     stroke="rgb(0%, 0%, 0%)"
     stroke-opacity="1"
     stroke-miterlimit="10"
     d="M 144 800 L 144 720 "
     transform="matrix(1, 0, 0, -1, -15, 801)"
     id="path7" />
  <path
     fill="none"
     stroke-width="0.4"
     stroke-linecap="butt"
     stroke-linejoin="round"
     stroke="rgb(0%, 0%, 0%)"
     stroke-opacity="1"
     stroke-miterlimit="10"
     d="M 160 800 L 160 720 "
     transform="matrix(1, 0, 0, -1, -15, 801)"
     id="path8" />
  <path
     fill="none"
     stroke-width="0.4"
     stroke-linecap="butt"
     stroke-linejoin="round"
     stroke="rgb(0%, 0%, 0%)"
     stroke-opacity="1"
     stroke-miterlimit="10"
     d="M 176 800 L 176 720 "
     transform="matrix(1, 0, 0, -1, -15, 801)"
     id="path9" />
  <path
     fill="none"
     stroke-width="0.4"
     stroke-linecap="butt"
     stroke-linejoin="round"
     stroke="rgb(0%, 0%, 0%)"
     stroke-opacity="1"
     stroke-miterlimit="10"
     d="M 192 800 L 192 720 "
     transform="matrix(1, 0, 0, -1, -15, 801)"
     id="path10" />
  <path
     fill="none"
     stroke-width="0.4"
     stroke-linecap="butt"
     stroke-linejoin="round"
     stroke="rgb(0%, 0%, 0%)"
     stroke-opacity="1"
     stroke-miterlimit="10"
     d="M 128 784 L 128 736 "
     transform="matrix(1, 0, 0, -1, -15, 801)"
     id="path11" />
  <path
     fill="none"
     stroke-width="0.4"
     stroke-linecap="butt"
     stroke-linejoin="round"
     stroke="rgb(0%, 0%, 0%)"
     stroke-opacity="1"
     stroke-miterlimit="10"
     d="M 112 784 L 112 736 "
     transform="matrix(1, 0, 0, -1, -15, 801)"
     id="path12" />
  <path
     fill="none"
     stroke-width="0.4"
     stroke-linecap="butt"
     stroke-linejoin="round"
     stroke="rgb(0%, 0%, 0%)"
     stroke-opacity="1"
     stroke-miterlimit="10"
     d="M 96 784 L 96 736 "
     transform="matrix(1, 0, 0, -1, -15, 801)"
     id="path13" />
  <path
     fill="none"
     stroke-width="0.4"
     stroke-linecap="butt"
     stroke-linejoin="round"
     stroke="rgb(0%, 0%, 0%)"
     stroke-opacity="1"
     stroke-miterlimit="10"
     d="M 16 784 L 208 784 "
     transform="matrix(1, 0, 0, -1, -15, 801)"
     id="path14" />
  <path
     fill="none"
     stroke-width="0.4"
     stroke-linecap="butt"
     stroke-linejoin="round"
     stroke="rgb(0%, 0%, 0%)"
     stroke-opacity="1"
     stroke-miterlimit="10"
     d="M 16 768 L 208 768 "
     transform="matrix(1, 0, 0, -1, -15, 801)"
     id="path15" />
  <path
     fill="none"
     stroke-width="0.4"
     stroke-linecap="butt"
     stroke-linejoin="round"
     stroke="rgb(0%, 0%, 0%)"
     stroke-opacity="1"
     stroke-miterlimit="10"
     d="M 16 752 L 208 752 "
     transform="matrix(1, 0, 0, -1, -15, 801)"
     id="path16" />
  <path
     fill="none"
     stroke-width="0.4"
     stroke-linecap="butt"
     stroke-linejoin="round"
     stroke="rgb(0%, 0%, 0%)"
     stroke-opacity="1"
     stroke-miterlimit="10"
     d="M 16 736 L 208 736 "
     transform="matrix(1, 0, 0, -1, -15, 801)"
     id="path17" />
</svg>
