<?xml version="1.0" encoding="UTF-8" standalone="no"?>
<svg
   width="162pt"
   height="178pt"
   viewBox="0 0 162 178"
   version="1.1"
   id="svg20"
   xmlns="http://www.w3.org/2000/svg"
   xmlns:svg="http://www.w3.org/2000/svg">
  <defs
     id="defs20" />
  <path
     fill="none"
     stroke-width="0.4"
     stroke-linecap="butt"
     stroke-linejoin="round"
     stroke="rgb(0%, 0%, 0%)"
     stroke-opacity="1"
     stroke-miterlimit="10"
     d="M 192 560 L 192 512 "
     transform="matrix(1, 0, 0, -1, -175, 625)"
     id="path1" />
  <path
     fill="none"
     stroke-width="0.4"
     stroke-linecap="butt"
     stroke-linejoin="round"
     stroke="rgb(0%, 0%, 0%)"
     stroke-opacity="1"
     stroke-miterlimit="10"
     d="M 207.996094 575.996094 L 207.996094 511.996094 "
     transform="matrix(1, 0, 0, -1, -175, 625)"
     id="path2" />
  <path
     fill="none"
     stroke-width="0.4"
     stroke-linecap="butt"
     stroke-linejoin="round"
     stroke="rgb(0%, 0%, 0%)"
     stroke-opacity="1"
     stroke-miterlimit="10"
     d="M 223.996094 591.996094 L 223.996094 479.996094 "
     transform="matrix(1, 0, 0, -1, -175, 625)"
     id="path3" />
  <path
     fill="none"
     stroke-width="0.4"
     stroke-linecap="butt"
     stroke-linejoin="round"
     stroke="rgb(0%, 0%, 0%)"
     stroke-opacity="1"
     stroke-miterlimit="10"
     d="M 239.996094 608 L 239.996094 479.996094 "
     transform="matrix(1, 0, 0, -1, -175, 625)"
     id="path4" />
  <path
     fill="none"
     stroke-width="0.4"
     stroke-linecap="butt"
     stroke-linejoin="round"
     stroke="rgb(0%, 0%, 0%)"
     stroke-opacity="1"
     stroke-miterlimit="10"
     d="M 319.996094 511.988281 L 319.996094 559.988281 "
     transform="matrix(1, 0, 0, -1, -175, 625)"
     id="path5" />
  <path
     fill="none"
     stroke-width="0.4"
     stroke-linecap="butt"
     stroke-linejoin="round"
     stroke="rgb(0%, 0%, 0%)"
     stroke-opacity="1"
     stroke-miterlimit="10"
     d="M 303.996094 495.992188 L 303.996094 559.992188 "
     transform="matrix(1, 0, 0, -1, -175, 625)"
     id="path6" />
  <path
     fill="none"
     stroke-width="0.4"
     stroke-linecap="butt"
     stroke-linejoin="round"
     stroke="rgb(0%, 0%, 0%)"
     stroke-opacity="1"
     stroke-miterlimit="10"
     d="M 288.003906 480.003906 L 288.003906 592.003906 "
     transform="matrix(1, 0, 0, -1, -175, 625)"
     id="path7" />
  <path
     fill="none"
     stroke-width="0.4"
     stroke-linecap="butt"
     stroke-linejoin="round"
     stroke="rgb(0%, 0%, 0%)"
     stroke-opacity="1"
     stroke-miterlimit="10"
     d="M 272 463.992188 L 272 591.992188 "
     transform="matrix(1, 0, 0, -1, -175, 625)"
     id="path8" />
  <path
     fill="none"
     stroke-width="0.4"
     stroke-linecap="butt"
     stroke-linejoin="round"
     stroke="rgb(0%, 0%, 0%)"
     stroke-opacity="1"
     stroke-miterlimit="10"
     d="M 256 624 L 256 448 "
     transform="matrix(1, 0, 0, -1, -175, 625)"
     id="path9" />
  <path
     fill="none"
     stroke-width="0.4"
     stroke-linecap="butt"
     stroke-linejoin="round"
     stroke="rgb(0%, 0%, 0%)"
     stroke-opacity="1"
     stroke-miterlimit="10"
     d="M 176 528 L 336 528 "
     transform="matrix(1, 0, 0, -1, -175, 625)"
     id="path10" />
  <path
     fill="none"
     stroke-width="0.4"
     stroke-linecap="butt"
     stroke-linejoin="round"
     stroke="rgb(0%, 0%, 0%)"
     stroke-opacity="1"
     stroke-miterlimit="10"
     d="M 320 512 L 208 512 "
     transform="matrix(1, 0, 0, -1, -175, 625)"
     id="path11" />
  <path
     fill="none"
     stroke-width="0.4"
     stroke-linecap="butt"
     stroke-linejoin="round"
     stroke="rgb(0%, 0%, 0%)"
     stroke-opacity="1"
     stroke-miterlimit="10"
     d="M 208 496 L 304 496 "
     transform="matrix(1, 0, 0, -1, -175, 625)"
     id="path12" />
  <path
     fill="none"
     stroke-width="0.4"
     stroke-linecap="butt"
     stroke-linejoin="round"
     stroke="rgb(0%, 0%, 0%)"
     stroke-opacity="1"
     stroke-miterlimit="10"
     d="M 288 480 L 240 480 "
     transform="matrix(1, 0, 0, -1, -175, 625)"
     id="path13" />
  <path
     fill="none"
     stroke-width="0.4"
     stroke-linecap="butt"
     stroke-linejoin="round"
     stroke="rgb(0%, 0%, 0%)"
     stroke-opacity="1"
     stroke-miterlimit="10"
     d="M 240 464 L 272 464 "
     transform="matrix(1, 0, 0, -1, -175, 625)"
     id="path14" />
  <path
     fill="none"
     stroke-width="0.4"
     stroke-linecap="butt"
     stroke-linejoin="round"
     stroke="rgb(0%, 0%, 0%)"
     stroke-opacity="1"
     stroke-miterlimit="10"
     d="M 336 544 L 176 544 "
     transform="matrix(1, 0, 0, -1, -175, 625)"
     id="path15" />
  <path
     fill="none"
     stroke-width="0.4"
     stroke-linecap="butt"
     stroke-linejoin="round"
     stroke="rgb(0%, 0%, 0%)"
     stroke-opacity="1"
     stroke-miterlimit="10"
     d="M 192 560 L 304 560 "
     transform="matrix(1, 0, 0, -1, -175, 625)"
     id="path16" />
  <path
     fill="none"
     stroke-width="0.4"
     stroke-linecap="butt"
     stroke-linejoin="round"
     stroke="rgb(0%, 0%, 0%)"
     stroke-opacity="1"
     stroke-miterlimit="10"
     d="M 304 576 L 208 576 "
     transform="matrix(1, 0, 0, -1, -175, 625)"
     id="path17" />
  <path
     fill="none"
     stroke-width="0.4"
     stroke-linecap="butt"
     stroke-linejoin="round"
     stroke="rgb(0%, 0%, 0%)"
     stroke-opacity="1"
     stroke-miterlimit="10"
     d="M 224 592 L 272 592 "
     transform="matrix(1, 0, 0, -1, -175, 625)"
     id="path18" />
  <path
     fill="none"
     stroke-width="0.4"
     stroke-linecap="butt"
     stroke-linejoin="round"
     stroke="rgb(0%, 0%, 0%)"
     stroke-opacity="1"
     stroke-miterlimit="10"
     d="M 272 608 L 240 608 "
     transform="matrix(1, 0, 0, -1, -175, 625)"
     id="path19" />
  <path
     fill="none"
     stroke-width="2"
     stroke-linecap="butt"
     stroke-linejoin="round"
     stroke="rgb(0%, 0%, 0%)"
     stroke-opacity="1"
     stroke-miterlimit="10"
     d="M 176 560 L 176 512 L 208 512 L 208 480 L 240 480 L 240 448 L 272 448 L 272 464 L 288 464 L 288 480 L 304 480 L 304 496 L 320 496 L 320 512 L 336 512 L 336 560 L 304 560 L 304 592 L 272 592 L 272 624 L 240 624 L 240 608 L 224 608 L 224 592 L 208 592 L 208 576 L 192 576 L 192 560 Z M 176 560 "
     transform="matrix(1, 0, 0, -1, -175, 625)"
     id="path20" />
</svg>
