<?xml version="1.0" encoding="UTF-8" standalone="no"?>
<svg
   width="128.4pt"
   height="128.4pt"
   viewBox="0 0 128.4 128.4"
   version="1.1"
   id="svg59"
   xmlns="http://www.w3.org/2000/svg"
   xmlns:svg="http://www.w3.org/2000/svg">
  <defs
     id="defs16">
    <clipPath
       id="clip-0">
      <path
         clip-rule="nonzero"
         d="M 0 0 L 128.398438 0 L 128.398438 128.398438 L 0 128.398438 Z M 0 0 "
         id="path1" />
    </clipPath>
    <clipPath
       id="clip-1">
      <path
         clip-rule="nonzero"
         d="M 0 0 L 128.398438 0 L 128.398438 128.398438 L 0 128.398438 Z M 0 0 "
         id="path2" />
    </clipPath>
    <clipPath
       id="clip-2">
      <path
         clip-rule="nonzero"
         d="M 112 0 L 113 0 L 113 128.398438 L 112 128.398438 Z M 112 0 "
         id="path3" />
    </clipPath>
    <clipPath
       id="clip-3">
      <path
         clip-rule="nonzero"
         d="M 96 0 L 97 0 L 97 128.398438 L 96 128.398438 Z M 96 0 "
         id="path4" />
    </clipPath>
    <clipPath
       id="clip-4">
      <path
         clip-rule="nonzero"
         d="M 80 0 L 81 0 L 81 128.398438 L 80 128.398438 Z M 80 0 "
         id="path5" />
    </clipPath>
    <clipPath
       id="clip-5">
      <path
         clip-rule="nonzero"
         d="M 64 0 L 65 0 L 65 128.398438 L 64 128.398438 Z M 64 0 "
         id="path6" />
    </clipPath>
    <clipPath
       id="clip-6">
      <path
         clip-rule="nonzero"
         d="M 48 0 L 49 0 L 49 128.398438 L 48 128.398438 Z M 48 0 "
         id="path7" />
    </clipPath>
    <clipPath
       id="clip-7">
      <path
         clip-rule="nonzero"
         d="M 32 0 L 33 0 L 33 128.398438 L 32 128.398438 Z M 32 0 "
         id="path8" />
    </clipPath>
    <clipPath
       id="clip-8">
      <path
         clip-rule="nonzero"
         d="M 16 0 L 17 0 L 17 128.398438 L 16 128.398438 Z M 16 0 "
         id="path9" />
    </clipPath>
    <clipPath
       id="clip-9">
      <path
         clip-rule="nonzero"
         d="M 0 16 L 128.398438 16 L 128.398438 17 L 0 17 Z M 0 16 "
         id="path10" />
    </clipPath>
    <clipPath
       id="clip-10">
      <path
         clip-rule="nonzero"
         d="M 0 32 L 128.398438 32 L 128.398438 33 L 0 33 Z M 0 32 "
         id="path11" />
    </clipPath>
    <clipPath
       id="clip-11">
      <path
         clip-rule="nonzero"
         d="M 0 48 L 128.398438 48 L 128.398438 49 L 0 49 Z M 0 48 "
         id="path12" />
    </clipPath>
    <clipPath
       id="clip-12">
      <path
         clip-rule="nonzero"
         d="M 0 64 L 128.398438 64 L 128.398438 65 L 0 65 Z M 0 64 "
         id="path13" />
    </clipPath>
    <clipPath
       id="clip-13">
      <path
         clip-rule="nonzero"
         d="M 0 80 L 128.398438 80 L 128.398438 81 L 0 81 Z M 0 80 "
         id="path14" />
    </clipPath>
    <clipPath
       id="clip-14">
      <path
         clip-rule="nonzero"
         d="M 0 96 L 128.398438 96 L 128.398438 97 L 0 97 Z M 0 96 "
         id="path15" />
    </clipPath>
    <clipPath
       id="clip-15">
      <path
         clip-rule="nonzero"
         d="M 0 112 L 128.398438 112 L 128.398438 113 L 0 113 Z M 0 112 "
         id="path16" />
    </clipPath>
  </defs>
  <g
     clip-path="url(#clip-0)"
     id="g18">
    <path
       fill-rule="evenodd"
       fill="rgb(94.898987%, 94.898987%, 94.898987%)"
       fill-opacity="1"
       d="M 0.199219 0.199219 L 0.199219 16.199219 L 64.199219 16.199219 L 64.199219 32.199219 L 80.199219 32.199219 L 80.199219 128.199219 L 96.199219 128.199219 L 96.199219 32.199219 L 112.199219 32.199219 L 112.199219 16.199219 L 128.199219 16.199219 L 128.199219 0.199219 Z M 0.199219 0.199219 "
       id="path17" />
    <path
       fill-rule="evenodd"
       fill="rgb(89.7995%, 89.7995%, 89.7995%)"
       fill-opacity="1"
       d="M 32.199219 0.199219 L 48.199219 0.199219 L 48.199219 48.199219 L 64.199219 48.199219 L 64.199219 64.199219 L 128.199219 64.199219 L 128.199219 80.199219 L 64.199219 80.199219 L 64.199219 96.199219 L 48.199219 96.199219 L 48.199219 128.199219 L 32.199219 128.199219 L 32.199219 96.199219 L 16.199219 96.199219 L 16.199219 80.199219 L 0.199219 80.199219 L 0.199219 64.199219 L 16.199219 64.199219 L 16.199219 48.199219 L 32.199219 48.199219 Z M 32.199219 0.199219 "
       id="path18" />
  </g>
  <path
     fill-rule="evenodd"
     fill="rgb(85.099792%, 85.099792%, 85.099792%)"
     fill-opacity="1"
     d="M 32.199219 0.199219 L 32.199219 16.199219 L 48.199219 16.199219 L 48.199219 0.199219 Z M 32.199219 0.199219 "
     id="path19" />
  <path
     fill-rule="evenodd"
     fill="rgb(85.099792%, 85.099792%, 85.099792%)"
     fill-opacity="1"
     d="M 80.199219 64.199219 L 80.199219 80.199219 L 96.199219 80.199219 L 96.199219 64.199219 Z M 80.199219 64.199219 "
     id="path20" />
  <path
     fill="none"
     stroke-width="2"
     stroke-linecap="butt"
     stroke-linejoin="round"
     stroke="rgb(70.199585%, 70.199585%, 70.199585%)"
     stroke-opacity="1"
     stroke-miterlimit="10"
     d="M 287.999219 720.000781 L 271.999219 736.000781 L 255.999219 720.000781 "
     transform="matrix(1, 0, 0, -1, -183.8, 744.2)"
     id="path21" />
  <path
     fill-rule="evenodd"
     fill="rgb(70.199585%, 70.199585%, 70.199585%)"
     fill-opacity="1"
     stroke-width="2"
     stroke-linecap="butt"
     stroke-linejoin="round"
     stroke="rgb(70.199585%, 70.199585%, 70.199585%)"
     stroke-opacity="1"
     stroke-miterlimit="10"
     d="M 255.999219 720.000781 L 260.714063 722.35625 L 258.827344 722.828906 L 258.358594 724.711719 Z M 255.999219 720.000781 "
     transform="matrix(1, 0, 0, -1, -183.8, 744.2)"
     id="path22" />
  <path
     fill-rule="evenodd"
     fill="rgb(70.199585%, 70.199585%, 70.199585%)"
     fill-opacity="1"
     stroke-width="2"
     stroke-linecap="butt"
     stroke-linejoin="round"
     stroke="rgb(70.199585%, 70.199585%, 70.199585%)"
     stroke-opacity="1"
     stroke-miterlimit="10"
     d="M 287.999219 720.000781 L 285.64375 724.711719 L 285.171094 722.828906 L 283.288281 722.35625 Z M 287.999219 720.000781 "
     transform="matrix(1, 0, 0, -1, -183.8, 744.2)"
     id="path23" />
  <path
     fill="none"
     stroke-width="2"
     stroke-linecap="butt"
     stroke-linejoin="round"
     stroke="rgb(70.199585%, 70.199585%, 70.199585%)"
     stroke-opacity="1"
     stroke-miterlimit="10"
     d="M 303.999219 736.000781 L 191.999219 736.000781 "
     transform="matrix(1, 0, 0, -1, -183.8, 744.2)"
     id="path24" />
  <path
     fill-rule="evenodd"
     fill="rgb(70.199585%, 70.199585%, 70.199585%)"
     fill-opacity="1"
     stroke-width="2"
     stroke-linecap="butt"
     stroke-linejoin="round"
     stroke="rgb(70.199585%, 70.199585%, 70.199585%)"
     stroke-opacity="1"
     stroke-miterlimit="10"
     d="M 191.999219 736.000781 L 196.999219 734.336719 L 195.999219 736.000781 L 196.999219 737.664844 Z M 191.999219 736.000781 "
     transform="matrix(1, 0, 0, -1, -183.8, 744.2)"
     id="path25" />
  <path
     fill-rule="evenodd"
     fill="rgb(70.199585%, 70.199585%, 70.199585%)"
     fill-opacity="1"
     stroke-width="2"
     stroke-linecap="butt"
     stroke-linejoin="round"
     stroke="rgb(70.199585%, 70.199585%, 70.199585%)"
     stroke-opacity="1"
     stroke-miterlimit="10"
     d="M 303.999219 736.000781 L 298.999219 737.664844 L 299.999219 736.000781 L 298.999219 734.336719 Z M 303.999219 736.000781 "
     transform="matrix(1, 0, 0, -1, -183.8, 744.2)"
     id="path26" />
  <path
     fill="none"
     stroke-width="2"
     stroke-linecap="butt"
     stroke-linejoin="round"
     stroke="rgb(70.199585%, 70.199585%, 70.199585%)"
     stroke-opacity="1"
     stroke-miterlimit="10"
     d="M 271.999219 736.000781 L 271.999219 624.000781 "
     transform="matrix(1, 0, 0, -1, -183.8, 744.2)"
     id="path27" />
  <path
     fill-rule="evenodd"
     fill="rgb(70.199585%, 70.199585%, 70.199585%)"
     fill-opacity="1"
     stroke-width="2"
     stroke-linecap="butt"
     stroke-linejoin="round"
     stroke="rgb(70.199585%, 70.199585%, 70.199585%)"
     stroke-opacity="1"
     stroke-miterlimit="10"
     d="M 271.999219 624.000781 L 273.663281 629.000781 L 271.999219 628.000781 L 270.335156 629.000781 Z M 271.999219 624.000781 "
     transform="matrix(1, 0, 0, -1, -183.8, 744.2)"
     id="path28" />
  <path
     fill-rule="evenodd"
     fill="rgb(0%, 0%, 0%)"
     fill-opacity="1"
     d="M 91.199219 8.199219 C 91.199219 6.542969 89.855469 5.199219 88.199219 5.199219 C 86.542969 5.199219 85.199219 6.542969 85.199219 8.199219 C 85.199219 9.855469 86.542969 11.199219 88.199219 11.199219 C 89.855469 11.199219 91.199219 9.855469 91.199219 8.199219 "
     id="path29" />
  <path
     fill="none"
     stroke-width="2"
     stroke-linecap="butt"
     stroke-linejoin="round"
     stroke="rgb(59.999084%, 59.999084%, 59.999084%)"
     stroke-opacity="1"
     stroke-miterlimit="10"
     d="M 223.999219 736.000781 L 223.999219 624.000781 "
     transform="matrix(1, 0, 0, -1, -183.8, 744.2)"
     id="path30" />
  <path
     fill-rule="evenodd"
     fill="rgb(59.999084%, 59.999084%, 59.999084%)"
     fill-opacity="1"
     stroke-width="2"
     stroke-linecap="butt"
     stroke-linejoin="round"
     stroke="rgb(59.999084%, 59.999084%, 59.999084%)"
     stroke-opacity="1"
     stroke-miterlimit="10"
     d="M 223.999219 624.000781 L 225.663281 629.000781 L 223.999219 628.000781 L 222.335156 629.000781 Z M 223.999219 624.000781 "
     transform="matrix(1, 0, 0, -1, -183.8, 744.2)"
     id="path31" />
  <path
     fill-rule="evenodd"
     fill="rgb(59.999084%, 59.999084%, 59.999084%)"
     fill-opacity="1"
     stroke-width="2"
     stroke-linecap="butt"
     stroke-linejoin="round"
     stroke="rgb(59.999084%, 59.999084%, 59.999084%)"
     stroke-opacity="1"
     stroke-miterlimit="10"
     d="M 223.999219 736.000781 L 222.335156 731.000781 L 223.999219 732.000781 L 225.663281 731.000781 Z M 223.999219 736.000781 "
     transform="matrix(1, 0, 0, -1, -183.8, 744.2)"
     id="path32" />
  <path
     fill="none"
     stroke-width="2"
     stroke-linecap="butt"
     stroke-linejoin="round"
     stroke="rgb(59.999084%, 59.999084%, 59.999084%)"
     stroke-opacity="1"
     stroke-miterlimit="10"
     d="M 191.999219 672.000781 L 303.999219 672.000781 "
     transform="matrix(1, 0, 0, -1, -183.8, 744.2)"
     id="path33" />
  <path
     fill-rule="evenodd"
     fill="rgb(59.999084%, 59.999084%, 59.999084%)"
     fill-opacity="1"
     stroke-width="2"
     stroke-linecap="butt"
     stroke-linejoin="round"
     stroke="rgb(59.999084%, 59.999084%, 59.999084%)"
     stroke-opacity="1"
     stroke-miterlimit="10"
     d="M 303.999219 672.000781 L 298.999219 673.664844 L 299.999219 672.000781 L 298.999219 670.336719 Z M 303.999219 672.000781 "
     transform="matrix(1, 0, 0, -1, -183.8, 744.2)"
     id="path34" />
  <path
     fill-rule="evenodd"
     fill="rgb(59.999084%, 59.999084%, 59.999084%)"
     fill-opacity="1"
     stroke-width="2"
     stroke-linecap="butt"
     stroke-linejoin="round"
     stroke="rgb(59.999084%, 59.999084%, 59.999084%)"
     stroke-opacity="1"
     stroke-miterlimit="10"
     d="M 191.999219 672.000781 L 196.999219 670.336719 L 195.999219 672.000781 L 196.999219 673.664844 Z M 191.999219 672.000781 "
     transform="matrix(1, 0, 0, -1, -183.8, 744.2)"
     id="path35" />
  <path
     fill="none"
     stroke-width="2"
     stroke-linecap="butt"
     stroke-linejoin="round"
     stroke="rgb(59.999084%, 59.999084%, 59.999084%)"
     stroke-opacity="1"
     stroke-miterlimit="10"
     d="M 207.999219 656.000781 L 239.999219 688.000781 "
     transform="matrix(1, 0, 0, -1, -183.8, 744.2)"
     id="path36" />
  <path
     fill-rule="evenodd"
     fill="rgb(59.999084%, 59.999084%, 59.999084%)"
     fill-opacity="1"
     stroke-width="2"
     stroke-linecap="butt"
     stroke-linejoin="round"
     stroke="rgb(59.999084%, 59.999084%, 59.999084%)"
     stroke-opacity="1"
     stroke-miterlimit="10"
     d="M 239.999219 688.000781 L 235.288281 685.641406 L 237.171094 685.172656 L 237.64375 683.285938 Z M 239.999219 688.000781 "
     transform="matrix(1, 0, 0, -1, -183.8, 744.2)"
     id="path37" />
  <path
     fill-rule="evenodd"
     fill="rgb(59.999084%, 59.999084%, 59.999084%)"
     fill-opacity="1"
     stroke-width="2"
     stroke-linecap="butt"
     stroke-linejoin="round"
     stroke="rgb(59.999084%, 59.999084%, 59.999084%)"
     stroke-opacity="1"
     stroke-miterlimit="10"
     d="M 207.999219 656.000781 L 212.714063 658.35625 L 210.827344 658.828906 L 210.358594 660.711719 Z M 207.999219 656.000781 "
     transform="matrix(1, 0, 0, -1, -183.8, 744.2)"
     id="path38" />
  <path
     fill="none"
     stroke-width="2"
     stroke-linecap="butt"
     stroke-linejoin="round"
     stroke="rgb(59.999084%, 59.999084%, 59.999084%)"
     stroke-opacity="1"
     stroke-miterlimit="10"
     d="M 207.999219 688.000781 L 239.999219 656.000781 "
     transform="matrix(1, 0, 0, -1, -183.8, 744.2)"
     id="path39" />
  <path
     fill-rule="evenodd"
     fill="rgb(59.999084%, 59.999084%, 59.999084%)"
     fill-opacity="1"
     stroke-width="2"
     stroke-linecap="butt"
     stroke-linejoin="round"
     stroke="rgb(59.999084%, 59.999084%, 59.999084%)"
     stroke-opacity="1"
     stroke-miterlimit="10"
     d="M 239.999219 656.000781 L 237.64375 660.711719 L 237.171094 658.828906 L 235.288281 658.35625 Z M 239.999219 656.000781 "
     transform="matrix(1, 0, 0, -1, -183.8, 744.2)"
     id="path40" />
  <path
     fill-rule="evenodd"
     fill="rgb(59.999084%, 59.999084%, 59.999084%)"
     fill-opacity="1"
     stroke-width="2"
     stroke-linecap="butt"
     stroke-linejoin="round"
     stroke="rgb(59.999084%, 59.999084%, 59.999084%)"
     stroke-opacity="1"
     stroke-miterlimit="10"
     d="M 207.999219 688.000781 L 210.358594 683.285938 L 210.827344 685.172656 L 212.714063 685.641406 Z M 207.999219 688.000781 "
     transform="matrix(1, 0, 0, -1, -183.8, 744.2)"
     id="path41" />
  <path
     fill="none"
     stroke-width="2"
     stroke-linecap="butt"
     stroke-linejoin="round"
     stroke="rgb(59.999084%, 59.999084%, 59.999084%)"
     stroke-opacity="1"
     stroke-miterlimit="10"
     d="M 223.999219 736.000781 L 223.999219 672.000781 L 303.999219 672.000781 "
     transform="matrix(1, 0, 0, -1, -183.8, 744.2)"
     id="path42" />
  <path
     fill-rule="evenodd"
     fill="rgb(59.999084%, 59.999084%, 59.999084%)"
     fill-opacity="1"
     stroke-width="2"
     stroke-linecap="butt"
     stroke-linejoin="round"
     stroke="rgb(59.999084%, 59.999084%, 59.999084%)"
     stroke-opacity="1"
     stroke-miterlimit="10"
     d="M 223.999219 736.000781 L 222.335156 731.000781 L 223.999219 732.000781 L 225.663281 731.000781 Z M 223.999219 736.000781 "
     transform="matrix(1, 0, 0, -1, -183.8, 744.2)"
     id="path43" />
  <path
     fill-rule="evenodd"
     fill="rgb(0%, 0%, 0%)"
     fill-opacity="1"
     d="M 43.199219 72.199219 C 43.199219 70.542969 41.855469 69.199219 40.199219 69.199219 C 38.542969 69.199219 37.199219 70.542969 37.199219 72.199219 C 37.199219 73.855469 38.542969 75.199219 40.199219 75.199219 C 41.855469 75.199219 43.199219 73.855469 43.199219 72.199219 "
     id="path44" />
  <g
     clip-path="url(#clip-1)"
     id="g45">
    <path
       fill="none"
       stroke-width="0.4"
       stroke-linecap="butt"
       stroke-linejoin="round"
       stroke="rgb(0%, 0%, 0%)"
       stroke-opacity="1"
       stroke-miterlimit="10"
       d="M 183.999219 744.000781 L 183.999219 616.000781 L 311.999219 616.000781 L 311.999219 744.000781 Z M 183.999219 744.000781 "
       transform="matrix(1, 0, 0, -1, -183.8, 744.2)"
       id="path45" />
  </g>
  <g
     clip-path="url(#clip-2)"
     id="g46">
    <path
       fill="none"
       stroke-width="0.4"
       stroke-linecap="butt"
       stroke-linejoin="round"
       stroke="rgb(0%, 0%, 0%)"
       stroke-opacity="1"
       stroke-miterlimit="10"
       d="M 295.999219 616.000781 L 295.999219 744.000781 "
       transform="matrix(1, 0, 0, -1, -183.8, 744.2)"
       id="path46" />
  </g>
  <g
     clip-path="url(#clip-3)"
     id="g47">
    <path
       fill="none"
       stroke-width="0.4"
       stroke-linecap="butt"
       stroke-linejoin="round"
       stroke="rgb(0%, 0%, 0%)"
       stroke-opacity="1"
       stroke-miterlimit="10"
       d="M 279.999219 616.000781 L 279.999219 744.000781 "
       transform="matrix(1, 0, 0, -1, -183.8, 744.2)"
       id="path47" />
  </g>
  <g
     clip-path="url(#clip-4)"
     id="g48">
    <path
       fill="none"
       stroke-width="0.4"
       stroke-linecap="butt"
       stroke-linejoin="round"
       stroke="rgb(0%, 0%, 0%)"
       stroke-opacity="1"
       stroke-miterlimit="10"
       d="M 263.999219 616.000781 L 263.999219 744.000781 "
       transform="matrix(1, 0, 0, -1, -183.8, 744.2)"
       id="path48" />
  </g>
  <g
     clip-path="url(#clip-5)"
     id="g49">
    <path
       fill="none"
       stroke-width="0.4"
       stroke-linecap="butt"
       stroke-linejoin="round"
       stroke="rgb(0%, 0%, 0%)"
       stroke-opacity="1"
       stroke-miterlimit="10"
       d="M 247.999219 616.000781 L 247.999219 744.000781 "
       transform="matrix(1, 0, 0, -1, -183.8, 744.2)"
       id="path49" />
  </g>
  <g
     clip-path="url(#clip-6)"
     id="g50">
    <path
       fill="none"
       stroke-width="0.4"
       stroke-linecap="butt"
       stroke-linejoin="round"
       stroke="rgb(0%, 0%, 0%)"
       stroke-opacity="1"
       stroke-miterlimit="10"
       d="M 231.999219 616.000781 L 231.999219 744.000781 "
       transform="matrix(1, 0, 0, -1, -183.8, 744.2)"
       id="path50" />
  </g>
  <g
     clip-path="url(#clip-7)"
     id="g51">
    <path
       fill="none"
       stroke-width="0.4"
       stroke-linecap="butt"
       stroke-linejoin="round"
       stroke="rgb(0%, 0%, 0%)"
       stroke-opacity="1"
       stroke-miterlimit="10"
       d="M 215.999219 616.000781 L 215.999219 744.000781 "
       transform="matrix(1, 0, 0, -1, -183.8, 744.2)"
       id="path51" />
  </g>
  <g
     clip-path="url(#clip-8)"
     id="g52">
    <path
       fill="none"
       stroke-width="0.4"
       stroke-linecap="butt"
       stroke-linejoin="round"
       stroke="rgb(0%, 0%, 0%)"
       stroke-opacity="1"
       stroke-miterlimit="10"
       d="M 199.999219 616.000781 L 199.999219 744.000781 "
       transform="matrix(1, 0, 0, -1, -183.8, 744.2)"
       id="path52" />
  </g>
  <g
     clip-path="url(#clip-9)"
     id="g53">
    <path
       fill="none"
       stroke-width="0.4"
       stroke-linecap="butt"
       stroke-linejoin="round"
       stroke="rgb(0%, 0%, 0%)"
       stroke-opacity="1"
       stroke-miterlimit="10"
       d="M 311.999219 728.000781 L 183.999219 728.000781 "
       transform="matrix(1, 0, 0, -1, -183.8, 744.2)"
       id="path53" />
  </g>
  <g
     clip-path="url(#clip-10)"
     id="g54">
    <path
       fill="none"
       stroke-width="0.4"
       stroke-linecap="butt"
       stroke-linejoin="round"
       stroke="rgb(0%, 0%, 0%)"
       stroke-opacity="1"
       stroke-miterlimit="10"
       d="M 311.999219 712.000781 L 183.999219 712.000781 "
       transform="matrix(1, 0, 0, -1, -183.8, 744.2)"
       id="path54" />
  </g>
  <g
     clip-path="url(#clip-11)"
     id="g55">
    <path
       fill="none"
       stroke-width="0.4"
       stroke-linecap="butt"
       stroke-linejoin="round"
       stroke="rgb(0%, 0%, 0%)"
       stroke-opacity="1"
       stroke-miterlimit="10"
       d="M 311.999219 696.000781 L 183.999219 696.000781 "
       transform="matrix(1, 0, 0, -1, -183.8, 744.2)"
       id="path55" />
  </g>
  <g
     clip-path="url(#clip-12)"
     id="g56">
    <path
       fill="none"
       stroke-width="0.4"
       stroke-linecap="butt"
       stroke-linejoin="round"
       stroke="rgb(0%, 0%, 0%)"
       stroke-opacity="1"
       stroke-miterlimit="10"
       d="M 311.999219 680.000781 L 183.999219 680.000781 "
       transform="matrix(1, 0, 0, -1, -183.8, 744.2)"
       id="path56" />
  </g>
  <g
     clip-path="url(#clip-13)"
     id="g57">
    <path
       fill="none"
       stroke-width="0.4"
       stroke-linecap="butt"
       stroke-linejoin="round"
       stroke="rgb(0%, 0%, 0%)"
       stroke-opacity="1"
       stroke-miterlimit="10"
       d="M 311.999219 664.000781 L 183.999219 664.000781 "
       transform="matrix(1, 0, 0, -1, -183.8, 744.2)"
       id="path57" />
  </g>
  <g
     clip-path="url(#clip-14)"
     id="g58">
    <path
       fill="none"
       stroke-width="0.4"
       stroke-linecap="butt"
       stroke-linejoin="round"
       stroke="rgb(0%, 0%, 0%)"
       stroke-opacity="1"
       stroke-miterlimit="10"
       d="M 311.999219 648.000781 L 183.999219 648.000781 "
       transform="matrix(1, 0, 0, -1, -183.8, 744.2)"
       id="path58" />
  </g>
  <g
     clip-path="url(#clip-15)"
     id="g59">
    <path
       fill="none"
       stroke-width="0.4"
       stroke-linecap="butt"
       stroke-linejoin="round"
       stroke="rgb(0%, 0%, 0%)"
       stroke-opacity="1"
       stroke-miterlimit="10"
       d="M 311.999219 632.000781 L 183.999219 632.000781 "
       transform="matrix(1, 0, 0, -1, -183.8, 744.2)"
       id="path59" />
  </g>
</svg>
