<?xml version="1.0" encoding="UTF-8" standalone="no"?>
<!-- Created with Inkscape (http://www.inkscape.org/) -->

<svg
   width="73.306023mm"
   height="20.52853mm"
   viewBox="0 0 73.306023 20.52853"
   version="1.1"
   id="svg1"
   xmlns="http://www.w3.org/2000/svg"
   xmlns:svg="http://www.w3.org/2000/svg">
  <defs
     id="defs1" />
  <g
     id="layer1"
     transform="translate(-93.133326,-164.83538)">
    <path
       id="path73-7"
       d="m 93.133326,165.41514 h 73.306024 v -0.57976 H 93.133326 Z"
       style="fill:#000000;fill-opacity:1;fill-rule:nonzero;stroke:none;stroke-width:0.388056" />
    <path
       id="path74-58"
       d="m 93.133326,171.60075 h 0.579755 v -6.18561 h -0.579755 z"
       style="fill:#000000;fill-opacity:1;fill-rule:nonzero;stroke:none;stroke-width:0.388056" />
    <path
       id="path75-8"
       d="m 113.07046,171.60075 h 0.57976 v -6.18561 h -0.57976 z"
       style="fill:#000000;fill-opacity:1;fill-rule:nonzero;stroke:none;stroke-width:0.388056" />
    <path
       id="path76-9"
       d="m 121.55142,169.66795 c 0.14883,0 0.29352,-0.0124 0.44648,-0.0124 0.1447,0 0.29353,0.0124 0.43822,0.0124 v -0.13643 c -0.11162,0 -0.30179,0 -0.30179,-0.12402 v -0.76068 c 0,-0.29352 0.20257,-0.58705 0.51676,-0.58705 0.24805,0 0.27699,0.23565 0.27699,0.43409 v 0.91364 c 0,0.12402 -0.19017,0.12402 -0.30179,0.12402 v 0.13643 c 0.14883,0 0.29352,-0.0124 0.44648,-0.0124 0.1447,0 0.29353,0.0124 0.43822,0.0124 v -0.13643 c -0.11162,0 -0.30179,0 -0.30179,-0.12402 v -0.92605 c 0,-0.35553 -0.18603,-0.52089 -0.53743,-0.52089 -0.24805,0 -0.45889,0.15709 -0.55811,0.3762 v -0.3762 l -0.56224,0.0413 v 0.13642 c 0.20257,0 0.30179,0 0.30179,0.21498 v 1.0542 c 0,0.12402 -0.19017,0.12402 -0.30179,0.12402 z m 3.19877,-2.6293 -0.43408,0.60771 0.0537,0.0496 0.57464,-0.47542 c 0.1571,-0.12816 -0.0744,-0.34313 -0.1943,-0.17777 z m -1.01286,2.24896 c 0,0.31832 0.36794,0.42168 0.62425,0.42168 0.21498,0 0.41342,-0.12403 0.5085,-0.3142 0.0124,0.15297 0.12816,0.29766 0.28939,0.29766 0.17777,0 0.33073,-0.1571 0.33073,-0.339 v -0.24804 h -0.11162 v 0.24804 c 0,0.0827 -0.0331,0.20257 -0.12816,0.20257 -0.0992,0 -0.13229,-0.11989 -0.13229,-0.20257 v -0.86816 c 0,-0.34727 -0.36794,-0.54984 -0.67386,-0.54984 -0.24805,0 -0.59118,0.10335 -0.59118,0.40101 0,0.10749 0.0786,0.18604 0.1819,0.18604 0.10749,0 0.18603,-0.0785 0.18603,-0.18604 0,-0.0909 -0.0703,-0.18603 -0.16949,-0.18603 0.10335,-0.0868 0.25631,-0.11576 0.39274,-0.11576 0.23978,0 0.39274,0.23564 0.39274,0.45889 v 0.15709 c -0.38861,0 -1.09968,0.13643 -1.09968,0.63666 z m 0.3142,0 c 0,-0.38861 0.45888,-0.54157 0.78548,-0.54157 v 0.40514 c 0,0.24805 -0.19844,0.45889 -0.45062,0.45889 -0.17777,0 -0.33486,-0.14056 -0.33486,-0.32246 z m 1.56476,0.38034 c 0.14469,0 0.28525,-0.0124 0.43408,-0.0124 0.14469,0 0.28525,0.0124 0.42995,0.0124 v -0.13643 c -0.11162,0 -0.30179,0 -0.30179,-0.12402 v -0.42582 l 0.23564,-0.2067 0.37207,0.52916 c 0.0331,0.0413 0.0703,0.0951 0.0703,0.14883 0,0.0661 -0.0786,0.0786 -0.13229,0.0786 v 0.13643 c 0.14056,0 0.28939,-0.0124 0.43822,-0.0124 0.11162,0 0.22324,0.0124 0.33073,0.0124 v -0.13643 c -0.22325,0 -0.27699,-0.0496 -0.40101,-0.22738 l -0.48783,-0.69866 0.27285,-0.23978 c 0.14883,-0.12816 0.3266,-0.22738 0.52504,-0.22738 v -0.13642 c -0.0827,0 -0.16537,0.0124 -0.24805,0.0124 -0.16123,0 -0.31833,-0.0124 -0.47956,-0.0124 v 0.13642 c 0.0579,0 0.11162,0.0289 0.11162,0.091 0,0.0579 -0.0413,0.0992 -0.0786,0.13643 l -0.51676,0.45475 V 166.985 l -0.57464,0.0413 v 0.13642 c 0.20257,0 0.30179,0 0.30179,0.21498 v 2.02985 c 0,0.12402 -0.19017,0.12402 -0.30179,0.12402 z m 2.35851,-0.45889 c 0,0.38034 0.26458,0.50023 0.60358,0.50023 0.21498,0 0.38861,-0.13643 0.48369,-0.32246 v 0.32246 l 0.57051,-0.0413 v -0.13643 c -0.20257,0 -0.30179,0 -0.30179,-0.21497 v -1.35599 l -0.58291,0.0413 v 0.13642 c 0.20257,0 0.30179,0 0.30179,0.21498 v 0.69039 c 0,0.26045 -0.15296,0.56638 -0.45062,0.56638 -0.31006,0 -0.34313,-0.12816 -0.34313,-0.40101 v -1.2485 l -0.58291,0.0413 v 0.13642 c 0.20257,0 0.30179,0 0.30179,0.21498 z m 1.83038,1.20716 c 0.14883,0 0.29352,-0.008 0.44648,-0.008 0.1447,0 0.29353,0.008 0.43822,0.008 v -0.13229 c -0.11162,0 -0.30179,0 -0.30179,-0.12403 v -0.67799 c 0.11989,0.14469 0.29352,0.22738 0.47542,0.22738 0.47956,0 0.8599,-0.40101 0.8599,-0.87644 0,-0.44235 -0.3266,-0.87229 -0.79788,-0.87229 -0.20671,0 -0.40928,0.0827 -0.54571,0.23977 v -0.23977 l -0.57464,0.0413 v 0.13642 c 0.15296,0 0.30179,0 0.30179,0.1571 v 1.86448 c 0,0.12403 -0.19017,0.12403 -0.30179,0.12403 z m 0.58291,-1.12448 v -0.92191 c 0.10335,-0.1819 0.29352,-0.29765 0.49609,-0.29765 0.3514,0 0.50437,0.47542 0.50437,0.76067 0,0.31833 -0.17364,0.77722 -0.54571,0.77722 -0.20257,0 -0.36793,-0.14056 -0.45475,-0.31833 z m 0,0"
       style="fill:#000000;fill-opacity:1;fill-rule:nonzero;stroke:none;stroke-width:0.388056"
       aria-label="nákup" />
    <path
       id="path77-8"
       d="m 139.75471,171.60075 v -6.18561"
       style="fill:none;stroke:#000000;stroke-width:0.232057;stroke-linecap:butt;stroke-linejoin:miter;stroke-miterlimit:10;stroke-dasharray:none;stroke-opacity:1" />
    <path
       id="path78-3"
       d="m 147.53536,170.41622 c 0.14883,0 0.29353,-0.008 0.44649,-0.008 0.14469,0 0.29352,0.008 0.43821,0.008 v -0.13229 c -0.11162,0 -0.30179,0 -0.30179,-0.12403 v -0.67799 c 0.11989,0.14469 0.29353,0.22738 0.47543,0.22738 0.47955,0 0.85989,-0.40101 0.85989,-0.87644 0,-0.44235 -0.32659,-0.87229 -0.79788,-0.87229 -0.20671,0 -0.40928,0.0827 -0.5457,0.23977 v -0.23977 l -0.57465,0.0413 v 0.13642 c 0.15297,0 0.30179,0 0.30179,0.1571 v 1.86448 c 0,0.12403 -0.19017,0.12403 -0.30179,0.12403 z m 0.58291,-1.12448 v -0.92191 c 0.10336,-0.1819 0.29353,-0.29765 0.4961,-0.29765 0.3514,0 0.50436,0.47542 0.50436,0.76067 0,0.31833 -0.17363,0.77722 -0.5457,0.77722 -0.20258,0 -0.36794,-0.14056 -0.45476,-0.31833 z m 1.56477,0.37621 c 0.14882,0 0.28938,-0.0124 0.43821,-0.0124 0.1695,0 0.339,0.0124 0.5085,0.0124 v -0.13643 c -0.10749,0 -0.37207,0 -0.37207,-0.12402 v -0.63252 c 0,-0.26872 0.091,-0.71521 0.43408,-0.71521 0.008,0 0.0165,0 0.0248,0 -0.0496,0.0331 -0.0744,0.091 -0.0744,0.14883 0,0.0951 0.0786,0.17364 0.17363,0.17364 0.0992,0 0.17364,-0.0786 0.17364,-0.17364 0,-0.15709 -0.15297,-0.24804 -0.29766,-0.24804 -0.23564,0 -0.38034,0.17363 -0.45475,0.3762 v -0.3762 l -0.55397,0.0413 v 0.13642 c 0.20257,0 0.30179,0 0.30179,0.21498 v 1.0542 c 0,0.12402 -0.19017,0.12402 -0.30179,0.12402 z m 2.37918,0.0413 c 0.30179,0 0.56637,-0.20671 0.64079,-0.4961 0,-0.0248 -0.0124,-0.0496 -0.0372,-0.0496 h -0.0372 c -0.0165,0 -0.0331,0.0165 -0.0372,0.0331 -0.0579,0.22324 -0.26045,0.40101 -0.4961,0.40101 -0.42995,0 -0.54983,-0.42168 -0.54983,-0.78135 0,-0.0124 0,-0.0248 0,-0.0413 h 1.12034 c 0.0248,0 0.0372,-0.0289 0.0372,-0.0496 0,-0.44235 -0.21911,-0.78962 -0.69453,-0.78962 -0.47129,0 -0.80202,0.43822 -0.80202,0.8847 0,0.47129 0.37207,0.88884 0.85576,0.88884 z m -0.51677,-1.0294 c 0,-0.26872 0.1447,-0.64492 0.46303,-0.64492 0.32659,0 0.42168,0.38034 0.42168,0.64492 z m 2.21382,1.0294 c 0.19844,0 0.38861,-0.091 0.51677,-0.24392 v 0.24392 l 0.58704,-0.0413 v -0.13643 c -0.20257,0 -0.30179,0 -0.30179,-0.21497 v -2.33165 l -0.57464,0.0413 v 0.13642 c 0.20257,0 0.30179,0 0.30179,0.21498 v 0.80615 c -0.12402,-0.14056 -0.30179,-0.22324 -0.48783,-0.22324 -0.47955,0 -0.85576,0.40101 -0.85576,0.87229 0,0.45476 0.339,0.87644 0.81442,0.87644 z m -0.39274,-0.37621 c -0.0786,-0.15709 -0.0868,-0.33073 -0.0868,-0.49609 0,-0.3514 0.11162,-0.77722 0.5457,-0.77722 0.19844,0 0.3638,0.11989 0.45062,0.28939 v 0.93018 c -0.0868,0.19017 -0.27699,0.33073 -0.49196,0.33073 -0.1819,0 -0.339,-0.11989 -0.41755,-0.27699 z m 1.7508,-0.0455 c 0,0.31832 0.36794,0.42168 0.62425,0.42168 0.21498,0 0.41341,-0.12403 0.5085,-0.3142 0.0124,0.15297 0.12815,0.29766 0.28939,0.29766 0.17776,0 0.33072,-0.1571 0.33072,-0.339 v -0.24804 h -0.11162 v 0.24804 c 0,0.0827 -0.0331,0.20257 -0.12815,0.20257 -0.0992,0 -0.1323,-0.11989 -0.1323,-0.20257 v -0.86816 c 0,-0.34727 -0.36793,-0.54984 -0.67386,-0.54984 -0.24804,0 -0.59117,0.10335 -0.59117,0.40101 0,0.10749 0.0785,0.18604 0.1819,0.18604 0.10748,0 0.18603,-0.0785 0.18603,-0.18604 0,-0.0909 -0.0703,-0.18603 -0.1695,-0.18603 0.10336,-0.0868 0.25632,-0.11576 0.39274,-0.11576 0.23978,0 0.39274,0.23564 0.39274,0.45889 v 0.15709 c -0.3886,0 -1.09967,0.13643 -1.09967,0.63666 z m 0.31419,0 c 0,-0.38861 0.45889,-0.54157 0.78548,-0.54157 v 0.40514 c 0,0.24805 -0.19843,0.45889 -0.45061,0.45889 -0.17777,0 -0.33487,-0.14056 -0.33487,-0.32246 z m 1.76114,1.02939 c 0.0744,-0.0248 0.12402,-0.0951 0.12402,-0.17363 0,-0.10335 -0.0827,-0.18604 -0.18604,-0.18604 -0.10748,0 -0.18603,0.0827 -0.18603,0.18604 0,0.22324 0.24805,0.31833 0.43821,0.31833 0.30593,0 0.54984,-0.27699 0.54984,-0.57878 v -1.92236 l -0.60358,0.0413 v 0.13642 c 0.20671,0 0.33486,0 0.33486,0.21498 v 1.51722 c 0,0.1695 -0.0455,0.48782 -0.27285,0.48782 -0.0703,0 -0.13642,-0.008 -0.19843,-0.0413 z m 0.31419,-3.02204 c 0,0.11576 0.0992,0.21084 0.21497,0.21084 0.11576,0 0.21084,-0.0951 0.21084,-0.21084 0,-0.11575 -0.0951,-0.21497 -0.21084,-0.21497 -0.11575,0 -0.21497,0.0992 -0.21497,0.21497 z m 0,0"
       style="fill:#000000;fill-opacity:1;fill-rule:nonzero;stroke:none;stroke-width:0.388056"
       aria-label="predaj" />
    <path
       id="path79-01"
       d="m 165.85921,171.60075 h 0.57976 v -6.18561 h -0.57976 z"
       style="fill:#000000;fill-opacity:1;fill-rule:nonzero;stroke:none;stroke-width:0.388056" />
    <path
       id="path80-2"
       d="m 93.133326,172.18089 h 73.306024 v -0.57976 H 93.133326 Z"
       style="fill:#000000;fill-opacity:1;fill-rule:nonzero;stroke:none;stroke-width:0.388056" />
    <path
       id="path81-7"
       d="m 93.133326,178.36649 h 0.579755 v -6.18561 h -0.579755 z"
       style="fill:#000000;fill-opacity:1;fill-rule:nonzero;stroke:none;stroke-width:0.388056" />
    <path
       id="path82-04"
       d="m 97.952857,176.43343 c 0.21084,0 0.42168,-0.0124 0.63252,-0.0124 0.214974,0 0.421679,0.0124 0.636653,0.0124 V 176.297 c -0.111621,0 -0.483691,0 -0.483691,-0.12402 v -2.2779 c 0,-0.0165 -0.02481,-0.0372 -0.04134,-0.0372 h -0.05374 c -0.186035,0.19017 -0.454752,0.24805 -0.715202,0.24805 v 0.13642 c 0.177767,0 0.355534,-0.0248 0.508497,-0.0992 v 2.02985 c 0,0.12402 -0.376205,0.12402 -0.483692,0.12402 z m 2.980693,0 h 2.23656 l 0.16536,-1.01286 h -0.11162 c -0.11162,0.67386 -0.2067,0.87643 -0.92604,0.87643 h -0.40928 c -0.10748,0 -0.19843,0 -0.19843,-0.12402 v -1.0418 h 0.28525 c 0.38034,0 0.46716,0.0661 0.46716,0.45062 h 0.11162 v -1.03767 h -0.11162 c 0,0.38448 -0.0868,0.45062 -0.46716,0.45062 h -0.28525 v -0.94257 c 0,-0.12403 0.0909,-0.12403 0.19843,-0.12403 h 0.38034 c 0.63666,0 0.76895,0.11576 0.84336,0.75241 h 0.11162 l -0.10748,-0.88883 h -2.18282 v 0.13642 c 0.11162,0 0.39688,0 0.39688,0.12403 v 2.1208 c 0,0.12402 -0.28526,0.12402 -0.39688,0.12402 z m 3.02721,-0.8723 c 0,0.53743 0.46302,0.95911 0.98805,0.95911 0.5085,0 0.8723,-0.47129 0.8723,-0.95911 v -1.4056 c 0,-0.20257 0.24391,-0.22738 0.39688,-0.22738 v -0.13642 c -0.15297,0 -0.30593,0.0124 -0.46302,0.0124 -0.1571,0 -0.3142,-0.0124 -0.46716,-0.0124 v 0.13642 c 0.15296,0 0.39688,0.0248 0.39688,0.22738 v 1.38906 c 0,0.43408 -0.27286,0.83923 -0.73588,0.83923 -0.47955,0 -0.62838,-0.43409 -0.62838,-0.83923 v -1.49241 c 0,-0.12403 0.28525,-0.12403 0.40101,-0.12403 v -0.13642 c -0.19431,0 -0.38861,0.0124 -0.57878,0.0124 -0.1943,0 -0.38447,-0.0124 -0.57878,-0.0124 v 0.13642 c 0.11163,0 0.39688,0 0.39688,0.12403 z m 2.51147,0.8723 c 0.19017,0 0.38034,-0.0124 0.57051,-0.0124 0.19017,0 0.38447,0.0124 0.57464,0.0124 V 176.297 c -0.11575,0 -0.40101,0 -0.40101,-0.12402 v -1.01286 h 0.46716 c 0.25631,0 0.46302,0.21497 0.46302,0.47129 v 0.34313 c 0,0.38034 0.33486,0.5457 0.678,0.5457 0.22324,0 0.34726,-0.23978 0.34726,-0.44235 0,-0.0207 -0.008,-0.0496 -0.0372,-0.0496 h -0.0331 c -0.0165,0 -0.0413,0.0207 -0.0413,0.0331 0,0.1447 -0.062,0.35554 -0.23978,0.35554 -0.21497,0 -0.23564,-0.30179 -0.26045,-0.45889 l -0.0537,-0.34313 c -0.0413,-0.24391 -0.23565,-0.41341 -0.46302,-0.49609 0.29352,-0.0703 0.65732,-0.28112 0.65732,-0.62425 0,-0.4837 -0.60771,-0.7028 -1.01699,-0.7028 h -1.2113 v 0.13642 c 0.11162,0 0.39688,0 0.39688,0.12403 v 2.1208 c 0,0.12402 -0.28526,0.12402 -0.39688,0.12402 z m 0.74414,-1.37253 v -1.00872 c 0,-0.12403 0.091,-0.12403 0.19844,-0.12403 h 0.21498 c 0.40514,0 0.65732,0.13229 0.65732,0.56638 0,0.42994 -0.25632,0.56637 -0.65732,0.56637 z m 0,0"
       style="fill:#000000;fill-opacity:1;fill-rule:nonzero;stroke:none;stroke-width:0.388056"
       aria-label="1EUR" />
    <path
       id="path83-4"
       d="m 113.07046,178.36649 h 0.57976 v -6.18561 h -0.57976 z"
       style="fill:#000000;fill-opacity:1;fill-rule:nonzero;stroke:none;stroke-width:0.388056" />
    <path
       id="path84-4"
       d="m 117.71083,176.43343 h 1.43453 l 0.10749,-0.68627 h -0.11162 c -0.0207,0.11989 -0.0496,0.30179 -0.0951,0.35554 -0.0207,0.0165 -0.42168,0.0165 -0.65319,0.0165 h -0.37207 l 0.43821,-0.42168 c 0.31419,-0.30179 0.79375,-0.59531 0.79375,-1.079 0,-0.47129 -0.38447,-0.76068 -0.82269,-0.76068 -0.39274,0 -0.71933,0.31006 -0.71933,0.7028 0,0.11989 0.0909,0.21498 0.21084,0.21498 0.11575,0 0.21084,-0.0951 0.21084,-0.21498 0,-0.11989 -0.0951,-0.2067 -0.21084,-0.2067 -0.0165,0 -0.0248,0 -0.0413,0.004 0.0744,-0.21084 0.26458,-0.3638 0.49196,-0.3638 0.34313,0 0.51263,0.31006 0.51263,0.62425 0,0.41341 -0.31006,0.74001 -0.56638,1.02526 l -0.59944,0.66559 c -0.004,0.004 -0.008,0.0165 -0.008,0.0207 z m 2.70577,0.0868 c 0.47956,0 0.79789,-0.41754 0.79789,-0.88056 0,-0.43822 -0.29352,-0.86403 -0.76481,-0.86403 -0.22324,0 -0.38861,0.15709 -0.47543,0.35966 0,-0.26871 0.008,-0.5457 0.12816,-0.78548 0.10336,-0.20257 0.28526,-0.38034 0.52503,-0.38034 0.11989,0 0.25219,0.0372 0.3266,0.13643 -0.008,0 -0.0124,0 -0.0207,0 -0.10335,0 -0.18604,0.0827 -0.18604,0.18603 0,0.10336 0.0827,0.18604 0.18604,0.18604 0.10335,0 0.18603,-0.0827 0.18603,-0.18604 0,-0.28525 -0.22324,-0.43408 -0.49196,-0.43408 -0.66972,0 -1.01699,0.74414 -1.01699,1.32705 0,0.51677 0.12816,1.33532 0.80615,1.33532 z m 0,-0.12402 c -0.37207,0 -0.43408,-0.46302 -0.43408,-0.74001 0,-0.008 0.004,-0.0124 0.004,-0.0207 -0.004,-0.0248 -0.004,-0.0496 -0.004,-0.0744 0,-0.27699 0.11162,-0.68627 0.45062,-0.68627 0.41755,0 0.41755,0.46302 0.41755,0.76482 0,0.31832 -0.008,0.75654 -0.43409,0.75654 z m 1.35083,0.73174 c 0,0.0248 0.0289,0.0537 0.0579,0.0537 0.004,0 0.0124,-0.004 0.0207,-0.004 0.2067,-0.20258 0.33073,-0.47129 0.33073,-0.76068 0,-0.16123 -0.0496,-0.40928 -0.25632,-0.40928 -0.11989,0 -0.21084,0.0951 -0.21084,0.21498 0,0.11988 0.091,0.21084 0.21084,0.21084 0.0579,0 0.11162,-0.0207 0.15296,-0.062 0,0.0165 0,0.0331 0,0.0455 0,0.26045 -0.10748,0.50436 -0.29352,0.68213 -0.008,0.008 -0.0124,0.0165 -0.0124,0.0289 z m 0.88366,-0.69453 h 1.43454 l 0.10749,-0.68627 h -0.11162 c -0.0207,0.11989 -0.0496,0.30179 -0.0951,0.35554 -0.0207,0.0165 -0.42168,0.0165 -0.65319,0.0165 h -0.37207 l 0.43822,-0.42168 c 0.31419,-0.30179 0.79375,-0.59531 0.79375,-1.079 0,-0.47129 -0.38447,-0.76068 -0.82269,-0.76068 -0.39274,0 -0.71934,0.31006 -0.71934,0.7028 0,0.11989 0.091,0.21498 0.21084,0.21498 0.11576,0 0.21084,-0.0951 0.21084,-0.21498 0,-0.11989 -0.0951,-0.2067 -0.21084,-0.2067 -0.0165,0 -0.0248,0 -0.0413,0.004 0.0744,-0.21084 0.26459,-0.3638 0.49196,-0.3638 0.34313,0 0.51263,0.31006 0.51263,0.62425 0,0.41341 -0.31006,0.74001 -0.56637,1.02526 l -0.59945,0.66559 c -0.004,0.004 -0.008,0.0165 -0.008,0.0207 z m 2.70578,0.0868 c 0.70694,0 0.81029,-0.77721 0.81029,-1.31878 0,-0.5457 -0.0992,-1.34359 -0.81029,-1.34359 -0.7152,0 -0.81855,0.79789 -0.81855,1.34359 0,0.54157 0.10748,1.31878 0.81855,1.31878 z m 0,-0.10335 c -0.47956,0 -0.47956,-0.91364 -0.47956,-1.27744 0,-0.35967 0,-1.17823 0.47956,-1.17823 0.47543,0 0.47543,0.81856 0.47543,1.17823 0,0.3638 0,1.27744 -0.47543,1.27744 z m 3.13366,-0.39688 c -0.19844,-0.25631 -0.25218,-0.59117 -0.25218,-0.9095 0,-0.31419 0.0537,-0.64906 0.25218,-0.90537 0.17777,-0.22738 0.45475,-0.35967 0.74001,-0.35967 0.19017,0 0.3638,0.0786 0.49609,0.21084 0.1695,0.16536 0.31833,0.49609 0.31833,0.7276 0,0.0165 0.0165,0.0331 0.0331,0.0331 h 0.0703 c 0.0165,0 0.0331,-0.0165 0.0331,-0.0331 v -1.04593 c 0,-0.0124 -0.0165,-0.0289 -0.0331,-0.0289 h -0.0248 c -0.0124,0 -0.0207,0.008 -0.0289,0.0124 l -0.22324,0.31419 c -0.17364,-0.19844 -0.42582,-0.3266 -0.69453,-0.3266 -0.76481,0 -1.35186,0.65733 -1.35186,1.40147 0,0.75241 0.58705,1.40973 1.35186,1.40973 0.55397,0 1.00459,-0.47129 1.00459,-1.02112 0,-0.0165 -0.0124,-0.0413 -0.0331,-0.0413 h -0.0455 c -0.0207,0 -0.0331,0.0165 -0.0331,0.0331 0,0.46715 -0.34726,0.89297 -0.83509,0.89297 -0.28525,0 -0.56637,-0.13643 -0.74414,-0.36381 z m 2.17144,0.41342 h 1.83969 l 0.0661,-1.04594 h -0.11575 c -0.0124,0.25632 -0.0331,0.54157 -0.20258,0.71521 -0.16949,0.16536 -0.42167,0.1819 -0.64492,0.1819 H 131.034 l 1.50482,-2.37712 c 0.004,-0.008 0.004,-0.0165 0.004,-0.0248 v -0.0455 c 0,-0.0248 -0.0207,-0.0455 -0.0413,-0.0455 h -1.79007 l -0.0413,0.88883 h 0.11162 c 0,-0.56224 0.27699,-0.75241 0.80202,-0.75241 h 0.5457 l -1.50481,2.38539 c -0.008,0.008 -0.008,0.0165 -0.008,0.0248 v 0.0537 c 0,0.0207 0.0207,0.0413 0.0455,0.0413 z m 2.22209,0 c 0.1943,0 0.38447,-0.0124 0.57878,-0.0124 0.19017,0 0.38447,0.0124 0.57877,0.0124 V 176.297 c -0.11575,0 -0.40101,0 -0.40101,-0.12402 v -0.71521 l 0.43409,-0.41754 0.69039,1.02939 c 0.0289,0.0372 0.0496,0.0827 0.0496,0.11989 0,0.10749 -0.14469,0.10749 -0.21911,0.10749 v 0.13643 c 0.19431,0 0.38861,-0.0124 0.57878,-0.0124 0.14883,0 0.29352,0.0124 0.43408,0.0124 V 176.297 c -0.24391,0 -0.31006,-0.0207 -0.44648,-0.22738 l -0.8475,-1.25677 0.68213,-0.65732 c 0.15297,-0.14056 0.34727,-0.22738 0.55811,-0.22738 v -0.13642 c -0.10335,0 -0.20257,0.0124 -0.30593,0.0124 -0.17776,0 -0.35553,-0.0124 -0.5333,-0.0124 v 0.13642 c 0.0744,0 0.1695,0.0372 0.1695,0.12403 0,0.0372 -0.0207,0.0785 -0.0496,0.10335 l -1.19476,1.14928 v -1.25263 c 0,-0.12403 0.28526,-0.12403 0.40101,-0.12403 v -0.13642 c -0.1943,0 -0.3886,0.0124 -0.57877,0.0124 -0.19431,0 -0.38448,-0.0124 -0.57878,-0.0124 v 0.13642 c 0.11162,0 0.39688,0 0.39688,0.12403 v 2.1208 c 0,0.12402 -0.28526,0.12402 -0.39688,0.12402 z m 0,0"
       style="fill:#000000;fill-opacity:1;fill-rule:nonzero;stroke:none;stroke-width:0.388056"
       aria-label="26,20CZK" />
    <path
       id="path85-0"
       d="m 139.75471,178.36649 v -6.18561"
       style="fill:none;stroke:#000000;stroke-width:0.232057;stroke-linecap:butt;stroke-linejoin:miter;stroke-miterlimit:10;stroke-dasharray:none;stroke-opacity:1" />
    <path
       id="path86-4"
       d="m 143.93144,176.43343 h 1.43454 l 0.10749,-0.68627 h -0.11162 c -0.0207,0.11989 -0.0496,0.30179 -0.0951,0.35554 -0.0207,0.0165 -0.42168,0.0165 -0.65319,0.0165 h -0.37207 l 0.43822,-0.42168 c 0.31419,-0.30179 0.79375,-0.59531 0.79375,-1.079 0,-0.47129 -0.38448,-0.76068 -0.82269,-0.76068 -0.39274,0 -0.71934,0.31006 -0.71934,0.7028 0,0.11989 0.0909,0.21498 0.21084,0.21498 0.11576,0 0.21084,-0.0951 0.21084,-0.21498 0,-0.11989 -0.0951,-0.2067 -0.21084,-0.2067 -0.0165,0 -0.0248,0 -0.0413,0.004 0.0744,-0.21084 0.26458,-0.3638 0.49196,-0.3638 0.34313,0 0.51263,0.31006 0.51263,0.62425 0,0.41341 -0.31006,0.74001 -0.56637,1.02526 l -0.59945,0.66559 c -0.004,0.004 -0.008,0.0165 -0.008,0.0207 z m 1.89963,-0.58705 c 0,0.42581 0.41754,0.67386 0.80615,0.67386 0.41341,0 0.79788,-0.30592 0.79788,-0.74414 0,-0.24391 -0.13229,-0.47129 -0.33899,-0.60358 l -0.21911,-0.14056 c 0.23151,-0.11989 0.45475,-0.31419 0.45475,-0.59118 0,-0.37207 -0.36793,-0.58291 -0.69453,-0.58291 -0.36794,0 -0.69866,0.27699 -0.69866,0.65319 0,0.21498 0.11575,0.41755 0.29765,0.5333 l 0.14056,0.0951 c -0.28112,0.13642 -0.5457,0.37207 -0.5457,0.70693 z m 0.21084,0 c 0,-0.28112 0.19844,-0.51263 0.43821,-0.64079 l 0.5209,0.33487 c 0.12816,0.0827 0.22738,0.21497 0.22738,0.3762 0,0.31006 -0.31833,0.47956 -0.59118,0.47956 -0.30592,0 -0.59531,-0.23151 -0.59531,-0.54984 z m 0.26458,-1.17822 c -0.10335,-0.0703 -0.18603,-0.17777 -0.18603,-0.30593 0,-0.26045 0.28938,-0.39274 0.51263,-0.39274 0.26045,0 0.51263,0.19431 0.51263,0.47129 0,0.23565 -0.17777,0.41755 -0.37207,0.52917 z m 1.68052,2.4598 c 0,0.0248 0.0289,0.0537 0.0579,0.0537 0.004,0 0.0124,-0.004 0.0207,-0.004 0.2067,-0.20258 0.33073,-0.47129 0.33073,-0.76068 0,-0.16123 -0.0496,-0.40928 -0.25632,-0.40928 -0.11989,0 -0.21084,0.0951 -0.21084,0.21498 0,0.11988 0.091,0.21084 0.21084,0.21084 0.0579,0 0.11162,-0.0207 0.15297,-0.062 0,0.0165 0,0.0331 0,0.0455 0,0.26045 -0.10749,0.50436 -0.29353,0.68213 -0.008,0.008 -0.0124,0.0165 -0.0124,0.0289 z m 1.65778,-0.60772 c 0.70693,0 0.81029,-0.77721 0.81029,-1.31878 0,-0.5457 -0.0992,-1.34359 -0.81029,-1.34359 -0.7152,0 -0.81856,0.79789 -0.81856,1.34359 0,0.54157 0.10749,1.31878 0.81856,1.31878 z m 0,-0.10335 c -0.47956,0 -0.47956,-0.91364 -0.47956,-1.27744 0,-0.35967 0,-1.17823 0.47956,-1.17823 0.47542,0 0.47542,0.81856 0.47542,1.17823 0,0.3638 0,1.27744 -0.47542,1.27744 z m 1.9327,0.10335 c 0.70693,0 0.81028,-0.77721 0.81028,-1.31878 0,-0.5457 -0.0992,-1.34359 -0.81028,-1.34359 -0.7152,0 -0.81856,0.79789 -0.81856,1.34359 0,0.54157 0.10749,1.31878 0.81856,1.31878 z m 0,-0.10335 c -0.47956,0 -0.47956,-0.91364 -0.47956,-1.27744 0,-0.35967 0,-1.17823 0.47956,-1.17823 0.47542,0 0.47542,0.81856 0.47542,1.17823 0,0.3638 0,1.27744 -0.47542,1.27744 z m 3.13366,-0.39688 c -0.19844,-0.25631 -0.25218,-0.59117 -0.25218,-0.9095 0,-0.31419 0.0537,-0.64906 0.25218,-0.90537 0.17776,-0.22738 0.45475,-0.35967 0.74,-0.35967 0.19017,0 0.36381,0.0786 0.4961,0.21084 0.1695,0.16536 0.31832,0.49609 0.31832,0.7276 0,0.0165 0.0165,0.0331 0.0331,0.0331 h 0.0703 c 0.0165,0 0.0331,-0.0165 0.0331,-0.0331 v -1.04593 c 0,-0.0124 -0.0165,-0.0289 -0.0331,-0.0289 h -0.0248 c -0.0124,0 -0.0207,0.008 -0.0289,0.0124 l -0.22325,0.31419 c -0.17363,-0.19844 -0.42581,-0.3266 -0.69453,-0.3266 -0.76481,0 -1.35185,0.65733 -1.35185,1.40147 0,0.75241 0.58704,1.40973 1.35185,1.40973 0.55397,0 1.00459,-0.47129 1.00459,-1.02112 0,-0.0165 -0.0124,-0.0413 -0.0331,-0.0413 h -0.0455 c -0.0207,0 -0.0331,0.0165 -0.0331,0.0331 0,0.46715 -0.34727,0.89297 -0.83509,0.89297 -0.28526,0 -0.56638,-0.13643 -0.74414,-0.36381 z m 2.17144,0.41342 h 1.83968 l 0.0661,-1.04594 h -0.11576 c -0.0124,0.25632 -0.0331,0.54157 -0.20257,0.71521 -0.1695,0.16536 -0.42168,0.1819 -0.64492,0.1819 h -0.57051 l 1.50482,-2.37712 c 0.004,-0.008 0.004,-0.0165 0.004,-0.0248 v -0.0455 c 0,-0.0248 -0.0207,-0.0455 -0.0413,-0.0455 h -1.79007 l -0.0413,0.88883 h 0.11162 c 0,-0.56224 0.27698,-0.75241 0.80202,-0.75241 h 0.5457 l -1.50482,2.38539 c -0.008,0.008 -0.008,0.0165 -0.008,0.0248 v 0.0537 c 0,0.0207 0.0207,0.0413 0.0455,0.0413 z m 2.22209,0 c 0.1943,0 0.38447,-0.0124 0.57877,-0.0124 0.19017,0 0.38448,0.0124 0.57878,0.0124 V 176.297 c -0.11576,0 -0.40101,0 -0.40101,-0.12402 v -0.71521 l 0.43408,-0.41754 0.6904,1.02939 c 0.0289,0.0372 0.0496,0.0827 0.0496,0.11989 0,0.10749 -0.1447,0.10749 -0.21911,0.10749 v 0.13643 c 0.1943,0 0.38861,-0.0124 0.57878,-0.0124 0.14882,0 0.29352,0.0124 0.43408,0.0124 V 176.297 c -0.24391,0 -0.31006,-0.0207 -0.44649,-0.22738 l -0.84749,-1.25677 0.68213,-0.65732 c 0.15296,-0.14056 0.34727,-0.22738 0.55811,-0.22738 v -0.13642 c -0.10336,0 -0.20258,0.0124 -0.30593,0.0124 -0.17777,0 -0.35553,-0.0124 -0.5333,-0.0124 v 0.13642 c 0.0744,0 0.1695,0.0372 0.1695,0.12403 0,0.0372 -0.0207,0.0785 -0.0496,0.10335 l -1.19476,1.14928 v -1.25263 c 0,-0.12403 0.28525,-0.12403 0.40101,-0.12403 v -0.13642 c -0.1943,0 -0.38861,0.0124 -0.57878,0.0124 -0.1943,0 -0.38447,-0.0124 -0.57877,-0.0124 v 0.13642 c 0.11162,0 0.39687,0 0.39687,0.12403 v 2.1208 c 0,0.12402 -0.28525,0.12402 -0.39687,0.12402 z m 0,0"
       style="fill:#000000;fill-opacity:1;fill-rule:nonzero;stroke:none;stroke-width:0.388056"
       aria-label="28,00CZK" />
    <path
       id="path87-4"
       d="m 165.85921,178.36649 h 0.57976 v -6.18561 h -0.57976 z"
       style="fill:#000000;fill-opacity:1;fill-rule:nonzero;stroke:none;stroke-width:0.388056" />
    <path
       id="path88-5"
       d="M 93.133326,178.48252 H 166.43935"
       style="fill:none;stroke:#000000;stroke-width:0.232057;stroke-linecap:butt;stroke-linejoin:miter;stroke-miterlimit:10;stroke-dasharray:none;stroke-opacity:1" />
    <path
       id="path89-8"
       d="m 93.133326,184.78416 h 0.579755 v -6.18561 h -0.579755 z"
       style="fill:#000000;fill-opacity:1;fill-rule:nonzero;stroke:none;stroke-width:0.388056" />
    <path
       id="path90-3"
       d="m 97.939422,182.85164 c 0.21084,0 0.42168,-0.0124 0.63252,-0.0124 0.214974,0 0.421679,0.0124 0.636653,0.0124 v -0.13643 c -0.111621,0 -0.483691,0 -0.483691,-0.12402 v -2.2779 c 0,-0.0165 -0.02481,-0.0372 -0.04134,-0.0372 h -0.05374 c -0.186035,0.19017 -0.454752,0.24805 -0.715201,0.24805 v 0.13642 c 0.177766,0 0.355533,-0.0248 0.508496,-0.0992 v 2.02985 c 0,0.12402 -0.376205,0.12402 -0.483692,0.12402 z m 3.748608,-0.41342 c -0.20671,-0.25218 -0.26045,-0.58704 -0.26045,-0.9095 0,-0.31419 0.0537,-0.64906 0.25218,-0.90537 0.17777,-0.22738 0.45476,-0.35967 0.74414,-0.35967 0.19017,0 0.36381,0.0786 0.4961,0.21084 0.1695,0.16536 0.31832,0.49609 0.31832,0.7276 0,0.0165 0.0165,0.0331 0.0331,0.0331 h 0.0703 c 0.0165,0 0.0331,-0.0165 0.0331,-0.0331 v -1.04593 c 0,-0.0124 -0.0165,-0.0289 -0.0331,-0.0289 h -0.0248 c -0.0124,0 -0.0207,0.008 -0.0289,0.0124 l -0.22325,0.31419 c -0.17776,-0.19844 -0.42581,-0.3266 -0.69453,-0.3266 -0.76894,0 -1.35599,0.65733 -1.35599,1.40147 0,0.75241 0.58705,1.40973 1.35599,1.40973 0.25218,0 0.57878,-0.0868 0.71934,-0.32246 0.0289,0.0455 0.1943,0.23565 0.24805,0.23565 0.0165,0 0.0372,-0.0165 0.0372,-0.0331 v -0.76481 c 0,-0.12402 0.15296,-0.12402 0.26459,-0.12402 v -0.13229 c -0.1447,0 -0.29766,0.0124 -0.44235,0.0124 -0.22738,0 -0.44649,-0.0124 -0.6656,-0.0124 v 0.13229 c 0.10749,0 0.48369,0 0.48369,0.12402 v 0.3266 c 0,0.28938 -0.31832,0.42168 -0.56637,0.42168 -0.29352,0 -0.57464,-0.13643 -0.76068,-0.36381 z m 2.2779,0.41342 h 1.52962 c 0.40101,0 0.85576,-0.26872 0.85576,-0.71107 0,-0.36794 -0.40928,-0.66973 -0.75241,-0.66973 0.29766,-0.0537 0.64492,-0.26045 0.64492,-0.60358 0,-0.42995 -0.47955,-0.65732 -0.85576,-0.65732 h -1.42213 v 0.13642 c 0.11162,0 0.39687,0 0.39687,0.12403 v 2.1208 c 0,0.12402 -0.28525,0.12402 -0.39687,0.12402 z m 0.73174,-0.26045 v -1.06247 h 0.74414 c 0.31832,0 0.50436,0.32659 0.50436,0.61185 0,0.30592 -0.24391,0.57464 -0.55811,0.57464 h -0.49196 c -0.10748,0 -0.19843,0 -0.19843,-0.12402 z m 0,-1.16169 v -0.95911 c 0,-0.12403 0.0909,-0.12403 0.19843,-0.12403 h 0.49196 c 0.27699,0 0.46716,0.26459 0.46716,0.5209 0,0.31006 -0.26872,0.56224 -0.57464,0.56224 z m 2.00194,1.42214 c 0.1943,0 0.38447,-0.0124 0.57878,-0.0124 0.19017,0 0.38447,0.0124 0.57464,0.0124 v -0.13643 c -0.11162,0 -0.39688,0 -0.39688,-0.12402 v -0.94672 h 0.62012 c 0.40101,0 0.90537,-0.24391 0.90537,-0.70693 0,-0.46715 -0.49609,-0.7276 -0.90537,-0.7276 h -1.37666 v 0.13642 c 0.11162,0 0.39688,0 0.39688,0.12403 v 2.1208 c 0,0.12402 -0.28526,0.12402 -0.39688,0.12402 z m 0.74414,-1.32292 v -1.05833 c 0,-0.12403 0.091,-0.12403 0.19844,-0.12403 h 0.32659 c 0.42582,0 0.59945,0.1695 0.59945,0.59118 0,0.41755 -0.17777,0.59118 -0.59945,0.59118 z m 0,0"
       style="fill:#000000;fill-opacity:1;fill-rule:nonzero;stroke:none;stroke-width:0.388056"
       aria-label="1GBP" />
    <path
       id="path91-3"
       d="m 113.07046,184.78416 h 0.57976 v -6.18561 h -0.57976 z"
       style="fill:#000000;fill-opacity:1;fill-rule:nonzero;stroke:none;stroke-width:0.388056" />
    <path
       id="path92-97"
       d="m 125.14189,182.6408 c 0,0.11575 0.0992,0.21084 0.21498,0.21084 0.11575,0 0.21084,-0.0951 0.21084,-0.21084 0,-0.11576 -0.0951,-0.21498 -0.21084,-0.21498 -0.11576,0 -0.21498,0.0992 -0.21498,0.21498 z m 0.1571,-0.55811 c 0,0.0165 0.0165,0.0331 0.0331,0.0331 h 0.0455 c 0.0165,0 0.0372,-0.0165 0.0372,-0.0331 v -0.19017 c 0,-0.34726 0.2067,-0.65732 0.48369,-0.85163 0.12816,-0.0868 0.20257,-0.23978 0.20257,-0.3886 0,-0.41342 -0.40514,-0.52504 -0.74414,-0.52504 -0.30179,0 -0.64492,0.19017 -0.64492,0.52504 0,0.10335 0.0827,0.18603 0.18603,0.18603 0.10335,0 0.18604,-0.0827 0.18604,-0.18603 0,-0.10336 -0.0827,-0.18604 -0.18604,-0.18604 -0.008,0 -0.0165,0 -0.0207,0 0.0951,-0.16123 0.29352,-0.23978 0.47956,-0.23978 0.32246,0 0.40928,0.11576 0.40928,0.42168 0,0.11576 -0.0289,0.23565 -0.11163,0.32246 -0.23564,0.24392 -0.35553,0.58291 -0.35553,0.91364 z m 3.19154,0.35553 c -0.19844,-0.25631 -0.25218,-0.59117 -0.25218,-0.9095 0,-0.31419 0.0537,-0.64906 0.25218,-0.90537 0.17776,-0.22738 0.45475,-0.35967 0.74,-0.35967 0.19017,0 0.36381,0.0786 0.4961,0.21084 0.1695,0.16536 0.31832,0.49609 0.31832,0.7276 0,0.0165 0.0165,0.0331 0.0331,0.0331 h 0.0703 c 0.0165,0 0.0331,-0.0165 0.0331,-0.0331 v -1.04593 c 0,-0.0124 -0.0165,-0.0289 -0.0331,-0.0289 h -0.0248 c -0.0124,0 -0.0207,0.008 -0.0289,0.0124 l -0.22325,0.31419 c -0.17363,-0.19844 -0.42581,-0.3266 -0.69453,-0.3266 -0.76481,0 -1.35185,0.65733 -1.35185,1.40147 0,0.75241 0.58704,1.40973 1.35185,1.40973 0.55397,0 1.00459,-0.47129 1.00459,-1.02112 0,-0.0165 -0.0124,-0.0413 -0.0331,-0.0413 h -0.0455 c -0.0207,0 -0.0331,0.0165 -0.0331,0.0331 0,0.46715 -0.34727,0.89297 -0.83509,0.89297 -0.28526,0 -0.56637,-0.13643 -0.74414,-0.36381 z m 2.17144,0.41342 h 1.83968 l 0.0661,-1.04594 h -0.11576 c -0.0124,0.25632 -0.0331,0.54157 -0.20257,0.71521 -0.1695,0.16536 -0.42168,0.1819 -0.64492,0.1819 h -0.57051 l 1.50482,-2.37712 c 0.004,-0.008 0.004,-0.0165 0.004,-0.0248 v -0.0455 c 0,-0.0248 -0.0207,-0.0455 -0.0413,-0.0455 h -1.79007 l -0.0413,0.88883 h 0.11162 c 0,-0.56224 0.27698,-0.75241 0.80202,-0.75241 h 0.5457 l -1.50482,2.38539 c -0.008,0.008 -0.008,0.0165 -0.008,0.0248 v 0.0537 c 0,0.0207 0.0207,0.0413 0.0455,0.0413 z m 2.22209,0 c 0.1943,0 0.38447,-0.0124 0.57877,-0.0124 0.19017,0 0.38448,0.0124 0.57878,0.0124 v -0.13643 c -0.11576,0 -0.40101,0 -0.40101,-0.12402 v -0.71521 l 0.43408,-0.41754 0.6904,1.02939 c 0.0289,0.0372 0.0496,0.0827 0.0496,0.11989 0,0.10749 -0.14469,0.10749 -0.21911,0.10749 v 0.13643 c 0.1943,0 0.38861,-0.0124 0.57878,-0.0124 0.14883,0 0.29352,0.0124 0.43408,0.0124 v -0.13643 c -0.24391,0 -0.31006,-0.0207 -0.44649,-0.22738 l -0.84749,-1.25677 0.68213,-0.65732 c 0.15296,-0.14056 0.34727,-0.22738 0.55811,-0.22738 v -0.13642 c -0.10336,0 -0.20258,0.0124 -0.30593,0.0124 -0.17777,0 -0.35553,-0.0124 -0.5333,-0.0124 v 0.13642 c 0.0744,0 0.1695,0.0372 0.1695,0.12403 0,0.0372 -0.0207,0.0785 -0.0496,0.10335 l -1.19476,1.14928 v -1.25263 c 0,-0.12403 0.28525,-0.12403 0.40101,-0.12403 v -0.13642 c -0.1943,0 -0.38861,0.0124 -0.57878,0.0124 -0.1943,0 -0.38447,-0.0124 -0.57877,-0.0124 v 0.13642 c 0.11162,0 0.39687,0 0.39687,0.12403 v 2.1208 c 0,0.12402 -0.28525,0.12402 -0.39687,0.12402 z m 0,0"
       style="fill:#000000;fill-opacity:1;fill-rule:nonzero;stroke:none;stroke-width:0.388056"
       aria-label="?CZK" />
    <path
       id="path93-0"
       d="m 139.75471,184.78416 v -6.18561"
       style="fill:none;stroke:#000000;stroke-width:0.232057;stroke-linecap:butt;stroke-linejoin:miter;stroke-miterlimit:10;stroke-dasharray:none;stroke-opacity:1" />
    <path
       id="path94-1"
       d="m 151.36252,182.6408 c 0,0.11575 0.0992,0.21084 0.21497,0.21084 0.11576,0 0.21084,-0.0951 0.21084,-0.21084 0,-0.11576 -0.0951,-0.21498 -0.21084,-0.21498 -0.11575,0 -0.21497,0.0992 -0.21497,0.21498 z m 0.1571,-0.55811 c 0,0.0165 0.0165,0.0331 0.0331,0.0331 h 0.0455 c 0.0165,0 0.0372,-0.0165 0.0372,-0.0331 v -0.19017 c 0,-0.34726 0.20671,-0.65732 0.48369,-0.85163 0.12816,-0.0868 0.20258,-0.23978 0.20258,-0.3886 0,-0.41342 -0.40515,-0.52504 -0.74415,-0.52504 -0.30179,0 -0.64492,0.19017 -0.64492,0.52504 0,0.10335 0.0827,0.18603 0.18604,0.18603 0.10335,0 0.18603,-0.0827 0.18603,-0.18603 0,-0.10336 -0.0827,-0.18604 -0.18603,-0.18604 -0.008,0 -0.0165,0 -0.0207,0 0.0951,-0.16123 0.29352,-0.23978 0.47955,-0.23978 0.32247,0 0.40928,0.11576 0.40928,0.42168 0,0.11576 -0.0289,0.23565 -0.11162,0.32246 -0.23564,0.24392 -0.35553,0.58291 -0.35553,0.91364 z m 3.19153,0.35553 c -0.19843,-0.25631 -0.25218,-0.59117 -0.25218,-0.9095 0,-0.31419 0.0538,-0.64906 0.25218,-0.90537 0.17777,-0.22738 0.45476,-0.35967 0.74001,-0.35967 0.19017,0 0.3638,0.0786 0.49609,0.21084 0.1695,0.16536 0.31833,0.49609 0.31833,0.7276 0,0.0165 0.0165,0.0331 0.0331,0.0331 h 0.0703 c 0.0165,0 0.0331,-0.0165 0.0331,-0.0331 v -1.04593 c 0,-0.0124 -0.0165,-0.0289 -0.0331,-0.0289 h -0.0248 c -0.0124,0 -0.0207,0.008 -0.0289,0.0124 l -0.22324,0.31419 c -0.17364,-0.19844 -0.42582,-0.3266 -0.69453,-0.3266 -0.76482,0 -1.35186,0.65733 -1.35186,1.40147 0,0.75241 0.58704,1.40973 1.35186,1.40973 0.55397,0 1.00459,-0.47129 1.00459,-1.02112 0,-0.0165 -0.0124,-0.0413 -0.0331,-0.0413 h -0.0455 c -0.0207,0 -0.0331,0.0165 -0.0331,0.0331 0,0.46715 -0.34726,0.89297 -0.83509,0.89297 -0.28525,0 -0.56637,-0.13643 -0.74414,-0.36381 z m 2.17145,0.41342 h 1.83968 l 0.0661,-1.04594 h -0.11575 c -0.0124,0.25632 -0.0331,0.54157 -0.20257,0.71521 -0.1695,0.16536 -0.42168,0.1819 -0.64492,0.1819 h -0.57051 l 1.50482,-2.37712 c 0.004,-0.008 0.004,-0.0165 0.004,-0.0248 v -0.0455 c 0,-0.0248 -0.0207,-0.0455 -0.0413,-0.0455 h -1.79007 l -0.0413,0.88883 h 0.11163 c 0,-0.56224 0.27698,-0.75241 0.80201,-0.75241 h 0.54571 l -1.50482,2.38539 c -0.008,0.008 -0.008,0.0165 -0.008,0.0248 v 0.0537 c 0,0.0207 0.0207,0.0413 0.0455,0.0413 z m 2.22208,0 c 0.19431,0 0.38448,-0.0124 0.57878,-0.0124 0.19017,0 0.38447,0.0124 0.57878,0.0124 v -0.13643 c -0.11576,0 -0.40101,0 -0.40101,-0.12402 v -0.71521 l 0.43408,-0.41754 0.6904,1.02939 c 0.0289,0.0372 0.0496,0.0827 0.0496,0.11989 0,0.10749 -0.1447,0.10749 -0.21911,0.10749 v 0.13643 c 0.1943,0 0.3886,-0.0124 0.57877,-0.0124 0.14883,0 0.29353,0.0124 0.43409,0.0124 v -0.13643 c -0.24392,0 -0.31006,-0.0207 -0.44649,-0.22738 l -0.84749,-1.25677 0.68213,-0.65732 c 0.15296,-0.14056 0.34726,-0.22738 0.5581,-0.22738 v -0.13642 c -0.10335,0 -0.20257,0.0124 -0.30592,0.0124 -0.17777,0 -0.35554,-0.0124 -0.5333,-0.0124 v 0.13642 c 0.0744,0 0.1695,0.0372 0.1695,0.12403 0,0.0372 -0.0207,0.0785 -0.0496,0.10335 l -1.19476,1.14928 v -1.25263 c 0,-0.12403 0.28525,-0.12403 0.40101,-0.12403 v -0.13642 c -0.19431,0 -0.38861,0.0124 -0.57878,0.0124 -0.1943,0 -0.38447,-0.0124 -0.57878,-0.0124 v 0.13642 c 0.11162,0 0.39688,0 0.39688,0.12403 v 2.1208 c 0,0.12402 -0.28526,0.12402 -0.39688,0.12402 z m 0,0"
       style="fill:#000000;fill-opacity:1;fill-rule:nonzero;stroke:none;stroke-width:0.388056"
       aria-label="?CZK" />
    <path
       id="path95-15"
       d="m 165.85921,184.78416 h 0.57976 v -6.18561 h -0.57976 z"
       style="fill:#000000;fill-opacity:1;fill-rule:nonzero;stroke:none;stroke-width:0.388056" />
    <path
       id="path96-7"
       d="m 93.133326,185.36391 h 73.306024 v -0.57976 H 93.133326 Z"
       style="fill:#000000;fill-opacity:1;fill-rule:nonzero;stroke:none;stroke-width:0.388056" />
  </g>
</svg>
