<?xml version="1.0" encoding="UTF-8" standalone="no"?>
<!-- Created with Inkscape (http://www.inkscape.org/) -->

<svg
   width="122.88517mm"
   height="40.129608mm"
   viewBox="0 0 122.88517 40.129607"
   version="1.1"
   id="svg1"
   xmlns="http://www.w3.org/2000/svg"
   xmlns:svg="http://www.w3.org/2000/svg">
  <defs
     id="defs1" />
  <g
     id="layer1"
     transform="translate(-59.795828,-120.3854)">
    <path
       id="path49-1"
       d="M 59.795828,120.96516 H 182.68099 V 120.3854 H 59.795828 Z"
       style="fill:#000000;fill-opacity:1;fill-rule:nonzero;stroke:none;stroke-width:0.388056" />
    <path
       id="path50-6"
       d="m 59.795828,127.15077 h 0.579755 v -6.18561 h -0.579755 z"
       style="fill:#000000;fill-opacity:1;fill-rule:nonzero;stroke:none;stroke-width:0.388056" />
    <path
       id="path51-3"
       d="m 79.706182,127.15077 h 0.579755 v -6.18561 h -0.579755 z"
       style="fill:#000000;fill-opacity:1;fill-rule:nonzero;stroke:none;stroke-width:0.388056" />
    <path
       id="path52-8"
       d="m 84.511367,125.2176 c 0.210839,0 0.421679,-0.0124 0.632519,-0.0124 0.214974,0 0.42168,0.0124 0.636654,0.0124 v -0.13643 c -0.111621,0 -0.483692,0 -0.483692,-0.12402 v -2.2779 c 0,-0.0165 -0.02481,-0.0372 -0.04134,-0.0372 h -0.05374 c -0.186036,0.19017 -0.454753,0.24805 -0.715202,0.24805 v 0.13643 c 0.177767,0 0.355534,-0.0248 0.508496,-0.0992 v 2.02985 c 0,0.12402 -0.376204,0.12402 -0.483691,0.12402 z m 1.900659,-0.21084 c 0,0.11575 0.09508,0.21084 0.21084,0.21084 0.115755,0 0.210839,-0.0951 0.210839,-0.21084 0,-0.11576 -0.09508,-0.21498 -0.210839,-0.21498 -0.115756,0 -0.21084,0.0992 -0.21084,0.21498 z m 2.134237,0.21084 c 0.144693,0 0.285253,-0.0124 0.434082,-0.0124 0.144693,0 0.285253,0.0124 0.429947,0.0124 v -0.13643 c -0.111621,0 -0.30179,0 -0.30179,-0.12402 v -0.42582 l 0.235645,-0.2067 0.37207,0.52916 c 0.03307,0.0413 0.07028,0.0951 0.07028,0.14883 0,0.0662 -0.07855,0.0786 -0.132292,0.0786 v 0.13643 c 0.14056,0 0.289388,-0.0124 0.438216,-0.0124 0.111621,0 0.223243,0.0124 0.330729,0.0124 v -0.13643 c -0.223242,0 -0.276985,-0.0496 -0.401009,-0.22738 l -0.487825,-0.69866 0.272851,-0.23978 c 0.148828,-0.12816 0.326595,-0.22738 0.525033,-0.22738 v -0.13642 c -0.08268,0 -0.165365,0.0124 -0.248047,0.0124 -0.16123,0 -0.318327,-0.0124 -0.479557,-0.0124 v 0.13642 c 0.05788,0 0.111621,0.0289 0.111621,0.0909 0,0.0579 -0.04134,0.0992 -0.07855,0.13643 l -0.516765,0.45475 v -1.83554 l -0.574641,0.0413 v 0.13642 c 0.202571,0 0.30179,0 0.30179,0.21498 v 2.02985 c 0,0.12402 -0.190169,0.12402 -0.30179,0.12402 z m 2.803962,0.0413 c 0.47129,0 0.851628,-0.39274 0.851628,-0.86403 0,-0.47543 -0.363802,-0.90951 -0.851628,-0.90951 -0.496093,0 -0.859895,0.43408 -0.859895,0.90951 0,0.47129 0.384472,0.86403 0.859895,0.86403 z m 0,-0.11162 c -0.46302,0 -0.520898,-0.44235 -0.520898,-0.79375 0,-0.19431 0,-0.39274 0.111621,-0.55397 0.09095,-0.1323 0.243913,-0.21498 0.409277,-0.21498 0.157097,0 0.310059,0.0827 0.405144,0.21498 0.107487,0.16123 0.111621,0.35966 0.111621,0.55397 0,0.3514 -0.05788,0.79375 -0.516765,0.79375 z m 1.085206,0.0703 c 0.148828,0 0.289388,-0.0124 0.438216,-0.0124 0.144694,0 0.289388,0.0124 0.434082,0.0124 v -0.13643 c -0.111621,0 -0.30179,0 -0.30179,-0.12402 v -2.42259 l -0.570508,0.0413 v 0.13642 c 0.202571,0 0.30179,0 0.30179,0.21498 v 2.02985 c 0,0.12402 -0.190169,0.12402 -0.30179,0.12402 z m 1.921329,0.0413 c 0.47129,0 0.851628,-0.39274 0.851628,-0.86403 0,-0.47543 -0.363802,-0.90951 -0.851628,-0.90951 -0.496093,0 -0.859895,0.43408 -0.859895,0.90951 0,0.47129 0.384472,0.86403 0.859895,0.86403 z m 0,-0.11162 c -0.46302,0 -0.520898,-0.44235 -0.520898,-0.79375 0,-0.19431 0,-0.39274 0.111621,-0.55397 0.09095,-0.1323 0.243913,-0.21498 0.409277,-0.21498 0.157097,0 0.310059,0.0827 0.405144,0.21498 0.107487,0.16123 0.111621,0.35966 0.111621,0.55397 0,0.3514 -0.05788,0.79375 -0.516765,0.79375 z m 0,0"
       style="fill:#000000;fill-opacity:1;fill-rule:nonzero;stroke:none;stroke-width:0.388056"
       aria-label="1.kolo" />
    <path
       id="path53-5"
       d="m 99.302988,127.15077 v -6.18561"
       style="fill:none;stroke:#000000;stroke-width:0.232057;stroke-linecap:butt;stroke-linejoin:miter;stroke-miterlimit:10;stroke-dasharray:none;stroke-opacity:1" />
    <path
       id="path54-9"
       d="m 103.47869,125.2176 h 1.43454 l 0.10748,-0.68627 h -0.11162 c -0.0207,0.11989 -0.0496,0.30179 -0.0951,0.35554 -0.0207,0.0165 -0.42168,0.0165 -0.65319,0.0165 h -0.37207 l 0.43821,-0.42168 c 0.3142,-0.30179 0.79375,-0.59531 0.79375,-1.079 0,-0.47129 -0.38447,-0.76068 -0.82268,-0.76068 -0.39275,0 -0.71934,0.31006 -0.71934,0.7028 0,0.11989 0.091,0.21498 0.21084,0.21498 0.11575,0 0.21084,-0.0951 0.21084,-0.21498 0,-0.11989 -0.0951,-0.2067 -0.21084,-0.2067 -0.0165,0 -0.0248,0 -0.0413,0.004 0.0744,-0.21084 0.26458,-0.3638 0.49196,-0.3638 0.34313,0 0.51263,0.31006 0.51263,0.62425 0,0.41341 -0.31006,0.74001 -0.56638,1.02526 l -0.59944,0.66559 c -0.004,0.004 -0.008,0.0165 -0.008,0.0207 z m 2.06602,-0.21084 c 0,0.11575 0.0951,0.21084 0.21084,0.21084 0.11576,0 0.21084,-0.0951 0.21084,-0.21084 0,-0.11576 -0.0951,-0.21498 -0.21084,-0.21498 -0.11575,0 -0.21084,0.0992 -0.21084,0.21498 z m 2.13424,0.21084 c 0.14469,0 0.28525,-0.0124 0.43408,-0.0124 0.1447,0 0.28526,0.0124 0.42995,0.0124 v -0.13643 c -0.11162,0 -0.30179,0 -0.30179,-0.12402 v -0.42582 l 0.23564,-0.2067 0.37207,0.52916 c 0.0331,0.0413 0.0703,0.0951 0.0703,0.14883 0,0.0662 -0.0785,0.0786 -0.13229,0.0786 v 0.13643 c 0.14056,0 0.28939,-0.0124 0.43822,-0.0124 0.11162,0 0.22324,0.0124 0.33073,0.0124 v -0.13643 c -0.22324,0 -0.27699,-0.0496 -0.40101,-0.22738 l -0.48783,-0.69866 0.27285,-0.23978 c 0.14883,-0.12816 0.3266,-0.22738 0.52504,-0.22738 v -0.13642 c -0.0827,0 -0.16537,0.0124 -0.24805,0.0124 -0.16123,0 -0.31833,-0.0124 -0.47956,-0.0124 v 0.13642 c 0.0579,0 0.11162,0.0289 0.11162,0.0909 0,0.0579 -0.0413,0.0992 -0.0785,0.13643 l -0.51677,0.45475 v -1.83554 l -0.57464,0.0413 v 0.13642 c 0.20257,0 0.30179,0 0.30179,0.21498 v 2.02985 c 0,0.12402 -0.19017,0.12402 -0.30179,0.12402 z m 2.80396,0.0413 c 0.47129,0 0.85163,-0.39274 0.85163,-0.86403 0,-0.47543 -0.3638,-0.90951 -0.85163,-0.90951 -0.49609,0 -0.85989,0.43408 -0.85989,0.90951 0,0.47129 0.38447,0.86403 0.85989,0.86403 z m 0,-0.11162 c -0.46302,0 -0.5209,-0.44235 -0.5209,-0.79375 0,-0.19431 0,-0.39274 0.11163,-0.55397 0.091,-0.1323 0.24391,-0.21498 0.40927,-0.21498 0.1571,0 0.31006,0.0827 0.40515,0.21498 0.10748,0.16123 0.11162,0.35966 0.11162,0.55397 0,0.3514 -0.0579,0.79375 -0.51677,0.79375 z m 1.08521,0.0703 c 0.14883,0 0.28939,-0.0124 0.43821,-0.0124 0.1447,0 0.28939,0.0124 0.43409,0.0124 v -0.13643 c -0.11162,0 -0.30179,0 -0.30179,-0.12402 v -2.42259 l -0.57051,0.0413 v 0.13642 c 0.20257,0 0.30179,0 0.30179,0.21498 v 2.02985 c 0,0.12402 -0.19017,0.12402 -0.30179,0.12402 z m 1.92133,0.0413 c 0.47129,0 0.85163,-0.39274 0.85163,-0.86403 0,-0.47543 -0.36381,-0.90951 -0.85163,-0.90951 -0.4961,0 -0.8599,0.43408 -0.8599,0.90951 0,0.47129 0.38447,0.86403 0.8599,0.86403 z m 0,-0.11162 c -0.46302,0 -0.5209,-0.44235 -0.5209,-0.79375 0,-0.19431 0,-0.39274 0.11162,-0.55397 0.091,-0.1323 0.24391,-0.21498 0.40928,-0.21498 0.15709,0 0.31006,0.0827 0.40514,0.21498 0.10749,0.16123 0.11162,0.35966 0.11162,0.55397 0,0.3514 -0.0579,0.79375 -0.51676,0.79375 z m 0,0"
       style="fill:#000000;fill-opacity:1;fill-rule:nonzero;stroke:none;stroke-width:0.388056"
       aria-label="2.kolo" />
    <path
       id="path55-6"
       d="m 118.43568,127.15077 v -6.18561"
       style="fill:none;stroke:#000000;stroke-width:0.232057;stroke-linecap:butt;stroke-linejoin:miter;stroke-miterlimit:10;stroke-dasharray:none;stroke-opacity:1" />
    <path
       id="path56-99"
       d="m 122.785,124.91994 c 0.004,0 0.0124,0 0.0165,0 0.12816,0 0.22738,-0.0951 0.22738,-0.22324 0,-0.12816 -0.0992,-0.22324 -0.22738,-0.22324 -0.12402,0 -0.22324,0.0951 -0.22324,0.22324 0,0.40514 0.42581,0.60771 0.77721,0.60771 0.42168,0 0.82682,-0.31006 0.82682,-0.75654 0,-0.35967 -0.31419,-0.62012 -0.65319,-0.68213 0.30179,-0.0992 0.54984,-0.35967 0.54984,-0.6904 0,-0.35966 -0.41754,-0.5333 -0.72347,-0.5333 -0.31006,0 -0.66973,0.18604 -0.66973,0.53744 0,0.11575 0.0868,0.2067 0.20258,0.2067 0.11575,0 0.2067,-0.0909 0.2067,-0.2067 0,-0.11576 -0.091,-0.20257 -0.2067,-0.20257 -0.008,0 -0.0207,0.004 -0.0248,0.004 0.10749,-0.16123 0.31006,-0.22738 0.49196,-0.22738 0.25218,0 0.3514,0.19844 0.3514,0.42168 0,0.23151 -0.10335,0.63252 -0.39687,0.63252 l -0.21084,0.0124 c -0.0207,0 -0.0372,0.0165 -0.0372,0.0331 v 0.0331 c 0,0.0207 0.0165,0.0372 0.0372,0.0372 h 0.25218 c 0.33486,0 0.41754,0.36793 0.41754,0.62838 0,0.26045 -0.0785,0.62839 -0.41341,0.62839 -0.21084,0 -0.44648,-0.0786 -0.57051,-0.26045 z m 1.89239,0.0868 c 0,0.11575 0.0951,0.21084 0.21084,0.21084 0.11576,0 0.21084,-0.0951 0.21084,-0.21084 0,-0.11576 -0.0951,-0.21498 -0.21084,-0.21498 -0.11575,0 -0.21084,0.0992 -0.21084,0.21498 z m 2.13424,0.21084 c 0.14469,0 0.28525,-0.0124 0.43408,-0.0124 0.1447,0 0.28526,0.0124 0.42995,0.0124 v -0.13643 c -0.11162,0 -0.30179,0 -0.30179,-0.12402 v -0.42582 l 0.23564,-0.2067 0.37208,0.52916 c 0.0331,0.0413 0.0703,0.0951 0.0703,0.14883 0,0.0662 -0.0786,0.0786 -0.1323,0.0786 v 0.13643 c 0.14056,0 0.28939,-0.0124 0.43822,-0.0124 0.11162,0 0.22324,0.0124 0.33073,0.0124 v -0.13643 c -0.22324,0 -0.27699,-0.0496 -0.40101,-0.22738 l -0.48783,-0.69866 0.27286,-0.23978 c 0.14882,-0.12816 0.32659,-0.22738 0.52503,-0.22738 v -0.13642 c -0.0827,0 -0.16537,0.0124 -0.24805,0.0124 -0.16123,0 -0.31833,-0.0124 -0.47956,-0.0124 v 0.13642 c 0.0579,0 0.11163,0.0289 0.11163,0.0909 0,0.0579 -0.0413,0.0992 -0.0785,0.13643 l -0.51677,0.45475 v -1.83554 l -0.57464,0.0413 v 0.13642 c 0.20257,0 0.30179,0 0.30179,0.21498 v 2.02985 c 0,0.12402 -0.19017,0.12402 -0.30179,0.12402 z m 2.80396,0.0413 c 0.47129,0 0.85163,-0.39274 0.85163,-0.86403 0,-0.47543 -0.3638,-0.90951 -0.85163,-0.90951 -0.49609,0 -0.85989,0.43408 -0.85989,0.90951 0,0.47129 0.38447,0.86403 0.85989,0.86403 z m 0,-0.11162 c -0.46302,0 -0.52089,-0.44235 -0.52089,-0.79375 0,-0.19431 0,-0.39274 0.11162,-0.55397 0.0909,-0.1323 0.24391,-0.21498 0.40927,-0.21498 0.1571,0 0.31006,0.0827 0.40515,0.21498 0.10748,0.16123 0.11162,0.35966 0.11162,0.55397 0,0.3514 -0.0579,0.79375 -0.51677,0.79375 z m 1.08521,0.0703 c 0.14883,0 0.28939,-0.0124 0.43822,-0.0124 0.14469,0 0.28938,0.0124 0.43408,0.0124 v -0.13643 c -0.11162,0 -0.30179,0 -0.30179,-0.12402 v -2.42259 l -0.57051,0.0413 v 0.13642 c 0.20257,0 0.30179,0 0.30179,0.21498 v 2.02985 c 0,0.12402 -0.19017,0.12402 -0.30179,0.12402 z m 1.92133,0.0413 c 0.47129,0 0.85163,-0.39274 0.85163,-0.86403 0,-0.47543 -0.36381,-0.90951 -0.85163,-0.90951 -0.49609,0 -0.8599,0.43408 -0.8599,0.90951 0,0.47129 0.38448,0.86403 0.8599,0.86403 z m 0,-0.11162 c -0.46302,0 -0.5209,-0.44235 -0.5209,-0.79375 0,-0.19431 0,-0.39274 0.11162,-0.55397 0.0909,-0.1323 0.24391,-0.21498 0.40928,-0.21498 0.1571,0 0.31006,0.0827 0.40514,0.21498 0.10749,0.16123 0.11162,0.35966 0.11162,0.55397 0,0.3514 -0.0579,0.79375 -0.51676,0.79375 z m 0,0"
       style="fill:#000000;fill-opacity:1;fill-rule:nonzero;stroke:none;stroke-width:0.388056"
       aria-label="3.kolo" />
    <path
       id="path57-2"
       d="m 137.56837,127.15077 v -6.18561"
       style="fill:none;stroke:#000000;stroke-width:0.232057;stroke-linecap:butt;stroke-linejoin:miter;stroke-miterlimit:10;stroke-dasharray:none;stroke-opacity:1" />
    <path
       id="path58-57"
       d="m 141.65724,124.58094 h 1.02112 v 0.37621 c 0,0.12402 -0.26458,0.12402 -0.3762,0.12402 v 0.13643 c 0.17776,0 0.35553,-0.0124 0.5333,-0.0124 0.17363,0 0.3514,0.0124 0.52916,0.0124 v -0.13643 c -0.10748,0 -0.37207,0 -0.37207,-0.12402 v -0.37621 h 0.37621 v -0.13642 h -0.37621 v -1.757 c 0,-0.0248 -0.0207,-0.0455 -0.0455,-0.0455 h -0.0579 c -0.0124,0 -0.0289,0.008 -0.0372,0.0207 l -1.19475,1.78181 z m 0.12815,-0.13642 0.91778,-1.36839 v 1.36839 z m 2.02469,0.56224 c 0,0.11575 0.0951,0.21084 0.21084,0.21084 0.11575,0 0.21083,-0.0951 0.21083,-0.21084 0,-0.11576 -0.0951,-0.21498 -0.21083,-0.21498 -0.11576,0 -0.21084,0.0992 -0.21084,0.21498 z m 2.13423,0.21084 c 0.1447,0 0.28526,-0.0124 0.43408,-0.0124 0.1447,0 0.28526,0.0124 0.42995,0.0124 v -0.13643 c -0.11162,0 -0.30179,0 -0.30179,-0.12402 v -0.42582 l 0.23565,-0.2067 0.37207,0.52916 c 0.0331,0.0413 0.0703,0.0951 0.0703,0.14883 0,0.0662 -0.0786,0.0786 -0.1323,0.0786 v 0.13643 c 0.14056,0 0.28939,-0.0124 0.43822,-0.0124 0.11162,0 0.22324,0.0124 0.33073,0.0124 v -0.13643 c -0.22324,0 -0.27699,-0.0496 -0.40101,-0.22738 l -0.48782,-0.69866 0.27285,-0.23978 c 0.14883,-0.12816 0.32659,-0.22738 0.52503,-0.22738 v -0.13642 c -0.0827,0 -0.16537,0.0124 -0.24805,0.0124 -0.16123,0 -0.31832,-0.0124 -0.47955,-0.0124 v 0.13642 c 0.0579,0 0.11162,0.0289 0.11162,0.0909 0,0.0579 -0.0413,0.0992 -0.0786,0.13643 l -0.51677,0.45475 v -1.83554 l -0.57464,0.0413 v 0.13642 c 0.20257,0 0.30179,0 0.30179,0.21498 v 2.02985 c 0,0.12402 -0.19017,0.12402 -0.30179,0.12402 z m 2.80397,0.0413 c 0.47128,0 0.85162,-0.39274 0.85162,-0.86403 0,-0.47543 -0.3638,-0.90951 -0.85162,-0.90951 -0.4961,0 -0.8599,0.43408 -0.8599,0.90951 0,0.47129 0.38447,0.86403 0.8599,0.86403 z m 0,-0.11162 c -0.46303,0 -0.5209,-0.44235 -0.5209,-0.79375 0,-0.19431 0,-0.39274 0.11162,-0.55397 0.0909,-0.1323 0.24391,-0.21498 0.40928,-0.21498 0.15709,0 0.31005,0.0827 0.40514,0.21498 0.10749,0.16123 0.11162,0.35966 0.11162,0.55397 0,0.3514 -0.0579,0.79375 -0.51676,0.79375 z m 1.0852,0.0703 c 0.14883,0 0.28939,-0.0124 0.43822,-0.0124 0.14469,0 0.28938,0.0124 0.43408,0.0124 v -0.13643 c -0.11162,0 -0.30179,0 -0.30179,-0.12402 v -2.42259 l -0.57051,0.0413 v 0.13642 c 0.20257,0 0.30179,0 0.30179,0.21498 v 2.02985 c 0,0.12402 -0.19017,0.12402 -0.30179,0.12402 z m 1.92133,0.0413 c 0.47129,0 0.85163,-0.39274 0.85163,-0.86403 0,-0.47543 -0.3638,-0.90951 -0.85163,-0.90951 -0.49609,0 -0.8599,0.43408 -0.8599,0.90951 0,0.47129 0.38448,0.86403 0.8599,0.86403 z m 0,-0.11162 c -0.46302,0 -0.5209,-0.44235 -0.5209,-0.79375 0,-0.19431 0,-0.39274 0.11162,-0.55397 0.0909,-0.1323 0.24392,-0.21498 0.40928,-0.21498 0.1571,0 0.31006,0.0827 0.40514,0.21498 0.10749,0.16123 0.11162,0.35966 0.11162,0.55397 0,0.3514 -0.0579,0.79375 -0.51676,0.79375 z m 0,0"
       style="fill:#000000;fill-opacity:1;fill-rule:nonzero;stroke:none;stroke-width:0.388056"
       aria-label="4.kolo" />
    <path
       id="path59-24"
       d="m 156.58503,127.15077 h 0.57976 v -6.18561 h -0.57976 z"
       style="fill:#000000;fill-opacity:1;fill-rule:nonzero;stroke:none;stroke-width:0.388056" />
    <path
       id="path60-07"
       d="m 161.97331,125.2176 c 0.008,0.0289 0.0372,0.0413 0.062,0.0413 h 0.0289 c 0.0248,0 0.0537,-0.0124 0.062,-0.0413 l 0.5209,-1.31465 c 0.062,-0.14056 0.1943,-0.21498 0.34727,-0.21498 v -0.13642 c -0.0909,0 -0.19017,0.0124 -0.28526,0.0124 -0.11989,0 -0.23564,-0.0124 -0.35553,-0.0124 v 0.13642 c 0.091,0 0.18603,0.0579 0.18603,0.1571 0,0.0248 -0.004,0.0413 -0.0124,0.062 l -0.39274,0.98392 -0.42995,-1.08727 c -0.004,-0.008 -0.004,-0.0165 -0.004,-0.0248 0,-0.0909 0.14883,-0.0909 0.21497,-0.0909 v -0.13642 c -0.14469,0 -0.29352,0.0124 -0.43821,0.0124 -0.12403,0 -0.24805,-0.0124 -0.37207,-0.0124 v 0.13642 c 0.11989,0 0.24804,0 0.30592,0.11163 z m 2.23966,-2.63757 -0.43822,0.60772 0.0537,0.0496 0.57878,-0.47543 c 0.1571,-0.12816 -0.0744,-0.34313 -0.1943,-0.17776 z m -0.8723,3.27009 c 0.0868,-0.008 0.14469,-0.0786 0.14469,-0.16537 0,-0.0951 -0.0744,-0.1695 -0.1695,-0.1695 -0.0951,0 -0.16949,0.0744 -0.16949,0.1695 0,0.19017 0.17363,0.3266 0.35553,0.3266 0.26045,0 0.42995,-0.25218 0.51676,-0.46716 l 0.66973,-1.64124 c 0.062,-0.14056 0.1943,-0.21498 0.34727,-0.21498 v -0.13642 c -0.0951,0 -0.19017,0.0124 -0.28526,0.0124 -0.11989,0 -0.23564,-0.0124 -0.35553,-0.0124 v 0.13642 c 0.0909,0 0.1819,0.0579 0.1819,0.15297 0,0.0248 -0.004,0.0455 -0.0124,0.0661 l -0.38861,0.95085 -0.42581,-1.0542 c -0.004,-0.008 -0.004,-0.0165 -0.004,-0.0248 0,-0.0909 0.14883,-0.0909 0.21084,-0.0909 v -0.13642 c -0.14056,0 -0.28939,0.0124 -0.43821,0.0124 -0.12403,0 -0.24805,-0.0124 -0.37207,-0.0124 v 0.13642 c 0.12402,0 0.24804,0 0.30592,0.11163 l 0.57878,1.418 -0.1323,0.32659 c -0.0703,0.16537 -0.1943,0.3638 -0.39687,0.3638 -0.062,0 -0.11576,-0.0165 -0.16123,-0.0579 z m 1.87069,-0.63252 c 0.14469,0 0.28525,-0.0124 0.43408,-0.0124 0.14469,0 0.28525,0.0124 0.42995,0.0124 v -0.13643 c -0.11163,0 -0.30179,0 -0.30179,-0.12402 v -0.42582 l 0.23564,-0.2067 0.37207,0.52916 c 0.0331,0.0413 0.0703,0.0951 0.0703,0.14883 0,0.0662 -0.0786,0.0786 -0.13229,0.0786 v 0.13643 c 0.14056,0 0.28939,-0.0124 0.43822,-0.0124 0.11162,0 0.22324,0.0124 0.33072,0.0124 v -0.13643 c -0.22324,0 -0.27698,-0.0496 -0.401,-0.22738 l -0.48783,-0.69866 0.27285,-0.23978 c 0.14883,-0.12816 0.3266,-0.22738 0.52503,-0.22738 v -0.13642 c -0.0827,0 -0.16536,0.0124 -0.24804,0.0124 -0.16123,0 -0.31833,-0.0124 -0.47956,-0.0124 v 0.13642 c 0.0579,0 0.11162,0.0289 0.11162,0.0909 0,0.0579 -0.0413,0.0992 -0.0786,0.13643 l -0.51676,0.45475 v -1.83554 l -0.57464,0.0413 v 0.13642 c 0.20257,0 0.30179,0 0.30179,0.21498 v 2.02985 c 0,0.12402 -0.19017,0.12402 -0.30179,0.12402 z m 2.79983,0.0413 c 0.47128,0 0.85162,-0.39274 0.85162,-0.86403 0,-0.47543 -0.3638,-0.90951 -0.85162,-0.90951 -0.4961,0 -0.8599,0.43408 -0.8599,0.90951 0,0.47129 0.38447,0.86403 0.8599,0.86403 z m 0,-0.11162 c -0.46303,0 -0.5209,-0.44235 -0.5209,-0.79375 0,-0.19431 0,-0.39274 0.11162,-0.55397 0.0909,-0.1323 0.24391,-0.21498 0.40928,-0.21498 0.15709,0 0.31005,0.0827 0.40514,0.21498 0.10749,0.16123 0.11162,0.35966 0.11162,0.55397 0,0.3514 -0.0579,0.79375 -0.51676,0.79375 z m 1.0821,0.0703 c 0.14883,0 0.29352,-0.0124 0.44648,-0.0124 0.1447,0 0.29353,0.0124 0.43822,0.0124 v -0.13643 c -0.11162,0 -0.30179,0 -0.30179,-0.12402 v -0.76068 c 0,-0.29352 0.20257,-0.58704 0.51676,-0.58704 0.24805,0 0.27699,0.23564 0.27699,0.43408 v 0.91364 c 0,0.12402 -0.19017,0.12402 -0.30179,0.12402 v 0.13643 c 0.14883,0 0.29352,-0.0124 0.44648,-0.0124 0.1447,0 0.29353,0.0124 0.43822,0.0124 v -0.13643 c -0.11162,0 -0.30179,0 -0.30179,-0.12402 v -0.92604 c 0,-0.35554 -0.18604,-0.5209 -0.53744,-0.5209 -0.24804,0 -0.45888,0.15709 -0.5581,0.3762 v -0.3762 l -0.56224,0.0413 v 0.13642 c 0.20257,0 0.30179,0 0.30179,0.21498 v 1.0542 c 0,0.12402 -0.19017,0.12402 -0.30179,0.12402 z m 2.14767,0 c 0.14883,0 0.29352,-0.0124 0.44649,-0.0124 0.14469,0 0.29352,0.0124 0.43821,0.0124 v -0.13643 c -0.11162,0 -0.30179,0 -0.30179,-0.12402 v -0.76068 c 0,-0.29352 0.20257,-0.58704 0.51677,-0.58704 0.24804,0 0.27698,0.23564 0.27698,0.43408 v 0.91364 c 0,0.12402 -0.19017,0.12402 -0.30179,0.12402 v 0.13643 c 0.14883,0 0.29352,-0.0124 0.44649,-0.0124 0.14469,0 0.29352,0.0124 0.43821,0.0124 v -0.13643 c -0.11162,0 -0.30179,0 -0.30179,-0.12402 v -0.92604 c 0,-0.35554 -0.18603,-0.5209 -0.53743,-0.5209 -0.24805,0 -0.45889,0.15709 -0.55811,0.3762 v -0.3762 l -0.56224,0.0413 v 0.13642 c 0.20257,0 0.30179,0 0.30179,0.21498 v 1.0542 c 0,0.12402 -0.19017,0.12402 -0.30179,0.12402 z m 2.9993,0.0413 c 0.47129,0 0.85163,-0.39274 0.85163,-0.86403 0,-0.47543 -0.3638,-0.90951 -0.85163,-0.90951 -0.49609,0 -0.85989,0.43408 -0.85989,0.90951 0,0.47129 0.38447,0.86403 0.85989,0.86403 z m 0,-0.11162 c -0.46302,0 -0.5209,-0.44235 -0.5209,-0.79375 0,-0.19431 0,-0.39274 0.11163,-0.55397 0.0909,-0.1323 0.24391,-0.21498 0.40927,-0.21498 0.1571,0 0.31006,0.0827 0.40515,0.21498 0.10748,0.16123 0.11162,0.35966 0.11162,0.55397 0,0.3514 -0.0579,0.79375 -0.51677,0.79375 z m 1.09451,0.0827 c 0,0.0165 0.0165,0.0289 0.0331,0.0289 h 0.0248 c 0.004,0 0.0207,-0.004 0.0207,-0.008 l 0.14056,-0.15296 c 0.11162,0.10748 0.26045,0.16123 0.41341,0.16123 0.34313,0 0.63252,-0.16123 0.63252,-0.54571 0,-0.28938 -0.23564,-0.47128 -0.49609,-0.52916 l -0.26459,-0.0496 c -0.13229,-0.0289 -0.30592,-0.11162 -0.30592,-0.27285 0,-0.23151 0.24391,-0.28526 0.42995,-0.28526 0.27285,0 0.42581,0.18604 0.42581,0.44649 0,0.0207 0.0165,0.0372 0.0372,0.0372 h 0.0455 c 0.0124,0 0.0289,-0.0165 0.0289,-0.0372 v -0.50436 c 0,-0.0165 -0.0165,-0.0331 -0.0289,-0.0331 h -0.0289 c -0.008,0 -0.0165,0.004 -0.0165,0.008 l -0.11575,0.0951 c -0.0992,-0.0703 -0.22325,-0.10336 -0.34314,-0.10336 -0.31006,0 -0.63252,0.12403 -0.63252,0.48369 0,0.26872 0.24805,0.41755 0.47956,0.46716 l 0.25632,0.0496 c 0.16123,0.0413 0.32659,0.15296 0.32659,0.33486 0,0.24805 -0.21084,0.339 -0.42995,0.339 -0.32659,0 -0.46715,-0.27285 -0.5209,-0.56224 -0.004,-0.0124 -0.0165,-0.0289 -0.0331,-0.0289 h -0.0455 c -0.0165,0 -0.0331,0.0165 -0.0331,0.0289 z m 2.3182,-2.02158 c 0,0.0124 0.0289,0.0289 0.0579,0.0289 0.004,0 0.0124,0 0.0207,0 0.20671,-0.1323 0.33073,-0.30593 0.33073,-0.49196 0,-0.16123 -0.0537,-0.40515 -0.25631,-0.40515 -0.11989,0 -0.21084,0.091 -0.21084,0.20671 0,0.11575 0.0909,0.20257 0.21084,0.20257 0.0579,0 0.11162,-0.0124 0.15296,-0.0537 0,0.0124 0,0.0248 0,0.0372 0,0.1695 -0.10749,0.3266 -0.29352,0.44235 -0.008,0.004 -0.0124,0.008 -0.0124,0.0124 z m -0.52916,1.54616 c 0,0.31005 0.1943,0.50436 0.50436,0.50436 0.26045,0 0.38447,-0.27699 0.38447,-0.50436 v -0.23565 h -0.11162 v 0.22738 c 0,0.14883 -0.0537,0.40101 -0.24805,0.40101 -0.2067,0 -0.24391,-0.23978 -0.24391,-0.40101 v -1.05834 h 0.54157 v -0.13642 h -0.54157 v -0.71107 h -0.11162 c 0,0.29766 -0.11989,0.74414 -0.49196,0.74414 v 0.10335 h 0.31833 z m 0,0"
       style="fill:#000000;fill-opacity:1;fill-rule:nonzero;stroke:none;stroke-width:0.388056"
       aria-label="výkonnosť" />
    <path
       id="path61-6"
       d="m 182.10124,127.15077 h 0.57976 v -6.18561 h -0.57976 z"
       style="fill:#000000;fill-opacity:1;fill-rule:nonzero;stroke:none;stroke-width:0.388056" />
    <path
       id="path62-1"
       d="M 59.795828,127.73091 H 182.68099 v -0.57976 H 59.795828 Z"
       style="fill:#000000;fill-opacity:1;fill-rule:nonzero;stroke:none;stroke-width:0.388056" />
    <path
       id="path63-3"
       d="m 59.795828,133.91651 h 0.579755 v -6.18561 h -0.579755 z"
       style="fill:#000000;fill-opacity:1;fill-rule:nonzero;stroke:none;stroke-width:0.388056" />
    <path
       id="path64-9"
       d="m 65.680474,131.98411 c 0.194304,0 0.384473,-0.0124 0.578776,-0.0124 0.19017,0 0.384473,0.0124 0.574642,0.0124 v -0.13643 c -0.111621,0 -0.396875,0 -0.396875,-0.12402 v -0.94671 h 0.620118 c 0.401009,0 0.905371,-0.24391 0.905371,-0.70694 0,-0.46715 -0.496094,-0.7276 -0.905371,-0.7276 h -1.376661 v 0.13643 c 0.111622,0 0.396875,0 0.396875,0.12402 v 2.1208 c 0,0.12402 -0.285253,0.12402 -0.396875,0.12402 z m 0.744141,-1.32292 v -1.05833 c 0,-0.12402 0.09095,-0.12402 0.198438,-0.12402 h 0.326595 c 0.425813,0 0.599446,0.1695 0.599446,0.59117 0,0.41755 -0.177767,0.59118 -0.599446,0.59118 z m 2.613794,1.36426 c 0.30179,0 0.566374,-0.2067 0.640788,-0.49609 0,-0.0248 -0.0124,-0.0496 -0.03721,-0.0496 h -0.03721 c -0.01654,0 -0.03307,0.0165 -0.03721,0.0331 -0.05788,0.22324 -0.26045,0.40101 -0.496094,0.40101 -0.429948,0 -0.549838,-0.42168 -0.549838,-0.78135 0,-0.0124 0,-0.0248 0,-0.0413 h 1.120345 c 0.0248,0 0.03721,-0.0289 0.03721,-0.0496 0,-0.44235 -0.219108,-0.78961 -0.694531,-0.78961 -0.471289,0 -0.802018,0.43821 -0.802018,0.8847 0,0.47129 0.37207,0.88883 0.855761,0.88883 z m -0.516764,-1.02939 c 0,-0.26872 0.144694,-0.64493 0.463021,-0.64493 0.326595,0 0.421679,0.38034 0.421679,0.64493 z m 1.663981,0.52503 c 0,0.31006 0.194303,0.50436 0.504362,0.50436 0.260449,0 0.384473,-0.27698 0.384473,-0.50436 v -0.23565 h -0.111622 v 0.22738 c 0,0.14883 -0.05374,0.40101 -0.248046,0.40101 -0.206706,0 -0.243913,-0.23978 -0.243913,-0.40101 v -1.05833 h 0.541569 v -0.13643 H 70.47088 v -0.71107 h -0.111621 c 0,0.29766 -0.11989,0.74414 -0.49196,0.74414 v 0.10336 h 0.318327 z m 2.074292,0.50436 c 0.30179,0 0.566374,-0.2067 0.640788,-0.49609 0,-0.0248 -0.0124,-0.0496 -0.03721,-0.0496 h -0.03721 c -0.01653,0 -0.03307,0.0165 -0.03721,0.0331 -0.05788,0.22324 -0.260449,0.40101 -0.496093,0.40101 -0.429949,0 -0.549838,-0.42168 -0.549838,-0.78135 0,-0.0124 0,-0.0248 0,-0.0413 h 1.120345 c 0.02481,0 0.03721,-0.0289 0.03721,-0.0496 0,-0.44235 -0.219108,-0.78961 -0.694531,-0.78961 -0.471289,0 -0.802018,0.43821 -0.802018,0.8847 0,0.47129 0.37207,0.88883 0.855761,0.88883 z m -0.516765,-1.02939 c 0,-0.26872 0.144695,-0.64493 0.463021,-0.64493 0.326596,0 0.42168,0.38034 0.42168,0.64493 z m 1.37046,0.98805 c 0.148828,0 0.289387,-0.0124 0.438216,-0.0124 0.169498,0 0.338997,0.0124 0.508496,0.0124 v -0.13643 c -0.107487,0 -0.372071,0 -0.372071,-0.12402 v -0.63252 c 0,-0.26872 0.09095,-0.7152 0.434082,-0.7152 0.0083,0 0.01653,0 0.02481,0 -0.04961,0.0331 -0.07441,0.0909 -0.07441,0.14883 0,0.0951 0.07855,0.17363 0.173633,0.17363 0.09922,0 0.173632,-0.0785 0.173632,-0.17363 0,-0.1571 -0.152962,-0.24805 -0.297656,-0.24805 -0.235644,0 -0.380338,0.17363 -0.454753,0.37621 v -0.37621 l -0.553971,0.0413 v 0.13643 c 0.202572,0 0.30179,0 0.30179,0.21497 v 1.0542 c 0,0.12402 -0.190169,0.12402 -0.30179,0.12402 z m 0,0"
       style="fill:#000000;fill-opacity:1;fill-rule:nonzero;stroke:none;stroke-width:0.388056"
       aria-label="Peter" />
    <path
       id="path65-4"
       d="m 79.706182,133.91651 h 0.579755 v -6.18561 h -0.579755 z"
       style="fill:#000000;fill-opacity:1;fill-rule:nonzero;stroke:none;stroke-width:0.388056" />
    <path
       id="path66-3"
       d="M 99.302988,133.91651 V 127.7309"
       style="fill:none;stroke:#000000;stroke-width:0.232057;stroke-linecap:butt;stroke-linejoin:miter;stroke-miterlimit:10;stroke-dasharray:none;stroke-opacity:1" />
    <path
       id="path67-0"
       d="M 118.43568,133.91651 V 127.7309"
       style="fill:none;stroke:#000000;stroke-width:0.232057;stroke-linecap:butt;stroke-linejoin:miter;stroke-miterlimit:10;stroke-dasharray:none;stroke-opacity:1" />
    <path
       id="path68-44"
       d="M 137.56837,133.91651 V 127.7309"
       style="fill:none;stroke:#000000;stroke-width:0.232057;stroke-linecap:butt;stroke-linejoin:miter;stroke-miterlimit:10;stroke-dasharray:none;stroke-opacity:1" />
    <path
       id="path69-6"
       d="m 146.50345,131.54176 c 0,0 0.0331,0.008 0.0537,0.008 0.11576,0 0.20257,-0.0827 0.20257,-0.19431 0,-0.11575 -0.0868,-0.19843 -0.20257,-0.19843 -0.11162,0 -0.1943,0.0827 -0.1943,0.19843 0,0.38034 0.30179,0.71521 0.6904,0.71521 0.47129,0 0.85162,-0.39274 0.85162,-0.86403 0,-0.40928 -0.28112,-0.8475 -0.73173,-0.8475 -0.21911,0 -0.32246,0.062 -0.48783,0.19431 v -0.73174 c 0.10749,0.0289 0.21084,0.0455 0.31833,0.0455 0.28939,0 0.56637,-0.14056 0.74,-0.37207 0.004,0 0.008,-0.0124 0.008,-0.0207 v -0.0331 c 0,-0.0165 -0.0165,-0.0331 -0.0331,-0.0331 -0.008,0 -0.008,0 -0.0124,0 -0.17364,0.0827 -0.3638,0.12402 -0.55397,0.12402 -0.19017,0 -0.38034,-0.0413 -0.54984,-0.12402 -0.008,0 -0.008,0 -0.0124,0 -0.0207,0 -0.0372,0.0165 -0.0372,0.0331 v 1.28984 c 0,0.0165 0.0207,0.0331 0.0372,0.0331 h 0.0413 c 0.0496,-0.008 0.15296,-0.30179 0.53743,-0.30179 0.18604,0 0.30179,0.1819 0.34313,0.33899 0.0331,0.12816 0.0331,0.26872 0.0331,0.40101 0,0.3266 -0.0786,0.74414 -0.49196,0.74414 -0.24805,0 -0.47129,-0.1695 -0.54984,-0.40514 z m 0,0"
       style="fill:#000000;fill-opacity:1;fill-rule:nonzero;stroke:none;stroke-width:0.388056"
       aria-label="5" />
    <path
       id="path70-9"
       d="m 156.58503,133.91651 h 0.57976 v -6.18561 h -0.57976 z"
       style="fill:#000000;fill-opacity:1;fill-rule:nonzero;stroke:none;stroke-width:0.388056" />
    <path
       id="path71-0"
       d="m 168.05976,131.98411 c 0.21084,0 0.42168,-0.0124 0.63252,-0.0124 0.21497,0 0.42168,0.0124 0.63665,0.0124 v -0.13643 c -0.11162,0 -0.48369,0 -0.48369,-0.12402 v -2.2779 c 0,-0.0165 -0.0248,-0.0372 -0.0413,-0.0372 h -0.0537 c -0.18604,0.19017 -0.45476,0.24804 -0.71521,0.24804 v 0.13643 c 0.17777,0 0.35554,-0.0248 0.5085,-0.0992 v 2.02985 c 0,0.12402 -0.3762,0.12402 -0.48369,0.12402 z m 2.54041,0.0868 c 0.70694,0 0.81029,-0.77722 0.81029,-1.31879 0,-0.5457 -0.0992,-1.34358 -0.81029,-1.34358 -0.7152,0 -0.81855,0.79788 -0.81855,1.34358 0,0.54157 0.10748,1.31879 0.81855,1.31879 z m 0,-0.10336 c -0.47956,0 -0.47956,-0.91364 -0.47956,-1.27744 0,-0.35967 0,-1.17822 0.47956,-1.17822 0.47542,0 0.47542,0.81855 0.47542,1.17822 0,0.3638 0,1.27744 -0.47542,1.27744 z m 0,0"
       style="fill:#000000;fill-opacity:1;fill-rule:nonzero;stroke:none;stroke-width:0.388056"
       aria-label="10" />
    <path
       id="path72-0"
       d="m 182.10124,133.91651 h 0.57976 v -6.18561 h -0.57976 z"
       style="fill:#000000;fill-opacity:1;fill-rule:nonzero;stroke:none;stroke-width:0.388056" />
    <path
       id="path73-6"
       d="M 59.795828,134.03254 H 182.68099"
       style="fill:none;stroke:#000000;stroke-width:0.232057;stroke-linecap:butt;stroke-linejoin:miter;stroke-miterlimit:10;stroke-dasharray:none;stroke-opacity:1" />
    <path
       id="path74-24"
       d="m 59.795828,140.33418 h 0.579755 v -6.18561 h -0.579755 z"
       style="fill:#000000;fill-opacity:1;fill-rule:nonzero;stroke:none;stroke-width:0.388056" />
    <path
       id="path75-1"
       d="m 65.903717,138.18631 c 0,0 0.0124,0 0.01654,0 0.128158,0 0.223242,-0.0992 0.223242,-0.22737 0,-0.12403 -0.09508,-0.22325 -0.223242,-0.22325 -0.128158,0 -0.223242,0.0992 -0.223242,0.22325 0,0.33486 0.322461,0.52916 0.624251,0.52916 0.3514,0 0.731738,-0.24804 0.731738,-0.63252 v -1.83554 c 0,-0.12403 0.186036,-0.12403 0.297657,-0.12403 v -0.13642 c -0.161231,0 -0.314193,0.0124 -0.471289,0.0124 -0.231511,0 -0.463021,-0.0124 -0.694532,-0.0124 v 0.13642 c 0.111622,0 0.520899,0 0.520899,0.12403 v 1.81901 c 0,0.22324 -0.115755,0.5457 -0.384473,0.5457 -0.16123,0 -0.322461,-0.0703 -0.417545,-0.19844 z m 2.052588,-0.24391 c 0,0.38034 0.264583,0.50023 0.60358,0.50023 0.214974,0 0.388607,-0.13643 0.483692,-0.32246 v 0.32246 l 0.570508,-0.0413 v -0.13643 c -0.202572,0 -0.301791,0 -0.301791,-0.21497 v -1.35599 l -0.58291,0.0413 v 0.13642 c 0.202572,0 0.30179,0 0.30179,0.21498 v 0.6904 c 0,0.26044 -0.152962,0.56637 -0.450618,0.56637 -0.310059,0 -0.343132,-0.12816 -0.343132,-0.40101 v -1.2485 l -0.58291,0.0413 v 0.13642 c 0.202572,0 0.301791,0 0.301791,0.21498 z m 1.830379,0.45889 c 0.148828,0 0.289388,-0.0124 0.438216,-0.0124 0.169499,0 0.338998,0.0124 0.508496,0.0124 v -0.13643 c -0.107487,0 -0.37207,0 -0.37207,-0.12402 v -0.63252 c 0,-0.26872 0.09095,-0.7152 0.434082,-0.7152 0.0083,0 0.01654,0 0.0248,0 -0.04961,0.0331 -0.07441,0.091 -0.07441,0.14882 0,0.0951 0.07855,0.17364 0.173633,0.17364 0.09922,0 0.173633,-0.0786 0.173633,-0.17364 0,-0.15709 -0.152963,-0.24804 -0.297657,-0.24804 -0.235644,0 -0.380338,0.17363 -0.454752,0.3762 v -0.3762 l -0.553971,0.0413 v 0.13642 c 0.202571,0 0.30179,0 0.30179,0.21498 v 1.0542 c 0,0.12402 -0.190169,0.12402 -0.30179,0.12402 z m 1.567863,-0.38034 c 0,0.31832 0.367936,0.42168 0.624251,0.42168 0.214974,0 0.413412,-0.12403 0.508496,-0.3142 0.0124,0.15297 0.128158,0.29766 0.289388,0.29766 0.177767,0 0.330729,-0.1571 0.330729,-0.339 v -0.24804 H 72.99579 v 0.24804 c 0,0.0827 -0.03307,0.20258 -0.128157,0.20258 -0.09922,0 -0.132292,-0.11989 -0.132292,-0.20258 v -0.86816 c 0,-0.34727 -0.367936,-0.54984 -0.673861,-0.54984 -0.248047,0 -0.591178,0.10336 -0.591178,0.40101 0,0.10749 0.07855,0.18604 0.181901,0.18604 0.107487,0 0.186035,-0.0785 0.186035,-0.18604 0,-0.0909 -0.07028,-0.18603 -0.169499,-0.18603 0.103353,-0.0868 0.256315,-0.11576 0.392741,-0.11576 0.239779,0 0.392741,0.23565 0.392741,0.45889 v 0.15709 c -0.388607,0 -1.099674,0.13643 -1.099674,0.63666 z m 0.314192,0 c 0,-0.38861 0.458887,-0.54157 0.785482,-0.54157 v 0.40514 c 0,0.24805 -0.198437,0.45889 -0.450618,0.45889 -0.177767,0 -0.334864,-0.14056 -0.334864,-0.32246 z m 1.756999,1.02939 c 0.07441,-0.0248 0.124024,-0.0951 0.124024,-0.17363 0,-0.10335 -0.08268,-0.18604 -0.186035,-0.18604 -0.107488,0 -0.186036,0.0827 -0.186036,0.18604 0,0.22324 0.248047,0.31833 0.438217,0.31833 0.305924,0 0.549837,-0.27699 0.549837,-0.57878 v -1.92236 l -0.603581,0.0413 v 0.13642 c 0.206706,0 0.334863,0 0.334863,0.21498 v 1.51722 c 0,0.1695 -0.04547,0.48782 -0.272851,0.48782 -0.07028,0 -0.136426,-0.008 -0.198438,-0.0413 z m 0.314193,-3.02204 c 0,0.11576 0.09922,0.21084 0.214974,0.21084 0.115755,0 0.21084,-0.0951 0.21084,-0.21084 0,-0.11575 -0.09508,-0.21497 -0.21084,-0.21497 -0.115755,0 -0.214974,0.0992 -0.214974,0.21497 z m 0,0"
       style="fill:#000000;fill-opacity:1;fill-rule:nonzero;stroke:none;stroke-width:0.388056"
       aria-label="Juraj" />
    <path
       id="path76-61"
       d="m 79.706182,140.33418 h 0.579755 v -6.18561 h -0.579755 z"
       style="fill:#000000;fill-opacity:1;fill-rule:nonzero;stroke:none;stroke-width:0.388056" />
    <path
       id="path77-1"
       d="m 99.302988,140.33418 v -6.18561"
       style="fill:none;stroke:#000000;stroke-width:0.232057;stroke-linecap:butt;stroke-linejoin:miter;stroke-miterlimit:10;stroke-dasharray:none;stroke-opacity:1" />
    <path
       id="path78-6"
       d="m 118.43568,140.33418 v -6.18561"
       style="fill:none;stroke:#000000;stroke-width:0.232057;stroke-linecap:butt;stroke-linejoin:miter;stroke-miterlimit:10;stroke-dasharray:none;stroke-opacity:1" />
    <path
       id="path79-0"
       d="m 127.47309,138.24006 c 0,0 0.004,0 0.008,0 0.10335,0 0.1819,-0.0827 0.1819,-0.18604 0,-0.10335 -0.0785,-0.18603 -0.1819,-0.18603 -0.10749,0 -0.18604,0.0827 -0.18604,0.18603 0,0.31419 0.26872,0.43408 0.54157,0.43408 0.65319,0 0.96325,-0.77721 0.96325,-1.33532 0,-0.50436 -0.11989,-1.32705 -0.78135,-1.32705 -0.47956,0 -0.82269,0.40515 -0.82269,0.8723 0,0.44235 0.29352,0.86403 0.76481,0.86403 0.22738,0 0.39274,-0.1571 0.47543,-0.35553 0,0.27285 -0.004,0.56224 -0.12403,0.81028 -0.0909,0.1819 -0.26045,0.34727 -0.47542,0.34727 -0.12402,0 -0.28112,-0.0248 -0.3638,-0.12402 z m 0.50436,-0.77722 c -0.41755,0 -0.41755,-0.46302 -0.41755,-0.76481 0,-0.32659 0.0248,-0.76068 0.45889,-0.76068 0.35967,0 0.41341,0.47956 0.41341,0.74828 0,0.004 0,0.0124 0,0.0165 0,0.0248 0,0.0496 0,0.0703 0,0.28112 -0.11162,0.69039 -0.45475,0.69039 z m 0,0"
       style="fill:#000000;fill-opacity:1;fill-rule:nonzero;stroke:none;stroke-width:0.388056"
       aria-label="9" />
    <path
       id="path80-38"
       d="m 137.56837,140.33418 v -6.18561"
       style="fill:none;stroke:#000000;stroke-width:0.232057;stroke-linecap:butt;stroke-linejoin:miter;stroke-miterlimit:10;stroke-dasharray:none;stroke-opacity:1" />
    <path
       id="path81-5"
       d="m 145.56087,138.40129 c 0.21084,0 0.42168,-0.0124 0.63252,-0.0124 0.21497,0 0.42168,0.0124 0.63665,0.0124 v -0.13643 c -0.11162,0 -0.48369,0 -0.48369,-0.12402 v -2.2779 c 0,-0.0165 -0.0248,-0.0372 -0.0413,-0.0372 h -0.0537 c -0.18604,0.19017 -0.45476,0.24805 -0.71521,0.24805 v 0.13643 c 0.17777,0 0.35554,-0.0248 0.5085,-0.0992 v 2.02985 c 0,0.12402 -0.3762,0.12402 -0.48369,0.12402 z m 2.54145,0.0868 c 0.70693,0 0.81028,-0.77721 0.81028,-1.31878 0,-0.5457 -0.0992,-1.34359 -0.81028,-1.34359 -0.71521,0 -0.81856,0.79789 -0.81856,1.34359 0,0.54157 0.10749,1.31878 0.81856,1.31878 z m 0,-0.10335 c -0.47956,0 -0.47956,-0.91364 -0.47956,-1.27744 0,-0.35967 0,-1.17822 0.47956,-1.17822 0.47542,0 0.47542,0.81855 0.47542,1.17822 0,0.3638 0,1.27744 -0.47542,1.27744 z m 0,0"
       style="fill:#000000;fill-opacity:1;fill-rule:nonzero;stroke:none;stroke-width:0.388056"
       aria-label="10" />
    <path
       id="path82-2"
       d="m 156.58503,140.33418 h 0.57976 v -6.18561 h -0.57976 z"
       style="fill:#000000;fill-opacity:1;fill-rule:nonzero;stroke:none;stroke-width:0.388056" />
    <path
       id="path83-25"
       d="m 167.83651,138.30207 c 0,0.10335 0.0786,0.18603 0.18604,0.18603 0.10335,0 0.1819,-0.0827 0.1819,-0.18603 0,-0.51677 0,-1.09141 0.29766,-1.53376 l 0.5333,-0.74414 c 0,-0.004 0,-0.008 0,-0.0124 v -0.0992 h -0.7152 c -0.10749,0 -0.7028,0 -0.7028,-0.11162 v -0.0124 h -0.11162 l -0.12816,0.81028 h 0.11162 c 0.0207,-0.12402 0.0496,-0.29765 0.0992,-0.35553 0.0207,-0.0165 0.45475,-0.0165 0.70693,-0.0165 h 0.44235 l -0.35553,0.48783 c -0.33073,0.46302 -0.54571,1.01286 -0.54571,1.5875 z m 1.64435,0.79375 c 0,0.0248 0.0289,0.0537 0.0579,0.0537 0.004,0 0.0124,-0.004 0.0207,-0.004 0.2067,-0.20257 0.33073,-0.47129 0.33073,-0.76068 0,-0.16123 -0.0496,-0.40928 -0.25632,-0.40928 -0.11989,0 -0.21084,0.0951 -0.21084,0.21498 0,0.11989 0.0909,0.21084 0.21084,0.21084 0.0579,0 0.11162,-0.0207 0.15296,-0.062 0,0.0165 0,0.0331 0,0.0455 0,0.26045 -0.10748,0.50436 -0.29352,0.68213 -0.008,0.008 -0.0124,0.0165 -0.0124,0.0289 z m 1.02423,-1.13688 c 0,0 0.0331,0.008 0.0537,0.008 0.11575,0 0.20257,-0.0827 0.20257,-0.1943 0,-0.11575 -0.0868,-0.19844 -0.20257,-0.19844 -0.11162,0 -0.1943,0.0827 -0.1943,0.19844 0,0.38034 0.30179,0.7152 0.69039,0.7152 0.47129,0 0.85163,-0.39274 0.85163,-0.86403 0,-0.40927 -0.28112,-0.84749 -0.73174,-0.84749 -0.21911,0 -0.32246,0.062 -0.48782,0.1943 v -0.73174 c 0.10748,0.0289 0.21084,0.0455 0.31832,0.0455 0.28939,0 0.56638,-0.14056 0.74001,-0.37207 0.004,0 0.008,-0.0124 0.008,-0.0207 v -0.0331 c 0,-0.0165 -0.0165,-0.0331 -0.0331,-0.0331 -0.008,0 -0.008,0 -0.0124,0 -0.17363,0.0827 -0.3638,0.12403 -0.55397,0.12403 -0.19017,0 -0.38034,-0.0413 -0.54984,-0.12403 -0.008,0 -0.008,0 -0.0124,0 -0.0207,0 -0.0372,0.0165 -0.0372,0.0331 v 1.28984 c 0,0.0165 0.0207,0.0331 0.0372,0.0331 h 0.0413 c 0.0496,-0.008 0.15297,-0.30179 0.53744,-0.30179 0.18603,0 0.30179,0.1819 0.34313,0.339 0.0331,0.12816 0.0331,0.26872 0.0331,0.40101 0,0.32659 -0.0785,0.74414 -0.49196,0.74414 -0.24804,0 -0.47128,-0.1695 -0.54983,-0.40514 z m 0,0"
       style="fill:#000000;fill-opacity:1;fill-rule:nonzero;stroke:none;stroke-width:0.388056"
       aria-label="7,5" />
    <path
       id="path84-3"
       d="m 182.10124,140.33418 h 0.57976 v -6.18561 h -0.57976 z"
       style="fill:#000000;fill-opacity:1;fill-rule:nonzero;stroke:none;stroke-width:0.388056" />
    <path
       id="path85-6"
       d="M 59.795828,140.45021 H 182.68099"
       style="fill:none;stroke:#000000;stroke-width:0.232057;stroke-linecap:butt;stroke-linejoin:miter;stroke-miterlimit:10;stroke-dasharray:none;stroke-opacity:1" />
    <path
       id="path86-9"
       d="m 59.795828,146.75184 h 0.579755 v -6.18561 h -0.579755 z"
       style="fill:#000000;fill-opacity:1;fill-rule:nonzero;stroke:none;stroke-width:0.388056" />
    <path
       id="path87-5"
       d="m 64.485718,144.81847 c 0.152962,0 0.305924,-0.0124 0.458886,-0.0124 0.152962,0 0.305925,0.0124 0.458887,0.0124 v -0.13642 c -0.152962,0 -0.396875,-0.0207 -0.396875,-0.22738 v -2.11253 l 0.938444,2.43499 c 0.0124,0.0248 0.03721,0.0413 0.06615,0.0413 0.03307,0 0.05374,-0.0165 0.06615,-0.0413 l 0.950846,-2.46806 v 2.24895 c 0,0.12403 -0.285254,0.12403 -0.396875,0.12403 v 0.13642 c 0.186035,0 0.37207,-0.0124 0.56224,-0.0124 0.186035,0 0.37207,0.0124 0.562239,0.0124 v -0.13642 c -0.111621,0 -0.401009,0 -0.401009,-0.12403 v -2.1208 c 0,-0.12402 0.289388,-0.12402 0.401009,-0.12402 v -0.13643 h -0.731738 c -0.02894,0 -0.05374,0.0165 -0.06201,0.0455 l -0.843359,2.18695 -0.84336,-2.18695 c -0.0041,-0.0289 -0.03307,-0.0455 -0.06201,-0.0455 h -0.727604 v 0.13643 c 0.111621,0 0.396875,0 0.396875,0.12402 v 2.01745 c 0,0.20671 -0.243913,0.22738 -0.396875,0.22738 z m 3.527433,0 c 0.148828,0 0.289388,-0.0124 0.438216,-0.0124 0.132292,0 0.268717,0.0124 0.405143,0.0124 v -0.13642 c -0.111621,0 -0.272851,0 -0.272851,-0.12403 v -1.44694 l -0.553972,0.0413 v 0.13643 c 0.194304,0 0.285254,0 0.285254,0.21497 v 1.0542 c 0,0.12403 -0.190169,0.12403 -0.30179,0.12403 z m 0.16123,-2.37298 c 0,0.11576 0.09922,0.21084 0.214974,0.21084 0.115756,0 0.21084,-0.0951 0.21084,-0.21084 0,-0.11575 -0.09508,-0.21497 -0.21084,-0.21497 -0.115755,0 -0.214974,0.0992 -0.214974,0.21497 z m 1.755966,2.41432 c 0.314192,0 0.558105,-0.19017 0.640787,-0.49196 0,-0.008 0,-0.004 0,-0.0124 0,-0.0165 -0.01654,-0.0372 -0.02894,-0.0372 h -0.04961 c -0.0124,0 -0.02894,0.0124 -0.02894,0.0248 -0.06201,0.23564 -0.235644,0.40514 -0.487825,0.40514 -0.401009,0 -0.545703,-0.42994 -0.545703,-0.76481 0,-0.31419 0.103352,-0.78548 0.504362,-0.78548 0.124023,0 0.264583,0.0165 0.37207,0.0868 -0.08682,0.0165 -0.148828,0.0868 -0.148828,0.1819 0,0.10335 0.08268,0.18603 0.186035,0.18603 0.103353,0 0.186035,-0.0827 0.186035,-0.18603 0,-0.29766 -0.363802,-0.38034 -0.599446,-0.38034 -0.483692,0 -0.835092,0.43408 -0.835092,0.8971 0,0.46302 0.359669,0.87643 0.835092,0.87643 z m 0.762744,-0.0413 c 0.148828,0 0.293522,-0.0124 0.446484,-0.0124 0.144694,0 0.293522,0.0124 0.438216,0.0124 v -0.13642 c -0.111621,0 -0.30179,0 -0.30179,-0.12403 v -0.76067 c 0,-0.29353 0.202571,-0.58705 0.516764,-0.58705 0.248047,0 0.276986,0.23565 0.276986,0.43408 v 0.91364 c 0,0.12403 -0.190169,0.12403 -0.301791,0.12403 v 0.13642 c 0.148829,0 0.293523,-0.0124 0.446485,-0.0124 0.144694,0 0.293522,0.0124 0.438216,0.0124 v -0.13642 c -0.111621,0 -0.30179,0 -0.30179,-0.12403 v -0.92604 c 0,-0.35553 -0.186036,-0.5209 -0.537435,-0.5209 -0.235645,0 -0.44235,0.1447 -0.549838,0.35554 v -1.33119 l -0.570507,0.0413 v 0.13643 c 0.202571,0 0.30179,0 0.30179,0.21497 v 2.02985 c 0,0.12403 -0.190169,0.12403 -0.30179,0.12403 z m 2.184879,-0.38034 c 0,0.31833 0.367937,0.42168 0.624252,0.42168 0.214973,0 0.413411,-0.12402 0.508496,-0.31419 0.0124,0.15296 0.128157,0.29766 0.289388,0.29766 0.177767,0 0.330729,-0.1571 0.330729,-0.339 v -0.24805 h -0.111621 v 0.24805 c 0,0.0827 -0.03307,0.20257 -0.128158,0.20257 -0.09922,0 -0.132291,-0.11989 -0.132291,-0.20257 v -0.86816 c 0,-0.34727 -0.367937,-0.54984 -0.673861,-0.54984 -0.248047,0 -0.591178,0.10335 -0.591178,0.40101 0,0.10749 0.07855,0.18603 0.181901,0.18603 0.107486,0 0.186035,-0.0785 0.186035,-0.18603 0,-0.0909 -0.07028,-0.18604 -0.169499,-0.18604 0.103353,-0.0868 0.256315,-0.11575 0.392741,-0.11575 0.239779,0 0.392741,0.23564 0.392741,0.45888 v 0.1571 c -0.388607,0 -1.099675,0.13643 -1.099675,0.63665 z m 0.314193,0 c 0,-0.3886 0.458887,-0.54156 0.785482,-0.54156 v 0.40514 c 0,0.24805 -0.198438,0.45889 -0.450619,0.45889 -0.177767,0 -0.334863,-0.14056 -0.334863,-0.32247 z m 1.585433,0.38034 c 0.148828,0 0.289388,-0.0124 0.438216,-0.0124 0.144694,0 0.289388,0.0124 0.434082,0.0124 v -0.13642 c -0.111621,0 -0.30179,0 -0.30179,-0.12403 v -2.42259 l -0.570508,0.0413 v 0.13643 c 0.202572,0 0.30179,0 0.30179,0.21497 v 2.02985 c 0,0.12403 -0.190169,0.12403 -0.30179,0.12403 z m 0,0"
       style="fill:#000000;fill-opacity:1;fill-rule:nonzero;stroke:none;stroke-width:0.388056"
       aria-label="Michal" />
    <path
       id="path88-1"
       d="m 79.706182,146.75184 h 0.579755 v -6.18561 h -0.579755 z"
       style="fill:#000000;fill-opacity:1;fill-rule:nonzero;stroke:none;stroke-width:0.388056" />
    <path
       id="path89-62"
       d="m 99.302988,146.75184 v -6.18561"
       style="fill:none;stroke:#000000;stroke-width:0.232057;stroke-linecap:butt;stroke-linejoin:miter;stroke-miterlimit:10;stroke-dasharray:none;stroke-opacity:1" />
    <path
       id="path90-6"
       d="m 118.43568,146.75184 v -6.18561"
       style="fill:none;stroke:#000000;stroke-width:0.232057;stroke-linecap:butt;stroke-linejoin:miter;stroke-miterlimit:10;stroke-dasharray:none;stroke-opacity:1" />
    <path
       id="path91-7"
       d="m 127.36974,144.37612 c 0,0 0.0331,0.008 0.0537,0.008 0.11575,0 0.20257,-0.0827 0.20257,-0.1943 0,-0.11576 -0.0868,-0.19844 -0.20257,-0.19844 -0.11162,0 -0.1943,0.0827 -0.1943,0.19844 0,0.38034 0.30179,0.7152 0.69039,0.7152 0.47129,0 0.85163,-0.39274 0.85163,-0.86403 0,-0.40928 -0.28112,-0.84749 -0.73174,-0.84749 -0.21911,0 -0.32246,0.062 -0.48782,0.1943 v -0.73174 c 0.10748,0.0289 0.21084,0.0455 0.31832,0.0455 0.28939,0 0.56638,-0.14056 0.74001,-0.37207 0.004,0 0.008,-0.0124 0.008,-0.0207 v -0.0331 c 0,-0.0165 -0.0165,-0.0331 -0.0331,-0.0331 -0.008,0 -0.008,0 -0.0124,0 -0.17363,0.0827 -0.3638,0.12402 -0.55397,0.12402 -0.19017,0 -0.38034,-0.0413 -0.54984,-0.12402 -0.008,0 -0.008,0 -0.0124,0 -0.0207,0 -0.0372,0.0165 -0.0372,0.0331 v 1.28985 c 0,0.0165 0.0207,0.0331 0.0372,0.0331 h 0.0413 c 0.0496,-0.008 0.15297,-0.30179 0.53744,-0.30179 0.18603,0 0.30179,0.1819 0.34313,0.339 0.0331,0.12815 0.0331,0.26871 0.0331,0.40101 0,0.32659 -0.0786,0.74414 -0.49196,0.74414 -0.24804,0 -0.47129,-0.1695 -0.54983,-0.40515 z m 0,0"
       style="fill:#000000;fill-opacity:1;fill-rule:nonzero;stroke:none;stroke-width:0.388056"
       aria-label="5" />
    <path
       id="path92-0"
       d="m 137.56837,146.75184 v -6.18561"
       style="fill:none;stroke:#000000;stroke-width:0.232057;stroke-linecap:butt;stroke-linejoin:miter;stroke-miterlimit:10;stroke-dasharray:none;stroke-opacity:1" />
    <path
       id="path93-4"
       d="m 156.58503,146.75184 h 0.57976 v -6.18561 h -0.57976 z"
       style="fill:#000000;fill-opacity:1;fill-rule:nonzero;stroke:none;stroke-width:0.388056" />
    <path
       id="path94-2"
       d="m 168.82767,144.23143 c 0,0.42581 0.41755,0.67386 0.80615,0.67386 0.41342,0 0.79789,-0.30592 0.79789,-0.74414 0,-0.24391 -0.13229,-0.47129 -0.339,-0.60358 l -0.21911,-0.14056 c 0.23151,-0.11989 0.45476,-0.31419 0.45476,-0.59118 0,-0.37207 -0.36794,-0.58291 -0.69454,-0.58291 -0.36793,0 -0.69866,0.27699 -0.69866,0.65319 0,0.21497 0.11575,0.41755 0.29765,0.5333 l 0.14056,0.0951 c -0.28112,0.13642 -0.5457,0.37207 -0.5457,0.70693 z m 0.21084,0 c 0,-0.28112 0.19844,-0.51263 0.43822,-0.64079 l 0.5209,0.33486 c 0.12815,0.0827 0.22737,0.21498 0.22737,0.37621 0,0.31006 -0.31832,0.47956 -0.59118,0.47956 -0.30592,0 -0.59531,-0.23151 -0.59531,-0.54984 z m 0.26458,-1.17822 c -0.10335,-0.0703 -0.18603,-0.17777 -0.18603,-0.30593 0,-0.26045 0.28939,-0.39274 0.51263,-0.39274 0.26045,0 0.51263,0.1943 0.51263,0.47129 0,0.23564 -0.17777,0.41755 -0.37207,0.52917 z m 0,0"
       style="fill:#000000;fill-opacity:1;fill-rule:nonzero;stroke:none;stroke-width:0.388056"
       aria-label="8" />
    <path
       id="path95-2"
       d="m 182.10124,146.75184 h 0.57976 v -6.18561 h -0.57976 z"
       style="fill:#000000;fill-opacity:1;fill-rule:nonzero;stroke:none;stroke-width:0.388056" />
    <path
       id="path96-5"
       d="M 59.795828,146.86787 H 182.68099"
       style="fill:none;stroke:#000000;stroke-width:0.232057;stroke-linecap:butt;stroke-linejoin:miter;stroke-miterlimit:10;stroke-dasharray:none;stroke-opacity:1" />
    <path
       id="path97-4"
       d="m 59.795828,153.1695 h 0.579755 v -6.18561 h -0.579755 z"
       style="fill:#000000;fill-opacity:1;fill-rule:nonzero;stroke:none;stroke-width:0.388056" />
    <path
       id="path98-8"
       d="m 65.147174,151.23668 h 1.839681 l 0.06615,-1.04593 H 66.93725 c -0.0124,0.25632 -0.03307,0.54157 -0.202572,0.7152 -0.169499,0.16537 -0.42168,0.18191 -0.644922,0.18191 h -0.570508 l 1.504818,-2.37712 c 0.0041,-0.008 0.0041,-0.0165 0.0041,-0.0248 v -0.0455 c 0,-0.0248 -0.02067,-0.0455 -0.04134,-0.0455 h -1.790072 l -0.04134,0.88884 h 0.111621 c 0,-0.56224 0.276986,-0.75241 0.802019,-0.75241 h 0.545703 l -1.504818,2.38538 c -0.0083,0.008 -0.0083,0.0165 -0.0083,0.0248 v 0.0537 c 0,0.0207 0.02067,0.0413 0.04548,0.0413 z m 3.044775,0.0413 c 0.198438,0 0.388607,-0.0909 0.516765,-0.24391 v 0.24391 l 0.587044,-0.0413 v -0.13642 c -0.202572,0 -0.301791,0 -0.301791,-0.21498 v -2.33164 l -0.574641,0.0413 v 0.13643 c 0.202571,0 0.30179,0 0.30179,0.21497 v 0.80616 c -0.124023,-0.14056 -0.30179,-0.22325 -0.487825,-0.22325 -0.479558,0 -0.855762,0.40101 -0.855762,0.8723 0,0.45475 0.338997,0.87643 0.81442,0.87643 z m -0.39274,-0.3762 c -0.07855,-0.1571 -0.08682,-0.33073 -0.08682,-0.49609 0,-0.3514 0.111621,-0.77722 0.545703,-0.77722 0.198438,0 0.363802,0.11989 0.450619,0.28939 v 0.93018 c -0.08682,0.19017 -0.276986,0.33073 -0.49196,0.33073 -0.181901,0 -0.338997,-0.11989 -0.417545,-0.27699 z m 2.561083,0.3762 c 0.301791,0 0.566374,-0.2067 0.640788,-0.49609 0,-0.0248 -0.0124,-0.0496 -0.03721,-0.0496 h -0.03721 c -0.01653,0 -0.03307,0.0165 -0.03721,0.0331 -0.05788,0.22325 -0.260449,0.40101 -0.496094,0.40101 -0.429947,0 -0.549837,-0.42168 -0.549837,-0.78134 0,-0.0124 0,-0.0248 0,-0.0414 h 1.120345 c 0.02481,0 0.03721,-0.0289 0.03721,-0.0496 0,-0.44235 -0.219108,-0.78961 -0.694531,-0.78961 -0.471289,0 -0.802019,0.43822 -0.802019,0.8847 0,0.47129 0.372071,0.88883 0.855762,0.88883 z m -0.516764,-1.02939 c 0,-0.26872 0.144694,-0.64492 0.463021,-0.64492 0.326595,0 0.42168,0.38034 0.42168,0.64492 z m 1.386996,0.98805 c 0.148828,0 0.293522,-0.0124 0.446484,-0.0124 0.144694,0 0.293522,0.0124 0.438216,0.0124 v -0.13642 c -0.111621,0 -0.30179,0 -0.30179,-0.12403 v -0.76067 c 0,-0.29353 0.202571,-0.58705 0.516764,-0.58705 0.248047,0 0.276986,0.23565 0.276986,0.43408 v 0.91364 c 0,0.12403 -0.19017,0.12403 -0.301791,0.12403 v 0.13642 c 0.148829,0 0.293523,-0.0124 0.446485,-0.0124 0.144694,0 0.293522,0.0124 0.438216,0.0124 v -0.13642 c -0.111621,0 -0.30179,0 -0.30179,-0.12403 v -0.92604 c 0,-0.35553 -0.186036,-0.5209 -0.537435,-0.5209 -0.248047,0 -0.458887,0.1571 -0.558106,0.37621 v -0.37621 l -0.562239,0.0413 v 0.13642 c 0.202571,0 0.30179,0 0.30179,0.21497 v 1.0542 c 0,0.12403 -0.190169,0.12403 -0.30179,0.12403 z m 2.9993,0.0413 c 0.471289,0 0.851627,-0.39274 0.851627,-0.86403 0,-0.47542 -0.363802,-0.9095 -0.851627,-0.9095 -0.496094,0 -0.859896,0.43408 -0.859896,0.9095 0,0.47129 0.384473,0.86403 0.859896,0.86403 z m 0,-0.11162 c -0.463021,0 -0.520899,-0.44235 -0.520899,-0.79375 0,-0.1943 0,-0.39274 0.111622,-0.55397 0.09095,-0.13229 0.243912,-0.21497 0.409277,-0.21497 0.157096,0 0.310059,0.0827 0.405143,0.21497 0.107487,0.16123 0.111621,0.35967 0.111621,0.55397 0,0.3514 -0.05788,0.79375 -0.516764,0.79375 z m 0,0"
       style="fill:#000000;fill-opacity:1;fill-rule:nonzero;stroke:none;stroke-width:0.388056"
       aria-label="Zdeno" />
    <path
       id="path99-7"
       d="m 79.706182,153.1695 h 0.579755 v -6.18561 h -0.579755 z"
       style="fill:#000000;fill-opacity:1;fill-rule:nonzero;stroke:none;stroke-width:0.388056" />
    <path
       id="path100-8"
       d="m 99.302988,153.1695 v -6.18561"
       style="fill:none;stroke:#000000;stroke-width:0.232057;stroke-linecap:butt;stroke-linejoin:miter;stroke-miterlimit:10;stroke-dasharray:none;stroke-opacity:1" />
    <path
       id="path101-0"
       d="m 118.43568,153.1695 v -6.18561"
       style="fill:none;stroke:#000000;stroke-width:0.232057;stroke-linecap:butt;stroke-linejoin:miter;stroke-miterlimit:10;stroke-dasharray:none;stroke-opacity:1" />
    <path
       id="path102-3"
       d="m 137.56837,153.1695 v -6.18561"
       style="fill:none;stroke:#000000;stroke-width:0.232057;stroke-linecap:butt;stroke-linejoin:miter;stroke-miterlimit:10;stroke-dasharray:none;stroke-opacity:1" />
    <path
       id="path103-3"
       d="m 156.58503,153.1695 h 0.57976 v -6.18561 h -0.57976 z"
       style="fill:#000000;fill-opacity:1;fill-rule:nonzero;stroke:none;stroke-width:0.388056" />
    <path
       id="path104-4"
       d="m 167.32388,150.64964 c 0,0.42581 0.41755,0.67386 0.80616,0.67386 0.41341,0 0.79788,-0.30592 0.79788,-0.74414 0,-0.24391 -0.13229,-0.47129 -0.339,-0.60358 l -0.2191,-0.14056 c 0.23151,-0.11989 0.45475,-0.31419 0.45475,-0.59118 0,-0.37207 -0.36794,-0.58291 -0.69453,-0.58291 -0.36794,0 -0.69867,0.27699 -0.69867,0.65319 0,0.21497 0.11576,0.41755 0.29766,0.5333 l 0.14056,0.0951 c -0.28112,0.13642 -0.54571,0.37207 -0.54571,0.70693 z m 0.21084,0 c 0,-0.28112 0.19844,-0.51263 0.43822,-0.64079 l 0.5209,0.33486 c 0.12816,0.0827 0.22738,0.21498 0.22738,0.37621 0,0.31006 -0.31833,0.47956 -0.59118,0.47956 -0.30593,0 -0.59532,-0.23151 -0.59532,-0.54984 z m 0.26459,-1.17822 c -0.10336,-0.0703 -0.18604,-0.17777 -0.18604,-0.30593 0,-0.26045 0.28939,-0.39274 0.51263,-0.39274 0.26045,0 0.51263,0.1943 0.51263,0.47129 0,0.23564 -0.17776,0.41755 -0.37207,0.52917 z m 1.68155,2.45979 c 0,0.0248 0.0289,0.0538 0.0579,0.0538 0.004,0 0.0124,-0.004 0.0207,-0.004 0.2067,-0.20257 0.33073,-0.47129 0.33073,-0.76067 0,-0.16123 -0.0496,-0.40928 -0.25632,-0.40928 -0.11989,0 -0.21084,0.0951 -0.21084,0.21497 0,0.11989 0.0909,0.21084 0.21084,0.21084 0.0579,0 0.11162,-0.0207 0.15296,-0.062 0,0.0165 0,0.0331 0,0.0455 0,0.26045 -0.10748,0.50436 -0.29352,0.68213 -0.008,0.008 -0.0124,0.0165 -0.0124,0.0289 z m 1.02423,-1.13688 c 0,0 0.0331,0.008 0.0537,0.008 0.11575,0 0.20257,-0.0827 0.20257,-0.1943 0,-0.11576 -0.0868,-0.19844 -0.20257,-0.19844 -0.11162,0 -0.1943,0.0827 -0.1943,0.19844 0,0.38034 0.30179,0.7152 0.69039,0.7152 0.47129,0 0.85163,-0.39274 0.85163,-0.86403 0,-0.40928 -0.28112,-0.84749 -0.73174,-0.84749 -0.21911,0 -0.32246,0.062 -0.48782,0.1943 v -0.73174 c 0.10748,0.0289 0.21084,0.0455 0.31832,0.0455 0.28939,0 0.56638,-0.14056 0.74001,-0.37207 0.004,0 0.008,-0.0124 0.008,-0.0207 v -0.0331 c 0,-0.0165 -0.0165,-0.0331 -0.0331,-0.0331 -0.008,0 -0.008,0 -0.0124,0 -0.17363,0.0827 -0.3638,0.12402 -0.55397,0.12402 -0.19017,0 -0.38034,-0.0413 -0.54984,-0.12402 -0.008,0 -0.008,0 -0.0124,0 -0.0207,0 -0.0372,0.0165 -0.0372,0.0331 v 1.28985 c 0,0.0165 0.0207,0.0331 0.0372,0.0331 h 0.0413 c 0.0496,-0.008 0.15297,-0.30179 0.53744,-0.30179 0.18603,0 0.30179,0.1819 0.34313,0.339 0.0331,0.12815 0.0331,0.26871 0.0331,0.40101 0,0.32659 -0.0785,0.74414 -0.49196,0.74414 -0.24804,0 -0.47128,-0.1695 -0.54983,-0.40515 z m 0,0"
       style="fill:#000000;fill-opacity:1;fill-rule:nonzero;stroke:none;stroke-width:0.388056"
       aria-label="8,5" />
    <path
       id="path105-96"
       d="m 182.10124,153.1695 h 0.57976 v -6.18561 h -0.57976 z"
       style="fill:#000000;fill-opacity:1;fill-rule:nonzero;stroke:none;stroke-width:0.388056" />
    <path
       id="path106-1"
       d="M 59.795828,153.74926 H 182.68099 V 153.1695 H 59.795828 Z"
       style="fill:#000000;fill-opacity:1;fill-rule:nonzero;stroke:none;stroke-width:0.388056" />
    <path
       id="path107-3"
       d="m 59.795828,159.93486 h 0.579755 v -6.18561 h -0.579755 z"
       style="fill:#000000;fill-opacity:1;fill-rule:nonzero;stroke:none;stroke-width:0.388056" />
    <path
       id="path108-3"
       d="m 65.205053,158.0435 c 0.314193,0 0.558105,-0.19017 0.640788,-0.49196 0,-0.008 0,-0.004 0,-0.0124 0,-0.0165 -0.01654,-0.0372 -0.02894,-0.0372 h -0.04961 c -0.0124,0 -0.02894,0.0124 -0.02894,0.0248 -0.06201,0.23564 -0.235645,0.40514 -0.487826,0.40514 -0.401009,0 -0.545703,-0.42995 -0.545703,-0.76481 0,-0.31419 0.103353,-0.78548 0.504362,-0.78548 0.124023,0 0.264583,0.0165 0.37207,0.0868 -0.08682,0.0165 -0.148828,0.0868 -0.148828,0.18191 0,0.10335 0.08268,0.18603 0.186035,0.18603 0.103353,0 0.186035,-0.0827 0.186035,-0.18603 0,-0.29766 -0.363802,-0.38034 -0.599446,-0.38034 -0.483692,0 -0.835091,0.43408 -0.835091,0.8971 0,0.46302 0.359668,0.87643 0.835091,0.87643 z m 1.717725,0 c 0.30179,0 0.566373,-0.2067 0.640787,-0.49609 0,-0.0248 -0.0124,-0.0496 -0.03721,-0.0496 h -0.03721 c -0.01654,0 -0.03307,0.0165 -0.03721,0.0331 -0.05788,0.22324 -0.260449,0.40101 -0.496094,0.40101 -0.429948,0 -0.549837,-0.42168 -0.549837,-0.78135 0,-0.0124 0,-0.0248 0,-0.0413 h 1.120345 c 0.0248,0 0.03721,-0.0289 0.03721,-0.0496 0,-0.44235 -0.219108,-0.78961 -0.694531,-0.78961 -0.471289,0 -0.802018,0.43821 -0.802018,0.8847 0,0.47129 0.37207,0.88883 0.855762,0.88883 z m -0.516765,-1.02939 c 0,-0.26872 0.144694,-0.64492 0.463021,-0.64492 0.326595,0 0.42168,0.38033 0.42168,0.64492 z m 1.392163,0.98805 c 0.148828,0 0.289388,-0.0124 0.438216,-0.0124 0.144695,0 0.289389,0.0124 0.434082,0.0124 v -0.13642 c -0.111621,0 -0.30179,0 -0.30179,-0.12403 v -2.42259 l -0.570508,0.0413 v 0.13643 c 0.202572,0 0.301791,0 0.301791,0.21497 v 2.02985 c 0,0.12403 -0.19017,0.12403 -0.301791,0.12403 z m 1.053166,0 c 0.144694,0 0.285254,-0.0124 0.434082,-0.0124 0.144694,0 0.285254,0.0124 0.429948,0.0124 v -0.13642 c -0.111621,0 -0.301791,0 -0.301791,-0.12403 v -0.42581 l 0.235645,-0.20671 0.372071,0.52917 c 0.03307,0.0413 0.07028,0.0951 0.07028,0.14883 0,0.0661 -0.07855,0.0785 -0.132292,0.0785 v 0.13642 c 0.140559,0 0.289388,-0.0124 0.438216,-0.0124 0.111621,0 0.223242,0.0124 0.330729,0.0124 v -0.13642 c -0.223242,0 -0.276986,-0.0496 -0.401009,-0.22738 l -0.487825,-0.69867 0.272851,-0.23977 c 0.148828,-0.12816 0.326595,-0.22738 0.525033,-0.22738 v -0.13643 c -0.08268,0 -0.165365,0.0124 -0.248047,0.0124 -0.161231,0 -0.318327,-0.0124 -0.479558,-0.0124 v 0.13643 c 0.05788,0 0.111622,0.0289 0.111622,0.0909 0,0.0579 -0.04134,0.0992 -0.07855,0.13643 l -0.516764,0.45475 v -1.83555 l -0.574642,0.0413 v 0.13643 c 0.202572,0 0.30179,0 0.30179,0.21497 v 2.02985 c 0,0.12403 -0.190169,0.12403 -0.30179,0.12403 z m 2.799829,0.0413 c 0.471289,0 0.851628,-0.39274 0.851628,-0.86403 0,-0.47542 -0.363803,-0.9095 -0.851628,-0.9095 -0.496094,0 -0.859896,0.43408 -0.859896,0.9095 0,0.47129 0.384473,0.86403 0.859896,0.86403 z m 0,-0.11162 c -0.463021,0 -0.520898,-0.44235 -0.520898,-0.79375 0,-0.1943 0,-0.39274 0.111621,-0.55397 0.09095,-0.13229 0.243913,-0.21497 0.409277,-0.21497 0.157097,0 0.310059,0.0827 0.405143,0.21497 0.107487,0.16123 0.111621,0.35967 0.111621,0.55397 0,0.3514 -0.05788,0.79375 -0.516764,0.79375 z m 1.082105,0.0703 c 0.148828,0 0.293522,-0.0124 0.446484,-0.0124 0.144694,0 0.293522,0.0124 0.438216,0.0124 v -0.13642 c -0.111621,0 -0.30179,0 -0.30179,-0.12403 v -0.76068 c 0,-0.29352 0.202572,-0.58704 0.516764,-0.58704 0.248047,0 0.276986,0.23565 0.276986,0.43408 v 0.91364 c 0,0.12403 -0.19017,0.12403 -0.301791,0.12403 v 0.13642 c 0.148829,0 0.293522,-0.0124 0.446485,-0.0124 0.144694,0 0.293522,0.0124 0.438216,0.0124 v -0.13642 c -0.111621,0 -0.30179,0 -0.30179,-0.12403 v -0.76068 c 0,-0.29352 0.202571,-0.58704 0.516764,-0.58704 0.248047,0 0.276986,0.23565 0.276986,0.43408 v 0.91364 c 0,0.12403 -0.19017,0.12403 -0.301791,0.12403 v 0.13642 c 0.144694,0 0.293522,-0.0124 0.44235,-0.0124 0.148829,0 0.293522,0.0124 0.442351,0.0124 v -0.13642 c -0.111621,0 -0.301791,0 -0.301791,-0.12403 v -0.92604 c 0,-0.35553 -0.186035,-0.5209 -0.537435,-0.5209 -0.235644,0 -0.450618,0.1447 -0.553971,0.3638 -0.05788,-0.27698 -0.264583,-0.3638 -0.520898,-0.3638 -0.248047,0 -0.458887,0.1571 -0.558106,0.37621 v -0.37621 l -0.562239,0.0413 v 0.13643 c 0.202571,0 0.30179,0 0.30179,0.21497 v 1.0542 c 0,0.12403 -0.190169,0.12403 -0.30179,0.12403 z m 0,0"
       style="fill:#000000;fill-opacity:1;fill-rule:nonzero;stroke:none;stroke-width:0.388056"
       aria-label="celkom" />
    <path
       id="path109-92"
       d="m 79.706182,159.93486 h 0.579755 v -6.18561 h -0.579755 z"
       style="fill:#000000;fill-opacity:1;fill-rule:nonzero;stroke:none;stroke-width:0.388056" />
    <path
       id="path110-1"
       d="m 88.171093,157.7045 c 0.0041,0 0.0124,0 0.01654,0 0.128158,0 0.227377,-0.0951 0.227377,-0.22324 0,-0.12815 -0.09922,-0.22324 -0.227377,-0.22324 -0.124023,0 -0.223242,0.0951 -0.223242,0.22324 0,0.40515 0.425814,0.60772 0.777214,0.60772 0.421679,0 0.826822,-0.31006 0.826822,-0.75655 0,-0.35966 -0.314192,-0.62011 -0.65319,-0.68212 0.301791,-0.0992 0.549838,-0.35967 0.549838,-0.6904 0,-0.35967 -0.417546,-0.5333 -0.72347,-0.5333 -0.310059,0 -0.669727,0.18603 -0.669727,0.53743 0,0.11576 0.08682,0.20671 0.202572,0.20671 0.115755,0 0.206705,-0.0909 0.206705,-0.20671 0,-0.11575 -0.09095,-0.20257 -0.206705,-0.20257 -0.0083,0 -0.02067,0.004 -0.02481,0.004 0.107487,-0.16124 0.310058,-0.22738 0.491959,-0.22738 0.252181,0 0.3514,0.19844 0.3514,0.42168 0,0.23151 -0.103353,0.63252 -0.396875,0.63252 l -0.21084,0.0124 c -0.02067,0 -0.03721,0.0165 -0.03721,0.0331 v 0.0331 c 0,0.0207 0.01654,0.0372 0.03721,0.0372 h 0.252181 c 0.334864,0 0.417546,0.36794 0.417546,0.62839 0,0.26045 -0.07855,0.62838 -0.413412,0.62838 -0.21084,0 -0.446484,-0.0785 -0.570507,-0.26045 z m 1.759066,0.29766 h 1.434537 l 0.107487,-0.68626 h -0.111621 c -0.02067,0.11989 -0.04961,0.30179 -0.09508,0.35553 -0.02067,0.0165 -0.42168,0.0165 -0.653191,0.0165 h -0.37207 l 0.438216,-0.42168 c 0.314193,-0.30179 0.79375,-0.59531 0.79375,-1.07901 0,-0.47128 -0.384472,-0.76067 -0.822689,-0.76067 -0.39274,0 -0.719335,0.31006 -0.719335,0.7028 0,0.11989 0.09095,0.21497 0.210839,0.21497 0.115756,0 0.21084,-0.0951 0.21084,-0.21497 0,-0.11989 -0.09508,-0.20671 -0.21084,-0.20671 -0.01654,0 -0.02481,0 -0.04134,0.004 0.07441,-0.21084 0.264584,-0.36381 0.49196,-0.36381 0.343131,0 0.51263,0.31006 0.51263,0.62425 0,0.41342 -0.310059,0.74001 -0.566374,1.02527 l -0.599446,0.66559 c -0.0041,0.004 -0.0083,0.0165 -0.0083,0.0207 z m 0,0"
       style="fill:#000000;fill-opacity:1;fill-rule:nonzero;stroke:none;stroke-width:0.388056"
       aria-label="32" />
    <path
       id="path111-90"
       d="m 99.302988,159.93486 v -6.18561"
       style="fill:none;stroke:#000000;stroke-width:0.232057;stroke-linecap:butt;stroke-linejoin:miter;stroke-miterlimit:10;stroke-dasharray:none;stroke-opacity:1" />
    <path
       id="path112-3"
       d="m 107.30377,157.7045 c 0.004,0 0.0124,0 0.0165,0 0.12816,0 0.22738,-0.0951 0.22738,-0.22324 0,-0.12815 -0.0992,-0.22324 -0.22738,-0.22324 -0.12402,0 -0.22324,0.0951 -0.22324,0.22324 0,0.40515 0.42581,0.60772 0.77721,0.60772 0.42168,0 0.82682,-0.31006 0.82682,-0.75655 0,-0.35966 -0.31419,-0.62011 -0.65319,-0.68212 0.30179,-0.0992 0.54984,-0.35967 0.54984,-0.6904 0,-0.35967 -0.41754,-0.5333 -0.72347,-0.5333 -0.31006,0 -0.66972,0.18603 -0.66972,0.53743 0,0.11576 0.0868,0.20671 0.20257,0.20671 0.11575,0 0.2067,-0.0909 0.2067,-0.20671 0,-0.11575 -0.0909,-0.20257 -0.2067,-0.20257 -0.008,0 -0.0207,0.004 -0.0248,0.004 0.10749,-0.16124 0.31006,-0.22738 0.49196,-0.22738 0.25218,0 0.3514,0.19844 0.3514,0.42168 0,0.23151 -0.10335,0.63252 -0.39687,0.63252 l -0.21084,0.0124 c -0.0207,0 -0.0372,0.0165 -0.0372,0.0331 v 0.0331 c 0,0.0207 0.0165,0.0372 0.0372,0.0372 h 0.25218 c 0.33486,0 0.41754,0.36794 0.41754,0.62839 0,0.26045 -0.0785,0.62838 -0.41341,0.62838 -0.21084,0 -0.44648,-0.0785 -0.57051,-0.26045 z m 1.7601,0.29766 h 1.43454 l 0.10749,-0.68626 h -0.11162 c -0.0207,0.11989 -0.0496,0.30179 -0.0951,0.35553 -0.0207,0.0165 -0.42168,0.0165 -0.65319,0.0165 h -0.37207 l 0.43822,-0.42168 c 0.31419,-0.30179 0.79375,-0.59531 0.79375,-1.07901 0,-0.47128 -0.38447,-0.76067 -0.82269,-0.76067 -0.39274,0 -0.71934,0.31006 -0.71934,0.7028 0,0.11989 0.091,0.21497 0.21084,0.21497 0.11576,0 0.21084,-0.0951 0.21084,-0.21497 0,-0.11989 -0.0951,-0.20671 -0.21084,-0.20671 -0.0165,0 -0.0248,0 -0.0413,0.004 0.0744,-0.21084 0.26459,-0.36381 0.49196,-0.36381 0.34313,0 0.51263,0.31006 0.51263,0.62425 0,0.41342 -0.31006,0.74001 -0.56637,1.02527 l -0.59945,0.66559 c -0.004,0.004 -0.008,0.0165 -0.008,0.0207 z m 0,0"
       style="fill:#000000;fill-opacity:1;fill-rule:nonzero;stroke:none;stroke-width:0.388056"
       aria-label="32" />
    <path
       id="path113-1"
       d="m 118.43568,159.93486 v -6.18561"
       style="fill:none;stroke:#000000;stroke-width:0.232057;stroke-linecap:butt;stroke-linejoin:miter;stroke-miterlimit:10;stroke-dasharray:none;stroke-opacity:1" />
    <path
       id="path114-6"
       d="m 126.43646,157.7045 c 0.004,0 0.0124,0 0.0165,0 0.12816,0 0.22738,-0.0951 0.22738,-0.22324 0,-0.12815 -0.0992,-0.22324 -0.22738,-0.22324 -0.12402,0 -0.22324,0.0951 -0.22324,0.22324 0,0.40515 0.42581,0.60772 0.77721,0.60772 0.42168,0 0.82683,-0.31006 0.82683,-0.75655 0,-0.35966 -0.3142,-0.62011 -0.65319,-0.68212 0.30179,-0.0992 0.54983,-0.35967 0.54983,-0.6904 0,-0.35967 -0.41754,-0.5333 -0.72347,-0.5333 -0.31006,0 -0.66972,0.18603 -0.66972,0.53743 0,0.11576 0.0868,0.20671 0.20257,0.20671 0.11575,0 0.2067,-0.0909 0.2067,-0.20671 0,-0.11575 -0.091,-0.20257 -0.2067,-0.20257 -0.008,0 -0.0207,0.004 -0.0248,0.004 0.10749,-0.16124 0.31006,-0.22738 0.49196,-0.22738 0.25218,0 0.3514,0.19844 0.3514,0.42168 0,0.23151 -0.10335,0.63252 -0.39687,0.63252 l -0.21084,0.0124 c -0.0207,0 -0.0372,0.0165 -0.0372,0.0331 v 0.0331 c 0,0.0207 0.0165,0.0372 0.0372,0.0372 h 0.25218 c 0.33486,0 0.41754,0.36794 0.41754,0.62839 0,0.26045 -0.0785,0.62838 -0.41341,0.62838 -0.21084,0 -0.44648,-0.0785 -0.5705,-0.26045 z m 1.76009,0.29766 h 1.43454 l 0.10749,-0.68626 h -0.11162 c -0.0207,0.11989 -0.0496,0.30179 -0.0951,0.35553 -0.0207,0.0165 -0.42168,0.0165 -0.65319,0.0165 h -0.37207 l 0.43822,-0.42168 c 0.31419,-0.30179 0.79375,-0.59531 0.79375,-1.07901 0,-0.47128 -0.38447,-0.76067 -0.82269,-0.76067 -0.39274,0 -0.71934,0.31006 -0.71934,0.7028 0,0.11989 0.0909,0.21497 0.21084,0.21497 0.11576,0 0.21084,-0.0951 0.21084,-0.21497 0,-0.11989 -0.0951,-0.20671 -0.21084,-0.20671 -0.0165,0 -0.0248,0 -0.0413,0.004 0.0744,-0.21084 0.26459,-0.36381 0.49196,-0.36381 0.34313,0 0.51263,0.31006 0.51263,0.62425 0,0.41342 -0.31006,0.74001 -0.56637,1.02527 l -0.59945,0.66559 c -0.004,0.004 -0.008,0.0165 -0.008,0.0207 z m 0,0"
       style="fill:#000000;fill-opacity:1;fill-rule:nonzero;stroke:none;stroke-width:0.388056"
       aria-label="32" />
    <path
       id="path115-5"
       d="m 137.56837,159.93486 v -6.18561"
       style="fill:none;stroke:#000000;stroke-width:0.232057;stroke-linecap:butt;stroke-linejoin:miter;stroke-miterlimit:10;stroke-dasharray:none;stroke-opacity:1" />
    <path
       id="path116-3"
       d="m 145.56914,157.7045 c 0.004,0 0.0124,0 0.0165,0 0.12816,0 0.22738,-0.0951 0.22738,-0.22324 0,-0.12815 -0.0992,-0.22324 -0.22738,-0.22324 -0.12402,0 -0.22324,0.0951 -0.22324,0.22324 0,0.40515 0.42581,0.60772 0.77721,0.60772 0.42168,0 0.82683,-0.31006 0.82683,-0.75655 0,-0.35966 -0.3142,-0.62011 -0.65319,-0.68212 0.30179,-0.0992 0.54983,-0.35967 0.54983,-0.6904 0,-0.35967 -0.41754,-0.5333 -0.72347,-0.5333 -0.31005,0 -0.66972,0.18603 -0.66972,0.53743 0,0.11576 0.0868,0.20671 0.20257,0.20671 0.11575,0 0.2067,-0.0909 0.2067,-0.20671 0,-0.11575 -0.0909,-0.20257 -0.2067,-0.20257 -0.008,0 -0.0207,0.004 -0.0248,0.004 0.10749,-0.16124 0.31006,-0.22738 0.49196,-0.22738 0.25218,0 0.3514,0.19844 0.3514,0.42168 0,0.23151 -0.10335,0.63252 -0.39687,0.63252 l -0.21084,0.0124 c -0.0207,0 -0.0372,0.0165 -0.0372,0.0331 v 0.0331 c 0,0.0207 0.0165,0.0372 0.0372,0.0372 h 0.25218 c 0.33486,0 0.41755,0.36794 0.41755,0.62839 0,0.26045 -0.0785,0.62838 -0.41342,0.62838 -0.21084,0 -0.44648,-0.0785 -0.5705,-0.26045 z m 1.7601,0.29766 h 1.43453 l 0.10749,-0.68626 h -0.11162 c -0.0207,0.11989 -0.0496,0.30179 -0.0951,0.35553 -0.0207,0.0165 -0.42168,0.0165 -0.65319,0.0165 h -0.37207 l 0.43822,-0.42168 c 0.31419,-0.30179 0.79375,-0.59531 0.79375,-1.07901 0,-0.47128 -0.38447,-0.76067 -0.82269,-0.76067 -0.39274,0 -0.71933,0.31006 -0.71933,0.7028 0,0.11989 0.0909,0.21497 0.21084,0.21497 0.11575,0 0.21084,-0.0951 0.21084,-0.21497 0,-0.11989 -0.0951,-0.20671 -0.21084,-0.20671 -0.0165,0 -0.0248,0 -0.0413,0.004 0.0744,-0.21084 0.26459,-0.36381 0.49196,-0.36381 0.34314,0 0.51263,0.31006 0.51263,0.62425 0,0.41342 -0.31005,0.74001 -0.56637,1.02527 l -0.59945,0.66559 c -0.004,0.004 -0.008,0.0165 -0.008,0.0207 z m 0,0"
       style="fill:#000000;fill-opacity:1;fill-rule:nonzero;stroke:none;stroke-width:0.388056"
       aria-label="32" />
    <path
       id="path117-19"
       d="m 156.58503,159.93486 h 0.57976 v -6.18561 h -0.57976 z"
       style="fill:#000000;fill-opacity:1;fill-rule:nonzero;stroke:none;stroke-width:0.388056" />
    <path
       id="path118-88"
       d="m 170.67665,157.11333 c 0.0661,0 0.13642,0 0.13642,-0.0785 0,-0.0744 -0.0703,-0.0744 -0.13642,-0.0744 h -2.09187 c -0.0661,0 -0.13229,0 -0.13229,0.0744 0,0.0785 0.0661,0.0785 0.13229,0.0785 z m 0,0"
       style="fill:#000000;fill-opacity:1;fill-rule:nonzero;stroke:none;stroke-width:0.388056"
       aria-label="−" />
    <path
       id="path119-2"
       d="m 182.10124,159.93486 h 0.57976 v -6.18561 h -0.57976 z"
       style="fill:#000000;fill-opacity:1;fill-rule:nonzero;stroke:none;stroke-width:0.388056" />
    <path
       id="path120-20"
       d="M 59.795828,160.51501 H 182.68099 v -0.57976 H 59.795828 Z"
       style="fill:#000000;fill-opacity:1;fill-rule:nonzero;stroke:none;stroke-width:0.388056" />
  </g>
</svg>
