<?xml version="1.0" encoding="UTF-8" standalone="no"?>
<!-- Created with Inkscape (http://www.inkscape.org/) -->

<svg
   width="54.145531mm"
   height="19.28874mm"
   viewBox="0 0 54.145532 19.28874"
   version="1.1"
   id="svg1"
   xmlns="http://www.w3.org/2000/svg"
   xmlns:svg="http://www.w3.org/2000/svg">
  <defs
     id="defs1" />
  <g
     id="layer1"
     transform="translate(-127.08577,-155.2267)">
    <path
       id="rect753"
       style="fill:#000000;stroke-width:0.264583"
       d="m 154.22313,155.2267 c -0.1695,0.17363 -0.41341,0.22324 -0.64905,0.22324 v 0.12402 c 0.16123,0 0.32245,-0.0207 0.45888,-0.0868 v 1.84381 c 0,0.11163 -0.33899,0.11162 -0.43821,0.11162 v 0.12403 c 0.1943,0 0.38447,-0.0124 0.57464,-0.0124 0.19431,0 0.38448,0.0124 0.57878,0.0124 v -0.12403 c -0.0992,0 -0.43822,0 -0.43822,-0.11162 v -2.07119 c 0,-0.0165 -0.0207,-0.0331 -0.0372,-0.0331 z m -8.91108,5.62343 c -0.35553,0 -0.65319,0.28111 -0.65319,0.64078 0,0.10748 0.0827,0.19017 0.19017,0.19017 0.10749,0 0.19017,-0.0827 0.19017,-0.19017 0,-0.11162 -0.0827,-0.19016 -0.19017,-0.19016 -0.0124,0 -0.0248,1.3e-4 -0.0372,0.004 0.0661,-0.19016 0.24392,-0.33073 0.44649,-0.33073 0.31419,0 0.46715,0.28112 0.46715,0.56224 0,0.3762 -0.28112,0.67799 -0.51676,0.93844 l -0.54571,0.60358 c -0.004,0.004 -0.004,0.0124 -0.004,0.0165 v 0.0951 h 1.30225 l 0.0992,-0.62426 h -0.10335 c -0.0165,0.11162 -0.0413,0.277 -0.0827,0.32247 -0.0207,0.0165 -0.38447,0.0165 -0.59531,0.0165 h -0.339 l 0.39687,-0.38447 c 0.28525,-0.27285 0.72347,-0.53743 0.72347,-0.98392 0,-0.42168 -0.34726,-0.68626 -0.74827,-0.68626 z m 17.69711,0 c -0.1695,0.17363 -0.41342,0.22324 -0.64906,0.22324 v 0.12402 c 0.16123,0 0.32247,-0.0207 0.45889,-0.0868 v 1.84381 c 0,0.11163 -0.339,0.11162 -0.43821,0.11162 v 0.12403 c 0.19429,0 0.38447,-0.0124 0.57464,-0.0124 0.1943,0 0.38447,0.0124 0.57877,0.0124 v -0.12403 c -0.0992,0 -0.43821,0 -0.43821,-0.11162 v -2.07119 c 0,-0.0165 -0.0207,-0.0331 -0.0372,-0.0331 z m -26.48314,5.62343 c -0.35554,0 -0.65319,0.28111 -0.65319,0.64078 0,0.10748 0.0827,0.19017 0.19017,0.19017 0.10749,0 0.19017,-0.0827 0.19017,-0.19017 0,-0.11162 -0.0827,-0.19017 -0.19017,-0.19017 -0.0124,0 -0.0248,1.4e-4 -0.0372,0.004 0.0661,-0.19016 0.24392,-0.33073 0.44649,-0.33073 0.31419,0 0.46715,0.28112 0.46715,0.56224 0,0.3762 -0.28111,0.67799 -0.51676,0.93844 l -0.5457,0.60358 c -0.004,0.004 -0.004,0.0124 -0.004,0.0165 v 0.0951 h 1.30225 l 0.0992,-0.62426 h -0.10336 c -0.0165,0.11162 -0.0413,0.27699 -0.0827,0.32246 -0.0207,0.0165 -0.38447,0.0165 -0.59531,0.0165 h -0.339 l 0.39688,-0.38447 c 0.28525,-0.27285 0.72347,-0.53743 0.72347,-0.98392 0,-0.42168 -0.34728,-0.68626 -0.74828,-0.68626 z m 17.9617,0 c -0.0124,0 -0.0289,0.008 -0.0372,0.0165 l -1.08314,1.62058 v 0.12402 h 0.92604 v 0.34313 c 0,0.11162 -0.23977,0.11162 -0.33899,0.11162 v 0.12403 c 0.16123,0 0.32246,-0.0124 0.48369,-0.0124 0.1571,0 0.31833,0.0124 0.48369,0.0124 v -0.12403 c -0.0992,0 -0.34313,0 -0.34313,-0.11162 v -0.34313 h 0.34313 v -0.12402 h -0.34313 v -1.59991 c 0,-0.0207 -0.0166,-0.0372 -0.0372,-0.0372 z m 16.73696,0 c -0.0207,0 -0.0372,0.0124 -0.0372,0.0289 v 1.17408 c 0,0.0124 0.0207,0.0289 0.0372,0.0289 h 0.0372 c 0.0455,-0.008 0.13642,-0.27698 0.48782,-0.27698 0.1695,0 0.27286,0.16536 0.3142,0.31006 0.0289,0.11575 0.0289,0.24391 0.0289,0.3638 0,0.29766 -0.0703,0.67386 -0.44648,0.67386 -0.22738,0 -0.42995,-0.14883 -0.50023,-0.3638 0,0 0.0289,0.008 0.0496,0.008 0.10336,0 0.1819,-0.0785 0.1819,-0.1819 0,-0.0992 -0.0785,-0.17776 -0.1819,-0.17776 -0.10335,0 -0.17777,0.0786 -0.17777,0.17776 0,0.3514 0.27286,0.65319 0.62839,0.65319 0.42581,0 0.77308,-0.35554 0.77308,-0.78548 0,-0.37208 -0.25632,-0.76894 -0.66559,-0.76894 -0.19844,0 -0.29352,0.0579 -0.44235,0.17363 v -0.66146 c 0.0951,0.0248 0.19017,0.0372 0.28938,0.0372 0.26046,0 0.51677,-0.12403 0.67386,-0.33487 0.004,0 0.008,-0.0124 0.008,-0.0207 v -0.0289 c 0,-0.0165 -0.0207,-0.0289 -0.0331,-0.0289 h -0.0124 c -0.1571,0.0744 -0.33073,0.11162 -0.50023,0.11162 -0.17776,0 -0.34726,-0.0372 -0.50436,-0.11162 z m -16.9106,0.39274 v 1.24437 h -0.83095 z m -9.51879,5.194 -0.11576,0.74 h 0.0992 c 0.0207,-0.11162 0.0412,-0.27285 0.0909,-0.32246 0.0165,-0.0207 0.41342,-0.0207 0.64079,-0.0207 h 0.40101 l -0.31833,0.44648 c -0.3017,0.42155 -0.5001,0.92211 -0.50023,1.44281 2.7e-4,0.0948 0.0746,0.16898 0.1695,0.16898 0.0951,0 0.1695,-0.0744 0.1695,-0.1695 0,-0.46715 -1e-5,-0.99218 0.26458,-1.39319 l 0.48369,-0.678 c 0,-0.004 0.004,-0.004 0.004,-0.008 v -0.0909 h -0.65319 c -0.0951,0 -0.63666,0 -0.63666,-0.10335 v -0.0124 z m -17.50281,0.0367 c -0.0207,0 -0.0372,0.0124 -0.0372,0.0289 v 1.17409 c 0,0.0124 0.0207,0.0289 0.0372,0.0289 h 0.0372 c 0.0455,-0.008 0.13643,-0.27698 0.48783,-0.27698 0.1695,0 0.27284,0.16536 0.31419,0.31005 0.0289,0.11576 0.0289,0.24392 0.0289,0.36381 0,0.29766 -0.0703,0.67386 -0.44648,0.67386 -0.22738,0 -0.42995,-0.14882 -0.50023,-0.3638 0,0 0.0289,0.008 0.0496,0.008 0.10335,0 0.1819,-0.0786 0.1819,-0.1819 0,-0.0992 -0.0786,-0.17776 -0.1819,-0.17776 -0.10335,0 -0.17777,0.0785 -0.17777,0.17776 0,0.35141 0.27286,0.65319 0.62839,0.65319 0.42582,0 0.77308,-0.35553 0.77308,-0.78548 0,-0.37207 -0.25633,-0.76894 -0.6656,-0.76894 -0.19844,0 -0.29353,0.0579 -0.44235,0.17363 v -0.66146 c 0.0951,0.0248 0.19017,0.0372 0.28939,0.0372 0.26044,0 0.51677,-0.12402 0.67386,-0.33487 0.004,0 0.008,-0.0124 0.008,-0.0207 v -0.0289 c 0,-0.0165 -0.0207,-0.0289 -0.0331,-0.0289 h -0.0124 c -0.1571,0.0744 -0.33073,0.11162 -0.50023,0.11162 -0.17777,0 -0.34726,-0.0372 -0.50436,-0.11162 z m 35.61746,0 c -0.28111,0 -0.61185,0.16949 -0.61185,0.48782 0,0.10749 0.0785,0.18604 0.18604,0.18604 0.10335,0 0.18603,-0.0785 0.18603,-0.18604 0,-0.10336 -0.0827,-0.18603 -0.18603,-0.18603 -0.008,0 -0.0207,0.004 -0.0248,0.004 0.0992,-0.14469 0.28525,-0.20257 0.45062,-0.20257 0.22737,0 0.31833,0.17776 0.31833,0.38034 0,0.21084 -0.0951,0.57464 -0.3638,0.57464 l -0.19017,0.0124 c -0.0207,0 -0.0331,0.0165 -0.0331,0.0289 v 0.0331 c 0,0.0165 0.0125,0.0289 0.0331,0.0289 h 0.23151 c 0.30179,0 0.38034,0.33487 0.38034,0.57464 0,0.23565 -0.0744,0.56638 -0.37621,0.56638 -0.19431,0 -0.40928,-0.0703 -0.5209,-0.23151 h 0.0165 c 0.11576,0 0.20257,-0.091 0.20257,-0.20671 0,-0.11576 -0.0868,-0.20257 -0.20257,-0.20257 -0.11575,0 -0.20257,0.0868 -0.20257,0.20257 0,0.36793 0.38447,0.55397 0.70693,0.55397 0.38034,0 0.74828,-0.28111 0.74828,-0.68626 0,-0.32659 -0.28526,-0.56637 -0.59118,-0.62425 0.27285,-0.0868 0.50023,-0.32659 0.50023,-0.62425 0,-0.32659 -0.38034,-0.48369 -0.65733,-0.48369 z m 17.59789,0 c -0.33487,0 -0.63665,0.24804 -0.63665,0.59531 0,0.19016 0.10749,0.3762 0.26872,0.48369 l 0.13229,0.0827 c -0.25631,0.12816 -0.49609,0.33899 -0.49609,0.64492 0,0.38447 0.38033,0.61185 0.73173,0.61185 0.37207,0 0.72347,-0.27698 0.72347,-0.67799 0,-0.2191 -0.11988,-0.42582 -0.30592,-0.54571 l -0.20257,-0.13229 c 0.21084,-0.10749 0.41754,-0.28111 0.41754,-0.53743 0,-0.33486 -0.33487,-0.52503 -0.63252,-0.52503 z m -0.004,0.10335 c 0.23565,0 0.46715,0.17364 0.46715,0.42168 0,0.21498 -0.16122,0.38033 -0.33899,0.48369 l -0.42582,-0.27285 c -0.0951,-0.0662 -0.1695,-0.16536 -0.1695,-0.28112 0,-0.23564 0.26046,-0.3514 0.46716,-0.3514 z m -0.13643,1.12034 0.46716,0.30593 c 0.11989,0.0703 0.21084,0.19431 0.21084,0.339 0,0.28112 -0.2894,0.43408 -0.53744,0.43408 -0.28112,0 -0.54156,-0.21084 -0.54156,-0.4961 0,-0.25631 0.18189,-0.46716 0.401,-0.58291 z" />
  </g>
</svg>
