<?xml version="1.0" encoding="UTF-8" standalone="no"?>
<!-- Created with Inkscape (http://www.inkscape.org/) -->

<svg
   width="121.86686mm"
   height="32.676338mm"
   viewBox="0 0 121.86686 32.676339"
   version="1.1"
   id="svg1"
   inkscape:version="1.3.2 (091e20e, 2023-11-25, custom)"
   sodipodi:docname="a73k.svg"
   xmlns:inkscape="http://www.inkscape.org/namespaces/inkscape"
   xmlns:sodipodi="http://sodipodi.sourceforge.net/DTD/sodipodi-0.dtd"
   xmlns="http://www.w3.org/2000/svg"
   xmlns:svg="http://www.w3.org/2000/svg">
  <sodipodi:namedview
     id="namedview1"
     pagecolor="#ffffff"
     bordercolor="#000000"
     borderopacity="0.25"
     inkscape:showpageshadow="2"
     inkscape:pageopacity="0.0"
     inkscape:pagecheckerboard="0"
     inkscape:deskcolor="#d1d1d1"
     inkscape:document-units="mm"
     inkscape:zoom="0.72426347"
     inkscape:cx="174.6602"
     inkscape:cy="104.24383"
     inkscape:window-width="1920"
     inkscape:window-height="1009"
     inkscape:window-x="-8"
     inkscape:window-y="-8"
     inkscape:window-maximized="1"
     inkscape:current-layer="layer1" />
  <defs
     id="defs1" />
  <g
     inkscape:label="Vrstva 1"
     inkscape:groupmode="layer"
     id="layer1"
     transform="translate(-58.737487,-120.9146)">
    <path
       id="path8-0"
       d="M 58.825681,153.50274 V 121.00279"
       style="fill:none;stroke:#000000;stroke-width:0.176389;stroke-linecap:round;stroke-linejoin:round;stroke-miterlimit:10;stroke-dasharray:none;stroke-opacity:1" />
    <path
       id="path9-2"
       d="m 64.675685,150.25274 c 0,-0.68959 -0.273981,-1.35086 -0.761566,-1.83844 -0.487577,-0.48758 -1.148849,-0.76156 -1.838441,-0.76156 -0.689596,0 -1.350867,0.27398 -1.838445,0.76156 -0.487581,0.48758 -0.761566,1.14885 -0.761566,1.83844 0,0.6896 0.273985,1.35087 0.761566,1.83845 0.487578,0.48758 1.148849,0.76156 1.838445,0.76156 0.689592,0 1.350864,-0.27398 1.838441,-0.76156 0.487585,-0.48758 0.761566,-1.14885 0.761566,-1.83845 z"
       style="fill:#4c4c4c;fill-opacity:1;fill-rule:nonzero;stroke:#000000;stroke-width:0.176389;stroke-linecap:round;stroke-linejoin:round;stroke-miterlimit:10;stroke-dasharray:none;stroke-opacity:1" />
    <path
       id="path10-5"
       d="m 64.675685,124.25278 c 0,-0.68959 -0.273981,-1.35086 -0.761566,-1.83844 -0.487577,-0.48758 -1.148849,-0.76157 -1.838441,-0.76157 -0.689596,0 -1.350867,0.27399 -1.838445,0.76157 -0.487581,0.48758 -0.761566,1.14885 -0.761566,1.83844 0,0.6896 0.273985,1.35087 0.761566,1.83845 0.487578,0.48758 1.148849,0.76156 1.838445,0.76156 0.689592,0 1.350864,-0.27398 1.838441,-0.76156 0.487585,-0.48758 0.761566,-1.14885 0.761566,-1.83845 z"
       style="fill:none;stroke:#000000;stroke-width:0.176389;stroke-linecap:round;stroke-linejoin:round;stroke-miterlimit:10;stroke-dasharray:none;stroke-opacity:1" />
    <path
       id="path11-6"
       d="M 65.325671,153.50274 V 121.00279"
       style="fill:none;stroke:#000000;stroke-width:0.176389;stroke-linecap:round;stroke-linejoin:round;stroke-miterlimit:10;stroke-dasharray:none;stroke-opacity:1" />
    <path
       id="path12-1"
       d="m 71.175675,150.25274 c 0,-0.68959 -0.273981,-1.35086 -0.761566,-1.83844 -0.487577,-0.48758 -1.148849,-0.76156 -1.838441,-0.76156 -0.689596,0 -1.350867,0.27398 -1.838445,0.76156 -0.487581,0.48758 -0.761566,1.14885 -0.761566,1.83844 0,0.6896 0.273985,1.35087 0.761566,1.83845 0.487578,0.48758 1.148849,0.76156 1.838445,0.76156 0.689592,0 1.350864,-0.27398 1.838441,-0.76156 0.487585,-0.48758 0.761566,-1.14885 0.761566,-1.83845 z"
       style="fill:#4c4c4c;fill-opacity:1;fill-rule:nonzero;stroke:#000000;stroke-width:0.176389;stroke-linecap:round;stroke-linejoin:round;stroke-miterlimit:10;stroke-dasharray:none;stroke-opacity:1" />
    <path
       id="path13-4"
       d="m 71.175675,124.25278 c 0,-0.68959 -0.273981,-1.35086 -0.761566,-1.83844 -0.487577,-0.48758 -1.148849,-0.76157 -1.838441,-0.76157 -0.689596,0 -1.350867,0.27399 -1.838445,0.76157 -0.487581,0.48758 -0.761566,1.14885 -0.761566,1.83844 0,0.6896 0.273985,1.35087 0.761566,1.83845 0.487578,0.48758 1.148849,0.76156 1.838445,0.76156 0.689592,0 1.350864,-0.27398 1.838441,-0.76156 0.487585,-0.48758 0.761566,-1.14885 0.761566,-1.83845 z"
       style="fill:none;stroke:#000000;stroke-width:0.176389;stroke-linecap:round;stroke-linejoin:round;stroke-miterlimit:10;stroke-dasharray:none;stroke-opacity:1" />
    <path
       id="path14-0"
       d="M 71.825661,153.50274 V 121.00279"
       style="fill:none;stroke:#000000;stroke-width:0.176389;stroke-linecap:round;stroke-linejoin:round;stroke-miterlimit:10;stroke-dasharray:none;stroke-opacity:1" />
    <path
       id="path15-2"
       d="m 77.675666,150.25274 c 0,-0.68959 -0.273982,-1.35086 -0.761566,-1.83844 -0.487578,-0.48758 -1.148849,-0.76156 -1.838442,-0.76156 -0.689596,0 -1.350867,0.27398 -1.838441,0.76156 -0.487585,0.48758 -0.761566,1.14885 -0.761566,1.83844 0,0.6896 0.273981,1.35087 0.761566,1.83845 0.487574,0.48758 1.148845,0.76156 1.838441,0.76156 0.689593,0 1.350864,-0.27398 1.838442,-0.76156 0.487584,-0.48758 0.761566,-1.14885 0.761566,-1.83845 z"
       style="fill:#4c4c4c;fill-opacity:1;fill-rule:nonzero;stroke:#000000;stroke-width:0.176389;stroke-linecap:round;stroke-linejoin:round;stroke-miterlimit:10;stroke-dasharray:none;stroke-opacity:1" />
    <path
       id="path16-8"
       d="m 77.675666,124.25278 c 0,-0.68959 -0.273982,-1.35086 -0.761566,-1.83844 -0.487578,-0.48758 -1.148849,-0.76157 -1.838442,-0.76157 -0.689596,0 -1.350867,0.27399 -1.838441,0.76157 -0.487585,0.48758 -0.761566,1.14885 -0.761566,1.83844 0,0.6896 0.273981,1.35087 0.761566,1.83845 0.487574,0.48758 1.148845,0.76156 1.838441,0.76156 0.689593,0 1.350864,-0.27398 1.838442,-0.76156 0.487584,-0.48758 0.761566,-1.14885 0.761566,-1.83845 z"
       style="fill:none;stroke:#000000;stroke-width:0.176389;stroke-linecap:round;stroke-linejoin:round;stroke-miterlimit:10;stroke-dasharray:none;stroke-opacity:1" />
    <path
       id="path17-6"
       d="M 78.325652,153.50274 V 121.00279"
       style="fill:none;stroke:#000000;stroke-width:0.176389;stroke-linecap:round;stroke-linejoin:round;stroke-miterlimit:10;stroke-dasharray:none;stroke-opacity:1" />
    <path
       id="path18-7"
       d="m 84.175656,150.25274 c 0,-0.68959 -0.273981,-1.35086 -0.761566,-1.83844 -0.487578,-0.48758 -1.148846,-0.76156 -1.838442,-0.76156 -0.689595,0 -1.350867,0.27398 -1.838444,0.76156 -0.487582,0.48758 -0.761563,1.14885 -0.761563,1.83844 0,0.6896 0.273981,1.35087 0.761563,1.83845 0.487577,0.48758 1.148849,0.76156 1.838444,0.76156 0.689596,0 1.350864,-0.27398 1.838442,-0.76156 0.487585,-0.48758 0.761566,-1.14885 0.761566,-1.83845 z"
       style="fill:#4c4c4c;fill-opacity:1;fill-rule:nonzero;stroke:#000000;stroke-width:0.176389;stroke-linecap:round;stroke-linejoin:round;stroke-miterlimit:10;stroke-dasharray:none;stroke-opacity:1" />
    <path
       id="path19-1"
       d="m 84.175656,124.25278 c 0,-0.68959 -0.273981,-1.35086 -0.761566,-1.83844 -0.487578,-0.48758 -1.148846,-0.76157 -1.838442,-0.76157 -0.689595,0 -1.350867,0.27399 -1.838444,0.76157 -0.487582,0.48758 -0.761563,1.14885 -0.761563,1.83844 0,0.6896 0.273981,1.35087 0.761563,1.83845 0.487577,0.48758 1.148849,0.76156 1.838444,0.76156 0.689596,0 1.350864,-0.27398 1.838442,-0.76156 0.487585,-0.48758 0.761566,-1.14885 0.761566,-1.83845 z"
       style="fill:none;stroke:#000000;stroke-width:0.176389;stroke-linecap:round;stroke-linejoin:round;stroke-miterlimit:10;stroke-dasharray:none;stroke-opacity:1" />
    <path
       id="path20-9"
       d="M 84.825642,153.50274 V 121.00279"
       style="fill:none;stroke:#000000;stroke-width:0.176389;stroke-linecap:round;stroke-linejoin:round;stroke-miterlimit:10;stroke-dasharray:none;stroke-opacity:1" />
    <path
       id="path21-9"
       d="m 90.675646,150.25274 c 0,-0.68959 -0.273981,-1.35086 -0.761566,-1.83844 -0.487574,-0.48758 -1.148845,-0.76156 -1.838441,-0.76156 -0.689596,0 -1.350864,0.27398 -1.838445,0.76156 -0.487581,0.48758 -0.761563,1.14885 -0.761563,1.83844 0,0.6896 0.273982,1.35087 0.761563,1.83845 0.487581,0.48758 1.148849,0.76156 1.838445,0.76156 0.689596,0 1.350867,-0.27398 1.838441,-0.76156 0.487585,-0.48758 0.761566,-1.14885 0.761566,-1.83845 z"
       style="fill:#4c4c4c;fill-opacity:1;fill-rule:nonzero;stroke:#000000;stroke-width:0.176389;stroke-linecap:round;stroke-linejoin:round;stroke-miterlimit:10;stroke-dasharray:none;stroke-opacity:1" />
    <path
       id="path22-4"
       d="m 90.675646,124.25278 c 0,-0.68959 -0.273981,-1.35086 -0.761566,-1.83844 -0.487574,-0.48758 -1.148845,-0.76157 -1.838441,-0.76157 -0.689596,0 -1.350864,0.27399 -1.838445,0.76157 -0.487581,0.48758 -0.761563,1.14885 -0.761563,1.83844 0,0.6896 0.273982,1.35087 0.761563,1.83845 0.487581,0.48758 1.148849,0.76156 1.838445,0.76156 0.689596,0 1.350867,-0.27398 1.838441,-0.76156 0.487585,-0.48758 0.761566,-1.14885 0.761566,-1.83845 z"
       style="fill:none;stroke:#000000;stroke-width:0.176389;stroke-linecap:round;stroke-linejoin:round;stroke-miterlimit:10;stroke-dasharray:none;stroke-opacity:1" />
    <path
       id="path23-4"
       d="M 91.325632,153.50274 V 121.00279"
       style="fill:none;stroke:#000000;stroke-width:0.176389;stroke-linecap:round;stroke-linejoin:round;stroke-miterlimit:10;stroke-dasharray:none;stroke-opacity:1" />
    <path
       id="path24-9"
       d="m 97.175636,150.25274 c 0,-0.68959 -0.273981,-1.35086 -0.761566,-1.83844 -0.487577,-0.48758 -1.148845,-0.76156 -1.838441,-0.76156 -0.689596,0 -1.350864,0.27398 -1.838445,0.76156 -0.487581,0.48758 -0.761563,1.14885 -0.761563,1.83844 0,0.6896 0.273982,1.35087 0.761563,1.83845 0.487581,0.48758 1.148849,0.76156 1.838445,0.76156 0.689596,0 1.350864,-0.27398 1.838441,-0.76156 0.487585,-0.48758 0.761566,-1.14885 0.761566,-1.83845 z"
       style="fill:#4c4c4c;fill-opacity:1;fill-rule:nonzero;stroke:#000000;stroke-width:0.176389;stroke-linecap:round;stroke-linejoin:round;stroke-miterlimit:10;stroke-dasharray:none;stroke-opacity:1" />
    <path
       id="path25-1"
       d="m 97.175636,124.25278 c 0,-0.68959 -0.273981,-1.35086 -0.761566,-1.83844 -0.487577,-0.48758 -1.148845,-0.76157 -1.838441,-0.76157 -0.689596,0 -1.350864,0.27399 -1.838445,0.76157 -0.487581,0.48758 -0.761563,1.14885 -0.761563,1.83844 0,0.6896 0.273982,1.35087 0.761563,1.83845 0.487581,0.48758 1.148849,0.76156 1.838445,0.76156 0.689596,0 1.350864,-0.27398 1.838441,-0.76156 0.487585,-0.48758 0.761566,-1.14885 0.761566,-1.83845 z"
       style="fill:none;stroke:#000000;stroke-width:0.176389;stroke-linecap:round;stroke-linejoin:round;stroke-miterlimit:10;stroke-dasharray:none;stroke-opacity:1" />
    <path
       id="path26-4"
       d="M 97.825626,153.50274 V 121.00279"
       style="fill:none;stroke:#000000;stroke-width:0.176389;stroke-linecap:round;stroke-linejoin:round;stroke-miterlimit:10;stroke-dasharray:none;stroke-opacity:1" />
    <path
       id="path27-3"
       d="m 103.67563,150.25274 c 0,-0.68959 -0.27398,-1.35086 -0.76157,-1.83844 -0.48758,-0.48758 -1.14885,-0.76156 -1.83844,-0.76156 -0.6896,0 -1.350865,0.27398 -1.838442,0.76156 -0.487585,0.48758 -0.761566,1.14885 -0.761566,1.83844 0,0.6896 0.273981,1.35087 0.761566,1.83845 0.487577,0.48758 1.148842,0.76156 1.838442,0.76156 0.68959,0 1.35086,-0.27398 1.83844,-0.76156 0.48759,-0.48758 0.76157,-1.14885 0.76157,-1.83845 z"
       style="fill:#4c4c4c;fill-opacity:1;fill-rule:nonzero;stroke:#000000;stroke-width:0.176389;stroke-linecap:round;stroke-linejoin:round;stroke-miterlimit:10;stroke-dasharray:none;stroke-opacity:1" />
    <path
       id="path28-6"
       d="m 103.67563,124.25278 c 0,-0.68959 -0.27398,-1.35086 -0.76157,-1.83844 -0.48758,-0.48758 -1.14885,-0.76157 -1.83844,-0.76157 -0.6896,0 -1.350865,0.27399 -1.838442,0.76157 -0.487585,0.48758 -0.761566,1.14885 -0.761566,1.83844 0,0.6896 0.273981,1.35087 0.761566,1.83845 0.487577,0.48758 1.148842,0.76156 1.838442,0.76156 0.68959,0 1.35086,-0.27398 1.83844,-0.76156 0.48759,-0.48758 0.76157,-1.14885 0.76157,-1.83845 z"
       style="fill:none;stroke:#000000;stroke-width:0.176389;stroke-linecap:round;stroke-linejoin:round;stroke-miterlimit:10;stroke-dasharray:none;stroke-opacity:1" />
    <path
       id="path29-3"
       d="M 104.32562,153.50274 V 121.00279"
       style="fill:none;stroke:#000000;stroke-width:0.176389;stroke-linecap:round;stroke-linejoin:round;stroke-miterlimit:10;stroke-dasharray:none;stroke-opacity:1" />
    <path
       id="path30-9"
       d="m 110.17562,150.25274 c 0,-0.68959 -0.27398,-1.35086 -0.76157,-1.83844 -0.48758,-0.48758 -1.14884,-0.76156 -1.83844,-0.76156 -0.6896,0 -1.35086,0.27398 -1.83844,0.76156 -0.48759,0.48758 -0.76157,1.14885 -0.76157,1.83844 0,0.6896 0.27398,1.35087 0.76157,1.83845 0.48758,0.48758 1.14884,0.76156 1.83844,0.76156 0.6896,0 1.35086,-0.27398 1.83844,-0.76156 0.48759,-0.48758 0.76157,-1.14885 0.76157,-1.83845 z"
       style="fill:#4c4c4c;fill-opacity:1;fill-rule:nonzero;stroke:#000000;stroke-width:0.176389;stroke-linecap:round;stroke-linejoin:round;stroke-miterlimit:10;stroke-dasharray:none;stroke-opacity:1" />
    <path
       id="path31-6"
       d="m 110.17562,124.25278 c 0,-0.68959 -0.27398,-1.35086 -0.76157,-1.83844 -0.48758,-0.48758 -1.14884,-0.76157 -1.83844,-0.76157 -0.6896,0 -1.35086,0.27399 -1.83844,0.76157 -0.48759,0.48758 -0.76157,1.14885 -0.76157,1.83844 0,0.6896 0.27398,1.35087 0.76157,1.83845 0.48758,0.48758 1.14884,0.76156 1.83844,0.76156 0.6896,0 1.35086,-0.27398 1.83844,-0.76156 0.48759,-0.48758 0.76157,-1.14885 0.76157,-1.83845 z"
       style="fill:none;stroke:#000000;stroke-width:0.176389;stroke-linecap:round;stroke-linejoin:round;stroke-miterlimit:10;stroke-dasharray:none;stroke-opacity:1" />
    <path
       id="path32-2"
       d="M 110.82561,153.50274 V 121.00279"
       style="fill:none;stroke:#000000;stroke-width:0.176389;stroke-linecap:round;stroke-linejoin:round;stroke-miterlimit:10;stroke-dasharray:none;stroke-opacity:1" />
    <path
       id="path33-4"
       d="M 58.825681,153.50274 H 110.82561"
       style="fill:none;stroke:#000000;stroke-width:0.176389;stroke-linecap:round;stroke-linejoin:round;stroke-miterlimit:10;stroke-dasharray:none;stroke-opacity:1" />
    <path
       id="path34-5"
       d="M 58.825681,147.00275 H 110.82561"
       style="fill:none;stroke:#000000;stroke-width:0.176389;stroke-linecap:round;stroke-linejoin:round;stroke-miterlimit:10;stroke-dasharray:none;stroke-opacity:1" />
    <path
       id="path35-5"
       d="M 58.825681,140.50276 H 110.82561"
       style="fill:none;stroke:#000000;stroke-width:0.176389;stroke-linecap:round;stroke-linejoin:round;stroke-miterlimit:10;stroke-dasharray:none;stroke-opacity:1" />
    <path
       id="path36-3"
       d="M 58.825681,134.00277 H 110.82561"
       style="fill:none;stroke:#000000;stroke-width:0.176389;stroke-linecap:round;stroke-linejoin:round;stroke-miterlimit:10;stroke-dasharray:none;stroke-opacity:1" />
    <path
       id="path37-0"
       d="M 58.825681,127.50278 H 110.82561"
       style="fill:none;stroke:#000000;stroke-width:0.176389;stroke-linecap:round;stroke-linejoin:round;stroke-miterlimit:10;stroke-dasharray:none;stroke-opacity:1" />
    <path
       id="path38-5"
       d="M 58.825681,121.00279 H 110.82561"
       style="fill:none;stroke:#000000;stroke-width:0.176389;stroke-linecap:round;stroke-linejoin:round;stroke-miterlimit:10;stroke-dasharray:none;stroke-opacity:1" />
    <path
       id="path39-1"
       d="m 119.14202,137.25349 c 0,-0.0827 -0.0786,-0.0827 -0.14056,-0.0827 h -2.29857 c -0.0579,0 -0.13642,0 -0.13642,0.0827 0,0.0827 0.0785,0.0827 0.13642,0.0827 h 2.29857 c 0.062,0 0.14056,0 0.14056,-0.0827 z m 3.74447,0 c 0,-0.0207 -0.0165,-0.0372 -0.0331,-0.0413 -0.45062,-0.16123 -0.78548,-0.54984 -0.86403,-1.02113 -0.004,-0.0207 -0.0289,-0.0372 -0.0496,-0.0372 h -0.0744 c -0.0248,0 -0.0455,0.0207 -0.0455,0.0538 0.0661,0.3886 0.28526,0.73587 0.60358,0.96324 h -3.19153 c -0.062,0 -0.0909,0.0413 -0.0909,0.0827 0,0.0413 0.0289,0.0827 0.0909,0.0827 h 3.19153 c -0.31832,0.22738 -0.53743,0.57464 -0.60358,0.96325 0,0.0331 0.0207,0.0537 0.0455,0.0537 h 0.0744 c 0.0207,0 0.0455,-0.0165 0.0496,-0.0372 0.0785,-0.47128 0.41341,-0.85989 0.86403,-1.02112 0.0165,-0.004 0.0331,-0.0207 0.0331,-0.0413 z m 0,0"
       style="fill:#000000;fill-opacity:1;fill-rule:nonzero;stroke:none;stroke-width:0.352778"
       aria-label="−→" />
    <path
       id="path40-4"
       d="M 128.51622,153.50274 V 121.00279"
       style="fill:none;stroke:#000000;stroke-width:0.176389;stroke-linecap:round;stroke-linejoin:round;stroke-miterlimit:10;stroke-dasharray:none;stroke-opacity:1" />
    <path
       id="path41-3"
       d="m 134.36622,124.25278 c 0,-0.68959 -0.27398,-1.35086 -0.76156,-1.83844 -0.48758,-0.48758 -1.14885,-0.76157 -1.83844,-0.76157 -0.6896,0 -1.35087,0.27399 -1.83845,0.76157 -0.48758,0.48758 -0.76156,1.14885 -0.76156,1.83844 0,0.6896 0.27398,1.35087 0.76156,1.83845 0.48758,0.48758 1.14885,0.76156 1.83845,0.76156 0.68959,0 1.35086,-0.27398 1.83844,-0.76156 0.48758,-0.48758 0.76156,-1.14885 0.76156,-1.83845 z"
       style="fill:#4c4c4c;fill-opacity:1;fill-rule:nonzero;stroke:none;stroke-width:0.352778" />
    <path
       id="path42-7"
       d="m 134.36622,150.25274 c 0,-0.68959 -0.27398,-1.35086 -0.76156,-1.83844 -0.48758,-0.48758 -1.14885,-0.76156 -1.83844,-0.76156 -0.6896,0 -1.35087,0.27398 -1.83845,0.76156 -0.48758,0.48758 -0.76156,1.14885 -0.76156,1.83844 0,0.6896 0.27398,1.35087 0.76156,1.83845 0.48758,0.48758 1.14885,0.76156 1.83845,0.76156 0.68959,0 1.35086,-0.27398 1.83844,-0.76156 0.48758,-0.48758 0.76156,-1.14885 0.76156,-1.83845 z"
       style="fill:none;stroke:#000000;stroke-width:0.176389;stroke-linecap:round;stroke-linejoin:round;stroke-miterlimit:10;stroke-dasharray:none;stroke-opacity:1" />
    <path
       id="path43-8"
       d="m 134.36622,124.25278 c 0,-0.68959 -0.27398,-1.35086 -0.76156,-1.83844 -0.48758,-0.48758 -1.14885,-0.76157 -1.83844,-0.76157 -0.6896,0 -1.35087,0.27399 -1.83845,0.76157 -0.48758,0.48758 -0.76156,1.14885 -0.76156,1.83844 0,0.6896 0.27398,1.35087 0.76156,1.83845 0.48758,0.48758 1.14885,0.76156 1.83845,0.76156 0.68959,0 1.35086,-0.27398 1.83844,-0.76156 0.48758,-0.48758 0.76156,-1.14885 0.76156,-1.83845 z"
       style="fill:none;stroke:#000000;stroke-width:0.176389;stroke-linecap:round;stroke-linejoin:round;stroke-miterlimit:10;stroke-dasharray:none;stroke-opacity:1" />
    <path
       id="path44-3"
       d="M 135.01621,153.50274 V 121.00279"
       style="fill:none;stroke:#000000;stroke-width:0.176389;stroke-linecap:round;stroke-linejoin:round;stroke-miterlimit:10;stroke-dasharray:none;stroke-opacity:1" />
    <path
       id="path45-8"
       d="m 140.86621,124.25278 c 0,-0.68959 -0.27398,-1.35086 -0.76156,-1.83844 -0.48758,-0.48758 -1.14885,-0.76157 -1.83844,-0.76157 -0.6896,0 -1.35087,0.27399 -1.83845,0.76157 -0.48758,0.48758 -0.76156,1.14885 -0.76156,1.83844 0,0.6896 0.27398,1.35087 0.76156,1.83845 0.48758,0.48758 1.14885,0.76156 1.83845,0.76156 0.68959,0 1.35086,-0.27398 1.83844,-0.76156 0.48758,-0.48758 0.76156,-1.14885 0.76156,-1.83845 z"
       style="fill:#4c4c4c;fill-opacity:1;fill-rule:nonzero;stroke:none;stroke-width:0.352778" />
    <path
       id="path46-6"
       d="m 140.86621,150.25274 c 0,-0.68959 -0.27398,-1.35086 -0.76156,-1.83844 -0.48758,-0.48758 -1.14885,-0.76156 -1.83844,-0.76156 -0.6896,0 -1.35087,0.27398 -1.83845,0.76156 -0.48758,0.48758 -0.76156,1.14885 -0.76156,1.83844 0,0.6896 0.27398,1.35087 0.76156,1.83845 0.48758,0.48758 1.14885,0.76156 1.83845,0.76156 0.68959,0 1.35086,-0.27398 1.83844,-0.76156 0.48758,-0.48758 0.76156,-1.14885 0.76156,-1.83845 z"
       style="fill:none;stroke:#000000;stroke-width:0.176389;stroke-linecap:round;stroke-linejoin:round;stroke-miterlimit:10;stroke-dasharray:none;stroke-opacity:1" />
    <path
       id="path47-1"
       d="m 140.86621,124.25278 c 0,-0.68959 -0.27398,-1.35086 -0.76156,-1.83844 -0.48758,-0.48758 -1.14885,-0.76157 -1.83844,-0.76157 -0.6896,0 -1.35087,0.27399 -1.83845,0.76157 -0.48758,0.48758 -0.76156,1.14885 -0.76156,1.83844 0,0.6896 0.27398,1.35087 0.76156,1.83845 0.48758,0.48758 1.14885,0.76156 1.83845,0.76156 0.68959,0 1.35086,-0.27398 1.83844,-0.76156 0.48758,-0.48758 0.76156,-1.14885 0.76156,-1.83845 z"
       style="fill:none;stroke:#000000;stroke-width:0.176389;stroke-linecap:round;stroke-linejoin:round;stroke-miterlimit:10;stroke-dasharray:none;stroke-opacity:1" />
    <path
       id="path48-1"
       d="M 141.5162,153.50274 V 121.00279"
       style="fill:none;stroke:#000000;stroke-width:0.176389;stroke-linecap:round;stroke-linejoin:round;stroke-miterlimit:10;stroke-dasharray:none;stroke-opacity:1" />
    <path
       id="path49-3"
       d="m 147.3662,124.25278 c 0,-0.68959 -0.27398,-1.35086 -0.76156,-1.83844 -0.48758,-0.48758 -1.14885,-0.76157 -1.83844,-0.76157 -0.6896,0 -1.35087,0.27399 -1.83844,0.76157 -0.48759,0.48758 -0.76157,1.14885 -0.76157,1.83844 0,0.6896 0.27398,1.35087 0.76157,1.83845 0.48757,0.48758 1.14884,0.76156 1.83844,0.76156 0.68959,0 1.35086,-0.27398 1.83844,-0.76156 0.48758,-0.48758 0.76156,-1.14885 0.76156,-1.83845 z"
       style="fill:#4c4c4c;fill-opacity:1;fill-rule:nonzero;stroke:none;stroke-width:0.352778" />
    <path
       id="path50-3"
       d="m 147.3662,150.25274 c 0,-0.68959 -0.27398,-1.35086 -0.76156,-1.83844 -0.48758,-0.48758 -1.14885,-0.76156 -1.83844,-0.76156 -0.6896,0 -1.35087,0.27398 -1.83844,0.76156 -0.48759,0.48758 -0.76157,1.14885 -0.76157,1.83844 0,0.6896 0.27398,1.35087 0.76157,1.83845 0.48757,0.48758 1.14884,0.76156 1.83844,0.76156 0.68959,0 1.35086,-0.27398 1.83844,-0.76156 0.48758,-0.48758 0.76156,-1.14885 0.76156,-1.83845 z"
       style="fill:none;stroke:#000000;stroke-width:0.176389;stroke-linecap:round;stroke-linejoin:round;stroke-miterlimit:10;stroke-dasharray:none;stroke-opacity:1" />
    <path
       id="path51-5"
       d="m 147.3662,124.25278 c 0,-0.68959 -0.27398,-1.35086 -0.76156,-1.83844 -0.48758,-0.48758 -1.14885,-0.76157 -1.83844,-0.76157 -0.6896,0 -1.35087,0.27399 -1.83844,0.76157 -0.48759,0.48758 -0.76157,1.14885 -0.76157,1.83844 0,0.6896 0.27398,1.35087 0.76157,1.83845 0.48757,0.48758 1.14884,0.76156 1.83844,0.76156 0.68959,0 1.35086,-0.27398 1.83844,-0.76156 0.48758,-0.48758 0.76156,-1.14885 0.76156,-1.83845 z"
       style="fill:none;stroke:#000000;stroke-width:0.176389;stroke-linecap:round;stroke-linejoin:round;stroke-miterlimit:10;stroke-dasharray:none;stroke-opacity:1" />
    <path
       id="path52-1"
       d="M 148.01619,153.50274 V 121.00279"
       style="fill:none;stroke:#000000;stroke-width:0.176389;stroke-linecap:round;stroke-linejoin:round;stroke-miterlimit:10;stroke-dasharray:none;stroke-opacity:1" />
    <path
       id="path53-4"
       d="m 153.86619,124.25278 c 0,-0.68959 -0.27398,-1.35086 -0.76156,-1.83844 -0.48758,-0.48758 -1.14885,-0.76157 -1.83844,-0.76157 -0.6896,0 -1.35087,0.27399 -1.83845,0.76157 -0.48758,0.48758 -0.76156,1.14885 -0.76156,1.83844 0,0.6896 0.27398,1.35087 0.76156,1.83845 0.48758,0.48758 1.14885,0.76156 1.83845,0.76156 0.68959,0 1.35086,-0.27398 1.83844,-0.76156 0.48758,-0.48758 0.76156,-1.14885 0.76156,-1.83845 z"
       style="fill:#4c4c4c;fill-opacity:1;fill-rule:nonzero;stroke:none;stroke-width:0.352778" />
    <path
       id="path54-2"
       d="m 153.86619,150.25274 c 0,-0.68959 -0.27398,-1.35086 -0.76156,-1.83844 -0.48758,-0.48758 -1.14885,-0.76156 -1.83844,-0.76156 -0.6896,0 -1.35087,0.27398 -1.83845,0.76156 -0.48758,0.48758 -0.76156,1.14885 -0.76156,1.83844 0,0.6896 0.27398,1.35087 0.76156,1.83845 0.48758,0.48758 1.14885,0.76156 1.83845,0.76156 0.68959,0 1.35086,-0.27398 1.83844,-0.76156 0.48758,-0.48758 0.76156,-1.14885 0.76156,-1.83845 z"
       style="fill:none;stroke:#000000;stroke-width:0.176389;stroke-linecap:round;stroke-linejoin:round;stroke-miterlimit:10;stroke-dasharray:none;stroke-opacity:1" />
    <path
       id="path55-6"
       d="m 153.86619,124.25278 c 0,-0.68959 -0.27398,-1.35086 -0.76156,-1.83844 -0.48758,-0.48758 -1.14885,-0.76157 -1.83844,-0.76157 -0.6896,0 -1.35087,0.27399 -1.83845,0.76157 -0.48758,0.48758 -0.76156,1.14885 -0.76156,1.83844 0,0.6896 0.27398,1.35087 0.76156,1.83845 0.48758,0.48758 1.14885,0.76156 1.83845,0.76156 0.68959,0 1.35086,-0.27398 1.83844,-0.76156 0.48758,-0.48758 0.76156,-1.14885 0.76156,-1.83845 z"
       style="fill:none;stroke:#000000;stroke-width:0.176389;stroke-linecap:round;stroke-linejoin:round;stroke-miterlimit:10;stroke-dasharray:none;stroke-opacity:1" />
    <path
       id="path56-1"
       d="M 154.51618,153.50274 V 121.00279"
       style="fill:none;stroke:#000000;stroke-width:0.176389;stroke-linecap:round;stroke-linejoin:round;stroke-miterlimit:10;stroke-dasharray:none;stroke-opacity:1" />
    <path
       id="path57-9"
       d="m 160.36619,124.25278 c 0,-0.68959 -0.27399,-1.35086 -0.76157,-1.83844 -0.48758,-0.48758 -1.14885,-0.76157 -1.83844,-0.76157 -0.6896,0 -1.35087,0.27399 -1.83845,0.76157 -0.48758,0.48758 -0.76156,1.14885 -0.76156,1.83844 0,0.6896 0.27398,1.35087 0.76156,1.83845 0.48758,0.48758 1.14885,0.76156 1.83845,0.76156 0.68959,0 1.35086,-0.27398 1.83844,-0.76156 0.48758,-0.48758 0.76157,-1.14885 0.76157,-1.83845 z"
       style="fill:#4c4c4c;fill-opacity:1;fill-rule:nonzero;stroke:none;stroke-width:0.352778" />
    <path
       id="path58-9"
       d="m 160.36619,150.25274 c 0,-0.68959 -0.27399,-1.35086 -0.76157,-1.83844 -0.48758,-0.48758 -1.14885,-0.76156 -1.83844,-0.76156 -0.6896,0 -1.35087,0.27398 -1.83845,0.76156 -0.48758,0.48758 -0.76156,1.14885 -0.76156,1.83844 0,0.6896 0.27398,1.35087 0.76156,1.83845 0.48758,0.48758 1.14885,0.76156 1.83845,0.76156 0.68959,0 1.35086,-0.27398 1.83844,-0.76156 0.48758,-0.48758 0.76157,-1.14885 0.76157,-1.83845 z"
       style="fill:none;stroke:#000000;stroke-width:0.176389;stroke-linecap:round;stroke-linejoin:round;stroke-miterlimit:10;stroke-dasharray:none;stroke-opacity:1" />
    <path
       id="path59-7"
       d="m 160.36619,124.25278 c 0,-0.68959 -0.27399,-1.35086 -0.76157,-1.83844 -0.48758,-0.48758 -1.14885,-0.76157 -1.83844,-0.76157 -0.6896,0 -1.35087,0.27399 -1.83845,0.76157 -0.48758,0.48758 -0.76156,1.14885 -0.76156,1.83844 0,0.6896 0.27398,1.35087 0.76156,1.83845 0.48758,0.48758 1.14885,0.76156 1.83845,0.76156 0.68959,0 1.35086,-0.27398 1.83844,-0.76156 0.48758,-0.48758 0.76157,-1.14885 0.76157,-1.83845 z"
       style="fill:none;stroke:#000000;stroke-width:0.176389;stroke-linecap:round;stroke-linejoin:round;stroke-miterlimit:10;stroke-dasharray:none;stroke-opacity:1" />
    <path
       id="path60-3"
       d="M 161.01617,153.50274 V 121.00279"
       style="fill:none;stroke:#000000;stroke-width:0.176389;stroke-linecap:round;stroke-linejoin:round;stroke-miterlimit:10;stroke-dasharray:none;stroke-opacity:1" />
    <path
       id="path61-3"
       d="m 166.86618,124.25278 c 0,-0.68959 -0.27399,-1.35086 -0.76157,-1.83844 -0.48758,-0.48758 -1.14885,-0.76157 -1.83844,-0.76157 -0.6896,0 -1.35087,0.27399 -1.83845,0.76157 -0.48758,0.48758 -0.76156,1.14885 -0.76156,1.83844 0,0.6896 0.27398,1.35087 0.76156,1.83845 0.48758,0.48758 1.14885,0.76156 1.83845,0.76156 0.68959,0 1.35086,-0.27398 1.83844,-0.76156 0.48758,-0.48758 0.76157,-1.14885 0.76157,-1.83845 z"
       style="fill:#4c4c4c;fill-opacity:1;fill-rule:nonzero;stroke:none;stroke-width:0.352778" />
    <path
       id="path62-4"
       d="m 166.86618,150.25274 c 0,-0.68959 -0.27399,-1.35086 -0.76157,-1.83844 -0.48758,-0.48758 -1.14885,-0.76156 -1.83844,-0.76156 -0.6896,0 -1.35087,0.27398 -1.83845,0.76156 -0.48758,0.48758 -0.76156,1.14885 -0.76156,1.83844 0,0.6896 0.27398,1.35087 0.76156,1.83845 0.48758,0.48758 1.14885,0.76156 1.83845,0.76156 0.68959,0 1.35086,-0.27398 1.83844,-0.76156 0.48758,-0.48758 0.76157,-1.14885 0.76157,-1.83845 z"
       style="fill:none;stroke:#000000;stroke-width:0.176389;stroke-linecap:round;stroke-linejoin:round;stroke-miterlimit:10;stroke-dasharray:none;stroke-opacity:1" />
    <path
       id="path63-8"
       d="m 166.86618,124.25278 c 0,-0.68959 -0.27399,-1.35086 -0.76157,-1.83844 -0.48758,-0.48758 -1.14885,-0.76157 -1.83844,-0.76157 -0.6896,0 -1.35087,0.27399 -1.83845,0.76157 -0.48758,0.48758 -0.76156,1.14885 -0.76156,1.83844 0,0.6896 0.27398,1.35087 0.76156,1.83845 0.48758,0.48758 1.14885,0.76156 1.83845,0.76156 0.68959,0 1.35086,-0.27398 1.83844,-0.76156 0.48758,-0.48758 0.76157,-1.14885 0.76157,-1.83845 z"
       style="fill:none;stroke:#000000;stroke-width:0.176389;stroke-linecap:round;stroke-linejoin:round;stroke-miterlimit:10;stroke-dasharray:none;stroke-opacity:1" />
    <path
       id="path64-1"
       d="M 167.51616,153.50274 V 121.00279"
       style="fill:none;stroke:#000000;stroke-width:0.176389;stroke-linecap:round;stroke-linejoin:round;stroke-miterlimit:10;stroke-dasharray:none;stroke-opacity:1" />
    <path
       id="path65-3"
       d="m 173.36617,124.25278 c 0,-0.68959 -0.27399,-1.35086 -0.76157,-1.83844 -0.48758,-0.48758 -1.14885,-0.76157 -1.83844,-0.76157 -0.6896,0 -1.35087,0.27399 -1.83844,0.76157 -0.48759,0.48758 -0.76157,1.14885 -0.76157,1.83844 0,0.6896 0.27398,1.35087 0.76157,1.83845 0.48757,0.48758 1.14884,0.76156 1.83844,0.76156 0.68959,0 1.35086,-0.27398 1.83844,-0.76156 0.48758,-0.48758 0.76157,-1.14885 0.76157,-1.83845 z"
       style="fill:#4c4c4c;fill-opacity:1;fill-rule:nonzero;stroke:none;stroke-width:0.352778" />
    <path
       id="path66-2"
       d="m 173.36617,150.25274 c 0,-0.68959 -0.27399,-1.35086 -0.76157,-1.83844 -0.48758,-0.48758 -1.14885,-0.76156 -1.83844,-0.76156 -0.6896,0 -1.35087,0.27398 -1.83844,0.76156 -0.48759,0.48758 -0.76157,1.14885 -0.76157,1.83844 0,0.6896 0.27398,1.35087 0.76157,1.83845 0.48757,0.48758 1.14884,0.76156 1.83844,0.76156 0.68959,0 1.35086,-0.27398 1.83844,-0.76156 0.48758,-0.48758 0.76157,-1.14885 0.76157,-1.83845 z"
       style="fill:none;stroke:#000000;stroke-width:0.176389;stroke-linecap:round;stroke-linejoin:round;stroke-miterlimit:10;stroke-dasharray:none;stroke-opacity:1" />
    <path
       id="path67-3"
       d="m 173.36617,124.25278 c 0,-0.68959 -0.27399,-1.35086 -0.76157,-1.83844 -0.48758,-0.48758 -1.14885,-0.76157 -1.83844,-0.76157 -0.6896,0 -1.35087,0.27399 -1.83844,0.76157 -0.48759,0.48758 -0.76157,1.14885 -0.76157,1.83844 0,0.6896 0.27398,1.35087 0.76157,1.83845 0.48757,0.48758 1.14884,0.76156 1.83844,0.76156 0.68959,0 1.35086,-0.27398 1.83844,-0.76156 0.48758,-0.48758 0.76157,-1.14885 0.76157,-1.83845 z"
       style="fill:none;stroke:#000000;stroke-width:0.176389;stroke-linecap:round;stroke-linejoin:round;stroke-miterlimit:10;stroke-dasharray:none;stroke-opacity:1" />
    <path
       id="path68-6"
       d="M 174.01615,153.50274 V 121.00279"
       style="fill:none;stroke:#000000;stroke-width:0.176389;stroke-linecap:round;stroke-linejoin:round;stroke-miterlimit:10;stroke-dasharray:none;stroke-opacity:1" />
    <path
       id="path69-6"
       d="m 179.86616,124.25278 c 0,-0.68959 -0.27399,-1.35086 -0.76157,-1.83844 -0.48758,-0.48758 -1.14885,-0.76157 -1.83844,-0.76157 -0.6896,0 -1.35087,0.27399 -1.83844,0.76157 -0.48759,0.48758 -0.76157,1.14885 -0.76157,1.83844 0,0.6896 0.27398,1.35087 0.76157,1.83845 0.48757,0.48758 1.14884,0.76156 1.83844,0.76156 0.68959,0 1.35086,-0.27398 1.83844,-0.76156 0.48758,-0.48758 0.76157,-1.14885 0.76157,-1.83845 z"
       style="fill:#4c4c4c;fill-opacity:1;fill-rule:nonzero;stroke:none;stroke-width:0.352778" />
    <path
       id="path70-3"
       d="m 179.86616,150.25274 c 0,-0.68959 -0.27399,-1.35086 -0.76157,-1.83844 -0.48758,-0.48758 -1.14885,-0.76156 -1.83844,-0.76156 -0.6896,0 -1.35087,0.27398 -1.83844,0.76156 -0.48759,0.48758 -0.76157,1.14885 -0.76157,1.83844 0,0.6896 0.27398,1.35087 0.76157,1.83845 0.48757,0.48758 1.14884,0.76156 1.83844,0.76156 0.68959,0 1.35086,-0.27398 1.83844,-0.76156 0.48758,-0.48758 0.76157,-1.14885 0.76157,-1.83845 z"
       style="fill:none;stroke:#000000;stroke-width:0.176389;stroke-linecap:round;stroke-linejoin:round;stroke-miterlimit:10;stroke-dasharray:none;stroke-opacity:1" />
    <path
       id="path71-7"
       d="m 179.86616,124.25278 c 0,-0.68959 -0.27399,-1.35086 -0.76157,-1.83844 -0.48758,-0.48758 -1.14885,-0.76157 -1.83844,-0.76157 -0.6896,0 -1.35087,0.27399 -1.83844,0.76157 -0.48759,0.48758 -0.76157,1.14885 -0.76157,1.83844 0,0.6896 0.27398,1.35087 0.76157,1.83845 0.48757,0.48758 1.14884,0.76156 1.83844,0.76156 0.68959,0 1.35086,-0.27398 1.83844,-0.76156 0.48758,-0.48758 0.76157,-1.14885 0.76157,-1.83845 z"
       style="fill:none;stroke:#000000;stroke-width:0.176389;stroke-linecap:round;stroke-linejoin:round;stroke-miterlimit:10;stroke-dasharray:none;stroke-opacity:1" />
    <path
       id="path72-6"
       d="M 180.51615,153.50274 V 121.00279"
       style="fill:none;stroke:#000000;stroke-width:0.176389;stroke-linecap:round;stroke-linejoin:round;stroke-miterlimit:10;stroke-dasharray:none;stroke-opacity:1" />
    <path
       id="path73-2"
       d="m 128.51622,153.50274 h 51.99993"
       style="fill:none;stroke:#000000;stroke-width:0.176389;stroke-linecap:round;stroke-linejoin:round;stroke-miterlimit:10;stroke-dasharray:none;stroke-opacity:1" />
    <path
       id="path74-0"
       d="m 128.51622,147.00275 h 51.99993"
       style="fill:none;stroke:#000000;stroke-width:0.176389;stroke-linecap:round;stroke-linejoin:round;stroke-miterlimit:10;stroke-dasharray:none;stroke-opacity:1" />
    <path
       id="path75-0"
       d="m 128.51622,140.50276 h 51.99993"
       style="fill:none;stroke:#000000;stroke-width:0.176389;stroke-linecap:round;stroke-linejoin:round;stroke-miterlimit:10;stroke-dasharray:none;stroke-opacity:1" />
    <path
       id="path76-5"
       d="m 128.51622,134.00277 h 51.99993"
       style="fill:none;stroke:#000000;stroke-width:0.176389;stroke-linecap:round;stroke-linejoin:round;stroke-miterlimit:10;stroke-dasharray:none;stroke-opacity:1" />
    <path
       id="path77-0"
       d="m 128.51622,127.50278 h 51.99993"
       style="fill:none;stroke:#000000;stroke-width:0.176389;stroke-linecap:round;stroke-linejoin:round;stroke-miterlimit:10;stroke-dasharray:none;stroke-opacity:1" />
    <path
       id="path78-2"
       d="m 128.51622,121.00279 h 51.99993"
       style="fill:none;stroke:#000000;stroke-width:0.176389;stroke-linecap:round;stroke-linejoin:round;stroke-miterlimit:10;stroke-dasharray:none;stroke-opacity:1" />
  </g>
</svg>
