<?xml version="1.0" encoding="UTF-8" standalone="no"?>
<!-- Created with Inkscape (http://www.inkscape.org/) -->

<svg
   width="24.461426mm"
   height="24.268007mm"
   viewBox="0 0 24.461425 24.268007"
   version="1.1"
   id="svg1"
   xml:space="preserve"
   xmlns="http://www.w3.org/2000/svg"
   xmlns:svg="http://www.w3.org/2000/svg"><defs
     id="defs1" /><g
     id="g357"
     transform="matrix(0.26458333,0,0,0.26458335,-1599.8119,-58.949806)"><path
       id="path364"
       d="M 0,0 H 57.783"
       style="fill:none;stroke:#000000;stroke-width:0.697;stroke-linecap:butt;stroke-linejoin:miter;stroke-miterlimit:10;stroke-dasharray:none;stroke-opacity:1"
       transform="matrix(1.6,0,0,-1.6,6046.5333,223.36)" /><path
       id="path365"
       d="M 0,0 V 18.445"
       style="fill:none;stroke:#000000;stroke-width:0.697;stroke-linecap:butt;stroke-linejoin:miter;stroke-miterlimit:10;stroke-dasharray:none;stroke-opacity:1"
       transform="matrix(1.6,0,0,-1.6,6047.0917,253.4288)" /><path
       id="path366"
       d="m 0.94774219,-0.77041406 c 0.009766,0 0.0292969,0 0.0488281,0 0.33203131,0 0.57617191,-0.24414064 0.57617191,-0.57617184 0,-0.3222657 -0.2441406,-0.5761719 -0.57617191,-0.5761719 -0.33203125,0 -0.57617187,0.2539062 -0.57617187,0.5761719 0,1.04492184 1.09374998,1.56249996 2.00195318,1.56249996 1.0839843,0 2.1289062,-0.79101562 2.1289062,-1.93359376 0,-0.9277344 -0.8105469,-1.6113281 -1.6796875,-1.7675781 0.7714844,-0.2539063 1.4160156,-0.9277344 1.4160156,-1.7773438 0,-0.9179687 -1.0839843,-1.3671875 -1.8652343,-1.3671875 -0.8007813,0 -1.73828131,0.4785157 -1.73828131,1.3769532 0,0.3027343 0.234375,0.5371093 0.52734381,0.5371093 0.3027343,0 0.5371093,-0.234375 0.5371093,-0.5371093 0,-0.2929688 -0.234375,-0.5273438 -0.5371093,-0.5273438 -0.019531,0 -0.048828,0.00977 -0.068359,0.00977 0.2832031,-0.4003906 0.8105469,-0.5761718 1.2792969,-0.5761718 0.6445312,0 0.9082031,0.5078125 0.9082031,1.0839843 0,0.6054688 -0.2734375,1.6308594 -1.0253906,1.6308594 l -0.546875,0.039063 c -0.058594,0 -0.097656,0.039063 -0.097656,0.078125 v 0.087891 c 0,0.048828 0.039063,0.087891 0.097656,0.087891 h 0.6542968 c 0.859375,0 1.0742188,0.9472656 1.0742188,1.6308593 0,0.6640625 -0.2050781,1.61132816 -1.0644531,1.61132816 -0.546875,0 -1.1523438,-0.20507812 -1.47460943,-0.67382812 z m 0,0"
       style="fill:#000000;fill-opacity:1;fill-rule:nonzero;stroke:none"
       aria-label="3"
       transform="matrix(1.6,0,0,1.6,6058.0101,245.1936)" /><path
       id="path367"
       d="M 0,0 V 18.445"
       style="fill:none;stroke:#000000;stroke-width:0.299;stroke-linecap:butt;stroke-linejoin:miter;stroke-miterlimit:10;stroke-dasharray:none;stroke-opacity:1"
       transform="matrix(1.6,0,0,-1.6,6076.5797,253.4288)" /><path
       id="path368"
       d="M 0,0 V 18.445"
       style="fill:none;stroke:#000000;stroke-width:0.299;stroke-linecap:butt;stroke-linejoin:miter;stroke-miterlimit:10;stroke-dasharray:none;stroke-opacity:1"
       transform="matrix(1.6,0,0,-1.6,6108.9397,253.4288)" /><path
       id="path369"
       d="m 2.4893008,0.21591406 c 1.2304687,0 2.0605469,-1.07421875 2.0605469,-2.25585936 0,-1.1328125 -0.7519532,-2.2363281 -1.9726563,-2.2363281 -0.5761719,0 -1.0058594,0.4101562 -1.2207031,0.9277343 0,-0.6835937 0.019531,-1.40625 0.3222656,-2.0214843 0.2734375,-0.5175782 0.7421875,-0.9765625 1.3574219,-0.9765625 0.3125,0 0.6445312,0.087891 0.8398437,0.3515625 -0.019531,0 -0.029297,0 -0.048828,0 -0.2734375,0 -0.4785156,0.2050781 -0.4785156,0.4785156 0,0.2636719 0.2050781,0.4785156 0.4785156,0.4785156 0.2636719,0 0.4785156,-0.2148437 0.4785156,-0.4785156 0,-0.7421875 -0.5859375,-1.1132813 -1.2695312,-1.1132813 -1.71875,0 -2.61718752,1.9140625 -2.61718752,3.4179688 0,1.328125 0.33203125,3.42773436 2.07031242,3.42773436 z m 0,-0.3125 c -0.9570313,0 -1.1132813,-1.19140626 -1.1132813,-1.90429686 0,-0.019531 0.00977,-0.029297 0.00977,-0.048828 -0.00977,-0.068359 -0.00977,-0.1269532 -0.00977,-0.2050782 0,-0.703125 0.2832032,-1.7578125 1.1621094,-1.7578125 1.0742188,0 1.0742188,1.1914063 1.0742188,1.9726563 0,0.8203125 -0.029297,1.94335936 -1.1230469,1.94335926 z m 0,0"
       style="fill:#000000;fill-opacity:1;fill-rule:nonzero;stroke:none"
       aria-label="6"
       transform="matrix(1.6,0,0,1.6,6119.5397,245.1936)" /><path
       id="path370"
       d="M 0,0 V 18.445"
       style="fill:none;stroke:#000000;stroke-width:0.697;stroke-linecap:butt;stroke-linejoin:miter;stroke-miterlimit:10;stroke-dasharray:none;stroke-opacity:1"
       transform="matrix(1.6,0,0,-1.6,6138.4277,253.4288)" /><path
       id="path371"
       d="M 0,0 H 57.783"
       style="fill:none;stroke:#000000;stroke-width:0.299;stroke-linecap:butt;stroke-linejoin:miter;stroke-miterlimit:10;stroke-dasharray:none;stroke-opacity:1"
       transform="matrix(1.6,0,0,-1.6,6046.5333,253.6688)" /><path
       id="path372"
       d="M 0,0 V 18.445"
       style="fill:none;stroke:#000000;stroke-width:0.697;stroke-linecap:butt;stroke-linejoin:miter;stroke-miterlimit:10;stroke-dasharray:none;stroke-opacity:1"
       transform="matrix(1.6,0,0,-1.6,6047.0917,283.4192)" /><path
       id="path373"
       d="M 0,0 V 18.445"
       style="fill:none;stroke:#000000;stroke-width:0.299;stroke-linecap:butt;stroke-linejoin:miter;stroke-miterlimit:10;stroke-dasharray:none;stroke-opacity:1"
       transform="matrix(1.6,0,0,-1.6,6076.5797,283.4192)" /><path
       id="path374"
       d="M 0,0 V 18.445"
       style="fill:none;stroke:#000000;stroke-width:0.299;stroke-linecap:butt;stroke-linejoin:miter;stroke-miterlimit:10;stroke-dasharray:none;stroke-opacity:1"
       transform="matrix(1.6,0,0,-1.6,6108.9397,283.4192)" /><path
       id="path375"
       d="M 0,0 V 18.445"
       style="fill:none;stroke:#000000;stroke-width:0.697;stroke-linecap:butt;stroke-linejoin:miter;stroke-miterlimit:10;stroke-dasharray:none;stroke-opacity:1"
       transform="matrix(1.6,0,0,-1.6,6138.4277,283.4192)" /><path
       id="path376"
       d="M 0,0 H 57.783"
       style="fill:none;stroke:#000000;stroke-width:0.299;stroke-linecap:butt;stroke-linejoin:miter;stroke-miterlimit:10;stroke-dasharray:none;stroke-opacity:1"
       transform="matrix(1.6,0,0,-1.6,6046.5333,283.6576)" /><path
       id="path377"
       d="M 0,0 V 18.445"
       style="fill:none;stroke:#000000;stroke-width:0.697;stroke-linecap:butt;stroke-linejoin:miter;stroke-miterlimit:10;stroke-dasharray:none;stroke-opacity:1"
       transform="matrix(1.6,0,0,-1.6,6047.0917,313.408)" /><path
       id="path378"
       d="m 0.92653516,-5.78125e-4 c 0.54687504,0 1.08398434,-0.029296875 1.63085934,-0.029296875 0.546875,0 1.0839844,0.029296875 1.6308594,0.029296875 V -0.35214062 c -0.2734375,0 -1.2402344,0 -1.2402344,-0.3125 V -6.5435469 c 0,-0.039063 -0.058594,-0.087891 -0.097656,-0.087891 H 2.7038789 c -0.4785156,0.4882813 -1.171875,0.6347656 -1.83593749,0.6347656 v 0.3515625 c 0.45898439,0 0.91796879,-0.058594 1.29882809,-0.2539062 v 5.23437498 c 0,0.3125 -0.9667968,0.3125 -1.24023434,0.3125 z m 4.55322264,0 H 9.1711641 L 9.4543672,-1.7779219 H 9.1613984 C 9.1125703,-1.4556562 9.0442109,-0.98690625 8.9270234,-0.85995312 8.8684297,-0.811125 7.8430391,-0.811125 7.2473359,-0.811125 H 6.2903047 l 1.1230469,-1.0839844 c 0.8105468,-0.7714843 2.0410156,-1.5332031 2.0410156,-2.7832031 0,-1.2109375 -0.9863281,-1.953125 -2.1191406,-1.953125 -1.0058594,0 -1.8554688,0.7910156 -1.8554688,1.8066406 0,0.3125 0.234375,0.546875 0.546875,0.546875 0.3027344,0 0.5371094,-0.234375 0.5371094,-0.546875 0,-0.3027343 -0.234375,-0.5371093 -0.5371094,-0.5371093 -0.039063,0 -0.068359,0 -0.1074219,0.00977 0.1855469,-0.5371094 0.6835938,-0.9375 1.2597657,-0.9375 0.8886718,0 1.328125,0.8007812 1.328125,1.6113281 0,1.0644531 -0.8007813,1.9042969 -1.4648438,2.6464844 l -1.5429687,1.70898435 c -0.00977,0.009766 -0.019531,0.0390625 -0.019531,0.0488281 z m 0,0"
       style="fill:#000000;fill-opacity:1;fill-rule:nonzero;stroke:none"
       aria-label="12"
       transform="matrix(1.6,0,0,1.6,6054.0245,305.1728)" /><path
       id="path379"
       d="M 0,0 V 18.445"
       style="fill:none;stroke:#000000;stroke-width:0.299;stroke-linecap:butt;stroke-linejoin:miter;stroke-miterlimit:10;stroke-dasharray:none;stroke-opacity:1"
       transform="matrix(1.6,0,0,-1.6,6076.5797,313.408)" /><path
       id="path380"
       d="M 0,0 V 18.445"
       style="fill:none;stroke:#000000;stroke-width:0.299;stroke-linecap:butt;stroke-linejoin:miter;stroke-miterlimit:10;stroke-dasharray:none;stroke-opacity:1"
       transform="matrix(1.6,0,0,-1.6,6108.9397,313.408)" /><path
       id="path381"
       d="m 0.92756641,-5.78125e-4 c 0.54687499,0 1.08398439,-0.029296875 1.63085939,-0.029296875 0.546875,0 1.0839844,0.029296875 1.6308594,0.029296875 V -0.35214062 c -0.2734375,0 -1.2402344,0 -1.2402344,-0.3125 V -6.5435469 c 0,-0.039063 -0.058594,-0.087891 -0.097656,-0.087891 H 2.7049102 c -0.4785157,0.4882813 -1.171875,0.6347656 -1.83593754,0.6347656 v 0.3515625 c 0.45898434,0 0.91796874,-0.058594 1.29882814,-0.2539062 v 5.23437498 c 0,0.3125 -0.9667969,0.3125 -1.24023439,0.3125 z M 5.8494414,-1.1333906 c 0,0 0.078125,0.019531 0.1367188,0.019531 0.2929687,0 0.5175781,-0.2246093 0.5175781,-0.5078125 0,-0.2929687 -0.2246094,-0.5078125 -0.5175781,-0.5078125 -0.2929688,0 -0.5078125,0.2148438 -0.5078125,0.5078125 0,0.98632815 0.78125,1.83593753 1.7871093,1.83593753 1.2109375,0 2.1875,-1.00585938 2.1875,-2.21679683 0,-1.0546875 -0.7226562,-2.1777344 -1.8847656,-2.1777344 -0.5664062,0 -0.8300781,0.15625 -1.25,0.4980469 v -1.8847657 c 0.2636719,0.068359 0.5371094,0.1074219 0.8105469,0.1074219 0.7519531,0 1.4648437,-0.3613281 1.9140625,-0.9570312 0.00977,0 0.019531,-0.029297 0.019531,-0.048828 v -0.087891 c 0,-0.039063 -0.048828,-0.078125 -0.087891,-0.078125 -0.019531,0 -0.019531,0 -0.029297,0 -0.4492187,0.2050781 -0.9375,0.3125 -1.4257812,0.3125 -0.4980469,0 -0.9863281,-0.1074219 -1.4257813,-0.3125 -0.019531,0 -0.019531,0 -0.029297,0 -0.048828,0 -0.097656,0.039063 -0.097656,0.078125 v 3.3300781 c 0,0.039063 0.058594,0.087891 0.097656,0.087891 H 6.171707 c 0.1367188,-0.029297 0.390625,-0.7910157 1.3867188,-0.7910157 0.4785156,0 0.78125,0.46875 0.8886719,0.8789063 0.078125,0.3320312 0.078125,0.6933594 0.078125,1.0351562 0,0.8398438 -0.1953125,1.91406253 -1.2597657,1.91406253 -0.6445312,0 -1.2207031,-0.4296875 -1.4160156,-1.03515613 z m 0,0"
       style="fill:#000000;fill-opacity:1;fill-rule:nonzero;stroke:none"
       aria-label="15"
       transform="matrix(1.6,0,0,1.6,6115.5541,305.1728)" /><path
       id="path382"
       d="M 0,0 V 18.445"
       style="fill:none;stroke:#000000;stroke-width:0.697;stroke-linecap:butt;stroke-linejoin:miter;stroke-miterlimit:10;stroke-dasharray:none;stroke-opacity:1"
       transform="matrix(1.6,0,0,-1.6,6138.4277,313.408)" /><path
       id="path383"
       d="M 0,0 H 57.783"
       style="fill:none;stroke:#000000;stroke-width:0.697;stroke-linecap:butt;stroke-linejoin:miter;stroke-miterlimit:10;stroke-dasharray:none;stroke-opacity:1"
       transform="matrix(1.6,0,0,-1.6,6046.5333,313.9664)" /></g></svg>
