<?xml version="1.0" encoding="UTF-8" standalone="no"?>
<!-- Created with Inkscape (http://www.inkscape.org/) -->

<svg
   width="19.423605mm"
   height="20.270384mm"
   viewBox="0 0 19.423605 20.270384"
   version="1.1"
   id="svg1"
   xmlns="http://www.w3.org/2000/svg"
   xmlns:svg="http://www.w3.org/2000/svg">
  <defs
     id="defs1" />
  <g
     id="layer1"
     transform="translate(9.7895911,-102.12913)">
    <path
       id="path60-7"
       d="m -6.9200982,118.68324 h 5.4827593 v -5.48276 h 5.4827593 v -5.48276 h 5.4827593 v -5.48276"
       style="fill:none;stroke:#000000;stroke-width:0.211667;stroke-linecap:round;stroke-linejoin:round;stroke-miterlimit:10;stroke-dasharray:none;stroke-opacity:1" />
    <path
       id="path61-15"
       d="m -6.9200982,118.68324 v -5.48276 h 5.4827593 v -5.48276 h 5.4827593 v -5.48276 h 5.4827593"
       style="fill:none;stroke:#000000;stroke-width:0.211667;stroke-linecap:round;stroke-linejoin:round;stroke-miterlimit:10;stroke-dasharray:none;stroke-opacity:1" />
    <path
       id="path62-5"
       d="m -4.0007969,119.97275 c 0,-0.0951 -0.00414,-0.0992 -0.099219,-0.0992 -0.2356445,0.23977 -0.5829102,0.23977 -0.7027995,0.23977 v 0.11989 c 0.074414,0 0.3059245,0 0.5084961,-0.0992 v 1.96371 c 0,0.14056 -0.00827,0.18603 -0.3638021,0.18603 h -0.1198893 v 0.11576 c 0.1364258,-0.0124 0.4754232,-0.0124 0.6283854,-0.0124 0.1570963,0 0.5002279,0 0.6366536,0.0124 v -0.11576 h -0.1240234 c -0.3513997,0 -0.3638021,-0.0455 -0.3638021,-0.18603 z m -4.9867757,-5.23482 c 0,-0.0951 -0.00414,-0.0992 -0.099219,-0.0992 -0.2356445,0.23978 -0.5829102,0.23978 -0.7027995,0.23978 v 0.11989 c 0.074414,0 0.3059244,0 0.5084961,-0.0992 v 1.96371 c 0,0.14056 -0.00827,0.18603 -0.363802,0.18603 h -0.119889 v 0.11576 c 0.1364255,-0.0124 0.4754231,-0.0124 0.6283853,-0.0124 0.1570964,0 0.5002279,0 0.6366537,0.0124 v -0.11576 h -0.1240235 c -0.3513997,0 -0.3638021,-0.0455 -0.3638021,-0.18603 z m 0,0"
       style="fill:#231f20;fill-opacity:1;fill-rule:nonzero;stroke:none;stroke-width:0.423333"
       aria-label="1&#10;1" />
  </g>
</svg>
