<?xml version="1.0" encoding="UTF-8" standalone="no"?>
<!-- Created with Inkscape (http://www.inkscape.org/) -->

<svg
   width="97.288773mm"
   height="15.01436mm"
   viewBox="0 0 97.288773 15.01436"
   version="1.1"
   id="svg1"
   xmlns="http://www.w3.org/2000/svg"
   xmlns:svg="http://www.w3.org/2000/svg">
  <defs
     id="defs1" />
  <g
     id="layer1"
     transform="translate(-6.6145786,-180.97499)">
    <path
       id="path41-4"
       d="M 6.6145786,181.60745 H 103.90335 v -0.63246 H 6.6145786 Z"
       style="fill:#000000;fill-opacity:1;fill-rule:nonzero;stroke:none;stroke-width:0.423333" />
    <path
       id="path42-5"
       d="m 6.6145786,188.35538 h 0.63246 v -6.74793 h -0.63246 z"
       style="fill:#000000;fill-opacity:1;fill-rule:nonzero;stroke:none;stroke-width:0.423333" />
    <path
       id="path43-6"
       d="m 11.576363,187.06539 c 0.157097,0 0.318327,-0.0124 0.483692,-0.0124 0.16123,0 0.318326,0.0124 0.479557,0.0124 v -0.14882 c -0.119889,0 -0.326595,0 -0.326595,-0.1323 v -0.74 c 0.128157,0.15709 0.314192,0.24804 0.516764,0.24804 0.520899,0 0.93431,-0.43821 0.93431,-0.95498 0,-0.48782 -0.355534,-0.95498 -0.872298,-0.95498 -0.223242,0 -0.44235,0.0951 -0.595313,0.26045 v -0.26045 l -0.620117,0.0455 v 0.14883 c 0.161231,0 0.326595,0 0.326595,0.17363 v 2.03398 c 0,0.1323 -0.206706,0.1323 -0.326595,0.1323 z m 0.636654,-1.22783 v -1.00872 c 0.107487,-0.19844 0.314192,-0.32246 0.537435,-0.32246 0.384472,0 0.549837,0.51676 0.549837,0.83095 0,0.34314 -0.190169,0.8475 -0.595313,0.8475 -0.219108,0 -0.401009,-0.15296 -0.491959,-0.34727 z m 2.868042,-2.4598 -0.475423,0.6656 0.05788,0.0537 0.628386,-0.5209 c 0.173632,-0.13642 -0.07855,-0.37207 -0.21084,-0.1943 z m -1.103809,2.45567 c 0,0.34726 0.401009,0.45888 0.677995,0.45888 0.235644,0 0.450618,-0.13229 0.558105,-0.34313 0.0124,0.16537 0.136426,0.32246 0.310059,0.32246 0.198437,0 0.363802,-0.16949 0.363802,-0.36793 v -0.26872 h -0.124023 v 0.26872 c 0,0.091 -0.03308,0.21911 -0.136426,0.21911 -0.111621,0 -0.144694,-0.12816 -0.144694,-0.21911 V 184.957 c 0,-0.38034 -0.401009,-0.59945 -0.740007,-0.59945 -0.268717,0 -0.644922,0.11575 -0.644922,0.43822 0,0.11575 0.09095,0.20257 0.202572,0.20257 0.115755,0 0.202572,-0.0868 0.202572,-0.20257 0,-0.0992 -0.07441,-0.20258 -0.186035,-0.20258 0.115755,-0.0951 0.281119,-0.12402 0.425813,-0.12402 0.264584,0 0.429948,0.25632 0.429948,0.49609 v 0.17364 c -0.421679,0 -1.194759,0.14469 -1.194759,0.69453 z m 0.338998,0 c 0,-0.42582 0.504362,-0.59118 0.855761,-0.59118 v 0.43822 c 0,0.27285 -0.214974,0.50436 -0.487825,0.50436 -0.194304,0 -0.367936,-0.15296 -0.367936,-0.3514 z m 1.712556,0.41341 c 0.157097,0 0.314193,-0.0124 0.475424,-0.0124 0.186035,0 0.37207,0.0124 0.553971,0.0124 v -0.14883 c -0.115755,0 -0.409277,0 -0.409277,-0.13229 v -0.69453 c 0,-0.29352 0.103352,-0.77722 0.479557,-0.77722 0.0083,0 0.01654,0 0.0248,0 -0.05374,0.0331 -0.08268,0.0951 -0.08268,0.1571 0,0.10749 0.08682,0.19017 0.190169,0.19017 0.107487,0 0.190169,-0.0827 0.190169,-0.19017 0,-0.16536 -0.169499,-0.26872 -0.322461,-0.26872 -0.256315,0 -0.417545,0.19017 -0.500227,0.41342 v -0.41342 l -0.599447,0.0455 v 0.14883 c 0.219108,0 0.326595,0 0.326595,0.23564 v 1.15342 c 0,0.13229 -0.206706,0.13229 -0.326595,0.13229 z m 3.080949,0 c 0.14056,0 0.28112,-0.0124 0.425814,-0.0124 0.165365,0 0.334863,0.0124 0.504362,0.0124 v -0.14883 c -0.124023,0 -0.314193,-0.0496 -0.314193,-0.2067 0,-0.0124 0,-0.0289 0.0041,-0.0413 l 0.186035,-0.54156 h 1.025261 l 0.227376,0.65732 c 0,0.008 0,0.0165 0,0.0207 0,0.11162 -0.272852,0.11162 -0.347266,0.11162 v 0.14883 c 0.206706,0 0.417546,-0.0124 0.628386,-0.0124 0.186035,0 0.363802,0.0124 0.545703,0.0124 v -0.14883 c -0.144694,0 -0.363802,0 -0.425814,-0.13229 l -0.921907,-2.69131 c -0.0083,-0.0289 -0.03721,-0.0455 -0.06615,-0.0455 h -0.05788 c -0.02894,0 -0.05788,0.0165 -0.06615,0.0455 l -0.8847,2.57555 c -0.06615,0.19431 -0.272852,0.24805 -0.463021,0.24805 z m 0.859896,-1.08727 0.458887,-1.34772 0.463021,1.34772 z m 0,0"
       style="fill:#000000;fill-opacity:1;fill-rule:nonzero;stroke:none;stroke-width:0.423333"
       aria-label="párA" />
    <path
       id="path44-8"
       d="m 26.481612,188.35538 v -6.74793"
       style="fill:none;stroke:#000000;stroke-width:0.253153;stroke-linecap:butt;stroke-linejoin:miter;stroke-miterlimit:10;stroke-dasharray:none;stroke-opacity:1" />
    <path
       id="path45-4"
       d="m 30.937455,187.06539 c 0.157096,0 0.318326,-0.0124 0.483691,-0.0124 0.16123,0 0.318327,0.0124 0.479557,0.0124 v -0.14882 c -0.119889,0 -0.326595,0 -0.326595,-0.1323 v -0.74 c 0.128158,0.15709 0.314193,0.24804 0.516765,0.24804 0.520898,0 0.934309,-0.43821 0.934309,-0.95498 0,-0.48782 -0.355533,-0.95498 -0.872298,-0.95498 -0.223242,0 -0.44235,0.0951 -0.595312,0.26045 v -0.26045 l -0.620117,0.0455 v 0.14883 c 0.16123,0 0.326595,0 0.326595,0.17363 v 2.03398 c 0,0.1323 -0.206706,0.1323 -0.326595,0.1323 z m 0.636653,-1.22783 v -1.00872 c 0.107487,-0.19844 0.314193,-0.32246 0.537435,-0.32246 0.384473,0 0.549837,0.51676 0.549837,0.83095 0,0.34314 -0.190169,0.8475 -0.595312,0.8475 -0.219108,0 -0.401009,-0.15296 -0.49196,-0.34727 z m 2.868042,-2.4598 -0.475423,0.6656 0.05788,0.0537 0.628385,-0.5209 c 0.173633,-0.13642 -0.07855,-0.37207 -0.21084,-0.1943 z m -1.103808,2.45567 c 0,0.34726 0.401009,0.45888 0.677994,0.45888 0.235645,0 0.450619,-0.13229 0.558106,-0.34313 0.0124,0.16537 0.136426,0.32246 0.310059,0.32246 0.198437,0 0.363802,-0.16949 0.363802,-0.36793 v -0.26872 h -0.124024 v 0.26872 c 0,0.091 -0.03308,0.21911 -0.136426,0.21911 -0.111621,0 -0.144694,-0.12816 -0.144694,-0.21911 V 184.957 c 0,-0.38034 -0.401009,-0.59945 -0.740006,-0.59945 -0.268718,0 -0.644922,0.11575 -0.644922,0.43822 0,0.11575 0.09095,0.20257 0.202572,0.20257 0.115755,0 0.202571,-0.0868 0.202571,-0.20257 0,-0.0992 -0.07441,-0.20258 -0.186035,-0.20258 0.115755,-0.0951 0.28112,-0.12402 0.425814,-0.12402 0.264583,0 0.429948,0.25632 0.429948,0.49609 v 0.17364 c -0.42168,0 -1.194759,0.14469 -1.194759,0.69453 z m 0.338997,0 c 0,-0.42582 0.504362,-0.59118 0.855762,-0.59118 v 0.43822 c 0,0.27285 -0.214974,0.50436 -0.487826,0.50436 -0.194303,0 -0.367936,-0.15296 -0.367936,-0.3514 z m 1.711523,0.41341 c 0.157097,0 0.314193,-0.0124 0.475424,-0.0124 0.186035,0 0.37207,0.0124 0.553971,0.0124 v -0.14883 c -0.115755,0 -0.409277,0 -0.409277,-0.13229 v -0.69453 c 0,-0.29352 0.103352,-0.77722 0.479557,-0.77722 0.0083,0 0.01653,0 0.0248,0 -0.05374,0.0331 -0.08268,0.0951 -0.08268,0.1571 0,0.10749 0.08682,0.19017 0.190169,0.19017 0.107487,0 0.190169,-0.0827 0.190169,-0.19017 0,-0.16536 -0.169499,-0.26872 -0.322461,-0.26872 -0.256315,0 -0.417545,0.19017 -0.500227,0.41342 v -0.41342 l -0.599447,0.0455 v 0.14883 c 0.219108,0 0.326595,0 0.326595,0.23564 v 1.15342 c 0,0.13229 -0.206706,0.13229 -0.326595,0.13229 z m 3.089217,0 h 1.670183 c 0.438216,0 0.930175,-0.28939 0.930175,-0.77721 0,-0.40101 -0.446484,-0.72761 -0.818554,-0.72761 0.326595,-0.0579 0.702799,-0.28939 0.702799,-0.65732 0,-0.47543 -0.525032,-0.71934 -0.934309,-0.71934 h -1.550294 v 0.14883 c 0.11989,0 0.434083,0 0.434083,0.13643 v 2.3151 c 0,0.13229 -0.314193,0.13229 -0.434083,0.13229 z m 0.797885,-0.28112 v -1.16169 h 0.810286 c 0.347266,0 0.553971,0.35554 0.553971,0.6656 0,0.33486 -0.268717,0.62838 -0.611848,0.62838 h -0.533301 c -0.11989,0 -0.219108,0 -0.219108,-0.13229 z m 0,-1.26917 v -1.04593 c 0,-0.13643 0.09922,-0.13643 0.219108,-0.13643 h 0.533301 c 0.30179,0 0.508496,0.28525 0.508496,0.57051 0,0.33486 -0.289388,0.61185 -0.628386,0.61185 z m 0,0"
       style="fill:#000000;fill-opacity:1;fill-rule:nonzero;stroke:none;stroke-width:0.423333"
       aria-label="párB" />
    <path
       id="path46-89"
       d="m 45.666655,188.35538 v -6.74793"
       style="fill:none;stroke:#000000;stroke-width:0.253153;stroke-linecap:butt;stroke-linejoin:miter;stroke-miterlimit:10;stroke-dasharray:none;stroke-opacity:1" />
    <path
       id="path47-2"
       d="m 50.121813,187.06539 c 0.157096,0 0.318327,-0.0124 0.483691,-0.0124 0.161231,0 0.318327,0.0124 0.479558,0.0124 v -0.14882 c -0.11989,0 -0.326595,0 -0.326595,-0.1323 v -0.74 c 0.128157,0.15709 0.314192,0.24804 0.516764,0.24804 0.520898,0 0.93431,-0.43821 0.93431,-0.95498 0,-0.48782 -0.355534,-0.95498 -0.872298,-0.95498 -0.223242,0 -0.442351,0.0951 -0.595313,0.26045 v -0.26045 l -0.620117,0.0455 v 0.14883 c 0.16123,0 0.326595,0 0.326595,0.17363 v 2.03398 c 0,0.1323 -0.206706,0.1323 -0.326595,0.1323 z m 0.636654,-1.22783 v -1.00872 c 0.107487,-0.19844 0.314192,-0.32246 0.537435,-0.32246 0.384472,0 0.549837,0.51676 0.549837,0.83095 0,0.34314 -0.190169,0.8475 -0.595313,0.8475 -0.219108,0 -0.401009,-0.15296 -0.491959,-0.34727 z m 2.869075,-2.4598 -0.475423,0.6656 0.05788,0.0537 0.628385,-0.5209 c 0.173633,-0.13642 -0.07855,-0.37207 -0.21084,-0.1943 z m -1.103808,2.45567 c 0,0.34726 0.401009,0.45888 0.677994,0.45888 0.235645,0 0.450619,-0.13229 0.558106,-0.34313 0.0124,0.16537 0.136426,0.32246 0.310058,0.32246 0.198438,0 0.363803,-0.16949 0.363803,-0.36793 v -0.26872 h -0.124024 v 0.26872 c 0,0.091 -0.03308,0.21911 -0.136426,0.21911 -0.111621,0 -0.144694,-0.12816 -0.144694,-0.21911 V 184.957 c 0,-0.38034 -0.401009,-0.59945 -0.740006,-0.59945 -0.268718,0 -0.644922,0.11575 -0.644922,0.43822 0,0.11575 0.09095,0.20257 0.202572,0.20257 0.115755,0 0.202571,-0.0868 0.202571,-0.20257 0,-0.0992 -0.07441,-0.20258 -0.186035,-0.20258 0.115755,-0.0951 0.28112,-0.12402 0.425814,-0.12402 0.264583,0 0.429948,0.25632 0.429948,0.49609 v 0.17364 c -0.42168,0 -1.194759,0.14469 -1.194759,0.69453 z m 0.338997,0 c 0,-0.42582 0.504362,-0.59118 0.855762,-0.59118 v 0.43822 c 0,0.27285 -0.214974,0.50436 -0.487826,0.50436 -0.194303,0 -0.367936,-0.15296 -0.367936,-0.3514 z m 1.711523,0.41341 c 0.157097,0 0.314193,-0.0124 0.475424,-0.0124 0.186035,0 0.37207,0.0124 0.553971,0.0124 v -0.14883 c -0.115755,0 -0.409277,0 -0.409277,-0.13229 v -0.69453 c 0,-0.29352 0.103353,-0.77722 0.479557,-0.77722 0.0083,0 0.01653,0 0.0248,0 -0.05374,0.0331 -0.08268,0.0951 -0.08268,0.1571 0,0.10749 0.08682,0.19017 0.190169,0.19017 0.107487,0 0.190169,-0.0827 0.190169,-0.19017 0,-0.16536 -0.169498,-0.26872 -0.322461,-0.26872 -0.256315,0 -0.417546,0.19017 -0.500228,0.41342 v -0.41342 l -0.599446,0.0455 v 0.14883 c 0.219108,0 0.326595,0 0.326595,0.23564 v 1.15342 c 0,0.13229 -0.206706,0.13229 -0.326595,0.13229 z m 3.907772,-0.45062 c -0.219108,-0.27698 -0.276986,-0.64492 -0.276986,-0.99219 0,-0.33899 0.05788,-0.70693 0.276986,-0.98805 0.190169,-0.24805 0.49196,-0.39274 0.802019,-0.39274 0.206705,0 0.396875,0.0868 0.545703,0.23151 0.181901,0.1819 0.347265,0.53743 0.347265,0.78962 0,0.0248 0.01654,0.0413 0.03721,0.0413 h 0.07441 c 0.01653,0 0.03307,-0.0165 0.03307,-0.0413 v -1.13689 c 0,-0.0165 -0.01653,-0.0331 -0.03307,-0.0331 h -0.02894 c -0.0124,0 -0.02067,0.008 -0.02894,0.0124 l -0.243913,0.34727 c -0.190169,-0.21911 -0.463021,-0.35967 -0.760677,-0.35967 -0.835091,0 -1.471745,0.7152 -1.471745,1.52962 0,0.81856 0.636654,1.53376 1.471745,1.53376 0.607715,0 1.09554,-0.5085 1.09554,-1.11208 0,-0.0165 -0.0124,-0.0413 -0.03307,-0.0413 h -0.04961 c -0.02067,0 -0.03721,0.0165 -0.03721,0.0331 0,0.51264 -0.380338,0.97566 -0.913639,0.97566 -0.310059,0 -0.615983,-0.14883 -0.806152,-0.39688 z m 0,0"
       style="fill:#000000;fill-opacity:1;fill-rule:nonzero;stroke:none;stroke-width:0.423333"
       aria-label="párC" />
    <path
       id="path48-07"
       d="m 64.910118,188.35538 v -6.74793"
       style="fill:none;stroke:#000000;stroke-width:0.253153;stroke-linecap:butt;stroke-linejoin:miter;stroke-miterlimit:10;stroke-dasharray:none;stroke-opacity:1" />
    <path
       id="path49-25"
       d="m 69.366117,187.06539 c 0.157096,0 0.318327,-0.0124 0.483691,-0.0124 0.161231,0 0.318327,0.0124 0.479557,0.0124 v -0.14882 c -0.119889,0 -0.326595,0 -0.326595,-0.1323 v -0.74 c 0.128158,0.15709 0.314193,0.24804 0.516765,0.24804 0.520898,0 0.93431,-0.43821 0.93431,-0.95498 0,-0.48782 -0.355534,-0.95498 -0.872299,-0.95498 -0.223242,0 -0.44235,0.0951 -0.595312,0.26045 v -0.26045 l -0.620117,0.0455 v 0.14883 c 0.16123,0 0.326595,0 0.326595,0.17363 v 2.03398 c 0,0.1323 -0.206706,0.1323 -0.326595,0.1323 z m 0.636653,-1.22783 v -1.00872 c 0.107487,-0.19844 0.314193,-0.32246 0.537435,-0.32246 0.384473,0 0.549838,0.51676 0.549838,0.83095 0,0.34314 -0.19017,0.8475 -0.595313,0.8475 -0.219108,0 -0.401009,-0.15296 -0.49196,-0.34727 z m 2.868042,-2.4598 -0.475423,0.6656 0.05788,0.0537 0.628385,-0.5209 c 0.173633,-0.13642 -0.07855,-0.37207 -0.21084,-0.1943 z m -1.103808,2.45567 c 0,0.34726 0.401009,0.45888 0.677995,0.45888 0.235644,0 0.450618,-0.13229 0.558105,-0.34313 0.0124,0.16537 0.136426,0.32246 0.310059,0.32246 0.198437,0 0.363802,-0.16949 0.363802,-0.36793 v -0.26872 h -0.124024 v 0.26872 c 0,0.091 -0.03308,0.21911 -0.136426,0.21911 -0.111621,0 -0.144694,-0.12816 -0.144694,-0.21911 V 184.957 c 0,-0.38034 -0.401009,-0.59945 -0.740006,-0.59945 -0.268717,0 -0.644922,0.11575 -0.644922,0.43822 0,0.11575 0.09095,0.20257 0.202572,0.20257 0.115755,0 0.202571,-0.0868 0.202571,-0.20257 0,-0.0992 -0.07441,-0.20258 -0.186035,-0.20258 0.115755,-0.0951 0.28112,-0.12402 0.425814,-0.12402 0.264583,0 0.429948,0.25632 0.429948,0.49609 v 0.17364 c -0.42168,0 -1.194759,0.14469 -1.194759,0.69453 z m 0.338997,0 c 0,-0.42582 0.504362,-0.59118 0.855762,-0.59118 v 0.43822 c 0,0.27285 -0.214974,0.50436 -0.487826,0.50436 -0.194303,0 -0.367936,-0.15296 -0.367936,-0.3514 z m 1.711523,0.41341 c 0.157097,0 0.314193,-0.0124 0.475424,-0.0124 0.186035,0 0.37207,0.0124 0.553971,0.0124 v -0.14883 c -0.115755,0 -0.409277,0 -0.409277,-0.13229 v -0.69453 c 0,-0.29352 0.103353,-0.77722 0.479557,-0.77722 0.0083,0 0.01654,0 0.0248,0 -0.05374,0.0331 -0.08268,0.0951 -0.08268,0.1571 0,0.10749 0.08682,0.19017 0.190169,0.19017 0.107487,0 0.190169,-0.0827 0.190169,-0.19017 0,-0.16536 -0.169498,-0.26872 -0.322461,-0.26872 -0.256315,0 -0.417545,0.19017 -0.500227,0.41342 v -0.41342 l -0.599447,0.0455 v 0.14883 c 0.219108,0 0.326595,0 0.326595,0.23564 v 1.15342 c 0,0.13229 -0.206706,0.13229 -0.326595,0.13229 z m 3.086117,0 h 1.554427 c 0.760677,0 1.28571,-0.69453 1.28571,-1.41387 0,-0.72347 -0.504362,-1.46761 -1.28571,-1.46761 h -1.554427 v 0.14883 c 0.119889,0 0.434082,0 0.434082,0.13643 v 2.3151 c 0,0.13229 -0.314193,0.13229 -0.434082,0.13229 z m 0.81442,-0.28112 v -2.3151 c 0,-0.13643 0.09508,-0.13643 0.214975,-0.13643 h 0.417545 c 0.285254,0 0.56224,0.13643 0.731739,0.37207 0.194303,0.26872 0.223241,0.61598 0.223241,0.94671 0,0.32246 -0.02894,0.65319 -0.223241,0.91364 -0.173634,0.22738 -0.450619,0.3514 -0.731739,0.3514 h -0.417545 c -0.11989,0 -0.214975,0 -0.214975,-0.13229 z m 0,0"
       style="fill:#000000;fill-opacity:1;fill-rule:nonzero;stroke:none;stroke-width:0.423333"
       aria-label="párD" />
    <path
       id="path50-7"
       d="m 84.329264,188.35538 v -6.74793"
       style="fill:none;stroke:#000000;stroke-width:0.253153;stroke-linecap:butt;stroke-linejoin:miter;stroke-miterlimit:10;stroke-dasharray:none;stroke-opacity:1" />
    <path
       id="path51-0"
       d="m 88.785086,187.06539 c 0.157096,0 0.318327,-0.0124 0.483691,-0.0124 0.161231,0 0.318327,0.0124 0.479557,0.0124 v -0.14882 c -0.119889,0 -0.326595,0 -0.326595,-0.1323 v -0.74 c 0.128158,0.15709 0.314193,0.24804 0.516765,0.24804 0.520898,0 0.93431,-0.43821 0.93431,-0.95498 0,-0.48782 -0.355534,-0.95498 -0.872299,-0.95498 -0.223242,0 -0.44235,0.0951 -0.595312,0.26045 v -0.26045 l -0.620117,0.0455 v 0.14883 c 0.16123,0 0.326595,0 0.326595,0.17363 v 2.03398 c 0,0.1323 -0.206706,0.1323 -0.326595,0.1323 z m 0.636653,-1.22783 v -1.00872 c 0.107487,-0.19844 0.314193,-0.32246 0.537435,-0.32246 0.384473,0 0.549838,0.51676 0.549838,0.83095 0,0.34314 -0.19017,0.8475 -0.595313,0.8475 -0.219108,0 -0.401009,-0.15296 -0.49196,-0.34727 z m 2.868042,-2.4598 -0.475423,0.6656 0.05788,0.0537 0.628385,-0.5209 c 0.173633,-0.13642 -0.07855,-0.37207 -0.21084,-0.1943 z m -1.103808,2.45567 c 0,0.34726 0.401009,0.45888 0.677995,0.45888 0.235644,0 0.450618,-0.13229 0.558105,-0.34313 0.0124,0.16537 0.136426,0.32246 0.310059,0.32246 0.198437,0 0.363802,-0.16949 0.363802,-0.36793 v -0.26872 H 92.97191 v 0.26872 c 0,0.091 -0.03307,0.21911 -0.136425,0.21911 -0.111622,0 -0.144694,-0.12816 -0.144694,-0.21911 V 184.957 c 0,-0.38034 -0.40101,-0.59945 -0.740007,-0.59945 -0.268717,0 -0.644922,0.11575 -0.644922,0.43822 0,0.11575 0.09095,0.20257 0.202572,0.20257 0.115755,0 0.202571,-0.0868 0.202571,-0.20257 0,-0.0992 -0.07441,-0.20258 -0.186035,-0.20258 0.115755,-0.0951 0.28112,-0.12402 0.425814,-0.12402 0.264583,0 0.429948,0.25632 0.429948,0.49609 v 0.17364 c -0.42168,0 -1.194759,0.14469 -1.194759,0.69453 z m 0.338997,0 c 0,-0.42582 0.504362,-0.59118 0.855762,-0.59118 v 0.43822 c 0,0.27285 -0.214974,0.50436 -0.487826,0.50436 -0.194303,0 -0.367936,-0.15296 -0.367936,-0.3514 z m 1.712557,0.41341 c 0.157096,0 0.314193,-0.0124 0.475424,-0.0124 0.186035,0 0.37207,0.0124 0.553971,0.0124 v -0.14883 c -0.115755,0 -0.409278,0 -0.409278,-0.13229 v -0.69453 c 0,-0.29352 0.103353,-0.77722 0.479558,-0.77722 0.0083,0 0.01653,0 0.0248,0 -0.05374,0.0331 -0.08268,0.0951 -0.08268,0.1571 0,0.10749 0.08682,0.19017 0.19017,0.19017 0.107487,0 0.190169,-0.0827 0.190169,-0.19017 0,-0.16536 -0.169499,-0.26872 -0.322461,-0.26872 -0.256315,0 -0.417546,0.19017 -0.500228,0.41342 v -0.41342 l -0.599446,0.0455 v 0.14883 c 0.219108,0 0.326595,0 0.326595,0.23564 v 1.15342 c 0,0.13229 -0.206706,0.13229 -0.326595,0.13229 z m 3.076815,0 h 2.439128 l 0.177767,-1.10381 h -0.124024 c -0.115755,0.73174 -0.223242,0.95498 -1.00459,0.95498 h -0.446484 c -0.11989,0 -0.214974,0 -0.214974,-0.13229 v -1.14102 h 0.310058 c 0.413412,0 0.504362,0.0744 0.504362,0.4961 h 0.124024 v -1.13688 h -0.124024 c 0,0.42168 -0.09095,0.49609 -0.504362,0.49609 h -0.310058 v -1.02939 c 0,-0.13643 0.09508,-0.13643 0.214974,-0.13643 h 0.413411 c 0.694531,0 0.839226,0.12816 0.921908,0.81855 h 0.119889 l -0.115755,-0.96738 h -2.38125 v 0.14883 c 0.119889,0 0.434082,0 0.434082,0.13643 v 2.3151 c 0,0.13229 -0.314193,0.13229 -0.434082,0.13229 z m 0,0"
       style="fill:#000000;fill-opacity:1;fill-rule:nonzero;stroke:none;stroke-width:0.423333"
       aria-label="párE" />
    <path
       id="path52-2"
       d="m 103.27089,188.35538 h 0.63246 v -6.74793 h -0.63246 z"
       style="fill:#000000;fill-opacity:1;fill-rule:nonzero;stroke:none;stroke-width:0.423333" />
    <path
       id="path53-7"
       d="M 6.6145786,188.48196 H 103.90335"
       style="fill:none;stroke:#000000;stroke-width:0.253153;stroke-linecap:butt;stroke-linejoin:miter;stroke-miterlimit:10;stroke-dasharray:none;stroke-opacity:1" />
    <path
       id="path54-6"
       d="m 6.6145786,195.35647 h 0.63246 v -6.74793 h -0.63246 z"
       style="fill:#000000;fill-opacity:1;fill-rule:nonzero;stroke:none;stroke-width:0.423333" />
    <path
       id="path55-85"
       d="m 13.172131,192.55343 h 1.112077 v 0.41342 c 0,0.13229 -0.293522,0.13229 -0.409277,0.13229 v 0.14883 c 0.194303,0 0.388607,-0.0124 0.58291,-0.0124 0.190169,0 0.380339,0.0124 0.574642,0.0124 v -0.14883 c -0.115755,0 -0.409277,0 -0.409277,-0.13229 v -0.41342 h 0.413411 v -0.14882 h -0.413411 v -1.91823 c 0,-0.0248 -0.02067,-0.0455 -0.04548,-0.0455 h -0.06201 c -0.01654,0 -0.03307,0.008 -0.04134,0.0207 l -1.302247,1.94304 z m 0.136426,-0.14882 1.000456,-1.49242 v 1.49242 z m 2.269629,1.60403 c 0,0.0248 0.03307,0.0579 0.06201,0.0579 0.0083,0 0.01654,-0.004 0.02481,-0.008 0.223242,-0.21911 0.359668,-0.51263 0.359668,-0.82682 0,-0.17777 -0.05374,-0.44648 -0.276986,-0.44648 -0.132292,0 -0.231511,0.0992 -0.231511,0.23151 0,0.13229 0.09922,0.23151 0.231511,0.23151 0.06201,0 0.119889,-0.0207 0.169499,-0.0662 0,0.0165 0,0.0331 0,0.0496 0,0.28112 -0.11989,0.54984 -0.322461,0.74001 -0.0083,0.008 -0.01654,0.0248 -0.01654,0.0372 z m 1.808675,-0.66972 c 0.520899,0 0.872298,-0.45476 0.872298,-0.95498 0,-0.47956 -0.318326,-0.94672 -0.835091,-0.94672 -0.243913,0 -0.425814,0.17364 -0.516764,0.39274 0,-0.28938 0.0083,-0.59531 0.136426,-0.85576 0.115755,-0.21911 0.314193,-0.41341 0.574642,-0.41341 0.132291,0 0.272851,0.0372 0.355534,0.14883 -0.0083,0 -0.0124,0 -0.02067,0 -0.115755,0 -0.202572,0.0868 -0.202572,0.20257 0,0.11162 0.08682,0.20257 0.202572,0.20257 0.111621,0 0.202572,-0.0909 0.202572,-0.20257 0,-0.31419 -0.248047,-0.47129 -0.537435,-0.47129 -0.727604,0 -1.107943,0.81029 -1.107943,1.44694 0,0.56224 0.14056,1.45108 0.876432,1.45108 z m 0,-0.1323 c -0.405143,0 -0.471289,-0.50436 -0.471289,-0.80615 0,-0.008 0.0041,-0.0124 0.0041,-0.0207 -0.0041,-0.0289 -0.0041,-0.0537 -0.0041,-0.0868 0,-0.29766 0.119889,-0.74415 0.49196,-0.74415 0.454752,0 0.454752,0.50437 0.454752,0.8351 0,0.34726 -0.0124,0.82268 -0.475423,0.82268 z m 1.231966,-0.59944 c 0,0.46302 0.454753,0.73174 0.876433,0.73174 0.450618,0 0.872298,-0.33073 0.872298,-0.80616 0,-0.26871 -0.148828,-0.51676 -0.372071,-0.66145 l -0.239778,-0.15297 c 0.252181,-0.13229 0.500228,-0.34313 0.500228,-0.64492 0,-0.40514 -0.401009,-0.63252 -0.760677,-0.63252 -0.40101,0 -0.764812,0.29766 -0.764812,0.71107 0,0.23151 0.132292,0.45475 0.326595,0.58291 l 0.157097,0.0992 c -0.310059,0.15296 -0.595313,0.40514 -0.595313,0.77308 z m 0.227377,0 c 0,-0.31006 0.219108,-0.56224 0.479557,-0.69867 l 0.566374,0.3638 c 0.144694,0.091 0.248046,0.23565 0.248046,0.40928 0,0.339 -0.347265,0.52503 -0.644921,0.52503 -0.334864,0 -0.649056,-0.25218 -0.649056,-0.59944 z m 0.289388,-1.28571 c -0.111622,-0.0786 -0.202572,-0.19431 -0.202572,-0.33486 0,-0.28112 0.314193,-0.42582 0.558105,-0.42582 0.285254,0 0.56224,0.21084 0.56224,0.51263 0,0.25632 -0.194303,0.45475 -0.405143,0.57464 z m 0,0"
       style="fill:#000000;fill-opacity:1;fill-rule:nonzero;stroke:none;stroke-width:0.423333"
       aria-label="4,68" />
    <path
       id="path56-1"
       d="m 26.481612,195.35647 v -6.74793"
       style="fill:none;stroke:#000000;stroke-width:0.253153;stroke-linecap:butt;stroke-linejoin:miter;stroke-miterlimit:10;stroke-dasharray:none;stroke-opacity:1" />
    <path
       id="path57-1"
       d="m 32.72546,192.92137 c 0.0041,0 0.0124,0 0.02067,0 0.14056,0 0.243913,-0.10335 0.243913,-0.24391 0,-0.13643 -0.103353,-0.24391 -0.243913,-0.24391 -0.14056,0 -0.243913,0.10748 -0.243913,0.24391 0,0.44235 0.463021,0.66146 0.847494,0.66146 0.458887,0 0.901237,-0.33487 0.901237,-0.81856 0,-0.39274 -0.343132,-0.68213 -0.711068,-0.74827 0.326595,-0.10749 0.599447,-0.39274 0.599447,-0.75241 0,-0.38861 -0.458887,-0.57878 -0.789616,-0.57878 -0.338998,0 -0.735873,0.20257 -0.735873,0.58291 0,0.12816 0.09922,0.22738 0.223243,0.22738 0.128157,0 0.227376,-0.0992 0.227376,-0.22738 0,-0.12402 -0.09922,-0.22324 -0.227376,-0.22324 -0.0083,0 -0.02067,0.004 -0.02894,0.004 0.119889,-0.1695 0.343131,-0.24392 0.541569,-0.24392 0.272852,0 0.384473,0.21498 0.384473,0.45889 0,0.25631 -0.115756,0.6904 -0.434082,0.6904 l -0.231511,0.0165 c -0.02481,0 -0.04134,0.0165 -0.04134,0.0331 v 0.0372 c 0,0.0207 0.01654,0.0372 0.04134,0.0372 h 0.276986 c 0.363802,0 0.454752,0.40101 0.454752,0.6904 0,0.28112 -0.08682,0.68213 -0.450618,0.68213 -0.23151,0 -0.487826,-0.0868 -0.624251,-0.28526 z m 2.125968,1.08727 c 0,0.0248 0.03307,0.0579 0.06201,0.0579 0.0083,0 0.01654,-0.004 0.0248,-0.008 0.223243,-0.21911 0.359668,-0.51263 0.359668,-0.82682 0,-0.17777 -0.05374,-0.44648 -0.276985,-0.44648 -0.132292,0 -0.231511,0.0992 -0.231511,0.23151 0,0.13229 0.09922,0.23151 0.231511,0.23151 0.06201,0 0.119889,-0.0207 0.169498,-0.0662 0,0.0165 0,0.0331 0,0.0496 0,0.28112 -0.119889,0.54984 -0.322461,0.74001 -0.0083,0.008 -0.01654,0.0248 -0.01654,0.0372 z m 0.931209,-1.40146 c 0,0.46302 0.454753,0.73174 0.876432,0.73174 0.450619,0 0.872299,-0.33073 0.872299,-0.80616 0,-0.26871 -0.148828,-0.51676 -0.372071,-0.66145 l -0.239778,-0.15297 c 0.252181,-0.13229 0.500227,-0.34313 0.500227,-0.64492 0,-0.40514 -0.401008,-0.63252 -0.760677,-0.63252 -0.401009,0 -0.764811,0.29766 -0.764811,0.71107 0,0.23151 0.132292,0.45475 0.326595,0.58291 l 0.157097,0.0992 c -0.310059,0.15296 -0.595313,0.40514 -0.595313,0.77308 z m 0.227377,0 c 0,-0.31006 0.219108,-0.56224 0.479557,-0.69867 l 0.566373,0.3638 c 0.144694,0.091 0.248047,0.23565 0.248047,0.40928 0,0.339 -0.347265,0.52503 -0.644922,0.52503 -0.334863,0 -0.649055,-0.25218 -0.649055,-0.59944 z m 0.289388,-1.28571 c -0.111622,-0.0786 -0.202572,-0.19431 -0.202572,-0.33486 0,-0.28112 0.314193,-0.42582 0.558106,-0.42582 0.285253,0 0.562239,0.21084 0.562239,0.51263 0,0.25632 -0.194304,0.45475 -0.405143,0.57464 z m 2.469099,2.01745 c 0.520899,0 0.872298,-0.45476 0.872298,-0.95498 0,-0.47956 -0.318326,-0.94672 -0.835091,-0.94672 -0.243912,0 -0.425813,0.17364 -0.516764,0.39274 0,-0.28938 0.0083,-0.59531 0.136426,-0.85576 0.115755,-0.21911 0.314193,-0.41341 0.574642,-0.41341 0.132291,0 0.272852,0.0372 0.355534,0.14883 -0.0083,0 -0.0124,0 -0.02067,0 -0.115755,0 -0.202571,0.0868 -0.202571,0.20257 0,0.11162 0.08682,0.20257 0.202571,0.20257 0.111621,0 0.202572,-0.0909 0.202572,-0.20257 0,-0.31419 -0.248047,-0.47129 -0.537435,-0.47129 -0.727604,0 -1.107943,0.81029 -1.107943,1.44694 0,0.56224 0.14056,1.45108 0.876431,1.45108 z m 0,-0.1323 c -0.405143,0 -0.471289,-0.50436 -0.471289,-0.80615 0,-0.008 0.0041,-0.0124 0.0041,-0.0207 -0.0041,-0.0289 -0.0041,-0.0537 -0.0041,-0.0868 0,-0.29766 0.11989,-0.74415 0.49196,-0.74415 0.454752,0 0.454752,0.50437 0.454752,0.8351 0,0.34726 -0.0124,0.82268 -0.475423,0.82268 z m 0,0"
       style="fill:#000000;fill-opacity:1;fill-rule:nonzero;stroke:none;stroke-width:0.423333"
       aria-label="3,86" />
    <path
       id="path58-9"
       d="m 45.666655,195.35647 v -6.74793"
       style="fill:none;stroke:#000000;stroke-width:0.253153;stroke-linecap:butt;stroke-linejoin:miter;stroke-miterlimit:10;stroke-dasharray:none;stroke-opacity:1" />
    <path
       id="path59-2"
       d="m 51.940823,192.92137 c 0.0041,0 0.0124,0 0.02067,0 0.14056,0 0.243913,-0.10335 0.243913,-0.24391 0,-0.13643 -0.103353,-0.24391 -0.243913,-0.24391 -0.14056,0 -0.243913,0.10748 -0.243913,0.24391 0,0.44235 0.463021,0.66146 0.847494,0.66146 0.458886,0 0.901237,-0.33487 0.901237,-0.81856 0,-0.39274 -0.343132,-0.68213 -0.711068,-0.74827 0.326595,-0.10749 0.599447,-0.39274 0.599447,-0.75241 0,-0.38861 -0.458887,-0.57878 -0.789616,-0.57878 -0.338998,0 -0.735873,0.20257 -0.735873,0.58291 0,0.12816 0.09922,0.22738 0.223243,0.22738 0.128157,0 0.227376,-0.0992 0.227376,-0.22738 0,-0.12402 -0.09922,-0.22324 -0.227376,-0.22324 -0.0083,0 -0.02067,0.004 -0.02894,0.004 0.119889,-0.1695 0.343131,-0.24392 0.541569,-0.24392 0.272851,0 0.384473,0.21498 0.384473,0.45889 0,0.25631 -0.115756,0.6904 -0.434082,0.6904 l -0.231511,0.0165 c -0.02481,0 -0.04134,0.0165 -0.04134,0.0331 v 0.0372 c 0,0.0207 0.01654,0.0372 0.04134,0.0372 h 0.276986 c 0.363802,0 0.454752,0.40101 0.454752,0.6904 0,0.28112 -0.08682,0.68213 -0.450618,0.68213 -0.231511,0 -0.487826,-0.0868 -0.624251,-0.28526 z m 2.124935,1.08727 c 0,0.0248 0.03307,0.0579 0.06201,0.0579 0.0083,0 0.01654,-0.004 0.02481,-0.008 0.223242,-0.21911 0.359668,-0.51263 0.359668,-0.82682 0,-0.17777 -0.05374,-0.44648 -0.276986,-0.44648 -0.132292,0 -0.23151,0.0992 -0.23151,0.23151 0,0.13229 0.09922,0.23151 0.23151,0.23151 0.06201,0 0.119889,-0.0207 0.169499,-0.0662 0,0.0165 0,0.0331 0,0.0496 0,0.28112 -0.11989,0.54984 -0.322461,0.74001 -0.0083,0.008 -0.01654,0.0248 -0.01654,0.0372 z m 1.155485,-1.08727 c 0.0041,0 0.0124,0 0.02067,0 0.14056,0 0.243913,-0.10335 0.243913,-0.24391 0,-0.13643 -0.103353,-0.24391 -0.243913,-0.24391 -0.14056,0 -0.243913,0.10748 -0.243913,0.24391 0,0.44235 0.463021,0.66146 0.847494,0.66146 0.458886,0 0.901237,-0.33487 0.901237,-0.81856 0,-0.39274 -0.343132,-0.68213 -0.711068,-0.74827 0.326595,-0.10749 0.599446,-0.39274 0.599446,-0.75241 0,-0.38861 -0.458886,-0.57878 -0.789615,-0.57878 -0.338998,0 -0.735873,0.20257 -0.735873,0.58291 0,0.12816 0.09922,0.22738 0.223242,0.22738 0.128158,0 0.227377,-0.0992 0.227377,-0.22738 0,-0.12402 -0.09922,-0.22324 -0.227377,-0.22324 -0.0083,0 -0.02067,0.004 -0.02894,0.004 0.119889,-0.1695 0.343131,-0.24392 0.541569,-0.24392 0.272851,0 0.384472,0.21498 0.384472,0.45889 0,0.25631 -0.115755,0.6904 -0.434082,0.6904 l -0.23151,0.0165 c -0.02481,0 -0.04134,0.0165 -0.04134,0.0331 v 0.0372 c 0,0.0207 0.01654,0.0372 0.04134,0.0372 h 0.276985 c 0.363802,0 0.454753,0.40101 0.454753,0.6904 0,0.28112 -0.08682,0.68213 -0.450618,0.68213 -0.231511,0 -0.487826,-0.0868 -0.624252,-0.28526 z m 2.761589,0.41755 c 0.520898,0 0.872298,-0.45476 0.872298,-0.95498 0,-0.47956 -0.318327,-0.94672 -0.835091,-0.94672 -0.243913,0 -0.425814,0.17364 -0.516764,0.39274 0,-0.28938 0.0083,-0.59531 0.136425,-0.85576 0.115756,-0.21911 0.314193,-0.41341 0.574642,-0.41341 0.132292,0 0.272852,0.0372 0.355534,0.14883 -0.0083,0 -0.0124,0 -0.02067,0 -0.115756,0 -0.202572,0.0868 -0.202572,0.20257 0,0.11162 0.08682,0.20257 0.202572,0.20257 0.111621,0 0.202571,-0.0909 0.202571,-0.20257 0,-0.31419 -0.248046,-0.47129 -0.537435,-0.47129 -0.727604,0 -1.107942,0.81029 -1.107942,1.44694 0,0.56224 0.14056,1.45108 0.876432,1.45108 z m 0,-0.1323 c -0.405143,0 -0.471289,-0.50436 -0.471289,-0.80615 0,-0.008 0.0041,-0.0124 0.0041,-0.0207 -0.0041,-0.0289 -0.0041,-0.0537 -0.0041,-0.0868 0,-0.29766 0.119889,-0.74415 0.491959,-0.74415 0.454753,0 0.454753,0.50437 0.454753,0.8351 0,0.34726 -0.0124,0.82268 -0.475423,0.82268 z m 0,0"
       style="fill:#000000;fill-opacity:1;fill-rule:nonzero;stroke:none;stroke-width:0.423333"
       aria-label="3,36" />
    <path
       id="path60-5"
       d="m 64.910118,195.35647 v -6.74793"
       style="fill:none;stroke:#000000;stroke-width:0.253153;stroke-linecap:butt;stroke-linejoin:miter;stroke-miterlimit:10;stroke-dasharray:none;stroke-opacity:1" />
    <path
       id="path61-8"
       d="m 71.263674,193.24797 c 0.231511,0 0.458887,-0.0124 0.690397,-0.0124 0.231511,0 0.458887,0.0124 0.690398,0.0124 v -0.14883 c -0.115756,0 -0.525033,0 -0.525033,-0.13229 v -2.48874 c 0,-0.0165 -0.0248,-0.0372 -0.04134,-0.0372 h -0.06201 c -0.202571,0.20671 -0.496094,0.26872 -0.777213,0.26872 v 0.14883 c 0.194303,0 0.388606,-0.0248 0.549837,-0.10749 v 2.21589 c 0,0.13229 -0.409277,0.13229 -0.525033,0.13229 z m 2.133203,0.76067 c 0,0.0248 0.03307,0.0579 0.06201,0.0579 0.0083,0 0.01654,-0.004 0.02481,-0.008 0.223242,-0.21911 0.359668,-0.51263 0.359668,-0.82682 0,-0.17777 -0.05374,-0.44648 -0.276986,-0.44648 -0.132291,0 -0.23151,0.0992 -0.23151,0.23151 0,0.13229 0.09922,0.23151 0.23151,0.23151 0.06201,0 0.11989,-0.0207 0.169499,-0.0662 0,0.0165 0,0.0331 0,0.0496 0,0.28112 -0.119889,0.54984 -0.322461,0.74001 -0.0083,0.008 -0.01654,0.0248 -0.01654,0.0372 z m 0.874366,-1.45521 h 1.112077 v 0.41342 c 0,0.13229 -0.293523,0.13229 -0.409278,0.13229 v 0.14883 c 0.194303,0 0.388607,-0.0124 0.58291,-0.0124 0.19017,0 0.380339,0.0124 0.574642,0.0124 v -0.14883 c -0.115755,0 -0.409277,0 -0.409277,-0.13229 v -0.41342 h 0.413411 v -0.14882 h -0.413411 v -1.91823 c 0,-0.0248 -0.02067,-0.0455 -0.04548,-0.0455 h -0.06201 c -0.01654,0 -0.03307,0.008 -0.04134,0.0207 l -1.302246,1.94304 z m 0.136425,-0.14882 1.000456,-1.49242 v 1.49242 z m 1.971973,0.14882 h 1.112077 v 0.41342 c 0,0.13229 -0.293522,0.13229 -0.409277,0.13229 v 0.14883 c 0.194303,0 0.388606,-0.0124 0.58291,-0.0124 0.190169,0 0.380338,0.0124 0.574642,0.0124 v -0.14883 c -0.115756,0 -0.409278,0 -0.409278,-0.13229 v -0.41342 h 0.413412 v -0.14882 h -0.413412 v -1.91823 c 0,-0.0248 -0.02067,-0.0455 -0.04547,-0.0455 h -0.06201 c -0.01654,0 -0.03308,0.008 -0.04134,0.0207 l -1.302246,1.94304 z m 0.136426,-0.14882 1.000456,-1.49242 v 1.49242 z m 0,0"
       style="fill:#000000;fill-opacity:1;fill-rule:nonzero;stroke:none;stroke-width:0.423333"
       aria-label="1,44" />
    <path
       id="path62-7"
       d="m 84.329264,195.35647 v -6.74793"
       style="fill:none;stroke:#000000;stroke-width:0.253153;stroke-linecap:butt;stroke-linejoin:miter;stroke-miterlimit:10;stroke-dasharray:none;stroke-opacity:1" />
    <path
       id="path63-9"
       d="m 90.506945,193.24797 c 0.23151,0 0.458887,-0.0124 0.690397,-0.0124 0.23151,0 0.458887,0.0124 0.690397,0.0124 v -0.14883 c -0.115755,0 -0.525032,0 -0.525032,-0.13229 v -2.48874 c 0,-0.0165 -0.02481,-0.0372 -0.04134,-0.0372 h -0.06201 c -0.202572,0.20671 -0.496094,0.26872 -0.777214,0.26872 v 0.14883 c 0.194304,0 0.388607,-0.0248 0.549837,-0.10749 v 2.21589 c 0,0.13229 -0.409277,0.13229 -0.525032,0.13229 z m 2.134236,0.76067 c 0,0.0248 0.03307,0.0579 0.06201,0.0579 0.0083,0 0.01654,-0.004 0.02481,-0.008 0.223242,-0.21911 0.359668,-0.51263 0.359668,-0.82682 0,-0.17777 -0.05374,-0.44648 -0.276986,-0.44648 -0.132291,0 -0.23151,0.0992 -0.23151,0.23151 0,0.13229 0.09922,0.23151 0.23151,0.23151 0.06201,0 0.11989,-0.0207 0.169499,-0.0662 0,0.0165 0,0.0331 0,0.0496 0,0.28112 -0.119889,0.54984 -0.322461,0.74001 -0.0083,0.008 -0.01654,0.0248 -0.01654,0.0372 z m 1.807642,-0.66972 c 0.520899,0 0.872298,-0.45476 0.872298,-0.95498 0,-0.47956 -0.318326,-0.94672 -0.835091,-0.94672 -0.243913,0 -0.425814,0.17364 -0.516764,0.39274 0,-0.28938 0.0083,-0.59531 0.136426,-0.85576 0.115755,-0.21911 0.314192,-0.41341 0.574642,-0.41341 0.132291,0 0.272851,0.0372 0.355534,0.14883 -0.0083,0 -0.0124,0 -0.02067,0 -0.115755,0 -0.202571,0.0868 -0.202571,0.20257 0,0.11162 0.08682,0.20257 0.202571,0.20257 0.111621,0 0.202572,-0.0909 0.202572,-0.20257 0,-0.31419 -0.248047,-0.47129 -0.537435,-0.47129 -0.727604,0 -1.107943,0.81029 -1.107943,1.44694 0,0.56224 0.14056,1.45108 0.876433,1.45108 z m 0,-0.1323 c -0.405143,0 -0.471289,-0.50436 -0.471289,-0.80615 0,-0.008 0.0041,-0.0124 0.0041,-0.0207 -0.0041,-0.0289 -0.0041,-0.0537 -0.0041,-0.0868 0,-0.29766 0.119889,-0.74415 0.49196,-0.74415 0.454752,0 0.454752,0.50437 0.454752,0.8351 0,0.34726 -0.0124,0.82268 -0.475423,0.82268 z m 2.109432,0.1323 c 0.77308,0 0.884701,-0.8475 0.884701,-1.43454 0,-0.59531 -0.107488,-1.46348 -0.884701,-1.46348 -0.781348,0 -0.888834,0.86817 -0.888834,1.46348 0,0.58704 0.11162,1.43454 0.888834,1.43454 z m 0,-0.10749 c -0.520898,0 -0.520898,-1.00046 -0.520898,-1.39733 0,-0.39274 0,-1.28571 0.520898,-1.28571 0.516764,0 0.516764,0.89297 0.516764,1.28571 0,0.39687 0,1.39733 -0.516764,1.39733 z m 0,0"
       style="fill:#000000;fill-opacity:1;fill-rule:nonzero;stroke:none;stroke-width:0.423333"
       aria-label="1,60" />
    <path
       id="path64-8"
       d="m 103.27089,195.35647 h 0.63246 v -6.74793 h -0.63246 z"
       style="fill:#000000;fill-opacity:1;fill-rule:nonzero;stroke:none;stroke-width:0.423333" />
    <path
       id="path65-6"
       d="M 6.6145786,195.98935 H 103.90335 v -0.63246 H 6.6145786 Z"
       style="fill:#000000;fill-opacity:1;fill-rule:nonzero;stroke:none;stroke-width:0.423333" />
  </g>
</svg>
