<?xml version="1.0" encoding="UTF-8" standalone="no"?>
<svg
   width="153.962265pt"
   height="101.040398pt"
   viewBox="0 0 153.962265 101.040398"
   version="1.1"
   id="svg14"
   xmlns="http://www.w3.org/2000/svg"
   xmlns:svg="http://www.w3.org/2000/svg">
  <defs
     id="defs3">
    <clipPath
       id="clip-0">
      <path
         clip-rule="nonzero"
         d="M 146.46875 0.824219 L 153.960938 0.824219 L 153.960938 7.824219 L 146.46875 7.824219 Z M 146.46875 0.824219 "
         id="path1" />
    </clipPath>
    <clipPath
       id="clip-1">
      <path
         clip-rule="nonzero"
         d="M 65.140625 93.660156 L 73 93.660156 L 73 100.921875 L 65.140625 100.921875 Z M 65.140625 93.660156 "
         id="path2" />
    </clipPath>
    <clipPath
       id="clip-2">
      <path
         clip-rule="nonzero"
         d="M 13 94 L 22 94 L 22 101.039062 L 13 101.039062 Z M 13 94 "
         id="path3" />
    </clipPath>
  </defs>
  <path
     fill="none"
     stroke-width="0.32"
     stroke-linecap="round"
     stroke-linejoin="round"
     stroke="rgb(0%, 0%, 0%)"
     stroke-opacity="1"
     stroke-miterlimit="10"
     d="M 67.304688 -92.742188 L 52.5625 -9.128906 L 5.390625 -9.128906 L 20.136719 -92.742188 L 67.304688 -92.742188 L 146.898438 -9.128906 L 99.730469 -9.128906 L 20.136719 -92.742188 "
     transform="matrix(1, 0, 0, -1, 0, 0)"
     id="path4" />
  <path
     fill="none"
     stroke-width="0.32"
     stroke-linecap="round"
     stroke-linejoin="round"
     stroke="rgb(0%, 0%, 0%)"
     stroke-opacity="1"
     stroke-miterlimit="10"
     d="M 52.5625 -9.128906 L 8.785156 -28.359375 L 59.933594 -50.933594 L 99.140625 -59.296875 L 99.730469 -9.128906 "
     transform="matrix(1, 0, 0, -1, 0, 0)"
     id="path5" />
  <path
     fill-rule="nonzero"
     fill="rgb(0%, 0%, 0%)"
     fill-opacity="1"
     d="M 1.4375 6 C 1.046875 6.65625 0.65625 6.796875 0.21875 6.828125 C 0.09375 6.84375 0 6.84375 0 7.03125 C 0 7.09375 0.0625 7.140625 0.140625 7.140625 C 0.40625 7.140625 0.71875 7.109375 0.984375 7.109375 C 1.328125 7.109375 1.671875 7.140625 1.984375 7.140625 C 2.046875 7.140625 2.171875 7.140625 2.171875 6.953125 C 2.171875 6.84375 2.09375 6.828125 2.015625 6.828125 C 1.796875 6.8125 1.546875 6.734375 1.546875 6.484375 C 1.546875 6.359375 1.609375 6.25 1.6875 6.109375 L 2.453125 4.84375 L 4.953125 4.84375 C 4.96875 5.046875 5.109375 6.40625 5.109375 6.5 C 5.109375 6.796875 4.59375 6.828125 4.390625 6.828125 C 4.25 6.828125 4.15625 6.828125 4.15625 7.03125 C 4.15625 7.140625 4.265625 7.140625 4.296875 7.140625 C 4.703125 7.140625 5.125 7.109375 5.53125 7.109375 C 5.78125 7.109375 6.421875 7.140625 6.671875 7.140625 C 6.71875 7.140625 6.84375 7.140625 6.84375 6.9375 C 6.84375 6.828125 6.75 6.828125 6.609375 6.828125 C 6 6.828125 6 6.765625 5.96875 6.46875 L 5.359375 0.25 C 5.34375 0.046875 5.34375 0 5.171875 0 C 5.015625 0 4.96875 0.078125 4.90625 0.171875 Z M 2.640625 4.53125 L 4.59375 1.234375 L 4.921875 4.53125 Z M 2.640625 4.53125 "
     id="path6" />
  <path
     fill-rule="nonzero"
     fill="rgb(0%, 0%, 0%)"
     fill-opacity="1"
     d="M 54.363281 6.855469 C 54.269531 7.246094 54.238281 7.324219 53.457031 7.324219 C 53.285156 7.324219 53.191406 7.324219 53.191406 7.527344 C 53.191406 7.636719 53.285156 7.636719 53.457031 7.636719 L 57.019531 7.636719 C 58.597656 7.636719 59.769531 6.464844 59.769531 5.480469 C 59.769531 4.761719 59.191406 4.183594 58.222656 4.074219 C 59.253906 3.886719 60.300781 3.152344 60.300781 2.199219 C 60.300781 1.464844 59.644531 0.824219 58.457031 0.824219 L 55.097656 0.824219 C 54.910156 0.824219 54.816406 0.824219 54.816406 1.027344 C 54.816406 1.136719 54.910156 1.136719 55.097656 1.136719 C 55.113281 1.136719 55.300781 1.136719 55.472656 1.152344 C 55.644531 1.183594 55.738281 1.183594 55.738281 1.324219 C 55.738281 1.355469 55.722656 1.386719 55.707031 1.511719 Z M 55.863281 3.980469 L 56.488281 1.511719 C 56.582031 1.167969 56.597656 1.136719 57.019531 1.136719 L 58.316406 1.136719 C 59.191406 1.136719 59.394531 1.730469 59.394531 2.167969 C 59.394531 3.042969 58.535156 3.980469 57.332031 3.980469 Z M 55.425781 7.324219 C 55.285156 7.324219 55.269531 7.324219 55.207031 7.324219 C 55.097656 7.308594 55.066406 7.292969 55.066406 7.214844 C 55.066406 7.183594 55.066406 7.167969 55.128906 6.996094 L 55.816406 4.214844 L 57.691406 4.214844 C 58.644531 4.214844 58.847656 4.949219 58.847656 5.371094 C 58.847656 6.355469 57.957031 7.324219 56.769531 7.324219 Z M 55.425781 7.324219 "
     id="path7" />
  <path
     fill-rule="nonzero"
     fill="rgb(0%, 0%, 0%)"
     fill-opacity="1"
     d="M 67.128906 36.613281 C 67.128906 36.582031 67.113281 36.503906 67.019531 36.503906 C 66.988281 36.503906 66.972656 36.519531 66.863281 36.628906 L 66.175781 37.394531 C 66.082031 37.253906 65.628906 36.503906 64.519531 36.503906 C 62.285156 36.503906 60.050781 38.707031 60.050781 41.019531 C 60.050781 42.660156 61.222656 43.753906 62.753906 43.753906 C 63.613281 43.753906 64.378906 43.363281 64.910156 42.894531 C 65.832031 42.082031 66.003906 41.175781 66.003906 41.144531 C 66.003906 41.035156 65.894531 41.035156 65.878906 41.035156 C 65.816406 41.035156 65.769531 41.066406 65.753906 41.144531 C 65.660156 41.425781 65.425781 42.144531 64.738281 42.722656 C 64.050781 43.269531 63.425781 43.441406 62.910156 43.441406 C 62.019531 43.441406 60.957031 42.925781 60.957031 41.378906 C 60.957031 40.800781 61.160156 39.191406 62.160156 38.019531 C 62.769531 37.316406 63.707031 36.816406 64.597656 36.816406 C 65.613281 36.816406 66.207031 37.582031 66.207031 38.738281 C 66.207031 39.144531 66.175781 39.144531 66.175781 39.253906 C 66.175781 39.347656 66.285156 39.347656 66.316406 39.347656 C 66.441406 39.347656 66.441406 39.332031 66.503906 39.144531 Z M 67.128906 36.613281 "
     id="path8" />
  <path
     fill-rule="nonzero"
     fill="rgb(0%, 0%, 0%)"
     fill-opacity="1"
     d="M 96.746094 6.9375 C 96.652344 7.328125 96.636719 7.40625 95.839844 7.40625 C 95.683594 7.40625 95.574219 7.40625 95.574219 7.59375 C 95.574219 7.71875 95.652344 7.71875 95.839844 7.71875 L 99.152344 7.71875 C 101.214844 7.71875 103.183594 5.609375 103.183594 3.4375 C 103.183594 2.03125 102.339844 0.90625 100.839844 0.90625 L 97.496094 0.90625 C 97.308594 0.90625 97.199219 0.90625 97.199219 1.09375 C 97.199219 1.21875 97.277344 1.21875 97.480469 1.21875 C 97.605469 1.21875 97.792969 1.234375 97.902344 1.234375 C 98.074219 1.265625 98.121094 1.28125 98.121094 1.40625 C 98.121094 1.4375 98.121094 1.46875 98.089844 1.59375 Z M 98.902344 1.59375 C 98.996094 1.25 99.011719 1.21875 99.449219 1.21875 L 100.511719 1.21875 C 101.480469 1.21875 102.308594 1.75 102.308594 3.0625 C 102.308594 3.546875 102.121094 5.1875 101.261719 6.28125 C 100.980469 6.65625 100.199219 7.40625 98.964844 7.40625 L 97.839844 7.40625 C 97.699219 7.40625 97.683594 7.40625 97.621094 7.40625 C 97.527344 7.390625 97.496094 7.375 97.496094 7.296875 C 97.496094 7.265625 97.496094 7.25 97.542969 7.078125 Z M 98.902344 1.59375 "
     id="path9" />
  <g
     clip-path="url(#clip-0)"
     id="g10">
    <path
       fill-rule="nonzero"
       fill="rgb(0%, 0%, 0%)"
       fill-opacity="1"
       d="M 153.40625 5.304688 C 153.421875 5.257812 153.453125 5.195312 153.453125 5.164062 C 153.453125 5.164062 153.453125 5.054688 153.328125 5.054688 C 153.234375 5.054688 153.21875 5.117188 153.203125 5.179688 C 152.546875 6.648438 152.1875 7.320312 150.484375 7.320312 L 149.03125 7.320312 C 148.890625 7.320312 148.859375 7.320312 148.8125 7.320312 C 148.703125 7.304688 148.671875 7.289062 148.671875 7.210938 C 148.671875 7.179688 148.671875 7.164062 148.71875 6.992188 L 149.40625 4.257812 L 150.390625 4.257812 C 151.234375 4.257812 151.234375 4.476562 151.234375 4.726562 C 151.234375 4.789062 151.234375 4.914062 151.171875 5.210938 C 151.15625 5.257812 151.140625 5.289062 151.140625 5.320312 C 151.140625 5.367188 151.171875 5.429688 151.265625 5.429688 C 151.34375 5.429688 151.375 5.382812 151.421875 5.226562 L 151.984375 2.898438 C 151.984375 2.835938 151.9375 2.789062 151.859375 2.789062 C 151.78125 2.789062 151.75 2.851562 151.734375 2.960938 C 151.515625 3.726562 151.34375 3.960938 150.421875 3.960938 L 149.484375 3.960938 L 150.078125 1.554688 C 150.171875 1.195312 150.1875 1.164062 150.625 1.164062 L 152.03125 1.164062 C 153.234375 1.164062 153.546875 1.445312 153.546875 2.273438 C 153.546875 2.507812 153.546875 2.523438 153.5 2.804688 C 153.5 2.851562 153.484375 2.929688 153.484375 2.976562 C 153.484375 3.023438 153.515625 3.101562 153.609375 3.101562 C 153.71875 3.101562 153.734375 3.039062 153.75 2.851562 L 153.953125 1.117188 C 153.984375 0.851562 153.9375 0.851562 153.6875 0.851562 L 148.640625 0.851562 C 148.453125 0.851562 148.34375 0.851562 148.34375 1.054688 C 148.34375 1.164062 148.4375 1.164062 148.625 1.164062 C 149 1.164062 149.28125 1.164062 149.28125 1.335938 C 149.28125 1.382812 149.28125 1.398438 149.21875 1.585938 L 147.90625 6.851562 C 147.8125 7.242188 147.796875 7.320312 147 7.320312 C 146.828125 7.320312 146.71875 7.320312 146.71875 7.507812 C 146.71875 7.632812 146.8125 7.632812 147 7.632812 L 152.171875 7.632812 C 152.40625 7.632812 152.421875 7.617188 152.484375 7.460938 Z M 153.40625 5.304688 "
       id="path10" />
  </g>
  <path
     fill-rule="nonzero"
     fill="rgb(0%, 0%, 0%)"
     fill-opacity="1"
     d="M 102.089844 62.984375 L 103.058594 62.984375 C 103.808594 62.984375 103.886719 63.140625 103.886719 63.421875 C 103.886719 63.5 103.886719 63.609375 103.824219 63.921875 C 103.792969 63.96875 103.792969 64 103.792969 64.03125 C 103.792969 64.109375 103.855469 64.140625 103.902344 64.140625 C 104.011719 64.140625 104.011719 64.109375 104.058594 63.9375 L 104.605469 61.765625 C 104.636719 61.65625 104.636719 61.640625 104.636719 61.609375 C 104.636719 61.59375 104.621094 61.5 104.511719 61.5 C 104.417969 61.5 104.402344 61.546875 104.371094 61.71875 C 104.152344 62.484375 103.933594 62.671875 103.074219 62.671875 L 102.167969 62.671875 L 102.808594 60.140625 C 102.902344 59.78125 102.917969 59.75 103.355469 59.75 L 104.667969 59.75 C 105.886719 59.75 106.121094 60.078125 106.121094 60.84375 C 106.121094 61.078125 106.121094 61.109375 106.089844 61.390625 C 106.074219 61.515625 106.074219 61.53125 106.074219 61.5625 C 106.074219 61.609375 106.105469 61.6875 106.199219 61.6875 C 106.308594 61.6875 106.308594 61.625 106.324219 61.4375 L 106.527344 59.703125 C 106.558594 59.4375 106.511719 59.4375 106.261719 59.4375 L 101.371094 59.4375 C 101.183594 59.4375 101.074219 59.4375 101.074219 59.640625 C 101.074219 59.75 101.167969 59.75 101.355469 59.75 C 101.730469 59.75 102.011719 59.75 102.011719 59.921875 C 102.011719 59.96875 102.011719 59.984375 101.949219 60.171875 L 100.636719 65.4375 C 100.542969 65.828125 100.527344 65.90625 99.730469 65.90625 C 99.558594 65.90625 99.449219 65.90625 99.449219 66.09375 C 99.449219 66.21875 99.574219 66.21875 99.605469 66.21875 C 99.886719 66.21875 100.636719 66.1875 100.917969 66.1875 C 101.246094 66.1875 102.074219 66.21875 102.402344 66.21875 C 102.496094 66.21875 102.605469 66.21875 102.605469 66.03125 C 102.605469 65.953125 102.558594 65.921875 102.558594 65.921875 C 102.527344 65.90625 102.496094 65.90625 102.277344 65.90625 C 102.058594 65.90625 102.011719 65.90625 101.761719 65.890625 C 101.464844 65.859375 101.433594 65.8125 101.433594 65.6875 C 101.433594 65.671875 101.433594 65.609375 101.480469 65.46875 Z M 102.089844 62.984375 "
     id="path11" />
  <g
     clip-path="url(#clip-1)"
     id="g12">
    <path
       fill-rule="nonzero"
       fill="rgb(0%, 0%, 0%)"
       fill-opacity="1"
       d="M 72.273438 93.601562 C 72.273438 93.570312 72.257812 93.492188 72.164062 93.492188 C 72.132812 93.492188 72.117188 93.507812 72.007812 93.617188 L 71.320312 94.382812 C 71.226562 94.242188 70.773438 93.492188 69.664062 93.492188 C 67.429688 93.492188 65.195312 95.695312 65.195312 98.007812 C 65.195312 99.601562 66.304688 100.742188 67.914062 100.742188 C 68.351562 100.742188 68.804688 100.648438 69.164062 100.507812 C 69.664062 100.304688 69.851562 100.101562 70.023438 99.898438 C 70.117188 100.148438 70.382812 100.507812 70.476562 100.507812 C 70.523438 100.507812 70.554688 100.476562 70.554688 100.476562 C 70.570312 100.460938 70.664062 100.070312 70.710938 99.867188 L 70.898438 99.101562 C 70.945312 98.929688 70.992188 98.757812 71.039062 98.585938 C 71.148438 98.148438 71.148438 98.117188 71.726562 98.117188 C 71.773438 98.117188 71.882812 98.101562 71.882812 97.914062 C 71.882812 97.835938 71.835938 97.804688 71.757812 97.804688 C 71.523438 97.804688 70.929688 97.835938 70.710938 97.835938 C 70.398438 97.835938 69.617188 97.804688 69.304688 97.804688 C 69.226562 97.804688 69.101562 97.804688 69.101562 98.007812 C 69.101562 98.117188 69.179688 98.117188 69.398438 98.117188 C 69.414062 98.117188 69.695312 98.117188 69.929688 98.132812 C 70.195312 98.164062 70.242188 98.195312 70.242188 98.320312 C 70.242188 98.414062 70.132812 98.851562 70.023438 99.226562 C 69.742188 100.320312 68.460938 100.429688 68.101562 100.429688 C 67.148438 100.429688 66.101562 99.867188 66.101562 98.335938 C 66.101562 98.023438 66.195312 96.382812 67.242188 95.085938 C 67.789062 94.414062 68.757812 93.804688 69.742188 93.804688 C 70.757812 93.804688 71.351562 94.570312 71.351562 95.726562 C 71.351562 96.132812 71.320312 96.132812 71.320312 96.242188 C 71.320312 96.335938 71.429688 96.335938 71.460938 96.335938 C 71.585938 96.335938 71.585938 96.320312 71.648438 96.132812 Z M 72.273438 93.601562 "
       id="path12" />
  </g>
  <g
     clip-path="url(#clip-2)"
     id="g13">
    <path
       fill-rule="nonzero"
       fill="rgb(0%, 0%, 0%)"
       fill-opacity="1"
       d="M 20.636719 94.992188 C 20.730469 94.632812 20.746094 94.539062 21.464844 94.539062 C 21.730469 94.539062 21.808594 94.539062 21.808594 94.335938 C 21.808594 94.226562 21.699219 94.226562 21.667969 94.226562 C 21.386719 94.226562 20.667969 94.257812 20.386719 94.257812 C 20.105469 94.257812 19.402344 94.226562 19.105469 94.226562 C 19.027344 94.226562 18.917969 94.226562 18.917969 94.429688 C 18.917969 94.539062 19.011719 94.539062 19.199219 94.539062 C 19.214844 94.539062 19.402344 94.539062 19.574219 94.554688 C 19.761719 94.585938 19.839844 94.585938 19.839844 94.726562 C 19.839844 94.757812 19.839844 94.773438 19.808594 94.914062 L 19.214844 97.335938 L 16.167969 97.335938 L 16.761719 94.992188 C 16.839844 94.632812 16.871094 94.539062 17.589844 94.539062 C 17.855469 94.539062 17.933594 94.539062 17.933594 94.335938 C 17.933594 94.226562 17.824219 94.226562 17.792969 94.226562 C 17.511719 94.226562 16.792969 94.257812 16.511719 94.257812 C 16.230469 94.257812 15.527344 94.226562 15.230469 94.226562 C 15.152344 94.226562 15.042969 94.226562 15.042969 94.429688 C 15.042969 94.539062 15.136719 94.539062 15.324219 94.539062 C 15.339844 94.539062 15.527344 94.539062 15.699219 94.554688 C 15.871094 94.585938 15.964844 94.585938 15.964844 94.726562 C 15.964844 94.757812 15.964844 94.789062 15.933594 94.914062 L 14.589844 100.257812 C 14.496094 100.648438 14.480469 100.726562 13.683594 100.726562 C 13.511719 100.726562 13.417969 100.726562 13.417969 100.929688 C 13.417969 101.039062 13.542969 101.039062 13.558594 101.039062 C 13.839844 101.039062 14.542969 101.007812 14.824219 101.007812 C 15.027344 101.007812 15.246094 101.023438 15.464844 101.023438 C 15.683594 101.023438 15.902344 101.039062 16.105469 101.039062 C 16.183594 101.039062 16.308594 101.039062 16.308594 100.835938 C 16.308594 100.726562 16.214844 100.726562 16.027344 100.726562 C 15.652344 100.726562 15.386719 100.726562 15.386719 100.554688 C 15.386719 100.492188 15.402344 100.445312 15.402344 100.382812 L 16.089844 97.648438 L 19.121094 97.648438 C 18.714844 99.304688 18.480469 100.257812 18.433594 100.398438 C 18.339844 100.726562 18.152344 100.726562 17.527344 100.726562 C 17.386719 100.726562 17.292969 100.726562 17.292969 100.929688 C 17.292969 101.039062 17.417969 101.039062 17.433594 101.039062 C 17.714844 101.039062 18.417969 101.007812 18.699219 101.007812 C 18.902344 101.007812 19.121094 101.023438 19.339844 101.023438 C 19.558594 101.023438 19.777344 101.039062 19.980469 101.039062 C 20.058594 101.039062 20.183594 101.039062 20.183594 100.835938 C 20.183594 100.726562 20.089844 100.726562 19.902344 100.726562 C 19.542969 100.726562 19.261719 100.726562 19.261719 100.554688 C 19.261719 100.492188 19.277344 100.445312 19.292969 100.382812 Z M 20.636719 94.992188 "
       id="path13" />
  </g>
  <path
     fill-rule="nonzero"
     fill="rgb(0%, 0%, 0%)"
     fill-opacity="1"
     d="M 5.941406 27.070312 C 6.019531 26.710938 6.050781 26.617188 6.847656 26.617188 C 7.082031 26.617188 7.160156 26.617188 7.160156 26.429688 C 7.160156 26.304688 7.050781 26.304688 7.019531 26.304688 C 6.722656 26.304688 5.988281 26.335938 5.691406 26.335938 C 5.394531 26.335938 4.675781 26.304688 4.363281 26.304688 C 4.300781 26.304688 4.175781 26.304688 4.175781 26.507812 C 4.175781 26.617188 4.253906 26.617188 4.457031 26.617188 C 4.863281 26.617188 5.144531 26.617188 5.144531 26.804688 C 5.144531 26.851562 5.144531 26.882812 5.113281 26.960938 L 3.769531 32.335938 C 3.675781 32.710938 3.660156 32.804688 2.863281 32.804688 C 2.628906 32.804688 2.550781 32.804688 2.550781 33.007812 C 2.550781 33.117188 2.660156 33.117188 2.691406 33.117188 C 2.988281 33.117188 3.707031 33.085938 4.003906 33.085938 C 4.300781 33.085938 5.035156 33.117188 5.332031 33.117188 C 5.410156 33.117188 5.535156 33.117188 5.535156 32.929688 C 5.535156 32.804688 5.457031 32.804688 5.238281 32.804688 C 5.050781 32.804688 5.003906 32.804688 4.816406 32.789062 C 4.597656 32.773438 4.566406 32.726562 4.566406 32.617188 C 4.566406 32.539062 4.582031 32.460938 4.597656 32.382812 Z M 5.941406 27.070312 "
     id="path14" />
</svg>
