<?xml version="1.0" encoding="UTF-8" standalone="no"?>
<!-- Created with Inkscape (http://www.inkscape.org/) -->

<svg
   width="63.726906mm"
   height="43.018711mm"
   viewBox="0 0 63.726907 43.018711"
   version="1.1"
   id="svg1"
   xmlns="http://www.w3.org/2000/svg"
   xmlns:svg="http://www.w3.org/2000/svg">
  <defs
     id="defs1" />
  <g
     id="layer1"
     transform="translate(-94.277436,-117.39128)">
    <path
       id="path45-4"
       d="m 94.277436,118.02374 h 63.726904 v -0.63246 H 94.277436 Z"
       style="fill:#000000;fill-opacity:1;fill-rule:nonzero;stroke:none;stroke-width:0.423333" />
    <path
       id="path46-9"
       d="m 94.277436,124.77168 h 0.63246 v -6.74793 h -0.63246 z"
       style="fill:#000000;fill-opacity:1;fill-rule:nonzero;stroke:none;stroke-width:0.423333" />
    <path
       id="path47-5"
       d="m 99.520811,122.66329 c 0.231511,0 0.458887,-0.0124 0.690399,-0.0124 0.23151,0 0.45889,0.0124 0.6904,0.0124 v -0.14883 c -0.11576,0 -0.52504,0 -0.52504,-0.13229 v -2.48874 c 0,-0.0165 -0.0248,-0.0372 -0.0413,-0.0372 h -0.062 c -0.20257,0.2067 -0.496094,0.26871 -0.777213,0.26871 v 0.14883 c 0.194303,0 0.388606,-0.0248 0.549833,-0.10749 v 2.21589 c 0,0.13229 -0.409274,0.13229 -0.525029,0.13229 z m 0,0"
       style="fill:#000000;fill-opacity:1;fill-rule:nonzero;stroke:none;stroke-width:0.423333"
       aria-label="1" />
    <path
       id="path48-3"
       d="m 105.58044,124.77168 v -6.74793"
       style="fill:none;stroke:#000000;stroke-width:0.253153;stroke-linecap:butt;stroke-linejoin:miter;stroke-miterlimit:10;stroke-dasharray:none;stroke-opacity:1" />
    <path
       id="path49-4"
       d="m 112.1464,122.70877 c 0.34313,0 0.61185,-0.20671 0.69867,-0.53744 0,-0.008 0,-0.004 0,-0.0124 0,-0.0165 -0.0165,-0.0413 -0.0331,-0.0413 h -0.0496 c -0.0165,0 -0.0331,0.0124 -0.0331,0.0289 -0.0703,0.25631 -0.25631,0.44235 -0.5333,0.44235 -0.43822,0 -0.59531,-0.47129 -0.59531,-0.8351 0,-0.34313 0.11162,-0.85576 0.54984,-0.85576 0.13642,0 0.28938,0.0165 0.40927,0.0909 -0.0992,0.0207 -0.16536,0.0992 -0.16536,0.19844 0,0.11576 0.0909,0.20257 0.20257,0.20257 0.11575,0 0.20257,-0.0868 0.20257,-0.20257 0,-0.32659 -0.39687,-0.41341 -0.65319,-0.41341 -0.52917,0 -0.9095,0.47129 -0.9095,0.97978 0,0.50437 0.39274,0.95498 0.9095,0.95499 z m 0.83406,-0.0455 c 0.1571,0 0.31833,-0.0124 0.48369,-0.0124 0.16123,0 0.31833,0.0124 0.47956,0.0124 v -0.14883 c -0.11989,0 -0.3266,0 -0.3266,-0.13229 v -0.83096 c 0,-0.32246 0.21911,-0.64078 0.55811,-0.64078 0.27698,0 0.30592,0.25631 0.30592,0.47128 v 1.00046 c 0,0.13229 -0.2067,0.13229 -0.33073,0.13229 v 0.14883 c 0.16123,0 0.32246,-0.0124 0.48369,-0.0124 0.16124,0 0.32247,0.0124 0.4837,0.0124 v -0.14883 c -0.12403,0 -0.33073,0 -0.33073,-0.13229 v -1.01286 c 0,-0.3886 -0.20257,-0.57051 -0.58705,-0.57051 -0.25631,0 -0.48369,0.16123 -0.59531,0.38861 v -1.45107 l -0.62425,0.0455 v 0.14883 c 0.21911,0 0.32659,0 0.32659,0.23564 v 2.21589 c 0,0.13229 -0.2067,0.13229 -0.32659,0.13229 z m 3.26905,0.0455 c 0.51263,0 0.93018,-0.42995 0.93018,-0.94258 0,-0.5209 -0.39275,-0.99219 -0.93018,-0.99219 -0.54157,0 -0.93431,0.47129 -0.93431,0.99219 0,0.51263 0.41755,0.94258 0.93431,0.94258 z m 0,-0.11989 c -0.50436,0 -0.57051,-0.48783 -0.57051,-0.86817 0,-0.21084 0.004,-0.42995 0.12403,-0.60358 0.0992,-0.14469 0.26871,-0.23151 0.44648,-0.23151 0.17363,0 0.34313,0.0868 0.44235,0.23151 0.11989,0.17363 0.12402,0.39274 0.12402,0.60358 0,0.38034 -0.0661,0.86817 -0.56637,0.86817 z m 3.30212,-2.11667 c 0,0.0124 0.0331,0.0331 0.062,0.0331 0.008,0 0.0165,0 0.0289,0 0.22325,-0.14469 0.35554,-0.33486 0.35554,-0.54157 0,-0.17363 -0.0537,-0.43821 -0.27699,-0.43821 -0.13229,0 -0.23151,0.0992 -0.23151,0.22324 0,0.12816 0.0992,0.22324 0.23151,0.22324 0.062,0 0.11989,-0.0165 0.1695,-0.0579 0,0.0124 0,0.0248 0,0.0372 0,0.18604 -0.11989,0.35967 -0.32246,0.48369 -0.008,0.004 -0.0165,0.008 -0.0165,0.0124 z m -1.09967,2.23656 c 0.21497,0 0.42168,-0.0992 0.56637,-0.26459 v 0.26459 l 0.63666,-0.0455 v -0.14883 c -0.21911,0 -0.33073,0 -0.33073,-0.23564 v -2.54248 l -0.62425,0.0455 v 0.14883 c 0.2191,0 0.33073,0 0.33073,0.23564 v 0.87644 c -0.13643,-0.14883 -0.33073,-0.24392 -0.53331,-0.24392 -0.52089,0 -0.93431,0.43822 -0.93431,0.95498 0,0.4961 0.36794,0.95499 0.88884,0.95499 z m -0.42995,-0.41342 c -0.0868,-0.1695 -0.0951,-0.35553 -0.0951,-0.53743 0,-0.38447 0.12402,-0.84749 0.59531,-0.84749 0.21497,0 0.39687,0.12815 0.49609,0.31419 v 1.01286 c -0.0992,0.21084 -0.30592,0.3638 -0.54157,0.3638 -0.19843,0 -0.36793,-0.13229 -0.45475,-0.30593 z m 2.17351,-0.13642 c 0,0.33486 0.21084,0.54984 0.54984,0.54984 0.28525,0 0.42168,-0.3018 0.42168,-0.54984 v -0.26045 h -0.12402 v 0.25218 c 0,0.16123 -0.0579,0.43822 -0.26872,0.43822 -0.22738,0 -0.26872,-0.26459 -0.26872,-0.43822 v -1.15755 h 0.59118 v -0.14883 h -0.59118 v -0.77308 h -0.12402 c 0,0.32246 -0.13229,0.81442 -0.53744,0.81442 v 0.10749 h 0.3514 z m 2.26033,0.54984 c 0.33073,0 0.62012,-0.22738 0.69866,-0.54157 0,-0.0248 -0.0124,-0.0579 -0.0413,-0.0579 h -0.0372 c -0.0207,0 -0.0372,0.0207 -0.0413,0.0413 -0.0661,0.24391 -0.28525,0.43822 -0.54157,0.43822 -0.47129,0 -0.60358,-0.46303 -0.60358,-0.85163 0,-0.0124 0,-0.0331 0,-0.0496 h 1.2237 c 0.0289,0 0.0413,-0.0289 0.0413,-0.0537 0,-0.47956 -0.23978,-0.8599 -0.75654,-0.8599 -0.51676,0 -0.8723,0.47542 -0.8723,0.96738 0,0.51263 0.40101,0.96738 0.93018,0.96738 z m -0.56224,-1.12448 c 0,-0.29353 0.1571,-0.69867 0.50436,-0.69867 0.35554,0 0.45889,0.41341 0.45889,0.69867 z m 3.18327,1.079 c 0.23151,0 0.45888,-0.0124 0.69039,-0.0124 0.23152,0 0.45889,0.0124 0.6904,0.0124 v -0.14883 c -0.11575,0 -0.52503,0 -0.52503,-0.13229 v -2.48874 c 0,-0.0165 -0.0248,-0.0372 -0.0413,-0.0372 h -0.062 c -0.20258,0.2067 -0.4961,0.26871 -0.77722,0.26871 v 0.14883 c 0.19431,0 0.38861,-0.0248 0.54984,-0.10749 v 2.21589 c 0,0.13229 -0.40928,0.13229 -0.52503,0.13229 z m 3.23701,0 c 0.15296,0 0.31006,-0.0124 0.47129,-0.0124 0.15709,0 0.31006,0.0124 0.46715,0.0124 v -0.14883 c -0.12402,0 -0.33073,0 -0.33073,-0.13229 v -0.47129 l 0.26045,-0.22324 0.40515,0.57877 c 0.0372,0.0455 0.0744,0.10749 0.0744,0.16124 0,0.0744 -0.0827,0.0868 -0.14469,0.0868 v 0.14883 c 0.15709,0 0.31832,-0.0124 0.48369,-0.0124 0.11989,0 0.23978,0.0124 0.35553,0.0124 v -0.14883 c -0.24391,0 -0.29765,-0.0537 -0.43408,-0.24805 l -0.5333,-0.76481 0.29766,-0.26045 c 0.16123,-0.13642 0.35553,-0.24804 0.57464,-0.24804 v -0.14883 c -0.0951,0 -0.1819,0.0124 -0.27285,0.0124 -0.17364,0 -0.34727,-0.0124 -0.5209,-0.0124 v 0.14883 c 0.0579,0 0.11989,0.0331 0.11989,0.10335 0,0.062 -0.0455,0.10749 -0.0868,0.14469 l -0.56637,0.50023 v -2.00504 l -0.62012,0.0455 v 0.14883 c 0.21911,0 0.32659,0 0.32659,0.23564 v 2.21589 c 0,0.13229 -0.2067,0.13229 -0.32659,0.13229 z m 2.24172,0 c 0.1571,0 0.31833,-0.0124 0.48369,-0.0124 0.16124,0 0.31833,0.0124 0.47956,0.0124 v -0.14883 c -0.11989,0 -0.32659,0 -0.32659,-0.13229 v -0.83096 c 0,-0.32246 0.2191,-0.64078 0.5581,-0.64078 0.27699,0 0.30593,0.25631 0.30593,0.47128 v 1.00046 c 0,0.13229 -0.20671,0.13229 -0.33073,0.13229 v 0.14883 c 0.16123,0 0.32246,-0.0124 0.48369,-0.0124 0.16123,0 0.32246,0.0124 0.48369,0.0124 v -0.14883 c -0.12402,0 -0.33073,0 -0.33073,-0.13229 v -0.83096 c 0,-0.32246 0.21911,-0.64078 0.56224,-0.64078 0.27285,0 0.30179,0.25631 0.30179,0.47128 v 1.00046 c 0,0.13229 -0.2067,0.13229 -0.32659,0.13229 v 0.14883 c 0.15709,0 0.31832,-0.0124 0.48369,-0.0124 0.16123,0 0.32246,0.0124 0.47956,0.0124 v -0.14883 c -0.11989,0 -0.3266,0 -0.3266,-0.13229 v -1.01286 c 0,-0.3886 -0.20257,-0.57051 -0.58704,-0.57051 -0.25632,0 -0.49196,0.16123 -0.60359,0.39688 -0.062,-0.29766 -0.28938,-0.39688 -0.5705,-0.39688 -0.26872,0 -0.50023,0.17364 -0.60772,0.41342 v -0.41342 l -0.61185,0.0455 v 0.14883 c 0.21911,0 0.3266,0 0.3266,0.23564 v 1.15342 c 0,0.13229 -0.20671,0.13229 -0.3266,0.13229 z m 4.9196,0 c 0.1571,0 0.31833,-0.0124 0.48369,-0.0124 0.16123,0 0.31833,0.0124 0.47956,0.0124 v -0.14883 c -0.11989,0 -0.3266,0 -0.3266,-0.13229 v -0.83096 c 0,-0.32246 0.21911,-0.64078 0.55811,-0.64078 0.27698,0 0.30592,0.25631 0.30592,0.47128 v 1.00046 c 0,0.13229 -0.2067,0.13229 -0.33073,0.13229 v 0.14883 c 0.16123,0 0.32246,-0.0124 0.4837,-0.0124 0.16123,0 0.32246,0.0124 0.48369,0.0124 v -0.14883 c -0.12403,0 -0.33073,0 -0.33073,-0.13229 v -1.01286 c 0,-0.3886 -0.20257,-0.57051 -0.58705,-0.57051 -0.26871,0 -0.50022,0.17364 -0.60771,0.41342 v -0.41342 l -0.61185,0.0455 v 0.14883 c 0.21911,0 0.32659,0 0.32659,0.23564 v 1.15342 c 0,0.13229 -0.2067,0.13229 -0.32659,0.13229 z m 2.38435,-0.41341 c 0,0.34726 0.40101,0.45889 0.67799,0.45889 0.23565,0 0.45062,-0.1323 0.55811,-0.34314 0.0124,0.16537 0.13643,0.32246 0.31006,0.32246 0.19844,0 0.3638,-0.16949 0.3638,-0.36793 v -0.26872 h -0.12402 v 0.26872 c 0,0.0909 -0.0331,0.21911 -0.13643,0.21911 -0.11162,0 -0.14469,-0.12816 -0.14469,-0.21911 v -0.94671 c 0,-0.38034 -0.40101,-0.59945 -0.74001,-0.59945 -0.26872,0 -0.64492,0.11575 -0.64492,0.43822 0,0.11575 0.0909,0.20257 0.20257,0.20257 0.11576,0 0.20257,-0.0868 0.20257,-0.20257 0,-0.0992 -0.0744,-0.20258 -0.18603,-0.20258 0.11575,-0.0951 0.28112,-0.12402 0.42581,-0.12402 0.26458,0 0.42995,0.25632 0.42995,0.49609 v 0.17364 c -0.42168,0 -1.19476,0.14469 -1.19476,0.69453 z m 0.339,0 c 0,-0.42582 0.50436,-0.59118 0.85576,-0.59118 v 0.43822 c 0,0.27285 -0.21497,0.50436 -0.48783,0.50436 -0.1943,0 -0.36793,-0.15296 -0.36793,-0.3514 z m 3.16983,0.41341 h 1.45521 l 0.0703,-0.80615 h -0.12403 c -0.0165,0.19843 -0.0372,0.43408 -0.15296,0.55397 -0.13642,0.12816 -0.339,0.12816 -0.51676,0.12816 H 141.695 l 1.18236,-1.59164 c 0.004,-0.008 0.008,-0.0165 0.008,-0.0289 v -0.0248 c 0,-0.0289 -0.0207,-0.0496 -0.0455,-0.0496 H 141.426 l -0.0455,0.69866 h 0.11989 c 0,-0.50022 0.17363,-0.58704 0.62839,-0.58704 h 0.38033 l -1.17408,1.59577 c -0.008,0.0124 -0.0124,0.0207 -0.0124,0.0331 v 0.0331 c 0,0.0248 0.0207,0.0455 0.0455,0.0455 z m 2.98276,-2.86908 -0.47542,0.6656 0.0579,0.0537 0.62838,-0.5209 c 0.17364,-0.13642 -0.0785,-0.37207 -0.21084,-0.1943 z m -1.10381,2.45567 c 0,0.34726 0.40101,0.45889 0.678,0.45889 0.23564,0 0.45062,-0.1323 0.55811,-0.34314 0.0124,0.16537 0.13642,0.32246 0.31005,0.32246 0.19844,0 0.36381,-0.16949 0.36381,-0.36793 v -0.26872 h -0.12403 v 0.26872 c 0,0.0909 -0.0331,0.21911 -0.13642,0.21911 -0.11162,0 -0.1447,-0.12816 -0.1447,-0.21911 v -0.94671 c 0,-0.38034 -0.40101,-0.59945 -0.74,-0.59945 -0.26872,0 -0.64493,0.11575 -0.64493,0.43822 0,0.11575 0.0909,0.20257 0.20258,0.20257 0.11575,0 0.20257,-0.0868 0.20257,-0.20257 0,-0.0992 -0.0744,-0.20258 -0.18604,-0.20258 0.11576,-0.0951 0.28112,-0.12402 0.42582,-0.12402 0.26458,0 0.42994,0.25632 0.42994,0.49609 v 0.17364 c -0.42168,0 -1.19476,0.14469 -1.19476,0.69453 z m 0.339,0 c 0,-0.42582 0.50436,-0.59118 0.85576,-0.59118 v 0.43822 c 0,0.27285 -0.21497,0.50436 -0.48782,0.50436 -0.1943,0 -0.36794,-0.15296 -0.36794,-0.3514 z m 1.71153,1.23196 c 0.15709,0 0.31832,-0.0124 0.48369,-0.0124 0.16123,0 0.31832,0.0124 0.47955,0.0124 v -0.14882 c -0.11988,0 -0.32659,0 -0.32659,-0.1323 v -0.74 c 0.12816,0.15709 0.31419,0.24805 0.51676,0.24805 0.5209,0 0.93431,-0.43822 0.93431,-0.95499 0,-0.48782 -0.35553,-0.95498 -0.87229,-0.95498 -0.22325,0 -0.44235,0.0951 -0.59532,0.26045 v -0.26045 l -0.62011,0.0455 v 0.14883 c 0.16123,0 0.32659,0 0.32659,0.17363 v 2.03398 c 0,0.1323 -0.2067,0.1323 -0.32659,0.1323 z m 0.63665,-1.22783 v -1.00872 c 0.10749,-0.19844 0.31419,-0.32246 0.53743,-0.32246 0.38448,0 0.54984,0.51676 0.54984,0.83095 0,0.34314 -0.19017,0.8475 -0.59531,0.8475 -0.21911,0 -0.40101,-0.15296 -0.49196,-0.34727 z m 1.76423,-0.004 c 0,0.34726 0.40101,0.45888 0.678,0.45888 0.23564,0 0.45062,-0.13229 0.5581,-0.34313 0.0124,0.16537 0.13643,0.32246 0.31006,0.32246 0.19844,0 0.3638,-0.16949 0.3638,-0.36793 v -0.26872 h -0.12402 v 0.26872 c 0,0.0909 -0.0331,0.21911 -0.13643,0.21911 -0.11162,0 -0.14469,-0.12816 -0.14469,-0.21911 v -0.94671 c 0,-0.38034 -0.40101,-0.59945 -0.74001,-0.59945 -0.26871,0 -0.64492,0.11575 -0.64492,0.43822 0,0.11575 0.091,0.20257 0.20257,0.20257 0.11576,0 0.20258,-0.0868 0.20258,-0.20257 0,-0.0992 -0.0744,-0.20258 -0.18604,-0.20258 0.11576,-0.0951 0.28112,-0.12402 0.42581,-0.12402 0.26459,0 0.42995,0.25632 0.42995,0.49609 v 0.17364 c -0.42168,0 -1.19476,0.14469 -1.19476,0.69453 z m 0.339,0 c 0,-0.42582 0.50436,-0.59118 0.85576,-0.59118 v 0.43822 c 0,0.27285 -0.21497,0.50436 -0.48782,0.50436 -0.19431,0 -0.36794,-0.15296 -0.36794,-0.3514 z m 2.6293,0.45888 c 0.21497,0 0.42168,-0.0992 0.56637,-0.26458 v 0.26458 l 0.63665,-0.0455 v -0.14883 c -0.2191,0 -0.33072,0 -0.33072,-0.23564 v -2.54248 l -0.62426,0.0455 v 0.14883 c 0.21911,0 0.33073,0 0.33073,0.23564 v 0.87644 c -0.13642,-0.14883 -0.33073,-0.24392 -0.5333,-0.24392 -0.5209,0 -0.93431,0.43822 -0.93431,0.95498 0,0.4961 0.36794,0.95499 0.88884,0.95498 z m -0.42995,-0.41341 c -0.0868,-0.1695 -0.0951,-0.35553 -0.0951,-0.53743 0,-0.38447 0.12403,-0.84749 0.59532,-0.84749 0.21497,0 0.39687,0.12815 0.49609,0.31419 v 1.01286 c -0.0992,0.21084 -0.30592,0.3638 -0.54157,0.3638 -0.19844,0 -0.36793,-0.13229 -0.45475,-0.30593 z m 0,0"
       style="fill:#000000;fill-opacity:1;fill-rule:nonzero;stroke:none;stroke-width:0.423333"
       aria-label="choďte1kmnazápad" />
    <path
       id="path50-7"
       d="m 157.37188,124.77168 h 0.63246 v -6.74793 h -0.63246 z"
       style="fill:#000000;fill-opacity:1;fill-rule:nonzero;stroke:none;stroke-width:0.423333" />
    <path
       id="path51-6"
       d="M 94.277436,124.89825 H 158.00434"
       style="fill:none;stroke:#000000;stroke-width:0.253153;stroke-linecap:butt;stroke-linejoin:miter;stroke-miterlimit:10;stroke-dasharray:none;stroke-opacity:1" />
    <path
       id="path52-5"
       d="m 94.277436,131.77276 h 0.63246 v -6.74793 h -0.63246 z"
       style="fill:#000000;fill-opacity:1;fill-rule:nonzero;stroke:none;stroke-width:0.423333" />
    <path
       id="path53-4"
       d="m 99.33891,129.66442 h 1.5627 l 0.11988,-0.75241 h -0.12402 c -0.0207,0.13642 -0.0496,0.33486 -0.0992,0.3886 -0.0248,0.0207 -0.45888,0.0207 -0.71107,0.0207 h -0.405138 l 0.475418,-0.45888 c 0.34314,-0.3266 0.86403,-0.64906 0.86403,-1.17822 0,-0.51263 -0.41754,-0.82683 -0.8971,-0.82683 -0.425812,0 -0.78548,0.33487 -0.78548,0.76481 0,0.1323 0.09922,0.23151 0.231511,0.23151 0.128157,0 0.227376,-0.0992 0.227376,-0.23151 0,-0.12815 -0.09922,-0.22737 -0.227376,-0.22737 -0.01654,0 -0.02894,0 -0.04548,0.004 0.07855,-0.22737 0.289388,-0.39687 0.533309,-0.39687 0.3762,0 0.56224,0.339 0.56224,0.68213 0,0.45062 -0.339,0.80615 -0.62012,1.12034 l -0.653196,0.72347 c -0.0041,0.004 -0.0083,0.0165 -0.0083,0.0207 z m 0,0"
       style="fill:#000000;fill-opacity:1;fill-rule:nonzero;stroke:none;stroke-width:0.423333"
       aria-label="2" />
    <path
       id="path54-7"
       d="m 105.58044,131.77276 v -6.74793"
       style="fill:none;stroke:#000000;stroke-width:0.253153;stroke-linecap:butt;stroke-linejoin:miter;stroke-miterlimit:10;stroke-dasharray:none;stroke-opacity:1" />
    <path
       id="path55-3"
       d="m 110.97437,129.70989 c 0.34313,0 0.61185,-0.2067 0.69867,-0.53743 0,-0.008 0,-0.004 0,-0.0124 0,-0.0165 -0.0165,-0.0413 -0.0331,-0.0413 h -0.0496 c -0.0165,0 -0.0331,0.0124 -0.0331,0.0289 -0.0703,0.25632 -0.25631,0.44235 -0.5333,0.44235 -0.43821,0 -0.59531,-0.47129 -0.59531,-0.83509 0,-0.34313 0.11162,-0.85576 0.54984,-0.85576 0.13642,0 0.28939,0.0165 0.40927,0.0909 -0.0992,0.0207 -0.16536,0.0992 -0.16536,0.19844 0,0.11575 0.091,0.20257 0.20257,0.20257 0.11576,0 0.20257,-0.0868 0.20257,-0.20257 0,-0.3266 -0.39687,-0.41341 -0.65319,-0.41341 -0.52916,0 -0.9095,0.47128 -0.9095,0.97978 0,0.50436 0.39274,0.95498 0.9095,0.95498 z m 0.83509,-0.0455 c 0.1571,0 0.31833,-0.0124 0.4837,-0.0124 0.16123,0 0.31832,0.0124 0.47955,0.0124 v -0.14883 c -0.11989,0 -0.32659,0 -0.32659,-0.13229 v -0.83096 c 0,-0.32246 0.21911,-0.64079 0.5581,-0.64079 0.27699,0 0.30593,0.25632 0.30593,0.47129 v 1.00046 c 0,0.13229 -0.20671,0.13229 -0.33073,0.13229 v 0.14883 c 0.16123,0 0.32246,-0.0124 0.48369,-0.0124 0.16123,0 0.32246,0.0124 0.48369,0.0124 v -0.14883 c -0.12402,0 -0.33073,0 -0.33073,-0.13229 v -1.01286 c 0,-0.38861 -0.20257,-0.57051 -0.58704,-0.57051 -0.25632,0 -0.48369,0.16123 -0.59531,0.38861 v -1.45108 l -0.62426,0.0455 v 0.14883 c 0.21911,0 0.3266,0 0.3266,0.23564 v 2.21589 c 0,0.13229 -0.20671,0.13229 -0.3266,0.13229 z m 3.26906,0.0455 c 0.51263,0 0.93017,-0.42995 0.93017,-0.94258 0,-0.5209 -0.39274,-0.99218 -0.93017,-0.99218 -0.54157,0 -0.93431,0.47128 -0.93431,0.99218 0,0.51263 0.41754,0.94258 0.93431,0.94258 z m 0,-0.11989 c -0.50437,0 -0.57051,-0.48782 -0.57051,-0.86816 0,-0.21084 0.004,-0.42995 0.12402,-0.60358 0.0992,-0.1447 0.26872,-0.23151 0.44649,-0.23151 0.17363,0 0.34313,0.0868 0.44235,0.23151 0.11988,0.17363 0.12402,0.39274 0.12402,0.60358 0,0.38034 -0.0662,0.86816 -0.56637,0.86816 z m 3.30109,-2.11666 c 0,0.0124 0.0331,0.0331 0.062,0.0331 0.008,0 0.0165,0 0.0289,0 0.22324,-0.1447 0.35553,-0.33486 0.35553,-0.54157 0,-0.17363 -0.0537,-0.43822 -0.27699,-0.43822 -0.13229,0 -0.23151,0.0992 -0.23151,0.22325 0,0.12815 0.0992,0.22324 0.23151,0.22324 0.062,0 0.11989,-0.0165 0.1695,-0.0579 0,0.0124 0,0.0248 0,0.0372 0,0.18603 -0.11989,0.35967 -0.32246,0.48369 -0.008,0.004 -0.0165,0.008 -0.0165,0.0124 z m -1.09968,2.23655 c 0.21498,0 0.42168,-0.0992 0.56637,-0.26458 v 0.26458 l 0.63666,-0.0455 v -0.14883 c -0.21911,0 -0.33073,0 -0.33073,-0.23565 v -2.54248 l -0.62425,0.0455 v 0.14883 c 0.21911,0 0.33073,0 0.33073,0.23564 v 0.87643 c -0.13643,-0.14882 -0.33073,-0.24391 -0.5333,-0.24391 -0.5209,0 -0.93431,0.43822 -0.93431,0.95498 0,0.49609 0.36793,0.95498 0.88883,0.95498 z m -0.42995,-0.41341 c -0.0868,-0.1695 -0.0951,-0.35553 -0.0951,-0.53743 0,-0.38448 0.12402,-0.8475 0.59531,-0.8475 0.21498,0 0.39688,0.12816 0.49609,0.31419 v 1.01286 c -0.0992,0.21084 -0.30592,0.3638 -0.54156,0.3638 -0.19844,0 -0.36794,-0.13229 -0.45476,-0.30592 z m 2.17455,-0.13643 c 0,0.33487 0.21084,0.54984 0.54983,0.54984 0.28526,0 0.42168,-0.30179 0.42168,-0.54984 v -0.26045 h -0.12402 v 0.25219 c 0,0.16123 -0.0579,0.43821 -0.26872,0.43821 -0.22737,0 -0.26871,-0.26458 -0.26871,-0.43821 v -1.15756 h 0.59117 v -0.14882 h -0.59117 v -0.77308 h -0.12403 c 0,0.32246 -0.13229,0.81442 -0.53743,0.81442 v 0.10748 h 0.3514 z m 2.26032,0.54984 c 0.33073,0 0.62012,-0.22737 0.69867,-0.54157 0,-0.0248 -0.0124,-0.0579 -0.0413,-0.0579 h -0.0372 c -0.0207,0 -0.0372,0.0207 -0.0413,0.0413 -0.0662,0.24391 -0.28526,0.43821 -0.54157,0.43821 -0.47129,0 -0.60358,-0.46302 -0.60358,-0.85163 0,-0.0124 0,-0.0331 0,-0.0496 h 1.2237 c 0.0289,0 0.0413,-0.0289 0.0413,-0.0538 0,-0.47956 -0.23978,-0.85989 -0.75654,-0.85989 -0.51677,0 -0.8723,0.47542 -0.8723,0.96738 0,0.51263 0.40101,0.96738 0.93017,0.96738 z m -0.56223,-1.12448 c 0,-0.29352 0.15709,-0.69866 0.50436,-0.69866 0.35553,0 0.45888,0.41341 0.45888,0.69866 z m 3.18326,1.07901 c 0.23151,0 0.45889,-0.0124 0.6904,-0.0124 0.23151,0 0.45889,0.0124 0.6904,0.0124 v -0.14883 c -0.11576,0 -0.52504,0 -0.52504,-0.13229 v -2.48874 c 0,-0.0165 -0.0248,-0.0372 -0.0413,-0.0372 h -0.062 c -0.20257,0.20671 -0.49609,0.26872 -0.77721,0.26872 v 0.14883 c 0.1943,0 0.3886,-0.0248 0.54983,-0.10749 v 2.21589 c 0,0.13229 -0.40927,0.13229 -0.52503,0.13229 z m 3.23598,0 c 0.15296,0 0.31006,-0.0124 0.47129,-0.0124 0.1571,0 0.31006,0.0124 0.46716,0.0124 v -0.14883 c -0.12403,0 -0.33073,0 -0.33073,-0.13229 v -0.47129 l 0.26045,-0.22324 0.40514,0.57877 c 0.0372,0.0455 0.0744,0.10749 0.0744,0.16123 0,0.0744 -0.0827,0.0868 -0.14469,0.0868 v 0.14883 c 0.1571,0 0.31833,-0.0124 0.48369,-0.0124 0.11989,0 0.23978,0.0124 0.35553,0.0124 v -0.14883 c -0.24391,0 -0.29765,-0.0538 -0.43408,-0.24805 l -0.5333,-0.76481 0.29766,-0.26045 c 0.16123,-0.13643 0.35553,-0.24805 0.57464,-0.24805 v -0.14882 c -0.0951,0 -0.1819,0.0124 -0.27285,0.0124 -0.17363,0 -0.34727,-0.0124 -0.5209,-0.0124 v 0.14882 c 0.0579,0 0.11989,0.0331 0.11989,0.10336 0,0.062 -0.0455,0.10748 -0.0868,0.14469 l -0.56637,0.50023 v -2.00505 l -0.62012,0.0455 v 0.14883 c 0.21911,0 0.3266,0 0.3266,0.23564 v 2.21589 c 0,0.13229 -0.20671,0.13229 -0.3266,0.13229 z m 2.24276,0 c 0.15709,0 0.31833,-0.0124 0.48369,-0.0124 0.16123,0 0.31833,0.0124 0.47956,0.0124 v -0.14883 c -0.11989,0 -0.3266,0 -0.3266,-0.13229 v -0.83096 c 0,-0.32246 0.21911,-0.64079 0.55811,-0.64079 0.27698,0 0.30592,0.25632 0.30592,0.47129 v 1.00046 c 0,0.13229 -0.2067,0.13229 -0.33073,0.13229 v 0.14883 c 0.16123,0 0.32246,-0.0124 0.48369,-0.0124 0.16124,0 0.32247,0.0124 0.4837,0.0124 v -0.14883 c -0.12403,0 -0.33073,0 -0.33073,-0.13229 v -0.83096 c 0,-0.32246 0.2191,-0.64079 0.56224,-0.64079 0.27285,0 0.30179,0.25632 0.30179,0.47129 v 1.00046 c 0,0.13229 -0.20671,0.13229 -0.3266,0.13229 v 0.14883 c 0.1571,0 0.31833,-0.0124 0.48369,-0.0124 0.16123,0 0.32246,0.0124 0.47956,0.0124 v -0.14883 c -0.11989,0 -0.32659,0 -0.32659,-0.13229 v -1.01286 c 0,-0.38861 -0.20258,-0.57051 -0.58705,-0.57051 -0.25631,0 -0.49196,0.16123 -0.60358,0.39688 -0.062,-0.29766 -0.28939,-0.39688 -0.57051,-0.39688 -0.26872,0 -0.50023,0.17363 -0.60771,0.41341 v -0.41341 l -0.61185,0.0455 v 0.14882 c 0.21911,0 0.32659,0 0.32659,0.23565 v 1.15342 c 0,0.13229 -0.2067,0.13229 -0.32659,0.13229 z m 4.91856,0 c 0.1571,0 0.31833,-0.0124 0.48369,-0.0124 0.16123,0 0.31833,0.0124 0.47956,0.0124 v -0.14883 c -0.11989,0 -0.32659,0 -0.32659,-0.13229 v -0.83096 c 0,-0.32246 0.2191,-0.64079 0.5581,-0.64079 0.27699,0 0.30593,0.25632 0.30593,0.47129 v 1.00046 c 0,0.13229 -0.20671,0.13229 -0.33073,0.13229 v 0.14883 c 0.16123,0 0.32246,-0.0124 0.48369,-0.0124 0.16123,0 0.32246,0.0124 0.48369,0.0124 v -0.14883 c -0.12402,0 -0.33073,0 -0.33073,-0.13229 v -1.01286 c 0,-0.38861 -0.20257,-0.57051 -0.58704,-0.57051 -0.26872,0 -0.50023,0.17363 -0.60772,0.41341 v -0.41341 l -0.61185,0.0455 v 0.14882 c 0.21911,0 0.3266,0 0.3266,0.23565 v 1.15342 c 0,0.13229 -0.20671,0.13229 -0.3266,0.13229 z m 2.38539,-0.41342 c 0,0.34727 0.401,0.45889 0.67799,0.45889 0.23564,0 0.45062,-0.13229 0.55811,-0.34313 0.0124,0.16536 0.13642,0.32246 0.31005,0.32246 0.19844,0 0.36381,-0.1695 0.36381,-0.36794 v -0.26871 h -0.12403 v 0.26871 c 0,0.091 -0.0331,0.21911 -0.13642,0.21911 -0.11162,0 -0.1447,-0.12815 -0.1447,-0.21911 v -0.94671 c 0,-0.38034 -0.40101,-0.59944 -0.74,-0.59944 -0.26872,0 -0.64493,0.11575 -0.64493,0.43821 0,0.11576 0.091,0.20257 0.20258,0.20257 0.11575,0 0.20257,-0.0868 0.20257,-0.20257 0,-0.0992 -0.0744,-0.20257 -0.18604,-0.20257 0.11576,-0.0951 0.28112,-0.12402 0.42582,-0.12402 0.26458,0 0.42994,0.25631 0.42994,0.49609 v 0.17363 c -0.42168,0 -1.19475,0.1447 -1.19475,0.69453 z m 0.33899,0 c 0,-0.42581 0.50436,-0.59117 0.85576,-0.59117 v 0.43821 c 0,0.27285 -0.21497,0.50436 -0.48782,0.50436 -0.1943,0 -0.36794,-0.15296 -0.36794,-0.3514 z m 4.03387,0.41342 c 0.008,0.0289 0.0372,0.0455 0.0661,0.0455 h 0.0289 c 0.0289,0 0.062,-0.0165 0.0703,-0.0455 l 0.56637,-1.43454 c 0.0703,-0.1571 0.21084,-0.23565 0.38034,-0.23565 v -0.14882 c -0.0992,0 -0.2067,0.0124 -0.31006,0.0124 -0.13229,0 -0.26045,-0.0124 -0.3886,-0.0124 v 0.14882 c 0.0992,0 0.20257,0.062 0.20257,0.17364 0,0.0248 -0.004,0.0455 -0.0124,0.0661 l -0.42581,1.07487 -0.47542,-1.18649 c -0.004,-0.008 -0.004,-0.0165 -0.004,-0.0248 0,-0.10336 0.16536,-0.10336 0.23978,-0.10336 v -0.14882 c -0.16123,0 -0.32246,0.0124 -0.48369,0.0124 -0.1323,0 -0.26872,-0.0124 -0.40515,-0.0124 v 0.14882 c 0.13229,0 0.27285,0 0.33487,0.12403 z m 2.44016,-2.87735 -0.47543,0.66146 0.0579,0.0579 0.62839,-0.5209 c 0.17363,-0.13643 -0.0786,-0.37207 -0.21084,-0.1943 z m -0.95498,3.56774 c 0.0992,-0.008 0.16123,-0.0868 0.16123,-0.1819 0,-0.10335 -0.0786,-0.1819 -0.18604,-0.1819 -0.10335,0 -0.18603,0.0786 -0.18603,0.1819 0,0.20671 0.19017,0.35554 0.3886,0.35554 0.28939,0 0.46716,-0.27286 0.56638,-0.5085 l 0.7276,-1.79007 c 0.0703,-0.1571 0.21084,-0.23565 0.38034,-0.23565 v -0.14882 c -0.10335,0 -0.20671,0.0124 -0.31006,0.0124 -0.13229,0 -0.26045,-0.0124 -0.38861,-0.0124 v 0.14882 c 0.0992,0 0.19844,0.062 0.19844,0.1695 0,0.0248 -0.004,0.0496 -0.0124,0.0703 l -0.42168,1.03767 -0.46716,-1.14929 c -0.008,-0.008 -0.008,-0.0165 -0.008,-0.0248 0,-0.10336 0.16536,-0.10336 0.23564,-0.10336 v -0.14882 c -0.1571,0 -0.31833,0.0124 -0.48369,0.0124 -0.13229,0 -0.26872,-0.0124 -0.40514,-0.0124 v 0.14882 c 0.13642,0 0.27285,0 0.33486,0.12403 l 0.63252,1.54616 -0.1447,0.35553 c -0.0744,0.1819 -0.21083,0.40101 -0.43408,0.40101 -0.0661,0 -0.12402,-0.0248 -0.17776,-0.0662 z m 2.98689,-0.64492 c 0.34314,0 0.61185,-0.2067 0.69867,-0.53743 0,-0.008 0,-0.004 0,-0.0124 0,-0.0165 -0.0165,-0.0413 -0.0331,-0.0413 h -0.0496 c -0.0165,0 -0.0331,0.0124 -0.0331,0.0289 -0.0703,0.25632 -0.25631,0.44235 -0.5333,0.44235 -0.43822,0 -0.59531,-0.47129 -0.59531,-0.83509 0,-0.34313 0.11162,-0.85576 0.54984,-0.85576 0.13642,0 0.28938,0.0165 0.40927,0.0909 -0.0992,0.0207 -0.16536,0.0992 -0.16536,0.19844 0,0.11575 0.0909,0.20257 0.20257,0.20257 0.11576,0 0.20257,-0.0868 0.20257,-0.20257 0,-0.3266 -0.39687,-0.41341 -0.65319,-0.41341 -0.52917,0 -0.9095,0.47128 -0.9095,0.97978 0,0.50436 0.39274,0.95498 0.9095,0.95498 z m 0.83923,-0.0455 c 0.1571,0 0.31833,-0.0124 0.48369,-0.0124 0.16123,0 0.31833,0.0124 0.47956,0.0124 v -0.14883 c -0.11989,0 -0.3266,0 -0.3266,-0.13229 v -0.83096 c 0,-0.32246 0.21911,-0.64079 0.55811,-0.64079 0.27698,0 0.30592,0.25632 0.30592,0.47129 v 1.00046 c 0,0.13229 -0.2067,0.13229 -0.33073,0.13229 v 0.14883 c 0.16123,0 0.32246,-0.0124 0.48369,-0.0124 0.16124,0 0.32247,0.0124 0.4837,0.0124 v -0.14883 c -0.12403,0 -0.33073,0 -0.33073,-0.13229 v -1.01286 c 0,-0.38861 -0.20257,-0.57051 -0.58705,-0.57051 -0.25631,0 -0.48369,0.16123 -0.59531,0.38861 v -1.45108 l -0.62425,0.0455 v 0.14883 c 0.21911,0 0.32659,0 0.32659,0.23564 v 2.21589 c 0,0.13229 -0.2067,0.13229 -0.32659,0.13229 z m 3.26492,0.0455 c 0.51263,0 0.93017,-0.42995 0.93017,-0.94258 0,-0.5209 -0.39274,-0.99218 -0.93017,-0.99218 -0.54157,0 -0.93431,0.47128 -0.93431,0.99218 0,0.51263 0.41754,0.94258 0.93431,0.94258 z m 0,-0.11989 c -0.50437,0 -0.57051,-0.48782 -0.57051,-0.86816 0,-0.21084 0.004,-0.42995 0.12402,-0.60358 0.0992,-0.1447 0.26872,-0.23151 0.44649,-0.23151 0.17363,0 0.34313,0.0868 0.44235,0.23151 0.11989,0.17363 0.12402,0.39274 0.12402,0.60358 0,0.38034 -0.0662,0.86816 -0.56637,0.86816 z m 2.20141,0.11989 c 0.21498,0 0.42168,-0.0992 0.56637,-0.26458 v 0.26458 l 0.63666,-0.0455 v -0.14883 c -0.21911,0 -0.33073,0 -0.33073,-0.23565 v -2.54248 l -0.62425,0.0455 v 0.14883 c 0.21911,0 0.33073,0 0.33073,0.23564 v 0.87643 c -0.13643,-0.14882 -0.33073,-0.24391 -0.5333,-0.24391 -0.5209,0 -0.93431,0.43822 -0.93431,0.95498 0,0.49609 0.36793,0.95498 0.88883,0.95498 z m -0.42995,-0.41341 c -0.0868,-0.1695 -0.0951,-0.35553 -0.0951,-0.53743 0,-0.38448 0.12402,-0.8475 0.59531,-0.8475 0.21498,0 0.39688,0.12816 0.49609,0.31419 v 1.01286 c -0.0992,0.21084 -0.30592,0.3638 -0.54156,0.3638 -0.19844,0 -0.36794,-0.13229 -0.45476,-0.30592 z m 0,0"
       style="fill:#000000;fill-opacity:1;fill-rule:nonzero;stroke:none;stroke-width:0.423333"
       aria-label="choďte1kmnavýchod" />
    <path
       id="path56-6"
       d="m 157.37188,131.77276 h 0.63246 v -6.74793 h -0.63246 z"
       style="fill:#000000;fill-opacity:1;fill-rule:nonzero;stroke:none;stroke-width:0.423333" />
    <path
       id="path57-2"
       d="M 94.277436,131.89934 H 158.00434"
       style="fill:none;stroke:#000000;stroke-width:0.253153;stroke-linecap:butt;stroke-linejoin:miter;stroke-miterlimit:10;stroke-dasharray:none;stroke-opacity:1" />
    <path
       id="path58-4"
       d="m 94.277436,138.77385 h 0.63246 v -6.74793 h -0.63246 z"
       style="fill:#000000;fill-opacity:1;fill-rule:nonzero;stroke:none;stroke-width:0.423333" />
    <path
       id="path59-4"
       d="m 99.529079,136.33894 c 0.0041,0 0.0124,0 0.02067,0 0.14056,0 0.243913,-0.10336 0.243913,-0.24392 0,-0.13642 -0.103353,-0.24391 -0.243913,-0.24391 -0.14056,0 -0.243913,0.10749 -0.243913,0.24391 0,0.44235 0.463021,0.66146 0.847494,0.66146 0.45889,0 0.90124,-0.33486 0.90124,-0.81855 0,-0.39274 -0.34313,-0.68213 -0.71107,-0.74828 0.3266,-0.10748 0.59945,-0.39274 0.59945,-0.75241 0,-0.3886 -0.45889,-0.57877 -0.78962,-0.57877 -0.338998,0 -0.735873,0.20257 -0.735873,0.58291 0,0.12816 0.09922,0.22738 0.223243,0.22738 0.128157,0 0.227376,-0.0992 0.227376,-0.22738 0,-0.12402 -0.09922,-0.22324 -0.227376,-0.22324 -0.0083,0 -0.02067,0.004 -0.02894,0.004 0.119889,-0.1695 0.343131,-0.24391 0.54157,-0.24391 0.27285,0 0.38447,0.21497 0.38447,0.45889 0,0.25631 -0.11575,0.69039 -0.43408,0.69039 l -0.231511,0.0165 c -0.0248,0 -0.04134,0.0165 -0.04134,0.0331 v 0.0372 c 0,0.0207 0.01654,0.0372 0.04134,0.0372 h 0.276991 c 0.3638,0 0.45475,0.40101 0.45475,0.69039 0,0.28112 -0.0868,0.68213 -0.45062,0.68213 -0.231511,0 -0.487827,-0.0868 -0.624252,-0.28525 z m 0,0"
       style="fill:#000000;fill-opacity:1;fill-rule:nonzero;stroke:none;stroke-width:0.423333"
       aria-label="3" />
    <path
       id="path60-2"
       d="m 105.58044,138.77385 v -6.74793"
       style="fill:none;stroke:#000000;stroke-width:0.253153;stroke-linecap:butt;stroke-linejoin:miter;stroke-miterlimit:10;stroke-dasharray:none;stroke-opacity:1" />
    <path
       id="path61-1"
       d="m 112.94842,136.71101 c 0.34313,0 0.61185,-0.20671 0.69866,-0.53744 0,-0.008 0,-0.004 0,-0.0124 0,-0.0165 -0.0165,-0.0413 -0.0331,-0.0413 h -0.0496 c -0.0165,0 -0.0331,0.0124 -0.0331,0.0289 -0.0703,0.25631 -0.25632,0.44235 -0.5333,0.44235 -0.43822,0 -0.59531,-0.47129 -0.59531,-0.83509 0,-0.34313 0.11162,-0.85576 0.54983,-0.85576 0.13643,0 0.28939,0.0165 0.40928,0.0909 -0.0992,0.0207 -0.16536,0.0992 -0.16536,0.19843 0,0.11576 0.0909,0.20258 0.20257,0.20258 0.11575,0 0.20257,-0.0868 0.20257,-0.20258 0,-0.32659 -0.39688,-0.41341 -0.65319,-0.41341 -0.52917,0 -0.90951,0.47129 -0.90951,0.97979 0,0.50436 0.39275,0.95498 0.90951,0.95498 z m 0.83509,-0.0455 c 0.1571,0 0.31833,-0.0124 0.48369,-0.0124 0.16123,0 0.31833,0.0124 0.47956,0.0124 v -0.14883 c -0.11989,0 -0.3266,0 -0.3266,-0.13229 v -0.83095 c 0,-0.32247 0.21911,-0.64079 0.55811,-0.64079 0.27699,0 0.30592,0.25631 0.30592,0.47129 v 1.00045 c 0,0.13229 -0.2067,0.13229 -0.33073,0.13229 v 0.14883 c 0.16124,0 0.32247,-0.0124 0.4837,-0.0124 0.16123,0 0.32246,0.0124 0.48369,0.0124 v -0.14883 c -0.12403,0 -0.33073,0 -0.33073,-0.13229 v -1.01286 c 0,-0.3886 -0.20257,-0.5705 -0.58705,-0.5705 -0.25631,0 -0.48369,0.16123 -0.59531,0.3886 v -1.45107 l -0.62425,0.0455 v 0.14883 c 0.21911,0 0.3266,0 0.3266,0.23565 v 2.21588 c 0,0.13229 -0.20671,0.13229 -0.3266,0.13229 z m 3.26905,0.0455 c 0.51263,0 0.93018,-0.42995 0.93018,-0.94258 0,-0.5209 -0.39274,-0.99219 -0.93018,-0.99219 -0.54157,0 -0.93431,0.47129 -0.93431,0.99219 0,0.51263 0.41755,0.94258 0.93431,0.94258 z m 0,-0.11989 c -0.50436,0 -0.57051,-0.48783 -0.57051,-0.86817 0,-0.21084 0.004,-0.42994 0.12403,-0.60358 0.0992,-0.14469 0.26871,-0.23151 0.44648,-0.23151 0.17363,0 0.34313,0.0868 0.44235,0.23151 0.11989,0.17364 0.12403,0.39274 0.12403,0.60358 0,0.38034 -0.0661,0.86817 -0.56638,0.86817 z m 3.30109,-2.11667 c 0,0.0124 0.0331,0.0331 0.062,0.0331 0.008,0 0.0165,0 0.0289,0 0.22325,-0.14469 0.35554,-0.33486 0.35554,-0.54156 0,-0.17364 -0.0537,-0.43822 -0.27699,-0.43822 -0.13229,0 -0.23151,0.0992 -0.23151,0.22324 0,0.12816 0.0992,0.22324 0.23151,0.22324 0.062,0 0.11989,-0.0165 0.1695,-0.0579 0,0.0124 0,0.0248 0,0.0372 0,0.18604 -0.11989,0.35967 -0.32246,0.48369 -0.008,0.004 -0.0165,0.008 -0.0165,0.0124 z m -1.09967,2.23656 c 0.21497,0 0.42168,-0.0992 0.56637,-0.26459 v 0.26459 l 0.63665,-0.0455 v -0.14883 c -0.2191,0 -0.33072,0 -0.33072,-0.23564 v -2.54248 l -0.62426,0.0455 v 0.14883 c 0.21911,0 0.33073,0 0.33073,0.23565 v 0.87643 c -0.13642,-0.14883 -0.33073,-0.24391 -0.5333,-0.24391 -0.5209,0 -0.93431,0.43821 -0.93431,0.95498 0,0.49609 0.36794,0.95498 0.88884,0.95498 z m -0.42995,-0.41341 c -0.0868,-0.1695 -0.0951,-0.35554 -0.0951,-0.53744 0,-0.38447 0.12402,-0.84749 0.59531,-0.84749 0.21497,0 0.39687,0.12816 0.49609,0.31419 v 1.01286 c -0.0992,0.21084 -0.30592,0.3638 -0.54157,0.3638 -0.19844,0 -0.36793,-0.13229 -0.45475,-0.30592 z m 2.17454,-0.13643 c 0,0.33486 0.21084,0.54984 0.54984,0.54984 0.28525,0 0.42168,-0.30179 0.42168,-0.54984 v -0.26045 h -0.12402 v 0.25218 c 0,0.16123 -0.0579,0.43822 -0.26872,0.43822 -0.22738,0 -0.26872,-0.26458 -0.26872,-0.43822 v -1.15755 h 0.59118 v -0.14883 h -0.59118 v -0.77308 h -0.12402 c 0,0.32246 -0.13229,0.81442 -0.53744,0.81442 v 0.10749 h 0.3514 z m 2.26033,0.54984 c 0.33073,0 0.62012,-0.22738 0.69867,-0.54157 0,-0.0248 -0.0124,-0.0579 -0.0414,-0.0579 h -0.0372 c -0.0207,0 -0.0372,0.0207 -0.0413,0.0413 -0.0661,0.24391 -0.28525,0.43822 -0.54156,0.43822 -0.47129,0 -0.60359,-0.46302 -0.60359,-0.85163 0,-0.0124 0,-0.0331 0,-0.0496 h 1.2237 c 0.0289,0 0.0414,-0.0289 0.0414,-0.0537 0,-0.47956 -0.23978,-0.8599 -0.75655,-0.8599 -0.51676,0 -0.8723,0.47543 -0.8723,0.96738 0,0.51264 0.40101,0.96739 0.93018,0.96739 z m -0.56224,-1.12448 c 0,-0.29352 0.1571,-0.69867 0.50436,-0.69867 0.35554,0 0.45889,0.41341 0.45889,0.69867 z m 3.18327,1.079 c 0.23151,0 0.45889,-0.0124 0.6904,-0.0124 0.23151,0 0.45888,0.0124 0.69039,0.0124 v -0.14883 c -0.11575,0 -0.52503,0 -0.52503,-0.13229 v -2.48873 c 0,-0.0165 -0.0248,-0.0372 -0.0413,-0.0372 h -0.062 c -0.20257,0.2067 -0.4961,0.26872 -0.77722,0.26872 v 0.14882 c 0.19431,0 0.38861,-0.0248 0.54984,-0.10748 v 2.21588 c 0,0.13229 -0.40928,0.13229 -0.52503,0.13229 z m 3.23598,0 c 0.15296,0 0.31006,-0.0124 0.47129,-0.0124 0.15709,0 0.31006,0.0124 0.46715,0.0124 v -0.14883 c -0.12402,0 -0.33073,0 -0.33073,-0.13229 v -0.47129 l 0.26045,-0.22324 0.40515,0.57878 c 0.0372,0.0455 0.0744,0.10748 0.0744,0.16123 0,0.0744 -0.0827,0.0868 -0.14469,0.0868 v 0.14883 c 0.15709,0 0.31832,-0.0124 0.48369,-0.0124 0.11989,0 0.23978,0.0124 0.35553,0.0124 v -0.14883 c -0.24391,0 -0.29766,-0.0537 -0.43408,-0.24804 l -0.5333,-0.76481 0.29765,-0.26045 c 0.16123,-0.13643 0.35554,-0.24805 0.57465,-0.24805 v -0.14883 c -0.0951,0 -0.18191,0.0124 -0.27286,0.0124 -0.17363,0 -0.34726,-0.0124 -0.52089,-0.0124 v 0.14883 c 0.0579,0 0.11989,0.0331 0.11989,0.10335 0,0.062 -0.0455,0.10749 -0.0868,0.1447 l -0.56638,0.50022 v -2.00504 l -0.62011,0.0455 v 0.14883 c 0.21911,0 0.32659,0 0.32659,0.23565 v 2.21588 c 0,0.13229 -0.2067,0.13229 -0.32659,0.13229 z m 2.24275,0 c 0.1571,0 0.31833,-0.0124 0.4837,-0.0124 0.16123,0 0.31832,0.0124 0.47955,0.0124 v -0.14883 c -0.11989,0 -0.32659,0 -0.32659,-0.13229 v -0.83095 c 0,-0.32247 0.21911,-0.64079 0.5581,-0.64079 0.27699,0 0.30593,0.25631 0.30593,0.47129 v 1.00045 c 0,0.13229 -0.20671,0.13229 -0.33073,0.13229 v 0.14883 c 0.16123,0 0.32246,-0.0124 0.48369,-0.0124 0.16123,0 0.32246,0.0124 0.48369,0.0124 v -0.14883 c -0.12402,0 -0.33073,0 -0.33073,-0.13229 v -0.83095 c 0,-0.32247 0.21911,-0.64079 0.56224,-0.64079 0.27285,0 0.30179,0.25631 0.30179,0.47129 v 1.00045 c 0,0.13229 -0.2067,0.13229 -0.32659,0.13229 v 0.14883 c 0.15709,0 0.31832,-0.0124 0.48369,-0.0124 0.16123,0 0.32246,0.0124 0.47956,0.0124 v -0.14883 c -0.11989,0 -0.3266,0 -0.3266,-0.13229 v -1.01286 c 0,-0.3886 -0.20257,-0.5705 -0.58704,-0.5705 -0.25632,0 -0.49196,0.16123 -0.60358,0.39687 -0.062,-0.29765 -0.28939,-0.39687 -0.57051,-0.39687 -0.26872,0 -0.50023,0.17363 -0.60772,0.41341 v -0.41341 l -0.61185,0.0455 v 0.14883 c 0.21911,0 0.3266,0 0.3266,0.23564 v 1.15342 c 0,0.13229 -0.20671,0.13229 -0.3266,0.13229 z m 4.91857,0 c 0.15709,0 0.31832,-0.0124 0.48369,-0.0124 0.16123,0 0.31833,0.0124 0.47956,0.0124 v -0.14883 c -0.11989,0 -0.3266,0 -0.3266,-0.13229 v -0.83095 c 0,-0.32247 0.21911,-0.64079 0.55811,-0.64079 0.27698,0 0.30592,0.25631 0.30592,0.47129 v 1.00045 c 0,0.13229 -0.2067,0.13229 -0.33073,0.13229 v 0.14883 c 0.16123,0 0.32246,-0.0124 0.48369,-0.0124 0.16123,0 0.32246,0.0124 0.4837,0.0124 v -0.14883 c -0.12403,0 -0.33073,0 -0.33073,-0.13229 v -1.01286 c 0,-0.3886 -0.20258,-0.5705 -0.58705,-0.5705 -0.26872,0 -0.50023,0.17363 -0.60771,0.41341 v -0.41341 l -0.61185,0.0455 v 0.14883 c 0.21911,0 0.32659,0 0.32659,0.23564 v 1.15342 c 0,0.13229 -0.2067,0.13229 -0.32659,0.13229 z m 2.38435,-0.41341 c 0,0.34727 0.40101,0.45889 0.67799,0.45889 0.23565,0 0.45062,-0.13229 0.55811,-0.34313 0.0124,0.16536 0.13642,0.32246 0.31006,0.32246 0.19843,0 0.3638,-0.1695 0.3638,-0.36794 v -0.26872 h -0.12402 v 0.26872 c 0,0.091 -0.0331,0.21911 -0.13643,0.21911 -0.11162,0 -0.14469,-0.12816 -0.14469,-0.21911 v -0.94671 c 0,-0.38034 -0.40101,-0.59945 -0.74001,-0.59945 -0.26872,0 -0.64492,0.11576 -0.64492,0.43822 0,0.11575 0.0909,0.20257 0.20257,0.20257 0.11575,0 0.20257,-0.0868 0.20257,-0.20257 0,-0.0992 -0.0744,-0.20257 -0.18603,-0.20257 0.11575,-0.0951 0.28112,-0.12403 0.42581,-0.12403 0.26458,0 0.42995,0.25632 0.42995,0.4961 v 0.17363 c -0.42168,0 -1.19476,0.14469 -1.19476,0.69453 z m 0.339,0 c 0,-0.42581 0.50436,-0.59118 0.85576,-0.59118 v 0.43822 c 0,0.27285 -0.21498,0.50436 -0.48783,0.50436 -0.1943,0 -0.36793,-0.15296 -0.36793,-0.3514 z m 3.14606,0.42581 c 0,0.0165 0.0165,0.0331 0.0372,0.0331 h 0.0248 c 0.004,0 0.0207,-0.004 0.0207,-0.008 l 0.15709,-0.1695 c 0.11989,0.11989 0.28112,0.17777 0.45062,0.17777 0.37621,0 0.68627,-0.17777 0.68627,-0.59531 0,-0.3142 -0.25632,-0.51263 -0.53744,-0.57465 l -0.28939,-0.0579 c -0.14469,-0.0331 -0.33073,-0.11989 -0.33073,-0.29766 0,-0.25218 0.26459,-0.31419 0.46716,-0.31419 0.29352,0 0.46302,0.20257 0.46302,0.49196 0,0.0207 0.0165,0.0372 0.0372,0.0372 h 0.0537 c 0.0165,0 0.0331,-0.0165 0.0331,-0.0372 v -0.55397 c 0,-0.0165 -0.0165,-0.0331 -0.0331,-0.0331 h -0.0331 c -0.008,0 -0.0207,0.004 -0.0207,0.008 l -0.11989,0.10749 c -0.11162,-0.0827 -0.24391,-0.11576 -0.3762,-0.11576 -0.339,0 -0.6904,0.13643 -0.6904,0.52917 0,0.29352 0.26872,0.45475 0.5209,0.50849 l 0.28112,0.0538 c 0.17363,0.0413 0.35553,0.16536 0.35553,0.3638 0,0.27285 -0.23151,0.37207 -0.46715,0.37207 -0.35967,0 -0.5085,-0.30179 -0.57051,-0.61185 -0.004,-0.0165 -0.0165,-0.0331 -0.0331,-0.0331 h -0.0496 c -0.0207,0 -0.0372,0.0165 -0.0372,0.0331 z m 2.57245,0.0331 c 0.33073,0 0.62012,-0.22738 0.69867,-0.54157 0,-0.0248 -0.0124,-0.0579 -0.0413,-0.0579 h -0.0372 c -0.0207,0 -0.0372,0.0207 -0.0414,0.0413 -0.0661,0.24391 -0.28525,0.43822 -0.54157,0.43822 -0.47128,0 -0.60358,-0.46302 -0.60358,-0.85163 0,-0.0124 0,-0.0331 0,-0.0496 h 1.2237 c 0.0289,0 0.0413,-0.0289 0.0413,-0.0537 0,-0.47956 -0.23977,-0.8599 -0.75654,-0.8599 -0.51676,0 -0.8723,0.47543 -0.8723,0.96738 0,0.51264 0.40101,0.96739 0.93018,0.96739 z m -0.56224,-1.12448 c 0,-0.29352 0.1571,-0.69867 0.50436,-0.69867 0.35554,0 0.45889,0.41341 0.45889,0.69867 z m 2.41639,1.079 c 0.008,0.0289 0.0372,0.0455 0.0661,0.0455 h 0.0289 c 0.0289,0 0.062,-0.0165 0.0703,-0.0455 l 0.56637,-1.43454 c 0.0703,-0.15709 0.21084,-0.23564 0.38034,-0.23564 v -0.14883 c -0.0992,0 -0.20671,0.0124 -0.31006,0.0124 -0.13229,0 -0.26045,-0.0124 -0.38861,-0.0124 v 0.14883 c 0.0992,0 0.20257,0.062 0.20257,0.17363 0,0.0248 -0.004,0.0455 -0.0124,0.0661 l -0.42581,1.07487 -0.47543,-1.18649 c -0.004,-0.008 -0.004,-0.0165 -0.004,-0.0248 0,-0.10335 0.16537,-0.10335 0.23978,-0.10335 v -0.14883 c -0.16123,0 -0.32246,0.0124 -0.48369,0.0124 -0.13229,0 -0.26872,-0.0124 -0.40514,-0.0124 v 0.14883 c 0.13229,0 0.27285,0 0.33486,0.12402 z m 2.13217,0.0455 c 0.33073,0 0.62012,-0.22738 0.69866,-0.54157 0,-0.0248 -0.0124,-0.0579 -0.0413,-0.0579 h -0.0372 c -0.0207,0 -0.0372,0.0207 -0.0413,0.0413 -0.0661,0.24391 -0.28525,0.43822 -0.54157,0.43822 -0.47129,0 -0.60358,-0.46302 -0.60358,-0.85163 0,-0.0124 0,-0.0331 0,-0.0496 h 1.2237 c 0.0289,0 0.0413,-0.0289 0.0413,-0.0537 0,-0.47956 -0.23977,-0.8599 -0.75654,-0.8599 -0.51676,0 -0.8723,0.47543 -0.8723,0.96738 0,0.51264 0.40101,0.96739 0.93018,0.96739 z m -0.56224,-1.12448 c 0,-0.29352 0.1571,-0.69867 0.50436,-0.69867 0.35554,0 0.45889,0.41341 0.45889,0.69867 z m 1.49862,1.079 c 0.15709,0 0.31419,-0.0124 0.47542,-0.0124 0.18604,0 0.37207,0.0124 0.55397,0.0124 v -0.14883 c -0.11575,0 -0.40928,0 -0.40928,-0.13229 v -0.69453 c 0,-0.29352 0.10336,-0.77721 0.47956,-0.77721 0.008,0 0.0165,0 0.0248,0 -0.0537,0.0331 -0.0827,0.0951 -0.0827,0.15709 0,0.10749 0.0868,0.19017 0.19017,0.19017 0.10749,0 0.19017,-0.0827 0.19017,-0.19017 0,-0.16536 -0.1695,-0.26871 -0.32246,-0.26871 -0.25632,0 -0.41755,0.19017 -0.50023,0.41341 v -0.41341 l -0.59945,0.0455 v 0.14883 c 0.21911,0 0.3266,0 0.3266,0.23564 v 1.15342 c 0,0.13229 -0.20671,0.13229 -0.3266,0.13229 z m 0,0"
       style="fill:#000000;fill-opacity:1;fill-rule:nonzero;stroke:none;stroke-width:0.423333"
       aria-label="choďte1kmnasever" />
    <path
       id="path62-5"
       d="m 157.37188,138.77385 h 0.63246 v -6.74793 h -0.63246 z"
       style="fill:#000000;fill-opacity:1;fill-rule:nonzero;stroke:none;stroke-width:0.423333" />
    <path
       id="path63-7"
       d="M 94.277436,138.90042 H 158.00434"
       style="fill:none;stroke:#000000;stroke-width:0.253153;stroke-linecap:butt;stroke-linejoin:miter;stroke-miterlimit:10;stroke-dasharray:none;stroke-opacity:1" />
    <path
       id="path64-3"
       d="m 94.277436,145.77493 h 0.63246 V 139.027 h -0.63246 z"
       style="fill:#000000;fill-opacity:1;fill-rule:nonzero;stroke:none;stroke-width:0.423333" />
    <path
       id="path65-8"
       d="m 99.24796,142.97213 h 1.11208 v 0.41341 c 0,0.13229 -0.29353,0.13229 -0.409281,0.13229 v 0.14883 c 0.194301,0 0.388611,-0.0124 0.582911,-0.0124 0.19017,0 0.38034,0.0124 0.57464,0.0124 v -0.14883 c -0.11575,0 -0.40928,0 -0.40928,-0.13229 v -0.41341 h 0.41342 v -0.14883 h -0.41342 v -1.91823 c 0,-0.0248 -0.0207,-0.0455 -0.0455,-0.0455 h -0.062 c -0.0165,0 -0.0331,0.008 -0.0413,0.0207 l -1.30225,1.94303 z m 0.136425,-0.14883 1.000455,-1.49242 v 1.49242 z m 0,0"
       style="fill:#000000;fill-opacity:1;fill-rule:nonzero;stroke:none;stroke-width:0.423333"
       aria-label="4" />
    <path
       id="path66-6"
       d="M 105.58044,145.77493 V 139.027"
       style="fill:none;stroke:#000000;stroke-width:0.253153;stroke-linecap:butt;stroke-linejoin:miter;stroke-miterlimit:10;stroke-dasharray:none;stroke-opacity:1" />
    <path
       id="path67-3"
       d="m 114.54729,143.71213 c 0.34313,0 0.61185,-0.2067 0.69866,-0.53743 0,-0.008 0,-0.004 0,-0.0124 0,-0.0165 -0.0165,-0.0413 -0.0331,-0.0413 h -0.0496 c -0.0165,0 -0.0331,0.0124 -0.0331,0.0289 -0.0703,0.25632 -0.25632,0.44235 -0.5333,0.44235 -0.43822,0 -0.59531,-0.47128 -0.59531,-0.83509 0,-0.34313 0.11162,-0.85576 0.54983,-0.85576 0.13643,0 0.28939,0.0165 0.40928,0.091 -0.0992,0.0207 -0.16536,0.0992 -0.16536,0.19844 0,0.11576 0.091,0.20257 0.20257,0.20257 0.11575,0 0.20257,-0.0868 0.20257,-0.20257 0,-0.3266 -0.39688,-0.41341 -0.65319,-0.41341 -0.52917,0 -0.90951,0.47129 -0.90951,0.97978 0,0.50437 0.39274,0.95498 0.90951,0.95498 z m 0.83509,-0.0455 c 0.1571,0 0.31833,-0.0124 0.48369,-0.0124 0.16123,0 0.31833,0.0124 0.47956,0.0124 v -0.14883 c -0.11989,0 -0.3266,0 -0.3266,-0.13229 v -0.83096 c 0,-0.32246 0.21911,-0.64079 0.55811,-0.64079 0.27698,0 0.30592,0.25632 0.30592,0.47129 v 1.00046 c 0,0.13229 -0.2067,0.13229 -0.33073,0.13229 v 0.14883 c 0.16123,0 0.32246,-0.0124 0.4837,-0.0124 0.16123,0 0.32246,0.0124 0.48369,0.0124 v -0.14883 c -0.12403,0 -0.33073,0 -0.33073,-0.13229 v -1.01286 c 0,-0.38861 -0.20257,-0.57051 -0.58705,-0.57051 -0.25631,0 -0.48369,0.16123 -0.59531,0.38861 v -1.45107 l -0.62425,0.0455 v 0.14883 c 0.21911,0 0.32659,0 0.32659,0.23564 v 2.21589 c 0,0.13229 -0.2067,0.13229 -0.32659,0.13229 z m 3.26905,0.0455 c 0.51263,0 0.93018,-0.42994 0.93018,-0.94257 0,-0.5209 -0.39274,-0.99219 -0.93018,-0.99219 -0.54157,0 -0.93431,0.47129 -0.93431,0.99219 0,0.51263 0.41755,0.94257 0.93431,0.94257 z m 0,-0.11989 c -0.50436,0 -0.57051,-0.48782 -0.57051,-0.86816 0,-0.21084 0.004,-0.42995 0.12403,-0.60358 0.0992,-0.14469 0.26871,-0.23151 0.44648,-0.23151 0.17363,0 0.34313,0.0868 0.44235,0.23151 0.11989,0.17363 0.12402,0.39274 0.12402,0.60358 0,0.38034 -0.0661,0.86816 -0.56637,0.86816 z m 3.30109,-2.11666 c 0,0.0124 0.0331,0.0331 0.062,0.0331 0.008,0 0.0165,0 0.0289,0 0.22324,-0.14469 0.35554,-0.33486 0.35554,-0.54157 0,-0.17363 -0.0538,-0.43821 -0.27699,-0.43821 -0.13229,0 -0.23151,0.0992 -0.23151,0.22324 0,0.12816 0.0992,0.22324 0.23151,0.22324 0.062,0 0.11989,-0.0165 0.1695,-0.0579 0,0.0124 0,0.0248 0,0.0372 0,0.18604 -0.11989,0.35967 -0.32246,0.48369 -0.008,0.004 -0.0165,0.008 -0.0165,0.0124 z m -1.09967,2.23655 c 0.21497,0 0.42168,-0.0992 0.56637,-0.26458 v 0.26458 l 0.63665,-0.0455 v -0.14883 c -0.2191,0 -0.33073,0 -0.33073,-0.23564 v -2.54248 l -0.62425,0.0455 v 0.14883 c 0.21911,0 0.33073,0 0.33073,0.23564 v 0.87644 c -0.13642,-0.14883 -0.33073,-0.24392 -0.5333,-0.24392 -0.5209,0 -0.93431,0.43822 -0.93431,0.95498 0,0.4961 0.36794,0.95498 0.88884,0.95498 z m -0.42995,-0.41341 c -0.0868,-0.1695 -0.0951,-0.35553 -0.0951,-0.53743 0,-0.38447 0.12403,-0.8475 0.59532,-0.8475 0.21497,0 0.39687,0.12816 0.49609,0.3142 v 1.01286 c -0.0992,0.21083 -0.30592,0.3638 -0.54157,0.3638 -0.19844,0 -0.36794,-0.13229 -0.45475,-0.30593 z m 2.17454,-0.13642 c 0,0.33486 0.21084,0.54983 0.54984,0.54983 0.28525,0 0.42168,-0.30179 0.42168,-0.54983 v -0.26045 h -0.12402 v 0.25218 c 0,0.16123 -0.0579,0.43821 -0.26872,0.43821 -0.22738,0 -0.26872,-0.26458 -0.26872,-0.43821 v -1.15755 h 0.59118 v -0.14883 h -0.59118 v -0.77308 h -0.12402 c 0,0.32246 -0.13229,0.81442 -0.53744,0.81442 v 0.10749 h 0.3514 z m 2.26033,0.54983 c 0.33073,0 0.62012,-0.22737 0.69867,-0.54156 0,-0.0248 -0.0124,-0.0579 -0.0413,-0.0579 h -0.0372 c -0.0207,0 -0.0372,0.0207 -0.0414,0.0413 -0.0661,0.24391 -0.28525,0.43821 -0.54157,0.43821 -0.47129,0 -0.60358,-0.46302 -0.60358,-0.85162 0,-0.0124 0,-0.0331 0,-0.0496 h 1.2237 c 0.0289,0 0.0413,-0.0289 0.0413,-0.0538 0,-0.47955 -0.23978,-0.85989 -0.75654,-0.85989 -0.51676,0 -0.8723,0.47542 -0.8723,0.96738 0,0.51263 0.40101,0.96738 0.93018,0.96738 z m -0.56224,-1.12447 c 0,-0.29353 0.1571,-0.69867 0.50436,-0.69867 0.35554,0 0.45889,0.41341 0.45889,0.69867 z m 3.18327,1.079 c 0.23151,0 0.45889,-0.0124 0.6904,-0.0124 0.23151,0 0.45888,0.0124 0.69039,0.0124 v -0.14883 c -0.11575,0 -0.52503,0 -0.52503,-0.13229 v -2.48874 c 0,-0.0165 -0.0248,-0.0372 -0.0413,-0.0372 h -0.062 c -0.20257,0.20671 -0.4961,0.26872 -0.77722,0.26872 v 0.14883 c 0.19431,0 0.38861,-0.0248 0.54984,-0.10749 v 2.21589 c 0,0.13229 -0.40928,0.13229 -0.52503,0.13229 z m 3.23598,0 c 0.15296,0 0.31006,-0.0124 0.47129,-0.0124 0.15709,0 0.31005,0.0124 0.46715,0.0124 v -0.14883 c -0.12402,0 -0.33073,0 -0.33073,-0.13229 v -0.47129 l 0.26045,-0.22324 0.40514,0.57877 c 0.0372,0.0455 0.0744,0.10749 0.0744,0.16123 0,0.0744 -0.0827,0.0868 -0.1447,0.0868 v 0.14883 c 0.1571,0 0.31833,-0.0124 0.4837,-0.0124 0.11988,0 0.23977,0.0124 0.35553,0.0124 v -0.14883 c -0.24391,0 -0.29766,-0.0537 -0.43408,-0.24805 l -0.5333,-0.76481 0.29765,-0.26045 c 0.16123,-0.13642 0.35554,-0.24804 0.57464,-0.24804 v -0.14883 c -0.0951,0 -0.1819,0.0124 -0.27285,0.0124 -0.17363,0 -0.34726,-0.0124 -0.5209,-0.0124 v 0.14883 c 0.0579,0 0.11989,0.0331 0.11989,0.10335 0,0.062 -0.0455,0.10749 -0.0868,0.14469 l -0.56638,0.50023 v -2.00504 l -0.62011,0.0455 v 0.14883 c 0.2191,0 0.32659,0 0.32659,0.23564 v 2.21589 c 0,0.13229 -0.2067,0.13229 -0.32659,0.13229 z m 2.24275,0 c 0.1571,0 0.31833,-0.0124 0.4837,-0.0124 0.16123,0 0.31832,0.0124 0.47955,0.0124 v -0.14883 c -0.11989,0 -0.32659,0 -0.32659,-0.13229 v -0.83096 c 0,-0.32246 0.21911,-0.64079 0.5581,-0.64079 0.27699,0 0.30593,0.25632 0.30593,0.47129 v 1.00046 c 0,0.13229 -0.20671,0.13229 -0.33073,0.13229 v 0.14883 c 0.16123,0 0.32246,-0.0124 0.48369,-0.0124 0.16123,0 0.32246,0.0124 0.48369,0.0124 v -0.14883 c -0.12402,0 -0.33073,0 -0.33073,-0.13229 v -0.83096 c 0,-0.32246 0.21911,-0.64079 0.56224,-0.64079 0.27285,0 0.30179,0.25632 0.30179,0.47129 v 1.00046 c 0,0.13229 -0.2067,0.13229 -0.32659,0.13229 v 0.14883 c 0.15709,0 0.31832,-0.0124 0.48369,-0.0124 0.16123,0 0.32246,0.0124 0.47956,0.0124 v -0.14883 c -0.11989,0 -0.3266,0 -0.3266,-0.13229 v -1.01286 c 0,-0.38861 -0.20257,-0.57051 -0.58704,-0.57051 -0.25632,0 -0.49196,0.16123 -0.60358,0.39688 -0.062,-0.29766 -0.28939,-0.39688 -0.57051,-0.39688 -0.26872,0 -0.50023,0.17364 -0.60772,0.41341 v -0.41341 l -0.61185,0.0455 v 0.14883 c 0.21911,0 0.3266,0 0.3266,0.23564 v 1.15342 c 0,0.13229 -0.20671,0.13229 -0.3266,0.13229 z m 4.91857,0 c 0.15709,0 0.31832,-0.0124 0.48369,-0.0124 0.16123,0 0.31832,0.0124 0.47956,0.0124 v -0.14883 c -0.11989,0 -0.3266,0 -0.3266,-0.13229 v -0.83096 c 0,-0.32246 0.21911,-0.64079 0.55811,-0.64079 0.27698,0 0.30592,0.25632 0.30592,0.47129 v 1.00046 c 0,0.13229 -0.20671,0.13229 -0.33073,0.13229 v 0.14883 c 0.16123,0 0.32246,-0.0124 0.48369,-0.0124 0.16123,0 0.32246,0.0124 0.48369,0.0124 v -0.14883 c -0.12402,0 -0.33073,0 -0.33073,-0.13229 v -1.01286 c 0,-0.38861 -0.20257,-0.57051 -0.58704,-0.57051 -0.26872,0 -0.50023,0.17364 -0.60771,0.41341 v -0.41341 l -0.61185,0.0455 v 0.14883 c 0.2191,0 0.32659,0 0.32659,0.23564 v 1.15342 c 0,0.13229 -0.2067,0.13229 -0.32659,0.13229 z m 2.38538,-0.41341 c 0,0.34726 0.40101,0.45888 0.678,0.45888 0.23564,0 0.45061,-0.13229 0.5581,-0.34313 0.0124,0.16537 0.13643,0.32246 0.31006,0.32246 0.19844,0 0.3638,-0.1695 0.3638,-0.36793 v -0.26872 h -0.12402 v 0.26872 c 0,0.0909 -0.0331,0.21911 -0.13643,0.21911 -0.11162,0 -0.14469,-0.12816 -0.14469,-0.21911 v -0.94671 c 0,-0.38034 -0.40101,-0.59945 -0.74001,-0.59945 -0.26872,0 -0.64492,0.11575 -0.64492,0.43821 0,0.11576 0.0909,0.20258 0.20257,0.20258 0.11576,0 0.20257,-0.0868 0.20257,-0.20258 0,-0.0992 -0.0744,-0.20257 -0.18603,-0.20257 0.11575,-0.0951 0.28112,-0.12402 0.42581,-0.12402 0.26459,0 0.42995,0.25631 0.42995,0.49609 v 0.17364 c -0.42168,0 -1.19476,0.14469 -1.19476,0.69453 z m 0.339,0 c 0,-0.42582 0.50436,-0.59118 0.85576,-0.59118 v 0.43822 c 0,0.27285 -0.21497,0.50436 -0.48783,0.50436 -0.1943,0 -0.36793,-0.15297 -0.36793,-0.3514 z m 3.08715,1.12034 c 0.0868,-0.0248 0.13642,-0.10335 0.13642,-0.19017 0,-0.11162 -0.0868,-0.19843 -0.20257,-0.19843 -0.11162,0 -0.20257,0.0868 -0.20257,0.19843 0,0.24805 0.26872,0.34727 0.47956,0.34727 0.33486,0 0.59944,-0.29766 0.59944,-0.62839 v -2.10013 l -0.65732,0.0455 v 0.14883 c 0.22324,0 0.3638,0 0.3638,0.23564 v 1.65365 c 0,0.18603 -0.0455,0.53743 -0.29765,0.53743 -0.0744,0 -0.14883,-0.0124 -0.21911,-0.0496 z m 0.34726,-3.29489 c 0,0.12403 0.10749,0.23151 0.23151,0.23151 0.12816,0 0.23151,-0.10748 0.23151,-0.23151 0,-0.12815 -0.10335,-0.23151 -0.23151,-0.23151 -0.12402,0 -0.23151,0.10336 -0.23151,0.23151 z m 1.31362,2.08773 c 0,0.41755 0.28939,0.5457 0.65732,0.5457 0.23565,0 0.42582,-0.15296 0.52917,-0.3514 v 0.3514 l 0.62425,-0.0455 v -0.14883 c -0.21911,0 -0.33073,0 -0.33073,-0.23564 v -1.48002 l -0.63665,0.0455 v 0.14883 c 0.21911,0 0.33073,0 0.33073,0.23564 v 0.75241 c 0,0.28525 -0.1695,0.62012 -0.4961,0.62012 -0.33486,0 -0.36793,-0.14056 -0.36793,-0.43822 v -1.36426 l -0.63666,0.0455 v 0.14883 c 0.21911,0 0.3266,0 0.3266,0.23564 z m 2.01641,0.50023 c 0.1571,0 0.31833,-0.0124 0.48369,-0.0124 0.16123,0 0.31833,0.0124 0.47956,0.0124 v -0.14883 c -0.11989,0 -0.32659,0 -0.32659,-0.13229 v -0.83096 c 0,-0.32246 0.2191,-0.64079 0.5581,-0.64079 0.27699,0 0.30593,0.25632 0.30593,0.47129 v 1.00046 c 0,0.13229 -0.20671,0.13229 -0.33073,0.13229 v 0.14883 c 0.16123,0 0.32246,-0.0124 0.48369,-0.0124 0.16123,0 0.32246,0.0124 0.48369,0.0124 v -0.14883 c -0.12402,0 -0.33073,0 -0.33073,-0.13229 v -1.01286 c 0,-0.38861 -0.20257,-0.57051 -0.58704,-0.57051 -0.25632,0 -0.48369,0.16123 -0.59532,0.38861 v -1.45107 l -0.62425,0.0455 v 0.14883 c 0.21911,0 0.3266,0 0.3266,0.23564 v 2.21589 c 0,0.13229 -0.20671,0.13229 -0.3266,0.13229 z m 0,0"
       style="fill:#000000;fill-opacity:1;fill-rule:nonzero;stroke:none;stroke-width:0.423333"
       aria-label="choďte1kmnajuh" />
    <path
       id="path68-3"
       d="m 157.37188,145.77493 h 0.63246 V 139.027 h -0.63246 z"
       style="fill:#000000;fill-opacity:1;fill-rule:nonzero;stroke:none;stroke-width:0.423333" />
    <path
       id="path69-4"
       d="M 94.277436,145.90151 H 158.00434"
       style="fill:none;stroke:#000000;stroke-width:0.253153;stroke-linecap:butt;stroke-linejoin:miter;stroke-miterlimit:10;stroke-dasharray:none;stroke-opacity:1" />
    <path
       id="path70-9"
       d="m 94.277436,152.77602 h 0.63246 v -6.74793 h -0.63246 z"
       style="fill:#000000;fill-opacity:1;fill-rule:nonzero;stroke:none;stroke-width:0.423333" />
    <path
       id="path71-0"
       d="m 99.496007,150.18823 c 0,0 0.03307,0.008 0.05788,0.008 0.124024,0 0.219108,-0.0951 0.219108,-0.21498 0,-0.12402 -0.09508,-0.21497 -0.219108,-0.21497 -0.124023,0 -0.214974,0.0909 -0.214974,0.21497 0,0.41755 0.330729,0.77722 0.756537,0.77722 0.51263,0 0.92604,-0.42582 0.92604,-0.93845 0,-0.44648 -0.30592,-0.92191 -0.79788,-0.92191 -0.239775,0 -0.351396,0.0661 -0.529163,0.21084 v -0.79788 c 0.111621,0.0289 0.227376,0.0455 0.343133,0.0455 0.31832,0 0.62011,-0.15297 0.81028,-0.40515 0.004,0 0.008,-0.0124 0.008,-0.0207 v -0.0372 c 0,-0.0165 -0.0207,-0.0331 -0.0372,-0.0331 -0.008,0 -0.008,0 -0.0124,0 -0.19017,0.0868 -0.39687,0.13229 -0.60358,0.13229 -0.210837,0 -0.417543,-0.0455 -0.603578,-0.13229 -0.0083,0 -0.0083,0 -0.0124,0 -0.02067,0 -0.04134,0.0165 -0.04134,0.0331 v 1.40974 c 0,0.0165 0.0248,0.0372 0.04134,0.0372 h 0.04547 c 0.05788,-0.0124 0.165365,-0.33486 0.587048,-0.33486 0.20257,0 0.33073,0.19844 0.3762,0.37207 0.0331,0.14056 0.0331,0.29352 0.0331,0.43822 0,0.35553 -0.0827,0.81028 -0.5333,0.81028 -0.272849,0 -0.516762,-0.1819 -0.599443,-0.43821 z m 0,0"
       style="fill:#000000;fill-opacity:1;fill-rule:nonzero;stroke:none;stroke-width:0.423333"
       aria-label="5" />
    <path
       id="path72-9"
       d="m 105.58044,152.77602 v -6.74793"
       style="fill:none;stroke:#000000;stroke-width:0.253153;stroke-linecap:butt;stroke-linejoin:miter;stroke-miterlimit:10;stroke-dasharray:none;stroke-opacity:1" />
    <path
       id="path73-1"
       d="m 116.95334,150.68019 c 0,0.0165 0.0165,0.0331 0.0372,0.0331 h 0.0248 c 0.004,0 0.0207,-0.004 0.0207,-0.008 l 0.15709,-0.1695 c 0.11989,0.11989 0.28112,0.17777 0.45062,0.17777 0.37621,0 0.68627,-0.17777 0.68627,-0.59531 0,-0.31419 -0.25632,-0.51263 -0.53744,-0.57464 l -0.28939,-0.0579 c -0.14469,-0.0331 -0.33073,-0.11989 -0.33073,-0.29766 0,-0.25218 0.26459,-0.31419 0.46716,-0.31419 0.29352,0 0.46302,0.20257 0.46302,0.49196 0,0.0207 0.0165,0.0372 0.0372,0.0372 h 0.0537 c 0.0165,0 0.0331,-0.0165 0.0331,-0.0372 v -0.55397 c 0,-0.0165 -0.0165,-0.0331 -0.0331,-0.0331 h -0.0331 c -0.008,0 -0.0207,0.004 -0.0207,0.008 l -0.11989,0.10749 c -0.11162,-0.0827 -0.24391,-0.11576 -0.37621,-0.11576 -0.33899,0 -0.69039,0.13643 -0.69039,0.52917 0,0.29352 0.26871,0.45475 0.52089,0.5085 l 0.28112,0.0537 c 0.17364,0.0413 0.35554,0.16537 0.35554,0.3638 0,0.27285 -0.23151,0.37207 -0.46716,0.37207 -0.35966,0 -0.50849,-0.30179 -0.5705,-0.61185 -0.004,-0.0165 -0.0165,-0.0331 -0.0331,-0.0331 h -0.0496 c -0.0207,0 -0.0372,0.0165 -0.0372,0.0331 z m 1.95337,-0.51677 c 0,0.33487 0.21084,0.54984 0.54983,0.54984 0.28526,0 0.42168,-0.30179 0.42168,-0.54984 v -0.26045 h -0.12402 v 0.25219 c 0,0.16123 -0.0579,0.43821 -0.26872,0.43821 -0.22737,0 -0.26872,-0.26458 -0.26872,-0.43821 v -1.15756 h 0.59118 v -0.14883 h -0.59118 v -0.77307 h -0.12402 c 0,0.32246 -0.13229,0.81442 -0.53743,0.81442 v 0.10748 h 0.3514 z m 2.26446,0.54984 c 0.51263,0 0.93017,-0.42995 0.93017,-0.94258 0,-0.5209 -0.39274,-0.99219 -0.93017,-0.99219 -0.54157,0 -0.93431,0.47129 -0.93431,0.99219 0,0.51263 0.41754,0.94258 0.93431,0.94258 z m 0,-0.11989 c -0.50437,0 -0.57051,-0.48782 -0.57051,-0.86816 0,-0.21084 0.004,-0.42995 0.12402,-0.60358 0.0992,-0.1447 0.26872,-0.23151 0.44649,-0.23151 0.17363,0 0.34313,0.0868 0.44235,0.23151 0.11989,0.17363 0.12402,0.39274 0.12402,0.60358 0,0.38034 -0.0661,0.86816 -0.56637,0.86816 z m 1.37356,0.78135 c 0.0868,-0.0248 0.13642,-0.10335 0.13642,-0.19017 0,-0.11162 -0.0868,-0.19844 -0.20257,-0.19844 -0.11162,0 -0.20257,0.0868 -0.20257,0.19844 0,0.24805 0.26872,0.34727 0.47956,0.34727 0.33486,0 0.59944,-0.29766 0.59944,-0.62839 v -2.10013 l -0.65732,0.0455 v 0.14883 c 0.22324,0 0.3638,0 0.3638,0.23565 v 1.65364 c 0,0.18604 -0.0455,0.53744 -0.29766,0.53744 -0.0744,0 -0.14882,-0.0124 -0.2191,-0.0496 z m 0.34726,-3.29489 c 0,0.12402 0.10749,0.23151 0.23151,0.23151 0.12816,0 0.23151,-0.10749 0.23151,-0.23151 0,-0.12816 -0.10335,-0.23151 -0.23151,-0.23151 -0.12402,0 -0.23151,0.10335 -0.23151,0.23151 z m 1.28881,2.08359 c 0,0.33487 0.21084,0.54984 0.54984,0.54984 0.28525,0 0.42168,-0.30179 0.42168,-0.54984 v -0.26045 h -0.12402 v 0.25219 c 0,0.16123 -0.0579,0.43821 -0.26872,0.43821 -0.22738,0 -0.26872,-0.26458 -0.26872,-0.43821 v -1.15756 h 0.59118 v -0.14883 h -0.59118 v -0.77307 h -0.12402 c 0,0.32246 -0.13229,0.81442 -0.53744,0.81442 v 0.10748 h 0.3514 z m 2.26033,0.54984 c 0.33073,0 0.62012,-0.22738 0.69866,-0.54157 0,-0.0248 -0.0124,-0.0579 -0.0413,-0.0579 h -0.0372 c -0.0207,0 -0.0372,0.0207 -0.0413,0.0413 -0.0661,0.24392 -0.28525,0.43822 -0.54157,0.43822 -0.47129,0 -0.60358,-0.46302 -0.60358,-0.85163 0,-0.0124 0,-0.0331 0,-0.0496 h 1.2237 c 0.0289,0 0.0413,-0.0289 0.0413,-0.0537 0,-0.47956 -0.23978,-0.8599 -0.75654,-0.8599 -0.51676,0 -0.8723,0.47543 -0.8723,0.96739 0,0.51263 0.40101,0.96738 0.93018,0.96738 z m -0.56224,-1.12448 c 0,-0.29352 0.1571,-0.69866 0.50436,-0.69866 0.35554,0 0.45889,0.41341 0.45889,0.69866 z m 2.91868,1.07901 c 0.1571,0 0.31833,-0.0124 0.4837,-0.0124 0.16123,0 0.31832,0.0124 0.47955,0.0124 v -0.14883 c -0.11989,0 -0.32659,0 -0.32659,-0.13229 v -0.83096 c 0,-0.32246 0.21911,-0.64079 0.5581,-0.64079 0.27699,0 0.30593,0.25632 0.30593,0.47129 v 1.00046 c 0,0.13229 -0.20671,0.13229 -0.33073,0.13229 v 0.14883 c 0.16123,0 0.32246,-0.0124 0.48369,-0.0124 0.16123,0 0.32246,0.0124 0.48369,0.0124 v -0.14883 c -0.12402,0 -0.33073,0 -0.33073,-0.13229 v -1.01286 c 0,-0.38861 -0.20257,-0.57051 -0.58704,-0.57051 -0.26872,0 -0.50023,0.17363 -0.60772,0.41341 v -0.41341 l -0.61185,0.0455 v 0.14883 c 0.21911,0 0.3266,0 0.3266,0.23565 v 1.15342 c 0,0.13229 -0.20671,0.13229 -0.3266,0.13229 z m 2.38436,-0.41342 c 0,0.34727 0.401,0.45889 0.67799,0.45889 0.23564,0 0.45062,-0.13229 0.55811,-0.34313 0.0124,0.16536 0.13642,0.32246 0.31005,0.32246 0.19844,0 0.36381,-0.1695 0.36381,-0.36794 v -0.26871 h -0.12403 v 0.26871 c 0,0.091 -0.0331,0.21911 -0.13642,0.21911 -0.11162,0 -0.1447,-0.12816 -0.1447,-0.21911 v -0.94671 c 0,-0.38034 -0.40101,-0.59945 -0.74,-0.59945 -0.26872,0 -0.64493,0.11576 -0.64493,0.43822 0,0.11576 0.091,0.20257 0.20258,0.20257 0.11575,0 0.20257,-0.0868 0.20257,-0.20257 0,-0.0992 -0.0744,-0.20257 -0.18604,-0.20257 0.11576,-0.0951 0.28112,-0.12402 0.42582,-0.12402 0.26458,0 0.42994,0.25631 0.42994,0.49609 v 0.17363 c -0.42168,0 -1.19475,0.1447 -1.19475,0.69453 z m 0.33899,0 c 0,-0.42581 0.50436,-0.59117 0.85576,-0.59117 v 0.43821 c 0,0.27285 -0.21497,0.50436 -0.48782,0.50436 -0.1943,0 -0.36794,-0.15296 -0.36794,-0.3514 z m 3.13263,0.41342 c 0.15709,0 0.31832,-0.0124 0.48369,-0.0124 0.16123,0 0.31833,0.0124 0.47956,0.0124 v -0.14883 c -0.11989,0 -0.3266,0 -0.3266,-0.13229 v -0.83096 c 0,-0.32246 0.21911,-0.64079 0.55811,-0.64079 0.27698,0 0.30592,0.25632 0.30592,0.47129 v 1.00046 c 0,0.13229 -0.2067,0.13229 -0.33073,0.13229 v 0.14883 c 0.16123,0 0.32246,-0.0124 0.48369,-0.0124 0.16123,0 0.32246,0.0124 0.4837,0.0124 v -0.14883 c -0.12403,0 -0.33073,0 -0.33073,-0.13229 v -0.83096 c 0,-0.32246 0.2191,-0.64079 0.56224,-0.64079 0.27285,0 0.30179,0.25632 0.30179,0.47129 v 1.00046 c 0,0.13229 -0.20671,0.13229 -0.3266,0.13229 v 0.14883 c 0.1571,0 0.31833,-0.0124 0.48369,-0.0124 0.16123,0 0.32246,0.0124 0.47956,0.0124 v -0.14883 c -0.11989,0 -0.3266,0 -0.3266,-0.13229 v -1.01286 c 0,-0.38861 -0.20257,-0.57051 -0.58704,-0.57051 -0.25631,0 -0.49196,0.16123 -0.60358,0.39687 -0.062,-0.29765 -0.28939,-0.39687 -0.57051,-0.39687 -0.26872,0 -0.50023,0.17363 -0.60771,0.41341 v -0.41341 l -0.61185,0.0455 v 0.14883 c 0.21911,0 0.32659,0 0.32659,0.23565 v 1.15342 c 0,0.13229 -0.2067,0.13229 -0.32659,0.13229 z m 3.51916,0 c 0.1571,0 0.3142,-0.0124 0.47543,-0.0124 0.14882,0 0.29352,0.0124 0.44235,0.0124 v -0.14883 c -0.12403,0 -0.29353,0 -0.29353,-0.13229 v -1.58337 l -0.60771,0.0455 v 0.14883 c 0.21497,0 0.31006,0 0.31006,0.23565 v 1.15342 c 0,0.13229 -0.20671,0.13229 -0.3266,0.13229 z m 0.17364,-2.58796 c 0,0.12402 0.10748,0.23151 0.23564,0.23151 0.12402,0 0.23151,-0.10749 0.23151,-0.23151 0,-0.12816 -0.10749,-0.23151 -0.23151,-0.23151 -0.12816,0 -0.23564,0.10335 -0.23564,0.23151 z m 1.91512,2.63343 c 0.33073,0 0.62012,-0.22738 0.69867,-0.54157 0,-0.0248 -0.0124,-0.0579 -0.0413,-0.0579 h -0.0372 c -0.0207,0 -0.0372,0.0207 -0.0413,0.0413 -0.0661,0.24392 -0.28526,0.43822 -0.54157,0.43822 -0.47129,0 -0.60358,-0.46302 -0.60358,-0.85163 0,-0.0124 0,-0.0331 0,-0.0496 h 1.2237 c 0.0289,0 0.0413,-0.0289 0.0413,-0.0537 0,-0.47956 -0.23978,-0.8599 -0.75654,-0.8599 -0.51677,0 -0.8723,0.47543 -0.8723,0.96739 0,0.51263 0.40101,0.96738 0.93017,0.96738 z m -0.56224,-1.12448 c 0,-0.29352 0.1571,-0.69866 0.50437,-0.69866 0.35553,0 0.45888,0.41341 0.45888,0.69866 z m 1.52756,1.09141 c 0,0.0165 0.0165,0.0331 0.0372,0.0331 h 0.0248 c 0.004,0 0.0207,-0.004 0.0207,-0.008 l 0.1571,-0.1695 c 0.11989,0.11989 0.28112,0.17777 0.45062,0.17777 0.3762,0 0.68626,-0.17777 0.68626,-0.59531 0,-0.31419 -0.25632,-0.51263 -0.53744,-0.57464 l -0.28938,-0.0579 c -0.1447,-0.0331 -0.33073,-0.11989 -0.33073,-0.29766 0,-0.25218 0.26458,-0.31419 0.46715,-0.31419 0.29352,0 0.46302,0.20257 0.46302,0.49196 0,0.0207 0.0165,0.0372 0.0372,0.0372 h 0.0537 c 0.0165,0 0.0331,-0.0165 0.0331,-0.0372 v -0.55397 c 0,-0.0165 -0.0165,-0.0331 -0.0331,-0.0331 h -0.0331 c -0.008,0 -0.0207,0.004 -0.0207,0.008 l -0.11989,0.10749 c -0.11162,-0.0827 -0.24391,-0.11576 -0.37621,-0.11576 -0.33899,0 -0.69039,0.13643 -0.69039,0.52917 0,0.29352 0.26871,0.45475 0.52089,0.5085 l 0.28112,0.0537 c 0.17364,0.0413 0.35554,0.16537 0.35554,0.3638 0,0.27285 -0.23151,0.37207 -0.46716,0.37207 -0.35966,0 -0.50849,-0.30179 -0.5705,-0.61185 -0.004,-0.0165 -0.0165,-0.0331 -0.0331,-0.0331 h -0.0496 c -0.0207,0 -0.0372,0.0165 -0.0372,0.0331 z m 1.95234,-0.51677 c 0,0.33487 0.21084,0.54984 0.54983,0.54984 0.28526,0 0.42168,-0.30179 0.42168,-0.54984 v -0.26045 h -0.12402 v 0.25219 c 0,0.16123 -0.0579,0.43821 -0.26872,0.43821 -0.22737,0 -0.26872,-0.26458 -0.26872,-0.43821 v -1.15756 h 0.59118 v -0.14883 h -0.59118 v -0.77307 h -0.12402 c 0,0.32246 -0.13229,0.81442 -0.53743,0.81442 v 0.10748 h 0.3514 z m 2.26032,0.54984 c 0.33073,0 0.62012,-0.22738 0.69867,-0.54157 0,-0.0248 -0.0124,-0.0579 -0.0413,-0.0579 h -0.0372 c -0.0207,0 -0.0372,0.0207 -0.0413,0.0413 -0.0661,0.24392 -0.28526,0.43822 -0.54157,0.43822 -0.47129,0 -0.60358,-0.46302 -0.60358,-0.85163 0,-0.0124 0,-0.0331 0,-0.0496 h 1.22369 c 0.0289,0 0.0413,-0.0289 0.0413,-0.0537 0,-0.47956 -0.23978,-0.8599 -0.75655,-0.8599 -0.51676,0 -0.8723,0.47543 -0.8723,0.96739 0,0.51263 0.40101,0.96738 0.93018,0.96738 z m -0.56224,-1.12448 c 0,-0.29352 0.1571,-0.69866 0.50436,-0.69866 0.35554,0 0.45889,0.41341 0.45889,0.69866 z m 0,0"
       style="fill:#000000;fill-opacity:1;fill-rule:nonzero;stroke:none;stroke-width:0.423333"
       aria-label="stojtenamieste" />
    <path
       id="path74-7"
       d="m 157.37188,152.77602 h 0.63246 v -6.74793 h -0.63246 z"
       style="fill:#000000;fill-opacity:1;fill-rule:nonzero;stroke:none;stroke-width:0.423333" />
    <path
       id="path75-4"
       d="M 94.277436,152.9026 H 158.00434"
       style="fill:none;stroke:#000000;stroke-width:0.253153;stroke-linecap:butt;stroke-linejoin:miter;stroke-miterlimit:10;stroke-dasharray:none;stroke-opacity:1" />
    <path
       id="path76-0"
       d="m 94.277436,159.77711 h 0.63246 v -6.74793 h -0.63246 z"
       style="fill:#000000;fill-opacity:1;fill-rule:nonzero;stroke:none;stroke-width:0.423333" />
    <path
       id="path77-6"
       d="m 100.18227,157.75985 c 0.5209,0 0.8723,-0.45475 0.8723,-0.95498 0,-0.47956 -0.31833,-0.94671 -0.83509,-0.94671 -0.243916,0 -0.425817,0.17363 -0.516768,0.39274 0,-0.28939 0.0083,-0.59531 0.136426,-0.85576 0.115755,-0.21911 0.314192,-0.41341 0.574642,-0.41341 0.13229,0 0.27285,0.0372 0.35553,0.14883 -0.008,0 -0.0124,0 -0.0207,0 -0.11575,0 -0.20257,0.0868 -0.20257,0.20257 0,0.11162 0.0868,0.20257 0.20257,0.20257 0.11162,0 0.20257,-0.0909 0.20257,-0.20257 0,-0.3142 -0.24804,-0.47129 -0.53743,-0.47129 -0.727604,0 -1.107943,0.81028 -1.107943,1.44694 0,0.56224 0.14056,1.45107 0.876433,1.45107 z m 0,-0.13229 c -0.405144,0 -0.471289,-0.50436 -0.471289,-0.80615 0,-0.008 0.0041,-0.0124 0.0041,-0.0207 -0.0041,-0.0289 -0.0041,-0.0537 -0.0041,-0.0868 0,-0.29765 0.119889,-0.74414 0.491959,-0.74414 0.45475,0 0.45475,0.50436 0.45475,0.83509 0,0.34727 -0.0124,0.82269 -0.47542,0.82269 z m 0,0"
       style="fill:#000000;fill-opacity:1;fill-rule:nonzero;stroke:none;stroke-width:0.423333"
       aria-label="6" />
    <path
       id="path78-6"
       d="m 105.58044,159.77711 v -6.74793"
       style="fill:none;stroke:#000000;stroke-width:0.253153;stroke-linecap:butt;stroke-linejoin:miter;stroke-miterlimit:10;stroke-dasharray:none;stroke-opacity:1" />
    <path
       id="path79-7"
       d="m 112.94842,157.71438 c 0.34313,0 0.61185,-0.20671 0.69866,-0.53744 0,-0.008 0,-0.004 0,-0.0124 0,-0.0165 -0.0165,-0.0413 -0.0331,-0.0413 h -0.0496 c -0.0165,0 -0.0331,0.0124 -0.0331,0.0289 -0.0703,0.25631 -0.25632,0.44235 -0.5333,0.44235 -0.43822,0 -0.59531,-0.47129 -0.59531,-0.83509 0,-0.34314 0.11162,-0.85577 0.54983,-0.85577 0.13643,0 0.28939,0.0165 0.40928,0.091 -0.0992,0.0207 -0.16536,0.0992 -0.16536,0.19843 0,0.11576 0.0909,0.20257 0.20257,0.20257 0.11575,0 0.20257,-0.0868 0.20257,-0.20257 0,-0.32659 -0.39688,-0.41341 -0.65319,-0.41341 -0.52917,0 -0.90951,0.47129 -0.90951,0.97979 0,0.50436 0.39275,0.95498 0.90951,0.95498 z m 0.83509,-0.0455 c 0.1571,0 0.31833,-0.0124 0.48369,-0.0124 0.16123,0 0.31833,0.0124 0.47956,0.0124 v -0.14883 c -0.11989,0 -0.3266,0 -0.3266,-0.13229 v -0.83096 c 0,-0.32246 0.21911,-0.64078 0.55811,-0.64078 0.27699,0 0.30592,0.25631 0.30592,0.47129 v 1.00045 c 0,0.13229 -0.2067,0.13229 -0.33073,0.13229 v 0.14883 c 0.16124,0 0.32247,-0.0124 0.4837,-0.0124 0.16123,0 0.32246,0.0124 0.48369,0.0124 v -0.14883 c -0.12403,0 -0.33073,0 -0.33073,-0.13229 v -1.01286 c 0,-0.3886 -0.20257,-0.5705 -0.58705,-0.5705 -0.25631,0 -0.48369,0.16123 -0.59531,0.3886 v -1.45107 l -0.62425,0.0455 v 0.14883 c 0.21911,0 0.3266,0 0.3266,0.23565 v 2.21588 c 0,0.13229 -0.20671,0.13229 -0.3266,0.13229 z m 3.26905,0.0455 c 0.51263,0 0.93018,-0.42995 0.93018,-0.94258 0,-0.5209 -0.39274,-0.99219 -0.93018,-0.99219 -0.54157,0 -0.93431,0.47129 -0.93431,0.99219 0,0.51263 0.41755,0.94258 0.93431,0.94258 z m 0,-0.11989 c -0.50436,0 -0.57051,-0.48783 -0.57051,-0.86817 0,-0.21084 0.004,-0.42994 0.12403,-0.60358 0.0992,-0.14469 0.26871,-0.23151 0.44648,-0.23151 0.17363,0 0.34313,0.0868 0.44235,0.23151 0.11989,0.17364 0.12403,0.39274 0.12403,0.60358 0,0.38034 -0.0661,0.86817 -0.56638,0.86817 z m 3.30109,-2.11667 c 0,0.0124 0.0331,0.0331 0.062,0.0331 0.008,0 0.0165,0 0.0289,0 0.22325,-0.14469 0.35554,-0.33486 0.35554,-0.54157 0,-0.17363 -0.0537,-0.43821 -0.27699,-0.43821 -0.13229,0 -0.23151,0.0992 -0.23151,0.22324 0,0.12816 0.0992,0.22324 0.23151,0.22324 0.062,0 0.11989,-0.0165 0.1695,-0.0579 0,0.0124 0,0.0248 0,0.0372 0,0.18604 -0.11989,0.35967 -0.32246,0.48369 -0.008,0.004 -0.0165,0.008 -0.0165,0.0124 z m -1.09967,2.23656 c 0.21497,0 0.42168,-0.0992 0.56637,-0.26459 v 0.26459 l 0.63665,-0.0455 v -0.14883 c -0.2191,0 -0.33072,0 -0.33072,-0.23564 v -2.54248 l -0.62426,0.0455 v 0.14883 c 0.21911,0 0.33073,0 0.33073,0.23565 v 0.87643 c -0.13642,-0.14883 -0.33073,-0.24391 -0.5333,-0.24391 -0.5209,0 -0.93431,0.43821 -0.93431,0.95498 0,0.49609 0.36794,0.95498 0.88884,0.95498 z m -0.42995,-0.41341 c -0.0868,-0.1695 -0.0951,-0.35554 -0.0951,-0.53744 0,-0.38447 0.12402,-0.84749 0.59531,-0.84749 0.21497,0 0.39687,0.12815 0.49609,0.31419 v 1.01286 c -0.0992,0.21084 -0.30592,0.3638 -0.54157,0.3638 -0.19844,0 -0.36793,-0.13229 -0.45475,-0.30592 z m 2.17454,-0.13643 c 0,0.33486 0.21084,0.54984 0.54984,0.54984 0.28525,0 0.42168,-0.30179 0.42168,-0.54984 v -0.26045 h -0.12402 v 0.25218 c 0,0.16123 -0.0579,0.43822 -0.26872,0.43822 -0.22738,0 -0.26872,-0.26459 -0.26872,-0.43822 v -1.15755 h 0.59118 v -0.14883 h -0.59118 v -0.77308 h -0.12402 c 0,0.32246 -0.13229,0.81442 -0.53744,0.81442 v 0.10749 h 0.3514 z m 2.26033,0.54984 c 0.33073,0 0.62012,-0.22738 0.69867,-0.54157 0,-0.0248 -0.0124,-0.0579 -0.0414,-0.0579 h -0.0372 c -0.0207,0 -0.0372,0.0207 -0.0413,0.0413 -0.0661,0.24391 -0.28525,0.43822 -0.54156,0.43822 -0.47129,0 -0.60359,-0.46302 -0.60359,-0.85163 0,-0.0124 0,-0.0331 0,-0.0496 h 1.2237 c 0.0289,0 0.0414,-0.0289 0.0414,-0.0537 0,-0.47956 -0.23978,-0.8599 -0.75655,-0.8599 -0.51676,0 -0.8723,0.47542 -0.8723,0.96738 0,0.51263 0.40101,0.96739 0.93018,0.96739 z m -0.56224,-1.12448 c 0,-0.29352 0.1571,-0.69867 0.50436,-0.69867 0.35554,0 0.45889,0.41341 0.45889,0.69867 z m 3.19154,0.75241 c 0.004,0 0.0124,0 0.0207,0 0.14056,0 0.24391,-0.10336 0.24391,-0.24392 0,-0.13642 -0.10335,-0.24391 -0.24391,-0.24391 -0.14056,0 -0.24391,0.10749 -0.24391,0.24391 0,0.44235 0.46302,0.66146 0.84749,0.66146 0.45889,0 0.90124,-0.33486 0.90124,-0.81855 0,-0.39274 -0.34313,-0.68213 -0.71107,-0.74828 0.32659,-0.10748 0.59945,-0.39274 0.59945,-0.75241 0,-0.3886 -0.45889,-0.57877 -0.78962,-0.57877 -0.339,0 -0.73587,0.20257 -0.73587,0.58291 0,0.12816 0.0992,0.22737 0.22324,0.22737 0.12816,0 0.22738,-0.0992 0.22738,-0.22737 0,-0.12403 -0.0992,-0.22324 -0.22738,-0.22324 -0.008,0 -0.0207,0.004 -0.0289,0.004 0.11989,-0.1695 0.34313,-0.24391 0.54157,-0.24391 0.27285,0 0.38447,0.21497 0.38447,0.45889 0,0.25631 -0.11575,0.69039 -0.43408,0.69039 l -0.23151,0.0165 c -0.0248,0 -0.0413,0.0165 -0.0413,0.0331 v 0.0372 c 0,0.0207 0.0165,0.0372 0.0413,0.0372 h 0.27699 c 0.3638,0 0.45475,0.40101 0.45475,0.69039 0,0.28112 -0.0868,0.68213 -0.45062,0.68213 -0.23151,0 -0.48783,-0.0868 -0.62425,-0.28525 z m 3.22771,0.32659 c 0.15296,0 0.31006,-0.0124 0.47129,-0.0124 0.15709,0 0.31006,0.0124 0.46715,0.0124 v -0.14883 c -0.12402,0 -0.33073,0 -0.33073,-0.13229 v -0.47129 l 0.26045,-0.22324 0.40515,0.57878 c 0.0372,0.0455 0.0744,0.10748 0.0744,0.16123 0,0.0744 -0.0827,0.0868 -0.14469,0.0868 v 0.14883 c 0.15709,0 0.31832,-0.0124 0.48369,-0.0124 0.11989,0 0.23978,0.0124 0.35553,0.0124 v -0.14883 c -0.24391,0 -0.29766,-0.0537 -0.43408,-0.24804 l -0.5333,-0.76481 0.29765,-0.26045 c 0.16123,-0.13643 0.35554,-0.24805 0.57465,-0.24805 v -0.14883 c -0.0951,0 -0.18191,0.0124 -0.27286,0.0124 -0.17363,0 -0.34726,-0.0124 -0.52089,-0.0124 v 0.14883 c 0.0579,0 0.11989,0.0331 0.11989,0.10335 0,0.062 -0.0455,0.10749 -0.0868,0.1447 l -0.56638,0.50022 v -2.00504 l -0.62011,0.0455 v 0.14883 c 0.21911,0 0.32659,0 0.32659,0.23565 v 2.21588 c 0,0.13229 -0.2067,0.13229 -0.32659,0.13229 z m 2.24275,0 c 0.1571,0 0.31833,-0.0124 0.4837,-0.0124 0.16123,0 0.31832,0.0124 0.47955,0.0124 v -0.14883 c -0.11989,0 -0.32659,0 -0.32659,-0.13229 v -0.83096 c 0,-0.32246 0.21911,-0.64078 0.5581,-0.64078 0.27699,0 0.30593,0.25631 0.30593,0.47129 v 1.00045 c 0,0.13229 -0.20671,0.13229 -0.33073,0.13229 v 0.14883 c 0.16123,0 0.32246,-0.0124 0.48369,-0.0124 0.16123,0 0.32246,0.0124 0.48369,0.0124 v -0.14883 c -0.12402,0 -0.33073,0 -0.33073,-0.13229 v -0.83096 c 0,-0.32246 0.21911,-0.64078 0.56224,-0.64078 0.27285,0 0.30179,0.25631 0.30179,0.47129 v 1.00045 c 0,0.13229 -0.2067,0.13229 -0.32659,0.13229 v 0.14883 c 0.15709,0 0.31832,-0.0124 0.48369,-0.0124 0.16123,0 0.32246,0.0124 0.47956,0.0124 v -0.14883 c -0.11989,0 -0.3266,0 -0.3266,-0.13229 v -1.01286 c 0,-0.3886 -0.20257,-0.5705 -0.58704,-0.5705 -0.25632,0 -0.49196,0.16123 -0.60358,0.39687 -0.062,-0.29766 -0.28939,-0.39687 -0.57051,-0.39687 -0.26872,0 -0.50023,0.17363 -0.60772,0.41341 v -0.41341 l -0.61185,0.0455 v 0.14883 c 0.21911,0 0.3266,0 0.3266,0.23564 v 1.15342 c 0,0.13229 -0.20671,0.13229 -0.3266,0.13229 z m 4.91857,0 c 0.15709,0 0.31832,-0.0124 0.48369,-0.0124 0.16123,0 0.31833,0.0124 0.47956,0.0124 v -0.14883 c -0.11989,0 -0.3266,0 -0.3266,-0.13229 v -0.83096 c 0,-0.32246 0.21911,-0.64078 0.55811,-0.64078 0.27698,0 0.30592,0.25631 0.30592,0.47129 v 1.00045 c 0,0.13229 -0.2067,0.13229 -0.33073,0.13229 v 0.14883 c 0.16123,0 0.32246,-0.0124 0.48369,-0.0124 0.16123,0 0.32246,0.0124 0.4837,0.0124 v -0.14883 c -0.12403,0 -0.33073,0 -0.33073,-0.13229 v -1.01286 c 0,-0.3886 -0.20258,-0.5705 -0.58705,-0.5705 -0.26872,0 -0.50023,0.17363 -0.60771,0.41341 v -0.41341 l -0.61185,0.0455 v 0.14883 c 0.21911,0 0.32659,0 0.32659,0.23564 v 1.15342 c 0,0.13229 -0.2067,0.13229 -0.32659,0.13229 z m 2.38435,-0.41341 c 0,0.34727 0.40101,0.45889 0.67799,0.45889 0.23565,0 0.45062,-0.13229 0.55811,-0.34313 0.0124,0.16536 0.13642,0.32246 0.31006,0.32246 0.19843,0 0.3638,-0.1695 0.3638,-0.36794 v -0.26872 h -0.12402 v 0.26872 c 0,0.0909 -0.0331,0.21911 -0.13643,0.21911 -0.11162,0 -0.14469,-0.12816 -0.14469,-0.21911 v -0.94671 c 0,-0.38034 -0.40101,-0.59945 -0.74001,-0.59945 -0.26872,0 -0.64492,0.11576 -0.64492,0.43822 0,0.11575 0.0909,0.20257 0.20257,0.20257 0.11575,0 0.20257,-0.0868 0.20257,-0.20257 0,-0.0992 -0.0744,-0.20257 -0.18603,-0.20257 0.11575,-0.0951 0.28112,-0.12403 0.42581,-0.12403 0.26458,0 0.42995,0.25632 0.42995,0.4961 v 0.17363 c -0.42168,0 -1.19476,0.14469 -1.19476,0.69453 z m 0.339,0 c 0,-0.42581 0.50436,-0.59118 0.85576,-0.59118 v 0.43822 c 0,0.27285 -0.21498,0.50436 -0.48783,0.50436 -0.1943,0 -0.36793,-0.15296 -0.36793,-0.3514 z m 3.14606,0.42581 c 0,0.0165 0.0165,0.0331 0.0372,0.0331 h 0.0248 c 0.004,0 0.0207,-0.004 0.0207,-0.008 l 0.15709,-0.1695 c 0.11989,0.11989 0.28112,0.17777 0.45062,0.17777 0.37621,0 0.68627,-0.17777 0.68627,-0.59532 0,-0.31419 -0.25632,-0.51263 -0.53744,-0.57464 l -0.28939,-0.0579 c -0.14469,-0.0331 -0.33073,-0.11988 -0.33073,-0.29765 0,-0.25218 0.26459,-0.31419 0.46716,-0.31419 0.29352,0 0.46302,0.20257 0.46302,0.49196 0,0.0207 0.0165,0.0372 0.0372,0.0372 h 0.0537 c 0.0165,0 0.0331,-0.0165 0.0331,-0.0372 v -0.55398 c 0,-0.0165 -0.0165,-0.0331 -0.0331,-0.0331 h -0.0331 c -0.008,0 -0.0207,0.004 -0.0207,0.008 l -0.11989,0.10749 c -0.11162,-0.0827 -0.24391,-0.11576 -0.3762,-0.11576 -0.339,0 -0.6904,0.13643 -0.6904,0.52917 0,0.29352 0.26872,0.45475 0.5209,0.50849 l 0.28112,0.0537 c 0.17363,0.0413 0.35553,0.16536 0.35553,0.3638 0,0.27285 -0.23151,0.37207 -0.46715,0.37207 -0.35967,0 -0.5085,-0.30179 -0.57051,-0.61185 -0.004,-0.0165 -0.0165,-0.0331 -0.0331,-0.0331 h -0.0496 c -0.0207,0 -0.0372,0.0165 -0.0372,0.0331 z m 2.57245,0.0331 c 0.33073,0 0.62012,-0.22738 0.69867,-0.54157 0,-0.0248 -0.0124,-0.0579 -0.0413,-0.0579 h -0.0372 c -0.0207,0 -0.0372,0.0207 -0.0414,0.0413 -0.0661,0.24391 -0.28525,0.43822 -0.54157,0.43822 -0.47128,0 -0.60358,-0.46302 -0.60358,-0.85163 0,-0.0124 0,-0.0331 0,-0.0496 h 1.2237 c 0.0289,0 0.0413,-0.0289 0.0413,-0.0537 0,-0.47956 -0.23977,-0.8599 -0.75654,-0.8599 -0.51676,0 -0.8723,0.47542 -0.8723,0.96738 0,0.51263 0.40101,0.96739 0.93018,0.96739 z m -0.56224,-1.12448 c 0,-0.29352 0.1571,-0.69867 0.50436,-0.69867 0.35554,0 0.45889,0.41341 0.45889,0.69867 z m 2.41639,1.079 c 0.008,0.0289 0.0372,0.0455 0.0661,0.0455 h 0.0289 c 0.0289,0 0.062,-0.0165 0.0703,-0.0455 l 0.56637,-1.43454 c 0.0703,-0.15709 0.21084,-0.23564 0.38034,-0.23564 v -0.14883 c -0.0992,0 -0.20671,0.0124 -0.31006,0.0124 -0.13229,0 -0.26045,-0.0124 -0.38861,-0.0124 v 0.14883 c 0.0992,0 0.20257,0.062 0.20257,0.17363 0,0.0248 -0.004,0.0455 -0.0124,0.0661 l -0.42581,1.07487 -0.47543,-1.18649 c -0.004,-0.008 -0.004,-0.0165 -0.004,-0.0248 0,-0.10335 0.16536,-0.10335 0.23977,-0.10335 v -0.14883 c -0.16123,0 -0.32246,0.0124 -0.48369,0.0124 -0.13229,0 -0.26871,-0.0124 -0.40514,-0.0124 v 0.14883 c 0.13229,0 0.27285,0 0.33486,0.12402 z m 2.13217,0.0455 c 0.33073,0 0.62012,-0.22738 0.69866,-0.54157 0,-0.0248 -0.0124,-0.0579 -0.0413,-0.0579 h -0.0372 c -0.0207,0 -0.0372,0.0207 -0.0413,0.0413 -0.0661,0.24391 -0.28525,0.43822 -0.54157,0.43822 -0.47129,0 -0.60358,-0.46302 -0.60358,-0.85163 0,-0.0124 0,-0.0331 0,-0.0496 h 1.2237 c 0.0289,0 0.0413,-0.0289 0.0413,-0.0537 0,-0.47956 -0.23977,-0.8599 -0.75654,-0.8599 -0.51676,0 -0.8723,0.47542 -0.8723,0.96738 0,0.51263 0.40101,0.96739 0.93018,0.96739 z m -0.56224,-1.12448 c 0,-0.29352 0.1571,-0.69867 0.50436,-0.69867 0.35554,0 0.45889,0.41341 0.45889,0.69867 z m 1.49862,1.079 c 0.15709,0 0.31419,-0.0124 0.47542,-0.0124 0.18604,0 0.37207,0.0124 0.55397,0.0124 v -0.14883 c -0.11575,0 -0.40928,0 -0.40928,-0.13229 v -0.69453 c 0,-0.29352 0.10336,-0.77721 0.47956,-0.77721 0.008,0 0.0165,0 0.0248,0 -0.0537,0.0331 -0.0827,0.0951 -0.0827,0.15709 0,0.10749 0.0868,0.19017 0.19017,0.19017 0.10749,0 0.19017,-0.0827 0.19017,-0.19017 0,-0.16536 -0.1695,-0.26871 -0.32246,-0.26871 -0.25632,0 -0.41755,0.19017 -0.50023,0.41341 v -0.41341 l -0.59945,0.0455 v 0.14883 c 0.21911,0 0.3266,0 0.3266,0.23564 v 1.15342 c 0,0.13229 -0.20671,0.13229 -0.3266,0.13229 z m 0,0"
       style="fill:#000000;fill-opacity:1;fill-rule:nonzero;stroke:none;stroke-width:0.423333"
       aria-label="choďte3kmnasever" />
    <path
       id="path80-8"
       d="m 157.37188,159.77711 h 0.63246 v -6.74793 h -0.63246 z"
       style="fill:#000000;fill-opacity:1;fill-rule:nonzero;stroke:none;stroke-width:0.423333" />
    <path
       id="path81-1"
       d="m 94.277436,160.40999 h 63.726904 v -0.63246 H 94.277436 Z"
       style="fill:#000000;fill-opacity:1;fill-rule:nonzero;stroke:none;stroke-width:0.423333" />
  </g>
</svg>
