<?xml version="1.0" encoding="UTF-8" standalone="no"?>
<svg
   width="573.43pt"
   height="233.27pt"
   viewBox="0 0 573.43 233.27"
   version="1.1"
   id="svg74"
   xmlns="http://www.w3.org/2000/svg"
   xmlns:svg="http://www.w3.org/2000/svg">
  <defs
     id="defs1">
    <clipPath
       id="clip-0">
      <path
         clip-rule="nonzero"
         d="M 0 0 L 573.429688 0 L 573.429688 233.269531 L 0 233.269531 Z M 0 0 "
         id="path1" />
    </clipPath>
  </defs>
  <path
     fill-rule="nonzero"
     fill="rgb(0%, 0%, 100%)"
     fill-opacity="1"
     d="M 3.25 230.019531 L 31.597656 230.019531 L 31.597656 201.671875 L 3.25 201.671875 Z M 3.25 230.019531 "
     id="path2" />
  <path
     fill-rule="nonzero"
     fill="rgb(0%, 0%, 100%)"
     fill-opacity="1"
     d="M 31.597656 201.671875 L 59.941406 201.671875 L 59.941406 173.328125 L 31.597656 173.328125 Z M 31.597656 201.671875 "
     id="path3" />
  <path
     fill-rule="nonzero"
     fill="rgb(0%, 0%, 100%)"
     fill-opacity="1"
     d="M 59.941406 173.328125 L 88.289062 173.328125 L 88.289062 144.980469 L 59.941406 144.980469 Z M 59.941406 173.328125 "
     id="path4" />
  <path
     fill-rule="nonzero"
     fill="rgb(0%, 0%, 100%)"
     fill-opacity="1"
     d="M 88.289062 144.980469 L 116.636719 144.980469 L 116.636719 116.632812 L 88.289062 116.632812 Z M 88.289062 144.980469 "
     id="path5" />
  <path
     fill-rule="nonzero"
     fill="rgb(0%, 0%, 100%)"
     fill-opacity="1"
     d="M 116.636719 116.632812 L 144.984375 116.632812 L 144.984375 88.289062 L 116.636719 88.289062 Z M 116.636719 116.632812 "
     id="path6" />
  <path
     fill-rule="nonzero"
     fill="rgb(0%, 0%, 100%)"
     fill-opacity="1"
     d="M 144.980469 88.289062 L 173.328125 88.289062 L 173.328125 59.941406 L 144.980469 59.941406 Z M 144.980469 88.289062 "
     id="path7" />
  <path
     fill-rule="nonzero"
     fill="rgb(0%, 0%, 100%)"
     fill-opacity="1"
     d="M 173.328125 59.941406 L 201.675781 59.941406 L 201.675781 31.59375 L 173.328125 31.59375 Z M 173.328125 59.941406 "
     id="path8" />
  <path
     fill-rule="nonzero"
     fill="rgb(0%, 0%, 100%)"
     fill-opacity="1"
     d="M 201.675781 31.59375 L 230.023438 31.59375 L 230.023438 3.25 L 201.675781 3.25 Z M 201.675781 31.59375 "
     id="path9" />
  <path
     fill-rule="nonzero"
     fill="rgb(100%, 0%, 0%)"
     fill-opacity="1"
     d="M 3.25 116.632812 L 31.597656 116.632812 L 31.597656 88.289062 L 3.25 88.289062 Z M 3.25 116.632812 "
     id="path10" />
  <path
     fill-rule="nonzero"
     fill="rgb(100%, 0%, 0%)"
     fill-opacity="1"
     d="M 31.597656 88.289062 L 59.941406 88.289062 L 59.941406 59.941406 L 31.597656 59.941406 Z M 31.597656 88.289062 "
     id="path11" />
  <path
     fill-rule="nonzero"
     fill="rgb(100%, 0%, 0%)"
     fill-opacity="1"
     d="M 59.941406 59.941406 L 88.289062 59.941406 L 88.289062 31.59375 L 59.941406 31.59375 Z M 59.941406 59.941406 "
     id="path12" />
  <path
     fill-rule="nonzero"
     fill="rgb(100%, 0%, 0%)"
     fill-opacity="1"
     d="M 88.289062 31.59375 L 116.636719 31.59375 L 116.636719 3.25 L 88.289062 3.25 Z M 88.289062 31.59375 "
     id="path13" />
  <path
     fill-rule="nonzero"
     fill="rgb(0%, 80.076599%, 0%)"
     fill-opacity="1"
     d="M 88.289062 230.019531 L 116.636719 230.019531 L 116.636719 201.671875 L 88.289062 201.671875 Z M 88.289062 230.019531 "
     id="path14" />
  <path
     fill-rule="nonzero"
     fill="rgb(0%, 80.076599%, 0%)"
     fill-opacity="1"
     d="M 116.636719 201.671875 L 144.984375 201.671875 L 144.984375 173.328125 L 116.636719 173.328125 Z M 116.636719 201.671875 "
     id="path15" />
  <path
     fill-rule="nonzero"
     fill="rgb(0%, 80.076599%, 0%)"
     fill-opacity="1"
     d="M 144.980469 173.328125 L 173.328125 173.328125 L 173.328125 144.980469 L 144.980469 144.980469 Z M 144.980469 173.328125 "
     id="path16" />
  <path
     fill-rule="nonzero"
     fill="rgb(0%, 80.076599%, 0%)"
     fill-opacity="1"
     d="M 173.328125 144.980469 L 201.675781 144.980469 L 201.675781 116.632812 L 173.328125 116.632812 Z M 173.328125 144.980469 "
     id="path17" />
  <path
     fill-rule="nonzero"
     fill="rgb(0%, 80.076599%, 0%)"
     fill-opacity="1"
     d="M 201.675781 116.632812 L 230.023438 116.632812 L 230.023438 88.289062 L 201.675781 88.289062 Z M 201.675781 116.632812 "
     id="path18" />
  <path
     fill="none"
     stroke-width="1"
     stroke-linecap="round"
     stroke-linejoin="round"
     stroke="rgb(0%, 0%, 0%)"
     stroke-opacity="1"
     stroke-miterlimit="10"
     d="M 32.5 32.504687 L 2300.195312 32.504687 "
     transform="matrix(0.1, 0, 0, -0.1, 0, 233.27)"
     id="path19" />
  <path
     fill="none"
     stroke-width="1"
     stroke-linecap="round"
     stroke-linejoin="round"
     stroke="rgb(0%, 0%, 0%)"
     stroke-opacity="1"
     stroke-miterlimit="10"
     d="M 32.5 315.98125 L 2300.195312 315.98125 "
     transform="matrix(0.1, 0, 0, -0.1, 0, 233.27)"
     id="path20" />
  <path
     fill="none"
     stroke-width="1"
     stroke-linecap="round"
     stroke-linejoin="round"
     stroke="rgb(0%, 0%, 0%)"
     stroke-opacity="1"
     stroke-miterlimit="10"
     d="M 32.5 599.41875 L 2300.195312 599.41875 "
     transform="matrix(0.1, 0, 0, -0.1, 0, 233.27)"
     id="path21" />
  <path
     fill="none"
     stroke-width="1"
     stroke-linecap="round"
     stroke-linejoin="round"
     stroke="rgb(0%, 0%, 0%)"
     stroke-opacity="1"
     stroke-miterlimit="10"
     d="M 32.5 882.895312 L 2300.195312 882.895312 "
     transform="matrix(0.1, 0, 0, -0.1, 0, 233.27)"
     id="path22" />
  <path
     fill="none"
     stroke-width="1"
     stroke-linecap="round"
     stroke-linejoin="round"
     stroke="rgb(0%, 0%, 0%)"
     stroke-opacity="1"
     stroke-miterlimit="10"
     d="M 32.5 1166.371875 L 2300.195312 1166.371875 "
     transform="matrix(0.1, 0, 0, -0.1, 0, 233.27)"
     id="path23" />
  <path
     fill="none"
     stroke-width="1"
     stroke-linecap="round"
     stroke-linejoin="round"
     stroke="rgb(0%, 0%, 0%)"
     stroke-opacity="1"
     stroke-miterlimit="10"
     d="M 32.5 1449.809375 L 2300.195312 1449.809375 "
     transform="matrix(0.1, 0, 0, -0.1, 0, 233.27)"
     id="path24" />
  <path
     fill="none"
     stroke-width="1"
     stroke-linecap="round"
     stroke-linejoin="round"
     stroke="rgb(0%, 0%, 0%)"
     stroke-opacity="1"
     stroke-miterlimit="10"
     d="M 32.5 1733.285937 L 2300.195312 1733.285937 "
     transform="matrix(0.1, 0, 0, -0.1, 0, 233.27)"
     id="path25" />
  <path
     fill="none"
     stroke-width="1"
     stroke-linecap="round"
     stroke-linejoin="round"
     stroke="rgb(0%, 0%, 0%)"
     stroke-opacity="1"
     stroke-miterlimit="10"
     d="M 32.5 2016.7625 L 2300.195312 2016.7625 "
     transform="matrix(0.1, 0, 0, -0.1, 0, 233.27)"
     id="path26" />
  <path
     fill="none"
     stroke-width="1"
     stroke-linecap="round"
     stroke-linejoin="round"
     stroke="rgb(0%, 0%, 0%)"
     stroke-opacity="1"
     stroke-miterlimit="10"
     d="M 32.5 2300.2 L 2300.195312 2300.2 "
     transform="matrix(0.1, 0, 0, -0.1, 0, 233.27)"
     id="path27" />
  <path
     fill="none"
     stroke-width="1"
     stroke-linecap="round"
     stroke-linejoin="round"
     stroke="rgb(0%, 0%, 0%)"
     stroke-opacity="1"
     stroke-miterlimit="10"
     d="M 32.5 32.504687 L 32.5 2300.2 "
     transform="matrix(0.1, 0, 0, -0.1, 0, 233.27)"
     id="path28" />
  <path
     fill="none"
     stroke-width="1"
     stroke-linecap="round"
     stroke-linejoin="round"
     stroke="rgb(0%, 0%, 0%)"
     stroke-opacity="1"
     stroke-miterlimit="10"
     d="M 315.976562 32.504687 L 315.976562 2300.2 "
     transform="matrix(0.1, 0, 0, -0.1, 0, 233.27)"
     id="path29" />
  <path
     fill="none"
     stroke-width="1"
     stroke-linecap="round"
     stroke-linejoin="round"
     stroke="rgb(0%, 0%, 0%)"
     stroke-opacity="1"
     stroke-miterlimit="10"
     d="M 599.414062 32.504687 L 599.414062 2300.2 "
     transform="matrix(0.1, 0, 0, -0.1, 0, 233.27)"
     id="path30" />
  <path
     fill="none"
     stroke-width="1"
     stroke-linecap="round"
     stroke-linejoin="round"
     stroke="rgb(0%, 0%, 0%)"
     stroke-opacity="1"
     stroke-miterlimit="10"
     d="M 882.890625 32.504687 L 882.890625 2300.2 "
     transform="matrix(0.1, 0, 0, -0.1, 0, 233.27)"
     id="path31" />
  <path
     fill="none"
     stroke-width="1"
     stroke-linecap="round"
     stroke-linejoin="round"
     stroke="rgb(0%, 0%, 0%)"
     stroke-opacity="1"
     stroke-miterlimit="10"
     d="M 1166.367188 32.504687 L 1166.367188 2300.2 "
     transform="matrix(0.1, 0, 0, -0.1, 0, 233.27)"
     id="path32" />
  <path
     fill="none"
     stroke-width="1"
     stroke-linecap="round"
     stroke-linejoin="round"
     stroke="rgb(0%, 0%, 0%)"
     stroke-opacity="1"
     stroke-miterlimit="10"
     d="M 1449.804688 32.504687 L 1449.804688 2300.2 "
     transform="matrix(0.1, 0, 0, -0.1, 0, 233.27)"
     id="path33" />
  <path
     fill="none"
     stroke-width="1"
     stroke-linecap="round"
     stroke-linejoin="round"
     stroke="rgb(0%, 0%, 0%)"
     stroke-opacity="1"
     stroke-miterlimit="10"
     d="M 1733.28125 32.504687 L 1733.28125 2300.2 "
     transform="matrix(0.1, 0, 0, -0.1, 0, 233.27)"
     id="path34" />
  <path
     fill="none"
     stroke-width="1"
     stroke-linecap="round"
     stroke-linejoin="round"
     stroke="rgb(0%, 0%, 0%)"
     stroke-opacity="1"
     stroke-miterlimit="10"
     d="M 2016.757812 32.504687 L 2016.757812 2300.2 "
     transform="matrix(0.1, 0, 0, -0.1, 0, 233.27)"
     id="path35" />
  <path
     fill="none"
     stroke-width="1"
     stroke-linecap="round"
     stroke-linejoin="round"
     stroke="rgb(0%, 0%, 0%)"
     stroke-opacity="1"
     stroke-miterlimit="10"
     d="M 2300.195312 32.504687 L 2300.195312 2300.2 "
     transform="matrix(0.1, 0, 0, -0.1, 0, 233.27)"
     id="path36" />
  <path
     fill="none"
     stroke-width="20"
     stroke-linecap="round"
     stroke-linejoin="round"
     stroke="rgb(0%, 0%, 0%)"
     stroke-opacity="1"
     stroke-miterlimit="10"
     d="M 32.5 32.504687 L 2300.195312 32.504687 L 2300.195312 2300.2 L 32.5 2300.2 Z M 32.5 32.504687 "
     transform="matrix(0.1, 0, 0, -0.1, 0, 233.27)"
     id="path37" />
  <path
     fill-rule="nonzero"
     fill="rgb(0%, 0%, 100%)"
     fill-opacity="1"
     d="M 541.832031 230.019531 L 570.179688 230.019531 L 570.179688 201.671875 L 541.832031 201.671875 Z M 541.832031 230.019531 "
     id="path38" />
  <path
     fill-rule="nonzero"
     fill="rgb(0%, 0%, 100%)"
     fill-opacity="1"
     d="M 513.484375 201.671875 L 541.832031 201.671875 L 541.832031 173.328125 L 513.484375 173.328125 Z M 513.484375 201.671875 "
     id="path39" />
  <path
     fill-rule="nonzero"
     fill="rgb(0%, 0%, 100%)"
     fill-opacity="1"
     d="M 485.140625 173.328125 L 513.488281 173.328125 L 513.488281 144.980469 L 485.140625 144.980469 Z M 485.140625 173.328125 "
     id="path40" />
  <path
     fill-rule="nonzero"
     fill="rgb(0%, 0%, 100%)"
     fill-opacity="1"
     d="M 456.792969 144.980469 L 485.140625 144.980469 L 485.140625 116.632812 L 456.792969 116.632812 Z M 456.792969 144.980469 "
     id="path41" />
  <path
     fill-rule="nonzero"
     fill="rgb(0%, 0%, 100%)"
     fill-opacity="1"
     d="M 428.445312 116.632812 L 456.792969 116.632812 L 456.792969 88.289062 L 428.445312 88.289062 Z M 428.445312 116.632812 "
     id="path42" />
  <path
     fill-rule="nonzero"
     fill="rgb(0%, 0%, 100%)"
     fill-opacity="1"
     d="M 400.101562 88.289062 L 428.445312 88.289062 L 428.445312 59.941406 L 400.101562 59.941406 Z M 400.101562 88.289062 "
     id="path43" />
  <path
     fill-rule="nonzero"
     fill="rgb(0%, 0%, 100%)"
     fill-opacity="1"
     d="M 371.753906 59.941406 L 400.101562 59.941406 L 400.101562 31.59375 L 371.753906 31.59375 Z M 371.753906 59.941406 "
     id="path44" />
  <path
     fill-rule="nonzero"
     fill="rgb(0%, 0%, 100%)"
     fill-opacity="1"
     d="M 343.40625 31.59375 L 371.753906 31.59375 L 371.753906 3.25 L 343.40625 3.25 Z M 343.40625 31.59375 "
     id="path45" />
  <path
     fill-rule="nonzero"
     fill="rgb(0%, 80.076599%, 0%)"
     fill-opacity="1"
     d="M 541.832031 173.328125 L 570.179688 173.328125 L 570.179688 144.980469 L 541.832031 144.980469 Z M 541.832031 173.328125 "
     id="path46" />
  <path
     fill-rule="nonzero"
     fill="rgb(0%, 80.076599%, 0%)"
     fill-opacity="1"
     d="M 513.484375 144.980469 L 541.832031 144.980469 L 541.832031 116.632812 L 513.484375 116.632812 Z M 513.484375 144.980469 "
     id="path47" />
  <path
     fill-rule="nonzero"
     fill="rgb(0%, 80.076599%, 0%)"
     fill-opacity="1"
     d="M 485.140625 116.632812 L 513.488281 116.632812 L 513.488281 88.289062 L 485.140625 88.289062 Z M 485.140625 116.632812 "
     id="path48" />
  <path
     fill-rule="nonzero"
     fill="rgb(0%, 80.076599%, 0%)"
     fill-opacity="1"
     d="M 456.792969 88.289062 L 485.140625 88.289062 L 485.140625 59.941406 L 456.792969 59.941406 Z M 456.792969 88.289062 "
     id="path49" />
  <path
     fill-rule="nonzero"
     fill="rgb(0%, 80.076599%, 0%)"
     fill-opacity="1"
     d="M 428.445312 59.941406 L 456.792969 59.941406 L 456.792969 31.59375 L 428.445312 31.59375 Z M 428.445312 59.941406 "
     id="path50" />
  <path
     fill-rule="nonzero"
     fill="rgb(0%, 80.076599%, 0%)"
     fill-opacity="1"
     d="M 400.101562 31.59375 L 428.445312 31.59375 L 428.445312 3.25 L 400.101562 3.25 Z M 400.101562 31.59375 "
     id="path51" />
  <path
     fill-rule="nonzero"
     fill="rgb(100%, 0%, 0%)"
     fill-opacity="1"
     d="M 400.101562 230.019531 L 428.445312 230.019531 L 428.445312 201.671875 L 400.101562 201.671875 Z M 400.101562 230.019531 "
     id="path52" />
  <path
     fill-rule="nonzero"
     fill="rgb(100%, 0%, 0%)"
     fill-opacity="1"
     d="M 371.753906 201.671875 L 400.101562 201.671875 L 400.101562 173.328125 L 371.753906 173.328125 Z M 371.753906 201.671875 "
     id="path53" />
  <path
     fill-rule="nonzero"
     fill="rgb(100%, 0%, 0%)"
     fill-opacity="1"
     d="M 343.40625 173.328125 L 371.753906 173.328125 L 371.753906 144.980469 L 343.40625 144.980469 Z M 343.40625 173.328125 "
     id="path54" />
  <path
     fill="none"
     stroke-width="1"
     stroke-linecap="round"
     stroke-linejoin="round"
     stroke="rgb(0%, 0%, 0%)"
     stroke-opacity="1"
     stroke-miterlimit="10"
     d="M 3434.0625 32.504687 L 5701.796875 32.504687 "
     transform="matrix(0.1, 0, 0, -0.1, 0, 233.27)"
     id="path55" />
  <path
     fill="none"
     stroke-width="1"
     stroke-linecap="round"
     stroke-linejoin="round"
     stroke="rgb(0%, 0%, 0%)"
     stroke-opacity="1"
     stroke-miterlimit="10"
     d="M 3434.0625 315.98125 L 5701.796875 315.98125 "
     transform="matrix(0.1, 0, 0, -0.1, 0, 233.27)"
     id="path56" />
  <path
     fill="none"
     stroke-width="1"
     stroke-linecap="round"
     stroke-linejoin="round"
     stroke="rgb(0%, 0%, 0%)"
     stroke-opacity="1"
     stroke-miterlimit="10"
     d="M 3434.0625 599.41875 L 5701.796875 599.41875 "
     transform="matrix(0.1, 0, 0, -0.1, 0, 233.27)"
     id="path57" />
  <path
     fill="none"
     stroke-width="1"
     stroke-linecap="round"
     stroke-linejoin="round"
     stroke="rgb(0%, 0%, 0%)"
     stroke-opacity="1"
     stroke-miterlimit="10"
     d="M 3434.0625 882.895312 L 5701.796875 882.895312 "
     transform="matrix(0.1, 0, 0, -0.1, 0, 233.27)"
     id="path58" />
  <path
     fill="none"
     stroke-width="1"
     stroke-linecap="round"
     stroke-linejoin="round"
     stroke="rgb(0%, 0%, 0%)"
     stroke-opacity="1"
     stroke-miterlimit="10"
     d="M 3434.0625 1166.371875 L 5701.796875 1166.371875 "
     transform="matrix(0.1, 0, 0, -0.1, 0, 233.27)"
     id="path59" />
  <path
     fill="none"
     stroke-width="1"
     stroke-linecap="round"
     stroke-linejoin="round"
     stroke="rgb(0%, 0%, 0%)"
     stroke-opacity="1"
     stroke-miterlimit="10"
     d="M 3434.0625 1449.809375 L 5701.796875 1449.809375 "
     transform="matrix(0.1, 0, 0, -0.1, 0, 233.27)"
     id="path60" />
  <path
     fill="none"
     stroke-width="1"
     stroke-linecap="round"
     stroke-linejoin="round"
     stroke="rgb(0%, 0%, 0%)"
     stroke-opacity="1"
     stroke-miterlimit="10"
     d="M 3434.0625 1733.285937 L 5701.796875 1733.285937 "
     transform="matrix(0.1, 0, 0, -0.1, 0, 233.27)"
     id="path61" />
  <path
     fill="none"
     stroke-width="1"
     stroke-linecap="round"
     stroke-linejoin="round"
     stroke="rgb(0%, 0%, 0%)"
     stroke-opacity="1"
     stroke-miterlimit="10"
     d="M 3434.0625 2016.7625 L 5701.796875 2016.7625 "
     transform="matrix(0.1, 0, 0, -0.1, 0, 233.27)"
     id="path62" />
  <path
     fill="none"
     stroke-width="1"
     stroke-linecap="round"
     stroke-linejoin="round"
     stroke="rgb(0%, 0%, 0%)"
     stroke-opacity="1"
     stroke-miterlimit="10"
     d="M 3434.0625 2300.2 L 5701.796875 2300.2 "
     transform="matrix(0.1, 0, 0, -0.1, 0, 233.27)"
     id="path63" />
  <path
     fill="none"
     stroke-width="1"
     stroke-linecap="round"
     stroke-linejoin="round"
     stroke="rgb(0%, 0%, 0%)"
     stroke-opacity="1"
     stroke-miterlimit="10"
     d="M 3434.0625 32.504687 L 3434.0625 2300.2 "
     transform="matrix(0.1, 0, 0, -0.1, 0, 233.27)"
     id="path64" />
  <path
     fill="none"
     stroke-width="1"
     stroke-linecap="round"
     stroke-linejoin="round"
     stroke="rgb(0%, 0%, 0%)"
     stroke-opacity="1"
     stroke-miterlimit="10"
     d="M 3717.539062 32.504687 L 3717.539062 2300.2 "
     transform="matrix(0.1, 0, 0, -0.1, 0, 233.27)"
     id="path65" />
  <path
     fill="none"
     stroke-width="1"
     stroke-linecap="round"
     stroke-linejoin="round"
     stroke="rgb(0%, 0%, 0%)"
     stroke-opacity="1"
     stroke-miterlimit="10"
     d="M 4001.015625 32.504687 L 4001.015625 2300.2 "
     transform="matrix(0.1, 0, 0, -0.1, 0, 233.27)"
     id="path66" />
  <path
     fill="none"
     stroke-width="1"
     stroke-linecap="round"
     stroke-linejoin="round"
     stroke="rgb(0%, 0%, 0%)"
     stroke-opacity="1"
     stroke-miterlimit="10"
     d="M 4284.453125 32.504687 L 4284.453125 2300.2 "
     transform="matrix(0.1, 0, 0, -0.1, 0, 233.27)"
     id="path67" />
  <path
     fill="none"
     stroke-width="1"
     stroke-linecap="round"
     stroke-linejoin="round"
     stroke="rgb(0%, 0%, 0%)"
     stroke-opacity="1"
     stroke-miterlimit="10"
     d="M 4567.929688 32.504687 L 4567.929688 2300.2 "
     transform="matrix(0.1, 0, 0, -0.1, 0, 233.27)"
     id="path68" />
  <path
     fill="none"
     stroke-width="1"
     stroke-linecap="round"
     stroke-linejoin="round"
     stroke="rgb(0%, 0%, 0%)"
     stroke-opacity="1"
     stroke-miterlimit="10"
     d="M 4851.40625 32.504687 L 4851.40625 2300.2 "
     transform="matrix(0.1, 0, 0, -0.1, 0, 233.27)"
     id="path69" />
  <path
     fill="none"
     stroke-width="1"
     stroke-linecap="round"
     stroke-linejoin="round"
     stroke="rgb(0%, 0%, 0%)"
     stroke-opacity="1"
     stroke-miterlimit="10"
     d="M 5134.84375 32.504687 L 5134.84375 2300.2 "
     transform="matrix(0.1, 0, 0, -0.1, 0, 233.27)"
     id="path70" />
  <path
     fill="none"
     stroke-width="1"
     stroke-linecap="round"
     stroke-linejoin="round"
     stroke="rgb(0%, 0%, 0%)"
     stroke-opacity="1"
     stroke-miterlimit="10"
     d="M 5418.320312 32.504687 L 5418.320312 2300.2 "
     transform="matrix(0.1, 0, 0, -0.1, 0, 233.27)"
     id="path71" />
  <path
     fill="none"
     stroke-width="1"
     stroke-linecap="round"
     stroke-linejoin="round"
     stroke="rgb(0%, 0%, 0%)"
     stroke-opacity="1"
     stroke-miterlimit="10"
     d="M 5701.796875 32.504687 L 5701.796875 2300.2 "
     transform="matrix(0.1, 0, 0, -0.1, 0, 233.27)"
     id="path72" />
  <path
     fill="none"
     stroke-width="20"
     stroke-linecap="round"
     stroke-linejoin="round"
     stroke="rgb(0%, 0%, 0%)"
     stroke-opacity="1"
     stroke-miterlimit="10"
     d="M 3434.0625 32.504687 L 5701.796875 32.504687 L 5701.796875 2300.2 L 3434.0625 2300.2 Z M 3434.0625 32.504687 "
     transform="matrix(0.1, 0, 0, -0.1, 0, 233.27)"
     id="path73" />
  <g
     clip-path="url(#clip-0)"
     id="g74">
    <path
       fill="none"
       stroke-width="5"
       stroke-linecap="round"
       stroke-linejoin="round"
       stroke="rgb(100%, 100%, 100%)"
       stroke-opacity="1"
       stroke-miterlimit="10"
       d="M 2.5 2.504687 L 5731.796875 2.504687 L 5731.796875 2330.2 L 2.5 2330.2 Z M 2.5 2.504687 "
       transform="matrix(0.1, 0, 0, -0.1, 0, 233.27)"
       id="path74" />
  </g>
</svg>
