<?xml version="1.0" encoding="UTF-8" standalone="no"?>
<!-- Created with Inkscape (http://www.inkscape.org/) -->

<svg
   width="93.17215mm"
   height="13.409mm"
   viewBox="0 0 93.17215 13.409"
   version="1.1"
   id="svg1"
   xmlns="http://www.w3.org/2000/svg"
   xmlns:svg="http://www.w3.org/2000/svg">
  <defs
     id="defs1" />
  <g
     id="layer1"
     transform="translate(-37.041666,-116.41666)">
    <path
       id="path110"
       d="M 59.879827,116.62116 H 37.12986 v 12.99999 h 22.749967"
       style="fill:none;stroke:#000000;stroke-width:0.176389;stroke-linecap:round;stroke-linejoin:round;stroke-miterlimit:10;stroke-dasharray:none;stroke-opacity:1" />
    <path
       id="path111"
       d="M 59.879827,123.12115 H 37.12986"
       style="fill:none;stroke:#000000;stroke-width:0.176389;stroke-linecap:round;stroke-linejoin:round;stroke-miterlimit:10;stroke-dasharray:none;stroke-opacity:1" />
    <path
       id="path112"
       d="m 66.379817,116.62116 h 9.749986 v 12.99999 h -9.749986"
       style="fill:none;stroke:#000000;stroke-width:0.176389;stroke-linecap:round;stroke-linejoin:round;stroke-miterlimit:10;stroke-dasharray:none;stroke-opacity:1" />
    <path
       id="path113"
       d="m 66.379817,123.12115 h 9.749986"
       style="fill:none;stroke:#000000;stroke-width:0.176389;stroke-linecap:round;stroke-linejoin:round;stroke-miterlimit:10;stroke-dasharray:none;stroke-opacity:1" />
    <path
       id="path114"
       d="M 37.12986,129.62115 V 116.62116"
       style="fill:none;stroke:#000000;stroke-width:0.176389;stroke-linecap:round;stroke-linejoin:round;stroke-miterlimit:10;stroke-dasharray:none;stroke-opacity:1" />
    <path
       id="path115"
       d="m 42.979863,126.37115 c 0,-0.68959 -0.273981,-1.35086 -0.761566,-1.83844 -0.487579,-0.48759 -1.14885,-0.76157 -1.838441,-0.76157 -0.689597,0 -1.350867,0.27398 -1.838447,0.76157 -0.487579,0.48758 -0.761563,1.14885 -0.761563,1.83844 0,0.68959 0.273984,1.35086 0.761563,1.83844 0.48758,0.48758 1.14885,0.76157 1.838447,0.76157 0.689591,0 1.350862,-0.27399 1.838441,-0.76157 0.487585,-0.48758 0.761566,-1.14885 0.761566,-1.83844 z"
       style="fill:#cccc00;fill-opacity:1;fill-rule:nonzero;stroke:#000000;stroke-width:0.176389;stroke-linecap:round;stroke-linejoin:round;stroke-miterlimit:10;stroke-dasharray:none;stroke-opacity:1" />
    <path
       id="path116"
       d="M 43.629849,129.62115 V 116.62116"
       style="fill:none;stroke:#000000;stroke-width:0.176389;stroke-linecap:round;stroke-linejoin:round;stroke-miterlimit:10;stroke-dasharray:none;stroke-opacity:1" />
    <path
       id="path117"
       d="m 49.479853,126.37115 c 0,-0.68959 -0.273981,-1.35086 -0.761566,-1.83844 -0.487577,-0.48759 -1.14885,-0.76157 -1.838441,-0.76157 -0.689597,0 -1.350868,0.27398 -1.838444,0.76157 -0.487583,0.48758 -0.761567,1.14885 -0.761567,1.83844 0,0.68959 0.273984,1.35086 0.761567,1.83844 0.487576,0.48758 1.148847,0.76157 1.838444,0.76157 0.689591,0 1.350864,-0.27399 1.838441,-0.76157 0.487585,-0.48758 0.761566,-1.14885 0.761566,-1.83844 z"
       style="fill:#cccc00;fill-opacity:1;fill-rule:nonzero;stroke:#000000;stroke-width:0.176389;stroke-linecap:round;stroke-linejoin:round;stroke-miterlimit:10;stroke-dasharray:none;stroke-opacity:1" />
    <path
       id="path118"
       d="M 50.129839,129.62115 V 116.62116"
       style="fill:none;stroke:#000000;stroke-width:0.176389;stroke-linecap:round;stroke-linejoin:round;stroke-miterlimit:10;stroke-dasharray:none;stroke-opacity:1" />
    <path
       id="path119"
       d="m 55.979843,126.37115 c 0,-0.68959 -0.273982,-1.35086 -0.761566,-1.83844 -0.487577,-0.48759 -1.148848,-0.76157 -1.838442,-0.76157 -0.689594,0 -1.350867,0.27398 -1.838441,0.76157 -0.487585,0.48758 -0.761566,1.14885 -0.761566,1.83844 0,0.68959 0.273981,1.35086 0.761566,1.83844 0.487574,0.48758 1.148847,0.76157 1.838441,0.76157 0.689594,0 1.350865,-0.27399 1.838442,-0.76157 0.487584,-0.48758 0.761566,-1.14885 0.761566,-1.83844 z"
       style="fill:#cccc00;fill-opacity:1;fill-rule:nonzero;stroke:#000000;stroke-width:0.176389;stroke-linecap:round;stroke-linejoin:round;stroke-miterlimit:10;stroke-dasharray:none;stroke-opacity:1" />
    <path
       id="path120"
       d="M 56.629829,129.62115 V 116.62116"
       style="fill:none;stroke:#000000;stroke-width:0.176389;stroke-linecap:round;stroke-linejoin:round;stroke-miterlimit:10;stroke-dasharray:none;stroke-opacity:1" />
    <path
       id="path121"
       d="M 69.62981,129.62115 V 116.62116"
       style="fill:none;stroke:#000000;stroke-width:0.176389;stroke-linecap:round;stroke-linejoin:round;stroke-miterlimit:10;stroke-dasharray:none;stroke-opacity:1" />
    <path
       id="path122"
       d="m 75.479814,126.37115 c 0,-0.68959 -0.273981,-1.35086 -0.761566,-1.83844 -0.487577,-0.48759 -1.148845,-0.76157 -1.838442,-0.76157 -0.689594,0 -1.350861,0.27398 -1.838444,0.76157 -0.487582,0.48758 -0.761563,1.14885 -0.761563,1.83844 0,0.68959 0.273981,1.35086 0.761563,1.83844 0.487583,0.48758 1.14885,0.76157 1.838444,0.76157 0.689597,0 1.350865,-0.27399 1.838442,-0.76157 0.487585,-0.48758 0.761566,-1.14885 0.761566,-1.83844 z"
       style="fill:#cccc00;fill-opacity:1;fill-rule:nonzero;stroke:#000000;stroke-width:0.176389;stroke-linecap:round;stroke-linejoin:round;stroke-miterlimit:10;stroke-dasharray:none;stroke-opacity:1" />
    <path
       id="path123"
       d="M 76.129803,129.62115 V 116.62116"
       style="fill:none;stroke:#000000;stroke-width:0.176389;stroke-linecap:round;stroke-linejoin:round;stroke-miterlimit:10;stroke-dasharray:none;stroke-opacity:1" />
    <g
       id="g123"
       aria-label="1232n&#10;...&#10;...&#10;..."
       transform="matrix(0.35277776,0,0,0.35277776,39.347423,127.7299)">
      <path
         id="path124"
         d="m 1.1369219,-6.625e-4 c 0.6328125,0 1.265625,-0.0234375 1.8984375,-0.0234375 0.6210937,0 1.2539062,0.0234375 1.8867187,0.0234375 V -0.3991 c -0.3398437,0 -1.453125,0 -1.453125,-0.375 v -7.078125 c 0,-0.046875 -0.046875,-0.09375 -0.09375,-0.09375 H 3.2111406 c -0.5625,0.5859375 -1.359375,0.7617187 -2.1445312,0.7617187 v 0.3984375 c 0.5390625,0 1.078125,-0.09375 1.5234375,-0.3164062 V -0.7741 c 0,0.375 -1.1132813,0.375 -1.453125,0.375 z m 17.8798831,0 h 4.359375 l 0.316406,-2.0507813 H 23.37618 c -0.05859,0.375 -0.140625,0.9375 -0.28125,1.0898438 -0.05859,0.0585938 -1.277344,0.0585938 -1.992188,0.0585938 h -1.21875 l 1.382813,-1.3476563 c 0.960937,-0.9375 2.425781,-1.8749999 2.425781,-3.3749999 0,-1.4296875 -1.148438,-2.3203125 -2.496094,-2.3203125 -1.21875,0 -2.179687,1.0195312 -2.179687,2.2265625 0,0.328125 0.246093,0.5859375 0.585937,0.5859375 0.339844,0 0.585938,-0.2578125 0.585938,-0.5859375 0,-0.328125 -0.246094,-0.5859375 -0.585938,-0.5859375 -0.04687,0 -0.08203,0 -0.128906,0.011719 0.1875,-0.6914062 0.785156,-1.265625 1.535156,-1.265625 1.078125,0 1.640625,0.9492188 1.640625,1.9335938 0,1.3007812 -0.996094,2.3203124 -1.804687,3.2343749 l -1.792969,2.01562505 c -0.01172,0.0117188 -0.03516,0.0351563 -0.03516,0.046875 z m 18.83789,-1.0898438 c 0.03516,0.011719 0.07031,0.011719 0.105469,0.011719 0.339844,0 0.609375,-0.2695313 0.609375,-0.6210938 0,-0.3398437 -0.269531,-0.609375 -0.609375,-0.609375 -0.363281,0 -0.621094,0.2695313 -0.621094,0.609375 0,1.2539063 1.265625,1.94531255 2.390625,1.94531255 1.289063,0 2.472657,-0.97265625 2.472657,-2.30859375 0,-1.125 -0.996094,-1.9570313 -2.039063,-2.109375 0.9375,-0.28125 1.710938,-1.1132813 1.710938,-2.1445313 0,-1.078125 -1.21875,-1.6289062 -2.144532,-1.6289062 -0.949218,0 -2.074218,0.5390625 -2.074218,1.59375 0,0.328125 0.257812,0.5742187 0.574218,0.5742187 0.328125,0 0.5625,-0.2460937 0.5625,-0.5742187 0,-0.3046875 -0.234375,-0.5625 -0.5625,-0.5625 -0.03516,0 -0.07031,0 -0.09375,0.011719 0.328125,-0.5039062 1.007813,-0.7148437 1.582032,-0.7148437 0.773437,0 1.113281,0.609375 1.113281,1.3007812 0,0.75 -0.363281,1.96875 -1.265625,1.96875 l -0.691406,0.046875 c -0.03516,0 -0.08203,0.035156 -0.08203,0.070312 v 0.1289063 c 0,0.046875 0.04687,0.082031 0.08203,0.082031 h 0.84375 c 1.019531,0 1.324218,1.1132813 1.324218,1.9570313 0,0.8320312 -0.28125,1.9453125 -1.324218,1.9453125 -0.703125,0 -1.523438,-0.3046875 -1.863282,-0.9726561 z m 51.363282,1.0898438 h 4.359375 l 0.316406,-2.0507813 h -0.316406 c -0.05859,0.375 -0.140625,0.9375 -0.28125,1.0898438 -0.05859,0.0585938 -1.277344,0.0585938 -1.992188,0.0585938 h -1.21875 l 1.382813,-1.3476563 c 0.960937,-0.9375 2.425781,-1.8749999 2.425781,-3.3749999 0,-1.4296875 -1.148438,-2.3203125 -2.496094,-2.3203125 -1.21875,0 -2.179687,1.0195312 -2.179687,2.2265625 0,0.328125 0.246093,0.5859375 0.585937,0.5859375 0.339844,0 0.585938,-0.2578125 0.585938,-0.5859375 0,-0.328125 -0.246094,-0.5859375 -0.585938,-0.5859375 -0.04687,0 -0.08203,0 -0.128906,0.011719 0.1875,-0.6914062 0.785156,-1.265625 1.535156,-1.265625 1.078125,0 1.640625,0.9492188 1.640625,1.9335938 0,1.3007812 -0.996094,2.3203124 -1.804687,3.2343749 l -1.792969,2.01562505 c -0.01172,0.0117188 -0.03516,0.0351563 -0.03516,0.046875 z m 0,0"
         style="fill:#000000;fill-opacity:1;fill-rule:nonzero;stroke:none" />
      <path
         id="path125"
         d="m 96.946492,-3.5045688 c 0.02344,-0.070312 0.328125,-0.6679687 0.761719,-1.0546875 0.316406,-0.28125 0.726562,-0.46875 1.183594,-0.46875 0.480468,0 0.644531,0.3515625 0.644531,0.8320313 0,0.6796875 -0.480469,2.0390625 -0.726563,2.6835937 -0.105468,0.2929688 -0.164062,0.4453125 -0.164062,0.6679688 0,0.52734375 0.375,0.9609375 0.949219,0.9609375 1.10156,0 1.52344,-1.7578125 1.52344,-1.828125 0,-0.058594 -0.0469,-0.1054688 -0.11719,-0.1054688 -0.10547,0 -0.11719,0.035156 -0.17578,0.234375 -0.28125,0.98437505 -0.73828,1.4648438 -1.195314,1.4648438 -0.128906,0 -0.316406,-0.0117188 -0.316406,-0.3984375 0,-0.29296875 0.128906,-0.65625 0.199218,-0.8203125 0.246094,-0.65625 0.750002,-2.0039063 0.750002,-2.6835938 0,-0.7148437 -0.421877,-1.2539062 -1.335939,-1.2539062 -1.054688,0 -1.617188,0.75 -1.839844,1.0546875 C 97.051961,-4.8991 96.559773,-5.2741 96.044148,-5.2741 c -0.386718,0 -0.644531,0.234375 -0.855468,0.6328125 -0.210938,0.4335937 -0.375,1.1484375 -0.375,1.1953125 0,0.046875 0.04687,0.1054687 0.128906,0.1054687 0.09375,0 0.105469,-0.011719 0.175781,-0.28125 0.1875,-0.7265625 0.410156,-1.40625 0.890625,-1.40625 0.269531,0 0.363281,0.1875 0.363281,0.5390625 0,0.2695313 -0.117187,0.7382813 -0.199218,1.1015625 l -0.339844,1.2890625 c -0.04687,0.234375 -0.175781,0.7734375 -0.234375,0.984375 -0.08203,0.3164063 -0.210938,0.8789063 -0.210938,0.93750005 0,0.1640625 0.128907,0.29296875 0.304688,0.29296875 0.140625,0 0.316406,-0.0703125 0.410156,-0.24609375 0.02344,-0.0585938 0.128906,-0.48046875 0.1875,-0.71484375 l 0.257813,-1.078125 z M 62.74825,5.366525 c 0,-0.3515625 -0.292969,-0.5859375 -0.574219,-0.5859375 -0.351562,0 -0.585937,0.2929687 -0.585937,0.5742187 0,0.3515625 0.28125,0.5859375 0.574218,0.5859375 0.339844,0 0.585938,-0.28125 0.585938,-0.5742187 z m 5.24707,0 c 0,-0.3515625 -0.292968,-0.5859375 -0.574218,-0.5859375 -0.351563,0 -0.585938,0.2929687 -0.585938,0.5742187 0,0.3515625 0.28125,0.5859375 0.574219,0.5859375 0.339844,0 0.585937,-0.28125 0.585937,-0.5742187 z m 5.235352,0 c 0,-0.3515625 -0.292969,-0.5859375 -0.574219,-0.5859375 -0.351562,0 -0.585937,0.2929687 -0.585937,0.5742187 0,0.3515625 0.28125,0.5859375 0.574218,0.5859375 0.339844,0 0.585938,-0.28125 0.585938,-0.5742187 z M 62.74825,-13.05828 c 0,-0.351562 -0.292969,-0.585937 -0.574219,-0.585937 -0.351562,0 -0.585937,0.292969 -0.585937,0.574219 0,0.351562 0.28125,0.585937 0.574218,0.585937 0.339844,0 0.585938,-0.28125 0.585938,-0.574219 z m 5.24707,0 c 0,-0.351562 -0.292968,-0.585937 -0.574218,-0.585937 -0.351563,0 -0.585938,0.292969 -0.585938,0.574219 0,0.351562 0.28125,0.585937 0.574219,0.585937 0.339844,0 0.585937,-0.28125 0.585937,-0.574219 z m 5.235352,0 c 0,-0.351562 -0.292969,-0.585937 -0.574219,-0.585937 -0.351562,0 -0.585937,0.292969 -0.585937,0.574219 0,0.351562 0.28125,0.585937 0.574218,0.585937 0.339844,0 0.585938,-0.28125 0.585938,-0.574219 z M 62.74825,-31.483084 c 0,-0.351563 -0.292969,-0.585938 -0.574219,-0.585938 -0.351562,0 -0.585937,0.292969 -0.585937,0.574219 0,0.351562 0.28125,0.585937 0.574218,0.585937 0.339844,0 0.585938,-0.28125 0.585938,-0.574218 z m 5.24707,0 c 0,-0.351563 -0.292968,-0.585938 -0.574218,-0.585938 -0.351563,0 -0.585938,0.292969 -0.585938,0.574219 0,0.351562 0.28125,0.585937 0.574219,0.585937 0.339844,0 0.585937,-0.28125 0.585937,-0.574218 z m 5.235352,0 c 0,-0.351563 -0.292969,-0.585938 -0.574219,-0.585938 -0.351562,0 -0.585937,0.292969 -0.585937,0.574219 0,0.351562 0.28125,0.585937 0.574218,0.585937 0.339844,0 0.585938,-0.28125 0.585938,-0.574218 z m 0,0"
         style="fill:#000000;fill-opacity:1;fill-rule:nonzero;stroke:none" />
    </g>
    <path
       id="path126"
       d="m 85.495579,123.12117 c 0,-0.0207 -0.01654,-0.0372 -0.03307,-0.0413 -0.450617,-0.16123 -0.785482,-0.54984 -0.864029,-1.02113 -0.0041,-0.0207 -0.02894,-0.0372 -0.04961,-0.0372 h -0.07441 c -0.02479,0 -0.04548,0.0207 -0.04548,0.0537 0.06615,0.3886 0.285256,0.73587 0.603581,0.96324 h -3.191536 c -0.06201,0 -0.09095,0.0413 -0.09095,0.0827 0,0.0413 0.02894,0.0827 0.09095,0.0827 h 3.191536 c -0.318325,0.22738 -0.537435,0.57464 -0.603581,0.96325 0,0.0331 0.02066,0.0537 0.04548,0.0537 h 0.07441 c 0.02066,0 0.04547,-0.0165 0.04961,-0.0372 0.07855,-0.47129 0.413412,-0.8599 0.864029,-1.02113 0.01654,-0.004 0.03307,-0.0207 0.03307,-0.0413 z m 0,0"
       style="fill:#000000;fill-opacity:1;fill-rule:nonzero;stroke:none;stroke-width:0.352777"
       aria-label="→" />
    <path
       id="path127"
       d="m 100.87566,116.62116 h -9.749986 v 12.99999 h 9.749986"
       style="fill:none;stroke:#000000;stroke-width:0.176389;stroke-linecap:round;stroke-linejoin:round;stroke-miterlimit:10;stroke-dasharray:none;stroke-opacity:1" />
    <path
       id="path128"
       d="M 100.87566,123.12115 H 91.125674"
       style="fill:none;stroke:#000000;stroke-width:0.176389;stroke-linecap:round;stroke-linejoin:round;stroke-miterlimit:10;stroke-dasharray:none;stroke-opacity:1" />
    <path
       id="path129"
       d="m 107.37565,116.62116 h 22.74997 v 12.99999 h -22.74997"
       style="fill:none;stroke:#000000;stroke-width:0.176389;stroke-linecap:round;stroke-linejoin:round;stroke-miterlimit:10;stroke-dasharray:none;stroke-opacity:1" />
    <path
       id="path130"
       d="m 107.37565,123.12115 h 22.74997"
       style="fill:none;stroke:#000000;stroke-width:0.176389;stroke-linecap:round;stroke-linejoin:round;stroke-miterlimit:10;stroke-dasharray:none;stroke-opacity:1" />
    <path
       id="path131"
       d="M 91.125674,129.62115 V 116.62116"
       style="fill:none;stroke:#000000;stroke-width:0.176389;stroke-linecap:round;stroke-linejoin:round;stroke-miterlimit:10;stroke-dasharray:none;stroke-opacity:1" />
    <path
       id="path132"
       d="m 96.975678,126.37115 c 0,-0.68959 -0.273982,-1.35086 -0.761567,-1.83844 -0.487579,-0.48759 -1.148849,-0.76157 -1.838441,-0.76157 -0.689597,0 -1.350867,0.27398 -1.838447,0.76157 -0.487579,0.48758 -0.761563,1.14885 -0.761563,1.83844 0,0.68959 0.273984,1.35086 0.761563,1.83844 0.48758,0.48758 1.14885,0.76157 1.838447,0.76157 0.689592,0 1.350862,-0.27399 1.838441,-0.76157 0.487585,-0.48758 0.761567,-1.14885 0.761567,-1.83844 z"
       style="fill:#cccc00;fill-opacity:1;fill-rule:nonzero;stroke:#000000;stroke-width:0.176389;stroke-linecap:round;stroke-linejoin:round;stroke-miterlimit:10;stroke-dasharray:none;stroke-opacity:1" />
    <path
       id="path133"
       d="M 97.625664,129.62115 V 116.62116"
       style="fill:none;stroke:#000000;stroke-width:0.176389;stroke-linecap:round;stroke-linejoin:round;stroke-miterlimit:10;stroke-dasharray:none;stroke-opacity:1" />
    <path
       id="path134"
       d="M 110.62564,129.62115 V 116.62116"
       style="fill:none;stroke:#000000;stroke-width:0.176389;stroke-linecap:round;stroke-linejoin:round;stroke-miterlimit:10;stroke-dasharray:none;stroke-opacity:1" />
    <path
       id="path135"
       d="m 116.47565,126.37115 c 0,-0.68959 -0.27398,-1.35086 -0.76157,-1.83844 -0.48758,-0.48759 -1.14884,-0.76157 -1.83844,-0.76157 -0.6896,0 -1.35087,0.27398 -1.83845,0.76157 -0.48757,0.48758 -0.76156,1.14885 -0.76156,1.83844 0,0.68959 0.27399,1.35086 0.76156,1.83844 0.48758,0.48758 1.14885,0.76157 1.83845,0.76157 0.6896,0 1.35086,-0.27399 1.83844,-0.76157 0.48759,-0.48758 0.76157,-1.14885 0.76157,-1.83844 z"
       style="fill:#cccc00;fill-opacity:1;fill-rule:nonzero;stroke:#000000;stroke-width:0.176389;stroke-linecap:round;stroke-linejoin:round;stroke-miterlimit:10;stroke-dasharray:none;stroke-opacity:1" />
    <path
       id="path136"
       d="M 117.12563,129.62115 V 116.62116"
       style="fill:none;stroke:#000000;stroke-width:0.176389;stroke-linecap:round;stroke-linejoin:round;stroke-miterlimit:10;stroke-dasharray:none;stroke-opacity:1" />
    <path
       id="path137"
       d="m 122.97564,126.37115 c 0,-0.68959 -0.27398,-1.35086 -0.76157,-1.83844 -0.48757,-0.48759 -1.14884,-0.76157 -1.83844,-0.76157 -0.6896,0 -1.35086,0.27398 -1.83844,0.76157 -0.48759,0.48758 -0.76157,1.14885 -0.76157,1.83844 0,0.68959 0.27398,1.35086 0.76157,1.83844 0.48758,0.48758 1.14884,0.76157 1.83844,0.76157 0.6896,0 1.35087,-0.27399 1.83844,-0.76157 0.48759,-0.48758 0.76157,-1.14885 0.76157,-1.83844 z"
       style="fill:#cccc00;fill-opacity:1;fill-rule:nonzero;stroke:#000000;stroke-width:0.176389;stroke-linecap:round;stroke-linejoin:round;stroke-miterlimit:10;stroke-dasharray:none;stroke-opacity:1" />
    <path
       id="path138"
       d="M 123.62562,129.62115 V 116.62116"
       style="fill:none;stroke:#000000;stroke-width:0.176389;stroke-linecap:round;stroke-linejoin:round;stroke-miterlimit:10;stroke-dasharray:none;stroke-opacity:1" />
    <path
       id="path139"
       d="m 129.47563,126.37115 c 0,-0.68959 -0.27398,-1.35086 -0.76157,-1.83844 -0.48757,-0.48759 -1.14884,-0.76157 -1.83844,-0.76157 -0.68959,0 -1.35086,0.27398 -1.83844,0.76157 -0.48759,0.48758 -0.76157,1.14885 -0.76157,1.83844 0,0.68959 0.27398,1.35086 0.76157,1.83844 0.48758,0.48758 1.14885,0.76157 1.83844,0.76157 0.6896,0 1.35087,-0.27399 1.83844,-0.76157 0.48759,-0.48758 0.76157,-1.14885 0.76157,-1.83844 z"
       style="fill:#cccc00;fill-opacity:1;fill-rule:nonzero;stroke:#000000;stroke-width:0.176389;stroke-linecap:round;stroke-linejoin:round;stroke-miterlimit:10;stroke-dasharray:none;stroke-opacity:1" />
    <path
       id="path140"
       d="M 130.12562,129.62115 V 116.62116"
       style="fill:none;stroke:#000000;stroke-width:0.176389;stroke-linecap:round;stroke-linejoin:round;stroke-miterlimit:10;stroke-dasharray:none;stroke-opacity:1" />
    <g
       id="g140"
       aria-label="1232n&#10;...&#10;...&#10;..."
       transform="matrix(0.35277776,0,0,0.35277776,125.84324,127.7299)">
      <path
         id="path141"
         d="m 1.1374687,-6.625e-4 c 0.6328125,0 1.265625,-0.0234375 1.8984375,-0.0234375 0.6210938,0 1.2539063,0.0234375 1.8867188,0.0234375 V -0.3991 c -0.3398438,0 -1.453125,0 -1.453125,-0.375 v -7.078125 c 0,-0.046875 -0.046875,-0.09375 -0.09375,-0.09375 H 3.2116875 c -0.5625,0.5859375 -1.359375,0.7617187 -2.1445313,0.7617187 v 0.3984375 c 0.5390625,0 1.078125,-0.09375 1.5234375,-0.3164062 V -0.7741 c 0,0.375 -1.1132812,0.375 -1.453125,0.375 z m -18.9785157,0 h 4.359375 l 0.316406,-2.0507813 h -0.316406 c -0.05859,0.375 -0.140625,0.9375 -0.28125,1.0898438 -0.05859,0.0585938 -1.277344,0.0585938 -1.992187,0.0585938 h -1.21875 l 1.382812,-1.3476563 c 0.960938,-0.9375 2.425781,-1.8749999 2.425781,-3.3749999 0,-1.4296875 -1.148437,-2.3203125 -2.496093,-2.3203125 -1.21875,0 -2.179688,1.0195312 -2.179688,2.2265625 0,0.328125 0.246094,0.5859375 0.585938,0.5859375 0.339843,0 0.585937,-0.2578125 0.585937,-0.5859375 0,-0.328125 -0.246094,-0.5859375 -0.585937,-0.5859375 -0.04687,0 -0.08203,0 -0.128907,0.011719 0.1875,-0.6914062 0.785157,-1.265625 1.535157,-1.265625 1.078125,0 1.640625,0.9492188 1.640625,1.9335938 0,1.3007812 -0.996094,2.3203124 -1.804688,3.2343749 l -1.792969,2.01562505 c -0.01172,0.0117188 -0.03516,0.0351563 -0.03516,0.046875 z m -18.005859,-1.0898438 c 0.03516,0.011719 0.07031,0.011719 0.105468,0.011719 0.339844,0 0.609375,-0.2695313 0.609375,-0.6210938 0,-0.3398437 -0.269531,-0.609375 -0.609375,-0.609375 -0.363281,0 -0.621093,0.2695313 -0.621093,0.609375 0,1.2539063 1.265625,1.94531255 2.390625,1.94531255 1.289062,0 2.472656,-0.97265625 2.472656,-2.30859375 0,-1.125 -0.996094,-1.9570313 -2.039063,-2.109375 0.9375,-0.28125 1.710938,-1.1132813 1.710938,-2.1445313 0,-1.078125 -1.21875,-1.6289062 -2.144531,-1.6289062 -0.949219,0 -2.074219,0.5390625 -2.074219,1.59375 0,0.328125 0.257812,0.5742187 0.574219,0.5742187 0.328125,0 0.5625,-0.2460937 0.5625,-0.5742187 0,-0.3046875 -0.234375,-0.5625 -0.5625,-0.5625 -0.03516,0 -0.07031,0 -0.09375,0.011719 0.328125,-0.5039062 1.007812,-0.7148437 1.582031,-0.7148437 0.773437,0 1.113281,0.609375 1.113281,1.3007812 0,0.75 -0.363281,1.96875 -1.265625,1.96875 l -0.691406,0.046875 c -0.03516,0 -0.08203,0.035156 -0.08203,0.070312 v 0.1289063 c 0,0.046875 0.04687,0.082031 0.08203,0.082031 h 0.84375 c 1.019531,0 1.324219,1.1132813 1.324219,1.9570313 0,0.8320312 -0.28125,1.9453125 -1.324219,1.9453125 -0.703125,0 -1.523438,-0.3046875 -1.863281,-0.9726561 z m -59.188477,1.0898438 h 4.359375 l 0.316406,-2.0507813 h -0.316406 c -0.05859,0.375 -0.140625,0.9375 -0.28125,1.0898438 -0.05859,0.0585938 -1.277344,0.0585938 -1.992187,0.0585938 h -1.21875 l 1.382812,-1.3476563 c 0.960938,-0.9375 2.425781,-1.8749999 2.425781,-3.3749999 0,-1.4296875 -1.148437,-2.3203125 -2.496093,-2.3203125 -1.21875,0 -2.179688,1.0195312 -2.179688,2.2265625 0,0.328125 0.246094,0.5859375 0.585938,0.5859375 0.339843,0 0.585937,-0.2578125 0.585937,-0.5859375 0,-0.328125 -0.246094,-0.5859375 -0.585937,-0.5859375 -0.04687,0 -0.08203,0 -0.128907,0.011719 0.1875,-0.6914062 0.785157,-1.265625 1.535157,-1.265625 1.078125,0 1.640625,0.9492188 1.640625,1.9335938 0,1.3007812 -0.996094,2.3203124 -1.804688,3.2343749 l -1.792969,2.01562505 c -0.01172,0.0117188 -0.03516,0.0351563 -0.03516,0.046875 z m 0,0"
         style="fill:#000000;fill-opacity:1;fill-rule:nonzero;stroke:none" />
      <path
         id="path142"
         d="m -87.303938,-3.5045688 c 0.02344,-0.070312 0.328125,-0.6679687 0.761719,-1.0546875 0.316406,-0.28125 0.726563,-0.46875 1.183594,-0.46875 0.480469,0 0.644531,0.3515625 0.644531,0.8320313 0,0.6796875 -0.480469,2.0390625 -0.726562,2.6835937 -0.105469,0.2929688 -0.164063,0.4453125 -0.164063,0.6679688 0,0.52734375 0.375,0.9609375 0.949219,0.9609375 1.101562,0 1.523437,-1.7578125 1.523437,-1.828125 0,-0.058594 -0.04687,-0.1054688 -0.117187,-0.1054688 -0.105469,0 -0.117188,0.035156 -0.175781,0.234375 -0.28125,0.98437505 -0.738282,1.4648438 -1.195313,1.4648438 -0.128906,0 -0.316406,-0.0117188 -0.316406,-0.3984375 0,-0.29296875 0.128906,-0.65625 0.199219,-0.8203125 0.246093,-0.65625 0.75,-2.0039063 0.75,-2.6835938 0,-0.7148437 -0.421875,-1.2539062 -1.335938,-1.2539062 -1.054687,0 -1.617187,0.75 -1.839844,1.0546875 C -87.198469,-4.8991 -87.690656,-5.2741 -88.206281,-5.2741 c -0.386719,0 -0.644532,0.234375 -0.855469,0.6328125 -0.210938,0.4335937 -0.375,1.1484375 -0.375,1.1953125 0,0.046875 0.04687,0.1054687 0.128906,0.1054687 0.09375,0 0.105469,-0.011719 0.175781,-0.28125 0.1875,-0.7265625 0.410157,-1.40625 0.890625,-1.40625 0.269532,0 0.363282,0.1875 0.363282,0.5390625 0,0.2695313 -0.117188,0.7382813 -0.199219,1.1015625 l -0.339844,1.2890625 c -0.04687,0.234375 -0.175781,0.7734375 -0.234375,0.984375 -0.08203,0.3164063 -0.210937,0.8789063 -0.210937,0.93750005 0,0.1640625 0.128906,0.29296875 0.304687,0.29296875 0.140625,0 0.316406,-0.0703125 0.410156,-0.24609375 0.02344,-0.0585938 0.128907,-0.48046875 0.1875,-0.71484375 l 0.257813,-1.078125 z m 21.076172,8.8710938 c 0,-0.3515625 -0.292968,-0.5859375 -0.574218,-0.5859375 -0.351563,0 -0.585938,0.2929687 -0.585938,0.5742187 0,0.3515625 0.28125,0.5859375 0.574219,0.5859375 0.339844,0 0.585937,-0.28125 0.585937,-0.5742187 z m 5.247071,0 c 0,-0.3515625 -0.292969,-0.5859375 -0.574219,-0.5859375 -0.351563,0 -0.585938,0.2929687 -0.585938,0.5742187 0,0.3515625 0.28125,0.5859375 0.574219,0.5859375 0.339844,0 0.585938,-0.28125 0.585938,-0.5742187 z m 5.238281,0 c 0,-0.3515625 -0.292969,-0.5859375 -0.574219,-0.5859375 -0.351562,0 -0.585937,0.2929687 -0.585937,0.5742187 0,0.3515625 0.28125,0.5859375 0.574218,0.5859375 0.339844,0 0.585938,-0.28125 0.585938,-0.5742187 z M -66.227766,-13.05828 c 0,-0.351562 -0.292968,-0.585937 -0.574218,-0.585937 -0.351563,0 -0.585938,0.292969 -0.585938,0.574219 0,0.351562 0.28125,0.585937 0.574219,0.585937 0.339844,0 0.585937,-0.28125 0.585937,-0.574219 z m 5.247071,0 c 0,-0.351562 -0.292969,-0.585937 -0.574219,-0.585937 -0.351563,0 -0.585938,0.292969 -0.585938,0.574219 0,0.351562 0.28125,0.585937 0.574219,0.585937 0.339844,0 0.585938,-0.28125 0.585938,-0.574219 z m 5.238281,0 c 0,-0.351562 -0.292969,-0.585937 -0.574219,-0.585937 -0.351562,0 -0.585937,0.292969 -0.585937,0.574219 0,0.351562 0.28125,0.585937 0.574218,0.585937 0.339844,0 0.585938,-0.28125 0.585938,-0.574219 z m -10.485352,-18.424804 c 0,-0.351563 -0.292968,-0.585938 -0.574218,-0.585938 -0.351563,0 -0.585938,0.292969 -0.585938,0.574219 0,0.351562 0.28125,0.585937 0.574219,0.585937 0.339844,0 0.585937,-0.28125 0.585937,-0.574218 z m 5.247071,0 c 0,-0.351563 -0.292969,-0.585938 -0.574219,-0.585938 -0.351563,0 -0.585938,0.292969 -0.585938,0.574219 0,0.351562 0.28125,0.585937 0.574219,0.585937 0.339844,0 0.585938,-0.28125 0.585938,-0.574218 z m 5.238281,0 c 0,-0.351563 -0.292969,-0.585938 -0.574219,-0.585938 -0.351562,0 -0.585937,0.292969 -0.585937,0.574219 0,0.351562 0.28125,0.585937 0.574218,0.585937 0.339844,0 0.585938,-0.28125 0.585938,-0.574218 z m 0,0"
         style="fill:#000000;fill-opacity:1;fill-rule:nonzero;stroke:none" />
    </g>
  </g>
</svg>
