<?xml version="1.0" encoding="UTF-8" standalone="no"?>
<svg
   width="145.2pt"
   height="97.2pt"
   viewBox="0 0 145.2 97.2"
   version="1.1"
   id="svg16"
   xmlns="http://www.w3.org/2000/svg"
   xmlns:svg="http://www.w3.org/2000/svg">
  <defs
     id="defs1">
    <clipPath
       id="clip-0">
      <path
         clip-rule="nonzero"
         d="M 0 0 L 145.199219 0 L 145.199219 97.199219 L 0 97.199219 Z M 0 0 "
         id="path1" />
    </clipPath>
  </defs>
  <path
     fill="none"
     stroke-width="0.4"
     stroke-linecap="butt"
     stroke-linejoin="round"
     stroke="rgb(0%, 0%, 0%)"
     stroke-opacity="1"
     stroke-miterlimit="10"
     d="M 191.501563 707.998438 L 191.501563 675.998438 L 192.501563 675.998438 L 192.501563 707.998438 Z M 191.501563 707.998438 "
     transform="matrix(1, 0, 0, -1, -143.4, 720.6)"
     id="path2" />
  <path
     fill-rule="evenodd"
     fill="rgb(0%, 0%, 0%)"
     fill-opacity="1"
     stroke-width="1.2"
     stroke-linecap="butt"
     stroke-linejoin="round"
     stroke="rgb(0%, 0%, 0%)"
     stroke-opacity="1"
     stroke-miterlimit="10"
     d="M 191.501563 715.998438 L 191.501563 707.998438 L 192.501563 707.998438 L 192.501563 715.998438 Z M 191.501563 715.998438 "
     transform="matrix(1, 0, 0, -1, -143.4, 720.6)"
     id="path3" />
  <path
     fill="none"
     stroke-width="0.4"
     stroke-linecap="butt"
     stroke-linejoin="round"
     stroke="rgb(0%, 0%, 0%)"
     stroke-opacity="1"
     stroke-miterlimit="10"
     d="M 239.501563 707.998438 L 239.501563 675.998438 L 240.501563 675.998438 L 240.501563 707.998438 Z M 239.501563 707.998438 "
     transform="matrix(1, 0, 0, -1, -143.4, 720.6)"
     id="path4" />
  <path
     fill-rule="evenodd"
     fill="rgb(0%, 0%, 0%)"
     fill-opacity="1"
     stroke-width="1.2"
     stroke-linecap="butt"
     stroke-linejoin="round"
     stroke="rgb(0%, 0%, 0%)"
     stroke-opacity="1"
     stroke-miterlimit="10"
     d="M 239.501563 715.998438 L 239.501563 707.998438 L 240.501563 707.998438 L 240.501563 715.998438 Z M 239.501563 715.998438 "
     transform="matrix(1, 0, 0, -1, -143.4, 720.6)"
     id="path5" />
  <path
     fill="none"
     stroke-width="0.4"
     stroke-linecap="butt"
     stroke-linejoin="round"
     stroke="rgb(0%, 0%, 0%)"
     stroke-opacity="1"
     stroke-miterlimit="10"
     d="M 191.501563 659.998438 L 191.501563 627.998438 L 192.501563 627.998438 L 192.501563 659.998438 Z M 191.501563 659.998438 "
     transform="matrix(1, 0, 0, -1, -143.4, 720.6)"
     id="path6" />
  <path
     fill-rule="evenodd"
     fill="rgb(0%, 0%, 0%)"
     fill-opacity="1"
     stroke-width="1.2"
     stroke-linecap="butt"
     stroke-linejoin="round"
     stroke="rgb(0%, 0%, 0%)"
     stroke-opacity="1"
     stroke-miterlimit="10"
     d="M 191.501563 667.998438 L 191.501563 659.998438 L 192.501563 659.998438 L 192.501563 667.998438 Z M 191.501563 667.998438 "
     transform="matrix(1, 0, 0, -1, -143.4, 720.6)"
     id="path7" />
  <path
     fill="none"
     stroke-width="0.4"
     stroke-linecap="butt"
     stroke-linejoin="round"
     stroke="rgb(0%, 0%, 0%)"
     stroke-opacity="1"
     stroke-miterlimit="10"
     d="M 239.501563 659.998438 L 239.501563 627.998438 L 240.501563 627.998438 L 240.501563 659.998438 Z M 239.501563 659.998438 "
     transform="matrix(1, 0, 0, -1, -143.4, 720.6)"
     id="path8" />
  <path
     fill-rule="evenodd"
     fill="rgb(0%, 0%, 0%)"
     fill-opacity="1"
     stroke-width="1.2"
     stroke-linecap="butt"
     stroke-linejoin="round"
     stroke="rgb(0%, 0%, 0%)"
     stroke-opacity="1"
     stroke-miterlimit="10"
     d="M 239.501563 667.998438 L 239.501563 659.998438 L 240.501563 659.998438 L 240.501563 667.998438 Z M 239.501563 667.998438 "
     transform="matrix(1, 0, 0, -1, -143.4, 720.6)"
     id="path9" />
  <path
     fill="none"
     stroke-width="0.4"
     stroke-linecap="butt"
     stroke-linejoin="round"
     stroke="rgb(0%, 0%, 0%)"
     stroke-opacity="1"
     stroke-miterlimit="10"
     d="M 204.001563 671.498438 L 236.001563 671.498438 L 236.001563 672.498438 L 204.001563 672.498438 Z M 204.001563 671.498438 "
     transform="matrix(1, 0, 0, -1, -143.4, 720.6)"
     id="path10" />
  <path
     fill-rule="evenodd"
     fill="rgb(0%, 0%, 0%)"
     fill-opacity="1"
     stroke-width="1.2"
     stroke-linecap="butt"
     stroke-linejoin="round"
     stroke="rgb(0%, 0%, 0%)"
     stroke-opacity="1"
     stroke-miterlimit="10"
     d="M 196.001563 671.498438 L 204.001563 671.498438 L 204.001563 672.498438 L 196.001563 672.498438 Z M 196.001563 671.498438 "
     transform="matrix(1, 0, 0, -1, -143.4, 720.6)"
     id="path11" />
  <path
     fill="none"
     stroke-width="0.4"
     stroke-linecap="butt"
     stroke-linejoin="round"
     stroke="rgb(0%, 0%, 0%)"
     stroke-opacity="1"
     stroke-miterlimit="10"
     d="M 252.001563 671.498438 L 284.001562 671.498438 L 284.001562 672.498438 L 252.001563 672.498438 Z M 252.001563 671.498438 "
     transform="matrix(1, 0, 0, -1, -143.4, 720.6)"
     id="path12" />
  <path
     fill-rule="evenodd"
     fill="rgb(0%, 0%, 0%)"
     fill-opacity="1"
     stroke-width="1.2"
     stroke-linecap="butt"
     stroke-linejoin="round"
     stroke="rgb(0%, 0%, 0%)"
     stroke-opacity="1"
     stroke-miterlimit="10"
     d="M 244.001563 671.498438 L 252.001563 671.498438 L 252.001563 672.498438 L 244.001563 672.498438 Z M 244.001563 671.498438 "
     transform="matrix(1, 0, 0, -1, -143.4, 720.6)"
     id="path13" />
  <path
     fill="none"
     stroke-width="0.4"
     stroke-linecap="butt"
     stroke-linejoin="round"
     stroke="rgb(0%, 0%, 0%)"
     stroke-opacity="1"
     stroke-miterlimit="10"
     d="M 156.001563 671.498438 L 188.001563 671.498438 L 188.001563 672.498438 L 156.001563 672.498438 Z M 156.001563 671.498438 "
     transform="matrix(1, 0, 0, -1, -143.4, 720.6)"
     id="path14" />
  <path
     fill-rule="evenodd"
     fill="rgb(0%, 0%, 0%)"
     fill-opacity="1"
     stroke-width="1.2"
     stroke-linecap="butt"
     stroke-linejoin="round"
     stroke="rgb(0%, 0%, 0%)"
     stroke-opacity="1"
     stroke-miterlimit="10"
     d="M 148.001563 671.498438 L 156.001563 671.498438 L 156.001563 672.498438 L 148.001563 672.498438 Z M 148.001563 671.498438 "
     transform="matrix(1, 0, 0, -1, -143.4, 720.6)"
     id="path15" />
  <g
     clip-path="url(#clip-0)"
     id="g16">
    <path
       fill="none"
       stroke-width="1.2"
       stroke-linecap="butt"
       stroke-linejoin="round"
       stroke="rgb(0%, 0%, 0%)"
       stroke-opacity="1"
       stroke-miterlimit="10"
       d="M 144.001563 719.998438 L 144.001563 623.998438 L 288.001562 623.998438 L 288.001562 719.998438 Z M 144.001563 719.998438 "
       transform="matrix(1, 0, 0, -1, -143.4, 720.6)"
       id="path16" />
  </g>
</svg>
