<?xml version="1.0" encoding="UTF-8" standalone="no"?>
<svg
   width="99.49602pt"
   height="72.83042pt"
   viewBox="0 0 99.49602 72.83042"
   version="1.1"
   id="svg74"
   xmlns="http://www.w3.org/2000/svg"
   xmlns:svg="http://www.w3.org/2000/svg">
  <defs
     id="defs4">
    <clipPath
       id="clip-0">
      <path
         clip-rule="nonzero"
         d="M 0 67 L 6 67 L 6 72.832031 L 0 72.832031 Z M 0 67 "
         id="path1" />
    </clipPath>
    <clipPath
       id="clip-1">
      <path
         clip-rule="nonzero"
         d="M 27 67 L 33 67 L 33 72.832031 L 27 72.832031 Z M 27 67 "
         id="path2" />
    </clipPath>
    <clipPath
       id="clip-2">
      <path
         clip-rule="nonzero"
         d="M 53 67 L 59 67 L 59 72.832031 L 53 72.832031 Z M 53 67 "
         id="path3" />
    </clipPath>
    <clipPath
       id="clip-3">
      <path
         clip-rule="nonzero"
         d="M 80 67 L 86 67 L 86 72.832031 L 80 72.832031 Z M 80 67 "
         id="path4" />
    </clipPath>
  </defs>
  <g
     clip-path="url(#clip-0)"
     id="g5">
    <path
       fill-rule="evenodd"
       fill="rgb(0%, 0%, 0%)"
       fill-opacity="1"
       d="M 5.582031 69.746094 C 5.582031 68.367188 4.464844 67.246094 3.082031 67.246094 C 1.703125 67.246094 0.582031 68.367188 0.582031 69.746094 C 0.582031 71.128906 1.703125 72.246094 3.082031 72.246094 C 4.464844 72.246094 5.582031 71.128906 5.582031 69.746094 "
       id="path5" />
  </g>
  <g
     clip-path="url(#clip-1)"
     id="g6">
    <path
       fill-rule="evenodd"
       fill="rgb(0%, 0%, 0%)"
       fill-opacity="1"
       d="M 32.25 69.746094 C 32.25 68.367188 31.128906 67.246094 29.75 67.246094 C 28.367188 67.246094 27.25 68.367188 27.25 69.746094 C 27.25 71.128906 28.367188 72.246094 29.75 72.246094 C 31.128906 72.246094 32.25 71.128906 32.25 69.746094 "
       id="path6" />
  </g>
  <g
     clip-path="url(#clip-2)"
     id="g7">
    <path
       fill-rule="evenodd"
       fill="rgb(0%, 0%, 0%)"
       fill-opacity="1"
       d="M 58.914062 69.746094 C 58.914062 68.367188 57.796875 67.246094 56.414062 67.246094 C 55.035156 67.246094 53.914062 68.367188 53.914062 69.746094 C 53.914062 71.128906 55.035156 72.246094 56.414062 72.246094 C 57.796875 72.246094 58.914062 71.128906 58.914062 69.746094 "
       id="path7" />
  </g>
  <g
     clip-path="url(#clip-3)"
     id="g8">
    <path
       fill-rule="evenodd"
       fill="rgb(0%, 0%, 0%)"
       fill-opacity="1"
       d="M 85.578125 69.746094 C 85.578125 68.367188 84.460938 67.246094 83.078125 67.246094 C 81.699219 67.246094 80.582031 68.367188 80.582031 69.746094 C 80.582031 71.128906 81.699219 72.246094 83.078125 72.246094 C 84.460938 72.246094 85.578125 71.128906 85.578125 69.746094 "
       id="path8" />
  </g>
  <path
     fill-rule="evenodd"
     fill="rgb(0%, 0%, 0%)"
     fill-opacity="1"
     d="M 5.582031 43.082031 C 5.582031 41.699219 4.464844 40.582031 3.082031 40.582031 C 1.703125 40.582031 0.582031 41.699219 0.582031 43.082031 C 0.582031 44.460938 1.703125 45.582031 3.082031 45.582031 C 4.464844 45.582031 5.582031 44.460938 5.582031 43.082031 "
     id="path9" />
  <path
     fill-rule="evenodd"
     fill="rgb(0%, 0%, 0%)"
     fill-opacity="1"
     d="M 5.582031 16.414062 C 5.582031 15.035156 4.464844 13.917969 3.082031 13.917969 C 1.703125 13.917969 0.582031 15.035156 0.582031 16.414062 C 0.582031 17.796875 1.703125 18.914062 3.082031 18.914062 C 4.464844 18.914062 5.582031 17.796875 5.582031 16.414062 "
     id="path10" />
  <path
     fill-rule="evenodd"
     fill="rgb(0%, 0%, 0%)"
     fill-opacity="1"
     d="M 32.25 16.414062 C 32.25 15.035156 31.128906 13.917969 29.75 13.917969 C 28.367188 13.917969 27.25 15.035156 27.25 16.414062 C 27.25 17.796875 28.367188 18.914062 29.75 18.914062 C 31.128906 18.914062 32.25 17.796875 32.25 16.414062 "
     id="path11" />
  <path
     fill-rule="evenodd"
     fill="rgb(0%, 0%, 0%)"
     fill-opacity="1"
     d="M 58.914062 16.414062 C 58.914062 15.035156 57.796875 13.917969 56.414062 13.917969 C 55.035156 13.917969 53.914062 15.035156 53.914062 16.414062 C 53.914062 17.796875 55.035156 18.914062 56.414062 18.914062 C 57.796875 18.914062 58.914062 17.796875 58.914062 16.414062 "
     id="path12" />
  <path
     fill-rule="evenodd"
     fill="rgb(0%, 0%, 0%)"
     fill-opacity="1"
     d="M 85.578125 16.414062 C 85.578125 15.035156 84.460938 13.917969 83.078125 13.917969 C 81.699219 13.917969 80.582031 15.035156 80.582031 16.414062 C 80.582031 17.796875 81.699219 18.914062 83.078125 18.914062 C 84.460938 18.914062 85.578125 17.796875 85.578125 16.414062 "
     id="path13" />
  <path
     fill-rule="evenodd"
     fill="rgb(0%, 0%, 0%)"
     fill-opacity="1"
     d="M 85.578125 43.082031 C 85.578125 41.699219 84.460938 40.582031 83.078125 40.582031 C 81.699219 40.582031 80.582031 41.699219 80.582031 43.082031 C 80.582031 44.460938 81.699219 45.582031 83.078125 45.582031 C 84.460938 45.582031 85.578125 44.460938 85.578125 43.082031 "
     id="path14" />
  <path
     fill-rule="evenodd"
     fill="rgb(0%, 0%, 0%)"
     fill-opacity="1"
     d="M 58.914062 43.082031 C 58.914062 41.699219 57.796875 40.582031 56.414062 40.582031 C 55.035156 40.582031 53.914062 41.699219 53.914062 43.082031 C 53.914062 44.460938 55.035156 45.582031 56.414062 45.582031 C 57.796875 45.582031 58.914062 44.460938 58.914062 43.082031 "
     id="path15" />
  <path
     fill-rule="evenodd"
     fill="rgb(0%, 0%, 0%)"
     fill-opacity="1"
     d="M 32.25 43.082031 C 32.25 41.699219 31.128906 40.582031 29.75 40.582031 C 28.367188 40.582031 27.25 41.699219 27.25 43.082031 C 27.25 44.460938 28.367188 45.582031 29.75 45.582031 C 31.128906 45.582031 32.25 44.460938 32.25 43.082031 "
     id="path16" />
  <path
     fill="none"
     stroke-width="0.4"
     stroke-linecap="butt"
     stroke-linejoin="round"
     stroke="rgb(0%, 0%, 0%)"
     stroke-opacity="1"
     stroke-miterlimit="10"
     d="M 133.759753 768.002337 L 154.24026 768.002337 "
     transform="matrix(0.8333, 0, 0, -0.8333, -103.57919, 656.39041)"
     id="path17" />
  <path
     fill="none"
     stroke-width="0.4"
     stroke-linecap="butt"
     stroke-linejoin="round"
     stroke="rgb(0%, 0%, 0%)"
     stroke-opacity="1"
     stroke-miterlimit="10"
     d="M 165.757908 768.002337 L 186.238415 768.002337 "
     transform="matrix(0.8333, 0, 0, -0.8333, -103.57919, 656.39041)"
     id="path18" />
  <path
     fill="none"
     stroke-width="0.4"
     stroke-linecap="butt"
     stroke-linejoin="round"
     stroke="rgb(0%, 0%, 0%)"
     stroke-opacity="1"
     stroke-miterlimit="10"
     d="M 197.760751 768.002337 L 218.241258 768.002337 "
     transform="matrix(0.8333, 0, 0, -0.8333, -103.57919, 656.39041)"
     id="path19" />
  <path
     fill="none"
     stroke-width="0.4"
     stroke-linecap="butt"
     stroke-linejoin="round"
     stroke="rgb(0%, 0%, 0%)"
     stroke-opacity="1"
     stroke-miterlimit="10"
     d="M 133.759753 735.999494 L 154.24026 735.999494 "
     transform="matrix(0.8333, 0, 0, -0.8333, -103.57919, 656.39041)"
     id="path20" />
  <path
     fill="none"
     stroke-width="0.4"
     stroke-linecap="butt"
     stroke-linejoin="round"
     stroke="rgb(0%, 0%, 0%)"
     stroke-opacity="1"
     stroke-miterlimit="10"
     d="M 165.757908 735.999494 L 186.238415 735.999494 "
     transform="matrix(0.8333, 0, 0, -0.8333, -103.57919, 656.39041)"
     id="path21" />
  <path
     fill="none"
     stroke-width="0.4"
     stroke-linecap="butt"
     stroke-linejoin="round"
     stroke="rgb(0%, 0%, 0%)"
     stroke-opacity="1"
     stroke-miterlimit="10"
     d="M 197.760751 735.999494 L 218.241258 735.999494 "
     transform="matrix(0.8333, 0, 0, -0.8333, -103.57919, 656.39041)"
     id="path22" />
  <path
     fill="none"
     stroke-width="0.4"
     stroke-linecap="butt"
     stroke-linejoin="round"
     stroke="rgb(0%, 0%, 0%)"
     stroke-opacity="1"
     stroke-miterlimit="10"
     d="M 133.759753 704.00134 L 154.24026 704.00134 "
     transform="matrix(0.8333, 0, 0, -0.8333, -103.57919, 656.39041)"
     id="path23" />
  <path
     fill="none"
     stroke-width="0.4"
     stroke-linecap="butt"
     stroke-linejoin="round"
     stroke="rgb(0%, 0%, 0%)"
     stroke-opacity="1"
     stroke-miterlimit="10"
     d="M 165.757908 704.00134 L 186.238415 704.00134 "
     transform="matrix(0.8333, 0, 0, -0.8333, -103.57919, 656.39041)"
     id="path24" />
  <path
     fill="none"
     stroke-width="0.4"
     stroke-linecap="butt"
     stroke-linejoin="round"
     stroke="rgb(0%, 0%, 0%)"
     stroke-opacity="1"
     stroke-miterlimit="10"
     d="M 197.760751 704.00134 L 218.241258 704.00134 "
     transform="matrix(0.8333, 0, 0, -0.8333, -103.57919, 656.39041)"
     id="path25" />
  <path
     fill="none"
     stroke-width="0.4"
     stroke-linecap="butt"
     stroke-linejoin="round"
     stroke="rgb(0%, 0%, 0%)"
     stroke-opacity="1"
     stroke-miterlimit="10"
     d="M 223.997738 709.75782 L 223.997738 730.238327 "
     transform="matrix(0.8333, 0, 0, -0.8333, -103.57919, 656.39041)"
     id="path26" />
  <path
     fill="none"
     stroke-width="0.4"
     stroke-linecap="butt"
     stroke-linejoin="round"
     stroke="rgb(0%, 0%, 0%)"
     stroke-opacity="1"
     stroke-miterlimit="10"
     d="M 223.997738 741.760662 L 223.997738 762.241169 "
     transform="matrix(0.8333, 0, 0, -0.8333, -103.57919, 656.39041)"
     id="path27" />
  <path
     fill="none"
     stroke-width="0.4"
     stroke-linecap="butt"
     stroke-linejoin="round"
     stroke="rgb(0%, 0%, 0%)"
     stroke-opacity="1"
     stroke-miterlimit="10"
     d="M 191.999583 709.75782 L 191.999583 730.238327 "
     transform="matrix(0.8333, 0, 0, -0.8333, -103.57919, 656.39041)"
     id="path28" />
  <path
     fill="none"
     stroke-width="0.4"
     stroke-linecap="butt"
     stroke-linejoin="round"
     stroke="rgb(0%, 0%, 0%)"
     stroke-opacity="1"
     stroke-miterlimit="10"
     d="M 191.999583 741.760662 L 191.999583 762.241169 "
     transform="matrix(0.8333, 0, 0, -0.8333, -103.57919, 656.39041)"
     id="path29" />
  <path
     fill="none"
     stroke-width="0.4"
     stroke-linecap="butt"
     stroke-linejoin="round"
     stroke="rgb(0%, 0%, 0%)"
     stroke-opacity="1"
     stroke-miterlimit="10"
     d="M 160.001428 709.75782 L 160.001428 730.238327 "
     transform="matrix(0.8333, 0, 0, -0.8333, -103.57919, 656.39041)"
     id="path30" />
  <path
     fill="none"
     stroke-width="0.4"
     stroke-linecap="butt"
     stroke-linejoin="round"
     stroke="rgb(0%, 0%, 0%)"
     stroke-opacity="1"
     stroke-miterlimit="10"
     d="M 160.001428 741.760662 L 160.001428 762.241169 "
     transform="matrix(0.8333, 0, 0, -0.8333, -103.57919, 656.39041)"
     id="path31" />
  <path
     fill="none"
     stroke-width="0.4"
     stroke-linecap="butt"
     stroke-linejoin="round"
     stroke="rgb(0%, 0%, 0%)"
     stroke-opacity="1"
     stroke-miterlimit="10"
     d="M 127.998585 709.75782 L 127.998585 730.238327 "
     transform="matrix(0.8333, 0, 0, -0.8333, -103.57919, 656.39041)"
     id="path32" />
  <path
     fill="none"
     stroke-width="0.4"
     stroke-linecap="butt"
     stroke-linejoin="round"
     stroke="rgb(0%, 0%, 0%)"
     stroke-opacity="1"
     stroke-miterlimit="10"
     d="M 127.998585 741.760662 L 127.998585 762.241169 "
     transform="matrix(0.8333, 0, 0, -0.8333, -103.57919, 656.39041)"
     id="path33" />
  <path
     fill-rule="evenodd"
     fill="rgb(0%, 0%, 0%)"
     fill-opacity="1"
     d="M 18.914062 56.414062 C 18.914062 55.035156 17.796875 53.914062 16.414062 53.914062 C 15.035156 53.914062 13.917969 55.035156 13.917969 56.414062 C 13.917969 57.796875 15.035156 58.914062 16.414062 58.914062 C 17.796875 58.914062 18.914062 57.796875 18.914062 56.414062 "
     id="path34" />
  <path
     fill-rule="evenodd"
     fill="rgb(0%, 0%, 0%)"
     fill-opacity="1"
     d="M 45.582031 56.414062 C 45.582031 55.035156 44.460938 53.914062 43.082031 53.914062 C 41.699219 53.914062 40.582031 55.035156 40.582031 56.414062 C 40.582031 57.796875 41.699219 58.914062 43.082031 58.914062 C 44.460938 58.914062 45.582031 57.796875 45.582031 56.414062 "
     id="path35" />
  <path
     fill-rule="evenodd"
     fill="rgb(0%, 0%, 0%)"
     fill-opacity="1"
     d="M 72.246094 56.414062 C 72.246094 55.035156 71.128906 53.914062 69.746094 53.914062 C 68.367188 53.914062 67.246094 55.035156 67.246094 56.414062 C 67.246094 57.796875 68.367188 58.914062 69.746094 58.914062 C 71.128906 58.914062 72.246094 57.796875 72.246094 56.414062 "
     id="path36" />
  <path
     fill-rule="evenodd"
     fill="rgb(0%, 0%, 0%)"
     fill-opacity="1"
     d="M 98.914062 56.414062 C 98.914062 55.035156 97.792969 53.914062 96.414062 53.914062 C 95.03125 53.914062 93.914062 55.035156 93.914062 56.414062 C 93.914062 57.796875 95.03125 58.914062 96.414062 58.914062 C 97.792969 58.914062 98.914062 57.796875 98.914062 56.414062 "
     id="path37" />
  <path
     fill-rule="evenodd"
     fill="rgb(0%, 0%, 0%)"
     fill-opacity="1"
     d="M 18.914062 29.75 C 18.914062 28.367188 17.796875 27.25 16.414062 27.25 C 15.035156 27.25 13.917969 28.367188 13.917969 29.75 C 13.917969 31.128906 15.035156 32.25 16.414062 32.25 C 17.796875 32.25 18.914062 31.128906 18.914062 29.75 "
     id="path38" />
  <path
     fill-rule="evenodd"
     fill="rgb(0%, 0%, 0%)"
     fill-opacity="1"
     d="M 18.914062 3.082031 C 18.914062 1.703125 17.796875 0.582031 16.414062 0.582031 C 15.035156 0.582031 13.917969 1.703125 13.917969 3.082031 C 13.917969 4.464844 15.035156 5.582031 16.414062 5.582031 C 17.796875 5.582031 18.914062 4.464844 18.914062 3.082031 "
     id="path39" />
  <path
     fill-rule="evenodd"
     fill="rgb(0%, 0%, 0%)"
     fill-opacity="1"
     d="M 45.582031 3.082031 C 45.582031 1.703125 44.460938 0.582031 43.082031 0.582031 C 41.699219 0.582031 40.582031 1.703125 40.582031 3.082031 C 40.582031 4.464844 41.699219 5.582031 43.082031 5.582031 C 44.460938 5.582031 45.582031 4.464844 45.582031 3.082031 "
     id="path40" />
  <path
     fill-rule="evenodd"
     fill="rgb(0%, 0%, 0%)"
     fill-opacity="1"
     d="M 72.246094 3.082031 C 72.246094 1.703125 71.128906 0.582031 69.746094 0.582031 C 68.367188 0.582031 67.246094 1.703125 67.246094 3.082031 C 67.246094 4.464844 68.367188 5.582031 69.746094 5.582031 C 71.128906 5.582031 72.246094 4.464844 72.246094 3.082031 "
     id="path41" />
  <path
     fill-rule="evenodd"
     fill="rgb(0%, 0%, 0%)"
     fill-opacity="1"
     d="M 98.914062 3.082031 C 98.914062 1.703125 97.792969 0.582031 96.414062 0.582031 C 95.03125 0.582031 93.914062 1.703125 93.914062 3.082031 C 93.914062 4.464844 95.03125 5.582031 96.414062 5.582031 C 97.792969 5.582031 98.914062 4.464844 98.914062 3.082031 "
     id="path42" />
  <path
     fill-rule="evenodd"
     fill="rgb(0%, 0%, 0%)"
     fill-opacity="1"
     d="M 98.914062 29.75 C 98.914062 28.367188 97.792969 27.25 96.414062 27.25 C 95.03125 27.25 93.914062 28.367188 93.914062 29.75 C 93.914062 31.128906 95.03125 32.25 96.414062 32.25 C 97.792969 32.25 98.914062 31.128906 98.914062 29.75 "
     id="path43" />
  <path
     fill-rule="evenodd"
     fill="rgb(0%, 0%, 0%)"
     fill-opacity="1"
     d="M 72.246094 29.75 C 72.246094 28.367188 71.128906 27.25 69.746094 27.25 C 68.367188 27.25 67.246094 28.367188 67.246094 29.75 C 67.246094 31.128906 68.367188 32.25 69.746094 32.25 C 71.128906 32.25 72.246094 31.128906 72.246094 29.75 "
     id="path44" />
  <path
     fill-rule="evenodd"
     fill="rgb(0%, 0%, 0%)"
     fill-opacity="1"
     d="M 45.582031 29.75 C 45.582031 28.367188 44.460938 27.25 43.082031 27.25 C 41.699219 27.25 40.582031 28.367188 40.582031 29.75 C 40.582031 31.128906 41.699219 32.25 43.082031 32.25 C 44.460938 32.25 45.582031 31.128906 45.582031 29.75 "
     id="path45" />
  <path
     fill="none"
     stroke-width="0.4"
     stroke-linecap="butt"
     stroke-linejoin="round"
     stroke="rgb(0%, 0%, 0%)"
     stroke-opacity="1"
     stroke-miterlimit="10"
     d="M 149.758831 784.001415 L 170.239338 784.001415 "
     transform="matrix(0.8333, 0, 0, -0.8333, -103.57919, 656.39041)"
     id="path46" />
  <path
     fill="none"
     stroke-width="0.4"
     stroke-linecap="butt"
     stroke-linejoin="round"
     stroke="rgb(0%, 0%, 0%)"
     stroke-opacity="1"
     stroke-miterlimit="10"
     d="M 181.761673 784.001415 L 202.24218 784.001415 "
     transform="matrix(0.8333, 0, 0, -0.8333, -103.57919, 656.39041)"
     id="path47" />
  <path
     fill="none"
     stroke-width="0.4"
     stroke-linecap="butt"
     stroke-linejoin="round"
     stroke="rgb(0%, 0%, 0%)"
     stroke-opacity="1"
     stroke-miterlimit="10"
     d="M 213.759828 784.001415 L 234.240335 784.001415 "
     transform="matrix(0.8333, 0, 0, -0.8333, -103.57919, 656.39041)"
     id="path48" />
  <path
     fill="none"
     stroke-width="0.4"
     stroke-linecap="butt"
     stroke-linejoin="round"
     stroke="rgb(0%, 0%, 0%)"
     stroke-opacity="1"
     stroke-miterlimit="10"
     d="M 149.758831 751.998572 L 170.239338 751.998572 "
     transform="matrix(0.8333, 0, 0, -0.8333, -103.57919, 656.39041)"
     id="path49" />
  <path
     fill="none"
     stroke-width="0.4"
     stroke-linecap="butt"
     stroke-linejoin="round"
     stroke="rgb(0%, 0%, 0%)"
     stroke-opacity="1"
     stroke-miterlimit="10"
     d="M 181.761673 751.998572 L 202.24218 751.998572 "
     transform="matrix(0.8333, 0, 0, -0.8333, -103.57919, 656.39041)"
     id="path50" />
  <path
     fill="none"
     stroke-width="0.4"
     stroke-linecap="butt"
     stroke-linejoin="round"
     stroke="rgb(0%, 0%, 0%)"
     stroke-opacity="1"
     stroke-miterlimit="10"
     d="M 213.759828 751.998572 L 234.240335 751.998572 "
     transform="matrix(0.8333, 0, 0, -0.8333, -103.57919, 656.39041)"
     id="path51" />
  <path
     fill="none"
     stroke-width="0.4"
     stroke-linecap="butt"
     stroke-linejoin="round"
     stroke="rgb(0%, 0%, 0%)"
     stroke-opacity="1"
     stroke-miterlimit="10"
     d="M 149.758831 720.000417 L 170.239338 720.000417 "
     transform="matrix(0.8333, 0, 0, -0.8333, -103.57919, 656.39041)"
     id="path52" />
  <path
     fill="none"
     stroke-width="0.4"
     stroke-linecap="butt"
     stroke-linejoin="round"
     stroke="rgb(0%, 0%, 0%)"
     stroke-opacity="1"
     stroke-miterlimit="10"
     d="M 181.761673 720.000417 L 202.24218 720.000417 "
     transform="matrix(0.8333, 0, 0, -0.8333, -103.57919, 656.39041)"
     id="path53" />
  <path
     fill="none"
     stroke-width="0.4"
     stroke-linecap="butt"
     stroke-linejoin="round"
     stroke="rgb(0%, 0%, 0%)"
     stroke-opacity="1"
     stroke-miterlimit="10"
     d="M 213.759828 720.000417 L 234.240335 720.000417 "
     transform="matrix(0.8333, 0, 0, -0.8333, -103.57919, 656.39041)"
     id="path54" />
  <path
     fill="none"
     stroke-width="0.4"
     stroke-linecap="butt"
     stroke-linejoin="round"
     stroke="rgb(0%, 0%, 0%)"
     stroke-opacity="1"
     stroke-miterlimit="10"
     d="M 240.001503 725.761585 L 240.001503 746.242092 "
     transform="matrix(0.8333, 0, 0, -0.8333, -103.57919, 656.39041)"
     id="path55" />
  <path
     fill="none"
     stroke-width="0.4"
     stroke-linecap="butt"
     stroke-linejoin="round"
     stroke="rgb(0%, 0%, 0%)"
     stroke-opacity="1"
     stroke-miterlimit="10"
     d="M 240.001503 757.75974 L 240.001503 778.240247 "
     transform="matrix(0.8333, 0, 0, -0.8333, -103.57919, 656.39041)"
     id="path56" />
  <path
     fill="none"
     stroke-width="0.4"
     stroke-linecap="butt"
     stroke-linejoin="round"
     stroke="rgb(0%, 0%, 0%)"
     stroke-opacity="1"
     stroke-miterlimit="10"
     d="M 207.99866 725.761585 L 207.99866 746.242092 "
     transform="matrix(0.8333, 0, 0, -0.8333, -103.57919, 656.39041)"
     id="path57" />
  <path
     fill="none"
     stroke-width="0.4"
     stroke-linecap="butt"
     stroke-linejoin="round"
     stroke="rgb(0%, 0%, 0%)"
     stroke-opacity="1"
     stroke-miterlimit="10"
     d="M 207.99866 757.75974 L 207.99866 778.240247 "
     transform="matrix(0.8333, 0, 0, -0.8333, -103.57919, 656.39041)"
     id="path58" />
  <path
     fill="none"
     stroke-width="0.4"
     stroke-linecap="butt"
     stroke-linejoin="round"
     stroke="rgb(0%, 0%, 0%)"
     stroke-opacity="1"
     stroke-miterlimit="10"
     d="M 176.000506 725.761585 L 176.000506 746.242092 "
     transform="matrix(0.8333, 0, 0, -0.8333, -103.57919, 656.39041)"
     id="path59" />
  <path
     fill="none"
     stroke-width="0.4"
     stroke-linecap="butt"
     stroke-linejoin="round"
     stroke="rgb(0%, 0%, 0%)"
     stroke-opacity="1"
     stroke-miterlimit="10"
     d="M 176.000506 757.75974 L 176.000506 778.240247 "
     transform="matrix(0.8333, 0, 0, -0.8333, -103.57919, 656.39041)"
     id="path60" />
  <path
     fill="none"
     stroke-width="0.4"
     stroke-linecap="butt"
     stroke-linejoin="round"
     stroke="rgb(0%, 0%, 0%)"
     stroke-opacity="1"
     stroke-miterlimit="10"
     d="M 143.997663 725.761585 L 143.997663 746.242092 "
     transform="matrix(0.8333, 0, 0, -0.8333, -103.57919, 656.39041)"
     id="path61" />
  <path
     fill="none"
     stroke-width="0.4"
     stroke-linecap="butt"
     stroke-linejoin="round"
     stroke="rgb(0%, 0%, 0%)"
     stroke-opacity="1"
     stroke-miterlimit="10"
     d="M 143.997663 757.75974 L 143.997663 778.240247 "
     transform="matrix(0.8333, 0, 0, -0.8333, -103.57919, 656.39041)"
     id="path62" />
  <path
     fill="none"
     stroke-width="0.4"
     stroke-linecap="butt"
     stroke-linejoin="round"
     stroke="rgb(0%, 0%, 0%)"
     stroke-opacity="1"
     stroke-miterlimit="10"
     d="M 130.881513 770.880577 L 141.119423 781.118487 "
     transform="matrix(0.8333, 0, 0, -0.8333, -103.57919, 656.39041)"
     id="path63" />
  <path
     fill="none"
     stroke-width="0.4"
     stroke-linecap="butt"
     stroke-linejoin="round"
     stroke="rgb(0%, 0%, 0%)"
     stroke-opacity="1"
     stroke-miterlimit="10"
     d="M 162.879668 770.880577 L 173.122265 781.118487 "
     transform="matrix(0.8333, 0, 0, -0.8333, -103.57919, 656.39041)"
     id="path64" />
  <path
     fill="none"
     stroke-width="0.4"
     stroke-linecap="butt"
     stroke-linejoin="round"
     stroke="rgb(0%, 0%, 0%)"
     stroke-opacity="1"
     stroke-miterlimit="10"
     d="M 194.877823 770.880577 L 205.12042 781.118487 "
     transform="matrix(0.8333, 0, 0, -0.8333, -103.57919, 656.39041)"
     id="path65" />
  <path
     fill="none"
     stroke-width="0.4"
     stroke-linecap="butt"
     stroke-linejoin="round"
     stroke="rgb(0%, 0%, 0%)"
     stroke-opacity="1"
     stroke-miterlimit="10"
     d="M 226.880666 770.880577 L 237.118575 781.118487 "
     transform="matrix(0.8333, 0, 0, -0.8333, -103.57919, 656.39041)"
     id="path66" />
  <path
     fill="none"
     stroke-width="0.4"
     stroke-linecap="butt"
     stroke-linejoin="round"
     stroke="rgb(0%, 0%, 0%)"
     stroke-opacity="1"
     stroke-miterlimit="10"
     d="M 130.881513 738.877735 L 141.119423 749.120332 "
     transform="matrix(0.8333, 0, 0, -0.8333, -103.57919, 656.39041)"
     id="path67" />
  <path
     fill="none"
     stroke-width="0.4"
     stroke-linecap="butt"
     stroke-linejoin="round"
     stroke="rgb(0%, 0%, 0%)"
     stroke-opacity="1"
     stroke-miterlimit="10"
     d="M 162.879668 738.877735 L 173.122265 749.120332 "
     transform="matrix(0.8333, 0, 0, -0.8333, -103.57919, 656.39041)"
     id="path68" />
  <path
     fill="none"
     stroke-width="0.4"
     stroke-linecap="butt"
     stroke-linejoin="round"
     stroke="rgb(0%, 0%, 0%)"
     stroke-opacity="1"
     stroke-miterlimit="10"
     d="M 194.877823 738.877735 L 205.12042 749.120332 "
     transform="matrix(0.8333, 0, 0, -0.8333, -103.57919, 656.39041)"
     id="path69" />
  <path
     fill="none"
     stroke-width="0.4"
     stroke-linecap="butt"
     stroke-linejoin="round"
     stroke="rgb(0%, 0%, 0%)"
     stroke-opacity="1"
     stroke-miterlimit="10"
     d="M 226.880666 738.877735 L 237.118575 749.120332 "
     transform="matrix(0.8333, 0, 0, -0.8333, -103.57919, 656.39041)"
     id="path70" />
  <path
     fill="none"
     stroke-width="0.4"
     stroke-linecap="butt"
     stroke-linejoin="round"
     stroke="rgb(0%, 0%, 0%)"
     stroke-opacity="1"
     stroke-miterlimit="10"
     d="M 130.881513 706.87958 L 141.119423 717.122177 "
     transform="matrix(0.8333, 0, 0, -0.8333, -103.57919, 656.39041)"
     id="path71" />
  <path
     fill="none"
     stroke-width="0.4"
     stroke-linecap="butt"
     stroke-linejoin="round"
     stroke="rgb(0%, 0%, 0%)"
     stroke-opacity="1"
     stroke-miterlimit="10"
     d="M 162.879668 706.87958 L 173.122265 717.122177 "
     transform="matrix(0.8333, 0, 0, -0.8333, -103.57919, 656.39041)"
     id="path72" />
  <path
     fill="none"
     stroke-width="0.4"
     stroke-linecap="butt"
     stroke-linejoin="round"
     stroke="rgb(0%, 0%, 0%)"
     stroke-opacity="1"
     stroke-miterlimit="10"
     d="M 194.877823 706.87958 L 205.12042 717.122177 "
     transform="matrix(0.8333, 0, 0, -0.8333, -103.57919, 656.39041)"
     id="path73" />
  <path
     fill="none"
     stroke-width="0.4"
     stroke-linecap="butt"
     stroke-linejoin="round"
     stroke="rgb(0%, 0%, 0%)"
     stroke-opacity="1"
     stroke-miterlimit="10"
     d="M 226.880666 706.87958 L 237.118575 717.122177 "
     transform="matrix(0.8333, 0, 0, -0.8333, -103.57919, 656.39041)"
     id="path74" />
</svg>
