<?xml version="1.0" encoding="UTF-8" standalone="no"?>
<!-- Created with Inkscape (http://www.inkscape.org/) -->

<svg
   width="38.639954mm"
   height="33.839958mm"
   viewBox="0 0 38.639953 33.839958"
   version="1.1"
   id="svg1"
   xml:space="preserve"
   xmlns="http://www.w3.org/2000/svg"
   xmlns:svg="http://www.w3.org/2000/svg"><defs
     id="defs1" /><g
     id="g31"
     transform="matrix(0.26458333,0,0,0.26458335,-300.97192,-139.96675)"><path
       id="path44"
       d="M 0,0 H 45.35425 V 45.35425 H 0 Z"
       style="fill:#dc143c;fill-opacity:1;fill-rule:nonzero;stroke:none"
       transform="matrix(1.6,0,0,-1.6,1137.9853,656.45363)" /><path
       id="path45"
       d="M 45.35425,0 V 45.35425 H 0 V 56.69281 H 56.69281 V 0 Z"
       style="fill:#7f00ff;fill-opacity:1;fill-rule:nonzero;stroke:none"
       transform="matrix(1.6,0,0,-1.6,1137.9853,656.45363)" /><path
       id="path46"
       d="M 0,45.35425 H 45.35425 V 0"
       style="fill:none;stroke:#000000;stroke-width:0.56696;stroke-linecap:round;stroke-linejoin:round;stroke-miterlimit:10;stroke-dasharray:none;stroke-opacity:1"
       transform="matrix(1.6,0,0,-1.6,1137.9853,656.45363)" /><path
       id="path47"
       d="M 0,56.69281 H 56.69281 V 0"
       style="fill:none;stroke:#000000;stroke-width:0.56696;stroke-linecap:round;stroke-linejoin:round;stroke-miterlimit:10;stroke-dasharray:none;stroke-opacity:1"
       transform="matrix(1.6,0,0,-1.6,1137.9853,656.45363)" /><path
       id="path48"
       d="M 11.33856,45.35425 V 56.69281"
       style="fill:none;stroke:#000000;stroke-width:0.56696;stroke-linecap:round;stroke-linejoin:round;stroke-miterlimit:10;stroke-dasharray:none;stroke-opacity:1"
       transform="matrix(1.6,0,0,-1.6,1137.9853,656.45363)" /><path
       id="path49"
       d="M 45.35425,11.33856 H 56.69281"
       style="fill:none;stroke:#000000;stroke-width:0.56696;stroke-linecap:round;stroke-linejoin:round;stroke-miterlimit:10;stroke-dasharray:none;stroke-opacity:1"
       transform="matrix(1.6,0,0,-1.6,1137.9853,656.45363)" /><path
       id="path50"
       d="M 22.67712,45.35425 V 56.69281"
       style="fill:none;stroke:#000000;stroke-width:0.56696;stroke-linecap:round;stroke-linejoin:round;stroke-miterlimit:10;stroke-dasharray:none;stroke-opacity:1"
       transform="matrix(1.6,0,0,-1.6,1137.9853,656.45363)" /><path
       id="path51"
       d="M 45.35425,22.67712 H 56.69281"
       style="fill:none;stroke:#000000;stroke-width:0.56696;stroke-linecap:round;stroke-linejoin:round;stroke-miterlimit:10;stroke-dasharray:none;stroke-opacity:1"
       transform="matrix(1.6,0,0,-1.6,1137.9853,656.45363)" /><path
       id="path52"
       d="M 34.01569,45.35425 V 56.69281"
       style="fill:none;stroke:#000000;stroke-width:0.56696;stroke-linecap:round;stroke-linejoin:round;stroke-miterlimit:10;stroke-dasharray:none;stroke-opacity:1"
       transform="matrix(1.6,0,0,-1.6,1137.9853,656.45363)" /><path
       id="path53"
       d="M 45.35425,34.01569 H 56.69281"
       style="fill:none;stroke:#000000;stroke-width:0.56696;stroke-linecap:round;stroke-linejoin:round;stroke-miterlimit:10;stroke-dasharray:none;stroke-opacity:1"
       transform="matrix(1.6,0,0,-1.6,1137.9853,656.45363)" /><path
       id="path54"
       d="M 45.35425,45.35425 V 56.69281"
       style="fill:none;stroke:#000000;stroke-width:0.56696;stroke-linecap:round;stroke-linejoin:round;stroke-miterlimit:10;stroke-dasharray:none;stroke-opacity:1"
       transform="matrix(1.6,0,0,-1.6,1137.9853,656.45363)" /><path
       id="path55"
       d="M 45.35425,45.35425 H 56.69281"
       style="fill:none;stroke:#000000;stroke-width:0.56696;stroke-linecap:round;stroke-linejoin:round;stroke-miterlimit:10;stroke-dasharray:none;stroke-opacity:1"
       transform="matrix(1.6,0,0,-1.6,1137.9853,656.45363)" /><path
       id="path56"
       d="M 0,79.36993 V 0 h 90.7085"
       style="fill:none;stroke:#000000;stroke-width:0.56696;stroke-linecap:round;stroke-linejoin:round;stroke-miterlimit:10;stroke-dasharray:none;stroke-opacity:1"
       transform="matrix(1.6,0,0,-1.6,1137.9853,656.45363)" /></g></svg>
