<?xml version="1.0" encoding="UTF-8" standalone="no"?>
<!-- Created with Inkscape (http://www.inkscape.org/) -->

<svg
   width="56.490608mm"
   height="56.485474mm"
   viewBox="0 0 56.490608 56.485473"
   version="1.1"
   id="svg1"
   xml:space="preserve"
   xmlns="http://www.w3.org/2000/svg"
   xmlns:svg="http://www.w3.org/2000/svg"><defs
     id="defs1" /><g
     id="g1"
     transform="matrix(0.26458333,0,0,0.26458335,-76.754992,-142.09054)"><path
       id="path16"
       d="M 0,0 H 113.38562 V 113.38562 H 0 Z"
       style="fill:none;stroke:#000000;stroke-width:0.56696;stroke-linecap:butt;stroke-linejoin:round;stroke-miterlimit:10;stroke-dasharray:none;stroke-opacity:1"
       transform="matrix(1.6,0,0,-1.6,306.7168,734.48832)" /><path
       id="path17"
       d="M 75.59042,0 V 113.38562"
       style="fill:none;stroke:#000000;stroke-width:0.56696;stroke-linecap:round;stroke-linejoin:round;stroke-miterlimit:10;stroke-dasharray:none;stroke-opacity:1"
       transform="matrix(1.6,0,0,-1.6,306.7168,734.48832)" /><path
       id="path18"
       d="M 0,75.59042 H 113.38562"
       style="fill:none;stroke:#000000;stroke-width:0.56696;stroke-linecap:round;stroke-linejoin:round;stroke-miterlimit:10;stroke-dasharray:none;stroke-opacity:1"
       transform="matrix(1.6,0,0,-1.6,306.7168,734.48832)" /><path
       id="path19"
       d="m 1.7875742,-1.1419109 c -0.4003906,0.66406246 -0.79101561,0.80078121 -1.23046873,0.83007809 -0.1171875,0.009766 -0.20507813,0.009766 -0.20507813,0.20507812 0,0.05859375 0.0488281,0.1074218775 0.12695313,0.1074218775 0.2734375,0 0.57617183,-0.0292968775 0.85937503,-0.0292968775 0.3222656,0 0.6738281,0.0292968775 0.9960937,0.0292968775 0.058594,0 0.1855469,0 0.1855469,-0.1855468775 0,-0.1171875 -0.087891,-0.12695312 -0.15625,-0.12695312 -0.234375,-0.0195313 -0.46875,-0.0976563 -0.46875,-0.34179688 0,-0.12695312 0.058594,-0.234375 0.1367187,-0.37109371 l 0.7617188,-1.2792969 h 2.5 c 0.019531,0.2148437 0.15625,1.57226561 0.15625,1.66992186 0,0.29296875 -0.5175781,0.32226563 -0.7128906,0.32226563 -0.1464844,0 -0.2441407,0 -0.2441407,0.20507812 0,0.1074218775 0.1171875,0.1074218775 0.1367188,0.1074218775 0.4101562,0 0.8398437,-0.0292968775 1.25,-0.0292968775 0.2441406,0 0.8789062,0.0292968775 1.1230469,0.0292968775 0.058594,0 0.1757812,0 0.1757812,-0.1953124975 0,-0.1171875 -0.097656,-0.1171875 -0.2246094,-0.1171875 -0.6152343,0 -0.6152343,-0.0683594 -0.6445312,-0.3515625 L 5.6938242,-6.8938641 c -0.019531,-0.1953125 -0.019531,-0.234375 -0.1855469,-0.234375 -0.15625,0 -0.1953125,0.068359 -0.2539062,0.1660157 z m 1.1914063,-1.4648438 1.9628906,-3.2910156 0.3222656,3.2910156 z M 87.312477,-5.1751141 c 0.07813,-0.3320312 0.09766,-0.4199218 0.644531,-0.4199218 0.15625,0 0.273437,0 0.273437,-0.1855469 0,-0.097656 -0.05859,-0.1269531 -0.146484,-0.1269531 -0.244141,0 -0.849609,0.029297 -1.103516,0.029297 -0.322265,0 -1.132812,-0.029297 -1.464843,-0.029297 -0.08789,0 -0.205079,0 -0.205079,0.2050781 0,0.1074219 0.07813,0.1074219 0.332032,0.1074219 0.234375,0 0.332031,0 0.585937,0.019531 0.234375,0.029297 0.302735,0.058594 0.302735,0.1953125 0,0.068359 -0.01953,0.1367188 -0.03906,0.2148438 l -1.142578,4.57031246 c -0.244141,0.96679688 -0.917969,1.49414063 -1.435547,1.49414063 -0.263672,0 -0.791016,-0.0976563 -0.947266,-0.61523438 0.0293,0.009766 0.09766,0.009766 0.117188,0.009766 0.390625,0 0.654297,-0.34179688 0.654297,-0.64453125 0,-0.3125 -0.273438,-0.41015625 -0.439453,-0.41015625 -0.185547,0 -0.673828,0.1171875 -0.673828,0.79101562 0,0.61523438 0.527343,1.08398437 1.318359,1.08398437 0.917969,0 1.953125,-0.65429687 2.197266,-1.64062499 z m 39.338383,4.39453129 c -0.0977,0.390625 -0.11719,0.46875 -0.90821,0.46875 -0.16601,0 -0.26367,0 -0.26367,0.20507812 0,0.1074218775 0.0879,0.1074218775 0.26367,0.1074218775 h 3.56446 c 1.57226,0 2.74414,-1.1718749875 2.74414,-2.1484374875 0,-0.7226563 -0.57618,-1.2988281 -1.54297,-1.40625 1.03515,-0.1953125 2.08008,-0.9277344 2.08008,-1.875 0,-0.7324219 -0.6543,-1.3769531 -1.85547,-1.3769531 h -3.33985 c -0.19531,0 -0.29297,0 -0.29297,0.2050781 0,0.1074219 0.0879,0.1074219 0.28321,0.1074219 0.0195,0 0.20508,0 0.37109,0.019531 0.18555,0.019531 0.27344,0.029297 0.27344,0.15625 0,0.039063 -0.01,0.068359 -0.0391,0.1953125 z m 1.5039,-2.86132809 0.61524,-2.4707032 c 0.0976,-0.3515625 0.11718,-0.3808593 0.54687,-0.3808593 h 1.2793 c 0.8789,0 1.08398,0.5859375 1.08398,1.0253906 0,0.8789062 -0.84961,1.8261719 -2.07031,1.8261719 z m -0.44922,3.33007809 c -0.13672,0 -0.15625,0 -0.21484,-0.009766 -0.0977,-0.009766 -0.12695,-0.0195313 -0.12695,-0.0976563 0,-0.0292969 0,-0.0488281 0.0488,-0.22460937 l 0.6836,-2.78320312 h 1.88476 c 0.95703,0 1.14258,0.7421875 1.14258,1.1621094 0,0.9863281 -0.88867,1.95312497 -2.06055,1.95312497 z M 129.6782,-87.120915 c 0.0977,-0.361328 0.12695,-0.46875 1.06445,-0.46875 0.29297,0 0.3711,0 0.3711,-0.185547 0,-0.126953 -0.10743,-0.126953 -0.15625,-0.126953 -0.33204,0 -1.14258,0.0293 -1.47461,0.0293 -0.30274,0 -1.02539,-0.0293 -1.32813,-0.0293 -0.0684,0 -0.18555,0 -0.18555,0.205078 0,0.107422 0.0879,0.107422 0.28321,0.107422 0.0195,0 0.20508,0 0.37109,0.01953 0.18555,0.01953 0.27344,0.0293 0.27344,0.15625 0,0.03906 -0.01,0.06836 -0.0391,0.195313 l -1.33789,5.341797 c -0.0977,0.390625 -0.11719,0.46875 -0.90821,0.46875 -0.16601,0 -0.26367,0 -0.26367,0.205078 0,0.107422 0.0879,0.107422 0.26367,0.107422 h 4.61914 c 0.23438,0 0.24414,0 0.30274,-0.166016 l 0.79101,-2.158203 c 0.0391,-0.107422 0.0391,-0.126953 0.0391,-0.136719 0,-0.03906 -0.0293,-0.107422 -0.11719,-0.107422 -0.0977,0 -0.10742,0.04883 -0.17578,0.205079 -0.33203,0.917968 -0.77149,2.050781 -2.5,2.050781 h -0.9375 c -0.13672,0 -0.15625,0 -0.21485,-0.0098 -0.0976,-0.0098 -0.12695,-0.01953 -0.12695,-0.09766 0,-0.0293 0,-0.04883 0.0488,-0.224609 z m 2.94922,-44.196775 c 0,-0.0293 -0.0195,-0.0977 -0.10742,-0.0977 -0.0293,0 -0.0391,0.01 -0.14649,0.11719 l -0.70312,0.77148 c -0.0879,-0.14648 -0.54688,-0.88867 -1.65039,-0.88867 -2.2168,0 -4.46289,2.19727 -4.46289,4.51172 0,1.64063 1.17187,2.72461 2.69531,2.72461 0.86914,0 1.63086,-0.39063 2.1582,-0.84961 0.92774,-0.82031 1.09375,-1.72852 1.09375,-1.75781 0,-0.0977 -0.0977,-0.0977 -0.11719,-0.0977 -0.0586,0 -0.11718,0.0195 -0.13672,0.0977 -0.0879,0.29297 -0.3125,0.99609 -1.00585,1.57226 -0.6836,0.55664 -1.3086,0.73243 -1.82618,0.73243 -0.89843,0 -1.95312,-0.51758 -1.95312,-2.07032 0,-0.5664 0.20508,-2.1875 1.20117,-3.34961 0.60547,-0.70312 1.54297,-1.20117 2.43164,-1.20117 1.01563,0 1.60156,0.76172 1.60156,1.91406 0,0.40039 -0.0293,0.41016 -0.0293,0.50782 0,0.10742 0.11718,0.10742 0.15625,0.10742 0.12695,0 0.12695,-0.0195 0.17578,-0.20508 z m -44.379885,-0.90088 c 0,-0.0293 -0.01953,-0.0977 -0.107422,-0.0977 -0.04883,0 -0.05859,0.01 -0.185547,0.14649 l -0.478515,0.5664 c -0.253906,-0.46875 -0.771485,-0.71289 -1.416016,-0.71289 -1.269531,0 -2.460937,1.14258 -2.460937,2.35352 0,0.80078 0.527343,1.25976 1.035156,1.40625 l 1.064453,0.2832 c 0.371094,0.0879 0.917969,0.23438 0.917969,1.05469 0,0.89844 -0.820313,1.83594 -1.796875,1.83594 -0.634766,0 -1.738281,-0.22461 -1.738281,-1.45508 0,-0.24414 0.04883,-0.47852 0.05859,-0.53711 0.0098,-0.0391 0.01953,-0.0488 0.01953,-0.0684 0,-0.10742 -0.06836,-0.11719 -0.126954,-0.11719 -0.04883,0 -0.06836,0.01 -0.09766,0.0488 -0.03906,0.0391 -0.595703,2.30469 -0.595703,2.33398 0,0.0586 0.04883,0.0977 0.107422,0.0977 0.04883,0 0.05859,-0.01 0.185547,-0.14648 l 0.488281,-0.56641 c 0.419922,0.57617 1.103516,0.71289 1.679688,0.71289 1.357421,0 2.529296,-1.31836 2.529296,-2.55859 0,-0.6836 -0.341796,-1.02539 -0.488281,-1.16211 -0.224609,-0.23438 -0.380859,-0.27344 -1.259765,-0.49805 -0.22461,-0.0586 -0.585938,-0.15625 -0.673829,-0.17578 -0.263671,-0.0977 -0.605468,-0.38086 -0.605468,-0.9082 0,-0.81055 0.800781,-1.66016 1.738281,-1.66016 0.830078,0 1.435547,0.42969 1.435547,1.55273 0,0.3125 -0.03906,0.49805 -0.03906,0.55665 0,0.01 0,0.0977 0.126953,0.0977 0.09766,0 0.107422,-0.0293 0.146485,-0.20508 z m -87.717285,7.04346 c -0.0976563,0.39062 -0.1171875,0.46875 -0.90820313,0.46875 -0.16601562,0 -0.2734375,0 -0.2734375,0.19531 0,0.11719 0.0878906,0.11719 0.2734375,0.11719 H 2.9228281 c 2.0703125,0 4.0332031,-2.09961 4.0332031,-4.28711 0,-1.39649 -0.8496093,-2.51953 -2.34375,-2.51953 H 1.2724375 c -0.1953125,0 -0.30273438,0 -0.30273438,0.19531 0,0.11719 0.0878906,0.11719 0.29296878,0.11719 0.1269531,0 0.3027343,0.01 0.4296875,0.0195 0.15625,0.0195 0.2148437,0.0488 0.2148437,0.15625 0,0.0391 -0.00977,0.0684 -0.039063,0.19531 z m 2.1582031,-5.33204 c 0.087891,-0.35156 0.1074219,-0.38085 0.5371094,-0.38085 h 1.0644531 c 0.9765625,0 1.796875,0.52734 1.796875,1.8457 0,0.48828 -0.1953125,2.11914 -1.0449219,3.21289 -0.2832031,0.37109 -1.0742187,1.12305 -2.2949218,1.12305 H 1.6142344 c -0.1367188,0 -0.15625,0 -0.2148438,-0.01 -0.097656,-0.01 -0.1269531,-0.0195 -0.1269531,-0.0977 0,-0.0293 0,-0.0488 0.048828,-0.22461 z m 3.3813477,45.065923 c 0,-1.601563 -1.0546875,-2.675782 -2.5390625,-2.675782 -2.1582031,0 -4.34570314,2.25586 -4.34570314,4.580079 0,1.65039 1.11328125,2.65625 2.54882814,2.65625 2.109375,0 4.3359375,-2.177735 4.3359375,-4.560547 z m -4.2773438,4.30664 c -0.98632809,0 -1.67968747,-0.810547 -1.67968747,-2.11914 0,-0.439453 0.13671875,-1.894532 0.90820317,-3.056641 0.6835937,-1.044922 1.6601562,-1.5625 2.4511718,-1.5625 0.8105469,0 1.7089844,0.566406 1.7089844,2.041016 0,0.722656 -0.2734375,2.27539 -1.25,3.505859 -0.4785156,0.605469 -1.2988281,1.191406 -2.1386719,1.191406 z m 0,0"
       style="fill:#000000;fill-opacity:1;fill-rule:nonzero;stroke:none"
       aria-label="A&#10;J&#10;B&#10;L&#10;C&#10;S&#10;D&#10;O"
       transform="matrix(1.6,0,0,1.6,291.4016,748.74112)" /></g></svg>
