<?xml version="1.0" encoding="UTF-8" standalone="no"?>
<!-- Created with Inkscape (http://www.inkscape.org/) -->

<svg
   width="56.420326mm"
   height="44.012836mm"
   viewBox="0 0 56.420326 44.012836"
   version="1.1"
   id="svg1"
   xml:space="preserve"
   xmlns="http://www.w3.org/2000/svg"
   xmlns:svg="http://www.w3.org/2000/svg"><defs
     id="defs1" /><g
     id="g56"
     transform="matrix(0.26458333,0,0,0.26458335,-507.3551,-153.83971)"><path
       id="path78"
       d="M 0,0 H 113.38562 V 85.03922 H 0 Z"
       style="fill:none;stroke:#000000;stroke-width:0.56696;stroke-linecap:butt;stroke-linejoin:round;stroke-miterlimit:10;stroke-dasharray:none;stroke-opacity:1"
       transform="matrix(1.6,0,0,-1.6,1933.9194,732.09632)" /><path
       id="path79"
       d="m 0,0 v 85.03922 0"
       style="fill:none;stroke:#000000;stroke-width:0.28348;stroke-linecap:round;stroke-linejoin:round;stroke-miterlimit:10;stroke-dasharray:none;stroke-opacity:1"
       transform="matrix(1.6,0,0,-1.6,1933.9194,732.09632)" /><path
       id="path80"
       d="m 14.1732,0 v 85.03922 0"
       style="fill:none;stroke:#000000;stroke-width:0.28348;stroke-linecap:round;stroke-linejoin:round;stroke-miterlimit:10;stroke-dasharray:none;stroke-opacity:1"
       transform="matrix(1.6,0,0,-1.6,1933.9194,732.09632)" /><path
       id="path81"
       d="m 28.3464,0 v 85.03922 0"
       style="fill:none;stroke:#000000;stroke-width:0.28348;stroke-linecap:round;stroke-linejoin:round;stroke-miterlimit:10;stroke-dasharray:none;stroke-opacity:1"
       transform="matrix(1.6,0,0,-1.6,1933.9194,732.09632)" /><path
       id="path82"
       d="m 42.5196,0 v 85.03922 0"
       style="fill:none;stroke:#000000;stroke-width:0.28348;stroke-linecap:round;stroke-linejoin:round;stroke-miterlimit:10;stroke-dasharray:none;stroke-opacity:1"
       transform="matrix(1.6,0,0,-1.6,1933.9194,732.09632)" /><path
       id="path83"
       d="m 56.69281,0 v 85.03922 0"
       style="fill:none;stroke:#000000;stroke-width:0.28348;stroke-linecap:round;stroke-linejoin:round;stroke-miterlimit:10;stroke-dasharray:none;stroke-opacity:1"
       transform="matrix(1.6,0,0,-1.6,1933.9194,732.09632)" /><path
       id="path84"
       d="m 70.86601,0 v 85.03922 0"
       style="fill:none;stroke:#000000;stroke-width:0.28348;stroke-linecap:round;stroke-linejoin:round;stroke-miterlimit:10;stroke-dasharray:none;stroke-opacity:1"
       transform="matrix(1.6,0,0,-1.6,1933.9194,732.09632)" /><path
       id="path85"
       d="m 85.03922,0 v 85.03922 0"
       style="fill:none;stroke:#000000;stroke-width:0.28348;stroke-linecap:round;stroke-linejoin:round;stroke-miterlimit:10;stroke-dasharray:none;stroke-opacity:1"
       transform="matrix(1.6,0,0,-1.6,1933.9194,732.09632)" /><path
       id="path86"
       d="m 99.21242,0 v 85.03922 0"
       style="fill:none;stroke:#000000;stroke-width:0.28348;stroke-linecap:round;stroke-linejoin:round;stroke-miterlimit:10;stroke-dasharray:none;stroke-opacity:1"
       transform="matrix(1.6,0,0,-1.6,1933.9194,732.09632)" /><path
       id="path87"
       d="m 113.38562,0 v 85.03922 0"
       style="fill:none;stroke:#000000;stroke-width:0.28348;stroke-linecap:round;stroke-linejoin:round;stroke-miterlimit:10;stroke-dasharray:none;stroke-opacity:1"
       transform="matrix(1.6,0,0,-1.6,1933.9194,732.09632)" /><path
       id="path88"
       d="M 0,0 H 113.38562 V 0"
       style="fill:none;stroke:#000000;stroke-width:0.28348;stroke-linecap:round;stroke-linejoin:round;stroke-miterlimit:10;stroke-dasharray:none;stroke-opacity:1"
       transform="matrix(1.6,0,0,-1.6,1933.9194,732.09632)" /><path
       id="path89"
       d="m 0,14.1732 h 113.38562 v 0"
       style="fill:none;stroke:#000000;stroke-width:0.28348;stroke-linecap:round;stroke-linejoin:round;stroke-miterlimit:10;stroke-dasharray:none;stroke-opacity:1"
       transform="matrix(1.6,0,0,-1.6,1933.9194,732.09632)" /><path
       id="path90"
       d="m 0,28.3464 h 113.38562 v 0"
       style="fill:none;stroke:#000000;stroke-width:0.28348;stroke-linecap:round;stroke-linejoin:round;stroke-miterlimit:10;stroke-dasharray:none;stroke-opacity:1"
       transform="matrix(1.6,0,0,-1.6,1933.9194,732.09632)" /><path
       id="path91"
       d="m 0,42.5196 h 113.38562 v 0"
       style="fill:none;stroke:#000000;stroke-width:0.28348;stroke-linecap:round;stroke-linejoin:round;stroke-miterlimit:10;stroke-dasharray:none;stroke-opacity:1"
       transform="matrix(1.6,0,0,-1.6,1933.9194,732.09632)" /><path
       id="path92"
       d="m 0,56.69281 h 113.38562 v 0"
       style="fill:none;stroke:#000000;stroke-width:0.28348;stroke-linecap:round;stroke-linejoin:round;stroke-miterlimit:10;stroke-dasharray:none;stroke-opacity:1"
       transform="matrix(1.6,0,0,-1.6,1933.9194,732.09632)" /><path
       id="path93"
       d="m 0,70.86601 h 113.38562 v 0"
       style="fill:none;stroke:#000000;stroke-width:0.28348;stroke-linecap:round;stroke-linejoin:round;stroke-miterlimit:10;stroke-dasharray:none;stroke-opacity:1"
       transform="matrix(1.6,0,0,-1.6,1933.9194,732.09632)" /><path
       id="path94"
       d="m 0,85.03922 h 113.38562 v 0"
       style="fill:none;stroke:#000000;stroke-width:0.28348;stroke-linecap:round;stroke-linejoin:round;stroke-miterlimit:10;stroke-dasharray:none;stroke-opacity:1"
       transform="matrix(1.6,0,0,-1.6,1933.9194,732.09632)" /><path
       id="path95"
       d="m 1.13391,0 c 0,0.30075 -0.11949,0.58914 -0.33214,0.80177 C 0.58914,1.01442 0.30075,1.13391 0,1.13391 -0.30075,1.13391 -0.58914,1.01442 -0.80177,0.80177 -1.01442,0.58914 -1.13391,0.30075 -1.13391,0 c 0,-0.30075 0.11949,-0.58914 0.33214,-0.80177 0.21263,-0.21265 0.50102,-0.33214 0.80177,-0.33214 0.30075,0 0.58914,0.11949 0.80177,0.33214 C 1.01442,-0.58914 1.13391,-0.30075 1.13391,0 Z"
       style="fill:#000000;fill-opacity:1;fill-rule:nonzero;stroke:#000000;stroke-width:0.28348;stroke-linecap:round;stroke-linejoin:round;stroke-miterlimit:10;stroke-dasharray:none;stroke-opacity:1"
       transform="matrix(1.6,0,0,-1.6,1933.9194,732.09632)" /><path
       id="path96"
       d="m 29.48032,0 c 0,0.30075 -0.1195,0.58914 -0.33214,0.80177 -0.21263,0.21265 -0.50102,0.33214 -0.80178,0.33214 -0.30075,0 -0.58914,-0.11949 -0.80177,-0.33214 C 27.33199,0.58914 27.2125,0.30075 27.2125,0 c 0,-0.30075 0.11949,-0.58914 0.33213,-0.80177 0.21263,-0.21265 0.50102,-0.33214 0.80177,-0.33214 0.30076,0 0.58915,0.11949 0.80178,0.33214 0.21264,0.21263 0.33214,0.50102 0.33214,0.80177 z"
       style="fill:#000000;fill-opacity:1;fill-rule:nonzero;stroke:#000000;stroke-width:0.28348;stroke-linecap:round;stroke-linejoin:round;stroke-miterlimit:10;stroke-dasharray:none;stroke-opacity:1"
       transform="matrix(1.6,0,0,-1.6,1933.9194,732.09632)" /><path
       id="path97"
       d="m 114.51953,0 c 0,0.30075 -0.11949,0.58914 -0.33213,0.80177 -0.21264,0.21265 -0.50103,0.33214 -0.80178,0.33214 -0.30075,0 -0.58914,-0.11949 -0.80177,-0.33214 C 112.3712,0.58914 112.25171,0.30075 112.25171,0 c 0,-0.30075 0.11949,-0.58914 0.33214,-0.80177 0.21263,-0.21265 0.50102,-0.33214 0.80177,-0.33214 0.30075,0 0.58914,0.11949 0.80178,0.33214 0.21264,0.21263 0.33213,0.50102 0.33213,0.80177 z"
       style="fill:#000000;fill-opacity:1;fill-rule:nonzero;stroke:#000000;stroke-width:0.28348;stroke-linecap:round;stroke-linejoin:round;stroke-miterlimit:10;stroke-dasharray:none;stroke-opacity:1"
       transform="matrix(1.6,0,0,-1.6,1933.9194,732.09632)" /><path
       id="path98"
       d="m 114.51953,85.03922 c 0,0.30075 -0.11949,0.58914 -0.33213,0.80177 -0.21264,0.21264 -0.50103,0.33214 -0.80178,0.33214 -0.30075,0 -0.58914,-0.1195 -0.80177,-0.33214 -0.21265,-0.21263 -0.33214,-0.50102 -0.33214,-0.80177 0,-0.30076 0.11949,-0.58915 0.33214,-0.80178 0.21263,-0.21264 0.50102,-0.33214 0.80177,-0.33214 0.30075,0 0.58914,0.1195 0.80178,0.33214 0.21264,0.21263 0.33213,0.50102 0.33213,0.80178 z"
       style="fill:#000000;fill-opacity:1;fill-rule:nonzero;stroke:#000000;stroke-width:0.28348;stroke-linecap:round;stroke-linejoin:round;stroke-miterlimit:10;stroke-dasharray:none;stroke-opacity:1"
       transform="matrix(1.6,0,0,-1.6,1933.9194,732.09632)" /><path
       id="path99"
       d="m 1.13391,85.03922 c 0,0.30075 -0.11949,0.58914 -0.33214,0.80177 C 0.58914,86.05363 0.30075,86.17313 0,86.17313 c -0.30075,0 -0.58914,-0.1195 -0.80177,-0.33214 -0.21265,-0.21263 -0.33214,-0.50102 -0.33214,-0.80177 0,-0.30076 0.11949,-0.58915 0.33214,-0.80178 C -0.58914,84.0248 -0.30075,83.9053 0,83.9053 c 0.30075,0 0.58914,0.1195 0.80177,0.33214 0.21265,0.21263 0.33214,0.50102 0.33214,0.80178 z"
       style="fill:#000000;fill-opacity:1;fill-rule:nonzero;stroke:#000000;stroke-width:0.28348;stroke-linecap:round;stroke-linejoin:round;stroke-miterlimit:10;stroke-dasharray:none;stroke-opacity:1"
       transform="matrix(1.6,0,0,-1.6,1933.9194,732.09632)" /><path
       id="path100"
       d="m 1.7880825,-1.143493 c -0.4003906,0.66406253 -0.79101562,0.80078128 -1.23046875,0.83007816 -0.1171875,0.009766 -0.20507812,0.009766 -0.20507812,0.20507812 0,0.05859375 0.0488281,0.10742187625 0.12695312,0.10742187625 0.2734375,0 0.57617185,-0.0292968763 0.85937505,-0.0292968763 0.3222656,0 0.6738281,0.0292968763 0.9960937,0.0292968763 0.058594,0 0.1855469,0 0.1855469,-0.18554687625 0,-0.1171875 -0.087891,-0.12695312 -0.15625,-0.12695312 -0.234375,-0.0195313 -0.46875,-0.0976563 -0.46875,-0.34179688 0,-0.12695312 0.058594,-0.234375 0.1367187,-0.37109378 l 0.7617188,-1.2792968 h 2.5 c 0.019531,0.2148437 0.15625,1.57226558 0.15625,1.66992183 0,0.29296875 -0.5175781,0.32226563 -0.7128906,0.32226563 -0.1464844,0 -0.2441407,0 -0.2441407,0.20507812 0,0.10742187625 0.1171875,0.10742187625 0.1367188,0.10742187625 0.4101562,0 0.8398437,-0.0292968763 1.25,-0.0292968763 0.2441406,0 0.8789062,0.0292968763 1.1230469,0.0292968763 0.058594,0 0.1757812,0 0.1757812,-0.19531249625 0,-0.1171875 -0.097656,-0.1171875 -0.2246094,-0.1171875 -0.6152343,0 -0.6152343,-0.0683594 -0.6445312,-0.3515625 L 5.6943325,-6.8954461 c -0.019531,-0.1953125 -0.019531,-0.234375 -0.1855469,-0.234375 -0.15625,0 -0.1953125,0.068359 -0.2539062,0.1660156 z M 2.9794888,-2.6083367 4.9423794,-5.8993523 5.264645,-2.6083367 Z M 126.65136,-0.78216484 c -0.0977,0.390625 -0.11718,0.46875 -0.9082,0.46875 -0.16601,0 -0.26367,0 -0.26367,0.20507812 0,0.10742187625 0.0879,0.10742187625 0.26367,0.10742187625 h 3.56445 c 1.57227,0 2.74414,-1.17187495625 2.74414,-2.14843745625 0,-0.7226563 -0.57617,-1.2988282 -1.54296,-1.40625 1.03515,-0.1953125 2.08007,-0.9277344 2.08007,-1.875 0,-0.7324219 -0.65429,-1.3769532 -1.85546,-1.3769532 h -3.33985 c -0.19531,0 -0.29297,0 -0.29297,0.2050782 0,0.1074218 0.0879,0.1074218 0.28321,0.1074218 0.0195,0 0.20507,0 0.37109,0.019531 0.18555,0.019531 0.27344,0.029297 0.27344,0.15625 0,0.039063 -0.01,0.068359 -0.0391,0.1953125 z m 1.50391,-2.86132816 0.61523,-2.4707031 c 0.0977,-0.3515625 0.11719,-0.3808594 0.54688,-0.3808594 h 1.2793 c 0.8789,0 1.08398,0.5859375 1.08398,1.0253907 0,0.8789062 -0.84961,1.8261718 -2.07031,1.8261718 z m -0.44922,3.33007816 c -0.13672,0 -0.15625,0 -0.21484,-0.009766 -0.0977,-0.009766 -0.12696,-0.0195313 -0.12696,-0.0976563 0,-0.0292969 0,-0.0488281 0.0488,-0.22460937 l 0.6836,-2.78320309 h 1.88476 c 0.95703,0 1.14258,0.7421875 1.14258,1.1621094 0,0.9863281 -0.88867,1.95312494 -2.06055,1.95312494 z M 132.62548,-102.96966 c 0,-0.0293 -0.0195,-0.0977 -0.10742,-0.0977 -0.0293,0 -0.0391,0.01 -0.14648,0.11719 l -0.70313,0.77148 c -0.0879,-0.14648 -0.54687,-0.88867 -1.65039,-0.88867 -2.21679,0 -4.46289,2.19726 -4.46289,4.511718 0,1.640625 1.17188,2.724609 2.69531,2.724609 0.86915,0 1.63086,-0.390625 2.15821,-0.849609 0.92773,-0.820313 1.09375,-1.728516 1.09375,-1.757813 0,-0.09766 -0.0977,-0.09766 -0.11719,-0.09766 -0.0586,0 -0.11719,0.01953 -0.13672,0.09766 -0.0879,0.292969 -0.3125,0.996094 -1.00586,1.572266 -0.68359,0.55664 -1.30859,0.732422 -1.82617,0.732422 -0.89844,0 -1.95312,-0.517578 -1.95312,-2.070313 0,-0.566406 0.20507,-2.1875 1.20117,-3.34961 0.60547,-0.70312 1.54297,-1.20117 2.43164,-1.20117 1.01562,0 1.60156,0.76172 1.60156,1.91406 0,0.40039 -0.0293,0.41016 -0.0293,0.50781 0,0.10743 0.11719,0.10743 0.15625,0.10743 0.12696,0 0.12696,-0.0195 0.17578,-0.20508 z M 0.53075828,-96.827087 c -0.0976563,0.390625 -0.1171875,0.46875 -0.90820312,0.46875 -0.16601563,0 -0.2734375,0 -0.2734375,0.195313 0,0.117187 0.0878906,0.117187 0.2734375,0.117187 H 2.9233364 c 2.0703125,0 4.0332031,-2.099609 4.0332031,-4.287113 0,-1.39648 -0.8496093,-2.51953 -2.34375,-2.51953 H 1.2729458 c -0.1953125,0 -0.30273439,0 -0.30273439,0.19532 0,0.11718 0.0878906,0.11718 0.29296879,0.11718 0.1269531,0 0.3027343,0.01 0.4296875,0.0195 0.15625,0.0195 0.2148437,0.0488 0.2148437,0.15625 0,0.0391 -0.00977,0.0684 -0.039063,0.19532 z m 2.15820312,-5.332033 c 0.087891,-0.35156 0.1074219,-0.38086 0.5371094,-0.38086 h 1.0644531 c 0.9765625,0 1.796875,0.52735 1.796875,1.84571 0,0.48828 -0.1953125,2.119136 -1.0449219,3.212886 -0.2832031,0.371094 -1.0742187,1.123047 -2.2949218,1.123047 H 1.6147427 c -0.1367188,0 -0.15625,0 -0.2148438,-0.0098 -0.097656,-0.0098 -0.1269531,-0.01953 -0.1269531,-0.09766 0,-0.0293 0,-0.04883 0.048828,-0.224609 z M 40.901852,-4.8617547 c 0.09766,-0.390625 0.283203,-0.703125 1.074219,-0.7324219 0.04883,0 0.175781,-0.00977 0.175781,-0.1953125 0,-0.00977 0,-0.1171875 -0.136719,-0.1171875 -0.322265,0 -0.673828,0.029297 -1.005859,0.029297 -0.332031,0 -0.683594,-0.029297 -1.015625,-0.029297 -0.05859,0 -0.175781,0 -0.175781,0.2050782 0,0.1074218 0.09766,0.1074218 0.175781,0.1074218 0.566406,0.00977 0.683594,0.2148438 0.683594,0.4394532 0,0.029297 -0.01953,0.1757812 -0.0293,0.2050781 L 39.524896,-0.51605156 37.32763,-5.7113641 C 37.2495,-5.8969109 37.23974,-5.9066766 37.005365,-5.9066766 H 35.67724 c -0.205078,0 -0.292969,0 -0.292969,0.2050782 0,0.1074218 0.08789,0.1074218 0.283203,0.1074218 0.04883,0 0.673828,0 0.673828,0.087891 l -1.33789,5.35156246 c -0.09766,0.40039063 -0.263672,0.71289063 -1.074219,0.7421875 -0.05859,0 -0.166016,0.009766 -0.166016,0.20507813 0,0.0683594 0.04883,0.10742187 0.126953,0.10742187 0.322266,0 0.664063,-0.0292969 0.996094,-0.0292969 0.341797,0 0.693359,0.0292969 1.025391,0.0292969 0.04883,0 0.175781,0 0.175781,-0.1953125 0,-0.10742187 -0.08789,-0.1171875 -0.195313,-0.1171875 -0.576171,-0.0195313 -0.654296,-0.234375 -0.654296,-0.43945312 0,-0.06835938 0.0098,-0.1171875 0.03906,-0.22460938 L 36.585441,-5.34027 c 0.04883,0.068359 0.04883,0.087891 0.09766,0.1855469 l 2.480469,5.86914059 c 0.06836,0.16601562 0.09766,0.18554687 0.185547,0.18554687 0.107422,0 0.107422,-0.0292969 0.15625,-0.20507812 z m 0,0"
       style="fill:#000000;fill-opacity:1;fill-rule:nonzero;stroke:none"
       aria-label="AB&#10;CD&#10;N"
       transform="matrix(1.6,0,0,1.6,1918.6042,746.34912)" /></g></svg>
