<?xml version="1.0" encoding="UTF-8" standalone="no"?>
<!-- Created with Inkscape (http://www.inkscape.org/) -->

<svg
   width="66.717499mm"
   height="63.464458mm"
   viewBox="0 0 66.717498 63.464458"
   version="1.1"
   id="svg1"
   xml:space="preserve"
   xmlns="http://www.w3.org/2000/svg"
   xmlns:svg="http://www.w3.org/2000/svg"><defs
     id="defs1" /><g
     id="g357"
     transform="matrix(0.26458333,0,0,0.26458335,-1578.6837,-144.14372)"><path
       id="path391"
       d="m 0,-51.02353 48.52592,-15.76735 v 51.02353 L 78.51672,25.51176 29.9908,41.27911 0,82.55823 -29.9908,41.27911 -78.51672,25.51176 l 29.9908,-41.27911 v -51.02353 z"
       style="fill:#00ffff;fill-opacity:1;fill-rule:nonzero;stroke:#000000;stroke-width:0.56696;stroke-linecap:butt;stroke-linejoin:round;stroke-miterlimit:10;stroke-dasharray:none;stroke-opacity:1"
       transform="matrix(1.6,0,0,-1.6,6092.7593,677.34182)" /><path
       id="path392"
       d="M 0,-29.1563 27.7291,-9.0099 17.1376,23.58806 H -17.1376 L -27.7291,-9.0099 Z"
       style="fill:#ffff00;fill-opacity:1;fill-rule:nonzero;stroke:#000000;stroke-width:0.56696;stroke-linecap:butt;stroke-linejoin:round;stroke-miterlimit:10;stroke-dasharray:none;stroke-opacity:1"
       transform="matrix(1.6,0,0,-1.6,6092.7593,677.34182)" /><path
       id="path393"
       d="M 0,-29.1563 V -51.02353"
       style="fill:none;stroke:#000000;stroke-width:0.28348;stroke-linecap:round;stroke-linejoin:round;stroke-miterlimit:10;stroke-dasharray:none;stroke-opacity:1"
       transform="matrix(1.6,0,0,-1.6,6092.7593,677.34182)" /><path
       id="path394"
       d="M 0,0 V -29.1563"
       style="fill:none;stroke:#000000;stroke-width:0.28348;stroke-linecap:round;stroke-linejoin:round;stroke-miterlimit:10;stroke-dasharray:2.87999, 2.51999;stroke-dashoffset:1.44;stroke-opacity:1"
       transform="matrix(1.6,0,0,-1.6,6092.7593,677.34182)" /><path
       id="path395"
       d="m 27.7291,-9.0099 20.79682,-6.75745"
       style="fill:none;stroke:#000000;stroke-width:0.28348;stroke-linecap:round;stroke-linejoin:round;stroke-miterlimit:10;stroke-dasharray:none;stroke-opacity:1"
       transform="matrix(1.6,0,0,-1.6,6092.7593,677.34182)" /><path
       id="path396"
       d="M 0,0 27.7291,-9.0099"
       style="fill:none;stroke:#000000;stroke-width:0.28348;stroke-linecap:round;stroke-linejoin:round;stroke-miterlimit:10;stroke-dasharray:2.87999, 2.51999;stroke-dashoffset:1.44;stroke-opacity:1"
       transform="matrix(1.6,0,0,-1.6,6092.7593,677.34182)" /><path
       id="path397"
       d="M 17.1376,23.58806 29.9908,41.27911"
       style="fill:none;stroke:#000000;stroke-width:0.28348;stroke-linecap:round;stroke-linejoin:round;stroke-miterlimit:10;stroke-dasharray:none;stroke-opacity:1"
       transform="matrix(1.6,0,0,-1.6,6092.7593,677.34182)" /><path
       id="path398"
       d="M 0,0 17.1376,23.58806"
       style="fill:none;stroke:#000000;stroke-width:0.28348;stroke-linecap:round;stroke-linejoin:round;stroke-miterlimit:10;stroke-dasharray:2.87999, 2.51999;stroke-dashoffset:1.44;stroke-opacity:1"
       transform="matrix(1.6,0,0,-1.6,6092.7593,677.34182)" /><path
       id="path399"
       d="M -17.1376,23.58806 -29.9908,41.27911"
       style="fill:none;stroke:#000000;stroke-width:0.28348;stroke-linecap:round;stroke-linejoin:round;stroke-miterlimit:10;stroke-dasharray:none;stroke-opacity:1"
       transform="matrix(1.6,0,0,-1.6,6092.7593,677.34182)" /><path
       id="path400"
       d="M 0,0 -17.1376,23.58806"
       style="fill:none;stroke:#000000;stroke-width:0.28348;stroke-linecap:round;stroke-linejoin:round;stroke-miterlimit:10;stroke-dasharray:2.87999, 2.51999;stroke-dashoffset:1.44;stroke-opacity:1"
       transform="matrix(1.6,0,0,-1.6,6092.7593,677.34182)" /><path
       id="path401"
       d="m -27.7291,-9.0099 -20.79682,-6.75745"
       style="fill:none;stroke:#000000;stroke-width:0.28348;stroke-linecap:round;stroke-linejoin:round;stroke-miterlimit:10;stroke-dasharray:none;stroke-opacity:1"
       transform="matrix(1.6,0,0,-1.6,6092.7593,677.34182)" /><path
       id="path402"
       d="M 0,0 -27.7291,-9.0099"
       style="fill:none;stroke:#000000;stroke-width:0.28348;stroke-linecap:round;stroke-linejoin:round;stroke-miterlimit:10;stroke-dasharray:2.87999, 2.51999;stroke-dashoffset:1.44;stroke-opacity:1"
       transform="matrix(1.6,0,0,-1.6,6092.7593,677.34182)" /></g></svg>
