<?xml version="1.0" encoding="UTF-8" standalone="no"?>
<svg
   width="285.104pt"
   height="112.4pt"
   viewBox="0 0 285.104 112.4"
   version="1.1"
   id="svg142"
   xmlns="http://www.w3.org/2000/svg"
   xmlns:svg="http://www.w3.org/2000/svg">
  <defs
     id="defs11">
    <clipPath
       id="clip-0">
      <path
         clip-rule="nonzero"
         d="M 187 96 L 202 96 L 202 112.398438 L 187 112.398438 Z M 187 96 "
         id="path1" />
    </clipPath>
    <clipPath
       id="clip-1">
      <path
         clip-rule="nonzero"
         d="M 201 96 L 216 96 L 216 112.398438 L 201 112.398438 Z M 201 96 "
         id="path2" />
    </clipPath>
    <clipPath
       id="clip-2">
      <path
         clip-rule="nonzero"
         d="M 215 96 L 230 96 L 230 112.398438 L 215 112.398438 Z M 215 96 "
         id="path3" />
    </clipPath>
    <clipPath
       id="clip-3">
      <path
         clip-rule="nonzero"
         d="M 229 96 L 244 96 L 244 112.398438 L 229 112.398438 Z M 229 96 "
         id="path4" />
    </clipPath>
    <clipPath
       id="clip-4">
      <path
         clip-rule="nonzero"
         d="M 243 96 L 258 96 L 258 112.398438 L 243 112.398438 Z M 243 96 "
         id="path5" />
    </clipPath>
    <clipPath
       id="clip-5">
      <path
         clip-rule="nonzero"
         d="M 270 48 L 285.105469 48 L 285.105469 65 L 270 65 Z M 270 48 "
         id="path6" />
    </clipPath>
    <clipPath
       id="clip-6">
      <path
         clip-rule="nonzero"
         d="M 27 96 L 42 96 L 42 112.398438 L 27 112.398438 Z M 27 96 "
         id="path7" />
    </clipPath>
    <clipPath
       id="clip-7">
      <path
         clip-rule="nonzero"
         d="M 41 96 L 56 96 L 56 112.398438 L 41 112.398438 Z M 41 96 "
         id="path8" />
    </clipPath>
    <clipPath
       id="clip-8">
      <path
         clip-rule="nonzero"
         d="M 55 96 L 70 96 L 70 112.398438 L 55 112.398438 Z M 55 96 "
         id="path9" />
    </clipPath>
    <clipPath
       id="clip-9">
      <path
         clip-rule="nonzero"
         d="M 69 96 L 84 96 L 84 112.398438 L 69 112.398438 Z M 69 96 "
         id="path10" />
    </clipPath>
    <clipPath
       id="clip-10">
      <path
         clip-rule="nonzero"
         d="M 83 96 L 98 96 L 98 112.398438 L 83 112.398438 Z M 83 96 "
         id="path11" />
    </clipPath>
  </defs>
  <path
     fill-rule="evenodd"
     fill="rgb(100%, 100%, 100%)"
     fill-opacity="1"
     stroke-width="0.8"
     stroke-linecap="butt"
     stroke-linejoin="round"
     stroke="rgb(0%, 0%, 0%)"
     stroke-opacity="1"
     stroke-miterlimit="10"
     d="M 399.999687 544.001562 L 386.140312 536.001562 L 386.140312 520.001562 L 399.999687 512.001562 L 413.859062 520.001562 L 413.859062 536.001562 Z M 399.999687 544.001562 "
     transform="matrix(0.5, 0, 0, -0.5, -5.16, 320.2)"
     id="path12" />
  <g
     clip-path="url(#clip-0)"
     id="g13">
    <path
       fill-rule="evenodd"
       fill="rgb(100%, 100%, 100%)"
       fill-opacity="1"
       stroke-width="0.8"
       stroke-linecap="butt"
       stroke-linejoin="round"
       stroke="rgb(0%, 0%, 0%)"
       stroke-opacity="1"
       stroke-miterlimit="10"
       d="M 399.999687 448.001562 L 386.140312 440.001562 L 386.140312 424.001562 L 399.999687 416.001562 L 413.859062 424.001562 L 413.859062 440.001562 Z M 399.999687 448.001562 "
       transform="matrix(0.5, 0, 0, -0.5, -5.16, 320.2)"
       id="path13" />
  </g>
  <g
     clip-path="url(#clip-1)"
     id="g14">
    <path
       fill-rule="evenodd"
       fill="rgb(100%, 100%, 100%)"
       fill-opacity="1"
       stroke-width="0.8"
       stroke-linecap="butt"
       stroke-linejoin="round"
       stroke="rgb(0%, 0%, 0%)"
       stroke-opacity="1"
       stroke-miterlimit="10"
       d="M 427.710625 448.001562 L 413.859062 440.001562 L 413.859062 424.001562 L 427.710625 416.001562 L 441.57 424.001562 L 441.57 440.001562 Z M 427.710625 448.001562 "
       transform="matrix(0.5, 0, 0, -0.5, -5.16, 320.2)"
       id="path14" />
  </g>
  <g
     clip-path="url(#clip-2)"
     id="g15">
    <path
       fill-rule="evenodd"
       fill="rgb(100%, 100%, 100%)"
       fill-opacity="1"
       stroke-width="0.8"
       stroke-linecap="butt"
       stroke-linejoin="round"
       stroke="rgb(0%, 0%, 0%)"
       stroke-opacity="1"
       stroke-miterlimit="10"
       d="M 455.421562 448.001562 L 441.57 440.001562 L 441.57 424.001562 L 455.421562 416.001562 L 469.280937 424.001562 L 469.280937 440.001562 Z M 455.421562 448.001562 "
       transform="matrix(0.5, 0, 0, -0.5, -5.16, 320.2)"
       id="path15" />
  </g>
  <g
     clip-path="url(#clip-3)"
     id="g16">
    <path
       fill-rule="evenodd"
       fill="rgb(100%, 100%, 100%)"
       fill-opacity="1"
       stroke-width="0.8"
       stroke-linecap="butt"
       stroke-linejoin="round"
       stroke="rgb(0%, 0%, 0%)"
       stroke-opacity="1"
       stroke-miterlimit="10"
       d="M 483.1325 448.001562 L 469.280937 440.001562 L 469.280937 424.001562 L 483.1325 416.001562 L 496.991875 424.001562 L 496.991875 440.001562 Z M 483.1325 448.001562 "
       transform="matrix(0.5, 0, 0, -0.5, -5.16, 320.2)"
       id="path16" />
  </g>
  <g
     clip-path="url(#clip-4)"
     id="g17">
    <path
       fill-rule="evenodd"
       fill="rgb(100%, 100%, 100%)"
       fill-opacity="1"
       stroke-width="0.8"
       stroke-linecap="butt"
       stroke-linejoin="round"
       stroke="rgb(0%, 0%, 0%)"
       stroke-opacity="1"
       stroke-miterlimit="10"
       d="M 510.85125 448.001562 L 496.991875 440.001562 L 496.991875 424.001562 L 510.85125 416.001562 L 524.702813 424.001562 L 524.702813 440.001562 Z M 510.85125 448.001562 "
       transform="matrix(0.5, 0, 0, -0.5, -5.16, 320.2)"
       id="path17" />
  </g>
  <path
     fill-rule="evenodd"
     fill="rgb(100%, 100%, 100%)"
     fill-opacity="1"
     stroke-width="0.8"
     stroke-linecap="butt"
     stroke-linejoin="round"
     stroke="rgb(0%, 0%, 0%)"
     stroke-opacity="1"
     stroke-miterlimit="10"
     d="M 386.140312 472.001562 L 372.28875 464.001562 L 372.28875 448.001562 L 386.140312 440.001562 L 399.999687 448.001562 L 399.999687 464.001562 Z M 386.140312 472.001562 "
     transform="matrix(0.5, 0, 0, -0.5, -5.16, 320.2)"
     id="path18" />
  <path
     fill-rule="evenodd"
     fill="rgb(100%, 100%, 100%)"
     fill-opacity="1"
     stroke-width="0.8"
     stroke-linecap="butt"
     stroke-linejoin="round"
     stroke="rgb(0%, 0%, 0%)"
     stroke-opacity="1"
     stroke-miterlimit="10"
     d="M 413.859062 472.001562 L 399.999687 464.001562 L 399.999687 448.001562 L 413.859062 440.001562 L 427.710625 448.001562 L 427.710625 464.001562 Z M 413.859062 472.001562 "
     transform="matrix(0.5, 0, 0, -0.5, -5.16, 320.2)"
     id="path19" />
  <path
     fill-rule="evenodd"
     fill="rgb(100%, 100%, 100%)"
     fill-opacity="1"
     stroke-width="0.8"
     stroke-linecap="butt"
     stroke-linejoin="round"
     stroke="rgb(0%, 0%, 0%)"
     stroke-opacity="1"
     stroke-miterlimit="10"
     d="M 441.57 472.001562 L 427.710625 464.001562 L 427.710625 448.001562 L 441.57 440.001562 L 455.421562 448.001562 L 455.421562 464.001562 Z M 441.57 472.001562 "
     transform="matrix(0.5, 0, 0, -0.5, -5.16, 320.2)"
     id="path20" />
  <path
     fill-rule="evenodd"
     fill="rgb(100%, 100%, 100%)"
     fill-opacity="1"
     stroke-width="0.8"
     stroke-linecap="butt"
     stroke-linejoin="round"
     stroke="rgb(0%, 0%, 0%)"
     stroke-opacity="1"
     stroke-miterlimit="10"
     d="M 469.280937 472.001562 L 455.421562 464.001562 L 455.421562 448.001562 L 469.280937 440.001562 L 483.1325 448.001562 L 483.1325 464.001562 Z M 469.280937 472.001562 "
     transform="matrix(0.5, 0, 0, -0.5, -5.16, 320.2)"
     id="path21" />
  <path
     fill-rule="evenodd"
     fill="rgb(100%, 100%, 100%)"
     fill-opacity="1"
     stroke-width="0.8"
     stroke-linecap="butt"
     stroke-linejoin="round"
     stroke="rgb(0%, 0%, 0%)"
     stroke-opacity="1"
     stroke-miterlimit="10"
     d="M 496.991875 472.001562 L 483.1325 464.001562 L 483.1325 448.001562 L 496.991875 440.001562 L 510.85125 448.001562 L 510.85125 464.001562 Z M 496.991875 472.001562 "
     transform="matrix(0.5, 0, 0, -0.5, -5.16, 320.2)"
     id="path22" />
  <path
     fill-rule="evenodd"
     fill="rgb(100%, 100%, 100%)"
     fill-opacity="1"
     stroke-width="0.8"
     stroke-linecap="butt"
     stroke-linejoin="round"
     stroke="rgb(0%, 0%, 0%)"
     stroke-opacity="1"
     stroke-miterlimit="10"
     d="M 524.702813 472.001562 L 510.85125 464.001562 L 510.85125 448.001562 L 524.702813 440.001562 L 538.562188 448.001562 L 538.562188 464.001562 Z M 524.702813 472.001562 "
     transform="matrix(0.5, 0, 0, -0.5, -5.16, 320.2)"
     id="path23" />
  <path
     fill-rule="evenodd"
     fill="rgb(100%, 100%, 100%)"
     fill-opacity="1"
     stroke-width="0.8"
     stroke-linecap="butt"
     stroke-linejoin="round"
     stroke="rgb(0%, 0%, 0%)"
     stroke-opacity="1"
     stroke-miterlimit="10"
     d="M 372.28875 496.001562 L 358.429375 488.001562 L 358.429375 472.001562 L 372.28875 464.001562 L 386.140312 472.001562 L 386.140312 488.001562 Z M 372.28875 496.001562 "
     transform="matrix(0.5, 0, 0, -0.5, -5.16, 320.2)"
     id="path24" />
  <path
     fill-rule="evenodd"
     fill="rgb(100%, 100%, 100%)"
     fill-opacity="1"
     stroke-width="0.8"
     stroke-linecap="butt"
     stroke-linejoin="round"
     stroke="rgb(0%, 0%, 0%)"
     stroke-opacity="1"
     stroke-miterlimit="10"
     d="M 399.999687 496.001562 L 386.140312 488.001562 L 386.140312 472.001562 L 399.999687 464.001562 L 413.859062 472.001562 L 413.859062 488.001562 Z M 399.999687 496.001562 "
     transform="matrix(0.5, 0, 0, -0.5, -5.16, 320.2)"
     id="path25" />
  <path
     fill-rule="evenodd"
     fill="rgb(100%, 100%, 100%)"
     fill-opacity="1"
     stroke-width="0.8"
     stroke-linecap="butt"
     stroke-linejoin="round"
     stroke="rgb(0%, 0%, 0%)"
     stroke-opacity="1"
     stroke-miterlimit="10"
     d="M 455.421562 496.001562 L 441.57 488.001562 L 441.57 472.001562 L 455.421562 464.001562 L 469.280937 472.001562 L 469.280937 488.001562 Z M 455.421562 496.001562 "
     transform="matrix(0.5, 0, 0, -0.5, -5.16, 320.2)"
     id="path26" />
  <path
     fill-rule="evenodd"
     fill="rgb(100%, 100%, 100%)"
     fill-opacity="1"
     stroke-width="0.8"
     stroke-linecap="butt"
     stroke-linejoin="round"
     stroke="rgb(0%, 0%, 0%)"
     stroke-opacity="1"
     stroke-miterlimit="10"
     d="M 483.1325 496.001562 L 469.280937 488.001562 L 469.280937 472.001562 L 483.1325 464.001562 L 496.991875 472.001562 L 496.991875 488.001562 Z M 483.1325 496.001562 "
     transform="matrix(0.5, 0, 0, -0.5, -5.16, 320.2)"
     id="path27" />
  <path
     fill-rule="evenodd"
     fill="rgb(100%, 100%, 100%)"
     fill-opacity="1"
     stroke-width="0.8"
     stroke-linecap="butt"
     stroke-linejoin="round"
     stroke="rgb(0%, 0%, 0%)"
     stroke-opacity="1"
     stroke-miterlimit="10"
     d="M 510.85125 496.001562 L 496.991875 488.001562 L 496.991875 472.001562 L 510.85125 464.001562 L 524.702813 472.001562 L 524.702813 488.001562 Z M 510.85125 496.001562 "
     transform="matrix(0.5, 0, 0, -0.5, -5.16, 320.2)"
     id="path28" />
  <path
     fill-rule="evenodd"
     fill="rgb(100%, 100%, 100%)"
     fill-opacity="1"
     stroke-width="0.8"
     stroke-linecap="butt"
     stroke-linejoin="round"
     stroke="rgb(0%, 0%, 0%)"
     stroke-opacity="1"
     stroke-miterlimit="10"
     d="M 358.429375 520.001562 L 344.577812 512.001562 L 344.577812 496.001562 L 358.429375 488.001562 L 372.28875 496.001562 L 372.28875 512.001562 Z M 358.429375 520.001562 "
     transform="matrix(0.5, 0, 0, -0.5, -5.16, 320.2)"
     id="path29" />
  <path
     fill-rule="evenodd"
     fill="rgb(100%, 100%, 100%)"
     fill-opacity="1"
     stroke-width="0.8"
     stroke-linecap="butt"
     stroke-linejoin="round"
     stroke="rgb(0%, 0%, 0%)"
     stroke-opacity="1"
     stroke-miterlimit="10"
     d="M 413.859062 520.001562 L 399.999687 512.001562 L 399.999687 496.001562 L 413.859062 488.001562 L 427.710625 496.001562 L 427.710625 512.001562 Z M 413.859062 520.001562 "
     transform="matrix(0.5, 0, 0, -0.5, -5.16, 320.2)"
     id="path30" />
  <path
     fill-rule="evenodd"
     fill="rgb(100%, 100%, 100%)"
     fill-opacity="1"
     stroke-width="0.8"
     stroke-linecap="butt"
     stroke-linejoin="round"
     stroke="rgb(0%, 0%, 0%)"
     stroke-opacity="1"
     stroke-miterlimit="10"
     d="M 441.57 520.001562 L 427.710625 512.001562 L 427.710625 496.001562 L 441.57 488.001562 L 455.421562 496.001562 L 455.421562 512.001562 Z M 441.57 520.001562 "
     transform="matrix(0.5, 0, 0, -0.5, -5.16, 320.2)"
     id="path31" />
  <path
     fill-rule="evenodd"
     fill="rgb(100%, 100%, 100%)"
     fill-opacity="1"
     stroke-width="0.8"
     stroke-linecap="butt"
     stroke-linejoin="round"
     stroke="rgb(0%, 0%, 0%)"
     stroke-opacity="1"
     stroke-miterlimit="10"
     d="M 496.991875 520.001562 L 483.1325 512.001562 L 483.1325 496.001562 L 496.991875 488.001562 L 510.85125 496.001562 L 510.85125 512.001562 Z M 496.991875 520.001562 "
     transform="matrix(0.5, 0, 0, -0.5, -5.16, 320.2)"
     id="path32" />
  <path
     fill-rule="evenodd"
     fill="rgb(100%, 100%, 100%)"
     fill-opacity="1"
     stroke-width="0.8"
     stroke-linecap="butt"
     stroke-linejoin="round"
     stroke="rgb(0%, 0%, 0%)"
     stroke-opacity="1"
     stroke-miterlimit="10"
     d="M 344.577812 544.001562 L 330.718437 536.001562 L 330.718437 520.001562 L 344.577812 512.001562 L 358.429375 520.001562 L 358.429375 536.001562 Z M 344.577812 544.001562 "
     transform="matrix(0.5, 0, 0, -0.5, -5.16, 320.2)"
     id="path33" />
  <path
     fill-rule="evenodd"
     fill="rgb(100%, 100%, 100%)"
     fill-opacity="1"
     stroke-width="0.8"
     stroke-linecap="butt"
     stroke-linejoin="round"
     stroke="rgb(0%, 0%, 0%)"
     stroke-opacity="1"
     stroke-miterlimit="10"
     d="M 372.28875 544.001562 L 358.429375 536.001562 L 358.429375 520.001562 L 372.28875 512.001562 L 386.140312 520.001562 L 386.140312 536.001562 Z M 372.28875 544.001562 "
     transform="matrix(0.5, 0, 0, -0.5, -5.16, 320.2)"
     id="path34" />
  <path
     fill-rule="evenodd"
     fill="rgb(100%, 100%, 100%)"
     fill-opacity="1"
     stroke-width="0.8"
     stroke-linecap="butt"
     stroke-linejoin="round"
     stroke="rgb(0%, 0%, 0%)"
     stroke-opacity="1"
     stroke-miterlimit="10"
     d="M 455.421562 544.001562 L 441.57 536.001562 L 441.57 520.001562 L 455.421562 512.001562 L 469.280937 520.001562 L 469.280937 536.001562 Z M 455.421562 544.001562 "
     transform="matrix(0.5, 0, 0, -0.5, -5.16, 320.2)"
     id="path35" />
  <path
     fill-rule="evenodd"
     fill="rgb(100%, 100%, 100%)"
     fill-opacity="1"
     stroke-width="0.8"
     stroke-linecap="butt"
     stroke-linejoin="round"
     stroke="rgb(0%, 0%, 0%)"
     stroke-opacity="1"
     stroke-miterlimit="10"
     d="M 483.1325 544.001562 L 469.280937 536.001562 L 469.280937 520.001562 L 483.1325 512.001562 L 496.991875 520.001562 L 496.991875 536.001562 Z M 483.1325 544.001562 "
     transform="matrix(0.5, 0, 0, -0.5, -5.16, 320.2)"
     id="path36" />
  <path
     fill-rule="evenodd"
     fill="rgb(100%, 100%, 100%)"
     fill-opacity="1"
     stroke-width="0.8"
     stroke-linecap="butt"
     stroke-linejoin="round"
     stroke="rgb(0%, 0%, 0%)"
     stroke-opacity="1"
     stroke-miterlimit="10"
     d="M 358.429375 568.001562 L 344.577812 560.001562 L 344.577812 544.001562 L 358.429375 536.001562 L 372.28875 544.001562 L 372.28875 560.001562 Z M 358.429375 568.001562 "
     transform="matrix(0.5, 0, 0, -0.5, -5.16, 320.2)"
     id="path37" />
  <path
     fill-rule="evenodd"
     fill="rgb(100%, 100%, 100%)"
     fill-opacity="1"
     stroke-width="0.8"
     stroke-linecap="butt"
     stroke-linejoin="round"
     stroke="rgb(0%, 0%, 0%)"
     stroke-opacity="1"
     stroke-miterlimit="10"
     d="M 413.859062 568.001562 L 399.999687 560.001562 L 399.999687 544.001562 L 413.859062 536.001562 L 427.710625 544.001562 L 427.710625 560.001562 Z M 413.859062 568.001562 "
     transform="matrix(0.5, 0, 0, -0.5, -5.16, 320.2)"
     id="path38" />
  <path
     fill-rule="evenodd"
     fill="rgb(100%, 100%, 100%)"
     fill-opacity="1"
     stroke-width="0.8"
     stroke-linecap="butt"
     stroke-linejoin="round"
     stroke="rgb(0%, 0%, 0%)"
     stroke-opacity="1"
     stroke-miterlimit="10"
     d="M 441.57 568.001562 L 427.710625 560.001562 L 427.710625 544.001562 L 441.57 536.001562 L 455.421562 544.001562 L 455.421562 560.001562 Z M 441.57 568.001562 "
     transform="matrix(0.5, 0, 0, -0.5, -5.16, 320.2)"
     id="path39" />
  <path
     fill-rule="evenodd"
     fill="rgb(100%, 100%, 100%)"
     fill-opacity="1"
     stroke-width="0.8"
     stroke-linecap="butt"
     stroke-linejoin="round"
     stroke="rgb(0%, 0%, 0%)"
     stroke-opacity="1"
     stroke-miterlimit="10"
     d="M 496.991875 568.001562 L 483.1325 560.001562 L 483.1325 544.001562 L 496.991875 536.001562 L 510.85125 544.001562 L 510.85125 560.001562 Z M 496.991875 568.001562 "
     transform="matrix(0.5, 0, 0, -0.5, -5.16, 320.2)"
     id="path40" />
  <path
     fill-rule="evenodd"
     fill="rgb(100%, 100%, 100%)"
     fill-opacity="1"
     stroke-width="0.8"
     stroke-linecap="butt"
     stroke-linejoin="round"
     stroke="rgb(0%, 0%, 0%)"
     stroke-opacity="1"
     stroke-miterlimit="10"
     d="M 372.28875 592.001562 L 358.429375 584.001562 L 358.429375 568.001562 L 372.28875 560.001562 L 386.140312 568.001562 L 386.140312 584.001562 Z M 372.28875 592.001562 "
     transform="matrix(0.5, 0, 0, -0.5, -5.16, 320.2)"
     id="path41" />
  <path
     fill-rule="evenodd"
     fill="rgb(100%, 100%, 100%)"
     fill-opacity="1"
     stroke-width="0.8"
     stroke-linecap="butt"
     stroke-linejoin="round"
     stroke="rgb(0%, 0%, 0%)"
     stroke-opacity="1"
     stroke-miterlimit="10"
     d="M 399.999687 592.001562 L 386.140312 584.001562 L 386.140312 568.001562 L 399.999687 560.001562 L 413.859062 568.001562 L 413.859062 584.001562 Z M 399.999687 592.001562 "
     transform="matrix(0.5, 0, 0, -0.5, -5.16, 320.2)"
     id="path42" />
  <path
     fill-rule="evenodd"
     fill="rgb(100%, 100%, 100%)"
     fill-opacity="1"
     stroke-width="0.8"
     stroke-linecap="butt"
     stroke-linejoin="round"
     stroke="rgb(0%, 0%, 0%)"
     stroke-opacity="1"
     stroke-miterlimit="10"
     d="M 455.421562 592.001562 L 441.57 584.001562 L 441.57 568.001562 L 455.421562 560.001562 L 469.280937 568.001562 L 469.280937 584.001562 Z M 455.421562 592.001562 "
     transform="matrix(0.5, 0, 0, -0.5, -5.16, 320.2)"
     id="path43" />
  <path
     fill-rule="evenodd"
     fill="rgb(100%, 100%, 100%)"
     fill-opacity="1"
     stroke-width="0.8"
     stroke-linecap="butt"
     stroke-linejoin="round"
     stroke="rgb(0%, 0%, 0%)"
     stroke-opacity="1"
     stroke-miterlimit="10"
     d="M 483.1325 592.001562 L 469.280937 584.001562 L 469.280937 568.001562 L 483.1325 560.001562 L 496.991875 568.001562 L 496.991875 584.001562 Z M 483.1325 592.001562 "
     transform="matrix(0.5, 0, 0, -0.5, -5.16, 320.2)"
     id="path44" />
  <path
     fill-rule="evenodd"
     fill="rgb(100%, 100%, 100%)"
     fill-opacity="1"
     stroke-width="0.8"
     stroke-linecap="butt"
     stroke-linejoin="round"
     stroke="rgb(0%, 0%, 0%)"
     stroke-opacity="1"
     stroke-miterlimit="10"
     d="M 510.85125 592.001562 L 496.991875 584.001562 L 496.991875 568.001562 L 510.85125 560.001562 L 524.702813 568.001562 L 524.702813 584.001562 Z M 510.85125 592.001562 "
     transform="matrix(0.5, 0, 0, -0.5, -5.16, 320.2)"
     id="path45" />
  <path
     fill-rule="evenodd"
     fill="rgb(100%, 100%, 100%)"
     fill-opacity="1"
     stroke-width="0.8"
     stroke-linecap="butt"
     stroke-linejoin="round"
     stroke="rgb(0%, 0%, 0%)"
     stroke-opacity="1"
     stroke-miterlimit="10"
     d="M 386.140312 616.001562 L 372.28875 608.001562 L 372.28875 592.001562 L 386.140312 584.001562 L 399.999687 592.001562 L 399.999687 608.001562 Z M 386.140312 616.001562 "
     transform="matrix(0.5, 0, 0, -0.5, -5.16, 320.2)"
     id="path46" />
  <path
     fill-rule="evenodd"
     fill="rgb(100%, 100%, 100%)"
     fill-opacity="1"
     stroke-width="0.8"
     stroke-linecap="butt"
     stroke-linejoin="round"
     stroke="rgb(0%, 0%, 0%)"
     stroke-opacity="1"
     stroke-miterlimit="10"
     d="M 413.859062 616.001562 L 399.999687 608.001562 L 399.999687 592.001562 L 413.859062 584.001562 L 427.710625 592.001562 L 427.710625 608.001562 Z M 413.859062 616.001562 "
     transform="matrix(0.5, 0, 0, -0.5, -5.16, 320.2)"
     id="path47" />
  <path
     fill-rule="evenodd"
     fill="rgb(100%, 100%, 100%)"
     fill-opacity="1"
     stroke-width="0.8"
     stroke-linecap="butt"
     stroke-linejoin="round"
     stroke="rgb(0%, 0%, 0%)"
     stroke-opacity="1"
     stroke-miterlimit="10"
     d="M 441.57 616.001562 L 427.710625 608.001562 L 427.710625 592.001562 L 441.57 584.001562 L 455.421562 592.001562 L 455.421562 608.001562 Z M 441.57 616.001562 "
     transform="matrix(0.5, 0, 0, -0.5, -5.16, 320.2)"
     id="path48" />
  <path
     fill-rule="evenodd"
     fill="rgb(100%, 100%, 100%)"
     fill-opacity="1"
     stroke-width="0.8"
     stroke-linecap="butt"
     stroke-linejoin="round"
     stroke="rgb(0%, 0%, 0%)"
     stroke-opacity="1"
     stroke-miterlimit="10"
     d="M 469.280937 616.001562 L 455.421562 608.001562 L 455.421562 592.001562 L 469.280937 584.001562 L 483.1325 592.001562 L 483.1325 608.001562 Z M 469.280937 616.001562 "
     transform="matrix(0.5, 0, 0, -0.5, -5.16, 320.2)"
     id="path49" />
  <path
     fill-rule="evenodd"
     fill="rgb(100%, 100%, 100%)"
     fill-opacity="1"
     stroke-width="0.8"
     stroke-linecap="butt"
     stroke-linejoin="round"
     stroke="rgb(0%, 0%, 0%)"
     stroke-opacity="1"
     stroke-miterlimit="10"
     d="M 496.991875 616.001562 L 483.1325 608.001562 L 483.1325 592.001562 L 496.991875 584.001562 L 510.85125 592.001562 L 510.85125 608.001562 Z M 496.991875 616.001562 "
     transform="matrix(0.5, 0, 0, -0.5, -5.16, 320.2)"
     id="path50" />
  <path
     fill-rule="evenodd"
     fill="rgb(100%, 100%, 100%)"
     fill-opacity="1"
     stroke-width="0.8"
     stroke-linecap="butt"
     stroke-linejoin="round"
     stroke="rgb(0%, 0%, 0%)"
     stroke-opacity="1"
     stroke-miterlimit="10"
     d="M 524.702813 616.001562 L 510.85125 608.001562 L 510.85125 592.001562 L 524.702813 584.001562 L 538.562188 592.001562 L 538.562188 608.001562 Z M 524.702813 616.001562 "
     transform="matrix(0.5, 0, 0, -0.5, -5.16, 320.2)"
     id="path51" />
  <path
     fill-rule="evenodd"
     fill="rgb(100%, 100%, 100%)"
     fill-opacity="1"
     stroke-width="0.8"
     stroke-linecap="butt"
     stroke-linejoin="round"
     stroke="rgb(0%, 0%, 0%)"
     stroke-opacity="1"
     stroke-miterlimit="10"
     d="M 399.999687 640.001562 L 386.140312 632.001562 L 386.140312 616.001562 L 399.999687 608.001562 L 413.859062 616.001562 L 413.859062 632.001562 Z M 399.999687 640.001562 "
     transform="matrix(0.5, 0, 0, -0.5, -5.16, 320.2)"
     id="path52" />
  <path
     fill-rule="evenodd"
     fill="rgb(100%, 100%, 100%)"
     fill-opacity="1"
     stroke-width="0.8"
     stroke-linecap="butt"
     stroke-linejoin="round"
     stroke="rgb(0%, 0%, 0%)"
     stroke-opacity="1"
     stroke-miterlimit="10"
     d="M 427.710625 640.001562 L 413.859062 632.001562 L 413.859062 616.001562 L 427.710625 608.001562 L 441.57 616.001562 L 441.57 632.001562 Z M 427.710625 640.001562 "
     transform="matrix(0.5, 0, 0, -0.5, -5.16, 320.2)"
     id="path53" />
  <path
     fill-rule="evenodd"
     fill="rgb(100%, 100%, 100%)"
     fill-opacity="1"
     stroke-width="0.8"
     stroke-linecap="butt"
     stroke-linejoin="round"
     stroke="rgb(0%, 0%, 0%)"
     stroke-opacity="1"
     stroke-miterlimit="10"
     d="M 455.421562 640.001562 L 441.57 632.001562 L 441.57 616.001562 L 455.421562 608.001562 L 469.280937 616.001562 L 469.280937 632.001562 Z M 455.421562 640.001562 "
     transform="matrix(0.5, 0, 0, -0.5, -5.16, 320.2)"
     id="path54" />
  <path
     fill-rule="evenodd"
     fill="rgb(100%, 100%, 100%)"
     fill-opacity="1"
     stroke-width="0.8"
     stroke-linecap="butt"
     stroke-linejoin="round"
     stroke="rgb(0%, 0%, 0%)"
     stroke-opacity="1"
     stroke-miterlimit="10"
     d="M 483.1325 640.001562 L 469.280937 632.001562 L 469.280937 616.001562 L 483.1325 608.001562 L 496.991875 616.001562 L 496.991875 632.001562 Z M 483.1325 640.001562 "
     transform="matrix(0.5, 0, 0, -0.5, -5.16, 320.2)"
     id="path55" />
  <path
     fill-rule="evenodd"
     fill="rgb(100%, 100%, 100%)"
     fill-opacity="1"
     stroke-width="0.8"
     stroke-linecap="butt"
     stroke-linejoin="round"
     stroke="rgb(0%, 0%, 0%)"
     stroke-opacity="1"
     stroke-miterlimit="10"
     d="M 510.85125 640.001562 L 496.991875 632.001562 L 496.991875 616.001562 L 510.85125 608.001562 L 524.702813 616.001562 L 524.702813 632.001562 Z M 510.85125 640.001562 "
     transform="matrix(0.5, 0, 0, -0.5, -5.16, 320.2)"
     id="path56" />
  <path
     fill-rule="evenodd"
     fill="rgb(100%, 100%, 100%)"
     fill-opacity="1"
     stroke-width="0.8"
     stroke-linecap="butt"
     stroke-linejoin="round"
     stroke="rgb(0%, 0%, 0%)"
     stroke-opacity="1"
     stroke-miterlimit="10"
     d="M 538.562188 496.001562 L 524.702813 488.001562 L 524.702813 472.001562 L 538.562188 464.001562 L 552.41375 472.001562 L 552.41375 488.001562 Z M 538.562188 496.001562 "
     transform="matrix(0.5, 0, 0, -0.5, -5.16, 320.2)"
     id="path57" />
  <path
     fill-rule="evenodd"
     fill="rgb(100%, 100%, 100%)"
     fill-opacity="1"
     stroke-width="0.8"
     stroke-linecap="butt"
     stroke-linejoin="round"
     stroke="rgb(0%, 0%, 0%)"
     stroke-opacity="1"
     stroke-miterlimit="10"
     d="M 524.702813 520.001562 L 510.85125 512.001562 L 510.85125 496.001562 L 524.702813 488.001562 L 538.562188 496.001562 L 538.562188 512.001562 Z M 524.702813 520.001562 "
     transform="matrix(0.5, 0, 0, -0.5, -5.16, 320.2)"
     id="path58" />
  <path
     fill-rule="evenodd"
     fill="rgb(100%, 100%, 100%)"
     fill-opacity="1"
     stroke-width="0.8"
     stroke-linecap="butt"
     stroke-linejoin="round"
     stroke="rgb(0%, 0%, 0%)"
     stroke-opacity="1"
     stroke-miterlimit="10"
     d="M 552.41375 520.001562 L 538.562188 512.001562 L 538.562188 496.001562 L 552.41375 488.001562 L 566.273125 496.001562 L 566.273125 512.001562 Z M 552.41375 520.001562 "
     transform="matrix(0.5, 0, 0, -0.5, -5.16, 320.2)"
     id="path59" />
  <path
     fill-rule="evenodd"
     fill="rgb(100%, 100%, 100%)"
     fill-opacity="1"
     stroke-width="0.8"
     stroke-linecap="butt"
     stroke-linejoin="round"
     stroke="rgb(0%, 0%, 0%)"
     stroke-opacity="1"
     stroke-miterlimit="10"
     d="M 510.85125 544.001562 L 496.991875 536.001562 L 496.991875 520.001562 L 510.85125 512.001562 L 524.702813 520.001562 L 524.702813 536.001562 Z M 510.85125 544.001562 "
     transform="matrix(0.5, 0, 0, -0.5, -5.16, 320.2)"
     id="path60" />
  <path
     fill-rule="evenodd"
     fill="rgb(100%, 100%, 100%)"
     fill-opacity="1"
     stroke-width="0.8"
     stroke-linecap="butt"
     stroke-linejoin="round"
     stroke="rgb(0%, 0%, 0%)"
     stroke-opacity="1"
     stroke-miterlimit="10"
     d="M 538.562188 544.001562 L 524.702813 536.001562 L 524.702813 520.001562 L 538.562188 512.001562 L 552.41375 520.001562 L 552.41375 536.001562 Z M 538.562188 544.001562 "
     transform="matrix(0.5, 0, 0, -0.5, -5.16, 320.2)"
     id="path61" />
  <path
     fill-rule="evenodd"
     fill="rgb(100%, 100%, 100%)"
     fill-opacity="1"
     d="M 277.976562 48.199219 L 271.046875 52.199219 L 271.046875 60.199219 L 277.976562 64.199219 L 284.902344 60.199219 L 284.902344 52.199219 Z M 277.976562 48.199219 "
     id="path62" />
  <g
     clip-path="url(#clip-5)"
     id="g63">
    <path
       fill="none"
       stroke-width="0.8"
       stroke-linecap="butt"
       stroke-linejoin="round"
       stroke="rgb(0%, 0%, 0%)"
       stroke-opacity="1"
       stroke-miterlimit="10"
       d="M 566.273125 544.001562 L 552.41375 536.001562 L 552.41375 520.001562 L 566.273125 512.001562 L 580.124688 520.001562 L 580.124688 536.001562 Z M 566.273125 544.001562 "
       transform="matrix(0.5, 0, 0, -0.5, -5.16, 320.2)"
       id="path63" />
  </g>
  <path
     fill-rule="evenodd"
     fill="rgb(100%, 100%, 100%)"
     fill-opacity="1"
     stroke-width="0.8"
     stroke-linecap="butt"
     stroke-linejoin="round"
     stroke="rgb(0%, 0%, 0%)"
     stroke-opacity="1"
     stroke-miterlimit="10"
     d="M 524.702813 568.001562 L 510.85125 560.001562 L 510.85125 544.001562 L 524.702813 536.001562 L 538.562188 544.001562 L 538.562188 560.001562 Z M 524.702813 568.001562 "
     transform="matrix(0.5, 0, 0, -0.5, -5.16, 320.2)"
     id="path64" />
  <path
     fill-rule="evenodd"
     fill="rgb(100%, 100%, 100%)"
     fill-opacity="1"
     stroke-width="0.8"
     stroke-linecap="butt"
     stroke-linejoin="round"
     stroke="rgb(0%, 0%, 0%)"
     stroke-opacity="1"
     stroke-miterlimit="10"
     d="M 552.41375 568.001562 L 538.562188 560.001562 L 538.562188 544.001562 L 552.41375 536.001562 L 566.273125 544.001562 L 566.273125 560.001562 Z M 552.41375 568.001562 "
     transform="matrix(0.5, 0, 0, -0.5, -5.16, 320.2)"
     id="path65" />
  <path
     fill-rule="evenodd"
     fill="rgb(100%, 100%, 100%)"
     fill-opacity="1"
     stroke-width="0.8"
     stroke-linecap="butt"
     stroke-linejoin="round"
     stroke="rgb(0%, 0%, 0%)"
     stroke-opacity="1"
     stroke-miterlimit="10"
     d="M 538.562188 592.001562 L 524.702813 584.001562 L 524.702813 568.001562 L 538.562188 560.001562 L 552.41375 568.001562 L 552.41375 584.001562 Z M 538.562188 592.001562 "
     transform="matrix(0.5, 0, 0, -0.5, -5.16, 320.2)"
     id="path66" />
  <path
     fill-rule="evenodd"
     fill="rgb(100%, 100%, 100%)"
     fill-opacity="1"
     stroke-width="0.8"
     stroke-linecap="butt"
     stroke-linejoin="round"
     stroke="rgb(0%, 0%, 0%)"
     stroke-opacity="1"
     stroke-miterlimit="10"
     d="M 427.710625 544.001562 L 413.859062 536.001562 L 413.859062 520.001562 L 427.710625 512.001562 L 441.57 520.001562 L 441.57 536.001562 Z M 427.710625 544.001562 "
     transform="matrix(0.5, 0, 0, -0.5, -5.16, 320.2)"
     id="path67" />
  <path
     fill-rule="evenodd"
     fill="rgb(100%, 100%, 100%)"
     fill-opacity="1"
     stroke-width="0.8"
     stroke-linecap="butt"
     stroke-linejoin="round"
     stroke="rgb(0%, 0%, 0%)"
     stroke-opacity="1"
     stroke-miterlimit="10"
     d="M 386.140312 568.001562 L 372.28875 560.001562 L 372.28875 544.001562 L 386.140312 536.001562 L 399.999687 544.001562 L 399.999687 560.001562 Z M 386.140312 568.001562 "
     transform="matrix(0.5, 0, 0, -0.5, -5.16, 320.2)"
     id="path68" />
  <path
     fill-rule="evenodd"
     fill="rgb(100%, 100%, 100%)"
     fill-opacity="1"
     stroke-width="0.8"
     stroke-linecap="butt"
     stroke-linejoin="round"
     stroke="rgb(0%, 0%, 0%)"
     stroke-opacity="1"
     stroke-miterlimit="10"
     d="M 427.710625 592.001562 L 413.859062 584.001562 L 413.859062 568.001562 L 427.710625 560.001562 L 441.57 568.001562 L 441.57 584.001562 Z M 427.710625 592.001562 "
     transform="matrix(0.5, 0, 0, -0.5, -5.16, 320.2)"
     id="path69" />
  <path
     fill-rule="evenodd"
     fill="rgb(100%, 100%, 100%)"
     fill-opacity="1"
     stroke-width="0.8"
     stroke-linecap="butt"
     stroke-linejoin="round"
     stroke="rgb(0%, 0%, 0%)"
     stroke-opacity="1"
     stroke-miterlimit="10"
     d="M 469.280937 568.001562 L 455.421562 560.001562 L 455.421562 544.001562 L 469.280937 536.001562 L 483.1325 544.001562 L 483.1325 560.001562 Z M 469.280937 568.001562 "
     transform="matrix(0.5, 0, 0, -0.5, -5.16, 320.2)"
     id="path70" />
  <path
     fill-rule="evenodd"
     fill="rgb(100%, 100%, 100%)"
     fill-opacity="1"
     stroke-width="0.8"
     stroke-linecap="butt"
     stroke-linejoin="round"
     stroke="rgb(0%, 0%, 0%)"
     stroke-opacity="1"
     stroke-miterlimit="10"
     d="M 469.280937 520.001562 L 455.421562 512.001562 L 455.421562 496.001562 L 469.280937 488.001562 L 483.1325 496.001562 L 483.1325 512.001562 Z M 469.280937 520.001562 "
     transform="matrix(0.5, 0, 0, -0.5, -5.16, 320.2)"
     id="path71" />
  <path
     fill-rule="evenodd"
     fill="rgb(100%, 100%, 100%)"
     fill-opacity="1"
     stroke-width="0.8"
     stroke-linecap="butt"
     stroke-linejoin="round"
     stroke="rgb(0%, 0%, 0%)"
     stroke-opacity="1"
     stroke-miterlimit="10"
     d="M 427.710625 496.001562 L 413.859062 488.001562 L 413.859062 472.001562 L 427.710625 464.001562 L 441.57 472.001562 L 441.57 488.001562 Z M 427.710625 496.001562 "
     transform="matrix(0.5, 0, 0, -0.5, -5.16, 320.2)"
     id="path72" />
  <path
     fill-rule="evenodd"
     fill="rgb(100%, 100%, 100%)"
     fill-opacity="1"
     stroke-width="0.8"
     stroke-linecap="butt"
     stroke-linejoin="round"
     stroke="rgb(0%, 0%, 0%)"
     stroke-opacity="1"
     stroke-miterlimit="10"
     d="M 386.140312 520.001562 L 372.28875 512.001562 L 372.28875 496.001562 L 386.140312 488.001562 L 399.999687 496.001562 L 399.999687 512.001562 Z M 386.140312 520.001562 "
     transform="matrix(0.5, 0, 0, -0.5, -5.16, 320.2)"
     id="path73" />
  <path
     fill-rule="evenodd"
     fill="rgb(100%, 100%, 0%)"
     fill-opacity="1"
     stroke-width="0.8"
     stroke-linecap="butt"
     stroke-linejoin="round"
     stroke="rgb(0%, 0%, 0%)"
     stroke-opacity="1"
     stroke-miterlimit="10"
     d="M 441.57 568.001562 L 427.710625 560.001562 L 427.710625 544.001562 L 441.57 536.001562 L 455.421562 544.001562 L 455.421562 560.001562 Z M 441.57 568.001562 "
     transform="matrix(0.5, 0, 0, -0.5, -5.16, 320.2)"
     id="path74" />
  <path
     fill-rule="evenodd"
     fill="rgb(0%, 0%, 0%)"
     fill-opacity="1"
     d="M 212.976562 42.695312 C 213.246094 42.695312 213.53125 42.539062 213.832031 42.226562 C 213.996094 42.066406 214.074219 41.925781 214.074219 41.808594 C 214.074219 41.667969 213.945312 41.597656 213.6875 41.597656 C 213.386719 41.597656 213.132812 41.734375 212.929688 42.003906 C 212.820312 42.132812 212.769531 42.265625 212.769531 42.40625 C 212.769531 42.597656 212.839844 42.695312 212.976562 42.695312 M 212.703125 39.164062 C 212.726562 39.164062 212.777344 39.15625 212.863281 39.144531 C 213.347656 39.144531 213.867188 39.308594 214.414062 39.628906 C 214.480469 39.671875 214.511719 39.695312 214.511719 39.695312 C 214.824219 39.191406 215.058594 38.9375 215.222656 38.9375 C 215.566406 39.128906 215.792969 39.339844 215.898438 39.566406 C 215.953125 39.671875 216.035156 39.898438 216.140625 40.242188 C 216.226562 40.222656 216.3125 40.210938 216.398438 40.210938 C 217.304688 40.210938 218.164062 40.765625 218.980469 41.875 C 219.960938 43.152344 220.449219 44.898438 220.449219 47.101562 C 220.449219 47.597656 220.429688 48.042969 220.386719 48.441406 L 213.574219 48.441406 C 213.597656 47.71875 213.859375 47.039062 214.367188 46.390625 C 214.421875 46.304688 214.496094 46.210938 214.59375 46.101562 C 214.988281 45.597656 215.230469 45.207031 215.316406 44.941406 C 215.359375 44.800781 215.394531 44.65625 215.414062 44.503906 C 214.703125 44.785156 214.171875 45.199219 213.816406 45.746094 C 213.65625 46.015625 213.476562 46.296875 213.285156 46.585938 C 213.230469 46.671875 213.148438 46.714844 213.042969 46.714844 C 212.773438 46.714844 212.640625 46.546875 212.640625 46.214844 C 212.53125 46.355469 212.40625 46.425781 212.269531 46.425781 C 212.269531 46.425781 212.160156 46.398438 211.945312 46.34375 C 211.484375 46.226562 211.15625 46.019531 210.960938 45.730469 C 210.898438 45.632812 210.828125 45.503906 210.75 45.34375 C 210.828125 44.878906 211.199219 43.960938 211.863281 42.582031 C 212.347656 41.59375 212.648438 40.882812 212.769531 40.453125 C 212.777344 40.355469 212.785156 40.214844 212.785156 40.035156 C 212.785156 39.882812 212.757812 39.59375 212.703125 39.164062 M 211.734375 44.828125 C 211.476562 44.828125 211.304688 44.941406 211.21875 45.164062 C 211.199219 45.21875 211.1875 45.273438 211.1875 45.328125 C 211.1875 45.371094 211.203125 45.421875 211.234375 45.488281 C 211.515625 45.488281 211.6875 45.371094 211.753906 45.132812 C 211.761719 45.101562 211.769531 45.0625 211.769531 45.019531 C 211.769531 45 211.757812 44.933594 211.734375 44.828125 M 219.660156 47.3125 L 219.660156 46.714844 C 219.660156 44.960938 219.210938 43.523438 218.320312 42.40625 C 217.546875 41.4375 216.839844 40.953125 216.207031 40.953125 C 216.207031 40.953125 216.140625 40.941406 216.011719 40.921875 C 215.992188 40.933594 215.972656 40.941406 215.964844 40.953125 C 215.824219 40.953125 215.753906 41.011719 215.753906 41.132812 C 215.753906 41.175781 215.785156 41.226562 215.851562 41.292969 C 216.429688 41.347656 217.066406 41.761719 217.753906 42.535156 C 218.625 43.546875 219.0625 45.007812 219.0625 46.925781 C 219.0625 46.925781 219.0625 46.957031 219.0625 47.023438 C 219.0625 47.496094 219.164062 47.730469 219.367188 47.730469 C 219.539062 47.730469 219.636719 47.589844 219.660156 47.3125 "
     id="path75" />
  <path
     fill-rule="evenodd"
     fill="rgb(84.498596%, 51.499939%, 100%)"
     fill-opacity="1"
     stroke-width="0.8"
     stroke-linecap="butt"
     stroke-linejoin="round"
     stroke="rgb(0%, 0%, 0%)"
     stroke-opacity="1"
     stroke-miterlimit="10"
     d="M 399.999687 592.001562 L 386.140312 584.001562 L 386.140312 568.001562 L 399.999687 560.001562 L 413.859062 568.001562 L 413.859062 584.001562 Z M 399.999687 592.001562 "
     transform="matrix(0.5, 0, 0, -0.5, -5.16, 320.2)"
     id="path76" />
  <path
     fill-rule="evenodd"
     fill="rgb(84.498596%, 51.499939%, 100%)"
     fill-opacity="1"
     stroke-width="0.8"
     stroke-linecap="butt"
     stroke-linejoin="round"
     stroke="rgb(0%, 0%, 0%)"
     stroke-opacity="1"
     stroke-miterlimit="10"
     d="M 441.57 616.001562 L 427.710625 608.001562 L 427.710625 592.001562 L 441.57 584.001562 L 455.421562 592.001562 L 455.421562 608.001562 Z M 441.57 616.001562 "
     transform="matrix(0.5, 0, 0, -0.5, -5.16, 320.2)"
     id="path77" />
  <path
     fill-rule="evenodd"
     fill="rgb(84.498596%, 51.499939%, 100%)"
     fill-opacity="1"
     stroke-width="0.8"
     stroke-linecap="butt"
     stroke-linejoin="round"
     stroke="rgb(0%, 0%, 0%)"
     stroke-opacity="1"
     stroke-miterlimit="10"
     d="M 483.1325 592.001562 L 469.280937 584.001562 L 469.280937 568.001562 L 483.1325 560.001562 L 496.991875 568.001562 L 496.991875 584.001562 Z M 483.1325 592.001562 "
     transform="matrix(0.5, 0, 0, -0.5, -5.16, 320.2)"
     id="path78" />
  <path
     fill-rule="evenodd"
     fill="rgb(84.498596%, 51.499939%, 100%)"
     fill-opacity="1"
     stroke-width="0.8"
     stroke-linecap="butt"
     stroke-linejoin="round"
     stroke="rgb(0%, 0%, 0%)"
     stroke-opacity="1"
     stroke-miterlimit="10"
     d="M 483.1325 544.001562 L 469.280937 536.001562 L 469.280937 520.001562 L 483.1325 512.001562 L 496.991875 520.001562 L 496.991875 536.001562 Z M 483.1325 544.001562 "
     transform="matrix(0.5, 0, 0, -0.5, -5.16, 320.2)"
     id="path79" />
  <path
     fill-rule="evenodd"
     fill="rgb(84.498596%, 51.499939%, 100%)"
     fill-opacity="1"
     stroke-width="0.8"
     stroke-linecap="butt"
     stroke-linejoin="round"
     stroke="rgb(0%, 0%, 0%)"
     stroke-opacity="1"
     stroke-miterlimit="10"
     d="M 441.57 520.001562 L 427.710625 512.001562 L 427.710625 496.001562 L 441.57 488.001562 L 455.421562 496.001562 L 455.421562 512.001562 Z M 441.57 520.001562 "
     transform="matrix(0.5, 0, 0, -0.5, -5.16, 320.2)"
     id="path80" />
  <path
     fill-rule="evenodd"
     fill="rgb(84.498596%, 51.499939%, 100%)"
     fill-opacity="1"
     stroke-width="0.8"
     stroke-linecap="butt"
     stroke-linejoin="round"
     stroke="rgb(0%, 0%, 0%)"
     stroke-opacity="1"
     stroke-miterlimit="10"
     d="M 399.999687 544.001562 L 386.140312 536.001562 L 386.140312 520.001562 L 399.999687 512.001562 L 413.859062 520.001562 L 413.859062 536.001562 Z M 399.999687 544.001562 "
     transform="matrix(0.5, 0, 0, -0.5, -5.16, 320.2)"
     id="path81" />
  <g
     clip-path="url(#clip-6)"
     id="g82">
    <path
       fill-rule="evenodd"
       fill="rgb(100%, 100%, 100%)"
       fill-opacity="1"
       stroke-width="0.8"
       stroke-linecap="butt"
       stroke-linejoin="round"
       stroke="rgb(0%, 0%, 0%)"
       stroke-opacity="1"
       stroke-miterlimit="10"
       d="M 79.999687 448.001562 L 66.140312 440.001562 L 66.140312 424.001562 L 79.999687 416.001562 L 93.859062 424.001562 L 93.859062 440.001562 Z M 79.999687 448.001562 "
       transform="matrix(0.5, 0, 0, -0.5, -5.16, 320.2)"
       id="path82" />
  </g>
  <g
     clip-path="url(#clip-7)"
     id="g83">
    <path
       fill-rule="evenodd"
       fill="rgb(100%, 100%, 100%)"
       fill-opacity="1"
       stroke-width="0.8"
       stroke-linecap="butt"
       stroke-linejoin="round"
       stroke="rgb(0%, 0%, 0%)"
       stroke-opacity="1"
       stroke-miterlimit="10"
       d="M 107.710625 448.001562 L 93.859062 440.001562 L 93.859062 424.001562 L 107.710625 416.001562 L 121.57 424.001562 L 121.57 440.001562 Z M 107.710625 448.001562 "
       transform="matrix(0.5, 0, 0, -0.5, -5.16, 320.2)"
       id="path83" />
  </g>
  <g
     clip-path="url(#clip-8)"
     id="g84">
    <path
       fill-rule="evenodd"
       fill="rgb(100%, 100%, 100%)"
       fill-opacity="1"
       stroke-width="0.8"
       stroke-linecap="butt"
       stroke-linejoin="round"
       stroke="rgb(0%, 0%, 0%)"
       stroke-opacity="1"
       stroke-miterlimit="10"
       d="M 135.421562 448.001562 L 121.57 440.001562 L 121.57 424.001562 L 135.421562 416.001562 L 149.280937 424.001562 L 149.280937 440.001562 Z M 135.421562 448.001562 "
       transform="matrix(0.5, 0, 0, -0.5, -5.16, 320.2)"
       id="path84" />
  </g>
  <g
     clip-path="url(#clip-9)"
     id="g85">
    <path
       fill-rule="evenodd"
       fill="rgb(100%, 100%, 100%)"
       fill-opacity="1"
       stroke-width="0.8"
       stroke-linecap="butt"
       stroke-linejoin="round"
       stroke="rgb(0%, 0%, 0%)"
       stroke-opacity="1"
       stroke-miterlimit="10"
       d="M 163.140312 448.001562 L 149.280937 440.001562 L 149.280937 424.001562 L 163.140312 416.001562 L 176.999687 424.001562 L 176.999687 440.001562 Z M 163.140312 448.001562 "
       transform="matrix(0.5, 0, 0, -0.5, -5.16, 320.2)"
       id="path85" />
  </g>
  <g
     clip-path="url(#clip-10)"
     id="g86">
    <path
       fill-rule="evenodd"
       fill="rgb(100%, 100%, 100%)"
       fill-opacity="1"
       stroke-width="0.8"
       stroke-linecap="butt"
       stroke-linejoin="round"
       stroke="rgb(0%, 0%, 0%)"
       stroke-opacity="1"
       stroke-miterlimit="10"
       d="M 190.85125 448.001562 L 176.991875 440.001562 L 176.991875 424.001562 L 190.85125 416.001562 L 204.702812 424.001562 L 204.702812 440.001562 Z M 190.85125 448.001562 "
       transform="matrix(0.5, 0, 0, -0.5, -5.16, 320.2)"
       id="path86" />
  </g>
  <path
     fill-rule="evenodd"
     fill="rgb(100%, 100%, 100%)"
     fill-opacity="1"
     stroke-width="0.8"
     stroke-linecap="butt"
     stroke-linejoin="round"
     stroke="rgb(0%, 0%, 0%)"
     stroke-opacity="1"
     stroke-miterlimit="10"
     d="M 66.140312 472.001562 L 52.28875 464.001562 L 52.28875 448.001562 L 66.140312 440.001562 L 79.999687 448.001562 L 79.999687 464.001562 Z M 66.140312 472.001562 "
     transform="matrix(0.5, 0, 0, -0.5, -5.16, 320.2)"
     id="path87" />
  <path
     fill-rule="evenodd"
     fill="rgb(100%, 100%, 100%)"
     fill-opacity="1"
     stroke-width="0.8"
     stroke-linecap="butt"
     stroke-linejoin="round"
     stroke="rgb(0%, 0%, 0%)"
     stroke-opacity="1"
     stroke-miterlimit="10"
     d="M 93.859062 472.001562 L 79.999687 464.001562 L 79.999687 448.001562 L 93.859062 440.001562 L 107.710625 448.001562 L 107.710625 464.001562 Z M 93.859062 472.001562 "
     transform="matrix(0.5, 0, 0, -0.5, -5.16, 320.2)"
     id="path88" />
  <path
     fill-rule="evenodd"
     fill="rgb(100%, 100%, 100%)"
     fill-opacity="1"
     stroke-width="0.8"
     stroke-linecap="butt"
     stroke-linejoin="round"
     stroke="rgb(0%, 0%, 0%)"
     stroke-opacity="1"
     stroke-miterlimit="10"
     d="M 121.57 472.001562 L 107.710625 464.001562 L 107.710625 448.001562 L 121.57 440.001562 L 135.421562 448.001562 L 135.421562 464.001562 Z M 121.57 472.001562 "
     transform="matrix(0.5, 0, 0, -0.5, -5.16, 320.2)"
     id="path89" />
  <path
     fill-rule="evenodd"
     fill="rgb(100%, 100%, 100%)"
     fill-opacity="1"
     stroke-width="0.8"
     stroke-linecap="butt"
     stroke-linejoin="round"
     stroke="rgb(0%, 0%, 0%)"
     stroke-opacity="1"
     stroke-miterlimit="10"
     d="M 149.280937 472.001562 L 135.421562 464.001562 L 135.421562 448.001562 L 149.280937 440.001562 L 163.1325 448.001562 L 163.1325 464.001562 Z M 149.280937 472.001562 "
     transform="matrix(0.5, 0, 0, -0.5, -5.16, 320.2)"
     id="path90" />
  <path
     fill-rule="evenodd"
     fill="rgb(100%, 100%, 100%)"
     fill-opacity="1"
     stroke-width="0.8"
     stroke-linecap="butt"
     stroke-linejoin="round"
     stroke="rgb(0%, 0%, 0%)"
     stroke-opacity="1"
     stroke-miterlimit="10"
     d="M 176.991875 472.001562 L 163.1325 464.001562 L 163.1325 448.001562 L 176.991875 440.001562 L 190.843437 448.001562 L 190.843437 464.001562 Z M 176.991875 472.001562 "
     transform="matrix(0.5, 0, 0, -0.5, -5.16, 320.2)"
     id="path91" />
  <path
     fill-rule="evenodd"
     fill="rgb(100%, 100%, 100%)"
     fill-opacity="1"
     stroke-width="0.8"
     stroke-linecap="butt"
     stroke-linejoin="round"
     stroke="rgb(0%, 0%, 0%)"
     stroke-opacity="1"
     stroke-miterlimit="10"
     d="M 204.702812 472.001562 L 190.843437 464.001562 L 190.843437 448.001562 L 204.702812 440.001562 L 218.554375 448.001562 L 218.554375 464.001562 Z M 204.702812 472.001562 "
     transform="matrix(0.5, 0, 0, -0.5, -5.16, 320.2)"
     id="path92" />
  <path
     fill-rule="evenodd"
     fill="rgb(100%, 100%, 100%)"
     fill-opacity="1"
     stroke-width="0.8"
     stroke-linecap="butt"
     stroke-linejoin="round"
     stroke="rgb(0%, 0%, 0%)"
     stroke-opacity="1"
     stroke-miterlimit="10"
     d="M 52.28875 496.001562 L 38.429375 488.001562 L 38.429375 472.001562 L 52.28875 464.001562 L 66.140312 472.001562 L 66.140312 488.001562 Z M 52.28875 496.001562 "
     transform="matrix(0.5, 0, 0, -0.5, -5.16, 320.2)"
     id="path93" />
  <path
     fill-rule="evenodd"
     fill="rgb(100%, 100%, 100%)"
     fill-opacity="1"
     stroke-width="0.8"
     stroke-linecap="butt"
     stroke-linejoin="round"
     stroke="rgb(0%, 0%, 0%)"
     stroke-opacity="1"
     stroke-miterlimit="10"
     d="M 79.999687 496.001562 L 66.140312 488.001562 L 66.140312 472.001562 L 79.999687 464.001562 L 93.859062 472.001562 L 93.859062 488.001562 Z M 79.999687 496.001562 "
     transform="matrix(0.5, 0, 0, -0.5, -5.16, 320.2)"
     id="path94" />
  <path
     fill-rule="evenodd"
     fill="rgb(100%, 100%, 100%)"
     fill-opacity="1"
     stroke-width="0.8"
     stroke-linecap="butt"
     stroke-linejoin="round"
     stroke="rgb(0%, 0%, 0%)"
     stroke-opacity="1"
     stroke-miterlimit="10"
     d="M 135.421562 496.001562 L 121.57 488.001562 L 121.57 472.001562 L 135.421562 464.001562 L 149.280937 472.001562 L 149.280937 488.001562 Z M 135.421562 496.001562 "
     transform="matrix(0.5, 0, 0, -0.5, -5.16, 320.2)"
     id="path95" />
  <path
     fill-rule="evenodd"
     fill="rgb(100%, 100%, 100%)"
     fill-opacity="1"
     stroke-width="0.8"
     stroke-linecap="butt"
     stroke-linejoin="round"
     stroke="rgb(0%, 0%, 0%)"
     stroke-opacity="1"
     stroke-miterlimit="10"
     d="M 163.140312 496.001562 L 149.280937 488.001562 L 149.280937 472.001562 L 163.140312 464.001562 L 176.999687 472.001562 L 176.999687 488.001562 Z M 163.140312 496.001562 "
     transform="matrix(0.5, 0, 0, -0.5, -5.16, 320.2)"
     id="path96" />
  <path
     fill-rule="evenodd"
     fill="rgb(100%, 100%, 100%)"
     fill-opacity="1"
     stroke-width="0.8"
     stroke-linecap="butt"
     stroke-linejoin="round"
     stroke="rgb(0%, 0%, 0%)"
     stroke-opacity="1"
     stroke-miterlimit="10"
     d="M 190.85125 496.001562 L 176.991875 488.001562 L 176.991875 472.001562 L 190.85125 464.001562 L 204.702812 472.001562 L 204.702812 488.001562 Z M 190.85125 496.001562 "
     transform="matrix(0.5, 0, 0, -0.5, -5.16, 320.2)"
     id="path97" />
  <path
     fill-rule="evenodd"
     fill="rgb(100%, 100%, 100%)"
     fill-opacity="1"
     stroke-width="0.8"
     stroke-linecap="butt"
     stroke-linejoin="round"
     stroke="rgb(0%, 0%, 0%)"
     stroke-opacity="1"
     stroke-miterlimit="10"
     d="M 38.429375 520.001562 L 24.577813 512.001562 L 24.577813 496.001562 L 38.429375 488.001562 L 52.28875 496.001562 L 52.28875 512.001562 Z M 38.429375 520.001562 "
     transform="matrix(0.5, 0, 0, -0.5, -5.16, 320.2)"
     id="path98" />
  <path
     fill-rule="evenodd"
     fill="rgb(100%, 100%, 100%)"
     fill-opacity="1"
     stroke-width="0.8"
     stroke-linecap="butt"
     stroke-linejoin="round"
     stroke="rgb(0%, 0%, 0%)"
     stroke-opacity="1"
     stroke-miterlimit="10"
     d="M 176.991875 520.001562 L 163.1325 512.001562 L 163.1325 496.001562 L 176.991875 488.001562 L 190.843437 496.001562 L 190.843437 512.001562 Z M 176.991875 520.001562 "
     transform="matrix(0.5, 0, 0, -0.5, -5.16, 320.2)"
     id="path99" />
  <path
     fill-rule="evenodd"
     fill="rgb(100%, 100%, 100%)"
     fill-opacity="1"
     stroke-width="0.8"
     stroke-linecap="butt"
     stroke-linejoin="round"
     stroke="rgb(0%, 0%, 0%)"
     stroke-opacity="1"
     stroke-miterlimit="10"
     d="M 24.577813 544.001562 L 10.718437 536.001562 L 10.718437 520.001562 L 24.577813 512.001562 L 38.429375 520.001562 L 38.429375 536.001562 Z M 24.577813 544.001562 "
     transform="matrix(0.5, 0, 0, -0.5, -5.16, 320.2)"
     id="path100" />
  <path
     fill-rule="evenodd"
     fill="rgb(100%, 100%, 100%)"
     fill-opacity="1"
     stroke-width="0.8"
     stroke-linecap="butt"
     stroke-linejoin="round"
     stroke="rgb(0%, 0%, 0%)"
     stroke-opacity="1"
     stroke-miterlimit="10"
     d="M 52.28875 544.001562 L 38.429375 536.001562 L 38.429375 520.001562 L 52.28875 512.001562 L 66.140312 520.001562 L 66.140312 536.001562 Z M 52.28875 544.001562 "
     transform="matrix(0.5, 0, 0, -0.5, -5.16, 320.2)"
     id="path101" />
  <path
     fill-rule="evenodd"
     fill="rgb(100%, 100%, 100%)"
     fill-opacity="1"
     stroke-width="0.8"
     stroke-linecap="butt"
     stroke-linejoin="round"
     stroke="rgb(0%, 0%, 0%)"
     stroke-opacity="1"
     stroke-miterlimit="10"
     d="M 38.429375 568.001562 L 24.577813 560.001562 L 24.577813 544.001562 L 38.429375 536.001562 L 52.28875 544.001562 L 52.28875 560.001562 Z M 38.429375 568.001562 "
     transform="matrix(0.5, 0, 0, -0.5, -5.16, 320.2)"
     id="path102" />
  <path
     fill-rule="evenodd"
     fill="rgb(100%, 100%, 100%)"
     fill-opacity="1"
     stroke-width="0.8"
     stroke-linecap="butt"
     stroke-linejoin="round"
     stroke="rgb(0%, 0%, 0%)"
     stroke-opacity="1"
     stroke-miterlimit="10"
     d="M 176.991875 568.001562 L 163.1325 560.001562 L 163.1325 544.001562 L 176.991875 536.001562 L 190.843437 544.001562 L 190.843437 560.001562 Z M 176.991875 568.001562 "
     transform="matrix(0.5, 0, 0, -0.5, -5.16, 320.2)"
     id="path103" />
  <path
     fill-rule="evenodd"
     fill="rgb(100%, 100%, 100%)"
     fill-opacity="1"
     stroke-width="0.8"
     stroke-linecap="butt"
     stroke-linejoin="round"
     stroke="rgb(0%, 0%, 0%)"
     stroke-opacity="1"
     stroke-miterlimit="10"
     d="M 52.28875 592.001562 L 38.429375 584.001562 L 38.429375 568.001562 L 52.28875 560.001562 L 66.140312 568.001562 L 66.140312 584.001562 Z M 52.28875 592.001562 "
     transform="matrix(0.5, 0, 0, -0.5, -5.16, 320.2)"
     id="path104" />
  <path
     fill-rule="evenodd"
     fill="rgb(100%, 100%, 100%)"
     fill-opacity="1"
     stroke-width="0.8"
     stroke-linecap="butt"
     stroke-linejoin="round"
     stroke="rgb(0%, 0%, 0%)"
     stroke-opacity="1"
     stroke-miterlimit="10"
     d="M 190.85125 592.001562 L 176.991875 584.001562 L 176.991875 568.001562 L 190.85125 560.001562 L 204.702812 568.001562 L 204.702812 584.001562 Z M 190.85125 592.001562 "
     transform="matrix(0.5, 0, 0, -0.5, -5.16, 320.2)"
     id="path105" />
  <path
     fill-rule="evenodd"
     fill="rgb(100%, 100%, 100%)"
     fill-opacity="1"
     stroke-width="0.8"
     stroke-linecap="butt"
     stroke-linejoin="round"
     stroke="rgb(0%, 0%, 0%)"
     stroke-opacity="1"
     stroke-miterlimit="10"
     d="M 176.991875 616.001562 L 163.1325 608.001562 L 163.1325 592.001562 L 176.991875 584.001562 L 190.843437 592.001562 L 190.843437 608.001562 Z M 176.991875 616.001562 "
     transform="matrix(0.5, 0, 0, -0.5, -5.16, 320.2)"
     id="path106" />
  <path
     fill-rule="evenodd"
     fill="rgb(100%, 100%, 100%)"
     fill-opacity="1"
     stroke-width="0.8"
     stroke-linecap="butt"
     stroke-linejoin="round"
     stroke="rgb(0%, 0%, 0%)"
     stroke-opacity="1"
     stroke-miterlimit="10"
     d="M 204.702812 616.001562 L 190.843437 608.001562 L 190.843437 592.001562 L 204.702812 584.001562 L 218.554375 592.001562 L 218.554375 608.001562 Z M 204.702812 616.001562 "
     transform="matrix(0.5, 0, 0, -0.5, -5.16, 320.2)"
     id="path107" />
  <path
     fill-rule="evenodd"
     fill="rgb(100%, 100%, 100%)"
     fill-opacity="1"
     stroke-width="0.8"
     stroke-linecap="butt"
     stroke-linejoin="round"
     stroke="rgb(0%, 0%, 0%)"
     stroke-opacity="1"
     stroke-miterlimit="10"
     d="M 79.999687 640.001562 L 66.140312 632.001562 L 66.140312 616.001562 L 79.999687 608.001562 L 93.859062 616.001562 L 93.859062 632.001562 Z M 79.999687 640.001562 "
     transform="matrix(0.5, 0, 0, -0.5, -5.16, 320.2)"
     id="path108" />
  <path
     fill-rule="evenodd"
     fill="rgb(100%, 100%, 100%)"
     fill-opacity="1"
     stroke-width="0.8"
     stroke-linecap="butt"
     stroke-linejoin="round"
     stroke="rgb(0%, 0%, 0%)"
     stroke-opacity="1"
     stroke-miterlimit="10"
     d="M 107.710625 640.001562 L 93.859062 632.001562 L 93.859062 616.001562 L 107.710625 608.001562 L 121.57 616.001562 L 121.57 632.001562 Z M 107.710625 640.001562 "
     transform="matrix(0.5, 0, 0, -0.5, -5.16, 320.2)"
     id="path109" />
  <path
     fill-rule="evenodd"
     fill="rgb(100%, 100%, 100%)"
     fill-opacity="1"
     stroke-width="0.8"
     stroke-linecap="butt"
     stroke-linejoin="round"
     stroke="rgb(0%, 0%, 0%)"
     stroke-opacity="1"
     stroke-miterlimit="10"
     d="M 135.421562 640.001562 L 121.57 632.001562 L 121.57 616.001562 L 135.421562 608.001562 L 149.280937 616.001562 L 149.280937 632.001562 Z M 135.421562 640.001562 "
     transform="matrix(0.5, 0, 0, -0.5, -5.16, 320.2)"
     id="path110" />
  <path
     fill-rule="evenodd"
     fill="rgb(100%, 100%, 100%)"
     fill-opacity="1"
     stroke-width="0.8"
     stroke-linecap="butt"
     stroke-linejoin="round"
     stroke="rgb(0%, 0%, 0%)"
     stroke-opacity="1"
     stroke-miterlimit="10"
     d="M 163.140312 640.001562 L 149.280937 632.001562 L 149.280937 616.001562 L 163.140312 608.001562 L 176.999687 616.001562 L 176.999687 632.001562 Z M 163.140312 640.001562 "
     transform="matrix(0.5, 0, 0, -0.5, -5.16, 320.2)"
     id="path111" />
  <path
     fill-rule="evenodd"
     fill="rgb(100%, 100%, 100%)"
     fill-opacity="1"
     stroke-width="0.8"
     stroke-linecap="butt"
     stroke-linejoin="round"
     stroke="rgb(0%, 0%, 0%)"
     stroke-opacity="1"
     stroke-miterlimit="10"
     d="M 190.85125 640.001562 L 176.991875 632.001562 L 176.991875 616.001562 L 190.85125 608.001562 L 204.702812 616.001562 L 204.702812 632.001562 Z M 190.85125 640.001562 "
     transform="matrix(0.5, 0, 0, -0.5, -5.16, 320.2)"
     id="path112" />
  <path
     fill-rule="evenodd"
     fill="rgb(100%, 100%, 100%)"
     fill-opacity="1"
     stroke-width="0.8"
     stroke-linecap="butt"
     stroke-linejoin="round"
     stroke="rgb(0%, 0%, 0%)"
     stroke-opacity="1"
     stroke-miterlimit="10"
     d="M 218.562187 496.001562 L 204.702812 488.001562 L 204.702812 472.001562 L 218.562187 464.001562 L 232.41375 472.001562 L 232.41375 488.001562 Z M 218.562187 496.001562 "
     transform="matrix(0.5, 0, 0, -0.5, -5.16, 320.2)"
     id="path113" />
  <path
     fill-rule="evenodd"
     fill="rgb(100%, 100%, 100%)"
     fill-opacity="1"
     stroke-width="0.8"
     stroke-linecap="butt"
     stroke-linejoin="round"
     stroke="rgb(0%, 0%, 0%)"
     stroke-opacity="1"
     stroke-miterlimit="10"
     d="M 204.702812 520.001562 L 190.843437 512.001562 L 190.843437 496.001562 L 204.702812 488.001562 L 218.554375 496.001562 L 218.554375 512.001562 Z M 204.702812 520.001562 "
     transform="matrix(0.5, 0, 0, -0.5, -5.16, 320.2)"
     id="path114" />
  <path
     fill-rule="evenodd"
     fill="rgb(100%, 100%, 100%)"
     fill-opacity="1"
     stroke-width="0.8"
     stroke-linecap="butt"
     stroke-linejoin="round"
     stroke="rgb(0%, 0%, 0%)"
     stroke-opacity="1"
     stroke-miterlimit="10"
     d="M 232.421562 520.001562 L 218.562187 512.001562 L 218.562187 496.001562 L 232.421562 488.001562 L 246.273125 496.001562 L 246.273125 512.001562 Z M 232.421562 520.001562 "
     transform="matrix(0.5, 0, 0, -0.5, -5.16, 320.2)"
     id="path115" />
  <path
     fill-rule="evenodd"
     fill="rgb(100%, 100%, 100%)"
     fill-opacity="1"
     stroke-width="0.8"
     stroke-linecap="butt"
     stroke-linejoin="round"
     stroke="rgb(0%, 0%, 0%)"
     stroke-opacity="1"
     stroke-miterlimit="10"
     d="M 190.85125 544.001562 L 176.991875 536.001562 L 176.991875 520.001562 L 190.85125 512.001562 L 204.702812 520.001562 L 204.702812 536.001562 Z M 190.85125 544.001562 "
     transform="matrix(0.5, 0, 0, -0.5, -5.16, 320.2)"
     id="path116" />
  <path
     fill-rule="evenodd"
     fill="rgb(100%, 100%, 100%)"
     fill-opacity="1"
     stroke-width="0.8"
     stroke-linecap="butt"
     stroke-linejoin="round"
     stroke="rgb(0%, 0%, 0%)"
     stroke-opacity="1"
     stroke-miterlimit="10"
     d="M 218.562187 544.001562 L 204.702812 536.001562 L 204.702812 520.001562 L 218.562187 512.001562 L 232.41375 520.001562 L 232.41375 536.001562 Z M 218.562187 544.001562 "
     transform="matrix(0.5, 0, 0, -0.5, -5.16, 320.2)"
     id="path117" />
  <path
     fill-rule="evenodd"
     fill="rgb(100%, 100%, 100%)"
     fill-opacity="1"
     stroke-width="0.8"
     stroke-linecap="butt"
     stroke-linejoin="round"
     stroke="rgb(0%, 0%, 0%)"
     stroke-opacity="1"
     stroke-miterlimit="10"
     d="M 246.273125 544.001562 L 232.41375 536.001562 L 232.41375 520.001562 L 246.273125 512.001562 L 260.124687 520.001562 L 260.124687 536.001562 Z M 246.273125 544.001562 "
     transform="matrix(0.5, 0, 0, -0.5, -5.16, 320.2)"
     id="path118" />
  <path
     fill-rule="evenodd"
     fill="rgb(100%, 100%, 100%)"
     fill-opacity="1"
     stroke-width="0.8"
     stroke-linecap="butt"
     stroke-linejoin="round"
     stroke="rgb(0%, 0%, 0%)"
     stroke-opacity="1"
     stroke-miterlimit="10"
     d="M 204.702812 568.001562 L 190.843437 560.001562 L 190.843437 544.001562 L 204.702812 536.001562 L 218.554375 544.001562 L 218.554375 560.001562 Z M 204.702812 568.001562 "
     transform="matrix(0.5, 0, 0, -0.5, -5.16, 320.2)"
     id="path119" />
  <path
     fill-rule="evenodd"
     fill="rgb(100%, 100%, 100%)"
     fill-opacity="1"
     stroke-width="0.8"
     stroke-linecap="butt"
     stroke-linejoin="round"
     stroke="rgb(0%, 0%, 0%)"
     stroke-opacity="1"
     stroke-miterlimit="10"
     d="M 232.421562 568.001562 L 218.562187 560.001562 L 218.562187 544.001562 L 232.421562 536.001562 L 246.273125 544.001562 L 246.273125 560.001562 Z M 232.421562 568.001562 "
     transform="matrix(0.5, 0, 0, -0.5, -5.16, 320.2)"
     id="path120" />
  <path
     fill-rule="evenodd"
     fill="rgb(100%, 100%, 100%)"
     fill-opacity="1"
     stroke-width="0.8"
     stroke-linecap="butt"
     stroke-linejoin="round"
     stroke="rgb(0%, 0%, 0%)"
     stroke-opacity="1"
     stroke-miterlimit="10"
     d="M 218.562187 592.001562 L 204.702812 584.001562 L 204.702812 568.001562 L 218.562187 560.001562 L 232.41375 568.001562 L 232.41375 584.001562 Z M 218.562187 592.001562 "
     transform="matrix(0.5, 0, 0, -0.5, -5.16, 320.2)"
     id="path121" />
  <path
     fill-rule="evenodd"
     fill="rgb(100%, 100%, 100%)"
     fill-opacity="1"
     stroke-width="0.8"
     stroke-linecap="butt"
     stroke-linejoin="round"
     stroke="rgb(0%, 0%, 0%)"
     stroke-opacity="1"
     stroke-miterlimit="10"
     d="M 66.140312 568.001562 L 52.28875 560.001562 L 52.28875 544.001562 L 66.140312 536.001562 L 79.999687 544.001562 L 79.999687 560.001562 Z M 66.140312 568.001562 "
     transform="matrix(0.5, 0, 0, -0.5, -5.16, 320.2)"
     id="path122" />
  <path
     fill-rule="evenodd"
     fill="rgb(100%, 100%, 100%)"
     fill-opacity="1"
     stroke-width="0.8"
     stroke-linecap="butt"
     stroke-linejoin="round"
     stroke="rgb(0%, 0%, 0%)"
     stroke-opacity="1"
     stroke-miterlimit="10"
     d="M 107.710625 592.001562 L 93.859062 584.001562 L 93.859062 568.001562 L 107.710625 560.001562 L 121.57 568.001562 L 121.57 584.001562 Z M 107.710625 592.001562 "
     transform="matrix(0.5, 0, 0, -0.5, -5.16, 320.2)"
     id="path123" />
  <path
     fill-rule="evenodd"
     fill="rgb(100%, 100%, 100%)"
     fill-opacity="1"
     stroke-width="0.8"
     stroke-linecap="butt"
     stroke-linejoin="round"
     stroke="rgb(0%, 0%, 0%)"
     stroke-opacity="1"
     stroke-miterlimit="10"
     d="M 149.280937 568.001562 L 135.421562 560.001562 L 135.421562 544.001562 L 149.280937 536.001562 L 163.1325 544.001562 L 163.1325 560.001562 Z M 149.280937 568.001562 "
     transform="matrix(0.5, 0, 0, -0.5, -5.16, 320.2)"
     id="path124" />
  <path
     fill-rule="evenodd"
     fill="rgb(100%, 100%, 100%)"
     fill-opacity="1"
     stroke-width="0.8"
     stroke-linecap="butt"
     stroke-linejoin="round"
     stroke="rgb(0%, 0%, 0%)"
     stroke-opacity="1"
     stroke-miterlimit="10"
     d="M 149.280937 520.001562 L 135.421562 512.001562 L 135.421562 496.001562 L 149.280937 488.001562 L 163.1325 496.001562 L 163.1325 512.001562 Z M 149.280937 520.001562 "
     transform="matrix(0.5, 0, 0, -0.5, -5.16, 320.2)"
     id="path125" />
  <path
     fill-rule="evenodd"
     fill="rgb(100%, 100%, 100%)"
     fill-opacity="1"
     stroke-width="0.8"
     stroke-linecap="butt"
     stroke-linejoin="round"
     stroke="rgb(0%, 0%, 0%)"
     stroke-opacity="1"
     stroke-miterlimit="10"
     d="M 107.710625 496.001562 L 93.859062 488.001562 L 93.859062 472.001562 L 107.710625 464.001562 L 121.57 472.001562 L 121.57 488.001562 Z M 107.710625 496.001562 "
     transform="matrix(0.5, 0, 0, -0.5, -5.16, 320.2)"
     id="path126" />
  <path
     fill-rule="evenodd"
     fill="rgb(100%, 100%, 100%)"
     fill-opacity="1"
     stroke-width="0.8"
     stroke-linecap="butt"
     stroke-linejoin="round"
     stroke="rgb(0%, 0%, 0%)"
     stroke-opacity="1"
     stroke-miterlimit="10"
     d="M 66.140312 520.001562 L 52.28875 512.001562 L 52.28875 496.001562 L 66.140312 488.001562 L 79.999687 496.001562 L 79.999687 512.001562 Z M 66.140312 520.001562 "
     transform="matrix(0.5, 0, 0, -0.5, -5.16, 320.2)"
     id="path127" />
  <path
     fill-rule="evenodd"
     fill="rgb(100%, 100%, 100%)"
     fill-opacity="1"
     stroke-width="0.8"
     stroke-linecap="butt"
     stroke-linejoin="round"
     stroke="rgb(0%, 0%, 0%)"
     stroke-opacity="1"
     stroke-miterlimit="10"
     d="M 79.999687 592.001562 L 66.140312 584.001562 L 66.140312 568.001562 L 79.999687 560.001562 L 93.859062 568.001562 L 93.859062 584.001562 Z M 79.999687 592.001562 "
     transform="matrix(0.5, 0, 0, -0.5, -5.16, 320.2)"
     id="path128" />
  <path
     fill-rule="evenodd"
     fill="rgb(100%, 100%, 100%)"
     fill-opacity="1"
     stroke-width="0.8"
     stroke-linecap="butt"
     stroke-linejoin="round"
     stroke="rgb(0%, 0%, 0%)"
     stroke-opacity="1"
     stroke-miterlimit="10"
     d="M 93.859062 568.001562 L 79.999687 560.001562 L 79.999687 544.001562 L 93.859062 536.001562 L 107.710625 544.001562 L 107.710625 560.001562 Z M 93.859062 568.001562 "
     transform="matrix(0.5, 0, 0, -0.5, -5.16, 320.2)"
     id="path129" />
  <path
     fill-rule="evenodd"
     fill="rgb(100%, 100%, 100%)"
     fill-opacity="1"
     stroke-width="0.8"
     stroke-linecap="butt"
     stroke-linejoin="round"
     stroke="rgb(0%, 0%, 0%)"
     stroke-opacity="1"
     stroke-miterlimit="10"
     d="M 79.999687 544.001562 L 66.140312 536.001562 L 66.140312 520.001562 L 79.999687 512.001562 L 93.859062 520.001562 L 93.859062 536.001562 Z M 79.999687 544.001562 "
     transform="matrix(0.5, 0, 0, -0.5, -5.16, 320.2)"
     id="path130" />
  <path
     fill-rule="evenodd"
     fill="rgb(100%, 100%, 100%)"
     fill-opacity="1"
     stroke-width="0.8"
     stroke-linecap="butt"
     stroke-linejoin="round"
     stroke="rgb(0%, 0%, 0%)"
     stroke-opacity="1"
     stroke-miterlimit="10"
     d="M 93.859062 520.001562 L 79.999687 512.001562 L 79.999687 496.001562 L 93.859062 488.001562 L 107.710625 496.001562 L 107.710625 512.001562 Z M 93.859062 520.001562 "
     transform="matrix(0.5, 0, 0, -0.5, -5.16, 320.2)"
     id="path131" />
  <path
     fill-rule="evenodd"
     fill="rgb(100%, 100%, 100%)"
     fill-opacity="1"
     stroke-width="0.8"
     stroke-linecap="butt"
     stroke-linejoin="round"
     stroke="rgb(0%, 0%, 0%)"
     stroke-opacity="1"
     stroke-miterlimit="10"
     d="M 121.57 520.001562 L 107.710625 512.001562 L 107.710625 496.001562 L 121.57 488.001562 L 135.421562 496.001562 L 135.421562 512.001562 Z M 121.57 520.001562 "
     transform="matrix(0.5, 0, 0, -0.5, -5.16, 320.2)"
     id="path132" />
  <path
     fill-rule="evenodd"
     fill="rgb(100%, 100%, 100%)"
     fill-opacity="1"
     stroke-width="0.8"
     stroke-linecap="butt"
     stroke-linejoin="round"
     stroke="rgb(0%, 0%, 0%)"
     stroke-opacity="1"
     stroke-miterlimit="10"
     d="M 107.710625 544.001562 L 93.859062 536.001562 L 93.859062 520.001562 L 107.710625 512.001562 L 121.57 520.001562 L 121.57 536.001562 Z M 107.710625 544.001562 "
     transform="matrix(0.5, 0, 0, -0.5, -5.16, 320.2)"
     id="path133" />
  <path
     fill-rule="evenodd"
     fill="rgb(100%, 100%, 100%)"
     fill-opacity="1"
     stroke-width="0.8"
     stroke-linecap="butt"
     stroke-linejoin="round"
     stroke="rgb(0%, 0%, 0%)"
     stroke-opacity="1"
     stroke-miterlimit="10"
     d="M 135.421562 544.001562 L 121.57 536.001562 L 121.57 520.001562 L 135.421562 512.001562 L 149.280937 520.001562 L 149.280937 536.001562 Z M 135.421562 544.001562 "
     transform="matrix(0.5, 0, 0, -0.5, -5.16, 320.2)"
     id="path134" />
  <path
     fill-rule="evenodd"
     fill="rgb(100%, 100%, 100%)"
     fill-opacity="1"
     stroke-width="0.8"
     stroke-linecap="butt"
     stroke-linejoin="round"
     stroke="rgb(0%, 0%, 0%)"
     stroke-opacity="1"
     stroke-miterlimit="10"
     d="M 163.1325 544.001562 L 149.280937 536.001562 L 149.280937 520.001562 L 163.1325 512.001562 L 176.991875 520.001562 L 176.991875 536.001562 Z M 163.1325 544.001562 "
     transform="matrix(0.5, 0, 0, -0.5, -5.16, 320.2)"
     id="path135" />
  <path
     fill-rule="evenodd"
     fill="rgb(100%, 100%, 100%)"
     fill-opacity="1"
     stroke-width="0.8"
     stroke-linecap="butt"
     stroke-linejoin="round"
     stroke="rgb(0%, 0%, 0%)"
     stroke-opacity="1"
     stroke-miterlimit="10"
     d="M 121.57 568.001562 L 107.710625 560.001562 L 107.710625 544.001562 L 121.57 536.001562 L 135.421562 544.001562 L 135.421562 560.001562 Z M 121.57 568.001562 "
     transform="matrix(0.5, 0, 0, -0.5, -5.16, 320.2)"
     id="path136" />
  <path
     fill-rule="evenodd"
     fill="rgb(100%, 100%, 100%)"
     fill-opacity="1"
     stroke-width="0.8"
     stroke-linecap="butt"
     stroke-linejoin="round"
     stroke="rgb(0%, 0%, 0%)"
     stroke-opacity="1"
     stroke-miterlimit="10"
     d="M 135.421562 592.001562 L 121.57 584.001562 L 121.57 568.001562 L 135.421562 560.001562 L 149.280937 568.001562 L 149.280937 584.001562 Z M 135.421562 592.001562 "
     transform="matrix(0.5, 0, 0, -0.5, -5.16, 320.2)"
     id="path137" />
  <path
     fill-rule="evenodd"
     fill="rgb(100%, 100%, 100%)"
     fill-opacity="1"
     stroke-width="0.8"
     stroke-linecap="butt"
     stroke-linejoin="round"
     stroke="rgb(0%, 0%, 0%)"
     stroke-opacity="1"
     stroke-miterlimit="10"
     d="M 163.1325 592.001562 L 149.280937 584.001562 L 149.280937 568.001562 L 163.1325 560.001562 L 176.991875 568.001562 L 176.991875 584.001562 Z M 163.1325 592.001562 "
     transform="matrix(0.5, 0, 0, -0.5, -5.16, 320.2)"
     id="path138" />
  <path
     fill-rule="evenodd"
     fill="rgb(100%, 100%, 100%)"
     fill-opacity="1"
     stroke-width="0.8"
     stroke-linecap="butt"
     stroke-linejoin="round"
     stroke="rgb(0%, 0%, 0%)"
     stroke-opacity="1"
     stroke-miterlimit="10"
     d="M 66.140312 616.001562 L 52.28875 608.001562 L 52.28875 592.001562 L 66.140312 584.001562 L 79.999687 592.001562 L 79.999687 608.001562 Z M 66.140312 616.001562 "
     transform="matrix(0.5, 0, 0, -0.5, -5.16, 320.2)"
     id="path139" />
  <path
     fill-rule="evenodd"
     fill="rgb(100%, 100%, 100%)"
     fill-opacity="1"
     stroke-width="0.8"
     stroke-linecap="butt"
     stroke-linejoin="round"
     stroke="rgb(0%, 0%, 0%)"
     stroke-opacity="1"
     stroke-miterlimit="10"
     d="M 93.859062 616.001562 L 79.999687 608.001562 L 79.999687 592.001562 L 93.859062 584.001562 L 107.710625 592.001562 L 107.710625 608.001562 Z M 93.859062 616.001562 "
     transform="matrix(0.5, 0, 0, -0.5, -5.16, 320.2)"
     id="path140" />
  <path
     fill-rule="evenodd"
     fill="rgb(100%, 100%, 100%)"
     fill-opacity="1"
     stroke-width="0.8"
     stroke-linecap="butt"
     stroke-linejoin="round"
     stroke="rgb(0%, 0%, 0%)"
     stroke-opacity="1"
     stroke-miterlimit="10"
     d="M 121.57 616.001562 L 107.710625 608.001562 L 107.710625 592.001562 L 121.57 584.001562 L 135.421562 592.001562 L 135.421562 608.001562 Z M 121.57 616.001562 "
     transform="matrix(0.5, 0, 0, -0.5, -5.16, 320.2)"
     id="path141" />
  <path
     fill-rule="evenodd"
     fill="rgb(100%, 100%, 100%)"
     fill-opacity="1"
     stroke-width="0.8"
     stroke-linecap="butt"
     stroke-linejoin="round"
     stroke="rgb(0%, 0%, 0%)"
     stroke-opacity="1"
     stroke-miterlimit="10"
     d="M 149.280937 616.001562 L 135.421562 608.001562 L 135.421562 592.001562 L 149.280937 584.001562 L 163.1325 592.001562 L 163.1325 608.001562 Z M 149.280937 616.001562 "
     transform="matrix(0.5, 0, 0, -0.5, -5.16, 320.2)"
     id="path142" />
</svg>
