<?xml version="1.0" encoding="UTF-8" standalone="no"?>
<svg
   width="385pt"
   height="33pt"
   viewBox="0 0 385 33"
   version="1.1"
   id="svg20"
   xmlns="http://www.w3.org/2000/svg"
   xmlns:svg="http://www.w3.org/2000/svg">
  <defs
     id="defs20" />
  <path
     fill="none"
     stroke-width="4"
     stroke-linecap="butt"
     stroke-linejoin="round"
     stroke="rgb(0%, 0%, 0%)"
     stroke-opacity="1"
     stroke-miterlimit="10"
     d="M 1.992188 8.007812 L 1601.992188 8.007812 L 1601.992188 328.007812 L 1.992188 328.007812 Z M 1.992188 8.007812 "
     transform="matrix(0.1, 0, 0, -0.1, 0, 33)"
     id="path1" />
  <path
     fill="none"
     stroke-width="4"
     stroke-linecap="butt"
     stroke-linejoin="round"
     stroke="rgb(0%, 0%, 0%)"
     stroke-opacity="1"
     stroke-miterlimit="10"
     d="M 161.992188 8.007812 L 321.992188 8.007812 L 321.992188 328.007812 L 161.992188 328.007812 Z M 161.992188 8.007812 "
     transform="matrix(0.1, 0, 0, -0.1, 0, 33)"
     id="path2" />
  <path
     fill="none"
     stroke-width="4"
     stroke-linecap="butt"
     stroke-linejoin="round"
     stroke="rgb(0%, 0%, 0%)"
     stroke-opacity="1"
     stroke-miterlimit="10"
     d="M 481.992188 8.007812 L 641.992188 8.007812 L 641.992188 328.007812 L 481.992188 328.007812 Z M 481.992188 8.007812 "
     transform="matrix(0.1, 0, 0, -0.1, 0, 33)"
     id="path3" />
  <path
     fill="none"
     stroke-width="4"
     stroke-linecap="butt"
     stroke-linejoin="round"
     stroke="rgb(0%, 0%, 0%)"
     stroke-opacity="1"
     stroke-miterlimit="10"
     d="M 801.992188 8.007812 L 961.992188 8.007812 L 961.992188 328.007812 L 801.992188 328.007812 Z M 801.992188 8.007812 "
     transform="matrix(0.1, 0, 0, -0.1, 0, 33)"
     id="path4" />
  <path
     fill="none"
     stroke-width="4"
     stroke-linecap="butt"
     stroke-linejoin="round"
     stroke="rgb(0%, 0%, 0%)"
     stroke-opacity="1"
     stroke-miterlimit="10"
     d="M 1121.992188 8.007812 L 1281.992188 8.007812 L 1281.992188 328.007812 L 1121.992188 328.007812 Z M 1121.992188 8.007812 "
     transform="matrix(0.1, 0, 0, -0.1, 0, 33)"
     id="path5" />
  <path
     fill="none"
     stroke-width="4"
     stroke-linecap="butt"
     stroke-linejoin="round"
     stroke="rgb(0%, 0%, 0%)"
     stroke-opacity="1"
     stroke-miterlimit="10"
     d="M 1441.992188 8.007812 L 1601.992188 8.007812 L 1601.992188 328.007812 L 1441.992188 328.007812 Z M 1441.992188 8.007812 "
     transform="matrix(0.1, 0, 0, -0.1, 0, 33)"
     id="path6" />
  <path
     fill="none"
     stroke-width="4"
     stroke-linecap="butt"
     stroke-linejoin="round"
     stroke="rgb(0%, 0%, 0%)"
     stroke-opacity="1"
     stroke-miterlimit="10"
     d="M 1.992188 168.007812 L 1601.992188 168.007812 "
     transform="matrix(0.1, 0, 0, -0.1, 0, 33)"
     id="path7" />
  <path
     fill="none"
     stroke-width="4"
     stroke-linecap="butt"
     stroke-linejoin="round"
     stroke="rgb(0%, 0%, 0%)"
     stroke-opacity="1"
     stroke-miterlimit="10"
     d="M 2241.992188 328.007812 L 2241.992188 168.007812 L 2081.992188 168.007812 L 2081.992188 8.007812 L 3681.992188 8.007812 L 3681.992188 168.007812 L 3841.992188 168.007812 L 3841.992188 328.007812 Z M 2241.992188 328.007812 "
     transform="matrix(0.1, 0, 0, -0.1, 0, 33)"
     id="path8" />
  <path
     fill="none"
     stroke-width="4"
     stroke-linecap="butt"
     stroke-linejoin="round"
     stroke="rgb(0%, 0%, 0%)"
     stroke-opacity="1"
     stroke-miterlimit="10"
     d="M 2241.992188 168.007812 L 3681.992188 168.007812 "
     transform="matrix(0.1, 0, 0, -0.1, 0, 33)"
     id="path9" />
  <path
     fill="none"
     stroke-width="4"
     stroke-linecap="butt"
     stroke-linejoin="round"
     stroke="rgb(0%, 0%, 0%)"
     stroke-opacity="1"
     stroke-miterlimit="10"
     d="M 3681.992188 168.007812 L 3681.992188 328.007812 "
     transform="matrix(0.1, 0, 0, -0.1, 0, 33)"
     id="path10" />
  <path
     fill="none"
     stroke-width="4"
     stroke-linecap="butt"
     stroke-linejoin="round"
     stroke="rgb(0%, 0%, 0%)"
     stroke-opacity="1"
     stroke-miterlimit="10"
     d="M 2241.992188 168.007812 L 2241.992188 8.007812 "
     transform="matrix(0.1, 0, 0, -0.1, 0, 33)"
     id="path11" />
  <path
     fill="none"
     stroke-width="4"
     stroke-linecap="butt"
     stroke-linejoin="round"
     stroke="rgb(0%, 0%, 0%)"
     stroke-opacity="1"
     stroke-miterlimit="10"
     d="M 2401.992188 8.007812 L 2401.992188 328.007812 "
     transform="matrix(0.1, 0, 0, -0.1, 0, 33)"
     id="path12" />
  <path
     fill="none"
     stroke-width="4"
     stroke-linecap="butt"
     stroke-linejoin="round"
     stroke="rgb(0%, 0%, 0%)"
     stroke-opacity="1"
     stroke-miterlimit="10"
     d="M 2561.992188 328.007812 L 2561.992188 168.007812 "
     transform="matrix(0.1, 0, 0, -0.1, 0, 33)"
     id="path13" />
  <path
     fill="none"
     stroke-width="4"
     stroke-linecap="butt"
     stroke-linejoin="round"
     stroke="rgb(0%, 0%, 0%)"
     stroke-opacity="1"
     stroke-miterlimit="10"
     d="M 2561.992188 168.007812 L 2561.992188 8.007812 "
     transform="matrix(0.1, 0, 0, -0.1, 0, 33)"
     id="path14" />
  <path
     fill="none"
     stroke-width="4"
     stroke-linecap="butt"
     stroke-linejoin="round"
     stroke="rgb(0%, 0%, 0%)"
     stroke-opacity="1"
     stroke-miterlimit="10"
     d="M 2721.992188 8.007812 L 2721.992188 328.007812 "
     transform="matrix(0.1, 0, 0, -0.1, 0, 33)"
     id="path15" />
  <path
     fill="none"
     stroke-width="4"
     stroke-linecap="butt"
     stroke-linejoin="round"
     stroke="rgb(0%, 0%, 0%)"
     stroke-opacity="1"
     stroke-miterlimit="10"
     d="M 2881.992188 328.007812 L 2881.992188 8.007812 "
     transform="matrix(0.1, 0, 0, -0.1, 0, 33)"
     id="path16" />
  <path
     fill="none"
     stroke-width="4"
     stroke-linecap="butt"
     stroke-linejoin="round"
     stroke="rgb(0%, 0%, 0%)"
     stroke-opacity="1"
     stroke-miterlimit="10"
     d="M 3041.992188 8.007812 L 3041.992188 328.007812 "
     transform="matrix(0.1, 0, 0, -0.1, 0, 33)"
     id="path17" />
  <path
     fill="none"
     stroke-width="4"
     stroke-linecap="butt"
     stroke-linejoin="round"
     stroke="rgb(0%, 0%, 0%)"
     stroke-opacity="1"
     stroke-miterlimit="10"
     d="M 3201.992188 328.007812 L 3201.992188 8.007812 "
     transform="matrix(0.1, 0, 0, -0.1, 0, 33)"
     id="path18" />
  <path
     fill="none"
     stroke-width="4"
     stroke-linecap="butt"
     stroke-linejoin="round"
     stroke="rgb(0%, 0%, 0%)"
     stroke-opacity="1"
     stroke-miterlimit="10"
     d="M 3361.992188 8.007812 L 3361.992188 328.007812 "
     transform="matrix(0.1, 0, 0, -0.1, 0, 33)"
     id="path19" />
  <path
     fill="none"
     stroke-width="4"
     stroke-linecap="butt"
     stroke-linejoin="round"
     stroke="rgb(0%, 0%, 0%)"
     stroke-opacity="1"
     stroke-miterlimit="10"
     d="M 3521.992188 328.007812 L 3521.992188 8.007812 "
     transform="matrix(0.1, 0, 0, -0.1, 0, 33)"
     id="path20" />
</svg>
