<?xml version="1.0" encoding="UTF-8" standalone="no"?>
<svg
   width="305pt"
   height="113pt"
   viewBox="0 0 305 113"
   version="1.1"
   id="svg48"
   xmlns="http://www.w3.org/2000/svg"
   xmlns:svg="http://www.w3.org/2000/svg">
  <defs
     id="defs48" />
  <path
     fill-rule="evenodd"
     fill="rgb(82.617188%, 82.617188%, 82.617188%)"
     fill-opacity="1"
     d="M 224.199219 80.199219 L 208.199219 80.199219 L 208.199219 96.199219 L 224.199219 96.199219 L 224.199219 112.199219 L 288.199219 112.199219 L 288.199219 96.199219 L 272.199219 96.199219 L 272.199219 80.199219 Z M 224.199219 80.199219 "
     id="path1" />
  <path
     fill-rule="evenodd"
     fill="rgb(66.209412%, 66.209412%, 66.209412%)"
     fill-opacity="1"
     d="M 288.199219 16.199219 L 304.199219 16.199219 L 304.199219 80.199219 L 288.199219 80.199219 L 288.199219 96.199219 L 272.199219 96.199219 L 272.199219 32.199219 L 288.199219 32.199219 Z M 288.199219 16.199219 "
     id="path2" />
  <path
     fill-rule="evenodd"
     fill="rgb(66.209412%, 66.209412%, 66.209412%)"
     fill-opacity="1"
     d="M 208.199219 16.199219 L 208.199219 32.199219 L 192.199219 32.199219 L 192.199219 96.199219 L 208.199219 96.199219 L 208.199219 80.199219 L 224.199219 80.199219 L 224.199219 16.199219 Z M 208.199219 16.199219 "
     id="path3" />
  <path
     fill-rule="evenodd"
     fill="rgb(82.617188%, 82.617188%, 82.617188%)"
     fill-opacity="1"
     d="M 208.199219 0.199219 L 208.199219 16.199219 L 224.199219 16.199219 L 224.199219 32.199219 L 288.199219 32.199219 L 288.199219 16.199219 L 272.199219 16.199219 L 272.199219 0.199219 Z M 208.199219 0.199219 "
     id="path4" />
  <path
     fill-rule="evenodd"
     fill="rgb(66.209412%, 66.209412%, 66.209412%)"
     fill-opacity="1"
     d="M 80.199219 80.199219 L 112.199219 80.199219 L 112.199219 16.199219 L 80.199219 16.199219 Z M 80.199219 80.199219 "
     id="path5" />
  <path
     fill-rule="evenodd"
     fill="rgb(66.209412%, 66.209412%, 66.209412%)"
     fill-opacity="1"
     d="M 0.199219 96.199219 L 32.199219 96.199219 L 32.199219 32.199219 L 0.199219 32.199219 Z M 0.199219 96.199219 "
     id="path6" />
  <path
     fill-rule="evenodd"
     fill="rgb(82.617188%, 82.617188%, 82.617188%)"
     fill-opacity="1"
     d="M 64.199219 32.199219 L 80.199219 32.199219 L 80.199219 0.199219 L 64.199219 0.199219 Z M 64.199219 32.199219 "
     id="path7" />
  <path
     fill-rule="evenodd"
     fill="rgb(82.617188%, 82.617188%, 82.617188%)"
     fill-opacity="1"
     d="M 32.199219 112.199219 L 48.199219 112.199219 L 48.199219 96.199219 L 32.199219 96.199219 Z M 32.199219 112.199219 "
     id="path8" />
  <path
     fill-rule="evenodd"
     fill="rgb(82.617188%, 82.617188%, 82.617188%)"
     fill-opacity="1"
     d="M 48.199219 112.199219 L 64.199219 112.199219 L 64.199219 96.199219 L 48.199219 96.199219 Z M 48.199219 112.199219 "
     id="path9" />
  <path
     fill-rule="evenodd"
     fill="rgb(82.617188%, 82.617188%, 82.617188%)"
     fill-opacity="1"
     d="M 64.199219 112.199219 L 80.199219 112.199219 L 80.199219 96.199219 L 64.199219 96.199219 Z M 64.199219 112.199219 "
     id="path10" />
  <path
     fill-rule="evenodd"
     fill="rgb(82.617188%, 82.617188%, 82.617188%)"
     fill-opacity="1"
     d="M 80.199219 112.199219 L 96.199219 112.199219 L 96.199219 96.199219 L 80.199219 96.199219 Z M 80.199219 112.199219 "
     id="path11" />
  <path
     fill-rule="evenodd"
     fill="rgb(82.617188%, 82.617188%, 82.617188%)"
     fill-opacity="1"
     d="M 80.199219 96.199219 L 96.199219 96.199219 L 96.199219 80.199219 L 80.199219 80.199219 Z M 80.199219 96.199219 "
     id="path12" />
  <path
     fill-rule="evenodd"
     fill="rgb(82.617188%, 82.617188%, 82.617188%)"
     fill-opacity="1"
     d="M 64.199219 96.199219 L 80.199219 96.199219 L 80.199219 80.199219 L 64.199219 80.199219 Z M 64.199219 96.199219 "
     id="path13" />
  <path
     fill-rule="evenodd"
     fill="rgb(82.617188%, 82.617188%, 82.617188%)"
     fill-opacity="1"
     d="M 48.199219 96.199219 L 64.199219 96.199219 L 64.199219 80.199219 L 48.199219 80.199219 Z M 48.199219 96.199219 "
     id="path14" />
  <path
     fill-rule="evenodd"
     fill="rgb(82.617188%, 82.617188%, 82.617188%)"
     fill-opacity="1"
     d="M 32.199219 96.199219 L 48.199219 96.199219 L 48.199219 80.199219 L 32.199219 80.199219 Z M 32.199219 96.199219 "
     id="path15" />
  <path
     fill-rule="evenodd"
     fill="rgb(82.617188%, 82.617188%, 82.617188%)"
     fill-opacity="1"
     d="M 32.199219 32.199219 L 48.199219 32.199219 L 48.199219 16.199219 L 32.199219 16.199219 Z M 32.199219 32.199219 "
     id="path16" />
  <path
     fill-rule="evenodd"
     fill="rgb(82.617188%, 82.617188%, 82.617188%)"
     fill-opacity="1"
     d="M 16.199219 32.199219 L 32.199219 32.199219 L 32.199219 16.199219 L 16.199219 16.199219 Z M 16.199219 32.199219 "
     id="path17" />
  <path
     fill-rule="evenodd"
     fill="rgb(82.617188%, 82.617188%, 82.617188%)"
     fill-opacity="1"
     d="M 16.199219 16.199219 L 32.199219 16.199219 L 32.199219 0.199219 L 16.199219 0.199219 Z M 16.199219 16.199219 "
     id="path18" />
  <path
     fill-rule="evenodd"
     fill="rgb(82.617188%, 82.617188%, 82.617188%)"
     fill-opacity="1"
     d="M 48.199219 32.199219 L 64.199219 32.199219 L 64.199219 16.199219 L 48.199219 16.199219 Z M 48.199219 32.199219 "
     id="path19" />
  <path
     fill-rule="evenodd"
     fill="rgb(82.617188%, 82.617188%, 82.617188%)"
     fill-opacity="1"
     d="M 48.199219 16.199219 L 64.199219 16.199219 L 64.199219 0.199219 L 48.199219 0.199219 Z M 48.199219 16.199219 "
     id="path20" />
  <path
     fill-rule="evenodd"
     fill="rgb(82.617188%, 82.617188%, 82.617188%)"
     fill-opacity="1"
     d="M 32.199219 16.199219 L 48.199219 16.199219 L 48.199219 0.199219 L 32.199219 0.199219 Z M 32.199219 16.199219 "
     id="path21" />
  <path
     fill="none"
     stroke-width="4"
     stroke-linecap="butt"
     stroke-linejoin="round"
     stroke="rgb(0%, 0%, 0%)"
     stroke-opacity="1"
     stroke-miterlimit="10"
     d="M 1.992188 8.007812 L 1121.992188 8.007812 L 1121.992188 1128.007812 L 1.992188 1128.007812 Z M 1.992188 8.007812 "
     transform="matrix(0.1, 0, 0, -0.1, 0, 113)"
     id="path22" />
  <path
     fill="none"
     stroke-width="4"
     stroke-linecap="butt"
     stroke-linejoin="round"
     stroke="rgb(0%, 0%, 0%)"
     stroke-opacity="1"
     stroke-miterlimit="10"
     d="M 161.992188 8.007812 L 1121.992188 8.007812 L 1121.992188 968.007812 L 161.992188 968.007812 Z M 161.992188 8.007812 "
     transform="matrix(0.1, 0, 0, -0.1, 0, 113)"
     id="path23" />
  <path
     fill="none"
     stroke-width="4"
     stroke-linecap="butt"
     stroke-linejoin="round"
     stroke="rgb(0%, 0%, 0%)"
     stroke-opacity="1"
     stroke-miterlimit="10"
     d="M 321.992188 8.007812 L 1121.992188 8.007812 L 1121.992188 808.007812 L 321.992188 808.007812 Z M 321.992188 8.007812 "
     transform="matrix(0.1, 0, 0, -0.1, 0, 113)"
     id="path24" />
  <path
     fill="none"
     stroke-width="4"
     stroke-linecap="butt"
     stroke-linejoin="round"
     stroke="rgb(0%, 0%, 0%)"
     stroke-opacity="1"
     stroke-miterlimit="10"
     d="M 481.992188 8.007812 L 1121.992188 8.007812 L 1121.992188 648.007812 L 481.992188 648.007812 Z M 481.992188 8.007812 "
     transform="matrix(0.1, 0, 0, -0.1, 0, 113)"
     id="path25" />
  <path
     fill="none"
     stroke-width="4"
     stroke-linecap="butt"
     stroke-linejoin="round"
     stroke="rgb(0%, 0%, 0%)"
     stroke-opacity="1"
     stroke-miterlimit="10"
     d="M 641.992188 8.007812 L 1121.992188 8.007812 L 1121.992188 488.007812 L 641.992188 488.007812 Z M 641.992188 8.007812 "
     transform="matrix(0.1, 0, 0, -0.1, 0, 113)"
     id="path26" />
  <path
     fill="none"
     stroke-width="4"
     stroke-linecap="butt"
     stroke-linejoin="round"
     stroke="rgb(0%, 0%, 0%)"
     stroke-opacity="1"
     stroke-miterlimit="10"
     d="M 801.992188 8.007812 L 1121.992188 8.007812 L 1121.992188 328.007812 L 801.992188 328.007812 Z M 801.992188 8.007812 "
     transform="matrix(0.1, 0, 0, -0.1, 0, 113)"
     id="path27" />
  <path
     fill="none"
     stroke-width="4"
     stroke-linecap="butt"
     stroke-linejoin="round"
     stroke="rgb(0%, 0%, 0%)"
     stroke-opacity="1"
     stroke-miterlimit="10"
     d="M 961.992188 8.007812 L 1121.992188 8.007812 L 1121.992188 168.007812 L 961.992188 168.007812 Z M 961.992188 8.007812 "
     transform="matrix(0.1, 0, 0, -0.1, 0, 113)"
     id="path28" />
  <path
     fill="none"
     stroke-width="4"
     stroke-linecap="butt"
     stroke-linejoin="round"
     stroke="rgb(0%, 0%, 0%)"
     stroke-opacity="1"
     stroke-miterlimit="10"
     d="M 1.992188 968.007812 L 161.992188 968.007812 L 161.992188 1128.007812 L 1.992188 1128.007812 Z M 1.992188 968.007812 "
     transform="matrix(0.1, 0, 0, -0.1, 0, 113)"
     id="path29" />
  <path
     fill="none"
     stroke-width="4"
     stroke-linecap="butt"
     stroke-linejoin="round"
     stroke="rgb(0%, 0%, 0%)"
     stroke-opacity="1"
     stroke-miterlimit="10"
     d="M 1.992188 808.007812 L 321.992188 808.007812 L 321.992188 1128.007812 L 1.992188 1128.007812 Z M 1.992188 808.007812 "
     transform="matrix(0.1, 0, 0, -0.1, 0, 113)"
     id="path30" />
  <path
     fill="none"
     stroke-width="4"
     stroke-linecap="butt"
     stroke-linejoin="round"
     stroke="rgb(0%, 0%, 0%)"
     stroke-opacity="1"
     stroke-miterlimit="10"
     d="M 1.992188 648.007812 L 481.992188 648.007812 L 481.992188 1128.007812 L 1.992188 1128.007812 Z M 1.992188 648.007812 "
     transform="matrix(0.1, 0, 0, -0.1, 0, 113)"
     id="path31" />
  <path
     fill="none"
     stroke-width="4"
     stroke-linecap="butt"
     stroke-linejoin="round"
     stroke="rgb(0%, 0%, 0%)"
     stroke-opacity="1"
     stroke-miterlimit="10"
     d="M 1.992188 488.007812 L 641.992188 488.007812 L 641.992188 1128.007812 L 1.992188 1128.007812 Z M 1.992188 488.007812 "
     transform="matrix(0.1, 0, 0, -0.1, 0, 113)"
     id="path32" />
  <path
     fill="none"
     stroke-width="4"
     stroke-linecap="butt"
     stroke-linejoin="round"
     stroke="rgb(0%, 0%, 0%)"
     stroke-opacity="1"
     stroke-miterlimit="10"
     d="M 1.992188 328.007812 L 801.992188 328.007812 L 801.992188 1128.007812 L 1.992188 1128.007812 Z M 1.992188 328.007812 "
     transform="matrix(0.1, 0, 0, -0.1, 0, 113)"
     id="path33" />
  <path
     fill="none"
     stroke-width="4"
     stroke-linecap="butt"
     stroke-linejoin="round"
     stroke="rgb(0%, 0%, 0%)"
     stroke-opacity="1"
     stroke-miterlimit="10"
     d="M 1.992188 168.007812 L 961.992188 168.007812 L 961.992188 1128.007812 L 1.992188 1128.007812 Z M 1.992188 168.007812 "
     transform="matrix(0.1, 0, 0, -0.1, 0, 113)"
     id="path34" />
  <path
     fill="none"
     stroke-width="4"
     stroke-linecap="butt"
     stroke-linejoin="round"
     stroke="rgb(0%, 0%, 0%)"
     stroke-opacity="1"
     stroke-miterlimit="10"
     d="M 1921.992188 8.007812 L 3041.992188 8.007812 L 3041.992188 1128.007812 L 1921.992188 1128.007812 Z M 1921.992188 8.007812 "
     transform="matrix(0.1, 0, 0, -0.1, 0, 113)"
     id="path35" />
  <path
     fill="none"
     stroke-width="4"
     stroke-linecap="butt"
     stroke-linejoin="round"
     stroke="rgb(0%, 0%, 0%)"
     stroke-opacity="1"
     stroke-miterlimit="10"
     d="M 2081.992188 8.007812 L 3041.992188 8.007812 L 3041.992188 968.007812 L 2081.992188 968.007812 Z M 2081.992188 8.007812 "
     transform="matrix(0.1, 0, 0, -0.1, 0, 113)"
     id="path36" />
  <path
     fill="none"
     stroke-width="4"
     stroke-linecap="butt"
     stroke-linejoin="round"
     stroke="rgb(0%, 0%, 0%)"
     stroke-opacity="1"
     stroke-miterlimit="10"
     d="M 2241.992188 8.007812 L 3041.992188 8.007812 L 3041.992188 808.007812 L 2241.992188 808.007812 Z M 2241.992188 8.007812 "
     transform="matrix(0.1, 0, 0, -0.1, 0, 113)"
     id="path37" />
  <path
     fill="none"
     stroke-width="4"
     stroke-linecap="butt"
     stroke-linejoin="round"
     stroke="rgb(0%, 0%, 0%)"
     stroke-opacity="1"
     stroke-miterlimit="10"
     d="M 2401.992188 8.007812 L 3041.992188 8.007812 L 3041.992188 648.007812 L 2401.992188 648.007812 Z M 2401.992188 8.007812 "
     transform="matrix(0.1, 0, 0, -0.1, 0, 113)"
     id="path38" />
  <path
     fill="none"
     stroke-width="4"
     stroke-linecap="butt"
     stroke-linejoin="round"
     stroke="rgb(0%, 0%, 0%)"
     stroke-opacity="1"
     stroke-miterlimit="10"
     d="M 2561.992188 8.007812 L 3041.992188 8.007812 L 3041.992188 488.007812 L 2561.992188 488.007812 Z M 2561.992188 8.007812 "
     transform="matrix(0.1, 0, 0, -0.1, 0, 113)"
     id="path39" />
  <path
     fill="none"
     stroke-width="4"
     stroke-linecap="butt"
     stroke-linejoin="round"
     stroke="rgb(0%, 0%, 0%)"
     stroke-opacity="1"
     stroke-miterlimit="10"
     d="M 2721.992188 8.007812 L 3041.992188 8.007812 L 3041.992188 328.007812 L 2721.992188 328.007812 Z M 2721.992188 8.007812 "
     transform="matrix(0.1, 0, 0, -0.1, 0, 113)"
     id="path40" />
  <path
     fill="none"
     stroke-width="4"
     stroke-linecap="butt"
     stroke-linejoin="round"
     stroke="rgb(0%, 0%, 0%)"
     stroke-opacity="1"
     stroke-miterlimit="10"
     d="M 2881.992188 8.007812 L 3041.992188 8.007812 L 3041.992188 168.007812 L 2881.992188 168.007812 Z M 2881.992188 8.007812 "
     transform="matrix(0.1, 0, 0, -0.1, 0, 113)"
     id="path41" />
  <path
     fill="none"
     stroke-width="4"
     stroke-linecap="butt"
     stroke-linejoin="round"
     stroke="rgb(0%, 0%, 0%)"
     stroke-opacity="1"
     stroke-miterlimit="10"
     d="M 1921.992188 168.007812 L 2881.992188 168.007812 L 2881.992188 1128.007812 L 1921.992188 1128.007812 Z M 1921.992188 168.007812 "
     transform="matrix(0.1, 0, 0, -0.1, 0, 113)"
     id="path42" />
  <path
     fill="none"
     stroke-width="4"
     stroke-linecap="butt"
     stroke-linejoin="round"
     stroke="rgb(0%, 0%, 0%)"
     stroke-opacity="1"
     stroke-miterlimit="10"
     d="M 1921.992188 328.007812 L 2721.992188 328.007812 L 2721.992188 1128.007812 L 1921.992188 1128.007812 Z M 1921.992188 328.007812 "
     transform="matrix(0.1, 0, 0, -0.1, 0, 113)"
     id="path43" />
  <path
     fill="none"
     stroke-width="4"
     stroke-linecap="butt"
     stroke-linejoin="round"
     stroke="rgb(0%, 0%, 0%)"
     stroke-opacity="1"
     stroke-miterlimit="10"
     d="M 1921.992188 488.007812 L 2561.992188 488.007812 L 2561.992188 1128.007812 L 1921.992188 1128.007812 Z M 1921.992188 488.007812 "
     transform="matrix(0.1, 0, 0, -0.1, 0, 113)"
     id="path44" />
  <path
     fill="none"
     stroke-width="4"
     stroke-linecap="butt"
     stroke-linejoin="round"
     stroke="rgb(0%, 0%, 0%)"
     stroke-opacity="1"
     stroke-miterlimit="10"
     d="M 1921.992188 648.007812 L 2401.992188 648.007812 L 2401.992188 1128.007812 L 1921.992188 1128.007812 Z M 1921.992188 648.007812 "
     transform="matrix(0.1, 0, 0, -0.1, 0, 113)"
     id="path45" />
  <path
     fill="none"
     stroke-width="4"
     stroke-linecap="butt"
     stroke-linejoin="round"
     stroke="rgb(0%, 0%, 0%)"
     stroke-opacity="1"
     stroke-miterlimit="10"
     d="M 1921.992188 648.007812 L 2401.992188 648.007812 L 2401.992188 1128.007812 L 1921.992188 1128.007812 Z M 1921.992188 648.007812 "
     transform="matrix(0.1, 0, 0, -0.1, 0, 113)"
     id="path46" />
  <path
     fill="none"
     stroke-width="4"
     stroke-linecap="butt"
     stroke-linejoin="round"
     stroke="rgb(0%, 0%, 0%)"
     stroke-opacity="1"
     stroke-miterlimit="10"
     d="M 1921.992188 808.007812 L 2241.992188 808.007812 L 2241.992188 1128.007812 L 1921.992188 1128.007812 Z M 1921.992188 808.007812 "
     transform="matrix(0.1, 0, 0, -0.1, 0, 113)"
     id="path47" />
  <path
     fill="none"
     stroke-width="4"
     stroke-linecap="butt"
     stroke-linejoin="round"
     stroke="rgb(0%, 0%, 0%)"
     stroke-opacity="1"
     stroke-miterlimit="10"
     d="M 1921.992188 968.007812 L 2081.992188 968.007812 L 2081.992188 1128.007812 L 1921.992188 1128.007812 Z M 1921.992188 968.007812 "
     transform="matrix(0.1, 0, 0, -0.1, 0, 113)"
     id="path48" />
</svg>
