<?xml version="1.0" encoding="UTF-8" standalone="no"?>
<svg
   width="97pt"
   height="97pt"
   viewBox="0 0 97 97"
   version="1.1"
   id="svg21"
   xmlns="http://www.w3.org/2000/svg"
   xmlns:svg="http://www.w3.org/2000/svg">
  <defs
     id="defs21" />
  <path
     fill="none"
     stroke-width="4"
     stroke-linecap="butt"
     stroke-linejoin="round"
     stroke="rgb(0%, 0%, 0%)"
     stroke-opacity="1"
     stroke-miterlimit="10"
     d="M 161.992188 168.007812 L 801.992188 168.007812 L 801.992188 808.007812 L 161.992188 808.007812 Z M 161.992188 168.007812 "
     transform="matrix(0.1, 0, 0, -0.1, 0, 97)"
     id="path1" />
  <path
     fill="none"
     stroke-width="4"
     stroke-linecap="butt"
     stroke-linejoin="round"
     stroke="rgb(0%, 0%, 0%)"
     stroke-opacity="1"
     stroke-miterlimit="10"
     d="M 321.992188 168.007812 L 801.992188 168.007812 L 801.992188 648.007812 L 321.992188 648.007812 Z M 321.992188 168.007812 "
     transform="matrix(0.1, 0, 0, -0.1, 0, 97)"
     id="path2" />
  <path
     fill="none"
     stroke-width="4"
     stroke-linecap="butt"
     stroke-linejoin="round"
     stroke="rgb(0%, 0%, 0%)"
     stroke-opacity="1"
     stroke-miterlimit="10"
     d="M 481.992188 168.007812 L 801.992188 168.007812 L 801.992188 488.007812 L 481.992188 488.007812 Z M 481.992188 168.007812 "
     transform="matrix(0.1, 0, 0, -0.1, 0, 97)"
     id="path3" />
  <path
     fill="none"
     stroke-width="4"
     stroke-linecap="butt"
     stroke-linejoin="round"
     stroke="rgb(0%, 0%, 0%)"
     stroke-opacity="1"
     stroke-miterlimit="10"
     d="M 641.992188 168.007812 L 801.992188 168.007812 L 801.992188 328.007812 L 641.992188 328.007812 Z M 641.992188 168.007812 "
     transform="matrix(0.1, 0, 0, -0.1, 0, 97)"
     id="path4" />
  <path
     fill="none"
     stroke-width="4"
     stroke-linecap="butt"
     stroke-linejoin="round"
     stroke="rgb(0%, 0%, 0%)"
     stroke-opacity="1"
     stroke-miterlimit="10"
     d="M 161.992188 648.007812 L 321.992188 648.007812 L 321.992188 808.007812 L 161.992188 808.007812 Z M 161.992188 648.007812 "
     transform="matrix(0.1, 0, 0, -0.1, 0, 97)"
     id="path5" />
  <path
     fill="none"
     stroke-width="4"
     stroke-linecap="butt"
     stroke-linejoin="round"
     stroke="rgb(0%, 0%, 0%)"
     stroke-opacity="1"
     stroke-miterlimit="10"
     d="M 161.992188 488.007812 L 481.992188 488.007812 L 481.992188 808.007812 L 161.992188 808.007812 Z M 161.992188 488.007812 "
     transform="matrix(0.1, 0, 0, -0.1, 0, 97)"
     id="path6" />
  <path
     fill="none"
     stroke-width="4"
     stroke-linecap="butt"
     stroke-linejoin="round"
     stroke="rgb(0%, 0%, 0%)"
     stroke-opacity="1"
     stroke-miterlimit="10"
     d="M 161.992188 328.007812 L 641.992188 328.007812 L 641.992188 808.007812 L 161.992188 808.007812 Z M 161.992188 328.007812 "
     transform="matrix(0.1, 0, 0, -0.1, 0, 97)"
     id="path7" />
  <path
     fill="none"
     stroke-width="4"
     stroke-linecap="butt"
     stroke-linejoin="round"
     stroke="rgb(0%, 0%, 0%)"
     stroke-opacity="1"
     stroke-miterlimit="10"
     d="M 161.992188 168.007812 L 1.992188 168.007812 Z M 161.992188 168.007812 "
     transform="matrix(0.1, 0, 0, -0.1, 0, 97)"
     id="path8" />
  <path
     fill="none"
     stroke-width="4"
     stroke-linecap="butt"
     stroke-linejoin="round"
     stroke="rgb(0%, 0%, 0%)"
     stroke-opacity="1"
     stroke-miterlimit="10"
     d="M 1.992188 168.007812 L 161.992188 168.007812 L 161.992188 808.007812 L 1.992188 808.007812 Z M 1.992188 168.007812 "
     transform="matrix(0.1, 0, 0, -0.1, 0, 97)"
     id="path9" />
  <path
     fill="none"
     stroke-width="4"
     stroke-linecap="butt"
     stroke-linejoin="round"
     stroke="rgb(0%, 0%, 0%)"
     stroke-opacity="1"
     stroke-miterlimit="10"
     d="M 161.992188 8.007812 L 801.992188 8.007812 L 801.992188 168.007812 L 161.992188 168.007812 Z M 161.992188 8.007812 "
     transform="matrix(0.1, 0, 0, -0.1, 0, 97)"
     id="path10" />
  <path
     fill="none"
     stroke-width="4"
     stroke-linecap="butt"
     stroke-linejoin="round"
     stroke="rgb(0%, 0%, 0%)"
     stroke-opacity="1"
     stroke-miterlimit="10"
     d="M 801.992188 168.007812 L 961.992188 168.007812 L 961.992188 808.007812 L 801.992188 808.007812 Z M 801.992188 168.007812 "
     transform="matrix(0.1, 0, 0, -0.1, 0, 97)"
     id="path11" />
  <path
     fill="none"
     stroke-width="4"
     stroke-linecap="butt"
     stroke-linejoin="round"
     stroke="rgb(0%, 0%, 0%)"
     stroke-opacity="1"
     stroke-miterlimit="10"
     d="M 161.992188 808.007812 L 801.992188 808.007812 L 801.992188 968.007812 L 161.992188 968.007812 Z M 161.992188 808.007812 "
     transform="matrix(0.1, 0, 0, -0.1, 0, 97)"
     id="path12" />
  <path
     fill="none"
     stroke-width="4"
     stroke-linecap="butt"
     stroke-linejoin="round"
     stroke="rgb(0%, 0%, 0%)"
     stroke-opacity="1"
     stroke-miterlimit="10"
     d="M 321.992188 808.007812 L 641.992188 808.007812 L 641.992188 968.007812 L 321.992188 968.007812 Z M 321.992188 808.007812 "
     transform="matrix(0.1, 0, 0, -0.1, 0, 97)"
     id="path13" />
  <path
     fill="none"
     stroke-width="4"
     stroke-linecap="butt"
     stroke-linejoin="round"
     stroke="rgb(0%, 0%, 0%)"
     stroke-opacity="1"
     stroke-miterlimit="10"
     d="M 481.992188 808.007812 L 481.992188 968.007812 Z M 481.992188 808.007812 "
     transform="matrix(0.1, 0, 0, -0.1, 0, 97)"
     id="path14" />
  <path
     fill="none"
     stroke-width="4"
     stroke-linecap="butt"
     stroke-linejoin="round"
     stroke="rgb(0%, 0%, 0%)"
     stroke-opacity="1"
     stroke-miterlimit="10"
     d="M 801.992188 488.007812 L 961.992188 488.007812 L 961.992188 648.007812 L 801.992188 648.007812 Z M 801.992188 488.007812 "
     transform="matrix(0.1, 0, 0, -0.1, 0, 97)"
     id="path15" />
  <path
     fill="none"
     stroke-width="4"
     stroke-linecap="butt"
     stroke-linejoin="round"
     stroke="rgb(0%, 0%, 0%)"
     stroke-opacity="1"
     stroke-miterlimit="10"
     d="M 801.992188 168.007812 L 961.992188 168.007812 L 961.992188 328.007812 L 801.992188 328.007812 Z M 801.992188 168.007812 "
     transform="matrix(0.1, 0, 0, -0.1, 0, 97)"
     id="path16" />
  <path
     fill="none"
     stroke-width="4"
     stroke-linecap="butt"
     stroke-linejoin="round"
     stroke="rgb(0%, 0%, 0%)"
     stroke-opacity="1"
     stroke-miterlimit="10"
     d="M 641.992188 8.007812 L 801.992188 8.007812 L 801.992188 168.007812 L 641.992188 168.007812 Z M 641.992188 8.007812 "
     transform="matrix(0.1, 0, 0, -0.1, 0, 97)"
     id="path17" />
  <path
     fill="none"
     stroke-width="4"
     stroke-linecap="butt"
     stroke-linejoin="round"
     stroke="rgb(0%, 0%, 0%)"
     stroke-opacity="1"
     stroke-miterlimit="10"
     d="M 481.992188 8.007812 L 641.992188 8.007812 L 641.992188 168.007812 L 481.992188 168.007812 Z M 481.992188 8.007812 "
     transform="matrix(0.1, 0, 0, -0.1, 0, 97)"
     id="path18" />
  <path
     fill="none"
     stroke-width="4"
     stroke-linecap="butt"
     stroke-linejoin="round"
     stroke="rgb(0%, 0%, 0%)"
     stroke-opacity="1"
     stroke-miterlimit="10"
     d="M 161.992188 8.007812 L 321.992188 8.007812 L 321.992188 168.007812 L 161.992188 168.007812 Z M 161.992188 8.007812 "
     transform="matrix(0.1, 0, 0, -0.1, 0, 97)"
     id="path19" />
  <path
     fill="none"
     stroke-width="4"
     stroke-linecap="butt"
     stroke-linejoin="round"
     stroke="rgb(0%, 0%, 0%)"
     stroke-opacity="1"
     stroke-miterlimit="10"
     d="M 1.992188 328.007812 L 161.992188 328.007812 L 161.992188 488.007812 L 1.992188 488.007812 Z M 1.992188 328.007812 "
     transform="matrix(0.1, 0, 0, -0.1, 0, 97)"
     id="path20" />
  <path
     fill="none"
     stroke-width="4"
     stroke-linecap="butt"
     stroke-linejoin="round"
     stroke="rgb(0%, 0%, 0%)"
     stroke-opacity="1"
     stroke-miterlimit="10"
     d="M 1.992188 488.007812 L 161.992188 488.007812 L 161.992188 648.007812 L 1.992188 648.007812 Z M 1.992188 488.007812 "
     transform="matrix(0.1, 0, 0, -0.1, 0, 97)"
     id="path21" />
</svg>
