<?xml version="1.0" encoding="UTF-8" standalone="no"?>
<svg
   width="304.4pt"
   height="32.4pt"
   viewBox="0 0 304.4 32.4"
   version="1.1"
   id="svg28"
   xmlns="http://www.w3.org/2000/svg"
   xmlns:svg="http://www.w3.org/2000/svg">
  <defs
     id="defs12">
    <clipPath
       id="clip-0">
      <path
         clip-rule="nonzero"
         d="M 0 0 L 33 0 L 33 32.398438 L 0 32.398438 Z M 0 0 "
         id="path1" />
    </clipPath>
    <clipPath
       id="clip-1">
      <path
         clip-rule="nonzero"
         d="M 0 16 L 17 16 L 17 32.398438 L 0 32.398438 Z M 0 16 "
         id="path2" />
    </clipPath>
    <clipPath
       id="clip-2">
      <path
         clip-rule="nonzero"
         d="M 48 16 L 97 16 L 97 32.398438 L 48 32.398438 Z M 48 16 "
         id="path3" />
    </clipPath>
    <clipPath
       id="clip-3">
      <path
         clip-rule="nonzero"
         d="M 64 16 L 81 16 L 81 32.398438 L 64 32.398438 Z M 64 16 "
         id="path4" />
    </clipPath>
    <clipPath
       id="clip-4">
      <path
         clip-rule="nonzero"
         d="M 128 16 L 145 16 L 145 32.398438 L 128 32.398438 Z M 128 16 "
         id="path5" />
    </clipPath>
    <clipPath
       id="clip-5">
      <path
         clip-rule="nonzero"
         d="M 112 16 L 129 16 L 129 32.398438 L 112 32.398438 Z M 112 16 "
         id="path6" />
    </clipPath>
    <clipPath
       id="clip-6">
      <path
         clip-rule="nonzero"
         d="M 176 0 L 193 0 L 193 32.398438 L 176 32.398438 Z M 176 0 "
         id="path7" />
    </clipPath>
    <clipPath
       id="clip-7">
      <path
         clip-rule="nonzero"
         d="M 176 16 L 225 16 L 225 32.398438 L 176 32.398438 Z M 176 16 "
         id="path8" />
    </clipPath>
    <clipPath
       id="clip-8">
      <path
         clip-rule="nonzero"
         d="M 208 16 L 225 16 L 225 32.398438 L 208 32.398438 Z M 208 16 "
         id="path9" />
    </clipPath>
    <clipPath
       id="clip-9">
      <path
         clip-rule="nonzero"
         d="M 240 16 L 304.398438 16 L 304.398438 32.398438 L 240 32.398438 Z M 240 16 "
         id="path10" />
    </clipPath>
    <clipPath
       id="clip-10">
      <path
         clip-rule="nonzero"
         d="M 256 16 L 289 16 L 289 32.398438 L 256 32.398438 Z M 256 16 "
         id="path11" />
    </clipPath>
    <clipPath
       id="clip-11">
      <path
         clip-rule="nonzero"
         d="M 272 16 L 304.398438 16 L 304.398438 32.398438 L 272 32.398438 Z M 272 16 "
         id="path12" />
    </clipPath>
  </defs>
  <g
     clip-path="url(#clip-0)"
     id="g13">
    <path
       fill="none"
       stroke-width="0.4"
       stroke-linecap="butt"
       stroke-linejoin="round"
       stroke="rgb(0%, 0%, 0%)"
       stroke-opacity="1"
       stroke-miterlimit="10"
       d="M 95.999219 672.000781 L 95.999219 640.000781 L 127.999219 640.000781 L 127.999219 672.000781 Z M 95.999219 672.000781 "
       transform="matrix(1, 0, 0, -1, -95.8, 672.2)"
       id="path13" />
  </g>
  <path
     fill="none"
     stroke-width="0.4"
     stroke-linecap="butt"
     stroke-linejoin="round"
     stroke="rgb(0%, 0%, 0%)"
     stroke-opacity="1"
     stroke-miterlimit="10"
     d="M 127.999219 672.000781 L 127.999219 656.000781 L 111.999219 656.000781 L 111.999219 672.000781 Z M 127.999219 672.000781 "
     transform="matrix(1, 0, 0, -1, -95.8, 672.2)"
     id="path14" />
  <g
     clip-path="url(#clip-1)"
     id="g15">
    <path
       fill="none"
       stroke-width="0.4"
       stroke-linecap="butt"
       stroke-linejoin="round"
       stroke="rgb(0%, 0%, 0%)"
       stroke-opacity="1"
       stroke-miterlimit="10"
       d="M 111.999219 656.000781 L 111.999219 640.000781 L 95.999219 640.000781 L 95.999219 656.000781 Z M 111.999219 656.000781 "
       transform="matrix(1, 0, 0, -1, -95.8, 672.2)"
       id="path15" />
  </g>
  <path
     fill="none"
     stroke-width="0.4"
     stroke-linecap="butt"
     stroke-linejoin="round"
     stroke="rgb(0%, 0%, 0%)"
     stroke-opacity="1"
     stroke-miterlimit="10"
     d="M 159.999219 672.000781 L 159.999219 656.000781 L 175.999219 656.000781 L 175.999219 672.000781 Z M 159.999219 672.000781 "
     transform="matrix(1, 0, 0, -1, -95.8, 672.2)"
     id="path16" />
  <g
     clip-path="url(#clip-2)"
     id="g17">
    <path
       fill="none"
       stroke-width="0.4"
       stroke-linecap="butt"
       stroke-linejoin="round"
       stroke="rgb(0%, 0%, 0%)"
       stroke-opacity="1"
       stroke-miterlimit="10"
       d="M 143.999219 656.000781 L 143.999219 640.000781 L 191.999219 640.000781 L 191.999219 656.000781 Z M 143.999219 656.000781 "
       transform="matrix(1, 0, 0, -1, -95.8, 672.2)"
       id="path17" />
  </g>
  <g
     clip-path="url(#clip-3)"
     id="g18">
    <path
       fill="none"
       stroke-width="0.4"
       stroke-linecap="butt"
       stroke-linejoin="round"
       stroke="rgb(0%, 0%, 0%)"
       stroke-opacity="1"
       stroke-miterlimit="10"
       d="M 159.999219 656.000781 L 159.999219 640.000781 L 175.999219 640.000781 L 175.999219 656.000781 Z M 159.999219 656.000781 "
       transform="matrix(1, 0, 0, -1, -95.8, 672.2)"
       id="path18" />
  </g>
  <path
     fill="none"
     stroke-width="0.4"
     stroke-linecap="butt"
     stroke-linejoin="round"
     stroke="rgb(0%, 0%, 0%)"
     stroke-opacity="1"
     stroke-miterlimit="10"
     d="M 255.999219 672.000781 L 255.999219 656.000781 L 239.999219 656.000781 L 239.999219 672.000781 Z M 255.999219 672.000781 "
     transform="matrix(1, 0, 0, -1, -95.8, 672.2)"
     id="path19" />
  <path
     fill="none"
     stroke-width="0.4"
     stroke-linecap="butt"
     stroke-linejoin="round"
     stroke="rgb(0%, 0%, 0%)"
     stroke-opacity="1"
     stroke-miterlimit="10"
     d="M 239.999219 672.000781 L 239.999219 656.000781 L 223.999219 656.000781 L 223.999219 672.000781 Z M 239.999219 672.000781 "
     transform="matrix(1, 0, 0, -1, -95.8, 672.2)"
     id="path20" />
  <g
     clip-path="url(#clip-4)"
     id="g21">
    <path
       fill="none"
       stroke-width="0.4"
       stroke-linecap="butt"
       stroke-linejoin="round"
       stroke="rgb(0%, 0%, 0%)"
       stroke-opacity="1"
       stroke-miterlimit="10"
       d="M 239.999219 656.000781 L 239.999219 640.000781 L 223.999219 640.000781 L 223.999219 656.000781 Z M 239.999219 656.000781 "
       transform="matrix(1, 0, 0, -1, -95.8, 672.2)"
       id="path21" />
  </g>
  <g
     clip-path="url(#clip-5)"
     id="g22">
    <path
       fill="none"
       stroke-width="0.4"
       stroke-linecap="butt"
       stroke-linejoin="round"
       stroke="rgb(0%, 0%, 0%)"
       stroke-opacity="1"
       stroke-miterlimit="10"
       d="M 223.999219 656.000781 L 223.999219 640.000781 L 207.999219 640.000781 L 207.999219 656.000781 Z M 223.999219 656.000781 "
       transform="matrix(1, 0, 0, -1, -95.8, 672.2)"
       id="path22" />
  </g>
  <g
     clip-path="url(#clip-6)"
     id="g23">
    <path
       fill="none"
       stroke-width="0.4"
       stroke-linecap="butt"
       stroke-linejoin="round"
       stroke="rgb(0%, 0%, 0%)"
       stroke-opacity="1"
       stroke-miterlimit="10"
       d="M 271.999219 672.000781 L 271.999219 640.000781 L 287.999219 640.000781 L 287.999219 672.000781 Z M 271.999219 672.000781 "
       transform="matrix(1, 0, 0, -1, -95.8, 672.2)"
       id="path23" />
  </g>
  <g
     clip-path="url(#clip-7)"
     id="g24">
    <path
       fill="none"
       stroke-width="0.4"
       stroke-linecap="butt"
       stroke-linejoin="round"
       stroke="rgb(0%, 0%, 0%)"
       stroke-opacity="1"
       stroke-miterlimit="10"
       d="M 271.999219 656.000781 L 271.999219 640.000781 L 319.999219 640.000781 L 319.999219 656.000781 Z M 271.999219 656.000781 "
       transform="matrix(1, 0, 0, -1, -95.8, 672.2)"
       id="path24" />
  </g>
  <g
     clip-path="url(#clip-8)"
     id="g25">
    <path
       fill="none"
       stroke-width="0.4"
       stroke-linecap="butt"
       stroke-linejoin="round"
       stroke="rgb(0%, 0%, 0%)"
       stroke-opacity="1"
       stroke-miterlimit="10"
       d="M 319.999219 656.000781 L 319.999219 640.000781 L 303.999219 640.000781 L 303.999219 656.000781 Z M 319.999219 656.000781 "
       transform="matrix(1, 0, 0, -1, -95.8, 672.2)"
       id="path25" />
  </g>
  <g
     clip-path="url(#clip-9)"
     id="g26">
    <path
       fill="none"
       stroke-width="0.4"
       stroke-linecap="butt"
       stroke-linejoin="round"
       stroke="rgb(0%, 0%, 0%)"
       stroke-opacity="1"
       stroke-miterlimit="10"
       d="M 335.999219 656.000781 L 335.999219 640.000781 L 399.999219 640.000781 L 399.999219 656.000781 Z M 335.999219 656.000781 "
       transform="matrix(1, 0, 0, -1, -95.8, 672.2)"
       id="path26" />
  </g>
  <g
     clip-path="url(#clip-10)"
     id="g27">
    <path
       fill="none"
       stroke-width="0.4"
       stroke-linecap="butt"
       stroke-linejoin="round"
       stroke="rgb(0%, 0%, 0%)"
       stroke-opacity="1"
       stroke-miterlimit="10"
       d="M 351.999219 656.000781 L 351.999219 640.000781 L 383.999219 640.000781 L 383.999219 656.000781 Z M 351.999219 656.000781 "
       transform="matrix(1, 0, 0, -1, -95.8, 672.2)"
       id="path27" />
  </g>
  <g
     clip-path="url(#clip-11)"
     id="g28">
    <path
       fill="none"
       stroke-width="0.4"
       stroke-linecap="butt"
       stroke-linejoin="round"
       stroke="rgb(0%, 0%, 0%)"
       stroke-opacity="1"
       stroke-miterlimit="10"
       d="M 399.999219 656.000781 L 399.999219 640.000781 L 367.999219 640.000781 L 367.999219 656.000781 Z M 399.999219 656.000781 "
       transform="matrix(1, 0, 0, -1, -95.8, 672.2)"
       id="path28" />
  </g>
</svg>
