<?xml version="1.0" encoding="UTF-8" standalone="no"?>
<svg
   width="294pt"
   height="70pt"
   viewBox="0 0 294 70"
   version="1.1"
   id="svg40"
   xmlns="http://www.w3.org/2000/svg"
   xmlns:svg="http://www.w3.org/2000/svg">
  <defs
     id="defs40" />
  <path
     fill-rule="evenodd"
     fill="rgb(0%, 0%, 0%)"
     fill-opacity="1"
     d="M 6 3 C 6 1.34375 4.65625 0 3 0 C 1.34375 0 0 1.34375 0 3 C 0 4.65625 1.34375 6 3 6 C 4.65625 6 6 4.65625 6 3 "
     id="path1" />
  <path
     fill-rule="evenodd"
     fill="rgb(0%, 0%, 0%)"
     fill-opacity="1"
     d="M 38 3 C 38 1.34375 36.65625 0 35 0 C 33.34375 0 32 1.34375 32 3 C 32 4.65625 33.34375 6 35 6 C 36.65625 6 38 4.65625 38 3 "
     id="path2" />
  <path
     fill-rule="evenodd"
     fill="rgb(0%, 0%, 0%)"
     fill-opacity="1"
     d="M 70 3 C 70 1.34375 68.65625 0 67 0 C 65.34375 0 64 1.34375 64 3 C 64 4.65625 65.34375 6 67 6 C 68.65625 6 70 4.65625 70 3 "
     id="path3" />
  <path
     fill-rule="evenodd"
     fill="rgb(0%, 0%, 0%)"
     fill-opacity="1"
     d="M 102 3 C 102 1.34375 100.65625 0 99 0 C 97.34375 0 96 1.34375 96 3 C 96 4.65625 97.34375 6 99 6 C 100.65625 6 102 4.65625 102 3 "
     id="path4" />
  <path
     fill-rule="evenodd"
     fill="rgb(0%, 0%, 100%)"
     fill-opacity="1"
     d="M 166 3 C 166 1.34375 164.65625 0 163 0 C 161.34375 0 160 1.34375 160 3 C 160 4.65625 161.34375 6 163 6 C 164.65625 6 166 4.65625 166 3 "
     id="path5" />
  <path
     fill-rule="evenodd"
     fill="rgb(0%, 0%, 0%)"
     fill-opacity="1"
     d="M 134 3 C 134 1.34375 132.65625 0 131 0 C 129.34375 0 128 1.34375 128 3 C 128 4.65625 129.34375 6 131 6 C 132.65625 6 134 4.65625 134 3 "
     id="path6" />
  <path
     fill-rule="evenodd"
     fill="rgb(0%, 0%, 0%)"
     fill-opacity="1"
     d="M 198 3 C 198 1.34375 196.65625 0 195 0 C 193.34375 0 192 1.34375 192 3 C 192 4.65625 193.34375 6 195 6 C 196.65625 6 198 4.65625 198 3 "
     id="path7" />
  <path
     fill-rule="evenodd"
     fill="rgb(0%, 0%, 0%)"
     fill-opacity="1"
     d="M 230 3 C 230 1.34375 228.65625 0 227 0 C 225.34375 0 224 1.34375 224 3 C 224 4.65625 225.34375 6 227 6 C 228.65625 6 230 4.65625 230 3 "
     id="path8" />
  <path
     fill-rule="evenodd"
     fill="rgb(0%, 0%, 0%)"
     fill-opacity="1"
     d="M 262 3 C 262 1.34375 260.65625 0 259 0 C 257.34375 0 256 1.34375 256 3 C 256 4.65625 257.34375 6 259 6 C 260.65625 6 262 4.65625 262 3 "
     id="path9" />
  <path
     fill-rule="evenodd"
     fill="rgb(0%, 0%, 0%)"
     fill-opacity="1"
     d="M 294 3 C 294 1.34375 292.65625 0 291 0 C 289.34375 0 288 1.34375 288 3 C 288 4.65625 289.34375 6 291 6 C 292.65625 6 294 4.65625 294 3 "
     id="path10" />
  <path
     fill-rule="evenodd"
     fill="rgb(0%, 0%, 0%)"
     fill-opacity="1"
     d="M 6 67 C 6 65.34375 4.65625 64 3 64 C 1.34375 64 0 65.34375 0 67 C 0 68.65625 1.34375 70 3 70 C 4.65625 70 6 68.65625 6 67 "
     id="path11" />
  <path
     fill-rule="evenodd"
     fill="rgb(0%, 0%, 0%)"
     fill-opacity="1"
     d="M 38 67 C 38 65.34375 36.65625 64 35 64 C 33.34375 64 32 65.34375 32 67 C 32 68.65625 33.34375 70 35 70 C 36.65625 70 38 68.65625 38 67 "
     id="path12" />
  <path
     fill-rule="evenodd"
     fill="rgb(0%, 0%, 0%)"
     fill-opacity="1"
     d="M 70 67 C 70 65.34375 68.65625 64 67 64 C 65.34375 64 64 65.34375 64 67 C 64 68.65625 65.34375 70 67 70 C 68.65625 70 70 68.65625 70 67 "
     id="path13" />
  <path
     fill-rule="evenodd"
     fill="rgb(0%, 0%, 0%)"
     fill-opacity="1"
     d="M 102 67 C 102 65.34375 100.65625 64 99 64 C 97.34375 64 96 65.34375 96 67 C 96 68.65625 97.34375 70 99 70 C 100.65625 70 102 68.65625 102 67 "
     id="path14" />
  <path
     fill-rule="evenodd"
     fill="rgb(0%, 0%, 0%)"
     fill-opacity="1"
     d="M 134 67 C 134 65.34375 132.65625 64 131 64 C 129.34375 64 128 65.34375 128 67 C 128 68.65625 129.34375 70 131 70 C 132.65625 70 134 68.65625 134 67 "
     id="path15" />
  <path
     fill-rule="evenodd"
     fill="rgb(100%, 0%, 0%)"
     fill-opacity="1"
     d="M 166 67 C 166 65.34375 164.65625 64 163 64 C 161.34375 64 160 65.34375 160 67 C 160 68.65625 161.34375 70 163 70 C 164.65625 70 166 68.65625 166 67 "
     id="path16" />
  <path
     fill-rule="evenodd"
     fill="rgb(0%, 0%, 0%)"
     fill-opacity="1"
     d="M 198 67 C 198 65.34375 196.65625 64 195 64 C 193.34375 64 192 65.34375 192 67 C 192 68.65625 193.34375 70 195 70 C 196.65625 70 198 68.65625 198 67 "
     id="path17" />
  <path
     fill-rule="evenodd"
     fill="rgb(0%, 0%, 0%)"
     fill-opacity="1"
     d="M 230 67 C 230 65.34375 228.65625 64 227 64 C 225.34375 64 224 65.34375 224 67 C 224 68.65625 225.34375 70 227 70 C 228.65625 70 230 68.65625 230 67 "
     id="path18" />
  <path
     fill-rule="evenodd"
     fill="rgb(0%, 0%, 0%)"
     fill-opacity="1"
     d="M 262 67 C 262 65.34375 260.65625 64 259 64 C 257.34375 64 256 65.34375 256 67 C 256 68.65625 257.34375 70 259 70 C 260.65625 70 262 68.65625 262 67 "
     id="path19" />
  <path
     fill-rule="evenodd"
     fill="rgb(0%, 0%, 0%)"
     fill-opacity="1"
     d="M 294 67 C 294 65.34375 292.65625 64 291 64 C 289.34375 64 288 65.34375 288 67 C 288 68.65625 289.34375 70 291 70 C 292.65625 70 294 68.65625 294 67 "
     id="path20" />
  <path
     fill="none"
     stroke-width="8"
     stroke-linecap="butt"
     stroke-linejoin="round"
     stroke="rgb(0%, 0%, 100%)"
     stroke-opacity="1"
     stroke-miterlimit="10"
     d="M 1630 670 L 1630 30 "
     transform="matrix(0.1, 0, 0, -0.1, 0, 70)"
     id="path21" />
  <path
     fill-rule="evenodd"
     fill="rgb(0%, 0%, 100%)"
     fill-opacity="1"
     stroke-width="8"
     stroke-linecap="butt"
     stroke-linejoin="round"
     stroke="rgb(0%, 0%, 100%)"
     stroke-opacity="1"
     stroke-miterlimit="10"
     d="M 1630 30 L 1653.320312 100 L 1606.679688 100 Z M 1630 30 "
     transform="matrix(0.1, 0, 0, -0.1, 0, 70)"
     id="path22" />
  <path
     fill="none"
     stroke-width="8"
     stroke-linecap="butt"
     stroke-linejoin="round"
     stroke="rgb(0%, 0%, 100%)"
     stroke-opacity="1"
     stroke-miterlimit="10"
     d="M 1630 670 L 1950 30 "
     transform="matrix(0.1, 0, 0, -0.1, 0, 70)"
     id="path23" />
  <path
     fill-rule="evenodd"
     fill="rgb(0%, 0%, 100%)"
     fill-opacity="1"
     stroke-width="8"
     stroke-linecap="butt"
     stroke-linejoin="round"
     stroke="rgb(0%, 0%, 100%)"
     stroke-opacity="1"
     stroke-miterlimit="10"
     d="M 1950 30 L 1939.53125 103.046875 L 1897.851562 82.1875 Z M 1950 30 "
     transform="matrix(0.1, 0, 0, -0.1, 0, 70)"
     id="path24" />
  <path
     fill="none"
     stroke-width="8"
     stroke-linecap="butt"
     stroke-linejoin="round"
     stroke="rgb(0%, 0%, 100%)"
     stroke-opacity="1"
     stroke-miterlimit="10"
     d="M 1630 670 L 2270 30 "
     transform="matrix(0.1, 0, 0, -0.1, 0, 70)"
     id="path25" />
  <path
     fill-rule="evenodd"
     fill="rgb(0%, 0%, 100%)"
     fill-opacity="1"
     stroke-width="8"
     stroke-linecap="butt"
     stroke-linejoin="round"
     stroke="rgb(0%, 0%, 100%)"
     stroke-opacity="1"
     stroke-miterlimit="10"
     d="M 2270 30 L 2236.992188 95.976562 L 2204.023438 63.007812 Z M 2270 30 "
     transform="matrix(0.1, 0, 0, -0.1, 0, 70)"
     id="path26" />
  <path
     fill="none"
     stroke-width="8"
     stroke-linecap="butt"
     stroke-linejoin="round"
     stroke="rgb(0%, 0%, 100%)"
     stroke-opacity="1"
     stroke-miterlimit="10"
     d="M 1630 670 L 2590 30 "
     transform="matrix(0.1, 0, 0, -0.1, 0, 70)"
     id="path27" />
  <path
     fill-rule="evenodd"
     fill="rgb(0%, 0%, 100%)"
     fill-opacity="1"
     stroke-width="8"
     stroke-linecap="butt"
     stroke-linejoin="round"
     stroke="rgb(0%, 0%, 100%)"
     stroke-opacity="1"
     stroke-miterlimit="10"
     d="M 2590 30 L 2544.6875 88.203125 L 2518.828125 49.414062 Z M 2590 30 "
     transform="matrix(0.1, 0, 0, -0.1, 0, 70)"
     id="path28" />
  <path
     fill="none"
     stroke-width="8"
     stroke-linecap="butt"
     stroke-linejoin="round"
     stroke="rgb(0%, 0%, 100%)"
     stroke-opacity="1"
     stroke-miterlimit="10"
     d="M 1630 670 L 2910 30 "
     transform="matrix(0.1, 0, 0, -0.1, 0, 70)"
     id="path29" />
  <path
     fill-rule="evenodd"
     fill="rgb(0%, 0%, 100%)"
     fill-opacity="1"
     stroke-width="8"
     stroke-linecap="butt"
     stroke-linejoin="round"
     stroke="rgb(0%, 0%, 100%)"
     stroke-opacity="1"
     stroke-miterlimit="10"
     d="M 2910 30 L 2857.8125 82.148438 L 2836.953125 40.46875 Z M 2910 30 "
     transform="matrix(0.1, 0, 0, -0.1, 0, 70)"
     id="path30" />
  <path
     fill="none"
     stroke-width="8"
     stroke-linecap="butt"
     stroke-linejoin="round"
     stroke="rgb(100%, 0%, 0%)"
     stroke-opacity="1"
     stroke-miterlimit="10"
     d="M 1630 30 L 1950 670 "
     transform="matrix(0.1, 0, 0, -0.1, 0, 70)"
     id="path31" />
  <path
     fill-rule="evenodd"
     fill="rgb(100%, 0%, 0%)"
     fill-opacity="1"
     stroke-width="8"
     stroke-linecap="butt"
     stroke-linejoin="round"
     stroke="rgb(100%, 0%, 0%)"
     stroke-opacity="1"
     stroke-miterlimit="10"
     d="M 1950 670 L 1897.851562 617.8125 L 1939.53125 596.953125 Z M 1950 670 "
     transform="matrix(0.1, 0, 0, -0.1, 0, 70)"
     id="path32" />
  <path
     fill="none"
     stroke-width="8"
     stroke-linecap="butt"
     stroke-linejoin="round"
     stroke="rgb(100%, 0%, 0%)"
     stroke-opacity="1"
     stroke-miterlimit="10"
     d="M 1630 30 L 2270 670 "
     transform="matrix(0.1, 0, 0, -0.1, 0, 70)"
     id="path33" />
  <path
     fill-rule="evenodd"
     fill="rgb(100%, 0%, 0%)"
     fill-opacity="1"
     stroke-width="8"
     stroke-linecap="butt"
     stroke-linejoin="round"
     stroke="rgb(100%, 0%, 0%)"
     stroke-opacity="1"
     stroke-miterlimit="10"
     d="M 2270 670 L 2204.023438 636.992188 L 2236.992188 604.023438 Z M 2270 670 "
     transform="matrix(0.1, 0, 0, -0.1, 0, 70)"
     id="path34" />
  <path
     fill="none"
     stroke-width="8"
     stroke-linecap="butt"
     stroke-linejoin="round"
     stroke="rgb(100%, 0%, 0%)"
     stroke-opacity="1"
     stroke-miterlimit="10"
     d="M 1630 30 L 2590 670 "
     transform="matrix(0.1, 0, 0, -0.1, 0, 70)"
     id="path35" />
  <path
     fill-rule="evenodd"
     fill="rgb(100%, 0%, 0%)"
     fill-opacity="1"
     stroke-width="8"
     stroke-linecap="butt"
     stroke-linejoin="round"
     stroke="rgb(100%, 0%, 0%)"
     stroke-opacity="1"
     stroke-miterlimit="10"
     d="M 2590 670 L 2518.828125 650.585938 L 2544.6875 611.796875 Z M 2590 670 "
     transform="matrix(0.1, 0, 0, -0.1, 0, 70)"
     id="path36" />
  <path
     fill="none"
     stroke-width="8"
     stroke-linecap="butt"
     stroke-linejoin="round"
     stroke="rgb(100%, 0%, 0%)"
     stroke-opacity="1"
     stroke-miterlimit="10"
     d="M 1630 30 L 2910 670 "
     transform="matrix(0.1, 0, 0, -0.1, 0, 70)"
     id="path37" />
  <path
     fill-rule="evenodd"
     fill="rgb(100%, 0%, 0%)"
     fill-opacity="1"
     stroke-width="8"
     stroke-linecap="butt"
     stroke-linejoin="round"
     stroke="rgb(100%, 0%, 0%)"
     stroke-opacity="1"
     stroke-miterlimit="10"
     d="M 2910 670 L 2836.953125 659.53125 L 2857.8125 617.851562 Z M 2910 670 "
     transform="matrix(0.1, 0, 0, -0.1, 0, 70)"
     id="path38" />
  <path
     fill="none"
     stroke-width="8"
     stroke-linecap="butt"
     stroke-linejoin="round"
     stroke="rgb(100%, 0%, 0%)"
     stroke-opacity="1"
     stroke-miterlimit="10"
     d="M 1630 30 L 30 670 "
     transform="matrix(0.1, 0, 0, -0.1, 0, 70)"
     id="path39" />
  <path
     fill-rule="evenodd"
     fill="rgb(100%, 0%, 0%)"
     fill-opacity="1"
     stroke-width="8"
     stroke-linecap="butt"
     stroke-linejoin="round"
     stroke="rgb(100%, 0%, 0%)"
     stroke-opacity="1"
     stroke-miterlimit="10"
     d="M 30 670 L 86.328125 622.34375 L 103.632812 665.664062 Z M 30 670 "
     transform="matrix(0.1, 0, 0, -0.1, 0, 70)"
     id="path40" />
</svg>
