<?xml version="1.0" encoding="UTF-8" standalone="no"?>
<svg
   width="400.8pt"
   height="144.8pt"
   viewBox="0 0 400.8 144.8"
   version="1.1"
   id="svg30"
   xmlns="http://www.w3.org/2000/svg"
   xmlns:svg="http://www.w3.org/2000/svg">
  <defs
     id="defs10">
    <clipPath
       id="clip-0">
      <path
         clip-rule="nonzero"
         d="M 0 0 L 145 0 L 145 144.800781 L 0 144.800781 Z M 0 0 "
         id="path1" />
    </clipPath>
    <clipPath
       id="clip-1">
      <path
         clip-rule="nonzero"
         d="M 96 96 L 145 96 L 145 144.800781 L 96 144.800781 Z M 96 96 "
         id="path2" />
    </clipPath>
    <clipPath
       id="clip-2">
      <path
         clip-rule="nonzero"
         d="M 0 96 L 49 96 L 49 144.800781 L 0 144.800781 Z M 0 96 "
         id="path3" />
    </clipPath>
    <clipPath
       id="clip-3">
      <path
         clip-rule="nonzero"
         d="M 48 96 L 97 96 L 97 144.800781 L 48 144.800781 Z M 48 96 "
         id="path4" />
    </clipPath>
    <clipPath
       id="clip-4">
      <path
         clip-rule="nonzero"
         d="M 256 0 L 400.800781 0 L 400.800781 144.800781 L 256 144.800781 Z M 256 0 "
         id="path5" />
    </clipPath>
    <clipPath
       id="clip-5">
      <path
         clip-rule="nonzero"
         d="M 352 0 L 400.800781 0 L 400.800781 49 L 352 49 Z M 352 0 "
         id="path6" />
    </clipPath>
    <clipPath
       id="clip-6">
      <path
         clip-rule="nonzero"
         d="M 352 48 L 400.800781 48 L 400.800781 97 L 352 97 Z M 352 48 "
         id="path7" />
    </clipPath>
    <clipPath
       id="clip-7">
      <path
         clip-rule="nonzero"
         d="M 352 96 L 400.800781 96 L 400.800781 144.800781 L 352 144.800781 Z M 352 96 "
         id="path8" />
    </clipPath>
    <clipPath
       id="clip-8">
      <path
         clip-rule="nonzero"
         d="M 256 96 L 305 96 L 305 144.800781 L 256 144.800781 Z M 256 96 "
         id="path9" />
    </clipPath>
    <clipPath
       id="clip-9">
      <path
         clip-rule="nonzero"
         d="M 304 96 L 353 96 L 353 144.800781 L 304 144.800781 Z M 304 96 "
         id="path10" />
    </clipPath>
  </defs>
  <g
     clip-path="url(#clip-0)"
     id="g11">
    <path
       fill="none"
       stroke-width="0.8"
       stroke-linecap="butt"
       stroke-linejoin="round"
       stroke="rgb(0%, 0%, 0%)"
       stroke-opacity="1"
       stroke-miterlimit="10"
       d="M 63.998438 768.001562 L 63.998438 624.001562 L 207.998437 624.001562 L 207.998437 768.001562 Z M 63.998438 768.001562 "
       transform="matrix(1, 0, 0, -1, -63.6, 768.4)"
       id="path11" />
  </g>
  <path
     fill-rule="evenodd"
     fill="rgb(100%, 100%, 100%)"
     fill-opacity="1"
     stroke-width="0.8"
     stroke-linecap="butt"
     stroke-linejoin="round"
     stroke="rgb(0%, 0%, 0%)"
     stroke-opacity="1"
     stroke-miterlimit="10"
     d="M 63.998438 768.001562 L 63.998438 720.001562 L 111.998437 720.001562 L 111.998437 768.001562 Z M 63.998438 768.001562 "
     transform="matrix(1, 0, 0, -1, -63.6, 768.4)"
     id="path12" />
  <path
     fill-rule="evenodd"
     fill="rgb(0%, 0%, 100%)"
     fill-opacity="1"
     stroke-width="0.8"
     stroke-linecap="butt"
     stroke-linejoin="round"
     stroke="rgb(0%, 0%, 0%)"
     stroke-opacity="1"
     stroke-miterlimit="10"
     d="M 111.998437 768.001562 L 111.998437 720.001562 L 159.998437 720.001562 L 159.998437 768.001562 Z M 111.998437 768.001562 "
     transform="matrix(1, 0, 0, -1, -63.6, 768.4)"
     id="path13" />
  <path
     fill-rule="evenodd"
     fill="rgb(100%, 100%, 100%)"
     fill-opacity="1"
     stroke-width="0.8"
     stroke-linecap="butt"
     stroke-linejoin="round"
     stroke="rgb(0%, 0%, 0%)"
     stroke-opacity="1"
     stroke-miterlimit="10"
     d="M 159.998437 768.001562 L 159.998437 720.001562 L 207.998437 720.001562 L 207.998437 768.001562 Z M 159.998437 768.001562 "
     transform="matrix(1, 0, 0, -1, -63.6, 768.4)"
     id="path14" />
  <path
     fill-rule="evenodd"
     fill="rgb(100%, 100%, 100%)"
     fill-opacity="1"
     stroke-width="0.8"
     stroke-linecap="butt"
     stroke-linejoin="round"
     stroke="rgb(0%, 0%, 0%)"
     stroke-opacity="1"
     stroke-miterlimit="10"
     d="M 63.998438 720.001562 L 63.998438 672.001562 L 111.998437 672.001562 L 111.998437 720.001562 Z M 63.998438 720.001562 "
     transform="matrix(1, 0, 0, -1, -63.6, 768.4)"
     id="path15" />
  <path
     fill-rule="evenodd"
     fill="rgb(100%, 100%, 100%)"
     fill-opacity="1"
     stroke-width="0.8"
     stroke-linecap="butt"
     stroke-linejoin="round"
     stroke="rgb(0%, 0%, 0%)"
     stroke-opacity="1"
     stroke-miterlimit="10"
     d="M 111.998437 720.001562 L 111.998437 672.001562 L 159.998437 672.001562 L 159.998437 720.001562 Z M 111.998437 720.001562 "
     transform="matrix(1, 0, 0, -1, -63.6, 768.4)"
     id="path16" />
  <path
     fill-rule="evenodd"
     fill="rgb(100%, 100%, 100%)"
     fill-opacity="1"
     stroke-width="0.8"
     stroke-linecap="butt"
     stroke-linejoin="round"
     stroke="rgb(0%, 0%, 0%)"
     stroke-opacity="1"
     stroke-miterlimit="10"
     d="M 159.998437 720.001562 L 159.998437 672.001562 L 207.998437 672.001562 L 207.998437 720.001562 Z M 159.998437 720.001562 "
     transform="matrix(1, 0, 0, -1, -63.6, 768.4)"
     id="path17" />
  <g
     clip-path="url(#clip-1)"
     id="g18">
    <path
       fill-rule="evenodd"
       fill="rgb(100%, 100%, 100%)"
       fill-opacity="1"
       stroke-width="0.8"
       stroke-linecap="butt"
       stroke-linejoin="round"
       stroke="rgb(0%, 0%, 0%)"
       stroke-opacity="1"
       stroke-miterlimit="10"
       d="M 159.998437 672.001562 L 159.998437 624.001562 L 207.998437 624.001562 L 207.998437 672.001562 Z M 159.998437 672.001562 "
       transform="matrix(1, 0, 0, -1, -63.6, 768.4)"
       id="path18" />
  </g>
  <g
     clip-path="url(#clip-2)"
     id="g19">
    <path
       fill-rule="evenodd"
       fill="rgb(100%, 100%, 100%)"
       fill-opacity="1"
       stroke-width="0.8"
       stroke-linecap="butt"
       stroke-linejoin="round"
       stroke="rgb(0%, 0%, 0%)"
       stroke-opacity="1"
       stroke-miterlimit="10"
       d="M 63.998438 672.001562 L 63.998438 624.001562 L 111.998437 624.001562 L 111.998437 672.001562 Z M 63.998438 672.001562 "
       transform="matrix(1, 0, 0, -1, -63.6, 768.4)"
       id="path19" />
  </g>
  <g
     clip-path="url(#clip-3)"
     id="g20">
    <path
       fill-rule="evenodd"
       fill="rgb(0%, 0%, 100%)"
       fill-opacity="1"
       stroke-width="0.8"
       stroke-linecap="butt"
       stroke-linejoin="round"
       stroke="rgb(0%, 0%, 0%)"
       stroke-opacity="1"
       stroke-miterlimit="10"
       d="M 111.998437 672.001562 L 111.998437 624.001562 L 159.998437 624.001562 L 159.998437 672.001562 Z M 111.998437 672.001562 "
       transform="matrix(1, 0, 0, -1, -63.6, 768.4)"
       id="path20" />
  </g>
  <g
     clip-path="url(#clip-4)"
     id="g21">
    <path
       fill="none"
       stroke-width="0.8"
       stroke-linecap="butt"
       stroke-linejoin="round"
       stroke="rgb(0%, 0%, 0%)"
       stroke-opacity="1"
       stroke-miterlimit="10"
       d="M 319.998438 768.001562 L 319.998438 624.001562 L 463.998438 624.001562 L 463.998438 768.001562 Z M 319.998438 768.001562 "
       transform="matrix(1, 0, 0, -1, -63.6, 768.4)"
       id="path21" />
  </g>
  <path
     fill-rule="evenodd"
     fill="rgb(0%, 0%, 100%)"
     fill-opacity="1"
     stroke-width="0.8"
     stroke-linecap="butt"
     stroke-linejoin="round"
     stroke="rgb(0%, 0%, 0%)"
     stroke-opacity="1"
     stroke-miterlimit="10"
     d="M 319.998438 768.001562 L 319.998438 720.001562 L 367.998438 720.001562 L 367.998438 768.001562 Z M 319.998438 768.001562 "
     transform="matrix(1, 0, 0, -1, -63.6, 768.4)"
     id="path22" />
  <path
     fill-rule="evenodd"
     fill="rgb(100%, 100%, 100%)"
     fill-opacity="1"
     stroke-width="0.8"
     stroke-linecap="butt"
     stroke-linejoin="round"
     stroke="rgb(0%, 0%, 0%)"
     stroke-opacity="1"
     stroke-miterlimit="10"
     d="M 367.998438 768.001562 L 367.998438 720.001562 L 415.998438 720.001562 L 415.998438 768.001562 Z M 367.998438 768.001562 "
     transform="matrix(1, 0, 0, -1, -63.6, 768.4)"
     id="path23" />
  <g
     clip-path="url(#clip-5)"
     id="g24">
    <path
       fill-rule="evenodd"
       fill="rgb(100%, 100%, 100%)"
       fill-opacity="1"
       stroke-width="0.8"
       stroke-linecap="butt"
       stroke-linejoin="round"
       stroke="rgb(0%, 0%, 0%)"
       stroke-opacity="1"
       stroke-miterlimit="10"
       d="M 415.998438 768.001562 L 415.998438 720.001562 L 463.998438 720.001562 L 463.998438 768.001562 Z M 415.998438 768.001562 "
       transform="matrix(1, 0, 0, -1, -63.6, 768.4)"
       id="path24" />
  </g>
  <path
     fill-rule="evenodd"
     fill="rgb(100%, 100%, 100%)"
     fill-opacity="1"
     stroke-width="0.8"
     stroke-linecap="butt"
     stroke-linejoin="round"
     stroke="rgb(0%, 0%, 0%)"
     stroke-opacity="1"
     stroke-miterlimit="10"
     d="M 319.998438 720.001562 L 319.998438 672.001562 L 367.998438 672.001562 L 367.998438 720.001562 Z M 319.998438 720.001562 "
     transform="matrix(1, 0, 0, -1, -63.6, 768.4)"
     id="path25" />
  <path
     fill-rule="evenodd"
     fill="rgb(100%, 100%, 100%)"
     fill-opacity="1"
     stroke-width="0.8"
     stroke-linecap="butt"
     stroke-linejoin="round"
     stroke="rgb(0%, 0%, 0%)"
     stroke-opacity="1"
     stroke-miterlimit="10"
     d="M 367.998438 720.001562 L 367.998438 672.001562 L 415.998438 672.001562 L 415.998438 720.001562 Z M 367.998438 720.001562 "
     transform="matrix(1, 0, 0, -1, -63.6, 768.4)"
     id="path26" />
  <g
     clip-path="url(#clip-6)"
     id="g27">
    <path
       fill-rule="evenodd"
       fill="rgb(100%, 100%, 100%)"
       fill-opacity="1"
       stroke-width="0.8"
       stroke-linecap="butt"
       stroke-linejoin="round"
       stroke="rgb(0%, 0%, 0%)"
       stroke-opacity="1"
       stroke-miterlimit="10"
       d="M 415.998438 720.001562 L 415.998438 672.001562 L 463.998438 672.001562 L 463.998438 720.001562 Z M 415.998438 720.001562 "
       transform="matrix(1, 0, 0, -1, -63.6, 768.4)"
       id="path27" />
  </g>
  <g
     clip-path="url(#clip-7)"
     id="g28">
    <path
       fill-rule="evenodd"
       fill="rgb(0%, 0%, 100%)"
       fill-opacity="1"
       stroke-width="0.8"
       stroke-linecap="butt"
       stroke-linejoin="round"
       stroke="rgb(0%, 0%, 0%)"
       stroke-opacity="1"
       stroke-miterlimit="10"
       d="M 415.998438 672.001562 L 415.998438 624.001562 L 463.998438 624.001562 L 463.998438 672.001562 Z M 415.998438 672.001562 "
       transform="matrix(1, 0, 0, -1, -63.6, 768.4)"
       id="path28" />
  </g>
  <g
     clip-path="url(#clip-8)"
     id="g29">
    <path
       fill-rule="evenodd"
       fill="rgb(100%, 100%, 100%)"
       fill-opacity="1"
       stroke-width="0.8"
       stroke-linecap="butt"
       stroke-linejoin="round"
       stroke="rgb(0%, 0%, 0%)"
       stroke-opacity="1"
       stroke-miterlimit="10"
       d="M 319.998438 672.001562 L 319.998438 624.001562 L 367.998438 624.001562 L 367.998438 672.001562 Z M 319.998438 672.001562 "
       transform="matrix(1, 0, 0, -1, -63.6, 768.4)"
       id="path29" />
  </g>
  <g
     clip-path="url(#clip-9)"
     id="g30">
    <path
       fill-rule="evenodd"
       fill="rgb(100%, 100%, 100%)"
       fill-opacity="1"
       stroke-width="0.8"
       stroke-linecap="butt"
       stroke-linejoin="round"
       stroke="rgb(0%, 0%, 0%)"
       stroke-opacity="1"
       stroke-miterlimit="10"
       d="M 367.998438 672.001562 L 367.998438 624.001562 L 415.998438 624.001562 L 415.998438 672.001562 Z M 367.998438 672.001562 "
       transform="matrix(1, 0, 0, -1, -63.6, 768.4)"
       id="path30" />
  </g>
</svg>
