<?xml version="1.0" encoding="UTF-8" standalone="no"?>
<svg
   width="107.20536pt"
   height="69.487474pt"
   viewBox="0 0 107.20536 69.487474"
   version="1.1"
   id="svg135"
   xmlns="http://www.w3.org/2000/svg"
   xmlns:svg="http://www.w3.org/2000/svg">
  <defs
     id="defs4">
    <clipPath
       id="clip-0">
      <path
         clip-rule="nonzero"
         d="M 0 37 L 65 37 L 65 69.488281 L 0 69.488281 Z M 0 37 "
         id="path1" />
    </clipPath>
    <clipPath
       id="clip-1">
      <path
         clip-rule="nonzero"
         d="M 64 37 L 107.207031 37 L 107.207031 69.488281 L 64 69.488281 Z M 64 37 "
         id="path2" />
    </clipPath>
    <clipPath
       id="clip-2">
      <path
         clip-rule="nonzero"
         d="M 85 0 L 107.207031 0 L 107.207031 38 L 85 38 Z M 85 0 "
         id="path3" />
    </clipPath>
    <clipPath
       id="clip-3">
      <path
         clip-rule="nonzero"
         d="M 74 47 L 86 47 L 86 69.488281 L 74 69.488281 Z M 74 47 "
         id="path4" />
    </clipPath>
  </defs>
  <g
     clip-path="url(#clip-0)"
     id="g5">
    <path
       fill="none"
       stroke-width="0.4"
       stroke-linecap="butt"
       stroke-linejoin="round"
       stroke="rgb(66.299438%, 66.299438%, 66.299438%)"
       stroke-opacity="1"
       stroke-miterlimit="10"
       d="M 191.997626 640.001457 L 191.997626 591.997998 L 287.998686 591.997998 L 287.998686 640.001457 Z M 191.997626 640.001457 "
       transform="matrix(0.6667, 0, 0, -0.6667, -127.60638, 464.040534)"
       id="path5" />
  </g>
  <path
     fill="none"
     stroke-width="0.8"
     stroke-linecap="butt"
     stroke-linejoin="round"
     stroke="rgb(100%, 100%, 100%)"
     stroke-opacity="1"
     stroke-miterlimit="10"
     d="M 207.998779 667.714916 L 303.999839 667.714916 "
     transform="matrix(0.6667, 0, 0, -0.6667, -127.60638, 464.040534)"
     id="path6" />
  <path
     fill="none"
     stroke-width="0.8"
     stroke-linecap="butt"
     stroke-linejoin="round"
     stroke="rgb(100%, 100%, 100%)"
     stroke-opacity="1"
     stroke-miterlimit="10"
     d="M 256.002239 640.001457 L 287.998686 695.428374 "
     transform="matrix(0.6667, 0, 0, -0.6667, -127.60638, 464.040534)"
     id="path7" />
  <path
     fill="none"
     stroke-width="0.8"
     stroke-linecap="butt"
     stroke-linejoin="round"
     stroke="rgb(100%, 100%, 100%)"
     stroke-opacity="1"
     stroke-miterlimit="10"
     d="M 223.999933 640.001457 L 256.002239 695.428374 "
     transform="matrix(0.6667, 0, 0, -0.6667, -127.60638, 464.040534)"
     id="path8" />
  <path
     fill="none"
     stroke-width="0.8"
     stroke-linecap="butt"
     stroke-linejoin="round"
     stroke="rgb(100%, 100%, 100%)"
     stroke-opacity="1"
     stroke-miterlimit="10"
     d="M 256.002239 640.001457 L 223.999933 695.428374 "
     transform="matrix(0.6667, 0, 0, -0.6667, -127.60638, 464.040534)"
     id="path9" />
  <path
     fill="none"
     stroke-width="0.8"
     stroke-linecap="butt"
     stroke-linejoin="round"
     stroke="rgb(100%, 100%, 100%)"
     stroke-opacity="1"
     stroke-miterlimit="10"
     d="M 207.998779 667.714916 L 223.999933 640.001457 "
     transform="matrix(0.6667, 0, 0, -0.6667, -127.60638, 464.040534)"
     id="path10" />
  <path
     fill="none"
     stroke-width="0.8"
     stroke-linecap="butt"
     stroke-linejoin="round"
     stroke="rgb(100%, 100%, 100%)"
     stroke-opacity="1"
     stroke-miterlimit="10"
     d="M 287.998686 640.001457 L 256.002239 695.428374 "
     transform="matrix(0.6667, 0, 0, -0.6667, -127.60638, 464.040534)"
     id="path11" />
  <path
     fill="none"
     stroke-width="0.8"
     stroke-linecap="butt"
     stroke-linejoin="round"
     stroke="rgb(100%, 100%, 100%)"
     stroke-opacity="1"
     stroke-miterlimit="10"
     d="M 303.999839 667.714916 L 287.998686 695.428374 "
     transform="matrix(0.6667, 0, 0, -0.6667, -127.60638, 464.040534)"
     id="path12" />
  <path
     fill="none"
     stroke-width="1.2"
     stroke-linecap="butt"
     stroke-linejoin="round"
     stroke="rgb(0%, 0%, 0%)"
     stroke-opacity="1"
     stroke-miterlimit="10"
     d="M 223.999933 695.428374 L 191.997626 640.001457 L 287.998686 640.001457 L 320.000992 695.428374 Z M 223.999933 695.428374 "
     transform="matrix(0.6667, 0, 0, -0.6667, -127.60638, 464.040534)"
     id="path13" />
  <path
     fill="none"
     stroke-width="0.8"
     stroke-linecap="round"
     stroke-linejoin="round"
     stroke="rgb(0%, 0%, 0%)"
     stroke-opacity="1"
     stroke-miterlimit="10"
     d="M 209.662759 664.832247 L 215.293337 655.076876 "
     transform="matrix(0.6667, 0, 0, -0.6667, -127.60638, 464.040534)"
     id="path14" />
  <path
     fill="none"
     stroke-width="0.8"
     stroke-linecap="round"
     stroke-linejoin="round"
     stroke="rgb(0%, 0%, 0%)"
     stroke-opacity="1"
     stroke-miterlimit="10"
     d="M 215.90854 655.428421 L 221.544977 645.678908 L 220.31457 644.9641 L 214.678133 654.719472 Z M 215.90854 655.428421 "
     transform="matrix(0.6667, 0, 0, -0.6667, -127.60638, 464.040534)"
     id="path15" />
  <path
     fill="none"
     stroke-width="0.8"
     stroke-linecap="round"
     stroke-linejoin="round"
     stroke="rgb(0%, 0%, 0%)"
     stroke-opacity="1"
     stroke-miterlimit="10"
     d="M 219.699366 644.612555 L 222.160181 646.030453 "
     transform="matrix(0.6667, 0, 0, -0.6667, -127.60638, 464.040534)"
     id="path16" />
  <path
     fill="none"
     stroke-width="0.8"
     stroke-linecap="round"
     stroke-linejoin="round"
     stroke="rgb(0%, 0%, 0%)"
     stroke-opacity="1"
     stroke-miterlimit="10"
     d="M 221.234446 645.497276 L 222.646485 643.059898 L 222.031281 642.702494 L 220.619242 645.145732 Z M 221.234446 645.497276 "
     transform="matrix(0.6667, 0, 0, -0.6667, -127.60638, 464.040534)"
     id="path17" />
  <path
     fill="none"
     stroke-width="0.8"
     stroke-linecap="round"
     stroke-linejoin="round"
     stroke="rgb(0%, 0%, 0%)"
     stroke-opacity="1"
     stroke-miterlimit="10"
     d="M 221.72075 642.526722 L 222.951157 643.235671 "
     transform="matrix(0.6667, 0, 0, -0.6667, -127.60638, 464.040534)"
     id="path18" />
  <path
     fill="none"
     stroke-width="0.8"
     stroke-linecap="butt"
     stroke-linejoin="round"
     stroke="rgb(0%, 0%, 0%)"
     stroke-opacity="1"
     stroke-miterlimit="10"
     d="M 215.387082 653.500783 L 216.002286 653.858187 "
     transform="matrix(0.6667, 0, 0, -0.6667, -127.60638, 464.040534)"
     id="path19" />
  <path
     fill="none"
     stroke-width="0.8"
     stroke-linecap="butt"
     stroke-linejoin="round"
     stroke="rgb(0%, 0%, 0%)"
     stroke-opacity="1"
     stroke-miterlimit="10"
     d="M 219.61148 646.188648 L 220.226684 646.540193 "
     transform="matrix(0.6667, 0, 0, -0.6667, -127.60638, 464.040534)"
     id="path20" />
  <path
     fill="none"
     stroke-width="0.8"
     stroke-linecap="butt"
     stroke-linejoin="round"
     stroke="rgb(0%, 0%, 0%)"
     stroke-opacity="1"
     stroke-miterlimit="10"
     d="M 218.199441 648.626026 L 218.814645 648.977571 "
     transform="matrix(0.6667, 0, 0, -0.6667, -127.60638, 464.040534)"
     id="path21" />
  <path
     fill="none"
     stroke-width="0.8"
     stroke-linecap="butt"
     stroke-linejoin="round"
     stroke="rgb(0%, 0%, 0%)"
     stroke-opacity="1"
     stroke-miterlimit="10"
     d="M 216.793262 651.063404 L 217.408465 651.420808 "
     transform="matrix(0.6667, 0, 0, -0.6667, -127.60638, 464.040534)"
     id="path22" />
  <path
     fill="none"
     stroke-width="0.8"
     stroke-linecap="round"
     stroke-linejoin="round"
     stroke="rgb(0%, 0%, 0%)"
     stroke-opacity="1"
     stroke-miterlimit="10"
     d="M 241.665065 664.832247 L 247.295643 655.076876 "
     transform="matrix(0.6667, 0, 0, -0.6667, -127.60638, 464.040534)"
     id="path23" />
  <path
     fill="none"
     stroke-width="0.8"
     stroke-linecap="round"
     stroke-linejoin="round"
     stroke="rgb(0%, 0%, 0%)"
     stroke-opacity="1"
     stroke-miterlimit="10"
     d="M 247.910846 655.428421 L 253.541424 645.678908 L 252.311017 644.9641 L 246.680439 654.719472 Z M 247.910846 655.428421 "
     transform="matrix(0.6667, 0, 0, -0.6667, -127.60638, 464.040534)"
     id="path24" />
  <path
     fill="none"
     stroke-width="0.8"
     stroke-linecap="round"
     stroke-linejoin="round"
     stroke="rgb(0%, 0%, 0%)"
     stroke-opacity="1"
     stroke-miterlimit="10"
     d="M 251.695813 644.612555 L 254.156628 646.030453 "
     transform="matrix(0.6667, 0, 0, -0.6667, -127.60638, 464.040534)"
     id="path25" />
  <path
     fill="none"
     stroke-width="0.8"
     stroke-linecap="round"
     stroke-linejoin="round"
     stroke="rgb(0%, 0%, 0%)"
     stroke-opacity="1"
     stroke-miterlimit="10"
     d="M 253.236752 645.497276 L 254.642932 643.059898 L 254.027728 642.702494 L 252.621548 645.145732 Z M 253.236752 645.497276 "
     transform="matrix(0.6667, 0, 0, -0.6667, -127.60638, 464.040534)"
     id="path26" />
  <path
     fill="none"
     stroke-width="0.8"
     stroke-linecap="round"
     stroke-linejoin="round"
     stroke="rgb(0%, 0%, 0%)"
     stroke-opacity="1"
     stroke-miterlimit="10"
     d="M 253.723056 642.526722 L 254.953463 643.235671 "
     transform="matrix(0.6667, 0, 0, -0.6667, -127.60638, 464.040534)"
     id="path27" />
  <path
     fill="none"
     stroke-width="0.8"
     stroke-linecap="butt"
     stroke-linejoin="round"
     stroke="rgb(0%, 0%, 0%)"
     stroke-opacity="1"
     stroke-miterlimit="10"
     d="M 247.383529 653.500783 L 247.998733 653.858187 "
     transform="matrix(0.6667, 0, 0, -0.6667, -127.60638, 464.040534)"
     id="path28" />
  <path
     fill="none"
     stroke-width="0.8"
     stroke-linecap="butt"
     stroke-linejoin="round"
     stroke="rgb(0%, 0%, 0%)"
     stroke-opacity="1"
     stroke-miterlimit="10"
     d="M 251.607927 646.188648 L 252.223131 646.540193 "
     transform="matrix(0.6667, 0, 0, -0.6667, -127.60638, 464.040534)"
     id="path29" />
  <path
     fill="none"
     stroke-width="0.8"
     stroke-linecap="butt"
     stroke-linejoin="round"
     stroke="rgb(0%, 0%, 0%)"
     stroke-opacity="1"
     stroke-miterlimit="10"
     d="M 250.201747 648.626026 L 250.816951 648.977571 "
     transform="matrix(0.6667, 0, 0, -0.6667, -127.60638, 464.040534)"
     id="path30" />
  <path
     fill="none"
     stroke-width="0.8"
     stroke-linecap="butt"
     stroke-linejoin="round"
     stroke="rgb(0%, 0%, 0%)"
     stroke-opacity="1"
     stroke-miterlimit="10"
     d="M 248.795568 651.063404 L 249.410771 651.420808 "
     transform="matrix(0.6667, 0, 0, -0.6667, -127.60638, 464.040534)"
     id="path31" />
  <path
     fill="none"
     stroke-width="0.8"
     stroke-linecap="round"
     stroke-linejoin="round"
     stroke="rgb(0%, 0%, 0%)"
     stroke-opacity="1"
     stroke-miterlimit="10"
     d="M 273.667371 664.832247 L 279.297949 655.076876 "
     transform="matrix(0.6667, 0, 0, -0.6667, -127.60638, 464.040534)"
     id="path32" />
  <path
     fill="none"
     stroke-width="0.8"
     stroke-linecap="round"
     stroke-linejoin="round"
     stroke="rgb(0%, 0%, 0%)"
     stroke-opacity="1"
     stroke-miterlimit="10"
     d="M 279.913152 655.428421 L 285.54373 645.678908 L 284.313323 644.9641 L 278.682745 654.719472 Z M 279.913152 655.428421 "
     transform="matrix(0.6667, 0, 0, -0.6667, -127.60638, 464.040534)"
     id="path33" />
  <path
     fill="none"
     stroke-width="0.8"
     stroke-linecap="round"
     stroke-linejoin="round"
     stroke="rgb(0%, 0%, 0%)"
     stroke-opacity="1"
     stroke-miterlimit="10"
     d="M 283.698119 644.612555 L 286.158934 646.030453 "
     transform="matrix(0.6667, 0, 0, -0.6667, -127.60638, 464.040534)"
     id="path34" />
  <path
     fill="none"
     stroke-width="0.8"
     stroke-linecap="round"
     stroke-linejoin="round"
     stroke="rgb(0%, 0%, 0%)"
     stroke-opacity="1"
     stroke-miterlimit="10"
     d="M 285.239058 645.497276 L 286.645238 643.059898 L 286.030034 642.702494 L 284.623854 645.145732 Z M 285.239058 645.497276 "
     transform="matrix(0.6667, 0, 0, -0.6667, -127.60638, 464.040534)"
     id="path35" />
  <path
     fill="none"
     stroke-width="0.8"
     stroke-linecap="round"
     stroke-linejoin="round"
     stroke="rgb(0%, 0%, 0%)"
     stroke-opacity="1"
     stroke-miterlimit="10"
     d="M 285.719503 642.526722 L 286.94991 643.235671 "
     transform="matrix(0.6667, 0, 0, -0.6667, -127.60638, 464.040534)"
     id="path36" />
  <path
     fill="none"
     stroke-width="0.8"
     stroke-linecap="butt"
     stroke-linejoin="round"
     stroke="rgb(0%, 0%, 0%)"
     stroke-opacity="1"
     stroke-miterlimit="10"
     d="M 279.385835 653.500783 L 280.001039 653.858187 "
     transform="matrix(0.6667, 0, 0, -0.6667, -127.60638, 464.040534)"
     id="path37" />
  <path
     fill="none"
     stroke-width="0.8"
     stroke-linecap="butt"
     stroke-linejoin="round"
     stroke="rgb(0%, 0%, 0%)"
     stroke-opacity="1"
     stroke-miterlimit="10"
     d="M 283.610233 646.188648 L 284.225437 646.540193 "
     transform="matrix(0.6667, 0, 0, -0.6667, -127.60638, 464.040534)"
     id="path38" />
  <path
     fill="none"
     stroke-width="0.8"
     stroke-linecap="butt"
     stroke-linejoin="round"
     stroke="rgb(0%, 0%, 0%)"
     stroke-opacity="1"
     stroke-miterlimit="10"
     d="M 282.204054 648.626026 L 282.819257 648.977571 "
     transform="matrix(0.6667, 0, 0, -0.6667, -127.60638, 464.040534)"
     id="path39" />
  <path
     fill="none"
     stroke-width="0.8"
     stroke-linecap="butt"
     stroke-linejoin="round"
     stroke="rgb(0%, 0%, 0%)"
     stroke-opacity="1"
     stroke-miterlimit="10"
     d="M 280.792015 651.063404 L 281.407218 651.420808 "
     transform="matrix(0.6667, 0, 0, -0.6667, -127.60638, 464.040534)"
     id="path40" />
  <path
     fill="none"
     stroke-width="0.8"
     stroke-linecap="round"
     stroke-linejoin="round"
     stroke="rgb(0%, 0%, 0%)"
     stroke-opacity="1"
     stroke-miterlimit="10"
     d="M 257.666218 692.545705 L 263.296796 682.790334 "
     transform="matrix(0.6667, 0, 0, -0.6667, -127.60638, 464.040534)"
     id="path41" />
  <path
     fill="none"
     stroke-width="0.8"
     stroke-linecap="round"
     stroke-linejoin="round"
     stroke="rgb(0%, 0%, 0%)"
     stroke-opacity="1"
     stroke-miterlimit="10"
     d="M 263.911999 683.141879 L 269.542577 673.392366 L 268.31217 672.677558 L 262.681592 682.43293 Z M 263.911999 683.141879 "
     transform="matrix(0.6667, 0, 0, -0.6667, -127.60638, 464.040534)"
     id="path42" />
  <path
     fill="none"
     stroke-width="0.8"
     stroke-linecap="round"
     stroke-linejoin="round"
     stroke="rgb(0%, 0%, 0%)"
     stroke-opacity="1"
     stroke-miterlimit="10"
     d="M 267.696966 672.326013 L 270.157781 673.743911 "
     transform="matrix(0.6667, 0, 0, -0.6667, -127.60638, 464.040534)"
     id="path43" />
  <path
     fill="none"
     stroke-width="0.8"
     stroke-linecap="round"
     stroke-linejoin="round"
     stroke="rgb(0%, 0%, 0%)"
     stroke-opacity="1"
     stroke-miterlimit="10"
     d="M 269.237905 673.210735 L 270.644085 670.773356 L 270.028881 670.415952 L 268.622701 672.85919 Z M 269.237905 673.210735 "
     transform="matrix(0.6667, 0, 0, -0.6667, -127.60638, 464.040534)"
     id="path44" />
  <path
     fill="none"
     stroke-width="0.8"
     stroke-linecap="round"
     stroke-linejoin="round"
     stroke="rgb(0%, 0%, 0%)"
     stroke-opacity="1"
     stroke-miterlimit="10"
     d="M 269.724209 670.24018 L 270.954616 670.949129 "
     transform="matrix(0.6667, 0, 0, -0.6667, -127.60638, 464.040534)"
     id="path45" />
  <path
     fill="none"
     stroke-width="0.8"
     stroke-linecap="butt"
     stroke-linejoin="round"
     stroke="rgb(0%, 0%, 0%)"
     stroke-opacity="1"
     stroke-miterlimit="10"
     d="M 263.384682 681.214241 L 263.999886 681.571645 "
     transform="matrix(0.6667, 0, 0, -0.6667, -127.60638, 464.040534)"
     id="path46" />
  <path
     fill="none"
     stroke-width="0.8"
     stroke-linecap="butt"
     stroke-linejoin="round"
     stroke="rgb(0%, 0%, 0%)"
     stroke-opacity="1"
     stroke-miterlimit="10"
     d="M 267.60908 673.896247 L 268.224284 674.253651 "
     transform="matrix(0.6667, 0, 0, -0.6667, -127.60638, 464.040534)"
     id="path47" />
  <path
     fill="none"
     stroke-width="0.8"
     stroke-linecap="butt"
     stroke-linejoin="round"
     stroke="rgb(0%, 0%, 0%)"
     stroke-opacity="1"
     stroke-miterlimit="10"
     d="M 266.2029 676.339484 L 266.818104 676.691029 "
     transform="matrix(0.6667, 0, 0, -0.6667, -127.60638, 464.040534)"
     id="path48" />
  <path
     fill="none"
     stroke-width="0.8"
     stroke-linecap="butt"
     stroke-linejoin="round"
     stroke="rgb(0%, 0%, 0%)"
     stroke-opacity="1"
     stroke-miterlimit="10"
     d="M 264.796721 678.776862 L 265.411924 679.128407 "
     transform="matrix(0.6667, 0, 0, -0.6667, -127.60638, 464.040534)"
     id="path49" />
  <path
     fill="none"
     stroke-width="0.8"
     stroke-linecap="round"
     stroke-linejoin="round"
     stroke="rgb(0%, 0%, 0%)"
     stroke-opacity="1"
     stroke-miterlimit="10"
     d="M 225.663912 692.545705 L 231.29449 682.790334 "
     transform="matrix(0.6667, 0, 0, -0.6667, -127.60638, 464.040534)"
     id="path50" />
  <path
     fill="none"
     stroke-width="0.8"
     stroke-linecap="round"
     stroke-linejoin="round"
     stroke="rgb(0%, 0%, 0%)"
     stroke-opacity="1"
     stroke-miterlimit="10"
     d="M 231.909693 683.141879 L 237.540271 673.392366 L 236.315723 672.677558 L 230.679286 682.43293 Z M 231.909693 683.141879 "
     transform="matrix(0.6667, 0, 0, -0.6667, -127.60638, 464.040534)"
     id="path51" />
  <path
     fill="none"
     stroke-width="0.8"
     stroke-linecap="round"
     stroke-linejoin="round"
     stroke="rgb(0%, 0%, 0%)"
     stroke-opacity="1"
     stroke-miterlimit="10"
     d="M 235.700519 672.326013 L 238.155475 673.743911 "
     transform="matrix(0.6667, 0, 0, -0.6667, -127.60638, 464.040534)"
     id="path52" />
  <path
     fill="none"
     stroke-width="0.8"
     stroke-linecap="round"
     stroke-linejoin="round"
     stroke="rgb(0%, 0%, 0%)"
     stroke-opacity="1"
     stroke-miterlimit="10"
     d="M 237.235599 673.210735 L 238.641779 670.773356 L 238.026575 670.415952 L 236.620395 672.85919 Z M 237.235599 673.210735 "
     transform="matrix(0.6667, 0, 0, -0.6667, -127.60638, 464.040534)"
     id="path53" />
  <path
     fill="none"
     stroke-width="0.8"
     stroke-linecap="round"
     stroke-linejoin="round"
     stroke="rgb(0%, 0%, 0%)"
     stroke-opacity="1"
     stroke-miterlimit="10"
     d="M 237.721903 670.24018 L 238.95231 670.949129 "
     transform="matrix(0.6667, 0, 0, -0.6667, -127.60638, 464.040534)"
     id="path54" />
  <path
     fill="none"
     stroke-width="0.8"
     stroke-linecap="butt"
     stroke-linejoin="round"
     stroke="rgb(0%, 0%, 0%)"
     stroke-opacity="1"
     stroke-miterlimit="10"
     d="M 231.382376 681.214241 L 231.997579 681.571645 "
     transform="matrix(0.6667, 0, 0, -0.6667, -127.60638, 464.040534)"
     id="path55" />
  <path
     fill="none"
     stroke-width="0.8"
     stroke-linecap="butt"
     stroke-linejoin="round"
     stroke="rgb(0%, 0%, 0%)"
     stroke-opacity="1"
     stroke-miterlimit="10"
     d="M 235.606774 673.896247 L 236.221978 674.253651 "
     transform="matrix(0.6667, 0, 0, -0.6667, -127.60638, 464.040534)"
     id="path56" />
  <path
     fill="none"
     stroke-width="0.8"
     stroke-linecap="butt"
     stroke-linejoin="round"
     stroke="rgb(0%, 0%, 0%)"
     stroke-opacity="1"
     stroke-miterlimit="10"
     d="M 234.200594 676.339484 L 234.815798 676.691029 "
     transform="matrix(0.6667, 0, 0, -0.6667, -127.60638, 464.040534)"
     id="path57" />
  <path
     fill="none"
     stroke-width="0.8"
     stroke-linecap="butt"
     stroke-linejoin="round"
     stroke="rgb(0%, 0%, 0%)"
     stroke-opacity="1"
     stroke-miterlimit="10"
     d="M 232.794415 678.776862 L 233.409618 679.128407 "
     transform="matrix(0.6667, 0, 0, -0.6667, -127.60638, 464.040534)"
     id="path58" />
  <path
     fill="none"
     stroke-width="0.8"
     stroke-linecap="round"
     stroke-linejoin="round"
     stroke="rgb(0%, 0%, 0%)"
     stroke-opacity="1"
     stroke-miterlimit="10"
     d="M 289.662665 692.545705 L 295.299102 682.790334 "
     transform="matrix(0.6667, 0, 0, -0.6667, -127.60638, 464.040534)"
     id="path59" />
  <path
     fill="none"
     stroke-width="0.8"
     stroke-linecap="round"
     stroke-linejoin="round"
     stroke="rgb(0%, 0%, 0%)"
     stroke-opacity="1"
     stroke-miterlimit="10"
     d="M 295.914306 683.141879 L 301.544883 673.392366 L 300.314476 672.677558 L 294.683898 682.43293 Z M 295.914306 683.141879 "
     transform="matrix(0.6667, 0, 0, -0.6667, -127.60638, 464.040534)"
     id="path60" />
  <path
     fill="none"
     stroke-width="0.8"
     stroke-linecap="round"
     stroke-linejoin="round"
     stroke="rgb(0%, 0%, 0%)"
     stroke-opacity="1"
     stroke-miterlimit="10"
     d="M 299.699273 672.326013 L 302.160087 673.743911 "
     transform="matrix(0.6667, 0, 0, -0.6667, -127.60638, 464.040534)"
     id="path61" />
  <path
     fill="none"
     stroke-width="0.8"
     stroke-linecap="round"
     stroke-linejoin="round"
     stroke="rgb(0%, 0%, 0%)"
     stroke-opacity="1"
     stroke-miterlimit="10"
     d="M 301.234352 673.210735 L 302.646391 670.773356 L 302.031187 670.415952 L 300.619148 672.85919 Z M 301.234352 673.210735 "
     transform="matrix(0.6667, 0, 0, -0.6667, -127.60638, 464.040534)"
     id="path62" />
  <path
     fill="none"
     stroke-width="0.8"
     stroke-linecap="round"
     stroke-linejoin="round"
     stroke="rgb(0%, 0%, 0%)"
     stroke-opacity="1"
     stroke-miterlimit="10"
     d="M 301.720656 670.24018 L 302.951063 670.949129 "
     transform="matrix(0.6667, 0, 0, -0.6667, -127.60638, 464.040534)"
     id="path63" />
  <path
     fill="none"
     stroke-width="0.8"
     stroke-linecap="butt"
     stroke-linejoin="round"
     stroke="rgb(0%, 0%, 0%)"
     stroke-opacity="1"
     stroke-miterlimit="10"
     d="M 295.386988 681.214241 L 296.002192 681.571645 "
     transform="matrix(0.6667, 0, 0, -0.6667, -127.60638, 464.040534)"
     id="path64" />
  <path
     fill="none"
     stroke-width="0.8"
     stroke-linecap="butt"
     stroke-linejoin="round"
     stroke="rgb(0%, 0%, 0%)"
     stroke-opacity="1"
     stroke-miterlimit="10"
     d="M 299.611386 673.896247 L 300.22659 674.253651 "
     transform="matrix(0.6667, 0, 0, -0.6667, -127.60638, 464.040534)"
     id="path65" />
  <path
     fill="none"
     stroke-width="0.8"
     stroke-linecap="butt"
     stroke-linejoin="round"
     stroke="rgb(0%, 0%, 0%)"
     stroke-opacity="1"
     stroke-miterlimit="10"
     d="M 298.199348 676.339484 L 298.814551 676.691029 "
     transform="matrix(0.6667, 0, 0, -0.6667, -127.60638, 464.040534)"
     id="path66" />
  <path
     fill="none"
     stroke-width="0.8"
     stroke-linecap="butt"
     stroke-linejoin="round"
     stroke="rgb(0%, 0%, 0%)"
     stroke-opacity="1"
     stroke-miterlimit="10"
     d="M 296.793168 678.776862 L 297.408371 679.128407 "
     transform="matrix(0.6667, 0, 0, -0.6667, -127.60638, 464.040534)"
     id="path67" />
  <path
     fill="none"
     stroke-width="0.8"
     stroke-linecap="round"
     stroke-linejoin="round"
     stroke="rgb(0%, 0%, 0%)"
     stroke-opacity="1"
     stroke-miterlimit="10"
     d="M 286.334706 692.545705 L 280.704129 682.790334 "
     transform="matrix(0.6667, 0, 0, -0.6667, -127.60638, 464.040534)"
     id="path68" />
  <path
     fill="none"
     stroke-width="0.8"
     stroke-linecap="round"
     stroke-linejoin="round"
     stroke="rgb(0%, 0%, 0%)"
     stroke-opacity="1"
     stroke-miterlimit="10"
     d="M 281.319332 682.43293 L 275.688754 672.677558 L 274.458347 673.386507 L 280.088925 683.141879 Z M 281.319332 682.43293 "
     transform="matrix(0.6667, 0, 0, -0.6667, -127.60638, 464.040534)"
     id="path69" />
  <path
     fill="none"
     stroke-width="0.8"
     stroke-linecap="round"
     stroke-linejoin="round"
     stroke="rgb(0%, 0%, 0%)"
     stroke-opacity="1"
     stroke-miterlimit="10"
     d="M 273.843143 673.743911 L 276.303958 672.320154 "
     transform="matrix(0.6667, 0, 0, -0.6667, -127.60638, 464.040534)"
     id="path70" />
  <path
     fill="none"
     stroke-width="0.8"
     stroke-linecap="round"
     stroke-linejoin="round"
     stroke="rgb(0%, 0%, 0%)"
     stroke-opacity="1"
     stroke-miterlimit="10"
     d="M 275.378223 672.853331 L 273.972043 670.415952 L 273.35684 670.773356 L 274.763019 673.210735 Z M 275.378223 672.853331 "
     transform="matrix(0.6667, 0, 0, -0.6667, -127.60638, 464.040534)"
     id="path71" />
  <path
     fill="none"
     stroke-width="0.8"
     stroke-linecap="round"
     stroke-linejoin="round"
     stroke="rgb(0%, 0%, 0%)"
     stroke-opacity="1"
     stroke-miterlimit="10"
     d="M 273.052167 670.949129 L 274.276716 670.24018 "
     transform="matrix(0.6667, 0, 0, -0.6667, -127.60638, 464.040534)"
     id="path72" />
  <path
     fill="none"
     stroke-width="0.8"
     stroke-linecap="butt"
     stroke-linejoin="round"
     stroke="rgb(0%, 0%, 0%)"
     stroke-opacity="1"
     stroke-miterlimit="10"
     d="M 279.385835 681.92319 L 280.001039 681.571645 "
     transform="matrix(0.6667, 0, 0, -0.6667, -127.60638, 464.040534)"
     id="path73" />
  <path
     fill="none"
     stroke-width="0.8"
     stroke-linecap="butt"
     stroke-linejoin="round"
     stroke="rgb(0%, 0%, 0%)"
     stroke-opacity="1"
     stroke-miterlimit="10"
     d="M 275.161437 674.605196 L 275.776641 674.253651 "
     transform="matrix(0.6667, 0, 0, -0.6667, -127.60638, 464.040534)"
     id="path74" />
  <path
     fill="none"
     stroke-width="0.8"
     stroke-linecap="butt"
     stroke-linejoin="round"
     stroke="rgb(0%, 0%, 0%)"
     stroke-opacity="1"
     stroke-miterlimit="10"
     d="M 276.567617 677.048433 L 277.18282 676.691029 "
     transform="matrix(0.6667, 0, 0, -0.6667, -127.60638, 464.040534)"
     id="path75" />
  <path
     fill="none"
     stroke-width="0.8"
     stroke-linecap="butt"
     stroke-linejoin="round"
     stroke="rgb(0%, 0%, 0%)"
     stroke-opacity="1"
     stroke-miterlimit="10"
     d="M 277.979655 679.485811 L 278.594859 679.128407 "
     transform="matrix(0.6667, 0, 0, -0.6667, -127.60638, 464.040534)"
     id="path76" />
  <path
     fill="none"
     stroke-width="0.8"
     stroke-linecap="round"
     stroke-linejoin="round"
     stroke="rgb(0%, 0%, 0%)"
     stroke-opacity="1"
     stroke-miterlimit="10"
     d="M 254.338259 692.545705 L 248.707681 682.790334 "
     transform="matrix(0.6667, 0, 0, -0.6667, -127.60638, 464.040534)"
     id="path77" />
  <path
     fill="none"
     stroke-width="0.8"
     stroke-linecap="round"
     stroke-linejoin="round"
     stroke="rgb(0%, 0%, 0%)"
     stroke-opacity="1"
     stroke-miterlimit="10"
     d="M 249.317026 682.43293 L 243.686448 672.677558 L 242.456041 673.386507 L 248.092478 683.141879 Z M 249.317026 682.43293 "
     transform="matrix(0.6667, 0, 0, -0.6667, -127.60638, 464.040534)"
     id="path78" />
  <path
     fill="none"
     stroke-width="0.8"
     stroke-linecap="round"
     stroke-linejoin="round"
     stroke="rgb(0%, 0%, 0%)"
     stroke-opacity="1"
     stroke-miterlimit="10"
     d="M 241.840837 673.743911 L 244.301652 672.320154 "
     transform="matrix(0.6667, 0, 0, -0.6667, -127.60638, 464.040534)"
     id="path79" />
  <path
     fill="none"
     stroke-width="0.8"
     stroke-linecap="round"
     stroke-linejoin="round"
     stroke="rgb(0%, 0%, 0%)"
     stroke-opacity="1"
     stroke-miterlimit="10"
     d="M 243.381776 672.853331 L 241.969737 670.415952 L 241.354534 670.773356 L 242.766572 673.210735 Z M 243.381776 672.853331 "
     transform="matrix(0.6667, 0, 0, -0.6667, -127.60638, 464.040534)"
     id="path80" />
  <path
     fill="none"
     stroke-width="0.8"
     stroke-linecap="round"
     stroke-linejoin="round"
     stroke="rgb(0%, 0%, 0%)"
     stroke-opacity="1"
     stroke-miterlimit="10"
     d="M 241.049861 670.949129 L 242.280268 670.24018 "
     transform="matrix(0.6667, 0, 0, -0.6667, -127.60638, 464.040534)"
     id="path81" />
  <path
     fill="none"
     stroke-width="0.8"
     stroke-linecap="butt"
     stroke-linejoin="round"
     stroke="rgb(0%, 0%, 0%)"
     stroke-opacity="1"
     stroke-miterlimit="10"
     d="M 247.383529 681.92319 L 247.998733 681.571645 "
     transform="matrix(0.6667, 0, 0, -0.6667, -127.60638, 464.040534)"
     id="path82" />
  <path
     fill="none"
     stroke-width="0.8"
     stroke-linecap="butt"
     stroke-linejoin="round"
     stroke="rgb(0%, 0%, 0%)"
     stroke-opacity="1"
     stroke-miterlimit="10"
     d="M 243.159131 674.605196 L 243.774334 674.253651 "
     transform="matrix(0.6667, 0, 0, -0.6667, -127.60638, 464.040534)"
     id="path83" />
  <path
     fill="none"
     stroke-width="0.8"
     stroke-linecap="butt"
     stroke-linejoin="round"
     stroke="rgb(0%, 0%, 0%)"
     stroke-opacity="1"
     stroke-miterlimit="10"
     d="M 244.57117 677.048433 L 245.186373 676.691029 "
     transform="matrix(0.6667, 0, 0, -0.6667, -127.60638, 464.040534)"
     id="path84" />
  <path
     fill="none"
     stroke-width="0.8"
     stroke-linecap="butt"
     stroke-linejoin="round"
     stroke="rgb(0%, 0%, 0%)"
     stroke-opacity="1"
     stroke-miterlimit="10"
     d="M 245.977349 679.485811 L 246.592553 679.128407 "
     transform="matrix(0.6667, 0, 0, -0.6667, -127.60638, 464.040534)"
     id="path85" />
  <path
     fill="none"
     stroke-width="0.8"
     stroke-linecap="round"
     stroke-linejoin="round"
     stroke="rgb(0%, 0%, 0%)"
     stroke-opacity="1"
     stroke-miterlimit="10"
     d="M 238.337106 664.832247 L 232.706528 655.076876 "
     transform="matrix(0.6667, 0, 0, -0.6667, -127.60638, 464.040534)"
     id="path86" />
  <path
     fill="none"
     stroke-width="0.8"
     stroke-linecap="round"
     stroke-linejoin="round"
     stroke="rgb(0%, 0%, 0%)"
     stroke-opacity="1"
     stroke-miterlimit="10"
     d="M 233.321732 654.719472 L 227.685295 644.9641 L 226.460747 645.673049 L 232.091325 655.428421 Z M 233.321732 654.719472 "
     transform="matrix(0.6667, 0, 0, -0.6667, -127.60638, 464.040534)"
     id="path87" />
  <path
     fill="none"
     stroke-width="0.8"
     stroke-linecap="round"
     stroke-linejoin="round"
     stroke="rgb(0%, 0%, 0%)"
     stroke-opacity="1"
     stroke-miterlimit="10"
     d="M 225.845543 646.030453 L 228.300499 644.612555 "
     transform="matrix(0.6667, 0, 0, -0.6667, -127.60638, 464.040534)"
     id="path88" />
  <path
     fill="none"
     stroke-width="0.8"
     stroke-linecap="round"
     stroke-linejoin="round"
     stroke="rgb(0%, 0%, 0%)"
     stroke-opacity="1"
     stroke-miterlimit="10"
     d="M 227.380623 645.145732 L 225.974443 642.702494 L 225.35924 643.059898 L 226.765419 645.497276 Z M 227.380623 645.145732 "
     transform="matrix(0.6667, 0, 0, -0.6667, -127.60638, 464.040534)"
     id="path89" />
  <path
     fill="none"
     stroke-width="0.8"
     stroke-linecap="round"
     stroke-linejoin="round"
     stroke="rgb(0%, 0%, 0%)"
     stroke-opacity="1"
     stroke-miterlimit="10"
     d="M 225.048708 643.235671 L 226.279115 642.526722 "
     transform="matrix(0.6667, 0, 0, -0.6667, -127.60638, 464.040534)"
     id="path90" />
  <path
     fill="none"
     stroke-width="0.8"
     stroke-linecap="butt"
     stroke-linejoin="round"
     stroke="rgb(0%, 0%, 0%)"
     stroke-opacity="1"
     stroke-miterlimit="10"
     d="M 231.388235 654.209731 L 232.003439 653.858187 "
     transform="matrix(0.6667, 0, 0, -0.6667, -127.60638, 464.040534)"
     id="path91" />
  <path
     fill="none"
     stroke-width="0.8"
     stroke-linecap="butt"
     stroke-linejoin="round"
     stroke="rgb(0%, 0%, 0%)"
     stroke-opacity="1"
     stroke-miterlimit="10"
     d="M 227.163837 646.897597 L 227.77904 646.540193 "
     transform="matrix(0.6667, 0, 0, -0.6667, -127.60638, 464.040534)"
     id="path92" />
  <path
     fill="none"
     stroke-width="0.8"
     stroke-linecap="butt"
     stroke-linejoin="round"
     stroke="rgb(0%, 0%, 0%)"
     stroke-opacity="1"
     stroke-miterlimit="10"
     d="M 228.570016 649.334975 L 229.18522 648.977571 "
     transform="matrix(0.6667, 0, 0, -0.6667, -127.60638, 464.040534)"
     id="path93" />
  <path
     fill="none"
     stroke-width="0.8"
     stroke-linecap="butt"
     stroke-linejoin="round"
     stroke="rgb(0%, 0%, 0%)"
     stroke-opacity="1"
     stroke-miterlimit="10"
     d="M 229.976196 651.772353 L 230.5914 651.414949 "
     transform="matrix(0.6667, 0, 0, -0.6667, -127.60638, 464.040534)"
     id="path94" />
  <path
     fill="none"
     stroke-width="0.8"
     stroke-linecap="round"
     stroke-linejoin="round"
     stroke="rgb(0%, 0%, 0%)"
     stroke-opacity="1"
     stroke-miterlimit="10"
     d="M 270.339412 664.832247 L 264.702975 655.076876 "
     transform="matrix(0.6667, 0, 0, -0.6667, -127.60638, 464.040534)"
     id="path95" />
  <path
     fill="none"
     stroke-width="0.8"
     stroke-linecap="round"
     stroke-linejoin="round"
     stroke="rgb(0%, 0%, 0%)"
     stroke-opacity="1"
     stroke-miterlimit="10"
     d="M 265.318179 654.719472 L 259.687601 644.9641 L 258.457194 645.673049 L 264.087772 655.428421 Z M 265.318179 654.719472 "
     transform="matrix(0.6667, 0, 0, -0.6667, -127.60638, 464.040534)"
     id="path96" />
  <path
     fill="none"
     stroke-width="0.8"
     stroke-linecap="round"
     stroke-linejoin="round"
     stroke="rgb(0%, 0%, 0%)"
     stroke-opacity="1"
     stroke-miterlimit="10"
     d="M 257.84199 646.030453 L 260.302805 644.612555 "
     transform="matrix(0.6667, 0, 0, -0.6667, -127.60638, 464.040534)"
     id="path97" />
  <path
     fill="none"
     stroke-width="0.8"
     stroke-linecap="round"
     stroke-linejoin="round"
     stroke="rgb(0%, 0%, 0%)"
     stroke-opacity="1"
     stroke-miterlimit="10"
     d="M 259.382929 645.145732 L 257.97089 642.702494 L 257.355687 643.059898 L 258.767725 645.497276 Z M 259.382929 645.145732 "
     transform="matrix(0.6667, 0, 0, -0.6667, -127.60638, 464.040534)"
     id="path98" />
  <path
     fill="none"
     stroke-width="0.8"
     stroke-linecap="round"
     stroke-linejoin="round"
     stroke="rgb(0%, 0%, 0%)"
     stroke-opacity="1"
     stroke-miterlimit="10"
     d="M 257.051014 643.235671 L 258.281422 642.526722 "
     transform="matrix(0.6667, 0, 0, -0.6667, -127.60638, 464.040534)"
     id="path99" />
  <path
     fill="none"
     stroke-width="0.8"
     stroke-linecap="butt"
     stroke-linejoin="round"
     stroke="rgb(0%, 0%, 0%)"
     stroke-opacity="1"
     stroke-miterlimit="10"
     d="M 263.384682 654.209731 L 263.999886 653.858187 "
     transform="matrix(0.6667, 0, 0, -0.6667, -127.60638, 464.040534)"
     id="path100" />
  <path
     fill="none"
     stroke-width="0.8"
     stroke-linecap="butt"
     stroke-linejoin="round"
     stroke="rgb(0%, 0%, 0%)"
     stroke-opacity="1"
     stroke-miterlimit="10"
     d="M 259.160284 646.897597 L 259.775487 646.540193 "
     transform="matrix(0.6667, 0, 0, -0.6667, -127.60638, 464.040534)"
     id="path101" />
  <path
     fill="none"
     stroke-width="0.8"
     stroke-linecap="butt"
     stroke-linejoin="round"
     stroke="rgb(0%, 0%, 0%)"
     stroke-opacity="1"
     stroke-miterlimit="10"
     d="M 260.572323 649.334975 L 261.187526 648.977571 "
     transform="matrix(0.6667, 0, 0, -0.6667, -127.60638, 464.040534)"
     id="path102" />
  <path
     fill="none"
     stroke-width="0.8"
     stroke-linecap="butt"
     stroke-linejoin="round"
     stroke="rgb(0%, 0%, 0%)"
     stroke-opacity="1"
     stroke-miterlimit="10"
     d="M 261.978502 651.772353 L 262.593706 651.414949 "
     transform="matrix(0.6667, 0, 0, -0.6667, -127.60638, 464.040534)"
     id="path103" />
  <path
     fill="none"
     stroke-width="0.8"
     stroke-linecap="round"
     stroke-linejoin="round"
     stroke="rgb(0%, 0%, 0%)"
     stroke-opacity="1"
     stroke-miterlimit="10"
     d="M 236.673127 667.714916 L 225.406112 667.714916 "
     transform="matrix(0.6667, 0, 0, -0.6667, -127.60638, 464.040534)"
     id="path104" />
  <path
     fill="none"
     stroke-width="0.8"
     stroke-linecap="round"
     stroke-linejoin="round"
     stroke="rgb(0%, 0%, 0%)"
     stroke-opacity="1"
     stroke-miterlimit="10"
     d="M 225.406112 667.000108 L 214.144957 667.000108 L 214.144957 668.423864 L 225.406112 668.423864 Z M 225.406112 667.000108 "
     transform="matrix(0.6667, 0, 0, -0.6667, -127.60638, 464.040534)"
     id="path105" />
  <path
     fill="none"
     stroke-width="0.8"
     stroke-linecap="round"
     stroke-linejoin="round"
     stroke="rgb(0%, 0%, 0%)"
     stroke-opacity="1"
     stroke-miterlimit="10"
     d="M 214.144957 669.132813 L 214.144957 666.291159 "
     transform="matrix(0.6667, 0, 0, -0.6667, -127.60638, 464.040534)"
     id="path106" />
  <path
     fill="none"
     stroke-width="0.8"
     stroke-linecap="round"
     stroke-linejoin="round"
     stroke="rgb(0%, 0%, 0%)"
     stroke-opacity="1"
     stroke-miterlimit="10"
     d="M 214.144957 667.357512 L 211.326738 667.357512 L 211.326738 668.06646 L 214.144957 668.06646 Z M 214.144957 667.357512 "
     transform="matrix(0.6667, 0, 0, -0.6667, -127.60638, 464.040534)"
     id="path107" />
  <path
     fill="none"
     stroke-width="0.8"
     stroke-linecap="round"
     stroke-linejoin="round"
     stroke="rgb(0%, 0%, 0%)"
     stroke-opacity="1"
     stroke-miterlimit="10"
     d="M 211.326738 668.423864 L 211.326738 667.000108 "
     transform="matrix(0.6667, 0, 0, -0.6667, -127.60638, 464.040534)"
     id="path108" />
  <path
     fill="none"
     stroke-width="0.8"
     stroke-linecap="butt"
     stroke-linejoin="round"
     stroke="rgb(0%, 0%, 0%)"
     stroke-opacity="1"
     stroke-miterlimit="10"
     d="M 223.999933 668.423864 L 223.999933 667.714916 "
     transform="matrix(0.6667, 0, 0, -0.6667, -127.60638, 464.040534)"
     id="path109" />
  <path
     fill="none"
     stroke-width="0.8"
     stroke-linecap="butt"
     stroke-linejoin="round"
     stroke="rgb(0%, 0%, 0%)"
     stroke-opacity="1"
     stroke-miterlimit="10"
     d="M 215.551136 668.423864 L 215.551136 667.714916 "
     transform="matrix(0.6667, 0, 0, -0.6667, -127.60638, 464.040534)"
     id="path110" />
  <path
     fill="none"
     stroke-width="0.8"
     stroke-linecap="butt"
     stroke-linejoin="round"
     stroke="rgb(0%, 0%, 0%)"
     stroke-opacity="1"
     stroke-miterlimit="10"
     d="M 218.369355 668.423864 L 218.369355 667.714916 "
     transform="matrix(0.6667, 0, 0, -0.6667, -127.60638, 464.040534)"
     id="path111" />
  <path
     fill="none"
     stroke-width="0.8"
     stroke-linecap="butt"
     stroke-linejoin="round"
     stroke="rgb(0%, 0%, 0%)"
     stroke-opacity="1"
     stroke-miterlimit="10"
     d="M 221.181714 668.423864 L 221.181714 667.714916 "
     transform="matrix(0.6667, 0, 0, -0.6667, -127.60638, 464.040534)"
     id="path112" />
  <path
     fill="none"
     stroke-width="0.8"
     stroke-linecap="round"
     stroke-linejoin="round"
     stroke="rgb(0%, 0%, 0%)"
     stroke-opacity="1"
     stroke-miterlimit="10"
     d="M 268.669574 667.714916 L 257.408418 667.714916 "
     transform="matrix(0.6667, 0, 0, -0.6667, -127.60638, 464.040534)"
     id="path113" />
  <path
     fill="none"
     stroke-width="0.8"
     stroke-linecap="round"
     stroke-linejoin="round"
     stroke="rgb(0%, 0%, 0%)"
     stroke-opacity="1"
     stroke-miterlimit="10"
     d="M 257.408418 667.000108 L 246.141404 667.000108 L 246.141404 668.423864 L 257.408418 668.423864 Z M 257.408418 667.000108 "
     transform="matrix(0.6667, 0, 0, -0.6667, -127.60638, 464.040534)"
     id="path114" />
  <path
     fill="none"
     stroke-width="0.8"
     stroke-linecap="round"
     stroke-linejoin="round"
     stroke="rgb(0%, 0%, 0%)"
     stroke-opacity="1"
     stroke-miterlimit="10"
     d="M 246.141404 669.132813 L 246.141404 666.291159 "
     transform="matrix(0.6667, 0, 0, -0.6667, -127.60638, 464.040534)"
     id="path115" />
  <path
     fill="none"
     stroke-width="0.8"
     stroke-linecap="round"
     stroke-linejoin="round"
     stroke="rgb(0%, 0%, 0%)"
     stroke-opacity="1"
     stroke-miterlimit="10"
     d="M 246.141404 667.357512 L 243.329044 667.357512 L 243.329044 668.06646 L 246.141404 668.06646 Z M 246.141404 667.357512 "
     transform="matrix(0.6667, 0, 0, -0.6667, -127.60638, 464.040534)"
     id="path116" />
  <path
     fill="none"
     stroke-width="0.8"
     stroke-linecap="round"
     stroke-linejoin="round"
     stroke="rgb(0%, 0%, 0%)"
     stroke-opacity="1"
     stroke-miterlimit="10"
     d="M 243.329044 668.423864 L 243.329044 667.000108 "
     transform="matrix(0.6667, 0, 0, -0.6667, -127.60638, 464.040534)"
     id="path117" />
  <path
     fill="none"
     stroke-width="0.8"
     stroke-linecap="butt"
     stroke-linejoin="round"
     stroke="rgb(0%, 0%, 0%)"
     stroke-opacity="1"
     stroke-miterlimit="10"
     d="M 256.002239 668.423864 L 256.002239 667.714916 "
     transform="matrix(0.6667, 0, 0, -0.6667, -127.60638, 464.040534)"
     id="path118" />
  <path
     fill="none"
     stroke-width="0.8"
     stroke-linecap="butt"
     stroke-linejoin="round"
     stroke="rgb(0%, 0%, 0%)"
     stroke-opacity="1"
     stroke-miterlimit="10"
     d="M 247.553442 668.423864 L 247.553442 667.714916 "
     transform="matrix(0.6667, 0, 0, -0.6667, -127.60638, 464.040534)"
     id="path119" />
  <path
     fill="none"
     stroke-width="0.8"
     stroke-linecap="butt"
     stroke-linejoin="round"
     stroke="rgb(0%, 0%, 0%)"
     stroke-opacity="1"
     stroke-miterlimit="10"
     d="M 250.365802 668.423864 L 250.365802 667.714916 "
     transform="matrix(0.6667, 0, 0, -0.6667, -127.60638, 464.040534)"
     id="path120" />
  <path
     fill="none"
     stroke-width="0.8"
     stroke-linecap="butt"
     stroke-linejoin="round"
     stroke="rgb(0%, 0%, 0%)"
     stroke-opacity="1"
     stroke-miterlimit="10"
     d="M 253.18402 668.423864 L 253.18402 667.714916 "
     transform="matrix(0.6667, 0, 0, -0.6667, -127.60638, 464.040534)"
     id="path121" />
  <path
     fill="none"
     stroke-width="0.8"
     stroke-linecap="round"
     stroke-linejoin="round"
     stroke="rgb(0%, 0%, 0%)"
     stroke-opacity="1"
     stroke-miterlimit="10"
     d="M 300.67188 667.714916 L 289.410724 667.714916 "
     transform="matrix(0.6667, 0, 0, -0.6667, -127.60638, 464.040534)"
     id="path122" />
  <path
     fill="none"
     stroke-width="0.8"
     stroke-linecap="round"
     stroke-linejoin="round"
     stroke="rgb(0%, 0%, 0%)"
     stroke-opacity="1"
     stroke-miterlimit="10"
     d="M 289.410724 667.000108 L 278.14371 667.000108 L 278.14371 668.423864 L 289.410724 668.423864 Z M 289.410724 667.000108 "
     transform="matrix(0.6667, 0, 0, -0.6667, -127.60638, 464.040534)"
     id="path123" />
  <path
     fill="none"
     stroke-width="0.8"
     stroke-linecap="round"
     stroke-linejoin="round"
     stroke="rgb(0%, 0%, 0%)"
     stroke-opacity="1"
     stroke-miterlimit="10"
     d="M 278.14371 669.132813 L 278.14371 666.291159 "
     transform="matrix(0.6667, 0, 0, -0.6667, -127.60638, 464.040534)"
     id="path124" />
  <path
     fill="none"
     stroke-width="0.8"
     stroke-linecap="round"
     stroke-linejoin="round"
     stroke="rgb(0%, 0%, 0%)"
     stroke-opacity="1"
     stroke-miterlimit="10"
     d="M 278.14371 667.357512 L 275.325491 667.357512 L 275.325491 668.06646 L 278.14371 668.06646 Z M 278.14371 667.357512 "
     transform="matrix(0.6667, 0, 0, -0.6667, -127.60638, 464.040534)"
     id="path125" />
  <path
     fill="none"
     stroke-width="0.8"
     stroke-linecap="round"
     stroke-linejoin="round"
     stroke="rgb(0%, 0%, 0%)"
     stroke-opacity="1"
     stroke-miterlimit="10"
     d="M 275.325491 668.423864 L 275.325491 667.000108 "
     transform="matrix(0.6667, 0, 0, -0.6667, -127.60638, 464.040534)"
     id="path126" />
  <path
     fill="none"
     stroke-width="0.8"
     stroke-linecap="butt"
     stroke-linejoin="round"
     stroke="rgb(0%, 0%, 0%)"
     stroke-opacity="1"
     stroke-miterlimit="10"
     d="M 287.998686 668.423864 L 287.998686 667.714916 "
     transform="matrix(0.6667, 0, 0, -0.6667, -127.60638, 464.040534)"
     id="path127" />
  <path
     fill="none"
     stroke-width="0.8"
     stroke-linecap="butt"
     stroke-linejoin="round"
     stroke="rgb(0%, 0%, 0%)"
     stroke-opacity="1"
     stroke-miterlimit="10"
     d="M 279.549889 668.423864 L 279.549889 667.714916 "
     transform="matrix(0.6667, 0, 0, -0.6667, -127.60638, 464.040534)"
     id="path128" />
  <path
     fill="none"
     stroke-width="0.8"
     stroke-linecap="butt"
     stroke-linejoin="round"
     stroke="rgb(0%, 0%, 0%)"
     stroke-opacity="1"
     stroke-miterlimit="10"
     d="M 282.368108 668.423864 L 282.368108 667.714916 "
     transform="matrix(0.6667, 0, 0, -0.6667, -127.60638, 464.040534)"
     id="path129" />
  <path
     fill="none"
     stroke-width="0.8"
     stroke-linecap="butt"
     stroke-linejoin="round"
     stroke="rgb(0%, 0%, 0%)"
     stroke-opacity="1"
     stroke-miterlimit="10"
     d="M 285.186326 668.423864 L 285.186326 667.714916 "
     transform="matrix(0.6667, 0, 0, -0.6667, -127.60638, 464.040534)"
     id="path130" />
  <g
     clip-path="url(#clip-1)"
     id="g131">
    <path
       fill="none"
       stroke-width="0.4"
       stroke-linecap="butt"
       stroke-linejoin="round"
       stroke="rgb(66.299438%, 66.299438%, 66.299438%)"
       stroke-opacity="1"
       stroke-miterlimit="10"
       d="M 287.998686 640.001457 L 351.997439 640.001457 L 351.997439 591.997998 L 287.998686 591.997998 "
       transform="matrix(0.6667, 0, 0, -0.6667, -127.60638, 464.040534)"
       id="path131" />
  </g>
  <g
     clip-path="url(#clip-2)"
     id="g132">
    <path
       fill="none"
       stroke-width="0.4"
       stroke-linecap="butt"
       stroke-linejoin="round"
       stroke="rgb(66.299438%, 66.299438%, 66.299438%)"
       stroke-opacity="1"
       stroke-miterlimit="10"
       d="M 351.997439 640.001457 L 320.000992 695.428374 "
       transform="matrix(0.6667, 0, 0, -0.6667, -127.60638, 464.040534)"
       id="path132" />
  </g>
  <path
     fill="none"
     stroke-width="0.4"
     stroke-linecap="butt"
     stroke-linejoin="round"
     stroke="rgb(66.299438%, 66.299438%, 66.299438%)"
     stroke-opacity="1"
     stroke-miterlimit="10"
     d="M 207.998779 624.000304 L 207.998779 607.999151 L 223.999933 607.999151 L 223.999933 624.000304 Z M 207.998779 624.000304 "
     transform="matrix(0.6667, 0, 0, -0.6667, -127.60638, 464.040534)"
     id="path133" />
  <path
     fill="none"
     stroke-width="0.4"
     stroke-linecap="butt"
     stroke-linejoin="round"
     stroke="rgb(66.299438%, 66.299438%, 66.299438%)"
     stroke-opacity="1"
     stroke-miterlimit="10"
     d="M 240.001086 624.000304 L 240.001086 607.999151 L 256.002239 607.999151 L 256.002239 624.000304 Z M 240.001086 624.000304 "
     transform="matrix(0.6667, 0, 0, -0.6667, -127.60638, 464.040534)"
     id="path134" />
  <g
     clip-path="url(#clip-3)"
     id="g135">
    <path
       fill="none"
       stroke-width="0.4"
       stroke-linecap="butt"
       stroke-linejoin="round"
       stroke="rgb(66.299438%, 66.299438%, 66.299438%)"
       stroke-opacity="1"
       stroke-miterlimit="10"
       d="M 303.999839 591.997998 L 303.999839 624.000304 L 320.000992 624.000304 L 320.000992 591.997998 "
       transform="matrix(0.6667, 0, 0, -0.6667, -127.60638, 464.040534)"
       id="path135" />
  </g>
</svg>
